<svg width="54" height="54" viewBox="0 0 54 54" fill="none" xmlns="http://www.w3.org/2000/svg">
<path fill-rule="evenodd" clip-rule="evenodd" d="M13.6603 40.7585V42.3664C13.6603 42.8428 13.2462 43.2001 12.8321 43.2001H5.61519C5.2011 43.2001 4.84617 42.8428 4.84617 42.3664V37.7809C4.31377 34.0292 4.1363 30.337 4.84617 26.5852C4.90532 25.2156 5.79265 24.2032 6.85745 23.3099C6.2659 23.0122 5.67434 22.6549 5.08279 22.3571C4.19546 21.5829 3.89968 20.8088 5.2011 20.2132C6.2659 19.6773 7.62647 19.4391 9.46028 19.5582C9.6969 19.9155 9.99268 20.2728 10.2293 20.6301C11.1758 18.6649 12.1223 16.6997 13.0688 14.7345C13.8969 13.3648 15.08 12.6502 16.4998 12.2334C23.4801 11.0423 30.4604 11.0423 37.4999 12.2334C38.8605 12.6502 40.1027 13.3648 40.8717 14.7345C41.8182 16.6997 42.7647 18.6649 43.7703 20.6301C44.007 20.2728 44.3027 19.9155 44.5394 19.5582C46.314 19.4391 47.7338 19.6773 48.7985 20.2132C50.1 20.8088 49.8042 21.5829 48.9169 22.3571C48.3253 22.6549 47.7338 23.0122 47.1422 23.3099C48.1478 24.2032 49.0352 25.2156 49.1535 26.5852C49.8633 30.337 49.6859 34.0292 49.1535 37.7809V42.3664C49.1535 42.8428 48.7985 43.2001 48.3253 43.2001H41.1675C40.6943 43.2001 40.3393 42.8428 40.3393 42.3664V40.7585C30.7562 40.0439 21.8237 40.0439 13.6603 40.7585ZM17.8603 14.3772C16.8547 14.4368 15.9082 14.675 15.2575 15.8064C14.3702 17.593 13.4237 19.4391 12.4772 21.2852C22.1787 20.5706 31.821 20.5706 41.4633 21.2852C40.576 19.4391 39.6295 17.593 38.683 15.8064C38.0914 14.675 37.145 14.4368 36.1393 14.3772C29.9872 13.5435 24.0125 13.5435 17.8603 14.3772ZM44.3027 35.2798H38.9788C38.5647 35.2798 38.2098 35.5775 38.2098 35.9944C38.2098 36.4112 38.5647 36.709 38.9788 36.709H44.3027C44.6577 36.709 45.0126 36.4112 45.0126 35.9944C45.0126 35.5775 44.6577 35.2798 44.3027 35.2798ZM39.7478 33.1359C41.5816 33.1359 43.5337 33.1359 45.3675 33.1359C46.8464 32.5999 47.438 29.8606 46.5506 29.6819C44.7168 29.9201 42.8239 30.0988 41.0492 30.2774C40.0436 30.8729 39.0379 31.7662 39.7478 33.1359ZM9.6969 35.2798H15.0209C15.435 35.2798 15.7307 35.5775 15.7307 35.9944C15.7307 36.4112 15.435 36.709 15.0209 36.709H9.6969C9.28281 36.709 8.98704 36.4112 8.98704 35.9944C8.98704 35.5775 9.28281 35.2798 9.6969 35.2798ZM14.1927 33.1359C12.418 33.1359 10.4659 33.1359 8.63211 33.1359C7.09407 32.5999 6.56167 29.8606 7.449 29.6819C9.22366 29.9201 11.1758 30.0988 12.9504 30.2774C13.9561 30.8729 14.9026 31.7662 14.1927 33.1359Z" fill="#ACFF8E"/>
</svg>
