<svg width="12" height="10" viewBox="0 0 12 10" fill="none" xmlns="http://www.w3.org/2000/svg">
<path fill-rule="evenodd" clip-rule="evenodd" d="M0 5.08571C0 5.4 0.104529 5.67143 0.313589 5.9L3.5122 9.17857C3.70732 9.39286 3.96516 9.5 4.28571 9.5C4.60627 9.5 4.87108 9.39286 5.08014 9.17857L11.6655 2.42857C11.8885 2.2 12 1.92857 12 1.61429C12 1.3 11.8885 1.03572 11.6655 0.821429C11.4425 0.607142 11.1777 0.5 10.8711 0.5C10.5645 0.5 10.3066 0.607142 10.0976 0.821429L4.30662 6.77857L1.88153 4.29286C1.67247 4.07857 1.41464 3.97143 1.10801 3.97143C0.801392 3.97143 0.540071 4.08214 0.324042 4.30357C0.108013 4.525 0 4.78571 0 5.08571Z" fill="url(#paint0_linear_130_3112)"/>
<defs>
<linearGradient id="paint0_linear_130_3112" x1="6" y1="-1.45455" x2="6" y2="12.2182" gradientUnits="userSpaceOnUse">
<stop stop-color="#131314"/>
<stop offset="0.457682" stop-color="#101011"/>
<stop offset="1" stop-color="#131314"/>
</linearGradient>
</defs>
</svg>
