<svg width="56" height="56" viewBox="0 0 56 56" fill="none" xmlns="http://www.w3.org/2000/svg">
<path d="M35.8168 41.5165H18.4107C18.1716 41.5165 17.976 41.711 17.976 41.9488V47.7277C17.976 47.9655 18.1716 48.1601 18.4107 48.1601H35.8168C36.0559 48.1601 36.2516 47.9655 36.2516 47.7277V41.9488C36.2516 41.711 36.0559 41.5165 35.8168 41.5165ZM32.6039 46.4747H21.6228C21.2871 46.4747 21.0141 46.2041 21.0141 45.8694C21.0141 45.5348 21.2871 45.2641 21.6228 45.2641H32.6039C32.9405 45.2641 33.2126 45.5348 33.2126 45.8694C33.2126 46.2041 32.9405 46.4747 32.6039 46.4747ZM32.6039 44.4133H21.6228C21.2871 44.4133 21.0141 44.1417 21.0141 43.808C21.0141 43.4733 21.2871 43.2027 21.6228 43.2027H32.6039C32.9405 43.2027 33.2126 43.4733 33.2126 43.808C33.2126 44.1417 32.9405 44.4133 32.6039 44.4133Z" fill="#76777B"/>
<path d="M38.681 8.22229C38.6793 8.60536 38.6715 9.25736 38.6471 10.0901C38.6315 10.6202 38.6097 11.2237 38.5767 11.8783C38.4141 15.1651 38.0019 19.7369 36.9594 22.7383C36.8716 22.9925 36.7785 23.2346 36.682 23.4638C36.649 23.5407 36.6159 23.616 36.582 23.6903C36.5168 23.8339 36.449 23.9731 36.3785 24.1054C36.2742 24.3034 36.1664 24.4937 36.0559 24.6761C33.6735 28.64 30.2345 29.0594 30.2345 33.8041V36.3282H23.9922V33.8041C23.9922 28.9781 20.4359 28.627 18.0508 24.4703C17.9821 24.3518 17.9151 24.2299 17.849 24.1054C17.7786 23.9731 17.7108 23.8339 17.6456 23.6903C17.6212 23.6367 17.5969 23.5814 17.5725 23.526C17.4064 23.1412 17.2534 22.7184 17.1134 22.267C16.1856 19.2786 15.8065 15.012 15.6509 11.8939C15.6187 11.2402 15.5961 10.6374 15.5804 10.1074C15.5561 9.26773 15.5483 8.61055 15.5465 8.22402C15.5709 8.00871 15.7578 7.84009 15.9804 7.84009H38.2471C38.4689 7.84009 38.655 8.00784 38.681 8.22229Z" fill="#76777B"/>
<path d="M15.95 22.6241C15.8396 22.2679 15.7361 21.8943 15.6404 21.5078C13.0545 19.9747 10.5111 17.4367 9.80682 15.2827C9.35901 13.9139 9.88159 13.3397 10.3137 13.0267C10.8807 12.6168 12.045 12.1455 14.4353 11.9587V11.9535C14.4057 11.3578 14.3822 10.7576 14.3649 10.1714C12.0006 10.3478 10.319 10.8138 9.25641 11.5817C7.92691 12.5441 7.51563 14.0548 8.09734 15.8353C8.71296 17.716 10.4755 19.9219 12.8128 21.7361C14.0188 22.6734 15.2465 23.4102 16.4152 23.9117C16.2508 23.5217 16.0943 23.0885 15.95 22.6241Z" fill="#76777B"/>
<path d="M46.1833 11.5817C44.9477 10.6885 42.8747 10.2034 39.8645 10.1074C39.8636 10.1134 39.8636 10.1195 39.8636 10.1255C39.8462 10.7542 39.8227 11.3327 39.794 11.8939C43.0173 11.9968 44.4703 12.5528 45.1259 13.0267C45.5581 13.3397 46.0807 13.9139 45.6329 15.2827C44.7999 17.8293 41.3966 20.912 38.3915 22.2385C38.3028 22.548 38.2089 22.8472 38.1098 23.1335C38.0167 23.4033 37.9141 23.6722 37.8046 23.9316C37.7654 24.0241 37.728 24.1071 37.6907 24.1901C37.655 24.2688 37.6185 24.3467 37.582 24.421C39.1532 23.9964 40.9122 23.0686 42.6269 21.7361C44.9642 19.9219 46.7267 17.716 47.3424 15.8353C47.9241 14.0548 47.5128 12.5441 46.1833 11.5817Z" fill="#76777B"/>
<path d="M32.6039 37.9711V40.3059H21.6228V37.9711C21.6228 37.7333 21.8184 37.5388 22.0575 37.5388H32.1692C32.4083 37.5388 32.6039 37.7333 32.6039 37.9711Z" fill="#76777B"/>
</svg>
