<svg width="63" height="63" viewBox="0 0 63 63" fill="none" xmlns="http://www.w3.org/2000/svg">
<g clip-path="url(#clip0_32_10308)">
<path d="M10.1235 10.2421C8.7689 12.0377 7.64173 13.5293 6.51399 15.0216C5.39706 16.4998 4.27904 17.9795 2.9374 19.7576L11.2957 18.5829L10.1235 10.2421Z" fill="#ACFF8E"/>
<path d="M21.459 40.1275L21.3263 39.1829C21.1737 38.0973 21.9281 37.0906 23.0079 36.9388L25.091 36.6461C25.0948 36.6455 25.0987 36.645 25.1027 36.6444L26.1043 32.255C26.626 29.9708 28.3763 28.2961 30.5635 27.9887L38.3661 26.8921L35.431 6.0073L11.3467 9.39211L12.7047 19.0545C12.7556 19.4171 12.5022 19.7525 12.1386 19.8036L2.45414 21.1647L7.24342 55.2421L24.7718 52.7787L23.8606 46.289C23.7033 45.1688 23.6218 43.4078 23.8144 42.19L23.8414 42.0603L23.9124 41.7901L23.694 41.8208C22.6142 41.9726 21.6116 41.2131 21.459 40.1275ZM10.4762 24.3186L29.4433 21.653C29.8069 21.6019 30.1429 21.8544 30.1939 22.2171C30.2449 22.5797 29.9914 22.9151 29.6278 22.9662L10.6607 25.6318C10.2972 25.6829 9.96107 25.4304 9.91011 25.0678C9.85915 24.7052 10.1126 24.3697 10.4762 24.3186ZM11.2317 29.6947L26.1967 27.5915C26.5602 27.5404 26.8963 27.793 26.9473 28.1556C26.9983 28.5182 26.7448 28.8537 26.3812 28.9048L11.4163 31.0079C11.0527 31.059 10.7166 30.8064 10.6657 30.4438C10.6147 30.0812 10.8682 29.7458 11.2317 29.6947ZM11.9873 35.0708L23.8296 33.4064C24.1931 33.3553 24.5292 33.6079 24.5802 33.9705C24.6311 34.3331 24.3777 34.6686 24.0141 34.7197L12.1719 36.384C11.8083 36.4351 11.4722 36.1825 11.4212 35.8199C11.3703 35.4573 11.6237 35.1219 11.9873 35.0708ZM12.7428 40.4468L19.7422 39.4631C20.1058 39.412 20.4418 39.6646 20.4928 40.0272C20.5438 40.3898 20.2903 40.7253 19.9267 40.7764L12.9274 41.7601C12.5639 41.8111 12.2277 41.5586 12.1768 41.196C12.1258 40.8333 12.3793 40.4979 12.7428 40.4468ZM22.2222 45.936L13.683 47.1361C13.3194 47.1872 12.9833 46.9346 12.9323 46.572C12.8814 46.2094 13.1348 45.874 13.4984 45.8229L22.0377 44.6228C22.4012 44.5717 22.7374 44.8242 22.7883 45.1868C22.8393 45.5495 22.5858 45.8849 22.2222 45.936Z" fill="#ACFF8E"/>
<path d="M57.4001 33.4445L55.3169 33.7373C54.99 33.7833 54.7374 34.0237 54.6516 34.3281L51.7827 29.1218C50.9201 27.5567 49.3058 26.6939 47.6702 26.9238L30.7481 29.302C29.1127 29.5319 27.7986 30.8062 27.4008 32.5484L26.0781 38.3441C25.9117 38.075 25.6025 37.9134 25.2755 37.9594L23.1923 38.2521C22.8387 38.3018 22.5922 38.6364 22.643 38.9979L22.7757 39.9425C22.8265 40.3038 23.1557 40.5572 23.5093 40.5075L25.3032 40.2554C25.4723 40.2316 25.6127 40.3839 25.5747 40.5499L25.3239 41.6493L25.1276 42.3955C24.9621 43.4427 25.0298 45.0538 25.1773 46.1042L26.5511 55.8875C26.6119 56.3201 27.0129 56.6214 27.4467 56.5605L31.0986 56.0472C31.5323 55.9863 31.8347 55.5861 31.7739 55.1535L31.5188 53.3382L53.5547 50.2413L53.8098 52.0565C53.8706 52.4892 54.2715 52.7905 54.7054 52.7295L58.3573 52.2163C58.7911 52.1553 59.0935 51.7552 59.0327 51.3225L57.651 41.4992L57.6501 41.4988C57.4987 40.4493 57.1244 38.9102 56.6821 37.9608L56.288 37.2976L55.7435 36.31C55.6614 36.1608 55.7544 35.9757 55.9234 35.952L57.7171 35.6999C58.0707 35.6502 58.3173 35.3159 58.2665 34.9546L58.1337 34.01C58.0829 33.6485 57.7537 33.3949 57.4001 33.4445ZM27.8799 39.1905L29.1127 33.1942C29.3277 31.9451 30.0746 31.0528 31.0154 30.9206L47.8594 28.5533C48.8002 28.4211 49.7641 29.073 50.315 30.2141L53.1529 35.6386C53.6098 36.5118 53.0859 37.5795 52.1347 37.7131L29.4306 40.904C28.4794 41.0377 27.6815 40.1558 27.8799 39.1905ZM32.957 49.2843L30.1293 49.6817C29.0223 49.8373 27.9992 49.0684 27.844 47.9643L27.559 45.9359L29.7263 45.6313C31.5772 45.3712 33.2879 46.6568 33.5474 48.5029C33.6006 48.8813 33.3364 49.231 32.957 49.2843ZM47.1866 46.6291C47.2889 47.357 46.8443 48.0212 46.1938 48.1127L38.1511 49.243C37.5006 49.3344 36.8902 48.8185 36.7879 48.0905L36.4905 45.9745C36.3882 45.2465 36.8327 44.5823 37.4832 44.4909L45.526 43.3606C46.1765 43.2692 46.7869 43.7851 46.8892 44.5131L47.1866 46.6291ZM55.599 44.0136C55.7542 45.1178 54.9825 46.1389 53.8756 46.2945L51.048 46.6919C50.6687 46.7452 50.3181 46.4818 50.2649 46.1035L50.2031 45.6631C49.9778 44.0602 51.0982 42.5775 52.7053 42.3516L55.3139 41.985L55.599 44.0136Z" fill="#ACFF8E"/>
</g>
<defs>
<clipPath id="clip0_32_10308">
<rect width="55" height="55" fill="white" transform="translate(0 7.6543) rotate(-8)"/>
</clipPath>
</defs>
</svg>
