<svg width="40" height="40" viewBox="0 0 40 40" fill="none" xmlns="http://www.w3.org/2000/svg">
<path d="M33.4059 19.3616L32.6483 19.8967L27.5877 23.5533L26.7695 24.1478C26.8301 24.5937 26.8604 25.0694 26.8604 25.5153C26.8604 25.7532 27.0725 25.9613 27.315 25.9613H34.3453C34.5877 25.9613 34.7998 25.7532 34.7998 25.5153C34.7998 23.3154 34.315 21.2344 33.4059 19.3616Z" fill="#8EBBFF"/>
<path d="M25.7998 20.9966L26.6483 20.6696L32.0119 18.6481L32.8907 18.3211C30.315 13.8618 25.4059 10.7998 19.7998 10.7998C11.5271 10.7998 4.7998 17.3995 4.7998 25.5153C4.7998 25.7532 5.01193 25.9613 5.25435 25.9613C5.49677 25.9613 5.7089 25.7532 5.7089 25.5153C5.7089 19.8075 10.4665 15.1401 16.2847 15.1401C20.4665 15.1401 24.0725 17.5481 25.7998 20.9966Z" fill="#8EBBFF"/>
<path d="M21.8301 23.4641C21.7089 23.5235 21.5271 23.4938 21.4059 23.4343C20.8907 23.1073 20.2847 22.929 19.6786 22.929C19.1634 22.929 18.618 23.0479 18.1634 23.3154C16.618 24.1478 16.0422 26.0504 16.8907 27.5666C17.7392 29.0827 19.6786 29.6476 21.224 28.8152C22.2544 28.2801 22.8907 27.2098 22.8907 26.0802C22.8907 25.9315 22.9513 25.8126 23.0725 25.7234L30.8604 20.1048L21.8301 23.4641Z" fill="#8EBBFF"/>
</svg>
