<svg width="56" height="56" viewBox="0 0 56 56" fill="none" xmlns="http://www.w3.org/2000/svg">
<path fill-rule="evenodd" clip-rule="evenodd" d="M23.4036 12.1362C23.1828 12.1362 22.971 12.2248 22.8149 12.3825C22.6588 12.5402 22.5711 12.7541 22.571 12.9771V19.6138C22.5711 19.8369 22.6588 20.0507 22.8149 20.2084C22.971 20.3661 23.1828 20.4547 23.4036 20.4548H24.9635C25.1843 20.4547 25.3961 20.3661 25.5522 20.2084C25.7083 20.0507 25.796 19.8369 25.796 19.6138V12.9771C25.796 12.7541 25.7083 12.5402 25.5522 12.3825C25.3961 12.2248 25.1843 12.1362 24.9635 12.1362H23.4036Z" fill="#76777B"/>
<path fill-rule="evenodd" clip-rule="evenodd" d="M10.8224 9.52079C10.6175 9.54353 10.4282 9.64197 10.2912 9.7971C10.1541 9.95222 10.0789 10.153 10.0801 10.3608V45.6396C10.0801 45.8623 10.1679 46.076 10.3242 46.2335C10.4805 46.391 10.6925 46.4795 10.9136 46.4795H45.0866C45.3076 46.4795 45.5196 46.391 45.6759 46.2335C45.8322 46.076 45.9201 45.8623 45.9201 45.6396V16.1618C45.9183 15.9397 45.8293 15.7274 45.6726 15.5712L39.9294 9.77016C39.7744 9.61223 39.5637 9.52257 39.3434 9.52079H10.9136C10.8832 9.51911 10.8528 9.51911 10.8224 9.52079ZM20.9024 11.2007H35.0977V21.6085H20.9024V11.2007ZM17.4643 30.4282H38.5229V33.7618H17.4643V30.4282ZM17.4643 35.4418H38.5229V39.6679H17.4643V35.4418ZM17.4643 41.3478H38.5229V44.7996H17.4643V41.3478Z" fill="#76777B"/>
</svg>
