<svg width="55" height="55" viewBox="0 0 55 55" fill="none" xmlns="http://www.w3.org/2000/svg">
<path d="M41.25 43.7074V45.8799C41.25 47.9076 39.6579 49.5008 37.6316 49.5008H17.3684C15.3421 49.5008 13.75 47.9076 13.75 45.8799V43.7074C13.75 42.4764 14.6908 41.5349 15.9211 41.5349H16.5724C17.2961 41.5349 17.9474 41.897 18.3816 42.4764L19.1776 43.7074H35.75L36.5461 42.4764C36.9803 41.897 37.6316 41.5349 38.3553 41.5349H39.0789C40.3092 41.5349 41.25 42.4764 41.25 43.7074ZM19.9737 39.3624C18.8158 39.3624 17.6579 39.0728 16.6447 38.4934L14.9079 40.2314C15.1974 40.159 15.5592 40.0866 15.8487 40.0866H16.5C17.4408 40.0866 18.3816 40.4487 19.0329 41.1729L20.2632 39.3624H19.9737ZM32.9276 39.3624H22.0724L20.1184 42.2591H34.8092L32.9276 39.3624ZM38.2105 38.3486C37.1974 39.0004 35.9671 39.3624 34.7368 39.3624H34.6645L35.8947 41.1729C36.5461 40.4487 37.4868 40.0866 38.4276 40.0866H39.0789C39.4408 40.0866 39.7303 40.159 40.0197 40.2314L38.2105 38.3486ZM22.4342 37.9141H32.5658V24.8791H22.4342V37.9141ZM30.3947 13.2924V14.7408H32.5658V23.4308H22.4342V14.7408H24.6053V13.2924H23.2303C22.4342 13.2924 21.7829 12.6407 21.7829 11.8441C21.7829 11.7717 21.7829 11.6993 21.7829 11.6993L22.3618 7.35428C22.4342 6.63011 23.0855 6.05078 23.8092 6.05078H31.1908C31.9145 6.05078 32.5658 6.63011 32.6382 7.35428L33.2171 11.6993C33.2895 12.4959 32.7829 13.22 31.9868 13.2924C31.9145 13.2924 31.8421 13.2924 31.8421 13.2924H30.3947ZM28.9474 13.2924H26.0526V14.7408H28.9474V13.2924ZM20.9868 14.7408H20.625C18.8158 14.7408 17.2961 16.1167 17.0066 17.9271L14.9079 32.2656C14.5461 35.0174 16.5 37.552 19.3224 37.9141C19.5395 37.9141 19.7566 37.9865 19.9737 37.9865H20.9868V14.7408ZM39.7303 32.1932L37.9211 17.9271C37.7039 16.1167 36.1842 14.7408 34.3026 14.7408H34.0132V37.9141H34.7368C37.5592 37.9141 39.8026 35.6692 39.8026 32.8449C39.8026 32.6277 39.8026 32.4104 39.7303 32.1932Z" fill="#FFD28E"/>
</svg>
