<svg width="55" height="55" viewBox="0 0 55 55" fill="none" xmlns="http://www.w3.org/2000/svg">
<path d="M36.6875 26.9707L38.9415 31.5428C38.993 31.6472 39.0924 31.7195 39.2075 31.7363L44.2476 32.4694C44.5373 32.5116 44.653 32.868 44.4433 33.0726L40.7963 36.6315C40.713 36.7127 40.675 36.8298 40.6947 36.9445L41.5556 41.9697C41.6051 42.2586 41.3023 42.4789 41.0431 42.3425L36.5351 39.9699C36.4322 39.9157 36.3093 39.9157 36.2064 39.9699L31.6984 42.3425C31.4393 42.4789 31.1364 42.2586 31.1859 41.9697L32.0469 36.9445C32.0665 36.8298 32.0285 36.7127 31.9453 36.6315L28.2982 33.0726C28.0886 32.868 28.2043 32.5116 28.494 32.4694L33.5341 31.7363C33.6491 31.7195 33.7486 31.6472 33.8 31.5428L36.054 26.9707C36.1836 26.7079 36.558 26.7079 36.6875 26.9707Z" fill="#FFD28E"/>
<path d="M29.7015 38.2277C29.7318 38.0507 29.6732 37.8702 29.5448 37.7449L23.9195 32.2556C23.5962 31.9401 23.7746 31.3903 24.2215 31.3253L31.9954 30.1945C32.1729 30.1686 32.3263 30.057 32.4056 29.8961L35.8822 22.8439C36.0821 22.4386 36.6595 22.4386 36.8593 22.8439L39.6885 28.5828L43.4293 24.8379C43.776 24.4909 43.9814 24.0272 44.0055 23.5369L44.5479 12.5243C44.6053 11.3592 43.6482 10.3978 42.4843 10.4514L31.443 10.9591C30.9509 10.9817 30.4851 11.1875 30.1368 11.5362L10.479 31.2155C9.70752 31.9878 9.70752 33.24 10.479 34.0123L20.9751 44.52C21.7466 45.2923 22.9974 45.2923 23.7688 44.52L29.6285 38.6539L29.7015 38.2277ZM38.9843 14.154C39.4889 13.6489 40.307 13.6489 40.8116 14.154C41.3163 14.6592 41.3163 15.4782 40.8116 15.9834C40.307 16.4886 39.4889 16.4886 38.9843 15.9834C38.4797 15.4782 38.4797 14.6592 38.9843 14.154Z" fill="#FFD28E"/>
</svg>
