<svg width="73" height="73" viewBox="0 0 73 73" fill="none" xmlns="http://www.w3.org/2000/svg">
<path d="M41.7924 5.3436C41.7924 2.409 39.398 0 36.4488 0C33.4996 0 31.0906 2.4017 31.0906 5.3436C31.0906 8.2928 33.4923 10.7018 36.4488 10.7018C39.398 10.7018 41.7924 8.2928 41.7924 5.3436Z" fill="#8EBBFF"/>
<path d="M34.5873 11.3661V40.8362H38.2957V11.3661C37.7117 11.5486 37.0985 11.68 36.4488 11.68C35.7991 11.6727 35.1859 11.5413 34.5873 11.3661Z" fill="#8EBBFF"/>
<path d="M29.1269 43.2671V45.0483H43.7561V43.2671C43.7561 42.4641 43.1064 41.8144 42.3034 41.8144H30.5869C29.7912 41.8144 29.1269 42.4641 29.1269 43.2671Z" fill="#8EBBFF"/>
<path d="M26.5281 47.4792V50.662H46.3549V47.4792C46.3549 46.6762 45.7052 46.0265 44.9022 46.0265H27.9808C27.1924 46.0265 26.5281 46.6762 26.5281 47.4792Z" fill="#8EBBFF"/>
<path d="M22.6299 53.1075V58.4H50.2604V53.1075C50.2604 52.3045 49.6107 51.6402 48.8077 51.6402H24.0826C23.2942 51.6402 22.6299 52.3045 22.6299 53.1075Z" fill="#8EBBFF"/>
</svg>
