<svg width="63" height="63" viewBox="0 0 63 63" fill="none" xmlns="http://www.w3.org/2000/svg">
<g clip-path="url(#clip0_32_10348)">
<path fill-rule="evenodd" clip-rule="evenodd" d="M4.79132 11.4242L30.1709 7.85735L31.0857 14.3665C31.302 15.9052 32.7039 16.9837 34.2111 16.7718L40.5893 15.8754L45.5816 51.3975C45.6536 51.9097 45.3032 52.3847 44.8013 52.4552L11.2211 57.1746C10.7192 57.2451 10.2514 56.8847 10.1795 56.373L4.01103 12.4819C3.93852 11.9698 4.28942 11.4948 4.79132 11.4242ZM32.0047 7.68177L32.9081 14.1104C32.9801 14.6226 33.4484 14.9825 33.9497 14.912L40.249 14.0267C40.1907 13.934 40.1156 13.8522 40.023 13.7809L32.2983 7.8359C32.2057 7.76464 32.1075 7.71348 32.0047 7.68177ZM12.6134 21.3972L23.1074 19.9224C23.6108 19.8517 23.9598 19.378 23.8877 18.8647C23.8155 18.3515 23.3494 17.9918 22.846 18.0626L12.3521 19.5374C11.8486 19.6082 11.4996 20.0818 11.5718 20.5951C11.6439 21.1083 12.11 21.468 12.6134 21.3972ZM16.5602 49.48L37.5486 46.5303C38.0521 46.4595 38.401 45.9859 38.3289 45.4726C38.2567 44.9588 37.7902 44.6003 37.2873 44.671L16.2989 47.6207C15.7955 47.6915 15.4465 48.1651 15.5186 48.6784C15.5903 49.1922 16.0568 49.5508 16.5602 49.48ZM15.7709 43.8637L36.7593 40.9139C37.2627 40.8432 37.6117 40.3695 37.5396 39.8563C37.4674 39.3425 37.0009 38.9839 36.498 39.0546L15.5096 42.0044C15.0061 42.0751 14.6572 42.5488 14.7293 43.062C14.8009 43.5754 15.2675 43.9344 15.7709 43.8637ZM14.9816 38.2473L35.97 35.2976C36.4734 35.2268 36.8224 34.7532 36.7503 34.2399C36.6781 33.7261 36.2116 33.3676 35.7087 33.4383L14.7203 36.388C14.2168 36.4588 13.8678 36.9324 13.94 37.4457C14.0116 37.959 14.4781 38.3181 14.9816 38.2473ZM14.1922 32.6304L35.1806 29.6807C35.684 29.61 36.033 29.1363 35.9609 28.623C35.8886 28.1093 35.4222 27.7507 34.9193 27.8214L13.9309 30.7711C13.4274 30.8419 13.0784 31.3156 13.1506 31.8288C13.2222 32.3421 13.6887 32.7012 14.1922 32.6304ZM13.4028 27.0141L34.3912 24.0644C34.8947 23.9936 35.2437 23.52 35.1715 23.0067C35.0993 22.4929 34.6329 22.1344 34.1299 22.2051L13.1415 25.1548C12.6381 25.2256 12.2891 25.6992 12.3612 26.2125C12.4329 26.7258 12.8994 27.0849 13.4028 27.0141Z" fill="#76777B"/>
</g>
<defs>
<clipPath id="clip0_32_10348">
<rect width="55" height="55" fill="white" transform="translate(0 7.6543) rotate(-8)"/>
</clipPath>
</defs>
</svg>
