<svg width="56" height="56" viewBox="0 0 56 56" fill="none" xmlns="http://www.w3.org/2000/svg">
<path d="M28.0001 18.6457C26.6585 18.6666 25.3258 18.4253 24.0786 17.9356C22.8315 17.4458 21.6942 16.7173 20.7321 15.7918C21.1067 18.365 22.1576 20.7958 23.7797 22.8409C24.2669 23.5124 24.8976 24.0694 25.6271 24.4722C26.3565 24.875 27.1668 25.1138 28.0001 25.1716C28.8152 25.1168 29.6087 24.8878 30.3257 24.5002C31.0427 24.1126 31.6662 23.5757 32.1532 22.9265C33.8116 20.8632 34.8866 18.401 35.2681 15.7918C34.3098 16.7226 33.1733 17.4545 31.9252 17.9446C30.6771 18.4347 29.3426 18.6731 28.0001 18.6457Z" fill="#76777B"/>
<path d="M28.0193 14.241C25.5353 14.2708 23.0531 14.099 20.5975 13.7273C21.4316 14.8947 22.543 15.8412 23.834 16.4832C25.1249 17.1252 26.5557 17.4431 28.0001 17.4088C29.4459 17.4453 30.8783 17.1274 32.1699 16.4834C33.4615 15.8394 34.572 14.8894 35.4027 13.7178C32.961 14.0992 30.491 14.2742 28.0193 14.241Z" fill="#76777B"/>
<path d="M20.809 12.5096C23.1946 12.8712 25.6062 13.0366 28.0193 13.0043C30.4168 13.0349 32.8126 12.8662 35.1816 12.5001L36.4025 12.2813C36.7635 11.6328 36.983 10.9166 37.0466 10.1789C37.0466 7.9624 32.9993 6.16445 28.0001 6.16445C25.6735 6.10855 23.3639 6.57018 21.2417 7.51529C19.8188 8.21925 18.9536 9.15152 18.9536 10.1789C19.0014 10.923 19.2148 11.6474 19.5785 12.3003L20.809 12.5096ZM25.8216 8.87565L27.3877 9.04498L28.0232 7.61803L28.6587 9.04498L30.2257 8.87565L29.2951 10.1342L30.2257 11.3918L28.6587 11.2235L28.0232 12.6504L27.3877 11.2235L25.8216 11.3918L26.7503 10.1352L25.8216 8.87565Z" fill="#76777B"/>
<path d="M10.7434 50.3997H16.0118V48.3449L11.0415 47.7932L10.7434 50.3997Z" fill="#76777B"/>
<path d="M44.8145 34.4657C44.7642 33.9389 44.5812 33.433 44.2822 32.9942C43.9833 32.5555 43.5779 32.1979 43.1033 31.9542L35.0566 27.7971L35.0373 27.7876L35.8545 34.8272L32.7781 33.7998L32.9896 34.8557L28.4039 37.3196L28.0001 37.5384L27.5963 37.3196L23.0105 34.8462L23.2221 33.7998L20.1457 34.8272L20.9628 27.7876L20.9436 27.7971L12.8969 31.9542C12.4222 32.1979 12.0169 32.5555 11.718 32.9942C11.419 33.433 11.236 33.9389 11.1857 34.4657L10.0801 46.2523H10.0897L16.0118 46.9086V40.4303C16.0118 40.2411 16.0877 40.0596 16.2229 39.9258C16.3582 39.792 16.5416 39.7168 16.7328 39.7168C16.924 39.7168 17.1074 39.792 17.2426 39.9258C17.3778 40.0596 17.4538 40.2411 17.4538 40.4303V50.3999H38.5463V40.4303C38.5463 40.2411 38.6223 40.0596 38.7575 39.9258C38.8927 39.792 39.0761 39.7168 39.2674 39.7168C39.4586 39.7168 39.642 39.792 39.7772 39.9258C39.9124 40.0596 39.9884 40.2411 39.9884 40.4303V46.9086L45.9105 46.2523H45.9201L44.8145 34.4657ZM24.5584 43.5696L22.3953 44.5304L20.3091 43.5696V41.686H24.5584V43.5696ZM35.7487 43.5696L33.5857 44.5304L31.4899 43.5696V41.686H35.7487V43.5696Z" fill="#76777B"/>
<path d="M39.9884 48.3449V50.3997H45.2567L44.9683 47.7932L39.9884 48.3449Z" fill="#76777B"/>
<path d="M25.289 27.2264C25.5082 27.7786 25.8774 28.2602 26.3558 28.6178C26.8343 28.9754 27.4033 29.1951 28.0001 29.2526C28.5908 29.1966 29.1549 28.9818 29.631 28.6313C30.1072 28.2809 30.4774 27.8082 30.7015 27.2644C30.7112 27.2549 30.7112 27.2359 30.7208 27.2264L31.4418 25.2477C30.4474 25.9849 29.2425 26.3912 28.0001 26.4082C26.7601 26.3941 25.5574 25.9873 24.568 25.2477L25.2794 27.2073C25.2794 27.2168 25.289 27.2168 25.289 27.2264Z" fill="#76777B"/>
<path d="M33.4799 26.7886L32.6724 26.0656L31.9994 27.8826L31.711 28.6817C31.6918 28.7483 31.6629 28.8244 31.6341 28.9005C31.4611 29.4332 31.2207 30.1277 30.9131 31.0314C30.9131 31.0409 30.9131 31.0504 30.9035 31.0504L29.346 35.1886L31.3745 34.0946L30.8938 31.6498L34.1625 32.7533L33.4799 26.7886Z" fill="#76777B"/>
<path d="M26.6542 35.1886L25.0968 31.0505L23.9431 27.7399L23.3375 26.0847L22.5203 26.8172L21.8377 32.7533L25.1256 31.6498L24.6257 34.1041L26.6542 35.1886Z" fill="#76777B"/>
<path d="M29.5767 30.3465C29.0804 30.5576 28.5461 30.6672 28.0059 30.6689C27.4656 30.6705 26.9307 30.5641 26.433 30.356L28.0001 34.6368L29.5767 30.3465Z" fill="#76777B"/>
</svg>
