<svg width="63" height="63" viewBox="0 0 63 63" fill="none" xmlns="http://www.w3.org/2000/svg">
<g clip-path="url(#clip0_32_10388)">
<path d="M40.6339 46.501L39.8455 46.7088L40.4273 50.8484C43.1967 49.3238 43.0966 49.3136 43.4312 49.3879L46.2376 50.0318L45.6558 45.8923L44.8407 45.9098C42.6082 48.1789 43.4047 48.0621 40.6339 46.501Z" fill="#76777B"/>
<path d="M33.9032 39.1304C35.328 40.643 35.4183 40.6497 35.4329 41.0213L35.4964 42.9774C37.3148 43.5128 37.0355 43.4307 37.3194 43.5121C37.6818 43.6165 37.6827 43.757 38.7229 45.508C40.6899 44.9938 40.7305 44.9153 41.0522 45.0982L42.7155 46.0338L44.0518 44.6766C44.3107 44.4122 44.399 44.4725 46.4085 44.4279C47.0361 42.0398 46.8452 42.3529 47.4922 41.9417L48.8125 41.106C48.3005 39.0673 48.2312 39.0091 48.3932 38.6903L49.279 36.9695L47.9538 35.5642C47.6997 35.2943 47.7581 35.2084 47.6898 33.1171C45.7251 32.5441 45.6461 32.5843 45.4558 32.2665L44.4639 30.5912L42.6371 31.0663C42.2929 31.1584 42.2618 31.0705 40.4706 30.0607C39.0272 31.5251 39.0123 31.6194 38.6607 31.6252L36.7783 31.6714L36.282 33.5558C36.1873 33.9185 36.0826 33.9089 34.369 34.9892C34.885 37.0225 34.9641 37.0841 34.7897 37.4143L33.8986 39.1311L33.9032 39.1304ZM40.7869 32.3113C43.8372 31.8826 46.6779 34.1084 47.1226 37.2726C47.5673 40.4367 45.4501 43.3593 42.3999 43.7879C39.3496 44.2166 36.5089 41.9909 36.0642 38.8267C35.6195 35.6626 37.7367 32.74 40.7869 32.3113Z" fill="#76777B"/>
<path d="M46.4735 8.34815L3.43785 14.3964C2.09241 14.5855 1.15561 15.8768 1.35288 17.2805L5.28022 45.225C5.47682 46.6239 6.73394 47.6117 8.07938 47.4226L34.1496 43.7587C34.1005 43.6103 34.1152 43.715 34.0443 41.3377L32.5475 39.7479C32.3324 39.521 32.2842 39.1784 32.4291 38.9057L33.4311 36.9745L32.8898 34.8283C32.8141 34.5236 32.9378 34.2005 33.1969 34.0379L35.0051 32.8959L35.5661 30.7694C35.6458 30.4671 35.916 30.2496 36.2162 30.2462L38.3415 30.1901L39.8553 28.6576C40.0734 28.4377 40.4097 28.3905 40.68 28.5417L42.5529 29.5983L44.616 29.0657C44.9108 28.9903 45.2252 29.1208 45.3858 29.3942L46.5065 31.2843L48.5595 31.8837C48.8534 31.9686 49.0614 32.245 49.0726 32.5588L49.1485 34.7704L50.64 36.3561C50.8505 36.5837 50.9026 36.9208 50.7583 37.1983L49.7624 39.1384C50.3415 41.4539 50.3261 41.3445 50.3238 41.4952L51.1256 41.3826C52.471 41.1935 53.4078 39.9022 53.2105 38.4985L49.2812 10.5397C49.0846 9.14084 47.8275 8.15301 46.482 8.34209L46.4735 8.34815ZM15.6057 18.3293L35.861 15.4826C36.7734 15.3544 36.974 16.7819 36.0617 16.9101L15.8063 19.7568C14.894 19.885 14.6934 18.4576 15.6057 18.3293ZM19.3669 41.5809L13.787 42.3651C12.8747 42.4934 12.6741 41.0659 13.5864 40.9377L19.1663 40.1535C20.0786 40.0253 20.2792 41.4527 19.3669 41.5809ZM42.3005 24.2916L11.8438 28.572C10.9315 28.7002 10.7309 27.2727 11.6432 27.1445L42.0999 22.8641C43.0122 22.7359 43.2128 24.1633 42.3005 24.2916ZM41.7381 20.29L11.2814 24.5704C10.3691 24.6986 10.1685 23.2712 11.0808 23.1429L41.5375 18.8625C42.4498 18.7343 42.6504 20.1618 41.7381 20.29Z" fill="#76777B"/>
<path d="M42.1946 42.3611C44.48 42.04 46.07 39.8465 45.7357 37.4675C45.4013 35.0884 43.2683 33.4182 40.9829 33.7394C38.6975 34.0606 37.1082 36.2588 37.4419 38.6331C37.7756 41.0074 39.9092 42.6823 42.1946 42.3611Z" fill="#76777B"/>
</g>
<defs>
<clipPath id="clip0_32_10388">
<rect width="55" height="55" fill="white" transform="translate(0 7.6543) rotate(-8)"/>
</clipPath>
</defs>
</svg>
