<svg width="56" height="56" viewBox="0 0 56 56" fill="none" xmlns="http://www.w3.org/2000/svg">
<path fill-rule="evenodd" clip-rule="evenodd" d="M37.5193 29.6544C36.6898 29.6544 36.0166 28.9812 36.0166 28.1561C36.0166 27.3309 36.6898 26.6534 37.5193 26.6534C38.3488 26.6534 39.0219 27.3266 39.0219 28.1561C39.0219 28.9856 38.3488 29.6544 37.5193 29.6544ZM27.8477 33.9234C24.6644 33.9234 22.0761 31.335 22.0761 28.1517C22.0761 24.9684 24.6644 22.3801 27.8477 22.3801C31.031 22.3801 33.6194 24.9684 33.6194 28.1517C33.6194 31.335 31.031 33.9234 27.8477 33.9234ZM18.2109 29.6544C17.3814 29.6544 16.7083 28.9812 16.7083 28.1561C16.7083 27.3309 17.3814 26.6534 18.2109 26.6534C19.0404 26.6534 19.7136 27.3266 19.7136 28.1561C19.7136 28.9856 19.0404 29.6544 18.2109 29.6544ZM41.1065 21.4724H14.8973C14.728 21.4724 14.5803 21.6157 14.5803 21.7894V34.21C14.5803 34.3837 14.7236 34.527 14.8973 34.527H41.1065C41.2758 34.527 41.4235 34.3794 41.4235 34.21V21.7894C41.4235 21.6157 41.2758 21.4724 41.1065 21.4724ZM27.3005 26.2235C27.0486 26.3625 26.8836 26.5883 26.8836 26.8489C26.8836 27.1702 26.9574 27.3266 27.3005 27.4525V26.2235ZM18.6192 28.1561C18.6192 27.9302 18.4368 27.7478 18.2109 27.7478C17.9851 27.7478 17.8027 27.9302 17.8027 28.1561C17.8027 28.3819 17.9851 28.5643 18.2109 28.5643C18.4368 28.5643 18.6192 28.3819 18.6192 28.1561ZM28.3906 28.8596V30.0886C28.6425 29.9497 28.8075 29.7238 28.8075 29.4633C28.8075 29.1419 28.7293 28.9856 28.3906 28.8596ZM37.9275 28.1561C37.9275 27.9302 37.7451 27.7478 37.5193 27.7478C37.2934 27.7478 37.111 27.9302 37.111 28.1561C37.111 28.3819 37.2934 28.5643 37.5193 28.5643C37.7451 28.5643 37.9275 28.3819 37.9275 28.1561ZM42.0141 38.3922C44.2594 35.3696 45.445 31.778 45.445 27.9997C45.445 18.3803 37.6192 10.5545 27.9997 10.5545C24.2258 10.5545 20.6299 11.7401 17.6073 13.9853C17.4813 14.0809 17.3988 14.2242 17.3901 14.3849C17.3771 14.5412 17.4379 14.6976 17.5465 14.8105L23.114 20.378H17.642L14.8105 17.5465C14.6976 17.4336 14.5412 17.3771 14.3849 17.3901C14.2285 17.4032 14.0809 17.4813 13.9897 17.6073C11.7444 20.6299 10.5588 24.2214 10.5588 27.9997C10.5588 37.6192 18.3846 45.445 28.0041 45.445C31.778 45.445 35.3739 44.2594 38.3965 42.0141C38.5225 41.9186 38.605 41.7753 38.6137 41.6146C38.6267 41.4582 38.5659 41.3019 38.4573 41.189L32.8898 35.6214H38.3618L41.1933 38.453C41.2976 38.5572 41.4322 38.6137 41.5798 38.6137C41.5929 38.6137 41.6059 38.6137 41.6189 38.6137C41.7753 38.6006 41.9229 38.5225 42.0185 38.3965L42.0141 38.3922ZM27.9997 6.71973C16.2653 6.71973 6.71973 16.2653 6.71973 27.9997C6.71973 39.7341 16.2653 49.2797 27.9997 49.2797C39.7341 49.2797 49.2797 39.7341 49.2797 27.9997C49.2797 16.2653 39.7341 6.71973 27.9997 6.71973ZM28.6294 26.4102C28.725 26.5145 28.8292 26.6838 28.8032 26.914C28.7684 27.2137 28.9856 27.4829 29.2852 27.5177C29.5849 27.5524 29.8541 27.3353 29.8889 27.0356C29.9453 26.5449 29.7846 26.0672 29.4416 25.685C29.168 25.3766 28.7988 25.1638 28.3906 25.064V24.5558C28.3906 24.2562 28.1474 24.0086 27.8434 24.0086C27.5394 24.0086 27.2962 24.2518 27.2962 24.5558V25.064C26.4276 25.2811 25.7892 25.9977 25.7892 26.8489C25.7892 28.0345 26.584 28.408 27.2962 28.5904V30.0843C27.205 30.0322 27.1225 29.9714 27.0573 29.8932C26.9618 29.789 26.8576 29.6196 26.8836 29.3894C26.9184 29.0898 26.7012 28.8205 26.4016 28.7858C26.1019 28.751 25.8326 28.9682 25.7979 29.2678C25.7458 29.7586 25.9021 30.2363 26.2452 30.6185C26.5188 30.9268 26.888 31.1396 27.2962 31.2395V31.7476C27.2962 32.0473 27.5394 32.2948 27.8434 32.2948C28.1474 32.2948 28.3906 32.0516 28.3906 31.7476V31.2395C29.2592 31.0224 29.9019 30.3058 29.9019 29.4546C29.9019 28.269 29.1072 27.8955 28.3906 27.7131V26.2148C28.4818 26.2669 28.5643 26.3277 28.6294 26.4059V26.4102ZM27.8434 23.4745C25.2637 23.4745 23.1661 25.5764 23.1661 28.1561C23.1661 30.7357 25.2637 32.8333 27.8434 32.8333C30.423 32.8333 32.525 30.7357 32.525 28.1561C32.525 25.5764 30.423 23.4745 27.8434 23.4745Z" fill="#76777B"/>
</svg>
