<svg width="40" height="40" viewBox="0 0 40 40" fill="none" xmlns="http://www.w3.org/2000/svg">
<path d="M26.4749 15.7251C26.4749 14.6077 26.116 13.7026 25.3983 13.0098C24.6806 12.317 23.7366 11.9706 22.5661 11.9706H17.2661V19.4797H22.5661C23.7366 19.4797 24.6806 19.1333 25.3983 18.4404C26.116 17.7476 26.4749 16.8425 26.4749 15.7251ZM30.4002 15.7251C30.4002 17.8817 29.7018 19.6417 28.305 21.0049C26.9083 22.3682 25.1057 23.0498 22.8974 23.0498H17.2661V25.0277H25.6302C25.7848 25.0277 25.9118 25.0779 26.0111 25.1785C26.1105 25.2791 26.1602 25.4076 26.1602 25.564V27.7095C26.1602 27.8659 26.1105 27.9944 26.0111 28.095C25.9118 28.1956 25.7848 28.2458 25.6302 28.2458H17.2661V31.464C17.2661 31.6205 17.2137 31.749 17.1088 31.8495C17.0039 31.9501 16.8797 32.0004 16.7361 32.0004H13.9702C13.8156 32.0004 13.6886 31.9501 13.5893 31.8495C13.4899 31.749 13.4402 31.6205 13.4402 31.464V28.2458H9.7302C9.57561 28.2458 9.44863 28.1956 9.34926 28.095C9.24988 27.9944 9.2002 27.8659 9.2002 27.7095V25.564C9.2002 25.4076 9.24988 25.2791 9.34926 25.1785C9.44863 25.0779 9.57561 25.0277 9.7302 25.0277H13.4402V23.0498H9.7302C9.57561 23.0498 9.44863 22.9995 9.34926 22.899C9.24988 22.7984 9.2002 22.6699 9.2002 22.5135V20.016C9.2002 19.8708 9.24988 19.745 9.34926 19.6389C9.44863 19.5327 9.57561 19.4797 9.7302 19.4797H13.4402V8.93675C13.4402 8.78031 13.4899 8.65181 13.5893 8.55124C13.6886 8.45067 13.8156 8.40039 13.9702 8.40039H22.8974C25.1057 8.40039 26.9083 9.08202 28.305 10.4453C29.7018 11.8085 30.4002 13.5685 30.4002 15.7251Z" fill="#FFD28E"/>
</svg>
