<svg width="63" height="63" viewBox="0 0 63 63" fill="none" xmlns="http://www.w3.org/2000/svg">
<g clip-path="url(#clip0_32_10428)">
<path d="M29.9493 38.246L28.0323 40.7626L27.2804 40.2021C26.9362 39.9455 26.4352 40.0159 26.1751 40.3575C25.9149 40.699 25.9846 41.1948 26.3288 41.4514L27.7057 42.4778C27.8778 42.6061 28.0877 42.6568 28.2865 42.6289C28.4853 42.601 28.673 42.4943 28.8031 42.3235L31.1993 39.1778C31.4595 38.8363 31.3898 38.3405 31.0456 38.0839C30.7014 37.8273 30.2083 37.8966 29.9493 38.246Z" fill="#76777B"/>
<path d="M34.6542 6.11654L0.458984 10.9224L6.65078 54.9792L40.846 50.1734L34.6542 6.11654ZM9.79387 13.5831L25.468 11.3802C25.8974 11.3199 26.296 11.617 26.3557 12.042C26.4155 12.467 26.1142 12.8624 25.6848 12.9228L10.0107 15.1256C9.58123 15.186 9.18266 14.8889 9.12293 14.4639C9.0632 14.0389 9.36444 13.6434 9.79387 13.5831ZM5.58533 18.8936L30.9773 15.325C31.4067 15.2646 31.8053 15.5617 31.865 15.9867C31.9247 16.4117 31.6235 16.8072 31.1941 16.8675L5.80212 20.4361C5.3727 20.4965 4.97412 20.1994 4.9144 19.7744C4.85467 19.3494 5.15591 18.9539 5.58533 18.8936ZM6.2346 23.5133L31.6265 19.9447C32.056 19.8844 32.4545 20.1815 32.5143 20.6065C32.574 21.0315 32.2728 21.4269 31.8433 21.4873L6.45139 25.0559C6.02196 25.1162 5.62339 24.8191 5.56366 24.3941C5.50393 23.9692 5.80517 23.5737 6.2346 23.5133ZM6.88386 28.1331L32.2758 24.5645C32.7052 24.5041 33.1038 24.8012 33.1635 25.2262C33.2233 25.6512 32.922 26.0467 32.4926 26.107L7.10065 29.6756C6.67122 29.736 6.27265 29.4389 6.21293 29.0139C6.1532 28.5889 6.45443 28.1934 6.88386 28.1331ZM7.53313 32.7528L32.9251 29.1842C33.3545 29.1239 33.7531 29.421 33.8128 29.846C33.8725 30.271 33.5713 30.6664 33.1419 30.7268L7.74992 34.2954C7.32049 34.3557 6.92192 34.0586 6.86219 33.6336C6.80246 33.2087 7.1037 32.8132 7.53313 32.7528ZM18.2204 37.5349L8.39918 38.9151C7.96975 38.9755 7.57118 38.6784 7.51145 38.2534C7.45173 37.8284 7.75296 37.433 8.18239 37.3726L18.0115 35.9912C18.441 35.9309 18.8395 36.228 18.8993 36.653C18.9601 37.0858 18.6577 37.4734 18.2204 37.5349ZM34.341 41.3366L34.6295 43.4469L32.6946 44.393L31.677 46.2695L29.5584 45.9092L27.6213 46.8395L26.1259 45.3161L23.9961 44.9333L23.6917 42.8252L22.2031 41.2929L23.2117 39.4096L22.9232 37.2993L24.8581 36.3532L25.8757 34.4767L27.9942 34.837L29.9314 33.9067L31.4268 35.43L33.5476 35.8061L33.8519 37.9142L35.3405 39.4465L34.341 41.3366Z" fill="#76777B"/>
<path d="M42.6305 51.5037L10.7733 55.9809L11.0996 58.3026L45.3028 53.4956L39.1099 9.43089L36.7639 9.76059L42.6305 51.5037Z" fill="#76777B"/>
<path d="M51.8166 28.6399L46.0113 29.4558L48.1892 44.9521L53.9944 44.1362L51.8166 28.6399Z" fill="#76777B"/>
<path d="M49.1038 23.8206C49.1635 24.2456 48.8623 24.6411 48.4329 24.7014C48.0034 24.7618 47.6049 24.4647 47.5451 24.0397L46.334 15.4219L44.0914 15.7371L45.8025 27.9122L51.6077 27.0963L49.8966 14.9212L47.9006 15.2017L49.1117 23.8195L49.1038 23.8206Z" fill="#76777B"/>
<path d="M46.2085 9.79758C44.6021 10.0233 43.4862 11.4883 43.7085 13.0702L43.8656 14.1878L49.6708 13.3719L49.5137 12.2544C49.2914 10.6725 47.8149 9.57182 46.2085 9.79758Z" fill="#76777B"/>
<path d="M51.8196 49.7227L53.6159 45.7704L48.9956 46.4198L51.8196 49.7227Z" fill="#76777B"/>
</g>
<defs>
<clipPath id="clip0_32_10428">
<rect width="55" height="55" fill="white" transform="translate(0 7.6543) rotate(-8)"/>
</clipPath>
</defs>
</svg>
