<svg width="56" height="56" viewBox="0 0 56 56" fill="none" xmlns="http://www.w3.org/2000/svg">
<path d="M43.874 37.8616L36.2358 33.9069C35.175 33.3541 33.8171 33.6517 33.0957 34.5872L30.2951 38.2018C27.5793 36.7134 25.5 35.3101 23.0812 32.8863C20.4928 30.2924 19.1349 28.2087 17.7345 25.5297L21.299 22.7657C22.275 22.0002 22.5296 20.682 21.978 19.6189L18.0316 12.0072C17.3526 10.6889 15.6553 10.2212 14.3822 11.0716L9.54474 14.3034C8.39902 15.0689 7.76251 16.3446 7.84738 17.7053C7.93224 19.1086 8.10198 20.8521 8.44145 22.0428C9.84178 27.4858 13.279 33.1414 18.0316 37.9041C22.7842 42.7093 28.428 46.1537 33.8595 47.557C35.0901 47.8546 36.8299 48.0673 38.2302 48.1523C39.5881 48.2374 40.9036 47.5995 41.6674 46.4088L44.85 41.4761C45.6562 40.2004 45.1895 38.5419 43.874 37.8616Z" fill="#76777B"/>
<path d="M27.9187 29.7821L33.6474 27.4007C34.9628 27.9961 36.4056 28.3363 37.9332 28.3363C43.577 28.3363 48.1598 23.7437 48.1598 18.0881C48.1598 12.4324 43.577 7.83984 37.9332 7.83984C32.2895 7.83984 27.7066 12.4324 27.7066 18.0881C27.7066 19.9166 28.2158 21.66 29.022 23.1484L26.7306 28.5489C26.3911 29.3143 27.1549 30.0797 27.9187 29.7821ZM37.9332 24.3816C37.2967 24.3816 36.745 23.8713 36.745 23.1909C36.745 22.553 37.2543 22.0002 37.9332 22.0002C38.5697 22.0002 39.1214 22.5105 39.1214 23.1909C39.1214 23.8288 38.5697 24.3816 37.9332 24.3816ZM35.6418 12.645C36.448 11.9646 37.5089 11.667 38.5697 11.8796C40.0125 12.1347 41.1582 13.2829 41.4128 14.7287C41.7098 16.5147 40.7339 18.1731 39.0365 18.7259C38.9516 18.7684 38.9092 18.8535 38.9092 18.9811V20.0867C38.9092 20.597 38.4848 21.0222 37.9756 21.0222C37.4664 21.0222 37.0421 20.597 37.0421 20.0867V18.9811C37.0421 18.0455 37.6362 17.1951 38.4848 16.9399C39.1638 16.7273 39.7579 16.0044 39.5881 15.0689C39.4608 14.431 38.9092 13.8782 38.2727 13.7506C37.7635 13.6656 37.2967 13.7932 36.9148 14.0908C36.5329 14.3885 36.3207 14.8563 36.3207 15.3665C36.3207 15.8768 35.8964 16.3021 35.3872 16.3021C34.8779 16.3021 34.4536 15.8768 34.4536 15.3665C34.4112 14.3034 34.8355 13.3254 35.6418 12.645Z" fill="#76777B"/>
</svg>
