<svg width="66" height="66" viewBox="0 0 66 66" fill="none" xmlns="http://www.w3.org/2000/svg">
<path d="M30.8191 23.9018C28.7396 23.9018 26.8537 24.7433 25.477 26.1074C24.0633 27.5086 23.186 29.4611 23.186 31.6214V43.7522H42.8138V31.6214C42.8138 29.4616 41.9366 27.5086 40.5228 26.1074C39.1462 24.7422 37.2613 23.9018 35.1808 23.9018H30.8191ZM15.2804 29.4158C13.624 29.4158 12.2817 30.7734 12.2817 32.4485C12.2817 34.1231 13.624 35.4812 15.2804 35.4812C16.9367 35.4812 18.2791 34.1231 18.2791 32.4485C18.2791 30.7734 16.9362 29.4158 15.2804 29.4158ZM50.7195 29.4158C49.0631 29.4158 47.7208 30.7734 47.7208 32.4485C47.7208 34.1231 49.0631 35.4812 50.7195 35.4812C52.3759 35.4812 53.7182 34.1231 53.7182 32.4485C53.7182 30.7734 52.3759 29.4158 50.7195 29.4158ZM18.6869 26.1074H18.9998H21.0051H22.6577C24.4182 23.4475 27.4169 21.6963 30.8191 21.6963H32.1821L31.3643 20.0421L32.9999 17.8365L34.6356 20.0421L33.8178 21.6963H35.1808C38.5835 21.6963 41.5816 23.4475 43.3427 26.1074H45.4821H47.0006H47.313L45.499 15.7031C45.2755 14.409 44.1583 13.4253 42.8138 13.4253H32.9999H23.186C21.842 13.4253 20.7244 14.409 20.5008 15.7031L18.6869 26.1074ZM55.8991 43.7522C57.1034 43.7522 58.0799 44.7398 58.0799 45.9578C58.0799 47.1759 57.1034 48.1634 55.8991 48.1634H53.7182V53.126C53.7182 54.0391 52.986 54.7802 52.0825 54.7802H49.3564C48.453 54.7802 47.7208 54.0391 47.7208 53.126V48.1634H18.2791V53.126C18.2791 54.0391 17.5468 54.7802 16.6434 54.7802H13.9173C13.0139 54.7802 12.2817 54.0391 12.2817 53.126V48.1634H10.1008C8.89641 48.1634 7.91992 47.1759 7.91992 45.9578C7.91992 44.7398 8.89641 43.7522 10.1008 43.7522V39.341C10.1008 37.984 10.5048 36.7224 11.1978 35.6726C10.5108 34.7837 10.1008 33.6644 10.1008 32.4485C10.1008 29.5553 12.4196 27.2102 15.2804 27.2102C15.6168 27.2102 15.9455 27.2428 16.2639 27.3045L16.3702 26.6952L18.3527 15.3221C18.755 12.9902 20.7647 11.2202 23.186 11.2202H32.9999H42.8138C45.2346 11.2202 47.2443 12.9902 47.6466 15.3221L49.6296 26.6952L49.7359 27.3045C50.0543 27.2428 50.3836 27.2102 50.7195 27.2102C53.5802 27.2102 55.8991 29.5553 55.8991 32.4485C55.8991 33.6644 55.4896 34.7832 54.8021 35.6726C55.4951 36.7224 55.8991 37.984 55.8991 39.341V43.7522ZM38.7247 40.7195V29.1401C38.7247 28.6836 39.0905 28.313 39.5425 28.313C39.9945 28.313 40.3604 28.6836 40.3604 29.1401V40.7195C40.3604 41.1761 39.9945 41.5466 39.5425 41.5466C39.0905 41.5466 38.7247 41.1761 38.7247 40.7195ZM25.6395 40.7195V29.1401C25.6395 28.6836 26.0053 28.313 26.4573 28.313C26.9093 28.313 27.2751 28.6836 27.2751 29.1401V40.7195C27.2751 41.1761 26.9093 41.5466 26.4573 41.5466C26.0053 41.5466 25.6395 41.1761 25.6395 40.7195ZM28.9108 40.7195V27.4859C28.9108 27.0294 29.2766 26.6588 29.7286 26.6588C30.1806 26.6588 30.5464 27.0294 30.5464 27.4859V40.7195C30.5464 41.1761 30.1806 41.5466 29.7286 41.5466C29.2766 41.5466 28.9108 41.1761 28.9108 40.7195ZM32.1821 40.7195V26.9345C32.1821 26.4774 32.5479 26.1074 32.9999 26.1074C33.4519 26.1074 33.8178 26.4774 33.8178 26.9345V40.7195C33.8178 41.1761 33.4519 41.5466 32.9999 41.5466C32.5479 41.5466 32.1821 41.1761 32.1821 40.7195ZM35.4534 40.7195V27.4859C35.4534 27.0294 35.8192 26.6588 36.2712 26.6588C36.7232 26.6588 37.0891 27.0294 37.0891 27.4859V40.7195C37.0891 41.1761 36.7232 41.5466 36.2712 41.5466C35.8192 41.5466 35.4534 41.1761 35.4534 40.7195ZM50.9921 23.3504C50.9921 22.1324 51.9686 21.1449 53.173 21.1449H54.2634C55.4678 21.1449 56.4443 22.1324 56.4443 23.3504C56.4443 24.5685 55.4678 25.556 54.2634 25.556H53.173C51.9686 25.556 50.9921 24.5685 50.9921 23.3504ZM9.55557 23.3504C9.55557 22.1324 10.5321 21.1449 11.7364 21.1449H12.8269C14.0313 21.1449 15.0077 22.1324 15.0077 23.3504C15.0077 24.5685 14.0313 25.556 12.8269 25.556H11.7364C10.5321 25.556 9.55557 24.5685 9.55557 23.3504Z" fill="#ACFF8E"/>
</svg>
