<svg width="40" height="40" viewBox="0 0 40 40" fill="none" xmlns="http://www.w3.org/2000/svg">
<path d="M34.9959 34.4484H5.4879V8.94039L13.5159 20.3844C13.8479 20.8564 14.4999 20.9724 14.9719 20.6404C15.0039 20.6204 15.0319 20.5964 15.0599 20.5724L15.1839 20.4644L19.0559 17.0724L24.0799 26.2564L21.5479 28.3724L33.7639 32.3484L33.7519 18.1764L30.5959 20.8124L20.8999 13.1164L20.5079 12.7884C19.8239 12.2164 18.8039 12.3084 18.2359 12.9924C18.2279 13.0044 18.2119 13.0204 18.2039 13.0324L14.3399 17.9724L5.4879 7.84039V4.94439C5.4879 4.64439 5.2439 4.40039 4.9439 4.40039C4.6439 4.40039 4.3999 4.64439 4.3999 4.94439V34.9964C4.3999 35.2964 4.6439 35.5404 4.9439 35.5404H34.9959C35.2959 35.5404 35.5399 35.2964 35.5399 34.9964C35.5399 34.6964 35.2959 34.4484 34.9959 34.4484Z" fill="#FFD28E"/>
</svg>
