<svg width="63" height="63" viewBox="0 0 63 63" fill="none" xmlns="http://www.w3.org/2000/svg">
<g clip-path="url(#clip0_32_10278)">
<path d="M32 15.6027L38.8791 14.6359L29.9201 7.93419L30.8801 14.765C30.9624 15.3505 31.4103 15.6856 32 15.6027Z" fill="#76777B"/>
<path d="M11.6508 33.3891L28.1607 31.0688L28.0784 30.4833C27.7219 27.9461 29.5822 25.4955 32.1373 25.1364L40.7853 23.921L39.743 16.5047L32.2742 17.5543C30.7019 17.7753 29.3306 16.5749 29.1386 15.2087L28.0689 7.5973L5.66256 10.7463C4.09018 10.9673 2.90636 12.5268 3.12579 14.0881L8.91324 55.268C9.10524 56.6342 10.6731 57.807 12.2454 57.586L32.4898 54.7408C31.7904 54.043 31.2602 53.1225 31.123 52.1466L30.4922 47.6578L13.9822 49.9781C13.3926 50.061 12.9446 49.7259 12.8624 49.1404C12.7801 48.5549 13.1183 48.1094 13.7079 48.0265L30.2179 45.7062L29.4499 40.2415L12.9399 42.5619C12.3503 42.6447 11.9024 42.3096 11.8201 41.7242C11.7378 41.1387 12.076 40.6931 12.6657 40.6102L29.1756 38.2899L28.4076 32.8253L11.8977 35.1456C11.308 35.2284 10.8601 34.8934 10.7778 34.3079C10.7229 33.9175 11.0612 33.472 11.6508 33.3891ZM10.6359 26.168L35.0077 22.7427C35.5974 22.6599 36.0453 22.995 36.1276 23.5805C36.2099 24.166 35.8716 24.6115 35.282 24.6944L10.9102 28.1196C10.3206 28.2025 9.87263 27.8674 9.79034 27.2819C9.70806 26.6964 10.0463 26.2508 10.6359 26.168Z" fill="#76777B"/>
<path d="M36.2241 54.216L51.7513 52.0338C53.3237 51.8128 54.3384 50.4761 54.119 48.9148L51.1018 27.4466C50.8824 25.8852 49.5385 24.88 47.9662 25.101L32.439 27.2832C30.8666 27.5042 29.8519 28.8409 30.0713 30.4022L33.0885 51.8704C33.3079 53.4317 34.6518 54.437 36.2241 54.216ZM44.3236 49.0973L42.3582 49.3735C41.7685 49.4564 41.3206 49.1213 41.2383 48.5358C41.156 47.9503 41.4942 47.5047 42.0839 47.4219L44.0493 47.1456C44.639 47.0628 45.0869 47.3978 45.1692 47.9833C45.2515 48.5688 44.9133 49.0144 44.3236 49.0973ZM43.7476 44.9988L41.7821 45.275C41.1925 45.3579 40.7446 45.0228 40.6623 44.4373C40.58 43.8518 40.9182 43.4063 41.5079 43.3234L43.4733 43.0472C44.063 42.9643 44.5109 43.2994 44.5932 43.8849C44.6755 44.4704 44.3373 44.9159 43.7476 44.9988ZM43.1716 40.9003L41.2061 41.1766C40.6165 41.2594 40.1686 40.9244 40.0863 40.3389C40.004 39.7534 40.3422 39.3078 40.9319 39.2249L42.8973 38.9487C43.487 38.8658 43.9349 39.2009 44.0172 39.7864C44.0995 40.3719 43.7613 40.8175 43.1716 40.9003ZM50.22 48.2686L48.2546 48.5448C47.6649 48.6277 47.217 48.2926 47.1347 47.7071C47.0524 47.1216 47.3906 46.676 47.9803 46.5932L49.9457 46.3169C50.5354 46.2341 50.9833 46.5692 51.0656 47.1547C51.1479 47.7402 50.8097 48.1857 50.22 48.2686ZM49.644 44.1701L47.6785 44.4464C47.0889 44.5292 46.641 44.1941 46.5587 43.6086C46.4764 43.0231 46.8146 42.5776 47.4043 42.4947L49.3697 42.2185C49.9594 42.1356 50.4073 42.4707 50.4896 43.0562C50.5719 43.6417 50.2337 44.0873 49.644 44.1701ZM49.068 40.0717L47.1025 40.3479C46.5129 40.4308 46.065 40.0957 45.9827 39.5102C45.9004 38.9247 46.2386 38.4791 46.8283 38.3962L48.7937 38.12C49.3834 38.0371 49.8313 38.3722 49.9136 38.9577C49.9959 39.5432 49.6577 39.9888 49.068 40.0717ZM33.0698 31.772C32.9876 31.1865 33.3258 30.7409 33.9154 30.658L47.4771 28.7521C48.0668 28.6692 48.5147 29.0043 48.597 29.5898L49.2005 33.8834C49.2827 34.4689 48.9445 34.9145 48.3549 34.9974L34.7931 36.9033C34.2035 36.9862 33.7556 36.6511 33.6733 36.0656L33.0698 31.772ZM35.232 40.026L37.1975 39.7497C37.7871 39.6669 38.2351 40.002 38.3173 40.5875C38.3996 41.173 38.0614 41.6185 37.4718 41.7014L35.5063 41.9776C34.9167 42.0605 34.4687 41.7254 34.3864 41.1399C34.3041 40.5544 34.6424 40.1088 35.232 40.026ZM35.8354 44.3196L37.8009 44.0434C38.3905 43.9605 38.8385 44.2956 38.9208 44.8811C39.0031 45.4666 38.6648 45.9122 38.0752 45.995L36.1097 46.2713C35.5201 46.3541 35.0721 46.0191 34.9898 45.4336C34.9076 44.8481 35.2458 44.4025 35.8354 44.3196ZM36.4114 48.4181L38.3769 48.1419C38.9665 48.059 39.4145 48.3941 39.4968 48.9796C39.5791 49.5651 39.2408 50.0106 38.6512 50.0935L36.6857 50.3697C36.0961 50.4526 35.6481 50.1175 35.5658 49.532C35.4836 48.9465 35.8218 48.501 36.4114 48.4181Z" fill="#76777B"/>
</g>
<defs>
<clipPath id="clip0_32_10278">
<rect width="55" height="55" fill="white" transform="translate(0 7.6543) rotate(-8)"/>
</clipPath>
</defs>
</svg>
