<svg width="40" height="40" viewBox="0 0 40 40" fill="none" xmlns="http://www.w3.org/2000/svg">
<path d="M31.3388 27.0437L25.883 24.2189C25.1252 23.824 24.1553 24.0367 23.64 24.7049L21.6395 27.2867C19.6997 26.2236 18.2145 25.2213 16.4868 23.4899C14.6379 21.6371 13.668 20.1488 12.6677 18.2352L15.2138 16.2609C15.9109 15.7142 16.0928 14.7726 15.6988 14.0132L12.8799 8.57627C12.3949 7.63467 11.1825 7.30056 10.2732 7.90804L6.81788 10.2165C5.99951 10.7632 5.54486 11.6744 5.60548 12.6464C5.6661 13.6487 5.78734 14.8941 6.02982 15.7445C7.03005 19.6324 9.48517 23.6722 12.8799 27.0741C16.2746 30.5063 20.3059 32.9666 24.1856 33.969C25.0646 34.1816 26.3073 34.3335 27.3075 34.3942C28.2775 34.455 29.2171 33.9994 29.7627 33.1489L32.0359 29.6255C32.6118 28.7143 32.2784 27.5297 31.3388 27.0437Z" fill="#8EBBFF"/>
<path d="M19.9422 21.2726L24.034 19.5717C24.9737 19.9969 26.0042 20.2399 27.0954 20.2399C31.1266 20.2399 34.4001 16.9595 34.4001 12.9198C34.4001 8.88001 31.1266 5.59961 27.0954 5.59961C23.0641 5.59961 19.7906 8.88001 19.7906 12.9198C19.7906 14.2258 20.1543 15.4712 20.7302 16.5343L19.0935 20.3918C18.851 20.9385 19.3966 21.4852 19.9422 21.2726ZM27.0954 17.4151C26.6407 17.4151 26.2467 17.0506 26.2467 16.5646C26.2467 16.109 26.6104 15.7142 27.0954 15.7142C27.55 15.7142 27.944 16.0787 27.944 16.5646C27.944 17.0203 27.55 17.4151 27.0954 17.4151ZM25.4586 9.03188C26.0345 8.54589 26.7923 8.33328 27.55 8.48515C28.5806 8.66739 29.3989 9.48749 29.5808 10.5202C29.793 11.7959 29.0958 12.9805 27.8834 13.3754C27.8228 13.4057 27.7925 13.4665 27.7925 13.5576V14.3473C27.7925 14.7118 27.4894 15.0156 27.1257 15.0156C26.7619 15.0156 26.4588 14.7118 26.4588 14.3473V13.5576C26.4588 12.8894 26.8832 12.2819 27.4894 12.0997C27.9744 11.9478 28.3987 11.4314 28.2775 10.7632C28.1865 10.3076 27.7925 9.91273 27.3378 9.8216C26.9741 9.76086 26.6407 9.85198 26.3679 10.0646C26.0951 10.2772 25.9436 10.6113 25.9436 10.9758C25.9436 11.3403 25.6405 11.644 25.2768 11.644C24.913 11.644 24.6099 11.3403 24.6099 10.9758C24.5796 10.2165 24.8827 9.51786 25.4586 9.03188Z" fill="#8EBBFF"/>
</svg>
