<svg width="73" height="73" viewBox="0 0 73 73" fill="none" xmlns="http://www.w3.org/2000/svg">
<path fill-rule="evenodd" clip-rule="evenodd" d="M54.8756 36.4424C54.8678 36.5719 54.8638 39.3186 54.8638 39.4507H22.2448C22.2448 39.3186 22.2409 36.5719 22.2331 36.4424H54.8756ZM1.44177 36.4424H8.6871C8.67927 36.5719 8.67535 39.3186 8.67535 39.4507H3.66247C3.19406 39.4507 2.76738 39.1825 2.56384 38.76C2.13327 37.8719 1.44177 36.4424 1.44177 36.4424ZM71.5582 36.4424C71.5582 36.4424 70.8654 37.8719 70.4362 38.76C70.2313 39.1825 69.8046 39.4507 69.3375 39.4507C68.8978 39.4507 68.4333 39.4507 68.4333 39.4507C68.4333 39.3186 68.4294 36.5719 68.4216 36.4424H71.5582ZM0.134394 34.8074L0 31.2001H1.38956C2.11109 31.2001 2.80261 30.9137 3.31277 30.4023C3.82163 29.8909 4.10869 29.1977 4.10869 28.4744H0.533658C1.29694 26.8067 2.8209 25.5419 4.7102 25.1613C10.1028 24.077 21.8534 22.4473 21.8534 22.4473C21.8534 22.4473 24.6352 19.4599 26.7658 17.1723C28.2924 15.5309 30.4309 14.5996 32.6699 14.5996H55.6832C57.399 14.5996 59.0299 15.3504 60.1494 16.6544C61.7947 18.5719 63.9972 21.1394 63.9972 21.1394H67.4561C68.9265 21.1394 70.337 21.7254 71.3769 22.7678C72.375 23.7684 72.953 25.1117 72.9974 26.5216H71.887C71.6626 26.5216 71.4486 26.6118 71.2894 26.7701C71.1316 26.9283 71.0429 27.1442 71.0429 27.3678C71.0429 28.3122 71.0429 29.832 71.0429 30.7763C71.0429 31.0013 71.1316 31.2171 71.2894 31.3754C71.4486 31.5336 71.6626 31.6226 71.887 31.6226H73L72.8656 34.8074H68.1267C67.2643 32.0424 64.6887 30.0334 61.6486 30.0334C58.6085 30.0334 56.0329 32.0424 55.1705 34.8074H21.9382C21.0758 32.0424 18.5002 30.0334 15.4601 30.0334C12.42 30.0334 9.84442 32.0424 8.98198 34.8074H0.134394ZM51.08 32.1379H53.4769C55.1118 29.2552 58.204 27.309 61.7451 27.309C62.0204 27.309 62.2931 27.3207 62.5619 27.3429V23.3629C62.5619 23.3629 59.2557 19.7333 57.78 18.1114C57.3351 17.6248 56.7062 17.3463 56.0473 17.3463C54.1736 17.3463 50.1837 17.3463 47.736 17.3463C46.7 17.3463 45.861 18.1873 45.861 19.2258V30.486C45.861 30.9241 46.0345 31.3439 46.3438 31.6539C46.653 31.9639 47.0718 32.1379 47.5102 32.1379C49.0394 32.1379 51.08 32.1379 51.08 32.1379ZM34.3791 32.1379H41.8776C42.0054 31.8842 42.0772 31.5977 42.0772 31.293C42.0772 28.2481 42.0772 22.2708 42.0772 19.2258C42.0772 18.1873 41.2382 17.3463 40.2022 17.3463C38.0011 17.3463 34.4926 17.3463 32.4181 17.3463C31.339 17.3463 30.3069 17.795 29.5698 18.5863C27.9271 20.3468 25.1153 23.3629 25.1153 23.3629V30.486C25.1153 30.9241 25.2888 31.3439 25.5981 31.6539C25.9073 31.9639 26.3261 32.1379 26.7645 32.1379H34.3791Z" fill="#8EBBFF"/>
</svg>
