<svg width="73" height="73" viewBox="0 0 73 73" fill="none" xmlns="http://www.w3.org/2000/svg">
<path d="M39.512 0C33.795 0 28.5082 1.84421 24.2051 4.97937L28.2009 8.97516C31.459 6.82358 35.3318 5.53263 39.5735 5.53263C50.9461 5.53263 60.2286 14.8152 60.2286 26.1878C60.2286 37.5604 50.9461 46.8429 39.5735 46.8429C35.3933 46.8429 31.459 45.6135 28.2009 43.4004L24.2051 47.3962C28.5082 50.5314 33.795 52.3756 39.512 52.3756C53.9583 52.3756 65.6998 40.6341 65.6998 26.1878C65.6998 11.7415 53.9583 0 39.512 0Z" fill="#8EBBFF"/>
<path d="M39.512 39.2202C46.7044 39.2202 52.5444 33.3802 52.5444 26.1878C52.5444 18.9954 46.7044 13.1554 39.512 13.1554C32.3196 13.1554 26.4796 18.9954 26.4796 26.1878C26.4796 33.3802 32.3196 39.2202 39.512 39.2202ZM39.512 36.0851C38.5284 36.0851 37.7907 35.2859 37.7907 34.3638C37.7907 33.3802 38.5899 32.6425 39.512 32.6425C40.4956 32.6425 41.2333 33.4417 41.2333 34.3638C41.2947 35.2859 40.4956 36.0851 39.512 36.0851ZM45.7209 20.5937C46.5815 20.1019 47.6265 20.4093 48.1183 21.2084C48.6101 22.0691 48.3027 23.1141 47.5036 23.6059C46.643 24.0977 45.5979 23.7903 45.1061 22.9912C44.6143 22.192 44.8602 21.0855 45.7209 20.5937ZM45.0446 29.3844C45.5364 28.5238 46.5815 28.2779 47.4421 28.7697C48.3028 29.2615 48.5486 30.3065 48.0569 31.1672C47.5651 32.0278 46.52 32.2737 45.6594 31.7819C44.8602 31.2901 44.6143 30.2451 45.0446 29.3844ZM39.512 16.2905C40.4956 16.2905 41.2333 17.0897 41.2333 18.0118C41.2333 18.9339 40.4341 19.7331 39.512 19.7331C38.5284 19.7331 37.7907 18.9339 37.7907 18.0118C37.7907 17.0897 38.5899 16.2905 39.512 16.2905ZM39.512 22.9912C41.2948 22.9912 42.7086 24.4051 42.7086 26.1878C42.7086 27.9705 41.2948 29.3844 39.512 29.3844C37.7293 29.3844 36.3154 27.9705 36.3154 26.1878C36.3154 24.4051 37.7908 22.9912 39.512 22.9912ZM30.9672 21.2699C31.459 20.4093 32.504 20.1634 33.3646 20.6552C34.2253 21.1469 34.4712 22.192 33.9794 23.0526C33.4876 23.9133 32.4425 24.1592 31.5819 23.6674C30.7828 23.1756 30.4754 22.0691 30.9672 21.2699ZM31.5819 28.7697C32.4425 28.2779 33.4876 28.5853 33.9794 29.3844C34.4712 30.2451 34.1638 31.2901 33.3646 31.7819C32.504 32.2737 31.459 31.9663 30.9672 31.1672C30.4754 30.3065 30.7828 29.2615 31.5819 28.7697Z" fill="#8EBBFF"/>
<path d="M26.4796 37.376C20.947 30.9827 20.947 21.3928 26.4796 14.9996C26.9714 14.4463 26.9714 13.5857 26.4181 13.0939L19.5945 6.27032C19.0413 5.71705 18.1192 5.71705 17.5659 6.33179C14.3078 9.89726 12.0948 14.1389 10.9268 18.5651H9.94317C8.4678 18.5651 7.2998 19.7945 7.2998 21.2084V31.1672C7.2998 32.6425 8.52928 33.8105 9.94317 33.8105H10.9268C12.0948 38.2366 14.3078 42.4168 17.5659 46.0438C18.1192 46.6585 19.0413 46.6585 19.5945 46.1053L26.4181 39.2817C26.9714 38.7899 26.9714 37.9293 26.4796 37.376Z" fill="#8EBBFF"/>
</svg>
