<svg width="56" height="56" viewBox="0 0 56 56" fill="none" xmlns="http://www.w3.org/2000/svg">
<path d="M47.1259 27.9993H46.6811L42.2626 14.7442C42.255 14.7211 42.2384 14.7034 42.2298 14.6805C42.205 14.6249 42.1769 14.5709 42.1456 14.5187C41.9989 14.2295 41.7634 13.9948 41.4735 13.8493C41.4225 13.8197 41.3697 13.7931 41.3156 13.7696C41.1359 13.6968 40.9444 13.6579 40.7506 13.6547H32.4876C32.2464 12.9789 31.8559 12.3661 31.3452 11.862C30.8345 11.358 30.2168 10.9755 29.5378 10.7432C29.565 10.6531 29.5837 10.5606 29.5936 10.467V8.87314C29.5936 8.45043 29.4257 8.04503 29.1268 7.74612C28.8279 7.44722 28.4225 7.2793 27.9998 7.2793C27.5771 7.2793 27.1717 7.44722 26.8728 7.74612C26.5739 8.04503 26.4059 8.45043 26.4059 8.87314V10.467C26.4159 10.5606 26.4346 10.6531 26.4617 10.7432C25.7828 10.9755 25.165 11.358 24.6543 11.862C24.1436 12.3661 23.7532 12.9789 23.512 13.6547H15.249C15.0553 13.6576 14.8637 13.6963 14.684 13.7688C14.6298 13.7923 14.5771 13.8189 14.526 13.8485C14.2353 13.9928 13.9994 14.2277 13.8539 14.5179C13.8227 14.5701 13.7946 14.6241 13.7698 14.6797C13.7612 14.7022 13.7446 14.7198 13.7369 14.7434L9.31847 27.9993H8.87363C8.45092 27.9993 8.04552 28.1672 7.74661 28.4661C7.44771 28.765 7.27979 29.1704 7.27979 29.5931V31.187C7.27979 33.3006 8.1194 35.3276 9.61392 36.8221C11.1084 38.3166 13.1354 39.1562 15.249 39.1562C17.3626 39.1562 19.3896 38.3166 20.8841 36.8221C22.3786 35.3276 23.2182 33.3006 23.2182 31.187V29.5931C23.2182 29.1704 23.0503 28.765 22.7514 28.4661C22.4525 28.1672 22.0471 27.9993 21.6244 27.9993H21.1796L17.4605 16.8424H23.512C23.7497 17.5091 24.1327 18.1146 24.6332 18.6151C25.1337 19.1157 25.7392 19.4986 26.4059 19.7363V40.7501H21.6244C20.3567 40.7515 19.1413 41.2557 18.2449 42.1521C17.3485 43.0485 16.8443 44.2639 16.8429 45.5316C16.4201 45.5316 16.0147 45.6995 15.7158 45.9984C15.4169 46.2973 15.249 46.7027 15.249 47.1255C15.249 47.5482 15.4169 47.9536 15.7158 48.2525C16.0147 48.5514 16.4201 48.7193 16.8429 48.7193H39.1567C39.5794 48.7193 39.9848 48.5514 40.2837 48.2525C40.5826 47.9536 40.7506 47.5482 40.7506 47.1255C40.7506 46.7027 40.5826 46.2973 40.2837 45.9984C39.9848 45.6995 39.5794 45.5316 39.1567 45.5316C39.1553 44.2639 38.6511 43.0485 37.7547 42.1521C36.8583 41.2557 35.6429 40.7515 34.3752 40.7501H29.5936V19.7363C30.2604 19.4987 30.866 19.1157 31.3665 18.6152C31.867 18.1147 32.2499 17.5091 32.4876 16.8424H38.5391L34.82 27.9993H34.3752C33.9525 27.9993 33.5471 28.1672 33.2481 28.4661C32.9492 28.765 32.7813 29.1704 32.7813 29.5931V31.187C32.7813 33.3006 33.6209 35.3276 35.1155 36.8221C36.61 38.3166 38.637 39.1562 40.7506 39.1562C42.8641 39.1562 44.8911 38.3166 46.3857 36.8221C47.8802 35.3276 48.7198 33.3006 48.7198 31.187V29.5931C48.7198 29.1704 48.5519 28.765 48.253 28.4661C47.9541 28.1672 47.5487 27.9993 47.1259 27.9993ZM12.6789 27.9993L15.249 20.2884L17.8191 27.9993H12.6789ZM38.1805 27.9993L40.7506 20.2884L43.3206 27.9993H38.1805Z" fill="#76777B"/>
</svg>
