<svg width="40" height="40" viewBox="0 0 40 40" fill="none" xmlns="http://www.w3.org/2000/svg">
<path d="M33.6617 20.0002H33.344L30.1879 10.5323C30.1825 10.5158 30.1706 10.5031 30.1645 10.4868C30.1468 10.4471 30.1267 10.4085 30.1044 10.3712C29.9996 10.1646 29.8313 9.99701 29.6243 9.89305C29.5878 9.87189 29.5502 9.85288 29.5115 9.83612C29.3831 9.78414 29.2463 9.75631 29.1079 9.75404H23.2058C23.0335 9.27131 22.7546 8.83364 22.3898 8.47359C22.025 8.11354 21.5837 7.84037 21.0988 7.67441C21.1182 7.61003 21.1315 7.54398 21.1387 7.47712V6.33866C21.1387 6.03672 21.0187 5.74715 20.8052 5.53364C20.5917 5.32014 20.3021 5.2002 20.0002 5.2002C19.6983 5.2002 19.4087 5.32014 19.1952 5.53364C18.9817 5.74715 18.8617 6.03672 18.8617 6.33866V7.47712C18.8688 7.54398 18.8822 7.61003 18.9016 7.67441C18.4166 7.84037 17.9754 8.11354 17.6106 8.47359C17.2458 8.83364 16.9669 9.27131 16.7946 9.75404H10.8925C10.7541 9.75613 10.6173 9.78377 10.4889 9.83555C10.4502 9.85231 10.4126 9.87132 10.3761 9.89248C10.1684 9.99553 9.99989 10.1634 9.89601 10.3706C9.87368 10.4079 9.85361 10.4465 9.8359 10.4862C9.82975 10.5022 9.81791 10.5149 9.81244 10.5317L6.6564 20.0002H6.33866C6.03672 20.0002 5.74715 20.1201 5.53364 20.3336C5.32014 20.5471 5.2002 20.8367 5.2002 21.1387V22.2771C5.2002 23.7868 5.79992 25.2347 6.86743 26.3022C7.93495 27.3697 9.38281 27.9694 10.8925 27.9694C12.4022 27.9694 13.8501 27.3697 14.9176 26.3022C15.9851 25.2347 16.5848 23.7868 16.5848 22.2771V21.1387C16.5848 20.8367 16.4649 20.5471 16.2514 20.3336C16.0379 20.1201 15.7483 20.0002 15.4463 20.0002H15.1286L12.4721 12.031H16.7946C16.9644 12.5072 17.238 12.9397 17.5955 13.2972C17.953 13.6547 18.3855 13.9283 18.8617 14.0981V29.1079H15.4463C14.5408 29.1089 13.6727 29.469 13.0324 30.1093C12.3921 30.7496 12.032 31.6178 12.031 32.5233C11.729 32.5233 11.4395 32.6432 11.226 32.8567C11.0124 33.0702 10.8925 33.3598 10.8925 33.6617C10.8925 33.9637 11.0124 34.2532 11.226 34.4667C11.4395 34.6802 11.729 34.8002 12.031 34.8002H27.9694C28.2714 34.8002 28.5609 34.6802 28.7744 34.4667C28.9879 34.2532 29.1079 33.9637 29.1079 33.6617C29.1079 33.3598 28.9879 33.0702 28.7744 32.8567C28.5609 32.6432 28.2714 32.5233 27.9694 32.5233C27.9684 31.6178 27.6083 30.7496 26.968 30.1093C26.3277 29.469 25.4596 29.1089 24.554 29.1079H21.1387V14.0981C21.6149 13.9283 22.0475 13.6548 22.405 13.2973C22.7625 12.9398 23.036 12.5072 23.2058 12.031H27.5283L24.8718 20.0002H24.554C24.2521 20.0002 23.9625 20.1201 23.749 20.3336C23.5355 20.5471 23.4156 20.8367 23.4156 21.1387V22.2771C23.4156 23.7868 24.0153 25.2347 25.0828 26.3022C26.1503 27.3697 27.5982 27.9694 29.1079 27.9694C30.6176 27.9694 32.0654 27.3697 33.133 26.3022C34.2005 25.2347 34.8002 23.7868 34.8002 22.2771V21.1387C34.8002 20.8367 34.6802 20.5471 34.4667 20.3336C34.2532 20.1201 33.9637 20.0002 33.6617 20.0002ZM9.05673 20.0002L10.8925 14.4924L12.7283 20.0002H9.05673ZM27.2721 20.0002L29.1079 14.4924L30.9437 20.0002H27.2721Z" fill="#8EBBFF"/>
</svg>
