<svg width="56" height="56" viewBox="0 0 56 56" fill="none" xmlns="http://www.w3.org/2000/svg">
<path d="M15.245 17.2747C15.6588 16.9742 16.0846 16.6891 16.5228 16.4225L14.7649 14.6645C14.6226 14.5223 14.4336 14.444 14.2324 14.444C14.0283 14.444 13.8441 14.5204 13.6998 14.6646C13.4063 14.9581 13.4063 15.436 13.7 15.7297L15.245 17.2747Z" fill="#76777B"/>
<path d="M34.3013 46.1521C31.8801 47.5793 29.1069 48.3337 26.2813 48.3337C17.5608 48.3337 10.4662 41.2391 10.4662 32.5185C10.4662 23.798 17.5608 16.7034 26.2813 16.7034C29.1069 16.7034 31.8801 17.4578 34.3013 18.8849C36.525 20.1957 38.4021 22.0397 39.7545 24.2344H41.4967C38.4804 18.7077 32.6326 15.1972 26.2813 15.1972C16.7303 15.1972 8.95996 22.9675 8.95996 32.5185C8.95996 42.0696 16.7303 49.8399 26.2813 49.8399C32.6326 49.8399 38.4805 46.3293 41.4967 40.8027H39.7545C38.4021 42.9974 36.525 44.8414 34.3013 46.1521Z" fill="#76777B"/>
<path d="M37.3235 17.2704L38.8643 15.7297C39.1579 15.4361 39.1579 14.9582 38.8643 14.6646C38.722 14.5225 38.5328 14.444 38.3317 14.444C38.1307 14.444 37.9415 14.5224 37.7992 14.6646L36.0457 16.4182C36.224 16.5266 36.4009 16.6377 36.576 16.7522C36.8302 16.9186 37.0784 17.0928 37.3235 17.2704Z" fill="#76777B"/>
<path d="M26.2813 13.6909C26.533 13.6909 26.784 13.6964 27.0344 13.7063V10.6785H25.5282V13.7073C25.7782 13.6974 26.0291 13.6909 26.2813 13.6909Z" fill="#76777B"/>
<path d="M37.948 40.8027H21.0096C19.7638 40.8027 18.7503 39.7891 18.7503 38.5434C18.7503 37.2976 19.7638 36.284 21.0096 36.284H22.5158C22.9311 36.284 23.2689 35.9462 23.2689 35.5309C23.2689 35.1157 22.9311 34.7778 22.5158 34.7778H18.7503C17.5045 34.7778 16.491 33.7643 16.491 32.5185C16.491 31.2728 17.5045 30.2592 18.7503 30.2592H24.7751C25.1904 30.2592 25.5282 29.9214 25.5282 29.5061C25.5282 29.0909 25.1904 28.753 24.7751 28.753H21.7627C20.5169 28.753 19.5034 27.7394 19.5034 26.4937C19.5034 25.248 20.5169 24.2344 21.7627 24.2344H37.948C35.4248 20.6919 31.3914 18.4632 27.0344 18.2315V21.222H25.5282V18.2293C22.1493 18.4054 19.0772 19.7594 16.7149 21.8871L18.826 23.998L17.7609 25.0633L15.6499 22.9522C13.5222 25.3144 12.1683 28.3865 11.9921 31.7654H14.9848V33.2716H11.9921C12.1682 36.6505 13.5222 39.7226 15.6499 42.0848L17.7609 39.9738L18.8259 41.0389L16.7149 43.1499C19.0772 45.2776 22.1492 46.6316 25.5281 46.8076V43.8151H27.0343V46.8056C31.3914 46.5739 35.4248 44.3453 37.948 40.8027Z" fill="#76777B"/>
<path d="M29.2938 6.15991H23.2689V9.17233H29.2938V6.15991Z" fill="#76777B"/>
<path d="M43.6027 32.5185C43.6027 28.7812 40.5622 25.7406 36.8248 25.7406C33.0874 25.7406 30.0469 28.7812 30.0469 32.5185C30.0469 36.2559 33.0874 39.2965 36.8248 39.2965C40.5622 39.2965 43.6027 36.2559 43.6027 32.5185ZM36.0717 31.7654H37.5779C38.8236 31.7654 39.8372 32.779 39.8372 34.0247C39.8372 35.2705 38.8236 36.284 37.5779 36.284V37.7903H36.0717V36.284C34.826 36.284 33.8124 35.2705 33.8124 34.0247H35.3186C35.3186 34.44 35.6564 34.7778 36.0717 34.7778H37.5779C37.9931 34.7778 38.331 34.44 38.331 34.0247C38.331 33.6095 37.9931 33.2716 37.5779 33.2716H36.0717C34.826 33.2716 33.8124 32.2581 33.8124 31.0123C33.8124 29.7666 34.826 28.753 36.0717 28.753V27.2468H37.5779V28.753C38.8236 28.753 39.8372 29.7666 39.8372 31.0123H38.331C38.331 30.5971 37.9931 30.2592 37.5779 30.2592H36.0717C35.6564 30.2592 35.3186 30.5971 35.3186 31.0123C35.3186 31.4276 35.6564 31.7654 36.0717 31.7654Z" fill="#76777B"/>
<path d="M48.176 25.7406H41.5823C43.7136 27.2411 45.1089 29.7198 45.1089 32.5185C45.1089 35.3173 43.7136 37.796 41.5823 39.2965H48.176C48.5073 36.9913 50.3349 35.1638 52.64 34.8325V30.2046C50.3348 29.8733 48.5073 28.0458 48.176 25.7406Z" fill="#76777B"/>
<path d="M49.7033 25.7406C50.0035 27.2139 51.1667 28.3769 52.64 28.6772V25.7406H49.7033Z" fill="#76777B"/>
<path d="M22.5158 37.7903H21.0096C20.5944 37.7903 20.2565 38.1281 20.2565 38.5434C20.2565 38.9586 20.5944 39.2965 21.0096 39.2965H32.0672C29.936 37.796 28.5406 35.3173 28.5406 32.5185C28.5406 29.7198 29.936 27.2411 32.0672 25.7406H21.7627C21.3475 25.7406 21.0096 26.0785 21.0096 26.4937C21.0096 26.9089 21.3475 27.2468 21.7627 27.2468H24.7751C26.021 27.2468 27.0344 28.2604 27.0344 29.5061C27.0344 30.7518 26.021 31.7654 24.7751 31.7654H18.7503C18.3351 31.7654 17.9972 32.1033 17.9972 32.5185C17.9972 32.9338 18.3351 33.2716 18.7503 33.2716H22.5158C23.7616 33.2716 24.7751 34.2852 24.7751 35.5309C24.7751 36.7767 23.7616 37.7903 22.5158 37.7903Z" fill="#76777B"/>
<path d="M49.7033 39.2965H52.64V36.3598C51.1667 36.6601 50.0035 37.8232 49.7033 39.2965Z" fill="#76777B"/>
</svg>
