<svg width="73" height="73" viewBox="0 0 73 73" fill="none" xmlns="http://www.w3.org/2000/svg">
<path fill-rule="evenodd" clip-rule="evenodd" d="M36.4998 0C52.6566 0 65.6998 13.0432 65.6998 29.2C65.6998 45.3568 52.6566 58.4 36.4998 58.4C20.343 58.4 7.2998 45.3568 7.2998 29.2C7.2998 13.0432 20.343 0 36.4998 0ZM40.8756 36.4369H40.9597L52.0675 44.2628L51.8151 44.5153C48.1125 48.2179 43.0635 50.5741 37.5096 50.8265L38.856 37.3625C39.6133 37.1101 40.2865 36.7735 40.8756 36.4369ZM53.5822 42.5798L44.0733 32.8184L43.9891 32.7343C44.1574 32.3977 44.3257 31.9769 44.4099 31.5562L58.1263 30.3781C57.8739 34.9222 56.275 39.1297 53.5822 42.5798ZM32.6289 36.6893L32.5448 36.7735L21.8577 45.1885C25.392 48.4703 30.1886 50.5741 35.3217 50.8265L34.1436 37.3625C33.6387 37.1942 33.0497 36.9418 32.6289 36.6893ZM20.2589 43.5055L29.2629 33.2392C29.0105 32.7343 28.758 32.1452 28.5897 31.5562L14.8733 30.3781C15.1257 35.4271 17.1453 39.9712 20.2589 43.5055ZM29.3471 25.5816L20.5113 14.5579C17.2295 18.2605 15.1257 22.9729 14.8733 28.2744L28.8422 26.8438C28.9263 26.4231 29.1788 26.0023 29.3471 25.5816ZM22.026 13.0432L32.7972 22.2156H32.8814C33.218 22.0473 33.6387 21.879 34.0595 21.7107L35.3217 7.57349C30.2727 7.82594 25.6445 9.84553 22.026 13.0432ZM40.2865 22.2997V22.2156L51.1419 13.2115C47.4393 9.84553 42.7269 7.82594 37.5096 7.57349L38.9401 21.7107C39.3609 21.879 39.7816 22.0473 40.2865 22.2997ZM52.6566 14.7262L43.6525 25.5816C43.905 26.0023 44.0733 26.4231 44.2416 26.8438L58.1263 28.2744C57.958 23.0571 55.8543 18.3447 52.6566 14.7262Z" fill="#8EBBFF"/>
</svg>
