<svg width="66" height="66" viewBox="0 0 66 66" fill="none" xmlns="http://www.w3.org/2000/svg">
<path d="M60.0603 26.0897V51.7348C60.0603 52.0047 59.9532 52.2635 59.7626 52.4544C59.5719 52.6452 59.3134 52.7525 59.0438 52.7525H53.6227C53.7448 52.4269 53.8091 52.0825 53.8125 51.7348V25.072H59.0574C59.3246 25.0756 59.5797 25.1844 59.7674 25.3748C59.9551 25.5653 60.0603 25.8221 60.0603 26.0897ZM11.5416 51.7348V25.072H6.29673C6.02715 25.072 5.76861 25.1792 5.57799 25.3701C5.38736 25.5609 5.28027 25.8198 5.28027 26.0897V51.7348C5.28027 52.0047 5.38736 52.2635 5.57799 52.4544C5.76861 52.6452 6.02715 52.7525 6.29673 52.7525H11.7178C11.6003 52.4261 11.5407 52.0817 11.5416 51.7348ZM27.1747 52.7525H31.6538V41.1036H27.1747V52.7525ZM13.5745 41.1036H25.1418V52.7796H14.591C14.3214 52.7796 14.0629 52.6724 13.8722 52.4815C13.6816 52.2907 13.5745 52.0318 13.5745 51.7619V41.1036ZM33.6867 41.1036H38.1659V52.7796H33.6867V41.1036ZM44.7322 34.7127H41.2424V28.0368H44.7322V34.7127ZM26.1582 39.0683H51.766V22.9417C51.766 22.6718 51.6589 22.413 51.4683 22.2221C51.2777 22.0313 51.0192 21.924 50.7496 21.924H14.591C14.3214 21.924 14.0629 22.0313 13.8722 22.2221C13.6816 22.413 13.5745 22.6718 13.5745 22.9417V39.0683H26.1582ZM39.2095 27.0191C39.2095 26.7492 39.3165 26.4904 39.5072 26.2995C39.6978 26.1087 39.9563 26.0015 40.2259 26.0015H45.7486C46.0182 26.0015 46.2767 26.1087 46.4674 26.2995C46.658 26.4904 46.7651 26.7492 46.7651 27.0191V35.7303C46.7651 36.0002 46.658 36.2591 46.4674 36.4499C46.2767 36.6408 46.0182 36.748 45.7486 36.748H40.2259C39.9563 36.748 39.6978 36.6408 39.5072 36.4499C39.3165 36.2591 39.2095 36.0002 39.2095 35.7303V27.0191ZM28.8958 27.0191C28.8958 26.7492 29.0029 26.4904 29.1936 26.2995C29.3842 26.1087 29.6427 26.0015 29.9123 26.0015H35.4282C35.6978 26.0015 35.9564 26.1087 36.147 26.2995C36.3376 26.4904 36.4447 26.7492 36.4447 27.0191V35.7303C36.4447 36.0002 36.3376 36.2591 36.147 36.4499C35.9564 36.6408 35.6978 36.748 35.4282 36.748H29.9123C29.6427 36.748 29.3842 36.6408 29.1936 36.4499C29.0029 36.2591 28.8958 36.0002 28.8958 35.7303V27.0191ZM18.5755 27.0191C18.5755 26.7492 18.6826 26.4904 18.8732 26.2995C19.0638 26.1087 19.3223 26.0015 19.5919 26.0015H25.1146C25.3842 26.0015 25.6428 26.1087 25.8334 26.2995C26.024 26.4904 26.1311 26.7492 26.1311 27.0191V35.7303C26.1311 36.0002 26.024 36.2591 25.8334 36.4499C25.6428 36.6408 25.3842 36.748 25.1146 36.748H19.5919C19.3223 36.748 19.0638 36.6408 18.8732 36.4499C18.6826 36.2591 18.5755 36.0002 18.5755 35.7303V27.0191ZM40.1988 52.7999V41.1036H51.766V51.7348C51.766 52.0047 51.6589 52.2635 51.4683 52.4544C51.2777 52.6452 51.0192 52.7525 50.7496 52.7525L40.1988 52.7999ZM24.0982 34.7127H20.6084V28.0368H24.0982V34.7127ZM34.4118 34.7127H30.9288V28.0368H34.4118V34.7127ZM48.4456 19.8887V17.4599C48.4456 17.19 48.3385 16.9311 48.1479 16.7403C47.9573 16.5494 47.6987 16.4422 47.4292 16.4422H45.5453V10.8654C45.5436 10.5961 45.4359 10.3383 45.2457 10.1478C45.0554 9.95734 44.7979 9.84955 44.5289 9.84777H40.3547C40.0851 9.84777 39.8265 9.95499 39.6359 10.1458C39.4453 10.3367 39.3382 10.5955 39.3382 10.8654V16.4558H36.6886V6.9576C36.6886 6.6877 36.5816 6.42886 36.3909 6.23801C36.2003 6.04716 35.9418 5.93994 35.6722 5.93994H31.498C31.2284 5.93994 30.9698 6.04716 30.7792 6.23801C30.5886 6.42886 30.4815 6.6877 30.4815 6.9576V16.4558H17.9114C17.6418 16.4558 17.3833 16.563 17.1926 16.7539C17.002 16.9447 16.8949 17.2036 16.8949 17.4735V19.9023L48.4456 19.8887Z" fill="#ACFF8E"/>
</svg>
