<svg width="56" height="56" viewBox="0 0 56 56" fill="none" xmlns="http://www.w3.org/2000/svg">
<path fill-rule="evenodd" clip-rule="evenodd" d="M4.29649 4.48047H30.3915V11.1731C30.3915 12.7552 31.6522 14.0412 33.2019 14.0412H39.7599V50.5646C39.7599 51.0913 39.3393 51.5205 38.8232 51.5205H4.29649C3.78044 51.5205 3.35986 51.0907 3.35986 50.5646V5.43633C3.35933 4.90968 3.78044 4.48047 4.29649 4.48047ZM32.2653 4.56328V11.1731C32.2653 11.6997 32.6864 12.129 33.2019 12.129H39.6787C39.6331 12.0272 39.5689 11.9341 39.4857 11.8491L32.5395 4.7603C32.4562 4.67532 32.3645 4.60983 32.2653 4.56328ZM10.7701 15.6444H21.5599C22.0775 15.6444 22.4965 15.2163 22.4965 14.6886C22.4965 14.1608 22.0775 13.7322 21.5599 13.7322H10.7701C10.2525 13.7322 9.8335 14.1603 9.8335 14.688C9.8335 15.2157 10.2525 15.6444 10.7701 15.6444ZM10.7701 44.5188H32.3501C32.8678 44.5188 33.2868 44.0906 33.2868 43.5629C33.2868 43.0347 32.8672 42.6071 32.3501 42.6071H10.7701C10.2525 42.6071 9.8335 43.0352 9.8335 43.5629C9.83297 44.0912 10.2525 44.5188 10.7701 44.5188ZM10.7701 38.7441H32.3501C32.8678 38.7441 33.2868 38.316 33.2868 37.7883C33.2868 37.26 32.8672 36.8324 32.3501 36.8324H10.7701C10.2525 36.8324 9.8335 37.2605 9.8335 37.7883C9.83297 38.316 10.2525 38.7441 10.7701 38.7441ZM10.7701 32.9695H32.3501C32.8678 32.9695 33.2868 32.5413 33.2868 32.0136C33.2868 31.4853 32.8672 31.0577 32.3501 31.0577H10.7701C10.2525 31.0577 9.8335 31.4859 9.8335 32.0136C9.83297 32.5413 10.2525 32.9695 10.7701 32.9695ZM10.7701 27.1943H32.3501C32.8678 27.1943 33.2868 26.7661 33.2868 26.2384C33.2868 25.7101 32.8672 25.2826 32.3501 25.2826H10.7701C10.2525 25.2826 9.8335 25.7107 9.8335 26.2384C9.83297 26.7661 10.2525 27.1943 10.7701 27.1943ZM10.7701 21.4196H32.3501C32.8678 21.4196 33.2868 20.9915 33.2868 20.4638C33.2868 19.9355 32.8672 19.5079 32.3501 19.5079H10.7701C10.2525 19.5079 9.8335 19.936 9.8335 20.4638C9.83297 20.9915 10.2525 21.4196 10.7701 21.4196Z" fill="#76777B"/>
</svg>
