<svg width="40" height="40" viewBox="0 0 40 40" fill="none" xmlns="http://www.w3.org/2000/svg">
<path d="M25.3324 32.0891L24.7436 32.159V35.1992C26.8924 34.3815 26.8213 34.364 27.0548 34.4514L29.0107 35.1992V32.159L28.4219 32.0891C26.5844 33.4974 27.1699 33.4939 25.3324 32.0891Z" fill="#FFD28E"/>
<path d="M21.231 26.0996C22.1041 27.3332 22.1684 27.3472 22.1413 27.6162L21.989 29.0315C23.2445 29.6011 23.0516 29.5137 23.2478 29.6011C23.4983 29.7129 23.4847 29.8142 24.0566 31.1806C25.5252 31.0094 25.5625 30.9569 25.7757 31.1212L26.8788 31.9633L27.9786 31.1212C28.1918 30.9569 28.2493 31.0094 29.7011 31.1806C30.3948 29.5242 30.2256 29.7304 30.7332 29.4997L31.7687 29.0315C31.6062 27.5114 31.5622 27.4625 31.7111 27.2493L32.5233 26.0996L31.7111 24.9534C31.5555 24.7333 31.6062 24.6774 31.7687 23.1643C30.4117 22.5527 30.3508 22.5737 30.2459 22.3256L29.7011 21.0187L28.3373 21.1759C28.0801 21.2074 28.0666 21.141 26.8788 20.2324C25.6911 21.141 25.6708 21.2074 25.417 21.1759L24.0566 21.0187L23.5084 22.3256C23.4035 22.5772 23.3291 22.5597 21.9856 23.1643C22.1514 24.6809 22.2022 24.7333 22.0431 24.9534L21.2276 26.0996H21.231ZM26.8788 21.8853C29.119 21.8853 30.9396 23.7758 30.9396 26.0996C30.9396 28.4234 29.119 30.314 26.8788 30.314C24.6386 30.314 22.8181 28.4234 22.8181 26.0996C22.8181 23.7758 24.6386 21.8853 26.8788 21.8853Z" fill="#FFD28E"/>
<path d="M33.3997 5.20271H1.7935C0.805383 5.20271 0 6.03789 0 7.06876V27.5918C0 28.6191 0.805383 29.4578 1.7935 29.4578H20.94C20.9197 29.346 20.9197 29.4229 21.1092 27.7036L20.1921 26.4071C20.0601 26.2219 20.0601 25.9703 20.1921 25.7886L21.1092 24.4992L20.9366 22.8987C20.9129 22.6716 21.0347 22.4514 21.2378 22.3605L22.6556 21.7211L23.2749 20.2464C23.3629 20.0367 23.5795 19.9074 23.796 19.9354L25.3324 20.1101L26.5777 19.1596C26.757 19.0233 27.004 19.0233 27.1834 19.1596L28.4253 20.1101L29.965 19.9354C30.185 19.9109 30.3982 20.0367 30.4861 20.2499L31.102 21.7246L32.5199 22.364C32.7229 22.4549 32.8448 22.6751 32.8211 22.9022L32.6519 24.5027L33.5655 25.7956C33.6941 25.9808 33.6975 26.2289 33.5655 26.4141L32.6519 27.7106C32.8346 29.4368 32.8346 29.3565 32.8177 29.4648H33.4065C34.3946 29.4648 35.2 28.6296 35.2 27.5988V7.06526C35.2 6.03789 34.3946 5.19922 33.4065 5.19922L33.3997 5.20271ZM10.1587 9.26678H25.0346C25.7046 9.26678 25.7046 10.3151 25.0346 10.3151H10.1587C9.48864 10.3151 9.48864 9.26678 10.1587 9.26678ZM10.514 26.3932H6.416C5.74597 26.3932 5.74597 25.3448 6.416 25.3448H10.514C11.184 25.3448 11.184 26.3932 10.514 26.3932ZM28.7806 16.2627H6.41261C5.74259 16.2627 5.74259 15.2144 6.41261 15.2144H28.7806C29.4506 15.2144 29.4506 16.2627 28.7806 16.2627ZM28.7806 13.3239H6.41261C5.74259 13.3239 5.74259 12.2755 6.41261 12.2755H28.7806C29.4506 12.2755 29.4506 13.3239 28.7806 13.3239Z" fill="#FFD28E"/>
<path d="M26.8754 29.2656C28.5539 29.2656 29.921 27.8469 29.921 26.0996C29.921 24.3524 28.5539 22.9336 26.8754 22.9336C25.197 22.9336 23.8299 24.3559 23.8299 26.0996C23.8299 27.8434 25.197 29.2656 26.8754 29.2656Z" fill="#FFD28E"/>
</svg>
