<svg width="73" height="73" viewBox="0 0 73 73" fill="none" xmlns="http://www.w3.org/2000/svg">
<path d="M36.5268 48.2555H11.6802V51.83H36.5268V48.2555Z" fill="#8EBBFF"/>
<path d="M31.2176 6.61011L29.7951 8.04259L41.851 20.1833L43.2735 18.7508C43.2194 18.7026 43.1581 18.6642 43.1058 18.6123L31.3551 6.77901C31.3028 6.72718 31.2655 6.66462 31.2176 6.61011Z" fill="#8EBBFF"/>
<path d="M30.3 31.8156L31.7225 30.3831L19.6666 18.2424L18.2441 19.6748C18.2982 19.7231 18.3595 19.7615 18.4118 19.8134L30.1625 31.6467C30.2148 31.6985 30.2521 31.7602 30.3 31.8156Z" fill="#8EBBFF"/>
<path d="M44.3605 17.3488C44.696 17.6865 45.1414 17.8724 45.6162 17.8724H48.0627C49.0415 17.8724 49.8374 17.0708 49.8374 16.0852V13.6215C49.8374 13.1443 49.6529 12.6948 49.3174 12.357L37.5668 0.523662C37.2313 0.185873 36.7859 0 36.3111 0H33.8646C32.8859 0 32.0899 0.801578 32.0899 1.78724V4.25095C32.0899 4.72815 32.2744 5.17764 32.6099 5.51543L44.3605 17.3488Z" fill="#8EBBFF"/>
<path d="M17.1571 21.0769C16.8216 20.7392 16.3762 20.5533 15.9014 20.5533H13.4549C12.4762 20.5533 11.6802 21.3549 11.6802 22.3405V24.8042C11.6802 25.2814 11.8648 25.7309 12.2002 26.0687L23.9508 37.902C24.2863 38.2398 24.7317 38.4257 25.2065 38.4257H27.653C28.6318 38.4257 29.4277 37.6241 29.4277 36.6384V34.1747C29.4277 33.6975 29.2432 33.2481 28.9077 32.9103L17.1571 21.0769Z" fill="#8EBBFF"/>
<path d="M41.8502 22.7104L34.2315 30.3827L36.5261 32.6935L44.1448 25.0212L41.8502 22.7104Z" fill="#8EBBFF"/>
<path d="M61.3728 42.3706L53.7541 50.0429L55.1615 51.4602L62.7802 43.7879L61.3728 42.3706Z" fill="#8EBBFF"/>
<path d="M44.0691 27.6255L39.1121 32.6173L53.83 47.4387L58.7869 42.4468L44.0691 27.6255Z" fill="#8EBBFF"/>
<path d="M28.5398 9.30624L20.9211 16.9785L32.9766 29.1188L40.5953 21.4465L28.5398 9.30624Z" fill="#8EBBFF"/>
<path d="M32.0899 44.681H16.1171C14.9617 44.681 13.9856 45.4308 13.6182 46.4683H34.5878C34.2214 45.4308 33.2452 44.681 32.0899 44.681Z" fill="#8EBBFF"/>
</svg>
