<svg width="56" height="56" viewBox="0 0 56 56" fill="none" xmlns="http://www.w3.org/2000/svg">
<path d="M46.7934 9.20577C44.0156 6.42849 40.366 5.03906 36.7174 5.03906C33.0689 5.03906 29.4198 6.42796 26.6415 9.20577C21.6024 14.2448 21.0734 22.3007 25.4091 27.9476C25.4112 27.9502 25.4138 27.9507 25.4159 27.9533C25.8035 28.4641 26.2042 28.9212 26.6415 29.3532C27.0792 29.7972 27.5373 30.1974 28.0455 30.583C28.0476 30.5845 28.0486 30.5877 28.0512 30.5897C33.7012 34.926 41.7549 34.3959 46.7934 29.3579C52.3489 23.8023 52.3489 14.7619 46.7934 9.20577ZM45.7363 28.3024C43.3269 30.7118 40.1239 32.0386 36.7164 32.0386C33.3089 32.0386 30.1059 30.7118 27.697 28.3024C25.2875 25.8935 23.9607 22.6899 23.9607 19.2829C23.9607 15.8758 25.2875 12.6723 27.697 10.2628C32.6702 5.2895 40.7625 5.2895 45.7363 10.2628C50.7096 15.2367 50.7096 23.3285 45.7363 28.3024Z" fill="#76777B"/>
<path d="M44.9986 11.0006C42.7154 8.71793 39.7159 7.57582 36.7164 7.57582C33.7169 7.57582 30.7184 8.71741 28.4347 11.0006C26.2225 13.2128 25.0042 16.1539 25.0042 19.2829C25.0042 22.4118 26.2225 25.3524 28.4347 27.5646C30.6469 29.7769 33.588 30.9951 36.7164 30.9951C39.8448 30.9951 42.7858 29.7769 44.9986 27.5646C49.5649 22.9983 49.5649 15.5675 44.9986 11.0006Z" fill="#76777B"/>
<path d="M21.6447 39.2279L11.1696 49.7031C9.86682 51.0059 8.08976 51.3508 7.20801 50.4747L5.52538 48.7921C4.6478 47.9098 4.9932 46.1317 6.296 44.8289L16.7706 34.3542C17.5667 33.558 18.5909 33.1009 19.457 33.1009C19.7482 33.1009 20.0221 33.1526 20.2626 33.2606C20.4447 33.3451 20.6028 33.4536 20.7322 33.583L22.4164 35.2672C22.5452 35.3956 22.6527 35.5532 22.7367 35.7342C23.1661 36.6968 22.7075 38.1645 21.6447 39.2279Z" fill="#76777B"/>
<path d="M23.3018 34.6897C23.2548 34.6338 23.2053 34.5796 23.1541 34.5284L21.471 32.8448C21.4193 32.7931 21.3656 32.7446 21.3098 32.6971L24.9552 29.0521C24.999 29.1054 25.0455 29.1549 25.0898 29.2071C25.1623 29.2927 25.2354 29.3772 25.3105 29.4617C25.4555 29.624 25.6037 29.7821 25.755 29.9365C25.8062 29.9887 25.8515 30.0435 25.9037 30.0956C25.9569 30.1489 26.0128 30.1958 26.0665 30.248C26.2204 30.3988 26.3775 30.5464 26.5387 30.6904C26.6211 30.764 26.7036 30.835 26.787 30.9059C26.8408 30.9518 26.8919 30.9993 26.9472 31.0447L23.3018 34.6897Z" fill="#76777B"/>
</svg>
