<svg width="73" height="73" viewBox="0 0 73 73" fill="none" xmlns="http://www.w3.org/2000/svg">
<path d="M20.4402 2.0075V14.0525C20.4402 15.1613 19.5415 16.06 18.4327 16.06H14.4177C13.3088 16.06 12.4102 15.1613 12.4102 14.0525V2.0075C12.4102 0.898691 13.3088 0 14.4177 0H18.4327C19.5415 0 20.4402 0.898691 20.4402 2.0075Z" fill="#8EBBFF"/>
<path d="M60.5902 2.0075V14.0525C60.5902 15.1613 59.6915 16.06 58.5827 16.06H54.5677C53.4588 16.06 52.5602 15.1613 52.5602 14.0525V2.0075C52.5602 0.898691 53.4588 0 54.5677 0H58.5827C59.6915 0 60.5902 0.898691 60.5902 2.0075Z" fill="#8EBBFF"/>
<path d="M20.4402 42.1575V54.2025C20.4402 55.3113 19.5415 56.21 18.4327 56.21H14.4177C13.3088 56.21 12.4102 55.3113 12.4102 54.2025V42.1575C12.4102 41.0487 13.3088 40.15 14.4177 40.15H18.4327C19.5415 40.15 20.4402 41.0487 20.4402 42.1575Z" fill="#8EBBFF"/>
<path d="M60.5902 42.1575V54.2025C60.5902 55.3113 59.6915 56.21 58.5827 56.21H54.5677C53.4588 56.21 52.5602 55.3113 52.5602 54.2025V42.1575C52.5602 41.0487 53.4588 40.15 54.5677 40.15H58.5827C59.6915 40.15 60.5902 41.0487 60.5902 42.1575Z" fill="#8EBBFF"/>
<path d="M23.4514 6.0225H49.5489V10.0375H38.0058V20.075H38.5077C39.6165 20.075 40.5152 20.9737 40.5152 22.0825V32.12C40.5152 33.2288 39.6165 34.1275 38.5077 34.1275H38.0058V42.1575H42.5227C43.6315 42.1575 44.5302 43.0562 44.5302 44.165V46.1725H49.5489V50.1875H44.5302V52.195C44.5302 53.3038 43.6315 54.2025 42.5227 54.2025H30.4777C29.3688 54.2025 28.4702 53.3038 28.4702 52.195V50.1875H23.4514V46.1725H28.4702V44.165C28.4702 43.0562 29.3688 42.1575 30.4777 42.1575H34.9945V34.1275H34.4927C33.3838 34.1275 32.4852 33.2288 32.4852 32.12V22.0825C32.4852 20.9737 33.3838 20.075 34.4927 20.075H34.9945V10.0375H23.4514V6.0225Z" fill="#8EBBFF"/>
</svg>
