<svg width="40" height="40" viewBox="0 0 40 40" fill="none" xmlns="http://www.w3.org/2000/svg">
<path d="M35.6002 19.2H4.4002C3.7374 19.2 3.2002 19.7372 3.2002 20.4V32.4C3.2002 33.0628 3.7374 33.6 4.4002 33.6H35.6002C36.263 33.6 36.8002 33.0628 36.8002 32.4V20.4C36.8002 19.7372 36.263 19.2 35.6002 19.2ZM10.4002 28.8C10.4002 29.4628 9.86299 30 9.20019 30C8.5374 30 8.0002 29.4628 8.0002 28.8V24C8.0002 23.3372 8.5374 22.8 9.20019 22.8C9.86299 22.8 10.4002 23.3372 10.4002 24V28.8ZM17.6002 28.8C17.6002 29.4628 17.063 30 16.4002 30C15.7374 30 15.2002 29.4628 15.2002 28.8V24C15.2002 23.3372 15.7374 22.8 16.4002 22.8C17.063 22.8 17.6002 23.3372 17.6002 24V28.8ZM24.8002 28.8C24.8002 29.4628 24.263 30 23.6002 30C22.9374 30 22.4002 29.4628 22.4002 28.8V24C22.4002 23.3372 22.9374 22.8 23.6002 22.8C24.263 22.8 24.8002 23.3372 24.8002 24V28.8ZM32.0002 28.8C32.0002 29.4628 31.463 30 30.8002 30C30.1374 30 29.6002 29.4628 29.6002 28.8V24C29.6002 23.3372 30.1374 22.8 30.8002 22.8C31.463 22.8 32.0002 23.3372 32.0002 24V28.8Z" fill="#FFD28E"/>
<path d="M30.8194 16.8H25.0202L20.0002 14.5184L14.9802 16.8H9.18099L18.0418 12.7724C16.371 12.0208 15.2002 10.348 15.2002 8.4C15.2002 7.7372 15.7374 7.2 16.4002 7.2C17.063 7.2 17.6002 7.7372 17.6002 8.4C17.6002 9.7236 18.6766 10.8 20.0002 10.8C21.3238 10.8 22.4002 9.7236 22.4002 8.4C22.4002 7.0764 21.3238 6 20.0002 6C19.3374 6 18.8002 5.4628 18.8002 4.8V2.4H18.2002C17.869 2.4 17.6002 2.1312 17.6002 1.8V0.6C17.6002 0.2684 17.869 0 18.2002 0H21.8002C22.1314 0 22.4002 0.2684 22.4002 0.6V1.8C22.4002 2.1312 22.1314 2.4 21.8002 2.4H21.2002V3.7516C23.2678 4.286 24.8002 6.1676 24.8002 8.4C24.8002 10.348 23.6294 12.0208 21.9586 12.7724L30.8194 16.8Z" fill="#FFD28E"/>
</svg>
