<svg width="43" height="50" viewBox="0 0 43 50" fill="none" xmlns="http://www.w3.org/2000/svg">
<path d="M30.3093 17.2725C29.3492 17.564 28.7891 16.3106 28.0454 16.4934C27.3018 16.6761 27.5744 18.0497 28.6409 17.9781C29.7059 17.9067 30.4494 19.9185 30.0304 20.7616C29.6086 21.6051 28.5641 20.1835 29.8045 23.5359C31.0452 26.8897 27.9128 26.4675 26.9747 27.4618C26.0365 28.4561 26.3824 26.526 25.9088 25.8881C25.435 25.2487 24.1095 26.2192 22.3683 25.8605C20.6272 25.5031 20.6297 22.7887 21.631 22.2637C22.6339 21.7399 22.4909 20.176 21.9855 20.405C21.4798 20.6312 20.5304 20.4529 20.9167 19.9233C21.3058 19.3932 21.4452 18.756 20.9932 18.2715C20.5411 17.7871 20.1221 18.6302 20.2278 17.7529C20.3364 16.8766 20.7986 16.3405 21.51 16.4754C22.2215 16.6102 22.3944 15.6452 22.3495 14.2425C22.3042 12.837 22.6717 13.2564 23.5338 13.3701C24.3947 13.4854 24.2021 13.1979 24.0891 12.394C23.9761 11.5901 24.8684 11.9287 25.5167 12.1507C25.9176 12.2908 26.5335 11.6861 26.9443 11.2114C25.6686 10.8072 24.2956 10.6642 22.8894 10.8619C21.0438 11.1213 19.4079 11.919 18.0956 13.0727C18.3712 13.5235 18.7214 14.1276 18.7535 14.3565C18.8075 14.7403 18.3115 15.5928 18.753 16.0018C19.1942 16.4094 17.6977 16.6596 17.2007 17.5137C16.7077 18.3672 17.1809 18.4956 17.1382 19.2844C17.1049 19.9025 15.7418 20.3659 14.888 21.0666C14.9031 21.2537 14.9124 21.4389 14.9385 21.6245C15.0585 22.4786 15.2949 23.2865 15.6141 24.0472C15.9317 23.883 16.3414 23.8084 16.6755 24.2083C17.324 24.9782 17.3998 25.517 18.3142 25.4667C19.2286 25.4165 19.5442 24.9793 20.1188 25.2131C20.6933 25.4469 20.5755 26.7942 21.1138 27.3461C21.6522 27.8981 22.2899 28.5913 22.5039 29.0309C22.6155 29.2586 22.8511 29.5243 22.9596 29.7695C23.7976 29.8909 24.6667 29.9053 25.547 29.7816C28.2347 29.4039 30.4871 27.8861 31.9197 25.7805C31.757 25.3181 31.7047 24.6579 32.1605 24.2153C32.9692 23.4327 32.67 22.0387 32.2834 20.9175C32.013 20.1357 32.875 19.1464 33.4223 18.6197C33.3345 18.1339 33.2197 17.6648 33.0642 17.2141C32.2096 17.2132 31.059 17.0433 30.3093 17.2725Z" fill="#ACFF8E"/>
<path d="M0.335566 10.1604L5.31809 45.613C5.67547 48.1559 7.98745 49.933 10.4821 49.5824L11.2954 49.4681L5.01865 4.80704L4.204 4.92154C1.70937 5.27213 -0.0218142 7.61754 0.335566 10.1604Z" fill="#ACFF8E"/>
<path d="M32.209 0.985693L7.00669 4.52764L13.2834 49.1887L38.4843 45.647C40.9789 45.2964 42.7115 42.9508 42.3541 40.4079L37.3716 4.95536C37.0142 2.41247 34.7036 0.635096 32.209 0.985693ZM36.608 40.4825C36.6861 41.038 36.3086 41.5507 35.7623 41.6275L18.9899 43.9847C18.445 44.0613 17.9396 43.674 17.8614 43.1172L17.1899 38.3398C17.1121 37.7857 17.4894 37.2716 18.0357 37.1948L34.808 34.8376C35.3529 34.761 35.8585 35.1497 35.9366 35.7051L36.608 40.4825ZM25.7193 31.007C19.9373 31.8196 14.5602 27.6851 13.7319 21.7912C12.9035 15.8974 16.934 10.4407 22.7147 9.6283C28.4994 8.8153 33.8765 12.9498 34.7048 18.8437C35.5331 24.7375 31.5026 30.1942 25.7193 31.007Z" fill="#ACFF8E"/>
<path d="M33.8932 36.3154L19.3266 38.3626L19.5206 39.7429L34.0871 37.6957L33.8932 36.3154Z" fill="#ACFF8E"/>
<path d="M28.832 39.6341L19.6859 40.9195L19.8801 42.3012L29.0261 41.0158L28.832 39.6341Z" fill="#ACFF8E"/>
</svg>
