<svg width="56" height="56" viewBox="0 0 56 56" fill="none" xmlns="http://www.w3.org/2000/svg">
<path d="M23.2898 33.6478L27.032 38.6112L28.8251 36.9826L24.3813 33.1825L23.2898 33.6478Z" fill="#76777B"/>
<path d="M34.5942 31.9417V30.158C33.4248 30.8559 31.8656 31.3988 29.9945 31.3988C28.1234 31.3988 26.5642 30.9335 25.3948 30.158V31.9417L29.9945 35.9744L34.5942 31.9417Z" fill="#76777B"/>
<path d="M36.6212 33.6478L35.4518 33.1825L31.0859 36.9826L32.8011 38.6112L36.6212 33.6478Z" fill="#76777B"/>
<path d="M37.5567 16.3537C32.8011 13.9495 27.1099 13.9495 22.3543 16.3537H37.5567Z" fill="#76777B"/>
<path d="M38.1804 14.9577V11.4679C38.1804 10.925 37.9466 10.4597 37.4788 10.1495C35.9196 9.06373 32.957 7.28003 29.9165 7.28003C26.876 7.28003 23.9135 9.06373 22.3543 10.1495C21.9645 10.4597 21.6526 10.925 21.6526 11.4679V14.9577C26.876 12.3985 33.035 12.3985 38.1804 14.9577Z" fill="#76777B"/>
<path d="M29.9165 29.8478C35.9196 29.8478 36.8551 24.4966 37.089 24.1089C37.7906 23.2558 39.1939 21.3946 38.1804 21.0068H38.1025C37.4008 20.7741 37.7127 19.6884 37.7906 17.9823H22.0424L22.1983 20.2313C22.1983 20.3864 22.2763 20.619 21.8865 20.9292C21.8085 21.0068 21.7306 21.0068 21.7306 21.0068C20.4052 21.4721 22.9 24.0313 22.9 24.4191C22.978 24.6518 24.2253 29.8478 29.9165 29.8478Z" fill="#76777B"/>
<path d="M43.8716 37.2152C43.17 36.4397 40.1295 35.1213 38.1025 34.2682L33.5028 40.2398C33.2689 40.6275 32.7231 40.6275 32.3333 40.3173L29.9165 38.0683L27.4997 40.3173C27.1099 40.6275 26.6422 40.55 26.3303 40.2398L21.7306 34.2682C18.6901 35.5091 17.1309 36.2846 16.1953 37.0601C19.6256 38.8438 21.9645 42.3337 21.9645 46.444C21.9645 46.7542 21.9645 47.0644 21.8865 47.3746H45.3529V40.8602C45.4308 39.5418 44.8851 38.301 43.8716 37.2152ZM30.3843 46.2889H29.6047C29.2149 46.2889 28.8251 45.9786 28.8251 45.5133C28.8251 45.1256 29.2149 44.7378 29.6047 44.7378H30.3843C30.7741 44.7378 31.1639 45.1256 31.1639 45.5133C31.1639 45.9011 30.7741 46.2889 30.3843 46.2889ZM30.3843 43.1092H29.6047C29.2149 43.1092 28.8251 42.799 28.8251 42.3337C28.8251 41.8684 29.2149 41.5582 29.6047 41.5582H30.3843C30.7741 41.5582 31.1639 41.8684 31.1639 42.3337C31.1639 42.799 30.7741 43.1092 30.3843 43.1092Z" fill="#76777B"/>
<path d="M11.2838 37.4479C6.29423 37.4479 2.24023 41.4806 2.24023 46.444C2.24023 51.3298 6.29423 55.44 11.2838 55.44C16.2733 55.44 20.3273 51.3298 20.3273 46.444C20.4052 41.4806 16.3512 37.4479 11.2838 37.4479ZM11.2838 47.7623C9.49064 47.7623 9.49064 45.1256 11.2838 45.1256C13.0769 45.1256 13.1548 47.7623 11.2838 47.7623ZM4.50111 49.4685C4.11131 48.5379 3.87742 47.5297 3.87742 46.444C3.87742 42.5663 6.83996 39.3867 10.5821 38.9989V43.6521C9.10084 44.0398 8.1653 45.5909 8.55511 47.1419L4.50111 49.4685ZM11.2838 53.889C8.78899 53.889 6.60607 52.6481 5.20277 50.7869L9.25676 48.4603C10.3482 49.5461 12.2193 49.5461 13.3108 48.4603L17.3647 50.7869C16.0394 52.6481 13.7785 53.889 11.2838 53.889ZM18.1444 49.4685L14.0904 47.1419C14.4802 45.5909 13.5446 44.0398 12.0634 43.6521V38.9989C15.8055 39.3867 18.768 42.5663 18.768 46.444C18.846 47.5297 18.6121 48.5379 18.1444 49.4685Z" fill="#76777B"/>
</svg>
