<svg width="40" height="40" viewBox="0 0 40 40" fill="none" xmlns="http://www.w3.org/2000/svg">
<path d="M31.4126 11.4165C32.1937 10.6354 32.1937 9.36692 31.4126 8.58582C30.6315 7.80473 29.363 7.80473 28.5819 8.58582L8.58582 28.5819C7.80473 29.363 7.80473 30.6315 8.58582 31.4126C9.36692 32.1937 10.6354 32.1937 11.4165 31.4126L31.4126 11.4165ZM16.0031 12.0039C16.0031 10.9432 15.5818 9.92603 14.8318 9.17603C14.0818 8.42603 13.0646 8.00469 12.0039 8.00469C10.9432 8.00469 9.92603 8.42603 9.17603 9.17603C8.42603 9.92603 8.00469 10.9432 8.00469 12.0039C8.00469 13.0646 8.42603 14.0818 9.17603 14.8318C9.92603 15.5818 10.9432 16.0031 12.0039 16.0031C13.0646 16.0031 14.0818 15.5818 14.8318 14.8318C15.5818 14.0818 16.0031 13.0646 16.0031 12.0039ZM32 28.0008C32 26.9401 31.5787 25.9229 30.8287 25.1729C30.0787 24.4229 29.0614 24.0016 28.0008 24.0016C26.9401 24.0016 25.9229 24.4229 25.1729 25.1729C24.4229 25.9229 24.0016 26.9401 24.0016 28.0008C24.0016 29.0614 24.4229 30.0787 25.1729 30.8287C25.9229 31.5787 26.9401 32 28.0008 32C29.0614 32 30.0787 31.5787 30.8287 30.8287C31.5787 30.0787 32 29.0614 32 28.0008Z" fill="#8EBBFF"/>
</svg>
