<svg width="73" height="73" viewBox="0 0 73 73" fill="none" xmlns="http://www.w3.org/2000/svg">
<path d="M54.0202 25.2034H18.9802V36.4592H54.0202V25.2034Z" fill="#8EBBFF"/>
<path d="M55.4802 0H46.5985V5.0162H55.4802V0Z" fill="#8EBBFF"/>
<path d="M11.6802 6.97374V43.8H61.3202V6.97374H11.6802ZM48.1802 14.3145H53.8985C54.4338 14.3145 54.8718 14.755 54.8718 15.2933C54.8718 15.8316 54.4338 16.2721 53.8985 16.2721H48.1802C47.6448 16.2721 47.2068 15.8316 47.2068 15.2933C47.2068 14.755 47.6448 14.3145 48.1802 14.3145ZM19.1018 14.3145H21.0485V12.357C21.0485 11.8187 21.4865 11.3782 22.0218 11.3782C22.5572 11.3782 22.9952 11.8187 22.9952 12.357V14.3145H24.8202C25.3555 14.3145 25.7935 14.755 25.7935 15.2933C25.7935 15.8316 25.3555 16.2721 24.8202 16.2721H22.9952V18.2296C22.9952 18.7679 22.5572 19.2084 22.0218 19.2084C21.4865 19.2084 21.0485 18.7679 21.0485 18.2296V16.2721H19.1018C18.5665 16.2721 18.1285 15.8316 18.1285 15.2933C18.1285 14.755 18.5665 14.3145 19.1018 14.3145ZM56.0885 37.438C56.0885 37.9763 55.6505 38.4168 55.1152 38.4168H18.0068C17.4715 38.4168 17.0335 37.9763 17.0335 37.438V24.2246C17.0335 23.6863 17.4715 23.2458 18.0068 23.2458H55.1152C55.6505 23.2458 56.0885 23.6863 56.0885 24.2246V37.438Z" fill="#8EBBFF"/>
<path d="M26.4018 0H17.5202V5.0162H26.4018V0Z" fill="#8EBBFF"/>
</svg>
