<svg width="40" height="40" viewBox="0 0 40 40" fill="none" xmlns="http://www.w3.org/2000/svg">
<path d="M33.4059 19.3625L32.6483 19.8976L27.5877 23.5542L26.7695 24.1488C26.8301 24.5947 26.8604 25.0704 26.8604 25.5163C26.8604 25.7541 27.0725 25.9622 27.315 25.9622H34.3453C34.5877 25.9622 34.7998 25.7541 34.7998 25.5163C34.7998 23.3164 34.315 21.2354 33.4059 19.3625Z" fill="#FFD28E"/>
<path d="M25.7998 20.9976L26.6483 20.6706L32.0119 18.6491L32.8907 18.322C30.315 13.8628 25.4059 10.8008 19.7998 10.8008C11.5271 10.8008 4.7998 17.4005 4.7998 25.5163C4.7998 25.7541 5.01193 25.9622 5.25435 25.9622C5.49677 25.9622 5.7089 25.7541 5.7089 25.5163C5.7089 19.8085 10.4665 15.1411 16.2847 15.1411C20.4665 15.1411 24.0725 17.5491 25.7998 20.9976Z" fill="#FFD28E"/>
<path d="M21.8301 23.465C21.7089 23.5245 21.5271 23.4948 21.4059 23.4353C20.8907 23.1083 20.2847 22.9299 19.6786 22.9299C19.1634 22.9299 18.618 23.0489 18.1634 23.3164C16.618 24.1488 16.0422 26.0514 16.8907 27.5676C17.7392 29.0837 19.6786 29.6485 21.224 28.8161C22.2544 28.281 22.8907 27.2108 22.8907 26.0811C22.8907 25.9325 22.9513 25.8136 23.0725 25.7244L30.8604 20.1057L21.8301 23.465Z" fill="#FFD28E"/>
</svg>
