<svg width="55" height="55" viewBox="0 0 55 55" fill="none" xmlns="http://www.w3.org/2000/svg">
<path d="M34.0741 43.7752H20.3762C19.8494 43.7752 19.4279 44.1931 19.4279 44.7156V46.9099C19.4279 47.4324 19.8494 47.8504 20.3762 47.8504H34.0741C34.601 47.8504 35.0225 47.4324 35.0225 46.9099V44.7156C35.0225 44.1931 34.601 43.7752 34.0741 43.7752Z" fill="#FFD28E"/>
<path d="M29.3852 17.7042C29.1218 17.234 28.7004 16.8682 28.2262 16.6592V27.8922C29.3852 28.3102 30.1755 29.4074 30.1755 30.6613C30.1755 32.2809 28.8584 33.5871 27.2252 33.5871C25.592 33.5871 24.2749 32.2809 24.2749 30.6613C24.2749 29.4074 25.1178 28.3102 26.2242 27.8922V16.7115C25.75 16.9205 25.3812 17.2862 25.0651 17.7042L18.0055 29.9298C17.5313 30.7135 17.3732 31.654 17.584 32.5422L19.2699 40.8494C19.3752 41.2673 19.744 41.6331 20.2182 41.6331H34.2849C34.759 41.6331 35.1278 41.3196 35.2332 40.8494L36.9191 32.5422C37.1298 31.654 36.9718 30.7135 36.4976 29.9298L29.3852 17.7042Z" fill="#FFD28E"/>
<path d="M49.6687 12.2705C51.0911 12.2705 52.2502 11.1211 52.2502 9.71047C52.2502 8.29981 51.0911 7.15039 49.6687 7.15039C48.5623 7.15039 47.614 7.88184 47.2452 8.87452H29.9648C29.9121 8.87452 29.8067 8.87452 29.754 8.87452V7.20264H24.6437V8.87452C24.591 8.87452 24.4856 8.87452 24.4329 8.87452H7.2052C6.83641 7.88184 5.88809 7.15039 4.78172 7.15039C3.35925 7.15039 2.2002 8.29981 2.2002 9.71047C2.2002 11.1211 3.35925 12.2705 4.78172 12.2705C5.88809 12.2705 6.83641 11.5391 7.2052 10.5464H18.1108C10.4189 13.7857 4.83441 20.9435 3.88609 29.5119H2.2002V34.5798H7.31056V29.5119H5.88809C7.04714 19.794 14.8444 12.0616 24.6437 10.9121V12.3228H29.754V10.9121C39.5533 12.0616 47.3506 19.794 48.5096 29.5119H47.0871V34.5798H52.1975V29.5119H50.5116C49.5633 20.9435 43.9788 13.7857 36.2869 10.5464H47.2452C47.614 11.5913 48.5623 12.2705 49.6687 12.2705Z" fill="#FFD28E"/>
</svg>
