<svg width="56" height="56" viewBox="0 0 56 56" fill="none" xmlns="http://www.w3.org/2000/svg">
<path d="M35.8168 41.5162H18.4107C18.1716 41.5162 17.976 41.7108 17.976 41.9486V47.7275C17.976 47.9653 18.1716 48.1598 18.4107 48.1598H35.8168C36.0559 48.1598 36.2516 47.9653 36.2516 47.7275V41.9486C36.2516 41.7108 36.0559 41.5162 35.8168 41.5162ZM32.6039 46.4745H21.6228C21.2871 46.4745 21.0141 46.2038 21.0141 45.8692C21.0141 45.5346 21.2871 45.2639 21.6228 45.2639H32.6039C32.9405 45.2639 33.2126 45.5346 33.2126 45.8692C33.2126 46.2038 32.9405 46.4745 32.6039 46.4745ZM32.6039 44.413H21.6228C21.2871 44.413 21.0141 44.1415 21.0141 43.8077C21.0141 43.4731 21.2871 43.2024 21.6228 43.2024H32.6039C32.9405 43.2024 33.2126 43.4731 33.2126 43.8077C33.2126 44.1415 32.9405 44.413 32.6039 44.413Z" fill="#76777B"/>
<path d="M38.681 8.22205C38.6793 8.60512 38.6715 9.25711 38.6471 10.0898C38.6315 10.6199 38.6097 11.2235 38.5767 11.8781C38.4141 15.1649 38.0019 19.7366 36.9594 22.738C36.8716 22.9923 36.7785 23.2344 36.682 23.4635C36.649 23.5405 36.6159 23.6157 36.582 23.6901C36.5168 23.8336 36.449 23.9729 36.3785 24.1052C36.2742 24.3032 36.1664 24.4934 36.0559 24.6759C33.6735 28.6397 30.2345 29.0591 30.2345 33.8038V36.3279H23.9922V33.8038C23.9922 28.9778 20.4359 28.6268 18.0508 24.4701C17.9821 24.3516 17.9151 24.2297 17.849 24.1052C17.7786 23.9729 17.7108 23.8336 17.6456 23.6901C17.6212 23.6365 17.5969 23.5811 17.5725 23.5258C17.4064 23.141 17.2534 22.7182 17.1134 22.2668C16.1856 19.2783 15.8065 15.0118 15.6509 11.8936C15.6187 11.2399 15.5961 10.6372 15.5804 10.1071C15.5561 9.26749 15.5483 8.61031 15.5465 8.22378C15.5709 8.00846 15.7578 7.83984 15.9804 7.83984H38.2471C38.4689 7.83984 38.655 8.0076 38.681 8.22205Z" fill="#76777B"/>
<path d="M15.95 22.6239C15.8396 22.2676 15.7361 21.8941 15.6404 21.5076C13.0545 19.9744 10.5111 17.4365 9.80682 15.2825C9.35901 13.9136 9.88159 13.3394 10.3137 13.0264C10.8807 12.6165 12.045 12.1453 14.4353 11.9585V11.9533C14.4057 11.3575 14.3822 10.7574 14.3649 10.1711C12.0006 10.3475 10.319 10.8136 9.25641 11.5815C7.92691 12.5439 7.51563 14.0546 8.09734 15.835C8.71296 17.7158 10.4755 19.9217 12.8128 21.7358C14.0188 22.6732 15.2465 23.4099 16.4152 23.9115C16.2508 23.5215 16.0943 23.0883 15.95 22.6239Z" fill="#76777B"/>
<path d="M46.1833 11.5815C44.9477 10.6882 42.8747 10.2031 39.8645 10.1071C39.8636 10.1132 39.8636 10.1192 39.8636 10.1253C39.8462 10.7539 39.8227 11.3324 39.794 11.8936C43.0173 11.9965 44.4703 12.5525 45.1259 13.0264C45.5581 13.3394 46.0807 13.9136 45.6329 15.2825C44.7999 17.829 41.3966 20.9118 38.3915 22.2382C38.3028 22.5478 38.2089 22.847 38.1098 23.1332C38.0167 23.403 37.9141 23.6719 37.8046 23.9314C37.7654 24.0239 37.728 24.1069 37.6907 24.1899C37.655 24.2686 37.6185 24.3464 37.582 24.4208C39.1532 23.9962 40.9122 23.0684 42.6269 21.7358C44.9642 19.9217 46.7267 17.7158 47.3424 15.835C47.9241 14.0546 47.5128 12.5439 46.1833 11.5815Z" fill="#76777B"/>
<path d="M32.6039 37.9709V40.3056H21.6228V37.9709C21.6228 37.7331 21.8184 37.5385 22.0575 37.5385H32.1692C32.4083 37.5385 32.6039 37.7331 32.6039 37.9709Z" fill="#76777B"/>
</svg>
