<svg width="73" height="73" viewBox="0 0 73 73" fill="none" xmlns="http://www.w3.org/2000/svg">
<path d="M36.4998 0C20.3937 0 7.2998 13.0939 7.2998 29.2C7.2998 45.3061 20.3937 58.4 36.4998 58.4C52.6059 58.4 65.6998 45.3061 65.6998 29.2C65.6998 13.0939 52.6059 0 36.4998 0ZM13.5086 19.4872C17.32 10.512 26.1722 4.24168 36.4998 4.24168C46.8274 4.24168 55.6796 10.512 59.491 19.4872C60.2286 21.2699 58.7533 23.2371 56.8476 23.0526C53.4665 22.8067 50.0855 22.6223 46.7044 22.4994C45.6594 22.4379 44.6758 22.0691 43.9381 21.3928C41.971 19.6716 39.3891 18.6265 36.5613 18.6265C33.7335 18.6265 31.1516 19.6716 29.1844 21.3928C28.3853 22.0691 27.4017 22.4994 26.4181 22.4994C22.9756 22.6223 19.5945 22.8067 16.2135 23.0526C14.2463 23.2371 12.771 21.2699 13.5086 19.4872ZM28.0164 52.6829C19.7175 49.6707 13.4472 42.4168 11.9103 33.5032C11.603 31.536 13.4472 29.9992 15.3529 30.6139C23.5903 33.3802 29.7377 40.3882 31.2745 48.9331L31.3975 49.6707C31.8278 51.6379 29.9221 53.3592 28.0164 52.6829ZM36.4998 34.4867C33.9179 34.4867 31.7663 32.3966 31.7663 29.7533C31.7663 27.1714 33.8564 25.0198 36.4998 25.0198C39.1432 25.0198 41.2333 27.1099 41.2333 29.7533C41.2333 32.3966 39.0817 34.4867 36.4998 34.4867ZM44.9832 52.6829C43.0775 53.3592 41.2333 51.6994 41.6021 49.7322L41.7251 48.9945C43.2619 40.3882 49.4093 33.3802 57.6467 30.6139C59.491 29.9992 61.3966 31.5975 61.0893 33.5032C59.5524 42.4168 53.2821 49.6707 44.9832 52.6829Z" fill="#8EBBFF"/>
</svg>
