<svg width="66" height="66" viewBox="0 0 66 66" fill="none" xmlns="http://www.w3.org/2000/svg">
<path d="M56.6885 29.0884C56.361 29.0699 56.0842 28.9917 55.8651 28.8498L54.9644 29.4567L54.2799 28.3986C54.1577 28.5822 53.9916 28.7241 53.7777 28.8202C53.6987 28.6355 53.6127 28.4513 53.5234 28.2683C53.3037 27.6283 53.1203 26.9745 52.9502 26.3078C52.1493 23.0269 51.2607 19.9371 50.2545 16.597C49.9875 15.5291 49.0926 14.5225 48.0466 14.1396C44.3163 12.7925 39.4335 12.0373 34.4006 11.3562C34.3926 11.3556 34.3856 11.3545 34.3764 11.3533V11.3545C34.3689 11.3539 34.3643 11.3533 34.3562 11.3521C29.3107 10.7782 24.3909 10.3137 20.4462 10.7046C19.3385 10.8199 18.2262 11.5763 17.7072 12.5458C15.9197 15.5383 14.3063 18.3171 12.7321 21.3016C12.4057 21.9056 12.0678 22.4964 11.6993 23.0628C11.5673 23.218 11.4404 23.3761 11.317 23.5348C10.9169 23.2157 10.7865 22.7425 10.8926 22.1431C12.5516 21.0936 12.0574 18.6027 9.75323 18.4347C7.92185 18.3003 6.73861 18.7115 6.23118 19.4998C6.10951 19.684 6.08818 19.801 6.08702 20.0205C6.10144 21.2471 7.06152 21.839 8.38373 22.1836C8.92288 22.3232 9.06531 22.2937 9.2925 22.8757C9.56294 23.5661 9.8057 24.7314 10.0802 25.5092C9.78725 26.1046 9.54795 26.7214 9.37381 27.3637C8.80756 28.6239 8.03026 29.6039 7.31524 30.6267C6.38168 31.9616 5.98957 33.2086 5.6978 34.8233C5.3893 36.5671 5.25437 38.5733 5.28436 40.7996C5.28436 40.7996 5.30973 43.7314 6.59907 46.3237C6.53276 49.1106 6.69537 51.6879 7.0079 54.2814C7.11342 55.1727 7.54013 55.7733 8.30358 56.0837H11.038C11.7812 56.0768 12.4253 56.2285 13.0233 55.727C14.0687 54.842 13.7983 53.0935 13.8121 51.8779V50.4027L29.2986 52.3319L29.3228 52.3342V52.3331L29.3425 52.3354L29.8107 52.3939C30.3977 52.4669 30.9709 52.1773 31.2615 51.6589L31.2903 51.6074L45.4667 54.2269C46.5104 55.3777 48.0431 56.0866 49.8675 56.0866C53.7269 56.0866 57.4047 52.9441 58.0822 49.0683C58.4881 46.7436 57.7178 44.6893 56.2076 43.4117C56.3344 42.6257 56.4336 41.8636 56.4844 41.1448C56.5939 39.5075 56.5172 38.2009 55.9371 36.6772C55.4926 35.5107 54.9765 34.3686 54.7337 33.0087C54.7205 32.3439 54.6397 31.6865 54.5002 31.0384C54.6743 30.7761 54.8565 30.4552 55.0411 30.1286C55.2527 30.2508 55.4493 30.3695 55.6113 30.483C56.1228 30.838 56.0605 30.9707 56.0744 31.5296C56.1032 32.9016 56.4561 33.9759 57.6417 34.2719C57.8562 34.3217 57.9732 34.3269 58.1796 34.2499C59.0607 33.9342 59.7308 32.8715 60.0214 31.0512C60.387 28.7623 58.0897 27.7071 56.6885 29.0884ZM46.4695 16.1841C47.5403 16.4754 47.6879 16.7702 48.0748 17.7721C49.0493 20.5012 49.728 22.9771 50.4459 25.7044C50.5693 26.1764 50.4517 26.6791 50.1311 27.0463C49.8105 27.4129 49.329 27.5947 48.8469 27.5322C45.9966 27.1615 41.7642 26.6252 37.1915 26.0519L39.5026 23.1757L41.1334 25.1559L40.3272 23.0564L48.5742 24.8316L40.9165 21.9913L42.0715 15.1236C43.535 15.4341 44.9841 15.7816 46.4695 16.1841ZM15.3108 21.3311C16.6699 18.8621 17.9298 16.6283 19.5386 14.2207C20.1573 13.3445 20.3718 13.0948 21.4813 13.0746C25.6826 13.0022 29.5224 13.2553 34.0823 13.7881V13.7864C36.7706 14.142 39.1918 14.5341 41.5624 15.0194L38.9145 21.4L37.4833 20.3483L37.6499 19.6226L36.3589 19.5224L36.0175 19.2722L36.1323 17.0824L34.3366 18.0374L31.0216 15.602L33.4532 18.3432L31.7072 18.733L34.0737 19.0428L36.7942 22.1095L31.7862 24.4204L38.6792 23.0558L36.7141 25.991C29.2744 25.0597 21.0373 24.0445 16.4173 23.4949C15.9347 23.4369 15.512 23.1427 15.29 22.7083C15.068 22.2751 15.0749 21.7579 15.3108 21.3311ZM11.2133 39.6297C11.1193 40.3896 10.4308 40.9288 9.67365 40.835C8.92404 40.7417 8.38662 40.0496 8.48003 39.2892C8.57345 38.5351 9.26252 37.9971 10.0121 38.0903C10.7681 38.1847 11.3061 38.8757 11.2133 39.6297ZM12.9218 35.6584C11.0956 35.4308 9.78725 33.7431 10.0139 31.9083C10.2411 30.0678 11.919 28.7589 13.7452 28.9865C15.5789 29.2152 16.8884 30.8948 16.6612 32.736C16.4346 34.5702 14.7549 35.8866 12.9218 35.6584ZM44.0321 49.6232C42.2987 50.2626 40.3849 50.4803 38.3436 50.4682C37.7762 50.4653 37.6015 50.4653 37.0139 50.4305L30.9922 49.2508C30.9922 49.2508 30.8498 49.5404 30.6987 49.8456C30.5286 50.189 29.723 50.474 29.4111 50.4305C24.3621 49.7268 19.0548 48.3901 15.7133 46.099C13.8433 44.8219 13.3554 43.5761 14.3703 42.1589C15.0945 41.0174 15.9191 39.9228 16.7864 38.8537C17.634 37.722 18.9585 37.1353 20.9006 37.2372C24.1966 37.4139 27.6449 37.7897 31.0729 38.1436L31.0735 38.1419C32.7774 38.3903 35.1007 39.4056 36.3981 40.4915C36.6628 40.5321 36.2113 38.2241 36.4753 38.2652C37.8933 38.4917 39.2933 38.732 40.6576 39.0008C42.5657 39.3778 43.708 40.2714 44.2541 41.5775C44.8347 42.8267 45.8652 44.848 46.2896 46.1308C46.9319 47.7542 46.1552 48.8419 44.0321 49.6232ZM46.353 36.8758L48.7218 36.003L46.5658 35.6532C47.1026 34.2412 48.5413 33.3169 50.1011 33.5115C51.9278 33.7391 53.2368 35.4192 53.0096 37.2604C52.9785 37.5123 52.915 37.7521 52.8326 37.9814L49.9114 37.415L48.6716 40.0438C47.3062 39.6054 46.3668 38.3237 46.353 36.8758ZM49.969 44.453C50.0619 43.6989 50.7509 43.1609 51.5081 43.2559C52.2588 43.3491 52.7957 44.0401 52.7028 44.7941C52.6094 45.554 51.9209 46.0943 51.169 45.9999C50.4125 45.9061 49.8756 45.214 49.969 44.453ZM55.0082 49.0707C54.687 50.9078 53.1618 52.4454 51.391 52.8763C53.1734 51.3236 54.4356 49.0996 55.0359 47.8961C55.086 48.2674 55.0797 48.6612 55.0082 49.0707Z" fill="#ACFF8E"/>
</svg>
