<svg width="56" height="56" viewBox="0 0 56 56" fill="none" xmlns="http://www.w3.org/2000/svg">
<path fill-rule="evenodd" clip-rule="evenodd" d="M33.3314 22.8603H46.9936C47.66 22.8603 48.1598 23.3557 48.1598 24.0162V27.6488C48.1598 28.1442 47.66 28.6396 46.9936 28.6396H33.3314V22.8603Z" fill="#76777B"/>
<path fill-rule="evenodd" clip-rule="evenodd" d="M9.00612 22.8603H22.6683V28.6396H9.00612C8.33968 28.6396 7.83984 28.1442 7.83984 27.6488V24.0162C7.83984 23.3557 8.33968 22.8603 9.00612 22.8603Z" fill="#76777B"/>
<path fill-rule="evenodd" clip-rule="evenodd" d="M25.0008 48.1239V22.5301C25.0008 22.0347 25.5007 21.5394 26.1671 21.5394H29.8326C30.3324 21.5394 30.8322 22.0347 30.8322 22.5301V48.1239C30.8322 48.7844 30.3324 49.2797 29.8326 49.2797H26.1671C25.5007 49.2797 25.0008 48.7844 25.0008 48.1239Z" fill="#76777B"/>
<path fill-rule="evenodd" clip-rule="evenodd" d="M24.6676 20.5486C18.6696 21.7045 13.1714 20.8789 8.50629 18.7323C9.00612 18.2369 9.33935 17.7416 9.83918 17.2462C9.83918 16.5857 9.83918 15.9252 9.67257 15.2648C12.3384 17.0811 18.1698 20.2184 24.6676 20.5486Z" fill="#76777B"/>
<path fill-rule="evenodd" clip-rule="evenodd" d="M39.1628 8.32966C41.3288 10.4762 41.3288 14.1089 39.1628 16.2555C36.9969 18.4021 31.8319 18.4021 28.6663 18.7323C28.9995 15.595 28.9995 10.4762 31.1655 8.32966C33.3314 6.18308 36.9969 6.18308 39.1628 8.32966ZM32.1651 15.2648C34.1645 14.9345 36.3304 14.6043 36.9969 14.1089C37.8299 13.1182 37.8299 11.467 36.9969 10.4762C35.9972 9.65063 34.3311 9.65063 33.3314 10.4762C32.8316 11.1367 32.4984 13.2833 32.1651 15.2648Z" fill="#76777B"/>
<path fill-rule="evenodd" clip-rule="evenodd" d="M16.8369 8.32966C14.5043 10.4762 14.5043 14.1089 16.8369 16.2555C18.8362 18.4021 24.1678 18.4021 27.1668 18.7323C26.8336 15.595 26.8336 10.4762 24.8342 8.32966C22.5017 6.18308 19.0028 6.18308 16.8369 8.32966ZM23.6679 15.2648C21.6686 14.9345 19.6693 14.6043 19.0028 14.1089C18.0031 13.1182 18.0031 11.467 19.0028 10.4762C20.0025 9.65063 21.502 9.65063 22.5017 10.4762C23.1681 11.1367 23.5013 13.2833 23.6679 15.2648Z" fill="#76777B"/>
<path fill-rule="evenodd" clip-rule="evenodd" d="M31.3321 20.5486C37.3301 21.7045 42.8283 20.8789 47.4934 18.7323C46.9936 18.2369 46.4937 17.7416 46.1605 17.2462C46.1605 16.5857 46.1605 15.9252 46.1605 15.2648C43.6613 17.0811 37.8299 20.2184 31.3321 20.5486Z" fill="#76777B"/>
<path fill-rule="evenodd" clip-rule="evenodd" d="M22.6683 30.9513V48.1239H13.1714C11.6719 48.1239 10.5056 46.968 10.5056 45.6471V30.9513H22.6683ZM14.3377 43.5005L14.6709 44.6563L15.8372 44.4912L14.8375 45.3168L15.3374 46.4727L14.3377 45.6471L13.338 46.4727L13.6712 45.3168L12.6716 44.4912L13.8379 44.6563L14.3377 43.5005ZM14.3377 37.7212L14.6709 38.8771H15.8372L14.8375 39.5376L15.3374 40.6934L14.3377 40.0329L13.338 40.6934L13.6712 39.5376L12.6716 38.8771H13.8379L14.3377 37.7212ZM19.8359 40.5283L20.1691 41.6841H21.3354L20.3357 42.5098L20.6689 43.5005L19.8359 42.84L18.8362 43.5005L19.1694 42.5098L18.1698 41.6841H19.336L19.8359 40.5283ZM14.3377 32.2722L14.6709 33.4281H15.8372L14.8375 34.0886L15.3374 35.2444L14.3377 34.5839L13.338 35.2444L13.6712 34.0886L12.6716 33.4281H13.8379L14.3377 32.2722ZM19.8359 35.0793L20.1691 36.07H21.3354L20.3357 36.8956L20.6689 38.0515L19.8359 37.2259L18.8362 38.0515L19.1694 36.8956L18.1698 36.07H19.336L19.8359 35.0793Z" fill="#76777B"/>
<path fill-rule="evenodd" clip-rule="evenodd" d="M33.3314 30.9513V48.1239H42.8283C44.1612 48.1239 45.3274 46.968 45.3274 45.6471V30.9513H33.3314ZM41.662 43.5005L41.3288 44.6563L39.9959 44.4912L40.9955 45.3168L40.6623 46.4727L41.662 45.6471L42.6617 46.4727L42.3284 45.3168L43.1615 44.4912L41.9952 44.6563L41.662 43.5005ZM41.662 37.7212L41.3288 38.8771H39.9959L40.9955 39.5376L40.6623 40.6934L41.662 40.0329L42.6617 40.6934L42.3284 39.5376L43.1615 38.8771H41.9952L41.662 37.7212ZM36.1638 40.5283L35.8306 41.6841H34.6643L35.4974 42.5098L35.1641 43.5005L36.1638 42.84L37.1635 43.5005L36.8303 42.5098L37.8299 41.6841H36.497L36.1638 40.5283ZM41.662 32.2722L41.3288 33.4281H39.9959L40.9955 34.0886L40.6623 35.2444L41.662 34.5839L42.6617 35.2444L42.3284 34.0886L43.1615 33.4281H41.9952L41.662 32.2722ZM36.1638 35.0793L35.8306 36.07H34.6643L35.4974 36.8956L35.1641 38.0515L36.1638 37.2259L37.1635 38.0515L36.8303 36.8956L37.8299 36.07H36.497L36.1638 35.0793Z" fill="#76777B"/>
</svg>
