<svg width="55" height="55" viewBox="0 0 55 55" fill="none" xmlns="http://www.w3.org/2000/svg">
<path d="M36.5665 36.3376C35.9998 36.3376 35.4767 36.6414 35.1716 37.1187V37.0753C35.1716 36.1641 34.4306 35.4698 33.5588 35.4698C32.9921 35.4698 32.469 35.7736 32.1639 36.2075V36.1641C32.1639 35.2529 31.4229 34.5586 30.5511 34.5586C29.9844 34.5586 29.4613 34.8623 29.1562 35.2962V29.8723C29.1562 29.4384 28.9819 29.0479 28.6767 28.7442C28.3716 28.4404 27.9793 28.2669 27.5434 28.2669C26.628 28.2669 25.9306 29.0045 25.9306 29.8723V40.5032C25.9306 40.59 25.887 40.6768 25.7998 40.7202C25.7126 40.7635 25.6254 40.7202 25.5383 40.6768L23.8819 39.0279C23.3152 38.4638 22.4434 38.377 21.7895 38.8109C21.3972 39.0713 21.1357 39.4618 21.0921 39.9391C21.0049 40.4164 21.1793 40.8503 21.4408 41.2408L25.5383 46.1874C26.7152 47.576 28.4152 48.4004 30.246 48.4004H32.8178C34.2562 48.4004 35.6075 47.8363 36.6101 46.8383C37.6126 45.8403 38.1793 44.4952 38.1793 43.0633V37.9865C38.1793 37.0753 37.4383 36.3376 36.5665 36.3376Z" fill="#FFD28E"/>
<path d="M27.4998 25.7502C27.8485 25.7502 28.1537 25.4464 28.1537 25.0993V20.5432L28.8075 21.1941C29.069 21.4545 29.5049 21.4545 29.7665 21.1941C30.028 20.9338 30.028 20.4998 29.7665 20.2395L27.9793 18.4605C27.7178 18.2001 27.2819 18.2001 27.0203 18.4605L25.2331 20.2395C25.1024 20.3697 25.0588 20.5432 25.0588 20.7168C25.0588 20.8904 25.1024 21.0639 25.2331 21.1941C25.4947 21.4545 25.9306 21.4545 26.1921 21.1941L26.846 20.5432V25.0559C26.846 25.4464 27.1511 25.7502 27.4998 25.7502Z" fill="#FFD28E"/>
<path d="M23.4024 27.3991C23.6639 27.1387 23.6639 26.7048 23.4024 26.4444L20.2203 23.2769H21.1357C21.4844 23.2769 21.7895 22.9731 21.7895 22.626C21.7895 22.2789 21.4844 21.9751 21.1357 21.9751H18.6075C18.2588 21.9751 17.9537 22.2789 17.9537 22.626V25.1427C17.9537 25.3163 18.0408 25.4898 18.128 25.62C18.2588 25.7502 18.4331 25.7936 18.6075 25.7936C18.9562 25.7936 19.2613 25.4898 19.2613 25.1427V24.2315L22.4434 27.3991C22.7049 27.6594 23.1408 27.6594 23.4024 27.3991Z" fill="#FFD28E"/>
<path d="M33.9075 23.3203H34.8229L31.6408 26.4878C31.3793 26.7482 31.3793 27.1821 31.6408 27.4424C31.9024 27.7028 32.3383 27.7028 32.5998 27.4424L35.7819 24.2749V25.1861C35.7819 25.5332 36.087 25.837 36.4357 25.837C36.7844 25.837 37.0895 25.5332 37.0895 25.1861V22.6694C37.0895 22.3223 36.7844 22.0185 36.4357 22.0185H33.9075C33.7331 22.0185 33.5588 22.1053 33.428 22.1921C33.2972 22.3223 33.2537 22.4958 33.2537 22.6694C33.2537 23.0165 33.5152 23.3203 33.9075 23.3203Z" fill="#FFD28E"/>
<path d="M13.5511 22.3657C16.1751 22.3657 18.3024 20.2481 18.3024 17.636C18.3024 15.0239 16.1751 12.9064 13.5511 12.9064C10.927 12.9064 8.7998 15.0239 8.7998 17.636C8.7998 20.2481 10.927 22.3657 13.5511 22.3657Z" fill="#FFD28E"/>
<path d="M30.8495 15.2243C32.7049 13.3773 32.7049 10.3827 30.8495 8.53566C28.994 6.68863 25.9857 6.68864 24.1302 8.53566C22.2747 10.3827 22.2747 13.3773 24.1302 15.2243C25.9857 17.0713 28.994 17.0713 30.8495 15.2243Z" fill="#FFD28E"/>
<path d="M41.4485 22.3657C44.0726 22.3657 46.1998 20.2481 46.1998 17.636C46.1998 15.0239 44.0726 12.9064 41.4485 12.9064C38.8245 12.9064 36.6972 15.0239 36.6972 17.636C36.6972 20.2481 38.8245 22.3657 41.4485 22.3657Z" fill="#FFD28E"/>
</svg>
