<svg width="55" height="55" viewBox="0 0 55 55" fill="none" xmlns="http://www.w3.org/2000/svg">
<path d="M44.5044 27.7055H43.3132C42.7176 25.4418 41.4272 23.375 39.6403 21.7018L42.6184 17.2729C42.9162 16.83 42.668 16.2395 42.0724 16.1411C40.4345 15.895 37.0594 15.7966 33.2376 17.8634C33.188 17.9126 33.0887 17.9126 33.0391 17.9618C32.2945 17.7158 31.5004 17.5189 30.6566 17.4205C29.4158 21.1113 25.8918 23.7687 21.7226 23.7687C19.489 23.7687 17.4044 22.9813 15.7665 21.6526C14.2279 23.1289 13.0367 24.8513 12.3418 26.8197C11.9944 26.6721 11.5973 26.5245 11.2498 26.3768C11.5476 25.5403 11.6965 24.6053 11.6469 23.7687C11.5476 22.4892 10.6046 21.505 9.36376 21.4066C8.22219 21.2589 7.27915 21.8987 6.93171 22.9321C6.68354 23.7195 6.73318 24.5068 7.13025 25.245C7.52732 25.9832 8.22219 26.5737 9.01633 27.0658C8.76816 27.3611 8.51999 27.6071 8.22219 27.6563C7.32878 27.9516 6.38574 26.6721 5.93904 25.9339C5.69087 25.5403 5.19453 25.3926 4.79746 25.6387C4.40039 25.8355 4.30112 26.3276 4.49966 26.7213C5.7405 28.7389 6.93171 29.3295 7.92439 29.3295C8.22219 29.3295 8.47036 29.2803 8.71853 29.1818C9.4134 28.985 10.009 28.4437 10.4557 27.8039C10.952 28.05 11.498 28.2468 11.9447 28.3945C11.7958 29.2311 11.6965 30.0184 11.6965 30.8058C11.6965 35.2347 14.1782 39.2208 18 41.6813L17.5533 45.4213C17.4541 46.1595 18.0497 46.75 18.7445 46.75H22.2189C22.8145 46.75 23.3605 46.3071 23.4101 45.7166L23.6086 43.945C24.8991 44.2403 26.2889 44.4371 27.6786 44.4371C29.118 44.4371 30.4581 44.2403 31.7486 43.945L31.9471 45.7166C32.0464 46.3071 32.5427 46.75 33.1383 46.75H36.6127C37.3572 46.75 37.9032 46.1103 37.8039 45.4213L37.3076 41.6813C39.7892 40.0574 41.725 37.7937 42.7673 35.2347H44.4052C45.3979 35.2347 46.192 34.3982 46.192 33.4632V29.4771C46.2913 28.4929 45.4971 27.7055 44.5044 27.7055ZM9.76083 25.4911C9.2645 25.1466 8.81779 24.7529 8.61926 24.3592C8.42072 24.0147 8.42072 23.7195 8.51999 23.375C8.61926 23.0305 8.86743 22.9321 9.06596 22.9321C9.1156 22.9321 9.11559 22.9321 9.16523 22.9321C9.51266 22.9813 9.90973 23.2766 9.95937 23.8179C10.009 24.4084 9.95937 24.9497 9.76083 25.4911ZM37.9528 28.05C37.0098 28.05 36.2652 27.2626 36.2652 26.3768C36.2652 25.4418 37.0594 24.7037 37.9528 24.7037C38.8958 24.7037 39.6403 25.4911 39.6403 26.3768C39.69 27.3611 38.8958 28.05 37.9528 28.05Z" fill="#FFD28E"/>
<path d="M21.7722 22.0463C26.0407 22.0463 29.5151 18.6016 29.5151 14.3695C29.5151 10.1374 26.0407 6.69263 21.7722 6.69263C17.5037 6.69263 14.0293 10.1374 14.0293 14.3695C14.0293 18.6508 17.5037 22.0463 21.7722 22.0463ZM21.0277 10.3834V9.44842C21.0277 9.35 21.127 9.25158 21.2262 9.25158H22.3182C22.4174 9.25158 22.5167 9.35 22.5167 9.44842V10.3834C23.6086 10.5803 24.4028 11.4168 24.5021 12.4995C24.5021 12.5979 24.4028 12.6963 24.3035 12.6963H23.2116C23.1123 12.6963 23.0627 12.6471 23.013 12.5487C22.9634 12.1058 22.5663 11.7613 22.1196 11.7613H21.4744C21.0277 11.7613 20.581 12.0566 20.5314 12.5487C20.4321 13.1392 20.8788 13.6313 21.4248 13.6313H22.1196C23.5094 13.6313 24.651 14.8124 24.5021 16.2395C24.4028 17.3221 23.559 18.1095 22.5167 18.3063V19.2413C22.5167 19.3397 22.4174 19.4382 22.3182 19.4382H21.2262C21.127 19.4382 21.0277 19.3397 21.0277 19.2413V18.3063C19.9854 18.1095 19.1416 17.2729 19.0423 16.1903C19.0423 16.0918 19.1416 15.9934 19.2409 15.9934H20.3328C20.4321 15.9934 20.5314 16.0426 20.5314 16.1411C20.581 16.5839 20.9781 16.9284 21.4248 16.9284H22.07C22.5167 16.9284 22.9634 16.6332 23.013 16.1903C23.1123 15.5997 22.6656 15.1076 22.1196 15.1076H21.5737C20.3328 15.1076 19.1912 14.2218 19.092 12.9424C18.9431 11.7121 19.8365 10.5803 21.0277 10.3834Z" fill="#FFD28E"/>
<path d="M21.7722 5.41316C22.2189 5.41316 22.5663 5.06868 22.5663 4.62579V0.787368C22.5663 0.344474 22.2189 0 21.7722 0C21.3255 0 20.9781 0.344474 20.9781 0.787368V4.57658C20.9781 5.06868 21.3255 5.41316 21.7722 5.41316Z" fill="#FFD28E"/>
<path d="M18.6453 6.00368C19.092 6.00368 19.4394 5.65921 19.4394 5.21632V2.65737C19.4394 2.21447 19.092 1.87 18.6453 1.87C18.1986 1.87 17.8511 2.21447 17.8511 2.65737V5.16711C17.8015 5.61 18.1986 6.00368 18.6453 6.00368Z" fill="#FFD28E"/>
<path d="M24.9488 6.00368C25.3955 6.00368 25.7429 5.65921 25.7429 5.21632V2.65737C25.7429 2.21447 25.3955 1.87 24.9488 1.87C24.5021 1.87 24.1546 2.21447 24.1546 2.65737V5.16711C24.105 5.61 24.5021 6.00368 24.9488 6.00368Z" fill="#FFD28E"/>
</svg>
