<svg width="66" height="66" viewBox="0 0 66 66" fill="none" xmlns="http://www.w3.org/2000/svg">
<path d="M58.0792 39.2527H7.91992V43.4742H58.0792V39.2527Z" fill="#ACFF8E"/>
<path d="M53.9 15.1802H12.1006C9.79125 15.1802 7.92069 17.0308 7.92069 19.3158V37.1848H58.0799V19.3158C58.0799 17.0308 56.1979 15.1802 53.9 15.1802ZM21.2766 30.4303C20.6402 30.4303 20.0185 30.3052 19.4448 30.0643C18.8669 30.3052 18.241 30.4303 17.6088 30.4303C15.0109 30.4303 12.8959 28.3387 12.8959 25.7674C12.8959 23.1898 15.0109 21.0941 17.6088 21.0941C18.241 21.0941 18.8669 21.2192 19.4448 21.4601C20.0185 21.2192 20.6413 21.0941 21.2766 21.0941C23.8755 21.0941 25.9906 23.1898 25.9906 25.7674C25.9906 28.3387 23.8755 30.4303 21.2766 30.4303ZM52.0483 30.5875H42.2944C41.7165 30.5875 41.2495 30.1243 41.2495 29.5535C41.2495 28.9818 41.7165 28.5196 42.2944 28.5196H52.0483C52.6262 28.5196 53.0933 28.9818 53.0933 29.5535C53.0933 30.1243 52.6262 30.5875 52.0483 30.5875ZM52.0483 26.7961H42.2944C41.7165 26.7961 41.2495 26.3329 41.2495 25.7622C41.2495 25.1904 41.7165 24.7283 42.2944 24.7283H52.0483C52.6262 24.7283 53.0933 25.1904 53.0933 25.7622C53.0933 26.3329 52.6262 26.7961 52.0483 26.7961ZM52.0483 23.0058H42.2944C41.7165 23.0058 41.2495 22.5426 41.2495 21.9719C41.2495 21.4002 41.7165 20.938 42.2944 20.938H52.0483C52.6262 20.938 53.0933 21.4002 53.0933 21.9719C53.0933 22.5426 52.6262 23.0058 52.0483 23.0058Z" fill="#ACFF8E"/>
<path d="M7.92024 47.3445C7.92024 49.6294 9.79074 51.4802 12.1002 51.4802H53.8995C56.1974 51.4802 58.0795 49.6294 58.0795 47.3445V45.5424H7.92024V47.3445Z" fill="#ACFF8E"/>
</svg>
