<svg width="320" height="136" viewBox="0 0 320 136" fill="none" xmlns="http://www.w3.org/2000/svg">
<path d="M-20.2189 5.87001C-16.2604 5.2072 -12.3052 4.53278 -8.35031 3.85841C-4.98972 3.28538 -1.62936 2.71239 1.73254 2.1466C3.1557 1.90709 4.57913 1.66887 6.00293 1.4325C10.2229 0.912752 14.4704 0.481969 18.7435 0.14209C13.1075 1.01376 7.48138 1.93965 1.85703 2.8862C-1.50134 3.45139 -4.85922 4.02397 -8.21826 4.59675L-8.22 4.59705C-15.7384 5.87908 -23.2627 7.16212 -30.8111 8.36549C-27.305 7.47054 -23.7738 6.63829 -20.2189 5.87001Z" fill="black"/>
<path d="M-85.657 28.3612C-84.9452 28.0181 -84.2318 27.6778 -83.5169 27.3402C-79.3738 26.8317 -75.2265 26.3506 -71.0741 25.9014C-49.5523 23.5688 -28.6663 19.0993 -7.79462 14.6329L-7.78931 14.6318C-4.41251 13.9092 -1.0361 13.1867 2.34256 12.4733C26.5977 7.35202 50.9611 2.70428 76.3547 1.90841C78.129 1.85232 79.9022 1.80823 81.6743 1.77545C83.3048 1.99143 84.9312 2.22072 86.5532 2.46319C83.1653 2.48738 79.7738 2.5507 76.3784 2.65803C51.0562 3.45166 26.7488 8.08666 2.4975 13.2071C-0.879044 13.92 -4.25467 14.6424 -7.63182 15.3651C-28.5015 19.8313 -49.4297 24.3099 -70.9933 26.647C-75.8876 27.1765 -80.7752 27.7503 -85.657 28.3612Z" fill="black"/>
<path d="M-117.132 45.9844C-116.647 45.672 -116.16 45.3611 -115.672 45.0515C-101.401 43.3147 -87.1995 41.5122 -73.1174 39.6572C-50.4969 36.6794 -28.8216 30.7676 -7.1671 24.8616L-7.16605 24.8613C-3.6525 23.903 -0.139496 22.9449 3.37692 21.9994C28.5547 15.2301 53.8961 9.11581 80.7846 8.30904C94.5824 7.89527 108.207 8.60864 121.736 9.94561C123.121 10.3301 124.501 10.7245 125.878 11.1286C110.987 9.51772 96.0001 8.60309 80.8071 9.05871C54.0127 9.86265 28.7442 15.9558 3.57166 22.7237C0.0597534 23.6679 -3.4505 24.6254 -6.9628 25.5834C-28.6147 31.4889 -50.3445 37.4157 -73.0195 40.4007C-87.6138 42.3233 -102.336 44.1893 -117.132 45.9844Z" fill="black"/>
<path d="M-137.69 60.4759C-137.334 60.2019 -136.978 59.9286 -136.621 59.6561C-116.018 58.3255 -95.5619 56.5037 -75.4714 53.772C-50.6938 50.4013 -27.3823 42.3606 -4.06033 34.3163L-4.05649 34.315C-1.10031 33.2953 1.85602 32.2756 4.81552 31.2653C31.1102 22.2894 57.6443 14.0644 86.445 13.3316C110.91 12.7153 134.342 17.027 157.543 22.4333C158.859 22.99 160.17 23.5559 161.476 24.131C136.945 18.2862 112.274 13.4312 86.464 14.0814C57.7882 14.811 31.3493 23.0003 5.0578 31.9751C2.09927 32.9851 -0.857544 34.005 -3.81549 35.0253C-27.1294 43.0673 -50.5142 51.1338 -75.3703 54.5151C-95.8391 57.2983 -116.692 59.138 -137.69 60.4759Z" fill="black"/>
<path d="M-153.498 73.5497C-153.221 73.3038 -152.943 73.0584 -152.665 72.8135C-127.385 73.2232 -102.33 72.3801 -78.1338 68.2069C-52.4904 63.7923 -28.5119 53.8559 -4.52896 43.9176L-4.52507 43.916C-0.866821 42.4001 2.79152 40.8841 6.4559 39.3877C34.1267 28.0878 62.127 17.9108 92.9123 17.4009C121.097 16.9334 147.086 24.8327 172.808 33.7564C176.417 35.0083 180.02 36.2803 183.623 37.5523C187.413 38.8903 191.203 40.2284 195 41.5431C195.993 42.1422 196.981 42.7471 197.966 43.3575C193.086 41.6887 188.223 39.9717 183.363 38.2562L183.361 38.2555C179.761 36.9845 176.163 35.7142 172.562 34.4649C146.848 25.5438 120.966 17.6857 92.9247 18.1508C62.2915 18.6582 34.4047 28.7844 6.73944 40.082C3.08044 41.5763 -0.574921 43.0911 -4.2323 44.6068L-4.23386 44.6074C-28.2109 54.5439 -52.274 64.5161 -78.0064 68.946C-102.528 73.1753 -127.917 73.9914 -153.498 73.5497Z" fill="black"/>
<path d="M-165.469 84.7721C-165.241 84.5459 -165.012 84.32 -164.783 84.0945C-136.405 87.2693 -108.186 88.5208 -80.9446 82.8117C-54.5399 77.2883 -29.7686 65.3487 -4.96817 53.3951C-0.559433 51.2701 3.85062 49.1445 8.27057 47.0546C37.5313 33.2191 67.2255 20.951 99.9533 20.8342C128.622 20.7279 154.087 31.0025 179.142 42.5974C182.823 44.3007 186.495 46.0324 190.166 47.7639C202.397 53.5326 214.629 59.3013 227.198 64.0241C227.809 64.5137 228.418 65.0056 229.024 65.4998C215.673 60.6243 202.734 54.5217 189.832 48.4359C186.164 46.7058 182.499 44.9769 178.827 43.278C153.781 31.6873 128.446 21.4785 99.9561 21.5841C67.4081 21.7004 37.8455 33.9002 8.59116 47.7327C4.18253 49.8172 -0.219452 51.9391 -4.62361 54.062L-4.62585 54.0631C-29.423 66.016 -54.2887 78.002 -80.7909 83.5458C-108.341 89.3195 -136.863 87.9997 -165.469 84.7721Z" fill="black"/>
<path d="M-175.06 94.7257C-174.864 94.5123 -174.667 94.2992 -174.47 94.0863C-144.149 100.663 -113.859 104.873 -83.8177 97.5227C-56.4506 90.8273 -30.6616 76.9098 -4.80231 62.9544C0.183228 60.2639 5.17139 57.572 10.174 54.9301C41.0979 38.5992 72.5567 24.1937 107.223 24.0556C136.305 23.9386 161.343 36.6782 185.786 51.1241C189.635 53.399 193.469 55.7159 197.302 58.0319C214.94 68.6907 232.552 79.3327 251.493 85.797C251.887 86.1911 252.28 86.5863 252.671 86.9827C233.094 80.5398 214.963 69.5827 196.891 58.6608L196.89 58.6598C193.063 56.3472 189.239 54.0361 185.404 51.7697C160.97 37.329 136.086 24.6895 107.226 24.8056C72.7588 24.9429 41.4427 39.2652 10.5242 55.5933C5.5361 58.2275 0.557953 60.9142 -4.42136 63.6016L-4.42337 63.6027C-30.2813 77.5584 -56.1702 91.5308 -83.6395 98.2512C-113.959 105.669 -144.495 101.371 -174.943 94.7512C-174.982 94.7427 -175.021 94.7342 -175.06 94.7257Z" fill="black"/>
<path d="M-183.057 103.785C-182.883 103.579 -182.708 103.373 -182.533 103.167C-180.658 103.783 -178.784 104.39 -176.909 104.984C-147.349 114.358 -117.692 120.734 -86.6897 112.17C-58.5538 104.394 -31.754 88.5323 -4.81503 72.5881C0.787445 69.2722 6.39597 65.9527 12.0238 62.7017C44.6816 43.8361 77.9742 27.2874 114.367 27.3405C143.914 27.3831 168.542 42.5735 192.371 59.8005C196.287 62.6311 200.18 65.5162 204.07 68.3988L204.073 68.4005C223.89 83.0853 243.624 97.7079 265.759 104.757C267.13 105.193 268.506 105.598 269.887 105.972C270.161 106.303 270.435 106.634 270.709 106.966C268.977 106.516 267.25 106.019 265.531 105.471C243.266 98.3811 223.413 83.668 203.597 68.9826C199.713 66.1042 195.831 63.2269 191.932 60.4083C168.108 43.1853 143.652 28.1327 114.366 28.0905C78.1921 28.0377 45.0539 44.4872 12.3989 63.3511C6.78827 66.5923 1.19144 69.905 -4.40387 73.2169C-31.3437 89.1628 -58.2482 105.088 -86.4899 112.893C-117.711 121.517 -147.545 115.082 -177.135 105.699C-179.111 105.073 -181.084 104.434 -183.057 103.785Z" fill="black"/>
<path d="M-189.95 112.229C-189.791 112.026 -189.631 111.823 -189.471 111.621C-186.008 113.156 -182.548 114.664 -179.084 116.117C-150.496 128.115 -121.633 136.474 -89.4115 126.69C-60.6181 117.948 -32.8383 100.27 -4.8335 82.4484L-4.83185 82.4473C1.35165 78.5124 7.54611 74.5705 13.7649 70.7162C48.1138 49.4276 83.1918 30.826 121.109 31.113C151.129 31.3367 175.382 48.8888 198.629 68.7577C202.552 72.1111 206.445 75.5293 210.334 78.9428C217.98 85.6559 225.606 92.3511 233.401 98.5013C245.154 107.774 257.256 115.777 270.312 120.679C274.865 122.389 279.477 123.67 284.142 124.576C284.348 124.869 284.555 125.163 284.76 125.457C279.798 124.537 274.89 123.2 270.049 121.381C256.888 116.44 244.716 108.383 232.937 99.0901C225.126 92.9282 217.473 86.2092 209.817 79.4875L209.812 79.4835C205.93 76.0748 202.046 72.6655 198.141 69.3278C174.895 49.4591 150.827 32.0845 121.103 31.863C83.4229 31.5778 48.5096 50.0647 14.16 71.3537C7.96127 75.1955 1.78055 79.129 -4.39438 83.0587L-4.39621 83.0599C-32.4038 100.884 -60.2921 118.632 -89.1936 127.408C-121.675 137.271 -150.745 128.823 -179.374 116.809C-182.905 115.327 -186.428 113.791 -189.95 112.229Z" fill="black"/>
<path d="M-195.976 120.165C-195.827 119.962 -195.678 119.759 -195.528 119.556C-190.735 122.22 -185.954 124.845 -181.156 127.344C-153.561 141.719 -125.491 151.875 -91.8768 140.956C-62.468 131.399 -33.7675 112.08 -4.75677 92.5509L-4.75339 92.5487C1.91287 88.0613 8.59549 83.5629 15.3069 79.1694C51.1877 55.6806 87.8808 35.2016 127.13 35.7332C157.664 36.1487 181.555 55.8551 204.245 78.1054C208.129 81.9142 211.977 85.7962 215.817 89.671L215.819 89.6732C223.213 97.1334 230.581 104.567 238.131 111.399C249.598 121.775 261.45 130.728 274.375 136.22C281.247 139.137 288.266 140.916 295.4 141.776C295.564 142.046 295.727 142.317 295.89 142.588C288.494 141.749 281.211 139.937 274.082 136.91C261.045 131.371 249.12 122.354 237.628 111.955C230.063 105.11 222.668 97.6492 215.264 90.1788C211.427 86.3074 207.588 82.4334 203.72 78.6409C181.024 56.385 157.326 36.8942 127.12 36.4831C88.1226 35.955 51.603 56.3052 15.7176 79.7969C9.02734 84.1766 2.35876 88.6658 -4.2991 93.1479C-33.3141 112.681 -62.1261 132.077 -91.6451 141.669C-125.554 152.684 -153.857 142.41 -181.503 128.01C-186.337 125.492 -191.153 122.846 -195.976 120.165Z" fill="black"/>
<path d="M-201.352 127.745C-201.21 127.538 -201.069 127.332 -200.927 127.126C-200.738 127.25 -200.55 127.374 -200.362 127.498L-200.36 127.498C-194.575 131.298 -188.83 135.071 -183.048 138.627C-156.387 155.026 -129.052 166.748 -94.0644 154.86C-65.7216 145.239 -38.1455 127.905 -12.0002 111.471C-5.25098 107.228 1.40323 103.046 7.95026 99.0711C14.3127 95.2053 21.1679 90.7326 28.3838 86.0246C40.3848 78.1945 53.3835 69.7135 66.7722 62.2904C88.2252 50.3962 110.795 41.1461 132.112 41.5401C163.263 42.1156 186.78 63.6614 208.922 87.9249C212.71 92.0757 216.457 96.305 220.195 100.525L220.197 100.527C227.403 108.661 234.579 116.762 241.964 124.203C253.175 135.499 264.829 145.233 277.713 151.187C286.394 155.198 295.3 157.188 304.364 157.655C304.498 157.912 304.633 158.169 304.767 158.426C295.467 157.997 286.319 155.989 277.399 151.868C264.395 145.858 252.667 136.052 241.432 124.731C234.033 117.276 226.831 109.146 219.615 101.001C215.879 96.7846 212.14 92.5638 208.368 88.4304C186.216 64.1556 162.896 42.8589 132.098 42.29C110.987 41.8998 88.5626 51.0668 67.1359 62.9463C53.7607 70.362 40.8189 78.8067 28.8407 86.6226C21.6179 91.3355 14.7455 95.8199 8.33972 99.7121C1.81625 103.672 -4.82153 107.845 -11.5603 112.081C-37.7126 128.52 -65.3879 145.917 -93.8231 155.57C-129.134 167.568 -156.722 155.701 -183.441 139.266C-189.233 135.703 -194.989 131.923 -200.773 128.124C-200.966 127.998 -201.159 127.871 -201.352 127.745Z" fill="black"/>
<path d="M-206.221 135.074C-206.086 134.863 -205.95 134.653 -205.814 134.443C-205.174 134.913 -204.535 135.384 -203.896 135.855C-202.73 136.715 -201.566 137.575 -200.405 138.435C-195.106 142.355 -189.847 146.245 -184.549 149.93C-158.719 167.893 -132.053 180.901 -95.8044 168.34C-66.8062 158.288 -38.4893 139.964 -11.7807 122.681L-11.7783 122.679C-4.74713 118.129 2.17252 113.652 8.96365 109.416C15.4605 105.36 22.4824 100.64 29.8988 95.6547L29.8999 95.654C32.2618 94.0663 34.6637 92.4517 37.1014 90.8231C47.1897 84.0832 57.884 77.1086 68.8634 70.8312C90.8109 58.283 113.95 48.4894 135.716 48.9579C167.609 49.6401 190.718 72.5926 212.316 98.3827C215.945 102.716 219.531 107.129 223.109 111.533L223.11 111.534C230.197 120.256 237.255 128.943 244.567 136.909C255.564 148.893 267.095 159.2 280.072 165.474C290.325 170.43 300.835 172.396 311.51 172.247C311.623 172.495 311.736 172.743 311.848 172.992C300.962 173.188 290.225 171.215 279.745 166.15C266.643 159.814 255.036 149.426 244.014 137.417C236.688 129.435 229.604 120.716 222.508 111.983C218.933 107.583 215.354 103.179 211.741 98.8642C190.13 73.0589 167.218 50.3819 135.7 49.7078C114.147 49.2438 91.1585 58.9482 69.2357 71.4823C58.2798 77.7462 47.6032 84.7089 37.5181 91.4467C35.0852 93.0721 32.6864 94.6846 30.3262 96.2712L30.3248 96.2721C22.9059 101.259 15.8692 105.989 9.36081 110.052C2.59488 114.272 -4.30743 118.739 -11.3272 123.282L-11.3296 123.283C-38.046 140.573 -66.4655 158.964 -95.5589 169.049C-132.152 181.729 -159.084 168.553 -184.977 150.545C-190.285 146.854 -195.554 142.956 -200.854 139.036L-200.869 139.024C-202.025 138.169 -203.182 137.313 -204.341 136.458C-204.967 135.996 -205.594 135.535 -206.221 135.074Z" fill="black"/>
<path d="M-210.737 142.323C-210.607 142.108 -210.477 141.892 -210.346 141.677C-206.822 144.411 -203.343 147.188 -199.882 149.949C-195.093 153.771 -190.341 157.563 -185.562 161.168C-172.991 170.652 -160.19 178.879 -145.869 183.131C-131.56 187.379 -115.712 187.664 -97.0333 181.225C-67.6942 171.107 -38.8727 152.061 -11.8827 134.225L-11.8806 134.224C-4.60815 129.418 2.53133 124.7 9.51212 120.268C16.0996 116.089 23.2083 111.227 30.7117 106.095L30.7212 106.089C33.0804 104.475 35.4787 102.835 37.9121 101.181C48.0838 94.2662 58.8617 87.1145 69.9366 80.6794C92.0752 67.8155 115.453 57.7825 137.602 58.2617C170.434 58.9865 193.093 82.8058 214.143 109.518C217.542 113.832 220.9 118.221 224.251 122.603L224.253 122.605C231.295 131.812 238.314 140.988 245.657 149.379C256.491 161.759 267.994 172.384 281.237 178.805C293.005 184.512 304.989 186.247 317.098 185.335C317.195 185.579 317.292 185.822 317.388 186.065C305.09 187.025 292.895 185.292 280.91 179.48C267.534 172.994 255.952 162.282 245.093 149.873C237.733 141.464 230.689 132.254 223.638 123.037C220.29 118.658 216.939 114.278 213.554 109.982C192.492 83.2546 170.03 59.7278 137.586 59.0115C115.653 58.537 92.4265 68.4788 70.3134 81.3279C59.2623 87.7492 48.5023 94.8885 38.3337 101.801C35.9081 103.45 33.5157 105.086 31.1609 106.696L31.1442 106.708L31.1433 106.709C23.6371 111.842 16.5134 116.714 9.914 120.902C2.9606 125.316 -4.16019 130.022 -11.4207 134.82L-11.4215 134.82C-38.4203 152.663 -67.3502 171.781 -96.7888 181.934C-115.612 188.423 -131.62 188.144 -146.083 183.85C-160.534 179.559 -173.422 171.266 -186.014 161.766C-190.829 158.134 -195.594 154.332 -200.387 150.506C-203.813 147.772 -207.254 145.026 -210.737 142.323Z" fill="black"/>
<path d="M-215.389 150.319C-215.266 150.099 -215.142 149.879 -215.018 149.66C-210.025 153.416 -205.136 157.304 -200.285 161.161C-195.453 165.004 -190.659 168.816 -185.839 172.437C-173.256 181.889 -160.45 190.078 -146.154 194.288C-131.868 198.494 -116.073 198.733 -97.5009 192.246C-68.1206 181.987 -39.2554 163.24 -12.0975 145.601C-4.68782 140.788 2.59523 136.058 9.72641 131.606C16.4963 127.377 23.8225 122.428 31.5631 117.199L31.5651 117.197L31.5782 117.189C33.7659 115.711 35.9867 114.211 38.2373 112.698C48.4529 105.832 59.2775 98.7161 70.3904 92.2958C92.6051 79.4616 116.024 69.3764 138.087 69.6639C171.028 70.101 193.551 94.0571 214.433 120.959C217.803 125.301 221.13 129.718 224.451 134.129L224.454 134.132C231.44 143.409 238.404 152.657 245.702 161.105C256.465 173.564 267.916 184.237 281.152 190.631C294.409 197.038 307.846 198.459 321.378 196.755C321.462 196.997 321.547 197.238 321.631 197.479C307.931 199.229 294.292 197.815 280.826 191.306C267.454 184.847 255.923 174.085 245.134 161.595C237.821 153.129 230.831 143.847 223.836 134.558L223.829 134.55C220.512 130.145 217.195 125.74 213.841 121.419C192.946 94.5006 170.623 70.8457 138.077 70.4138C116.227 70.1291 92.9565 80.1247 70.7656 92.9452C59.6758 99.3522 48.8686 106.457 38.6556 113.32C36.4047 114.833 34.1822 116.335 31.9919 117.814L31.9904 117.815C24.2477 123.046 16.9063 128.005 10.1237 132.242C3.01968 136.677 -4.24423 141.395 -11.6417 146.2L-11.6427 146.201C-38.8096 163.846 -67.7788 182.663 -97.2536 192.954C-115.971 199.491 -131.926 199.259 -146.365 195.007C-160.793 190.759 -173.686 182.505 -186.289 173.037C-191.146 169.388 -195.953 165.565 -200.789 161.719C-205.601 157.892 -210.442 154.042 -215.389 150.319Z" fill="black"/>
<path d="M-220.164 159.18C-220.048 158.957 -219.932 158.733 -219.816 158.51C-215.01 161.793 -210.297 165.205 -205.628 168.623C-204.5 169.448 -203.375 170.274 -202.251 171.098C-196.913 175.016 -191.617 178.903 -186.283 182.58C-160.464 200.376 -133.846 213.189 -97.7559 200.512C-68.3206 190.175 -39.5413 172.686 -12.0565 155.985L-12.0555 155.984C-4.47705 151.379 3.00296 146.834 10.3712 142.515C17.6212 138.265 25.5471 133.186 33.9495 127.802C35.6881 126.688 37.4471 125.561 39.2248 124.426C49.5895 117.805 60.5818 110.901 71.8317 104.648C94.3195 92.1494 117.89 82.22 139.589 82.3797C171.791 82.625 194.135 106.34 214.831 133.024C218.284 137.476 221.69 142.01 225.09 146.534C231.897 155.594 238.676 164.617 245.747 172.874C256.345 185.249 267.558 195.853 280.413 202.204C295.076 209.449 310.001 210.509 325.054 207.936C325.128 208.177 325.201 208.418 325.275 208.659C310.07 211.273 294.95 210.223 280.081 202.876C267.091 196.458 255.799 185.765 245.178 173.362C238.092 165.088 231.286 156.03 224.47 146.959C221.074 142.439 217.675 137.915 214.238 133.483C193.527 106.781 171.386 83.3719 139.584 83.1297C118.09 82.9715 94.6647 92.8156 72.196 105.304C60.9676 111.545 49.9916 118.438 39.6285 125.058C37.8548 126.191 36.0988 127.316 34.3625 128.428L34.3593 128.43C25.9564 133.815 18.0148 138.903 10.7505 143.162C3.40637 147.467 -4.05728 152.002 -11.6253 156.601L-11.6263 156.602C-39.1199 173.309 -67.9903 190.854 -97.5073 201.219C-133.941 214.017 -160.826 201.038 -186.708 183.197C-192.053 179.513 -197.36 175.618 -202.699 171.7C-203.821 170.877 -204.945 170.052 -206.071 169.228C-210.715 165.829 -215.395 162.441 -220.164 159.18Z" fill="black"/>
<path d="M-224.767 168.482C-224.66 168.255 -224.552 168.028 -224.444 167.802C-218.585 171.292 -212.847 174.966 -207.163 178.639C-206.292 179.202 -205.422 179.766 -204.553 180.328C-198.755 184.08 -193.002 187.803 -187.215 191.307C-160.604 207.419 -133.346 218.842 -98.0905 206.932C-68.3777 196.884 -39.3236 180.798 -11.2585 165.259C-3.60843 161.023 3.9682 156.829 11.4647 152.808C19.2108 148.654 27.7419 143.601 36.7979 138.237C38.1504 137.436 39.5146 136.628 40.8897 135.815C51.4679 129.561 62.6824 123.015 74.1197 117.084C96.9822 105.227 120.79 95.794 142.241 96.0708C173.711 96.4653 195.476 119.767 215.592 145.982C218.995 150.416 222.349 154.933 225.697 159.44L225.697 159.44C232.263 168.281 238.801 177.083 245.618 185.152C255.905 197.328 266.787 207.781 279.272 214.095C295.239 222.166 311.647 222.73 328.257 219.173C328.32 219.415 328.384 219.657 328.447 219.899C311.704 223.49 295.104 222.939 278.934 214.764C266.315 208.383 255.355 197.839 245.045 185.636C238.213 177.55 231.65 168.713 225.075 159.86C221.731 155.358 218.384 150.852 214.997 146.439C194.867 120.205 173.302 97.2103 142.231 96.8207C120.977 96.5465 97.3113 105.901 74.465 117.75C63.0478 123.671 51.8489 130.207 41.2714 136.461C39.9051 137.268 38.5491 138.072 37.2042 138.868L37.1821 138.881C28.1276 144.244 19.5807 149.306 11.8191 153.469C4.34341 157.478 -3.21921 161.666 -10.8604 165.896C-38.9331 181.44 -68.0667 197.57 -97.8504 207.643C-133.423 219.66 -160.93 208.099 -187.604 191.949C-193.401 188.439 -199.164 184.709 -204.961 180.957C-205.83 180.395 -206.7 179.832 -207.57 179.269C-213.235 175.609 -218.943 171.954 -224.767 168.482Z" fill="black"/>
<path d="M-229.2 178.315C-229.101 178.085 -229.002 177.855 -228.903 177.625C-221.554 181.279 -214.364 185.185 -207.233 189.059C-200.987 192.453 -194.786 195.821 -188.565 198.973C-161.008 212.936 -132.974 222.706 -98.4637 211.952C-68.4182 202.587 -38.9545 188.122 -10.2335 174.021C-2.45969 170.205 5.2597 166.415 12.9215 162.761C21.2669 158.783 30.4995 153.86 40.2931 148.638L40.2945 148.638L40.3939 148.585C41.2939 148.105 42.1987 147.622 43.1079 147.138C53.9449 141.364 65.4127 135.308 77.0653 129.83C100.359 118.881 124.444 110.215 145.763 110.758C176.512 111.558 197.384 134.275 216.619 159.79C219.86 164.088 223.053 168.465 226.24 172.833C232.529 181.453 238.794 190.04 245.35 197.924C255.221 209.798 265.714 220.027 277.855 226.304C294.979 235.155 312.839 235.109 331.004 230.503C331.058 230.747 331.112 230.992 331.165 231.236C312.886 235.866 294.838 235.926 277.511 226.97C265.237 220.626 254.668 210.306 244.773 198.404C238.203 190.502 231.913 181.881 225.615 173.249L225.614 173.248C222.431 168.885 219.245 164.519 216.02 160.241C196.773 134.711 176.097 112.297 145.744 111.508C124.613 110.97 100.663 119.566 77.3843 130.509C65.7506 135.978 54.2978 142.026 43.4605 147.8C42.5167 148.303 41.5775 148.803 40.6433 149.302C30.8538 154.522 21.606 159.453 13.2442 163.438C5.60156 167.083 -2.10464 170.866 -9.86969 174.679L-9.87335 174.681C-38.6009 188.785 -68.134 203.284 -98.2406 212.668C-133.033 223.51 -161.289 213.634 -188.904 199.642C-195.167 196.469 -201.394 193.086 -207.657 189.684C-214.758 185.827 -221.905 181.945 -229.2 178.315Z" fill="black"/>
<path d="M-233.376 188.58C-233.286 188.347 -233.196 188.114 -233.105 187.881C-225.432 190.907 -217.888 194.156 -210.397 197.383L-210.395 197.384C-203.678 200.277 -197.003 203.152 -190.314 205.832C-161.68 217.304 -132.74 225.225 -98.9395 215.891C-68.4739 207.489 -38.4865 194.821 -9.01996 182.373L-9.01575 182.371C-1.12259 179.037 6.73318 175.718 14.5508 172.501C23.5404 168.804 33.5042 164.143 44.0509 159.211L45.6112 158.481C56.7322 153.281 68.4693 147.82 80.3531 142.905C104.11 133.079 128.505 125.409 149.797 126.378C179.917 127.743 199.632 149.769 217.732 174.409C220.685 178.429 223.594 182.517 226.499 186.599L226.5 186.601C232.515 195.053 238.511 203.479 244.839 211.219C254.22 222.691 264.295 232.607 276.161 238.787C294.363 248.272 313.622 247.514 333.283 241.846C333.328 242.093 333.372 242.341 333.417 242.588C313.662 248.27 294.219 249.042 275.814 239.453C263.816 233.203 253.665 223.197 244.259 211.694C237.914 203.934 231.892 195.472 225.868 187.007L225.866 187.004C222.965 182.928 220.065 178.851 217.128 174.853C199.019 150.202 179.494 128.475 149.763 127.127C128.647 126.167 104.383 133.778 80.6398 143.598C68.7737 148.506 57.051 153.96 45.9288 159.16L44.3618 159.893L44.3605 159.894C33.8206 164.824 23.8423 169.49 14.8361 173.195C7.03214 176.406 -0.815033 179.721 -8.70334 183.054C-38.1756 195.504 -68.2223 208.198 -98.74 216.614C-132.78 226.014 -161.91 218.02 -190.593 206.528C-197.321 203.833 -204.021 200.947 -210.754 198.047C-218.227 194.828 -225.74 191.592 -233.376 188.58Z" fill="black"/>
<path d="M-237.201 199.115C-237.12 198.878 -237.039 198.641 -236.957 198.404C-229.208 200.664 -221.544 203.095 -213.917 205.514C-206.723 207.795 -199.562 210.066 -192.395 212.173C-162.587 220.936 -132.622 226.885 -99.4758 219.13C-68.5375 211.897 -37.96 201.172 -7.7489 190.576C0.261169 187.767 8.24576 184.966 16.2042 182.242C25.9619 178.905 36.7752 174.597 48.1808 170.053L48.2062 170.043C59.6177 165.497 71.6188 160.716 83.7285 156.446C107.938 147.908 132.632 141.388 153.982 142.867C184.249 144.957 202.18 166.614 218.594 190.422C220.786 193.6 222.95 196.816 225.113 200.031C231.064 208.875 237.006 217.707 243.487 225.703C252.318 236.599 262.12 245.903 274.238 251.517C294.163 260.752 314.527 259.223 335.047 252.782C335.082 253.033 335.117 253.284 335.152 253.535C314.562 259.98 294.034 261.519 273.922 252.197C261.658 246.515 251.77 237.114 242.904 226.175C236.4 218.151 230.43 209.277 224.473 200.423C222.314 197.215 220.157 194.009 217.977 190.848C201.558 167.034 183.809 145.679 153.93 143.615C132.744 142.148 108.174 148.62 83.9779 157.153C71.8847 161.418 59.8975 166.193 48.4837 170.74L48.4471 170.755C37.0504 175.295 26.2224 179.609 16.447 182.952C8.50101 185.672 0.524994 188.469 -7.47989 191.277C-37.6958 201.875 -68.3233 212.617 -99.3051 219.86C-132.643 227.66 -162.761 221.667 -192.607 212.893C-199.807 210.776 -206.988 208.498 -214.195 206.213C-221.818 203.796 -229.47 201.369 -237.201 199.115Z" fill="black"/>
<path d="M-240.685 210.001C-240.613 209.76 -240.541 209.52 -240.468 209.279C-233.102 210.764 -225.76 212.361 -218.43 213.955C-211.946 215.365 -205.471 216.773 -198.996 218.1C-169.247 224.196 -139.478 228.587 -108.733 223.66C-71.396 217.684 -34.5974 207.163 2.00101 196.699C15.61 192.808 29.1914 188.925 42.7625 185.287C50.7222 183.156 59.2993 180.489 68.2346 177.711L69.7375 177.244C79.2111 174.299 89.0651 171.257 98.979 168.626C118.8 163.364 138.9 159.73 156.733 161.794C187.697 165.376 204.62 186.622 220.393 209.427C221.87 211.562 223.336 213.71 224.804 215.86L224.808 215.867C239.037 236.71 253.303 257.609 277.226 266.937C296.356 274.405 316.295 271.882 336.512 264.894C336.538 265.15 336.563 265.406 336.588 265.662C316.328 272.64 296.251 275.169 276.953 267.635C252.802 258.218 238.402 237.118 224.199 216.305C222.726 214.147 221.255 211.992 219.776 209.853C204.003 187.049 187.249 166.079 156.646 162.539C138.959 160.492 118.972 164.095 99.1714 169.351C89.2747 171.978 79.4347 175.015 69.9601 177.96L68.4532 178.428C59.5223 181.205 50.9316 183.877 42.9566 186.011C29.4124 189.643 15.8472 193.521 2.24738 197.409C-34.3655 207.877 -71.2295 218.417 -108.614 224.401C-139.499 229.35 -169.38 224.935 -199.147 218.834C-205.641 217.503 -212.129 216.093 -218.621 214.681C-225.966 213.084 -233.316 211.486 -240.685 210.001Z" fill="black"/>
<path d="M-243.631 220.585C-243.568 220.34 -243.504 220.095 -243.441 219.851C-236.29 220.604 -229.146 221.419 -222.006 222.233C-215.228 223.005 -208.453 223.778 -201.681 224.497C-171.032 227.752 -140.411 229.926 -109.566 226.18C-71.7621 221.584 -34.2698 213.655 3.11768 205.748C16.9166 202.829 30.7012 199.914 44.4821 197.171C53.1623 195.445 62.4768 193.186 72.1344 190.84L72.4035 190.775C81.9749 188.45 91.8782 186.044 101.816 183.997C121.872 179.865 142.104 177.183 160.088 179.576C189.913 183.541 205.906 203.686 220.788 225.234C222.153 227.211 223.509 229.2 224.866 231.189C238.317 250.916 251.804 270.694 274.875 279.801C294.786 287.662 315.922 284.434 337.448 276.531C337.463 276.792 337.479 277.053 337.494 277.314C315.946 285.194 294.678 288.425 274.599 280.499C251.302 271.302 237.684 251.326 224.256 231.628L224.254 231.625C222.894 229.63 221.537 227.638 220.171 225.661C205.292 204.117 189.463 184.238 159.989 180.32C142.135 177.944 122.004 180.603 101.967 184.731C92.0424 186.776 82.1498 189.179 72.5746 191.505L72.3114 191.569C62.6572 193.914 53.3268 196.177 44.6284 197.906C30.8679 200.646 17.0958 203.558 3.30429 206.475L3.30209 206.476C-34.0958 214.385 -71.6366 222.324 -109.476 226.924C-140.409 230.681 -171.101 228.499 -201.76 225.243C-208.545 224.522 -215.328 223.749 -222.111 222.976L-222.112 222.976C-229.283 222.158 -236.455 221.341 -243.631 220.585Z" fill="black"/>
<path d="M-246.133 231.06C-246.078 230.811 -246.023 230.562 -245.968 230.313C-239.281 230.425 -232.595 230.558 -225.909 230.692H-225.908C-218.745 230.834 -211.583 230.977 -204.422 231.094C-173.045 231.608 -141.694 231.634 -110.421 229.04C-72.0823 225.868 -33.8961 220.552 4.2543 215.242L4.25595 215.241C18.0994 213.314 31.9381 211.388 45.7777 209.565C54.7387 208.385 64.2509 206.738 74.053 205.014C74.8035 204.882 75.5558 204.75 76.3096 204.617C85.3979 203.017 94.7148 201.377 104.043 200.005C124.244 197.034 144.534 195.315 162.742 197.994C191.405 202.205 206.633 221.15 220.807 241.352C222.077 243.162 223.338 244.981 224.599 246.801C237.441 265.329 250.317 283.904 272.586 292.687C293.14 300.797 315.296 296.928 337.928 288.248C337.934 288.514 337.939 288.78 337.944 289.046C315.31 297.692 293.03 301.56 272.31 293.385C249.818 284.514 236.813 265.746 223.993 247.245L223.985 247.233C222.722 245.41 221.461 243.591 220.193 241.783C206.026 221.591 190.958 202.897 162.633 198.736C144.537 196.074 124.336 197.778 104.153 200.747C94.8344 202.117 85.5271 203.756 76.4363 205.356L74.1829 205.753C64.3824 207.477 54.8549 209.126 45.8757 210.308C32.0478 212.13 18.216 214.055 4.3764 215.982C-33.7807 221.294 -71.9978 226.614 -110.359 229.787C-141.671 232.385 -173.052 232.358 -204.434 231.844C-211.597 231.727 -218.759 231.584 -225.921 231.441L-225.933 231.441C-232.667 231.307 -239.401 231.173 -246.133 231.06Z" fill="black"/>
<path d="M-248.221 241.467C-248.175 241.213 -248.128 240.96 -248.081 240.706C-239.187 240.148 -230.293 239.581 -221.4 239.013C-184.72 236.672 -148.039 234.331 -111.318 232.663C-72.1928 230.883 -33.1157 228.155 5.96344 225.426C19.4609 224.484 32.9586 223.542 46.4585 222.639C57.1231 221.922 68.3671 220.669 79.8705 219.386C88.271 218.45 96.8098 217.498 105.362 216.729C125.599 214.908 145.86 214.115 164.335 217.005C191.867 221.3 206.574 238.966 220.292 257.747C221.495 259.395 222.69 261.05 223.886 262.706C236.341 279.956 248.822 297.243 270.337 305.572C291.478 313.768 314.457 309.355 337.949 300.061C337.945 300.332 337.939 300.603 337.934 300.874C314.459 310.123 291.367 314.529 270.066 306.271C248.333 297.858 235.723 280.388 223.289 263.161C222.089 261.499 220.891 259.839 219.686 258.19C205.979 239.422 191.429 221.991 164.219 217.746C145.838 214.871 125.651 215.657 105.43 217.476C96.917 218.242 88.3886 219.192 79.9888 220.128L79.9865 220.128C68.4611 221.413 57.1777 222.67 46.5088 223.387C33.0136 224.29 19.519 225.232 6.02328 226.174C-33.0584 228.902 -72.1488 231.631 -111.284 233.412C-148.004 235.08 -184.665 237.42 -221.333 239.76L-221.337 239.761L-221.342 239.761C-230.301 240.333 -239.26 240.905 -248.221 241.467Z" fill="black"/>
<path d="M-249.927 251.907C-249.89 251.65 -249.852 251.393 -249.814 251.136C-242.64 250.194 -235.471 249.222 -228.304 248.251L-228.296 248.25C-222.055 247.403 -215.815 246.557 -209.571 245.732C-177.318 241.466 -145.006 237.749 -112.259 237.41C-77.0212 237.057 -41.7827 236.911 -6.54547 236.765H-6.54282L-6.5143 236.765C11.0949 236.692 28.7038 236.619 46.312 236.52C58.2147 236.453 70.6261 235.839 83.2283 235.215L83.2301 235.215C90.6152 234.85 98.0659 234.481 105.518 234.218C125.671 233.505 145.808 233.562 164.569 236.546C191.043 240.766 205.542 257.069 219.126 274.356C220.296 275.844 221.459 277.34 222.622 278.836C234.98 294.731 247.354 310.646 268.213 318.392C289.939 326.457 313.479 321.637 337.503 311.94C337.487 312.217 337.47 312.493 337.454 312.769C313.464 322.41 289.825 327.215 267.952 319.095C246.883 311.271 234.38 295.186 222.041 279.312L222.026 279.292C220.864 277.797 219.703 276.303 218.536 274.819C204.966 257.55 190.621 241.458 164.451 237.286C145.763 234.314 125.685 234.255 105.544 234.967C98.1165 235.23 90.6762 235.598 83.2949 235.963L83.2923 235.963C70.6762 236.587 58.232 237.203 46.3162 237.27C28.6977 237.369 11.0798 237.442 -6.53778 237.515H-6.54565C-41.7814 237.661 -77.0159 237.807 -112.251 238.16C-144.95 238.499 -177.224 242.21 -209.473 246.475C-215.713 247.3 -221.952 248.146 -228.193 248.992C-235.434 249.974 -242.677 250.956 -249.927 251.907Z" fill="black"/>
<path d="M-251.272 262.531C-251.244 262.271 -251.215 262.012 -251.187 261.752C-244.058 260.426 -236.941 259.048 -229.825 257.67L-229.824 257.67C-223.769 256.497 -217.716 255.325 -211.658 254.186C-179.239 248.087 -146.706 242.919 -113.222 243.641C-93.1583 244.078 -72.6571 244.278 -51.9261 244.481L-51.9236 244.481C19.8807 245.183 94.4421 245.913 163.126 256.573C188.614 260.537 203.281 275.411 217.136 291.135C218.288 292.442 219.434 293.755 220.58 295.068L220.591 295.08C233.241 309.571 245.895 324.066 266.296 331.063C288.64 338.733 312.426 333.672 336.58 323.82C336.553 324.102 336.525 324.383 336.497 324.665C312.389 334.451 288.524 339.486 266.053 331.772C245.452 324.707 232.67 310.061 220.038 295.588C218.884 294.266 217.731 292.945 216.574 291.631C202.734 275.925 188.219 261.235 163.011 257.314C94.3861 246.663 19.8998 245.934 -51.8957 245.232C-72.6364 245.029 -93.1527 244.828 -113.238 244.391C-146.64 243.671 -179.108 248.825 -211.519 254.923C-217.564 256.06 -223.606 257.23 -229.653 258.401L-229.668 258.404C-236.861 259.797 -244.06 261.19 -251.272 262.531Z" fill="black"/>
<path d="M-252.247 273.394C-252.228 273.133 -252.209 272.872 -252.19 272.611C-245.064 270.967 -237.954 269.246 -230.845 267.525C-226.239 266.411 -221.635 265.297 -217.027 264.203C-185.832 256.801 -154.504 250.358 -121.971 251.355C-29.1052 254.196 69.0343 264.391 161.063 276.791C185.951 280.147 201.648 294.553 216.818 309.373C217.562 310.101 218.306 310.829 219.049 311.557C233.461 325.68 247.769 339.701 269.481 344.743C291.273 349.811 313.204 344.841 335.154 335.855C335.114 336.142 335.074 336.429 335.033 336.715C313.139 345.628 291.173 350.557 269.311 345.474C247.389 340.383 232.941 326.222 218.558 312.126C217.803 311.387 217.049 310.647 216.294 309.909C201.125 295.09 185.583 280.854 160.963 277.534C68.9478 265.137 -29.1637 254.944 -121.994 252.105C-154.42 251.11 -185.665 257.532 -216.853 264.933C-221.455 266.025 -226.056 267.138 -230.659 268.252C-237.844 269.991 -245.036 271.732 -252.247 273.394Z" fill="black"/>
<path d="M-252.849 285.083C-252.841 284.823 -252.832 284.563 -252.823 284.303C-245.058 282.367 -237.319 280.313 -229.583 278.259C-225.645 277.213 -221.708 276.168 -217.769 275.138C-186.731 267.029 -155.544 259.914 -122.705 261.592C-76.4517 263.945 -30.0328 270.401 16.3166 277.57C26.3364 279.12 36.3526 280.703 46.3632 282.285L46.3653 282.286C82.6667 288.023 118.895 293.749 154.952 297.835C179.429 300.613 196.405 313.299 212.946 326.293C213.662 326.855 214.377 327.418 215.091 327.98C230.908 340.432 246.598 352.784 268.426 356.841C290.55 360.949 312.043 356.068 333.296 347.485C333.244 347.776 333.191 348.067 333.138 348.358C311.95 356.862 290.446 361.693 268.289 357.578C246.275 353.487 230.452 341.029 214.663 328.598C213.936 328.026 213.21 327.454 212.483 326.883C195.941 313.888 179.113 301.332 154.867 298.58C118.792 294.492 82.5424 288.763 46.2384 283.025C36.2296 281.443 26.2166 279.861 16.202 278.312C-30.1434 271.143 -76.5305 264.692 -122.744 262.341C-155.457 260.67 -186.546 267.755 -217.579 275.864C-221.514 276.892 -225.448 277.937 -229.384 278.982L-229.385 278.982C-237.19 281.055 -245.003 283.129 -252.849 285.083Z" fill="black"/>
<path d="M-252.996 296.821C-252.997 296.565 -252.999 296.308 -253 296.052C-245.893 294.386 -238.797 292.641 -231.702 290.895C-226.653 289.653 -221.604 288.411 -216.551 287.198C-185.165 279.663 -153.642 273.245 -121.074 274.901C-58.5 278.068 5.03629 287.327 67.9819 296.499C95.6194 300.526 123.143 304.537 150.421 308.008C174.857 311.116 193.074 323.767 210.931 336.618C211.541 337.057 212.15 337.496 212.759 337.935C230.007 350.363 247.099 362.678 269.398 366.653C290.279 370.375 310.754 366.261 331.051 358.685C330.987 358.977 330.922 359.267 330.857 359.558C310.631 367.054 290.162 371.116 269.267 367.391C246.796 363.386 229.578 350.979 212.362 338.573C211.739 338.124 211.116 337.675 210.493 337.227C192.628 324.37 174.551 311.833 150.327 308.752C123.019 305.277 95.4789 301.264 67.8329 297.236L67.8315 297.235C4.90298 288.065 -58.5746 278.816 -121.112 275.65C-153.565 274 -184.997 280.394 -216.376 287.927C-221.419 289.138 -226.461 290.379 -231.506 291.62L-231.509 291.62C-238.662 293.38 -245.821 295.141 -252.996 296.821Z" fill="black"/>
<path d="M-252.615 309.982C-252.628 309.73 -252.64 309.478 -252.652 309.225C-245.472 307.836 -238.297 306.387 -231.123 304.937C-224.027 303.504 -216.929 302.07 -209.827 300.695C-176.791 294.298 -143.638 289.172 -109.816 291.242C-26.0053 296.371 60.3464 305.888 143.516 317.291C167.817 320.62 187.106 332.101 206.026 343.961C207.114 344.644 208.201 345.327 209.288 346.01C227.109 357.214 244.833 368.358 266.424 373.056C287.514 377.638 308.296 374.418 328.926 367.642C328.853 367.929 328.78 368.216 328.706 368.503C308.144 375.204 287.369 378.374 266.265 373.789C244.541 369.062 226.712 357.852 208.914 346.661C207.819 345.972 206.723 345.284 205.627 344.597C186.706 332.736 167.539 321.339 143.414 318.034C60.2572 306.633 -26.0751 297.118 -109.862 291.99C-143.584 289.927 -176.66 295.037 -209.684 301.431C-216.772 302.803 -223.859 304.235 -230.949 305.668L-230.952 305.668C-238.167 307.126 -245.387 308.585 -252.615 309.982Z" fill="black"/>
<path d="M-251.587 323.81C-251.612 323.561 -251.636 323.312 -251.66 323.063C-244.232 321.999 -236.804 320.89 -229.375 319.781L-229.371 319.781C-221.396 318.59 -213.419 317.399 -205.437 316.264C-171.92 311.495 -138.333 307.697 -104.526 308.98C-25.0085 311.99 57.7662 315.847 136.729 325.662C161.805 328.777 182.991 339.72 203.883 351.017C205.031 351.638 206.177 352.26 207.324 352.881C227.063 363.582 246.713 374.234 269.383 378.628C288.938 382.413 308.052 380.185 326.96 374.988C326.88 375.269 326.801 375.55 326.721 375.831C307.878 380.963 288.787 383.147 269.24 379.365C246.453 374.948 226.709 364.244 206.992 353.555L206.986 353.551C205.833 352.926 204.68 352.301 203.526 351.677C182.63 340.377 161.556 329.502 136.637 326.406C57.7088 316.596 -25.0373 312.739 -104.555 309.73C-138.291 308.449 -171.824 312.238 -205.331 317.006C-213.303 318.141 -221.274 319.33 -229.245 320.52L-229.247 320.521C-236.693 321.632 -244.139 322.743 -251.587 323.81Z" fill="black"/>
<path d="M-249.756 338.657C-249.793 338.409 -249.83 338.16 -249.866 337.912C-242.072 337.43 -234.273 336.942 -226.471 336.454L-226.467 336.454C-108.08 329.05 11.132 321.594 129.346 333.587C155.546 336.243 178.826 346.405 201.871 356.951C203.233 357.574 204.595 358.199 205.956 358.823C227.637 368.771 249.249 378.688 273.104 382.717C290.901 385.723 308.212 384.372 325.29 380.693C325.207 380.967 325.123 381.24 325.039 381.514C308.025 385.141 290.748 386.458 272.979 383.456C249.023 379.41 227.326 369.455 205.665 359.515L205.612 359.49C204.261 358.871 202.91 358.251 201.559 357.633C178.509 347.085 155.332 336.975 129.27 334.333C11.1235 322.347 -108.014 329.798 -226.399 337.202L-226.408 337.202C-234.194 337.689 -241.977 338.176 -249.756 338.657Z" fill="black"/>
<path d="M-247.37 352.413C-247.42 352.164 -247.469 351.915 -247.517 351.665C-235.08 351.496 -222.643 351.36 -210.206 351.224H-210.205C-170.233 350.788 -130.269 350.351 -90.313 348.803C-68.1786 347.945 -45.6835 346.386 -23.0594 344.817C25.2955 341.464 74.2407 338.07 121.514 341.407C149.029 343.35 174.611 352.084 199.991 361.505C202.874 362.575 205.754 363.653 208.633 364.732C231.123 373.157 253.607 381.579 277.346 385.791C292.987 388.561 308.394 388.12 323.679 385.827C323.593 386.093 323.507 386.359 323.42 386.624C308.194 388.878 292.824 389.294 277.215 386.529C253.404 382.305 230.852 373.857 208.37 365.435C205.49 364.356 202.611 363.277 199.73 362.208C174.352 352.788 148.858 344.09 121.461 342.155C74.2402 338.822 25.387 342.21 -22.9393 345.561L-22.9416 345.561C-45.5786 347.131 -68.1001 348.693 -90.284 349.552C-130.242 351.101 -170.233 351.538 -210.22 351.974L-210.226 351.975C-222.608 352.11 -234.99 352.245 -247.37 352.413Z" fill="black"/>
<path d="M-244.167 366.712C-244.23 366.458 -244.294 366.204 -244.357 365.95C-233.46 366.583 -222.556 367.325 -211.652 368.067L-211.647 368.067C-203.408 368.628 -195.169 369.188 -186.933 369.702C-151.899 371.888 -116.9 373.226 -82.109 370.124C-58.5371 368.018 -34.636 364.384 -10.6191 360.733C-1.90302 359.407 6.82831 358.08 15.5647 356.822C48.3633 352.101 81.219 348.367 113.531 349.459C142.47 350.436 170.422 357.888 198.206 366.207C202.581 367.517 206.951 368.848 211.32 370.179C234.715 377.305 258.083 384.424 281.959 388.205C295.624 390.369 309.126 390.465 322.538 389.279C322.45 389.538 322.363 389.796 322.275 390.055C308.921 391.215 295.465 391.103 281.842 388.946C257.909 385.155 234.483 378.019 211.09 370.893C206.723 369.563 202.358 368.233 197.991 366.926C170.212 358.608 142.34 351.182 113.506 350.209C81.2629 349.119 48.4613 352.844 15.6716 357.565C6.94864 358.82 -1.77444 360.147 -10.4858 361.471L-10.4869 361.471C-34.5109 365.124 -58.4458 368.763 -82.0423 370.871C-116.893 373.979 -151.938 372.637 -186.98 370.451C-195.228 369.936 -203.474 369.375 -211.718 368.814C-222.541 368.078 -233.358 367.342 -244.167 366.712Z" fill="black"/>
<path d="M-240.233 380.899C-240.313 380.637 -240.393 380.375 -240.472 380.112C-229.255 381.569 -217.995 383.238 -206.721 384.909C-197.799 386.232 -188.869 387.556 -179.944 388.777C-144.165 393.672 -108.45 396.918 -73.6099 391.85C-50.1644 388.433 -26.6593 382.504 -3.06923 376.555L-3.06758 376.554C3.16138 374.983 9.3963 373.411 15.6376 371.882C45.5029 364.57 75.5012 358.276 105.611 358.064C135.987 357.852 166.309 363.944 196.506 371.082C202.731 372.553 208.952 374.069 215.166 375.584C239.104 381.418 262.955 387.231 286.719 390.409C298.425 391.978 310.043 392.372 321.609 391.987C321.521 392.24 321.432 392.493 321.343 392.746C309.838 393.116 298.274 392.714 286.619 391.152C262.812 387.969 238.912 382.143 214.969 376.308L214.967 376.307C208.758 374.794 202.547 373.28 196.333 371.811C166.144 364.676 135.896 358.602 105.616 358.814C75.5999 359.026 45.6737 365.3 15.816 372.611C9.58875 374.136 3.36392 375.706 -2.85811 377.275L-2.86484 377.277C-26.46 383.228 -50.014 389.169 -73.5017 392.592C-108.452 397.676 -144.254 394.416 -180.045 389.52C-188.99 388.296 -197.933 386.97 -206.862 385.647C-218.015 383.993 -229.147 382.343 -240.233 380.899Z" fill="black"/>
<path d="M-235.576 394.917C-235.675 394.643 -235.773 394.369 -235.871 394.095C-224.551 396.322 -213.117 398.857 -201.635 401.402L-201.633 401.402C-191.079 403.742 -180.484 406.091 -169.901 408.218C-132.116 415.811 -94.4554 420.585 -59.1255 412.139C-39.3335 407.408 -19.3716 399.659 0.757492 391.844C6.61359 389.571 12.4842 387.292 18.3686 385.081C44.4592 375.274 70.8106 366.798 97.3165 366.075C127.844 365.237 159.486 369.89 191.059 375.661C199.7 377.24 208.334 378.903 216.94 380.56L216.947 380.562C239.794 384.962 262.436 389.322 284.446 391.976C296.629 393.445 308.749 394.088 320.833 394.184C320.744 394.434 320.654 394.683 320.565 394.932C308.543 394.829 296.483 394.183 284.356 392.721C262.319 390.063 239.639 385.696 216.783 381.294L216.78 381.294L216.778 381.293C208.177 379.637 199.55 377.975 190.924 376.398C159.361 370.629 127.783 365.989 97.3371 366.825C70.9654 367.544 44.7147 375.98 18.6324 385.783C12.7668 387.987 6.90891 390.261 1.06036 392.532C-19.0773 400.35 -39.1046 408.124 -58.9511 412.868C-94.4496 421.355 -132.248 416.55 -170.049 408.953C-180.667 406.819 -191.282 404.466 -201.849 402.123L-201.85 402.123C-213.168 399.614 -224.43 397.118 -235.576 394.917Z" fill="black"/>
<path d="M-230.231 408.653C-230.352 408.365 -230.472 408.077 -230.591 407.789C-218.956 410.722 -207.178 414.052 -195.339 417.399L-195.338 417.4C-184.778 420.386 -174.17 423.386 -163.574 426.128C-125.197 436.061 -86.946 442.633 -51.442 433.144C-31.0544 427.695 -11.7158 417.34 7.70358 406.943C11.1971 405.072 14.6933 403.2 18.1986 401.355C41.1659 389.266 64.5143 378.342 89.9907 376.694C121.83 374.625 155.589 377.835 189.339 382.259C200.207 383.684 211.071 385.235 221.871 386.776L221.872 386.776C244.626 390.023 267.093 393.229 288.694 395.133C299.051 396.044 309.407 396.684 319.763 397.129C319.672 397.376 319.58 397.622 319.489 397.868C309.2 397.422 298.914 396.785 288.628 395.88C267.007 393.974 244.505 390.763 221.74 387.515C210.944 385.974 200.09 384.425 189.242 383.003C155.501 378.58 121.802 375.378 90.0393 377.442C64.7362 379.079 41.5121 389.931 18.5479 402.019C15.0529 403.858 11.5636 405.727 8.07388 407.595C-11.3423 417.992 -30.7693 428.395 -51.2483 433.868C-86.9543 443.411 -125.37 436.79 -163.762 426.854C-174.398 424.101 -185.031 421.095 -195.605 418.105C-207.241 414.814 -218.808 411.544 -230.231 408.653Z" fill="black"/>
<path d="M-223.826 422.89C-223.974 422.583 -224.122 422.275 -224.27 421.967C-221.667 422.776 -219.052 423.609 -216.427 424.46C-207.949 427.208 -199.375 430.142 -190.744 433.096L-190.741 433.097C-179.803 436.839 -168.773 440.614 -157.732 444.081C-118.248 456.481 -78.943 464.846 -44.4475 453.474C-25.191 447.125 -7.99457 435.318 9.25784 423.473C12.1614 421.479 15.0665 419.484 17.9833 417.514C38.2067 403.856 58.976 391.402 83.5565 388.965C116.611 385.698 152.222 387.37 187.888 390.319C201.186 391.418 214.487 392.695 227.668 393.96L227.669 393.96L227.671 393.96C249.857 396.089 271.7 398.186 292.603 399.349C301.187 399.828 309.765 400.35 318.34 400.899C318.246 401.144 318.151 401.388 318.056 401.632C309.559 401.089 301.06 400.572 292.561 400.098C271.645 398.934 249.772 396.835 227.572 394.704L227.568 394.704C214.392 393.439 201.1 392.164 187.826 391.066C152.171 388.118 116.615 386.452 83.6303 389.712C59.2541 392.128 38.622 404.481 18.403 418.136C15.4962 420.099 12.5976 422.09 9.69757 424.081C-7.54929 435.924 -24.8458 447.8 -44.2127 454.186C-78.9562 465.64 -118.469 457.198 -157.957 444.797C-168.993 441.331 -180.052 437.547 -191.009 433.798L-191.012 433.797C-199.645 430.843 -208.214 427.911 -216.658 425.173C-219.057 424.396 -221.447 423.633 -223.826 422.89Z" fill="black"/>
<path d="M-216.245 437.548C-216.429 437.216 -216.612 436.883 -216.794 436.55C-215.474 437.029 -214.15 437.514 -212.822 438.005C-204.18 441.198 -195.396 444.619 -186.529 448.073C-175.387 452.413 -164.115 456.803 -152.83 460.856C-112.319 475.404 -72.0202 485.449 -38.4442 472.723C-20.0151 465.738 -4.78394 453.038 10.4713 440.318L10.4734 440.316C12.9287 438.269 15.3847 436.221 17.8547 434.196C35.6483 419.612 54.1535 406.254 78.3123 403.251C127.541 397.128 182.561 399.877 235.374 402.516C256.083 403.551 276.454 404.569 296.003 405.029C302.815 405.188 309.591 405.507 316.34 405.951C316.241 406.195 316.141 406.439 316.041 406.683C309.385 406.248 302.702 405.936 295.985 405.778C276.391 405.318 255.993 404.299 235.268 403.263L235.267 403.263C182.478 400.625 127.565 397.881 78.4049 403.995C54.4759 406.969 36.1151 420.199 18.3302 434.776C15.8688 436.794 13.4181 438.837 10.9651 440.883C-4.2829 453.599 -19.6219 466.391 -38.1783 473.425C-72.0397 486.258 -112.584 476.106 -153.084 461.561C-164.36 457.512 -175.662 453.11 -186.821 448.764L-186.824 448.763L-186.827 448.762C-195.697 445.307 -204.477 441.888 -213.082 438.708C-214.139 438.318 -215.193 437.931 -216.245 437.548Z" fill="black"/>
<path d="M-210.139 448.066C-210.337 447.74 -210.535 447.414 -210.732 447.087C-191.177 453.382 -172.13 460.91 -152.504 468.667C-147.923 470.478 -143.31 472.301 -138.652 474.123C-136.044 475.145 -133.398 476.199 -130.719 477.266C-116.793 482.813 -101.977 488.715 -86.9588 492.281C-69.0586 496.531 -50.9194 497.45 -33.7255 490.507C-15.7411 483.242 -2.08667 470.3 11.5501 457.374C13.6646 455.37 15.7788 453.366 17.9086 451.383C33.7532 436.636 50.4426 423.116 74.5357 419.846C129.532 412.361 190.276 412.492 248.349 412.617H248.352C265.46 412.654 282.337 412.69 298.767 412.531C303.709 412.483 308.604 412.576 313.458 412.789C313.351 413.034 313.243 413.28 313.135 413.525C308.389 413.322 303.604 413.234 298.774 413.281C282.322 413.44 265.431 413.404 248.312 413.367C190.248 413.242 129.576 413.112 74.6368 420.589C50.7905 423.826 34.2485 437.2 18.4196 451.932C16.2985 453.907 14.1899 455.906 12.0779 457.908C-1.55106 470.829 -15.3179 483.88 -33.4445 491.203C-50.8382 498.226 -69.1517 497.28 -87.132 493.011C-102.209 489.431 -117.085 483.505 -131.01 477.958L-131.012 477.957C-133.687 476.892 -136.327 475.84 -138.926 474.822C-143.586 472.998 -148.199 471.175 -152.779 469.365C-172.134 461.715 -190.903 454.297 -210.139 448.066Z" fill="black"/>
<path d="M-200.651 462.675C-200.895 462.323 -201.138 461.97 -201.38 461.617C-184.635 467.601 -168.214 474.509 -151.305 481.623L-151.3 481.625C-146.353 483.706 -141.365 485.804 -136.314 487.902C-134.099 488.822 -131.84 489.771 -129.542 490.737C-115.588 496.6 -100.202 503.065 -84.5334 507.095C-66.2875 511.788 -47.7112 513.164 -30.6277 506.465C-12.6725 499.426 -0.0107117 486.995 12.5882 474.626L12.5891 474.625C14.4579 472.791 16.3253 470.957 18.2085 469.143C32.7731 455.111 48.2495 442.264 72.4821 439.111C146.507 429.508 225.849 425.587 300.64 422.259C303.525 422.132 306.384 422.067 309.219 422.059C309.099 422.31 308.979 422.56 308.859 422.81C306.153 422.823 303.425 422.887 300.673 423.009C225.88 426.336 146.568 430.256 72.5787 439.855C48.5963 442.975 33.268 455.676 18.7288 469.683C16.8542 471.489 14.9923 473.317 13.1263 475.15L13.1235 475.153C0.531921 487.517 -12.2457 500.065 -30.3539 507.163C-47.6462 513.944 -66.4021 512.533 -84.7202 507.821C-100.447 503.776 -115.889 497.287 -129.84 491.425C-132.136 490.46 -134.392 489.512 -136.602 488.595C-141.657 486.495 -146.648 484.396 -151.595 482.315L-151.597 482.314C-168.179 475.338 -184.273 468.568 -200.651 462.675Z" fill="black"/>
<path d="M-188.83 478.589C-189.137 478.203 -189.443 477.817 -189.749 477.429C-177.118 482.304 -164.568 487.627 -151.73 493.072C-146.596 495.25 -141.415 497.448 -136.165 499.644C-134.217 500.458 -132.233 501.296 -130.215 502.148C-116.1 508.106 -100.352 514.753 -84.2881 518.955C-65.9287 523.757 -47.2067 525.35 -30.0896 519.093C-12.0446 512.499 0.532135 500.787 13.0306 489.148C14.8136 487.487 16.595 485.828 18.3904 484.186C32.761 471.041 48.0029 458.994 72.0819 456.022C147.196 446.76 224.941 438.727 300.589 433.704C301.535 433.641 302.478 433.585 303.418 433.537C303.28 433.794 303.142 434.052 303.004 434.31C302.218 434.352 301.43 434.399 300.639 434.452C225.009 439.474 147.278 447.506 72.1737 456.767C48.3344 459.708 33.2379 471.621 18.8966 484.739C17.1096 486.374 15.3337 488.028 13.5538 489.686L13.5494 489.69C1.05798 501.325 -11.6346 513.148 -29.8322 519.797C-47.1545 526.129 -66.0508 524.5 -84.4779 519.681C-100.599 515.464 -116.4 508.794 -130.511 502.837C-132.528 501.985 -134.51 501.148 -136.454 500.335C-141.709 498.138 -146.892 495.939 -152.027 493.761C-164.463 488.487 -176.618 483.331 -188.83 478.589Z" fill="black"/>
<path d="M-173.806 496.032C-174.201 495.608 -174.594 495.183 -174.986 494.757C-167.5 497.717 -159.99 500.778 -152.389 503.876C-147.624 505.818 -142.824 507.774 -137.971 509.73C-135.77 510.616 -133.527 511.53 -131.248 512.458C-117.221 518.173 -101.809 524.452 -86.1162 528.431C-67.8761 533.056 -49.3047 534.56 -32.142 528.481C-14.1448 522.117 -1.10464 510.844 11.8782 499.622L11.8799 499.62C13.6679 498.075 15.4547 496.53 17.2533 494.999C32.101 482.363 47.7209 470.704 71.2511 467.531C145.201 457.57 221.419 449.092 295.9 442.987C296.688 442.923 297.473 442.863 298.257 442.809C298.105 443.071 297.953 443.332 297.8 443.593C297.188 443.637 296.575 443.684 295.961 443.735C221.494 449.838 145.289 458.314 71.3512 468.275C48.0439 471.417 32.5625 482.955 17.7394 495.57C15.946 497.097 14.1617 498.639 12.3742 500.185C-0.601013 511.403 -13.752 522.773 -31.8918 529.188C-49.253 535.337 -67.9926 533.8 -86.3006 529.158C-102.048 525.165 -117.514 518.864 -131.538 513.15C-133.815 512.223 -136.055 511.31 -138.251 510.426C-143.107 508.469 -147.908 506.512 -152.672 504.571C-159.782 501.673 -166.808 498.81 -173.806 496.032Z" fill="black"/>
<path d="M-142.907 524.813C-143.514 524.324 -144.119 523.832 -144.722 523.338C-106.458 537.662 -68.5418 547.282 -35.7372 536.447C-17.6486 530.476 -3.90427 519.89 9.81 509.326C11.5696 507.971 13.3292 506.615 15.097 505.27C30.6306 493.453 46.8069 482.445 69.7421 479.082C141.844 468.528 215.094 458.375 287.582 450.491C289.733 450.257 291.871 450.068 293.996 449.92C293.834 450.182 293.671 450.444 293.508 450.706C291.57 450.847 289.622 451.023 287.663 451.236C215.188 459.119 141.949 469.27 69.8507 479.824C47.1141 483.158 31.0657 494.065 15.5511 505.867C13.7871 507.209 12.0297 508.563 10.27 509.919C-3.43579 520.477 -17.284 531.146 -35.5021 537.159C-67.9724 547.884 -105.331 538.714 -142.907 524.813Z" fill="black"/>
<path d="M-121.295 540.691C-121.945 540.258 -122.593 539.821 -123.24 539.383C-94.4133 547.359 -66.2859 550.81 -40.6436 543.162C-22.3145 537.701 -7.61093 527.994 7.09647 518.285C8.7478 517.195 10.3997 516.104 12.0563 515.02C28.4553 504.287 45.3448 494.154 67.6393 490.591C93.3799 486.484 119.121 482.173 144.872 477.861L144.874 477.861C188.737 470.515 232.629 463.165 276.591 456.808C281.259 456.132 285.888 455.691 290.485 455.458C290.316 455.718 290.147 455.977 289.978 456.236C285.583 456.474 281.158 456.904 276.698 457.55C232.742 463.906 188.868 471.254 145.011 478.598L145.001 478.6C119.251 482.912 93.5077 487.223 67.7574 491.332C45.6305 494.868 28.8542 504.922 12.467 515.648C10.817 516.727 9.1709 517.814 7.5235 518.902L7.50656 518.913C-7.1908 528.617 -21.9875 538.386 -40.4294 543.88C-65.6167 551.393 -93.1443 548.267 -121.295 540.691Z" fill="black"/>
<path d="M-103.954 551.416C-104.555 551.072 -105.155 550.726 -105.754 550.378C-85.3795 553.623 -65.4615 553.905 -46.5013 548.986C-27.4915 544.05 -11.116 535.306 5.33716 526.521L5.33817 526.521C6.39456 525.956 7.45126 525.392 8.509 524.829C26.0305 515.496 43.8286 506.395 65.1028 502.144C83.4463 498.474 101.79 494.765 120.139 491.055L120.144 491.054C168.016 481.375 215.915 471.69 263.902 462.681C271.663 461.224 279.426 460.518 287.188 460.423C287.017 460.676 286.845 460.928 286.673 461.181C279.126 461.3 271.581 462.003 264.04 463.418C216.058 472.426 168.166 482.11 120.296 491.789L120.289 491.79L120.254 491.797C101.917 495.505 83.584 499.212 65.25 502.88C44.0949 507.106 26.3835 516.158 8.8616 525.491C7.7988 526.057 6.73666 526.624 5.67447 527.191C-10.764 535.969 -27.2133 544.753 -46.3128 549.712C-64.7971 554.507 -84.169 554.388 -103.954 551.416Z" fill="black"/>
<path d="M-91.9737 557.902C-92.5097 557.628 -93.0447 557.352 -93.5788 557.075C-79.8533 557.794 -66.3115 557.024 -53.0568 554.133C-33.2722 549.82 -15.1928 542.068 2.98764 534.272L4.21683 533.745C22.8027 525.778 41.5341 517.847 62.2831 513.631C102.292 505.506 141.984 495.544 181.66 485.587L181.666 485.585C204.594 479.831 227.516 474.078 250.491 468.682C261.249 466.152 272.293 465.3 283.523 465.701C283.349 465.945 283.175 466.189 283 466.433C272.001 466.076 261.19 466.936 250.662 469.412C227.71 474.803 204.797 480.554 181.871 486.307L181.87 486.308C142.18 496.268 102.454 506.238 62.4324 514.366C41.7695 518.564 23.1051 526.464 4.51233 534.435L3.25836 534.972C-14.9043 542.76 -33.0414 550.537 -52.897 554.865C-65.6947 557.657 -78.7523 558.481 -91.9737 557.902Z" fill="black"/>
<path d="M-83.6524 561.998C-84.148 561.764 -84.6428 561.528 -85.1368 561.291C-78.5218 561.123 -71.922 560.62 -65.3409 559.722C-44.1799 556.835 -23.8519 549.918 -3.4722 542.712C-2.11807 542.233 -0.763702 541.753 0.591156 541.272C19.6158 534.528 38.7361 527.75 58.6221 524.015C89.9212 518.138 120.504 508.703 151.089 499.178L153.299 498.49C183.141 489.195 213.001 479.894 243.51 473.829C254.812 471.584 266.634 471.199 278.787 472.176C278.609 472.413 278.431 472.649 278.252 472.886C266.326 471.962 254.735 472.363 243.656 474.565C213.186 480.622 183.359 489.912 153.506 499.211L151.312 499.895C120.733 509.418 90.1091 518.866 58.7605 524.752C38.9341 528.476 19.866 535.235 0.829315 541.984C-0.52124 542.462 -1.87164 542.941 -3.22214 543.419C-23.5974 550.624 -43.9926 557.567 -65.2396 560.466C-71.3631 561.301 -77.5017 561.795 -83.6524 561.998Z" fill="black"/>
<path d="M-76.2552 565.371C-76.7331 565.161 -77.2102 564.95 -77.6867 564.738C-75.9482 564.599 -74.2099 564.438 -72.4716 564.256C-51.2035 562.024 -29.8329 556.806 -8.48492 551.132C-4.55157 550.087 -0.618713 549.026 3.31247 547.965L3.3512 547.955L3.35358 547.954C20.7363 543.264 38.0878 538.583 55.3146 535.29C85.2622 529.563 114.368 519.69 143.442 509.535C145.496 508.818 147.55 508.099 149.605 507.38C176.615 497.926 203.647 488.465 231.313 482.118C244.857 479.005 258.23 479.321 271.456 481.526C271.273 481.75 271.09 481.973 270.907 482.196C257.89 480.066 244.762 479.797 231.48 482.849C203.858 489.186 176.865 498.634 149.847 508.09L149.813 508.102C147.772 508.816 145.731 509.53 143.689 510.243C114.619 520.397 85.4641 530.288 55.4555 536.026C38.2595 539.314 20.9419 543.986 3.56119 548.675L3.5589 548.676L3.53308 548.683C-0.40567 549.745 -4.3477 550.809 -8.29227 551.857C-29.6438 557.532 -51.0627 562.763 -72.3933 565.002C-73.6805 565.137 -74.9679 565.26 -76.2552 565.371Z" fill="black"/>
<path d="M-68.2919 568.731C-68.7852 568.531 -69.2779 568.33 -69.7699 568.128C-40.39 565.177 -9.899 559.021 19.7207 553.04C30.6713 550.829 41.5033 548.642 52.1155 546.65C79.5543 541.498 106.248 530.899 132.967 520.29L134.392 519.725C135.131 519.431 135.869 519.138 136.608 518.845C164.531 507.771 192.519 496.956 221.38 492.668C234.553 490.71 248.293 490.705 262.385 492.112C262.177 492.343 261.969 492.574 261.761 492.804C247.915 491.457 234.425 491.488 221.491 493.409C192.727 497.683 164.817 508.464 136.885 519.542C135.663 520.027 134.442 520.512 133.22 520.997C106.52 531.598 79.7655 542.221 52.2539 547.387C41.6658 549.374 30.8503 551.558 19.9099 553.767L19.9055 553.768C-9.25253 559.656 -39.298 565.722 -68.2919 568.731Z" fill="black"/>
<path d="M-57.0961 572.998C-57.66 572.796 -58.2232 572.593 -58.7856 572.387C-22.7232 569.386 14.8043 564.148 49.3014 558.114C76.6707 553.334 103.213 542.933 129.781 532.521L131.942 531.674C159.217 520.99 186.542 510.456 214.767 506.21C226.164 504.496 238.024 504.164 250.198 504.893C249.959 505.129 249.719 505.366 249.478 505.602C237.588 504.928 226.009 505.278 214.879 506.952C186.75 511.183 159.502 521.684 132.215 532.373L130.025 533.231L130.024 533.231C103.479 543.634 76.8749 554.06 49.4305 558.853C15.4366 564.799 -21.505 569.973 -57.0961 572.998Z" fill="black"/>
<path d="M-41.3082 578.149C-42.0641 577.926 -42.8188 577.7 -43.5721 577.471C-13.4461 576.545 16.7194 574.244 46.9794 569.727C74.5575 565.606 101.42 556.192 128.308 546.769L128.309 546.769L129.658 546.296C156.984 536.721 184.348 527.229 212.463 523.419C218.677 522.578 225.01 522.091 231.44 521.913C231.128 522.173 230.815 522.432 230.501 522.691C224.426 522.889 218.441 523.367 212.563 524.162C184.537 527.96 157.243 537.425 129.906 547.004L128.527 547.487C101.661 556.902 74.74 566.337 47.0902 570.469C17.5468 574.879 -11.9034 577.178 -41.3082 578.149Z" fill="black"/>
<path d="M1.53351 587.385C0.298599 587.214 -0.933868 587.035 -2.16385 586.848C14.0329 585.94 30.1833 584.614 46.2714 582.759C74.281 579.527 101.96 571.593 129.684 563.646L129.944 563.571C131.098 563.24 132.252 562.909 133.406 562.579C154.347 556.583 175.322 550.7 196.468 546.968C195.875 547.33 195.28 547.691 194.684 548.05C174.236 551.785 153.927 557.484 133.613 563.3C132.365 563.657 131.118 564.015 129.87 564.372C102.163 572.315 74.4296 580.265 46.3573 583.504C31.4643 585.222 16.5186 586.485 1.53351 587.385Z" fill="black"/>
</svg>
