<svg width="462" height="316" viewBox="0 0 462 316" fill="none" xmlns="http://www.w3.org/2000/svg">
<path d="M103.781 5.72792C107.74 5.06511 111.695 4.39069 115.65 3.71632C119.01 3.14329 122.371 2.5703 125.733 2.00451C127.156 1.765 128.579 1.52678 130.003 1.29041C134.223 0.770662 138.47 0.339879 142.744 0C137.107 0.871669 131.481 1.79756 125.857 2.74411C122.499 3.3093 119.141 3.88188 115.782 4.45466L115.78 4.45496C108.262 5.73699 100.737 7.02003 93.1889 8.2234C96.695 7.32845 100.226 6.4962 103.781 5.72792Z" fill="black"/>
<path d="M38.343 28.2191C39.0548 27.876 39.7682 27.5357 40.4831 27.1981C44.6262 26.6896 48.7735 26.2085 52.9259 25.7593C74.4477 23.4267 95.3337 18.9572 116.205 14.4909L116.211 14.4897C119.587 13.7671 122.964 13.0446 126.343 12.3312C150.598 7.20993 174.961 2.56219 200.355 1.76632C202.129 1.71023 203.902 1.66614 205.674 1.63336C207.305 1.84934 208.931 2.07863 210.553 2.3211C207.165 2.34529 203.774 2.40861 200.378 2.51594C175.056 3.30957 150.749 7.94457 126.497 13.065C123.121 13.778 119.745 14.5003 116.368 15.2231C95.4985 19.6892 74.5703 24.1678 53.0067 26.5049C48.1124 27.0344 43.2248 27.6082 38.343 28.2191Z" fill="black"/>
<path d="M6.86777 45.8423C7.35344 45.5299 7.84009 45.219 8.3277 44.9094C22.5993 43.1726 36.8005 41.3701 50.8826 39.5151C73.5031 36.5373 95.1784 30.6255 116.833 24.7195L116.834 24.7192C120.348 23.7609 123.861 22.8028 127.377 21.8574C152.555 15.088 177.896 8.97372 204.785 8.16695C218.582 7.75318 232.207 8.46655 245.736 9.80352C247.121 10.1881 248.501 10.5824 249.878 10.9865C234.987 9.37564 220 8.461 204.807 8.91662C178.013 9.72056 152.744 15.8137 127.572 22.5816C124.06 23.5259 120.549 24.4833 117.037 25.4413C95.3853 31.3468 73.6555 37.2737 50.9805 40.2587C36.3862 42.1812 21.664 44.0472 6.86777 45.8423Z" fill="black"/>
<path d="M-13.6901 60.3338C-13.3344 60.0598 -12.978 59.7865 -12.621 59.514C7.98178 58.1834 28.4381 56.3616 48.5286 53.6299C73.3062 50.2592 96.6177 42.2185 119.94 34.1742L119.944 34.1729C122.9 33.1532 125.856 32.1335 128.816 31.1233C155.11 22.1473 181.644 13.9223 210.445 13.1895C234.91 12.5732 258.342 16.8849 281.543 22.2912C282.859 22.8479 284.17 23.4138 285.476 23.9889C260.945 18.1441 236.274 13.2891 210.464 13.9393C181.788 14.6689 155.349 22.8582 129.058 31.833C126.099 32.843 123.142 33.8629 120.185 34.8832C96.8706 42.9252 73.4858 50.9917 48.6297 54.373C28.1609 57.1562 7.30815 58.9959 -13.6901 60.3338Z" fill="black"/>
<path d="M-29.4984 73.4076C-29.2211 73.1617 -28.9434 72.9163 -28.6652 72.6714C-3.38544 73.0811 21.6702 72.238 45.8662 68.0648C71.5096 63.6502 95.4881 53.7138 119.471 43.7755L119.475 43.7739C123.133 42.258 126.792 40.742 130.456 39.2456C158.127 27.9457 186.127 17.7687 216.912 17.2588C245.097 16.7913 271.086 24.6906 296.808 33.6143C300.417 34.8663 304.02 36.1382 307.623 37.4102C311.413 38.7483 315.203 40.0863 319 41.401C319.993 42.0001 320.981 42.605 321.966 43.2154C317.086 41.5466 312.223 39.8297 307.363 38.1141L307.361 38.1135C303.761 36.8424 300.163 35.5721 296.562 34.3229C270.848 25.4017 244.966 17.5436 216.925 18.0087C186.291 18.5161 158.405 28.6423 130.739 39.9399C127.08 41.4342 123.425 42.949 119.768 44.4647L119.766 44.4653C95.7891 54.4018 71.726 64.374 45.9936 68.8039C21.4722 73.0333 -3.91707 73.8493 -29.4984 73.4076Z" fill="black"/>
<path d="M-41.4694 84.63C-41.241 84.4038 -41.0123 84.1779 -40.7832 83.9524C-12.4053 87.1272 15.8143 88.3787 43.0554 82.6696C69.4601 77.1462 94.2314 65.2067 119.032 53.253C123.441 51.1281 127.851 49.0024 132.271 46.9125C161.531 33.077 191.225 20.8089 223.953 20.6921C252.622 20.5858 278.087 30.8604 303.142 42.4553C306.823 44.1587 310.495 45.8903 314.166 47.6218C326.397 53.3905 338.629 59.1592 351.198 63.882C351.809 64.3716 352.418 64.8635 353.024 65.3578C339.673 60.4822 326.734 54.3797 313.832 48.2938C310.164 46.5637 306.499 44.8348 302.827 43.1359C277.781 31.5452 252.446 21.3364 223.956 21.4421C191.408 21.5583 161.845 33.7581 132.591 47.5906C128.183 49.6751 123.781 51.797 119.376 53.9199L119.374 53.921C94.577 65.8739 69.7113 77.8599 43.2091 83.4037C15.6592 89.1775 -12.8626 87.8576 -41.4694 84.63Z" fill="black"/>
<path d="M-51.0599 94.5836C-50.8636 94.3702 -50.667 94.1571 -50.4701 93.9442C-20.1491 100.521 10.1406 104.73 40.1823 97.3806C67.5494 90.6852 93.3384 76.7677 119.198 62.8123C124.183 60.1218 129.171 57.4299 134.174 54.788C165.098 38.4571 196.557 24.0516 231.223 23.9135C260.305 23.7965 285.343 36.5361 309.786 50.982C313.635 53.2569 317.469 55.5738 321.302 57.8898C338.94 68.5486 356.552 79.1906 375.493 85.6549C375.887 86.049 376.28 86.4443 376.671 86.8406C357.094 80.3977 338.963 69.4406 320.891 58.5187L320.89 58.5178C317.063 56.2051 313.239 53.894 309.404 51.6276C284.97 37.1869 260.086 24.5474 231.226 24.6635C196.759 24.8008 165.443 39.1231 134.524 55.4512C129.536 58.0854 124.558 60.7722 119.579 63.4595L119.577 63.4606C93.7187 77.4163 67.8298 91.3887 40.3605 98.1092C10.0409 105.527 -20.4954 101.229 -50.9426 94.6091C-50.9817 94.6006 -51.0208 94.5921 -51.0599 94.5836Z" fill="black"/>
<path d="M-59.0574 103.643C-58.8829 103.437 -58.7081 103.231 -58.533 103.025C-56.6583 103.641 -54.7836 104.248 -52.9088 104.842C-23.3485 114.215 6.30806 120.592 37.3103 112.028C65.4462 104.252 92.246 88.3902 119.185 72.446C124.787 69.1301 130.396 65.8106 136.024 62.5596C168.682 43.694 201.974 27.1453 238.367 27.1984C267.914 27.241 292.542 42.4314 316.371 59.6584C320.287 62.489 324.18 65.3741 328.07 68.2568L328.073 68.2584C347.89 82.9432 367.624 97.5659 389.759 104.614C391.13 105.051 392.506 105.456 393.887 105.83C394.161 106.161 394.435 106.492 394.709 106.824C392.977 106.374 391.25 105.876 389.531 105.329C367.266 98.2391 347.413 83.5259 327.597 68.8405C323.713 65.9622 319.831 63.0848 315.932 60.2662C292.108 43.0432 267.652 27.9906 238.366 27.9484C202.192 27.8956 169.054 44.3451 136.399 63.209C130.788 66.4502 125.191 69.7629 119.596 73.0748C92.6563 89.0207 65.7518 104.946 37.5101 112.751C6.28853 121.375 -23.5448 114.94 -53.1355 105.557C-55.1106 104.931 -57.0844 104.291 -59.0574 103.643Z" fill="black"/>
<path d="M-65.9502 112.087C-65.7906 111.884 -65.6307 111.681 -65.4706 111.479C-62.0082 113.014 -58.5477 114.522 -55.0838 115.975C-26.4957 127.973 2.36665 136.332 34.5885 126.548C63.3819 117.805 91.1617 100.127 119.167 82.3063L119.168 82.3052C125.352 78.3703 131.546 74.4284 137.765 70.5741C172.114 49.2855 207.192 30.684 245.109 30.971C275.129 31.1946 299.382 48.7467 322.629 68.6156C326.552 71.969 330.445 75.3872 334.334 78.8007C341.98 85.5138 349.606 92.2091 357.401 98.3592C369.154 107.631 381.256 115.634 394.312 120.537C398.865 122.247 403.477 123.528 408.142 124.434C408.348 124.727 408.555 125.021 408.76 125.315C403.798 124.395 398.89 123.058 394.049 121.239C380.888 116.297 368.716 108.241 356.937 98.948C349.126 92.7861 341.473 86.0671 333.817 79.3455L333.812 79.3414C329.93 75.9327 326.046 72.5234 322.141 69.1858C298.895 49.317 274.827 31.9424 245.103 31.7209C207.423 31.4357 172.51 49.9226 138.16 71.2116C131.961 75.0534 125.781 78.9869 119.606 82.9166L119.604 82.9178C91.5962 100.742 63.7079 118.49 34.8064 127.266C2.32475 137.129 -26.7451 128.681 -55.374 116.667C-58.9049 115.185 -62.4283 113.649 -65.9502 112.087Z" fill="black"/>
<path d="M-71.9759 120.023C-71.8269 119.82 -71.6776 119.617 -71.5281 119.414C-66.7354 122.078 -61.9544 124.703 -57.1564 127.202C-29.5615 141.577 -1.49052 151.733 32.1232 140.814C61.532 131.257 90.2325 111.937 119.243 92.4089L119.247 92.4066C125.913 87.9192 132.595 83.4208 139.307 79.0273C175.188 55.5385 211.881 35.0596 251.13 35.5911C281.664 36.0066 305.555 55.713 328.245 77.9633C332.129 81.7721 335.977 85.6541 339.817 89.5289L339.819 89.5312C347.213 96.9914 354.581 104.425 362.131 111.257C373.598 121.633 385.45 130.586 398.375 136.078C405.247 138.995 412.266 140.774 419.4 141.634C419.564 141.904 419.727 142.175 419.89 142.446C412.494 141.607 405.211 139.794 398.082 136.768C385.045 131.229 373.12 122.212 361.628 111.813C354.063 104.968 346.668 97.5071 339.264 90.0367C335.427 86.1653 331.588 82.2913 327.72 78.4988C305.024 56.2429 281.326 36.7521 251.12 36.341C212.123 35.8129 175.603 56.1631 139.718 79.6548C133.027 84.0345 126.359 88.5237 119.701 93.0058C90.6859 112.539 61.8739 131.935 32.3549 141.527C-1.55357 152.542 -29.8572 142.268 -57.5029 127.867C-62.3366 125.35 -67.1528 122.704 -71.9759 120.023Z" fill="black"/>
<path d="M-77.3518 127.602C-77.2103 127.396 -77.0686 127.19 -76.9267 126.984C-76.7383 127.108 -76.5499 127.232 -76.3616 127.355L-76.3603 127.356C-70.5753 131.156 -64.83 134.929 -59.0484 138.485C-32.3873 154.884 -5.05183 166.605 29.9356 154.718C58.2784 145.097 85.8545 127.763 112 111.329C118.749 107.086 125.403 102.903 131.95 98.929C138.313 95.0632 145.168 90.5905 152.384 85.8825C164.385 78.0524 177.383 69.5715 190.772 62.1483C212.225 50.2542 234.795 41.004 256.112 41.398C287.263 41.9735 310.78 63.5193 332.922 87.7828C336.71 91.9336 340.457 96.1629 344.195 100.383L344.197 100.385C351.403 108.519 358.579 116.62 365.964 124.061C377.175 135.357 388.829 145.091 401.713 151.045C410.394 155.056 419.3 157.046 428.364 157.513C428.498 157.77 428.633 158.027 428.767 158.284C419.467 157.855 410.319 155.847 401.399 151.726C388.395 145.716 376.667 135.91 365.432 124.589C358.033 117.134 350.831 109.004 343.615 100.859C339.879 96.6425 336.14 92.4217 332.368 88.2883C310.216 64.0136 286.896 42.7168 256.098 42.1479C234.987 41.7577 212.563 50.9247 191.136 62.8042C177.761 70.2199 164.819 78.6646 152.841 86.4805C145.618 91.1935 138.746 95.6778 132.34 99.57C125.816 103.53 119.178 107.703 112.44 111.939C86.2874 128.378 58.6121 145.775 30.1769 155.428C-5.13428 167.426 -32.7216 155.559 -59.4414 139.124C-65.2332 135.561 -70.9888 131.781 -76.7732 127.982C-76.9659 127.856 -77.159 127.729 -77.3518 127.602Z" fill="black"/>
<path d="M-82.2211 134.932C-82.0857 134.721 -81.9499 134.511 -81.8139 134.3C-81.1737 134.771 -80.5345 135.242 -79.8961 135.712C-78.7299 136.573 -77.5664 137.433 -76.4049 138.293C-71.106 142.212 -65.847 146.103 -60.5488 149.787C-34.7193 167.751 -8.05263 180.759 28.1956 168.198C57.1938 158.146 85.5107 139.822 112.219 122.539L112.222 122.537C119.253 117.987 126.173 113.51 132.964 109.274C139.461 105.218 146.482 100.498 153.899 95.5126L153.9 95.5119C156.262 93.9242 158.664 92.3096 161.101 90.681C171.19 83.9411 181.884 76.9665 192.863 70.6891C214.811 58.1409 237.95 48.3473 259.716 48.8158C291.609 49.498 314.718 72.4505 336.316 98.2406C339.945 102.574 343.531 106.987 347.109 111.391L347.11 111.392C354.197 120.114 361.255 128.801 368.567 136.767C379.564 148.75 391.095 159.058 404.072 165.332C414.325 170.288 424.835 172.254 435.51 172.105C435.623 172.353 435.736 172.601 435.848 172.85C424.962 173.046 414.225 171.073 403.745 166.007C390.643 159.672 379.036 149.284 368.014 137.275C360.688 129.292 353.604 120.574 346.508 111.841C342.933 107.441 339.354 103.037 335.741 98.7221C314.13 72.9168 291.218 50.2399 259.7 49.5657C238.147 49.1017 215.159 58.8061 193.236 71.3402C182.28 77.6041 171.603 84.5668 161.518 91.3046C159.085 92.93 156.686 94.5425 154.326 96.1291L154.325 96.13C146.906 101.117 139.869 105.847 133.361 109.91C126.595 114.13 119.693 118.597 112.673 123.14L112.67 123.141C85.954 140.431 57.5345 158.822 28.4411 168.906C-8.15248 181.587 -35.084 168.411 -60.977 150.403C-66.2851 146.712 -71.5542 142.814 -76.8536 138.894L-76.8691 138.882C-78.0248 138.027 -79.182 137.171 -80.3413 136.316C-80.9672 135.854 -81.5938 135.393 -82.2211 134.932Z" fill="black"/>
<path d="M-86.7366 142.181C-86.6067 141.966 -86.4765 141.75 -86.3461 141.535C-82.8224 144.268 -79.3426 147.045 -75.8823 149.807C-71.0929 153.629 -66.341 157.421 -61.5625 161.026C-48.9906 170.51 -36.1899 178.737 -21.8694 182.989C-7.56003 187.237 8.28812 187.522 26.9667 181.083C56.3058 170.964 85.1273 151.919 112.117 134.083L112.119 134.082C119.392 129.276 126.531 124.558 133.512 120.126C140.1 115.947 147.208 111.085 154.712 105.953L154.721 105.947C157.08 104.333 159.479 102.693 161.912 101.038C172.084 94.1241 182.862 86.9725 193.937 80.5373C216.075 67.6734 239.453 57.6404 261.602 58.1196C294.434 58.8445 317.093 82.6637 338.143 109.376C341.542 113.69 344.9 118.079 348.251 122.461L348.253 122.463C355.295 131.67 362.314 140.846 369.657 149.237C380.491 161.617 391.994 172.242 405.237 178.663C417.005 184.37 428.989 186.105 441.098 185.193C441.195 185.436 441.292 185.68 441.388 185.923C429.09 186.883 416.895 185.15 404.91 179.338C391.534 172.852 379.952 162.14 369.093 149.731C361.733 141.322 354.689 132.112 347.638 122.895C344.29 118.516 340.939 114.136 337.554 109.84C316.492 83.1125 294.03 59.5857 261.586 58.8694C239.653 58.3949 216.427 68.3367 194.313 81.1858C183.262 87.6071 172.502 94.7464 162.334 101.659C159.908 103.308 157.516 104.944 155.161 106.554L155.144 106.566L155.143 106.566C147.637 111.7 140.513 116.572 133.914 120.76C126.961 125.174 119.84 129.88 112.579 134.678L112.578 134.678C85.5797 152.521 56.6498 171.639 27.2112 181.792C8.38805 188.281 -7.62018 188.002 -22.0829 183.708C-36.5344 179.417 -49.4215 171.124 -62.0142 161.624C-66.8286 157.992 -71.5937 154.189 -76.387 150.364C-79.8127 147.63 -83.2536 144.884 -86.7366 142.181Z" fill="black"/>
<path d="M-91.389 150.177C-91.2656 149.957 -91.142 149.737 -91.0181 149.518C-86.0253 153.274 -81.1359 157.162 -76.2848 161.019C-71.4527 164.862 -66.6586 168.674 -61.8385 172.295C-49.2561 181.747 -36.4502 189.936 -22.1536 194.146C-7.86823 198.352 7.9267 198.591 26.4991 192.104C55.8794 181.845 84.7446 163.098 111.903 145.459C119.312 140.646 126.595 135.916 133.726 131.464C140.496 127.235 147.823 122.286 155.563 117.057L155.565 117.055L155.578 117.047C157.766 115.569 159.987 114.068 162.237 112.556C172.453 105.69 183.277 98.574 194.39 92.1537C216.605 79.3195 240.024 69.2343 262.087 69.5218C295.028 69.9589 317.551 93.915 338.433 120.817C341.803 125.159 345.13 129.576 348.451 133.987L348.454 133.99C355.44 143.267 362.404 152.515 369.702 160.963C380.465 173.422 391.916 184.095 405.152 190.489C418.409 196.896 431.846 198.317 445.378 196.613C445.462 196.855 445.547 197.096 445.631 197.337C431.931 199.087 418.292 197.673 404.826 191.164C391.454 184.704 379.923 173.942 369.134 161.453C361.821 152.987 354.831 143.705 347.836 134.416L347.829 134.407C344.512 130.003 341.195 125.598 337.841 121.277C316.946 94.3585 294.623 70.7036 262.077 70.2717C240.227 69.987 216.956 79.9826 194.766 92.8031C183.676 99.2101 172.869 106.315 162.656 113.178C160.405 114.691 158.182 116.193 155.992 117.672L155.99 117.673C148.248 122.904 140.906 127.863 134.124 132.1C127.02 136.535 119.756 141.253 112.358 146.058L112.357 146.059C85.1904 163.704 56.2212 182.52 26.7464 192.812C8.02902 199.349 -7.92645 199.117 -22.3654 194.865C-36.7932 190.617 -49.6857 182.363 -62.289 172.895C-67.1458 169.246 -71.953 165.423 -76.7889 161.577C-81.6013 157.75 -86.4423 153.9 -91.389 150.177Z" fill="black"/>
<path d="M-96.1639 159.038C-96.0482 158.814 -95.9323 158.591 -95.8161 158.368C-91.0103 161.651 -86.297 165.063 -81.6278 168.481C-80.5 169.306 -79.3748 170.132 -78.2515 170.956C-72.913 174.874 -67.6173 178.761 -62.2828 182.438C-36.4644 200.234 -9.84563 213.047 26.2441 200.37C55.6794 190.033 84.4587 172.544 111.944 155.843L111.945 155.842C119.523 151.237 127.003 146.692 134.371 142.372C141.621 138.123 149.547 133.044 157.949 127.66C159.688 126.546 161.447 125.419 163.225 124.283C173.589 117.663 184.582 110.759 195.832 104.506C218.32 92.0073 241.89 82.0779 263.589 82.2376C295.791 82.4829 318.135 106.198 338.831 132.881C342.284 137.334 345.69 141.867 349.09 146.392C355.897 155.452 362.676 164.475 369.747 172.732C380.345 185.107 391.558 195.71 404.413 202.062C419.076 209.307 434.001 210.367 449.054 207.794C449.128 208.035 449.201 208.276 449.275 208.517C434.07 211.131 418.95 210.081 404.081 202.734C391.091 196.316 379.799 185.623 369.178 173.22C362.092 164.946 355.286 155.888 348.47 146.816C345.074 142.297 341.675 137.773 338.238 133.341C317.527 106.638 295.386 83.2298 263.584 82.9876C242.09 82.8294 218.665 92.6735 196.196 105.162C184.968 111.403 173.992 118.296 163.629 124.915C161.855 126.049 160.099 127.174 158.363 128.286L158.359 128.288C149.956 133.672 142.015 138.761 134.75 143.02C127.406 147.325 119.943 151.86 112.375 156.459L112.374 156.46C84.8801 173.167 56.0097 190.711 26.4927 201.077C-9.94147 213.875 -36.8255 200.896 -62.7085 183.055C-68.0533 179.371 -73.36 175.476 -78.699 171.558C-79.8213 170.734 -80.945 169.91 -82.0708 169.086C-86.7147 165.687 -91.3954 162.298 -96.1639 159.038Z" fill="black"/>
<path d="M-100.767 168.34C-100.66 168.113 -100.552 167.886 -100.444 167.66C-94.5853 171.15 -88.8475 174.824 -83.1633 178.497C-82.2919 179.06 -81.4218 179.623 -80.5527 180.186C-74.7548 183.938 -69.0024 187.661 -63.2152 191.165C-36.6037 207.277 -9.34593 218.7 25.9095 206.79C55.6223 196.742 84.6764 180.655 112.741 165.117C120.392 160.881 127.968 156.686 135.465 152.666C143.211 148.512 151.742 143.459 160.798 138.095C162.15 137.294 163.515 136.486 164.89 135.673C175.468 129.419 186.682 122.873 198.12 116.942C220.982 105.085 244.79 95.6519 266.241 95.9287C297.711 96.3233 319.476 119.625 339.592 145.84C342.995 150.274 346.349 154.791 349.697 159.297L349.697 159.298C356.263 168.139 362.801 176.941 369.618 185.009C379.905 197.185 390.787 207.639 403.272 213.953C419.239 222.024 435.647 222.588 452.257 219.03C452.32 219.272 452.384 219.515 452.447 219.757C435.704 223.348 419.104 222.797 402.934 214.622C390.315 208.241 379.355 197.697 369.045 185.493C362.213 177.408 355.65 168.571 349.075 159.718C345.731 155.216 342.384 150.71 338.997 146.297C318.867 120.063 297.302 97.0682 266.231 96.6786C244.977 96.4044 221.311 105.759 198.465 117.607C187.048 123.528 175.849 130.065 165.271 136.318C163.905 137.126 162.549 137.929 161.204 138.726L161.182 138.739C152.128 144.102 143.581 149.164 135.819 153.327C128.343 157.336 120.781 161.524 113.14 165.754C85.0669 181.298 55.9333 197.428 26.1496 207.501C-9.42339 219.518 -36.9295 207.957 -63.6036 191.807C-69.4011 188.297 -75.1637 184.567 -80.9607 180.815C-81.8297 180.253 -82.6996 179.69 -83.5704 179.127C-89.2345 175.467 -94.9427 171.812 -100.767 168.34Z" fill="black"/>
<path d="M-105.2 178.173C-105.101 177.943 -105.002 177.713 -104.903 177.483C-97.554 181.137 -90.3636 185.043 -83.2325 188.917C-76.9867 192.311 -70.7864 195.679 -64.5647 198.831C-37.0078 212.794 -8.97411 222.564 25.5363 211.81C55.5818 202.445 85.0455 187.98 113.767 173.879C121.54 170.063 129.26 166.273 136.921 162.618C145.267 158.641 154.5 153.718 164.293 148.496L164.295 148.496L164.394 148.443C165.294 147.963 166.199 147.48 167.108 146.996C177.945 141.222 189.413 135.166 201.065 129.688C224.359 118.738 248.444 110.073 269.763 110.616C300.512 111.416 321.384 134.133 340.619 159.647C343.86 163.946 347.053 168.323 350.24 172.691C356.529 181.311 362.794 189.898 369.35 197.782C379.221 209.656 389.714 219.885 401.855 226.162C418.979 235.013 436.839 234.967 455.004 230.361C455.058 230.605 455.112 230.85 455.165 231.094C436.886 235.724 418.838 235.784 401.511 226.828C389.237 220.483 378.668 210.164 368.773 198.262C362.203 190.36 355.913 181.739 349.615 173.107L349.614 173.106C346.431 168.742 343.245 164.376 340.02 160.099C320.773 134.569 300.097 112.155 269.744 111.365C248.613 110.827 224.663 119.424 201.384 130.367C189.751 135.836 178.298 141.884 167.461 147.658C166.517 148.161 165.578 148.661 164.643 149.16C154.854 154.38 145.606 159.311 137.244 163.295C129.602 166.941 121.895 170.724 114.13 174.537L114.127 174.538C85.3991 188.642 55.866 203.142 25.7594 212.526C-9.03268 223.368 -37.2888 213.492 -64.9036 199.5C-71.1669 196.327 -77.3942 192.944 -83.6566 189.542C-90.7581 185.685 -97.905 181.802 -105.2 178.173Z" fill="black"/>
<path d="M-109.376 188.438C-109.286 188.205 -109.196 187.972 -109.105 187.739C-101.432 190.765 -93.888 194.014 -86.3965 197.241L-86.3951 197.242C-79.678 200.135 -73.0029 203.01 -66.3141 205.69C-37.6799 217.162 -8.73994 225.083 25.0605 215.749C55.5261 207.347 85.5135 194.679 114.98 182.231L114.984 182.229C122.877 178.895 130.733 175.576 138.551 172.359C147.54 168.662 157.504 164.001 168.051 159.069L169.611 158.339C180.732 153.139 192.469 147.678 204.353 142.763C228.11 132.937 252.505 125.267 273.797 126.236C303.917 127.601 323.632 149.627 341.732 174.267C344.685 178.287 347.594 182.375 350.499 186.457L350.5 186.459C356.515 194.911 362.511 203.337 368.839 211.077C378.22 222.549 388.295 232.465 400.161 238.645C418.363 248.129 437.622 247.372 457.283 241.704C457.328 241.951 457.372 242.199 457.417 242.446C437.662 248.128 418.219 248.9 399.814 239.31C387.816 233.061 377.665 223.055 368.259 211.552C361.914 203.792 355.892 195.329 349.868 186.865L349.866 186.861C346.965 182.786 344.065 178.709 341.128 174.711C323.019 150.06 303.494 128.332 273.763 126.985C252.647 126.025 228.383 133.636 204.64 143.456C192.774 148.364 181.051 153.818 169.929 159.018L168.362 159.751L168.361 159.752C157.821 164.681 147.842 169.348 138.836 173.053C131.032 176.264 123.185 179.579 115.297 182.912C85.8244 195.362 55.7777 208.056 25.26 216.472C-8.77963 225.872 -37.9096 217.878 -66.593 206.386C-73.3208 203.691 -80.021 200.805 -86.7536 197.905C-94.2271 194.686 -101.74 191.45 -109.376 188.438Z" fill="black"/>
<path d="M-113.201 198.973C-113.12 198.736 -113.039 198.499 -112.957 198.262C-105.208 200.522 -97.5435 202.953 -89.9167 205.372C-82.723 207.653 -75.5621 209.924 -68.3954 212.031C-38.587 220.794 -8.62172 226.743 24.5242 218.988C55.4625 211.755 86.04 201.03 116.251 190.434C124.261 187.625 132.246 184.824 140.204 182.1C149.962 178.763 160.775 174.455 172.181 169.911L172.206 169.901C183.618 165.355 195.619 160.574 207.728 156.304C231.938 147.766 256.632 141.246 277.982 142.725C308.249 144.815 326.18 166.472 342.594 190.28C344.786 193.458 346.95 196.674 349.113 199.888C355.064 208.733 361.006 217.565 367.487 225.561C376.318 236.457 386.12 245.761 398.238 251.375C418.163 260.61 438.527 259.081 459.047 252.64C459.082 252.891 459.117 253.142 459.152 253.393C438.562 259.837 418.034 261.377 397.922 252.055C385.658 246.373 375.77 236.972 366.904 226.033C360.4 218.009 354.43 209.135 348.473 200.281C346.314 197.073 344.157 193.867 341.977 190.705C325.558 166.892 307.809 145.536 277.93 143.473C256.744 142.006 232.174 148.478 207.978 157.011C195.885 161.276 183.897 166.051 172.484 170.598L172.447 170.613C161.05 175.153 150.222 179.467 140.447 182.81C132.501 185.529 124.525 188.327 116.52 191.135C86.3042 201.733 55.6767 212.475 24.6949 219.718C-8.64297 227.518 -38.7611 221.525 -68.6069 212.75C-75.8068 210.634 -82.9883 208.356 -90.1949 206.071C-97.8184 203.654 -105.47 201.227 -113.201 198.973Z" fill="black"/>
<path d="M-116.685 209.859C-116.613 209.618 -116.541 209.378 -116.468 209.137C-109.102 210.622 -101.76 212.218 -94.4298 213.813C-87.9459 215.223 -81.4707 216.631 -74.996 217.958C-45.2466 224.054 -15.4778 228.445 15.2673 223.518C52.604 217.542 89.4026 207.021 126.001 196.557C139.61 192.666 153.191 188.783 166.763 185.145C174.722 183.014 183.299 180.347 192.235 177.569L193.737 177.102C203.211 174.157 213.065 171.115 222.979 168.484C242.8 163.222 262.9 159.588 280.733 161.652C311.697 165.233 328.62 186.48 344.393 209.285C345.87 211.42 347.336 213.568 348.804 215.718L348.808 215.725C363.037 236.568 377.303 257.467 401.226 266.795C420.356 274.263 440.295 271.74 460.512 264.752C460.538 265.008 460.563 265.263 460.588 265.52C440.328 272.497 420.251 275.027 400.953 267.493C376.802 258.076 362.402 236.976 348.199 216.163C346.726 214.005 345.255 211.85 343.776 209.711C328.003 186.907 311.249 165.937 280.646 162.397C262.959 160.35 242.972 163.953 223.171 169.209C213.275 171.836 203.435 174.873 193.96 177.818L192.453 178.286C183.522 181.063 174.932 183.735 166.957 185.869C153.412 189.5 139.847 193.379 126.247 197.267C89.6345 207.735 52.7705 218.275 15.3859 224.258C-15.4995 229.208 -45.3795 224.792 -75.1466 218.692C-81.6412 217.361 -88.1293 215.95 -94.6212 214.539C-101.966 212.942 -109.316 211.344 -116.685 209.859Z" fill="black"/>
<path d="M-119.631 220.443C-119.568 220.198 -119.504 219.953 -119.441 219.709C-112.29 220.462 -105.146 221.277 -98.0061 222.091C-91.2279 222.863 -84.4528 223.636 -77.6807 224.355C-47.0325 227.61 -16.4113 229.784 14.4338 226.038C52.2379 221.442 89.7302 213.513 127.118 205.606C140.917 202.687 154.701 199.772 168.482 197.028C177.162 195.303 186.477 193.044 196.134 190.698L196.403 190.633C205.975 188.308 215.878 185.902 225.816 183.855C245.872 179.723 266.104 177.041 284.088 179.434C313.913 183.399 329.906 203.544 344.788 225.092C346.153 227.069 347.509 229.058 348.866 231.047C362.317 250.774 375.804 270.552 398.875 279.659C418.786 287.52 439.922 284.291 461.448 276.389C461.463 276.65 461.479 276.911 461.494 277.172C439.946 285.052 418.678 288.283 398.599 280.357C375.302 271.16 361.684 251.184 348.256 231.485L348.254 231.483C346.894 229.488 345.537 227.496 344.171 225.518C329.292 203.975 313.463 184.096 283.989 180.177C266.135 177.802 246.004 180.461 225.967 184.589C216.042 186.634 206.15 189.037 196.575 191.363L196.311 191.427C186.657 193.772 177.327 196.035 168.628 197.764C154.868 200.504 141.096 203.416 127.304 206.333L127.302 206.333C89.9042 214.243 52.3634 222.182 14.5243 226.782C-16.4094 230.539 -47.1009 228.357 -77.7599 225.101C-84.5451 224.38 -91.3278 223.607 -98.1113 222.834L-98.1124 222.833C-105.283 222.016 -112.455 221.199 -119.631 220.443Z" fill="black"/>
<path d="M-122.133 230.918C-122.078 230.669 -122.023 230.419 -121.968 230.17C-115.281 230.283 -108.595 230.416 -101.909 230.549H-101.908C-94.745 230.692 -87.5825 230.835 -80.4218 230.952C-49.0447 231.466 -17.6937 231.492 13.5791 228.898C51.9177 225.726 90.1039 220.41 128.254 215.1L128.256 215.099C142.099 213.172 155.938 211.246 169.778 209.423C178.739 208.242 188.251 206.596 198.053 204.872C198.804 204.74 199.556 204.608 200.31 204.475C209.398 202.875 218.715 201.235 228.043 199.863C248.244 196.892 268.534 195.173 286.742 197.852C315.405 202.062 330.633 221.008 344.807 241.21C346.077 243.02 347.338 244.839 348.599 246.659C361.441 265.187 374.317 283.762 396.586 292.545C417.14 300.655 439.296 296.786 461.928 288.106C461.934 288.372 461.939 288.637 461.944 288.904C439.31 297.55 417.03 301.417 396.31 293.243C373.818 284.372 360.813 265.604 347.993 247.102L347.985 247.091C346.722 245.268 345.461 243.449 344.193 241.641C330.026 221.449 314.958 202.755 286.633 198.594C268.537 195.932 248.336 197.636 228.153 200.605C218.834 201.975 209.527 203.614 200.436 205.214L198.183 205.611C188.382 207.334 178.855 208.984 169.876 210.166C156.048 211.988 142.216 213.913 128.376 215.84C90.2193 221.152 52.0022 226.472 13.6409 229.645C-17.6705 232.243 -49.0521 232.216 -80.434 231.702C-87.5969 231.585 -94.7594 231.442 -101.921 231.299L-101.933 231.299C-108.667 231.165 -115.401 231.031 -122.133 230.918Z" fill="black"/>
<path d="M-124.221 241.325C-124.175 241.071 -124.128 240.818 -124.081 240.564C-115.187 240.006 -106.293 239.439 -97.3997 238.871C-60.7196 236.53 -24.0389 234.189 12.6816 232.52C51.8072 230.741 90.8843 228.013 129.963 225.284C143.461 224.342 156.959 223.4 170.459 222.496C181.123 221.78 192.367 220.527 203.87 219.244C212.271 218.308 220.81 217.356 229.362 216.587C249.599 214.766 269.86 213.973 288.335 216.863C315.867 221.158 330.574 238.824 344.292 257.605C345.495 259.253 346.69 260.908 347.886 262.564C360.341 279.814 372.822 297.101 394.337 305.43C415.478 313.626 438.457 309.213 461.949 299.919C461.945 300.19 461.939 300.461 461.934 300.732C438.459 309.981 415.367 314.387 394.066 306.129C372.333 297.716 359.723 280.246 347.289 263.019C346.089 261.357 344.891 259.697 343.686 258.048C329.979 239.28 315.429 221.849 288.219 217.604C269.838 214.729 249.651 215.514 229.43 217.334C220.917 218.1 212.389 219.05 203.989 219.986L203.986 219.986C192.461 221.27 181.178 222.528 170.509 223.245C157.014 224.148 143.519 225.09 130.023 226.032C90.9416 228.76 51.8512 231.489 12.7157 233.27C-24.0035 234.938 -60.6645 237.278 -97.3329 239.618L-97.3366 239.619L-97.3424 239.619C-106.301 240.191 -115.26 240.762 -124.221 241.325Z" fill="black"/>
<path d="M-125.927 251.765C-125.89 251.508 -125.852 251.25 -125.814 250.993C-118.64 250.052 -111.471 249.08 -104.304 248.108L-104.296 248.107C-98.055 247.261 -91.8145 246.415 -85.5715 245.589C-53.3181 241.324 -21.0057 237.607 11.7412 237.268C46.9788 236.915 82.2173 236.769 117.455 236.623H117.457L117.486 236.622C135.095 236.549 152.704 236.477 170.312 236.378C182.215 236.311 194.626 235.697 207.228 235.073L207.23 235.073C214.615 234.708 222.066 234.339 229.518 234.076C249.671 233.363 269.808 233.42 288.569 236.404C315.043 240.624 329.542 256.927 343.126 274.213C344.296 275.702 345.459 277.198 346.622 278.694C358.98 294.589 371.354 310.504 392.213 318.25C413.939 326.315 437.479 321.495 461.503 311.798C461.487 312.075 461.47 312.351 461.454 312.627C437.464 322.268 413.825 327.073 391.952 318.953C370.883 311.129 358.38 295.044 346.041 279.17L346.026 279.15C344.864 277.655 343.703 276.161 342.536 274.677C328.966 257.408 314.621 241.316 288.451 237.144C269.763 234.172 249.685 234.113 229.544 234.825C222.117 235.088 214.676 235.456 207.295 235.821L207.292 235.821C194.676 236.445 182.232 237.061 170.316 237.128C152.698 237.227 135.08 237.3 117.462 237.373H117.454C82.2186 237.519 46.9841 237.665 11.7487 238.018C-20.9498 238.357 -53.2244 242.068 -85.4731 246.333C-91.7129 247.158 -97.9519 248.004 -104.193 248.85C-111.434 249.832 -118.677 250.814 -125.927 251.765Z" fill="black"/>
<path d="M-127.272 262.389C-127.244 262.129 -127.215 261.87 -127.187 261.61C-120.058 260.284 -112.941 258.906 -105.825 257.528L-105.824 257.528C-99.7693 256.355 -93.7158 255.183 -87.658 254.044C-55.2388 247.944 -22.7064 242.777 10.7781 243.499C30.8417 243.935 51.3429 244.136 72.0739 244.339L72.0764 244.339C143.881 245.041 218.442 245.771 287.126 256.431C312.614 260.395 327.281 275.269 341.136 290.993C342.288 292.3 343.434 293.613 344.58 294.925L344.591 294.938C357.241 309.429 369.895 323.924 390.296 330.921C412.64 338.591 436.426 333.53 460.58 323.678C460.553 323.96 460.525 324.241 460.497 324.523C436.389 334.308 412.524 339.344 390.053 331.63C369.452 324.565 356.67 309.919 344.038 295.446C342.884 294.124 341.731 292.803 340.574 291.489C326.734 275.783 312.219 261.092 287.011 257.172C218.386 246.521 143.9 245.792 72.1043 245.089C51.3636 244.887 30.8473 244.686 10.762 244.249C-22.64 243.529 -55.1078 248.683 -87.5193 254.781C-93.5636 255.918 -99.6064 257.088 -105.653 258.259L-105.668 258.262C-112.861 259.654 -120.06 261.048 -127.272 262.389Z" fill="black"/>
<path d="M-128.247 273.252C-128.228 272.991 -128.209 272.73 -128.19 272.469C-121.064 270.824 -113.954 269.104 -106.845 267.383C-102.239 266.269 -97.6346 265.155 -93.0266 264.061C-61.8324 256.659 -30.5038 250.215 2.02864 251.213C94.8948 254.054 193.034 264.249 285.063 276.648C309.951 280.004 325.648 294.411 340.818 309.231C341.562 309.958 342.306 310.687 343.049 311.415C357.461 325.538 371.769 339.559 393.481 344.601C415.273 349.669 437.204 344.699 459.154 335.713C459.114 336 459.074 336.287 459.033 336.573C437.139 345.486 415.173 350.415 393.311 345.332C371.389 340.24 356.941 326.08 342.558 311.984C341.803 311.245 341.049 310.505 340.294 309.767C325.125 294.948 309.583 280.712 284.963 277.392C192.948 264.995 94.8363 254.802 2.00566 251.963C-30.4197 250.968 -61.6647 257.39 -92.8534 264.791C-97.455 265.883 -102.056 266.996 -106.659 268.11C-113.844 269.849 -121.036 271.59 -128.247 273.252Z" fill="black"/>
<path d="M-128.849 284.94C-128.841 284.68 -128.832 284.421 -128.823 284.161C-121.058 282.225 -113.319 280.171 -105.583 278.116C-101.645 277.071 -97.7082 276.026 -93.7685 274.996C-62.7313 266.886 -31.5438 259.772 1.29459 261.45C47.5483 263.803 93.9672 270.259 140.317 277.428C150.336 278.978 160.353 280.561 170.363 282.143L170.365 282.144C206.667 287.881 242.895 293.607 278.952 297.692C303.429 300.471 320.405 313.157 336.946 326.151C337.662 326.713 338.377 327.276 339.091 327.838C354.908 340.29 370.598 352.642 392.426 356.699C414.55 360.807 436.043 355.926 457.296 347.343C457.244 347.634 457.191 347.925 457.138 348.216C435.95 356.72 414.446 361.551 392.289 357.436C370.275 353.345 354.452 340.887 338.663 328.456C337.936 327.884 337.21 327.312 336.483 326.741C319.941 313.746 303.113 301.19 278.867 298.438C242.792 294.35 206.542 288.621 170.238 282.883C160.23 281.301 150.217 279.718 140.202 278.169C93.8566 271.001 47.4695 264.55 1.25632 262.199C-31.4566 260.528 -62.546 267.613 -93.5789 275.722C-97.5137 276.75 -101.448 277.795 -105.384 278.84L-105.385 278.84C-113.19 280.912 -121.003 282.987 -128.849 284.94Z" fill="black"/>
<path d="M-128.996 296.679C-128.997 296.422 -128.999 296.166 -129 295.909C-121.893 294.244 -114.797 292.499 -107.702 290.753C-102.653 289.511 -97.6037 288.269 -92.5506 287.056C-61.165 279.521 -29.6423 273.103 2.92636 274.759C65.5 277.926 129.036 287.185 191.982 296.357C219.619 300.384 247.143 304.395 274.421 307.866C298.857 310.974 317.074 323.625 334.931 336.476C335.541 336.915 336.15 337.354 336.759 337.793C354.007 350.221 371.099 362.536 393.398 366.511C414.279 370.233 434.754 366.119 455.051 358.543C454.987 358.834 454.922 359.125 454.857 359.416C434.631 366.912 414.162 370.974 393.267 367.249C370.796 363.244 353.578 350.837 336.362 338.431C335.739 337.982 335.116 337.533 334.493 337.085C316.628 324.228 298.551 311.691 274.327 308.61C247.019 305.135 219.479 301.122 191.833 297.093L191.831 297.093C128.903 287.923 65.4254 278.673 2.88828 275.508C-29.5645 273.858 -60.9969 280.252 -92.3756 287.785C-97.4188 288.996 -102.461 290.237 -107.506 291.478L-107.509 291.478C-114.662 293.238 -121.821 294.999 -128.996 296.679Z" fill="black"/>
<path d="M-128.615 309.84C-128.628 309.588 -128.64 309.335 -128.652 309.083C-121.472 307.694 -114.297 306.245 -107.123 304.795C-100.027 303.362 -92.9295 301.928 -85.8267 300.553C-52.7913 294.156 -19.6376 289.03 14.1839 291.099C97.9947 296.229 184.346 305.746 267.516 317.149C291.817 320.478 311.106 331.959 330.026 343.819C331.114 344.501 332.201 345.185 333.288 345.868C351.109 357.072 368.833 368.216 390.424 372.914C411.514 377.496 432.296 374.276 452.926 367.5C452.853 367.787 452.78 368.074 452.706 368.361C432.144 375.062 411.369 378.232 390.265 373.647C368.541 368.92 350.712 357.71 332.914 346.519C331.819 345.83 330.723 345.142 329.627 344.455C310.706 332.594 291.539 321.197 267.414 317.892C184.257 306.491 97.9249 296.976 14.1381 291.848C-19.5838 289.785 -52.6597 294.895 -85.6841 301.289C-92.7722 302.661 -99.8588 304.093 -106.949 305.525L-106.952 305.526C-114.167 306.984 -121.387 308.442 -128.615 309.84Z" fill="black"/>
<path d="M-127.587 323.668C-127.612 323.419 -127.636 323.17 -127.66 322.92C-120.232 321.857 -112.804 320.748 -105.375 319.639L-105.371 319.638C-97.3956 318.448 -89.4187 317.257 -81.437 316.122C-47.9205 311.352 -14.3332 307.555 19.4736 308.838C98.9915 311.848 181.766 315.705 260.729 325.52C285.805 328.635 306.991 339.578 327.883 350.875C329.031 351.496 330.177 352.118 331.324 352.739C351.063 363.44 370.713 374.092 393.383 378.486C412.938 382.27 432.052 380.043 450.96 374.846C450.88 375.127 450.801 375.408 450.721 375.689C431.878 380.821 412.787 383.005 393.24 379.223C370.453 374.806 350.709 364.102 330.992 353.412L330.986 353.409C329.833 352.784 328.68 352.159 327.526 351.535C306.63 340.235 285.556 329.359 260.637 326.264C181.709 316.454 98.9627 312.597 19.4452 309.588C-14.2914 308.307 -47.8238 312.096 -81.3314 316.864C-89.3028 317.998 -97.2736 319.188 -105.245 320.378L-105.247 320.379C-112.693 321.49 -120.139 322.601 -127.587 323.668Z" fill="black"/>
<path d="M-125.756 338.515C-125.793 338.266 -125.83 338.018 -125.866 337.77C-118.072 337.288 -110.273 336.8 -102.471 336.312L-102.467 336.312C15.9202 328.908 135.132 321.452 253.346 333.445C279.546 336.101 302.826 346.263 325.871 356.808C327.233 357.432 328.595 358.057 329.956 358.681C351.637 368.629 373.249 378.546 397.104 382.575C414.901 385.581 432.212 384.23 449.29 380.551C449.207 380.824 449.123 381.098 449.039 381.372C432.025 384.999 414.748 386.316 396.979 383.314C373.023 379.268 351.326 369.312 329.665 359.373L329.612 359.348C328.261 358.729 326.91 358.109 325.559 357.49C302.509 346.943 279.332 336.833 253.27 334.191C135.124 322.205 15.9861 329.656 -102.399 337.059L-102.408 337.06C-110.194 337.547 -117.977 338.034 -125.756 338.515Z" fill="black"/>
<path d="M-123.37 352.271C-123.42 352.022 -123.469 351.773 -123.517 351.523C-111.08 351.354 -98.6428 351.218 -86.2065 351.082H-86.2046C-46.2333 350.646 -6.26889 350.209 33.687 348.661C55.8214 347.803 78.3165 346.243 100.941 344.675C149.295 341.322 198.241 337.928 245.514 341.265C273.029 343.208 298.611 351.942 323.991 361.363C326.874 362.433 329.754 363.511 332.633 364.59C355.123 373.015 377.607 381.437 401.346 385.649C416.987 388.419 432.394 387.978 447.679 385.685C447.593 385.951 447.507 386.217 447.42 386.482C432.194 388.736 416.824 389.151 401.215 386.387C377.404 382.163 354.852 373.715 332.37 365.293C329.49 364.214 326.611 363.135 323.73 362.066C298.352 352.646 272.858 343.948 245.461 342.013C198.24 338.68 149.387 342.068 101.061 345.419L101.058 345.419C78.4214 346.989 55.8999 348.551 33.716 349.41C-6.24158 350.959 -46.2334 351.396 -86.2199 351.832L-86.2261 351.832C-98.6084 351.968 -110.99 352.103 -123.37 352.271Z" fill="black"/>
<path d="M-120.167 366.57C-120.23 366.316 -120.294 366.062 -120.357 365.808C-109.46 366.441 -98.5565 367.183 -87.6523 367.925L-87.6469 367.925C-79.4083 368.486 -71.1695 369.046 -62.9332 369.56C-27.8989 371.745 7.09982 373.084 41.891 369.982C65.4629 367.876 89.364 364.242 113.381 360.591C122.097 359.265 130.828 357.938 139.565 356.68C172.363 351.959 205.219 348.225 237.531 349.317C266.47 350.294 294.422 357.746 322.206 366.065C326.581 367.375 330.951 368.706 335.32 370.037C358.715 377.163 382.083 384.281 405.959 388.063C419.624 390.227 433.126 390.323 446.538 389.137C446.45 389.395 446.363 389.654 446.275 389.913C432.921 391.073 419.465 390.961 405.842 388.804C381.909 385.013 358.483 377.877 335.09 370.751C330.723 369.421 326.358 368.091 321.991 366.783C294.212 358.466 266.34 351.04 237.506 350.067C205.263 348.976 172.461 352.702 139.672 357.423C130.949 358.678 122.226 360.005 113.514 361.329L113.513 361.329C89.4891 364.982 65.5542 368.621 41.9577 370.729C7.1073 373.837 -27.9382 372.494 -62.9799 370.309C-71.2275 369.794 -79.4743 369.233 -87.7182 368.672C-98.5407 367.936 -109.358 367.2 -120.167 366.57Z" fill="black"/>
<path d="M-116.233 380.757C-116.313 380.495 -116.393 380.232 -116.472 379.97C-105.255 381.427 -93.995 383.096 -82.7212 384.767C-73.7995 386.09 -64.869 387.414 -55.9437 388.635C-20.1648 393.53 15.5501 396.776 50.3901 391.708C73.8356 388.291 97.3407 382.362 120.931 376.413L120.932 376.412C127.161 374.841 133.396 373.268 139.638 371.74C169.503 364.428 199.501 358.134 229.611 357.922C259.987 357.71 290.309 363.802 320.506 370.94C326.731 372.411 332.952 373.927 339.166 375.442C363.104 381.276 386.955 387.089 410.719 390.266C422.425 391.836 434.043 392.23 445.609 391.845C445.521 392.098 445.432 392.351 445.343 392.604C433.838 392.974 422.274 392.572 410.619 391.01C386.812 387.827 362.912 382.001 338.969 376.166L338.967 376.165C332.758 374.652 326.547 373.138 320.333 371.669C290.144 364.533 259.896 358.46 229.616 358.672C199.6 358.884 169.674 365.158 139.816 372.469C133.589 373.994 127.364 375.564 121.142 377.133L121.135 377.135C97.54 383.086 73.986 389.027 50.4983 392.45C15.5484 397.534 -20.254 394.274 -56.0453 389.378C-64.9902 388.154 -73.9331 386.828 -82.8621 385.505C-94.0153 383.851 -105.147 382.201 -116.233 380.757Z" fill="black"/>
<path d="M-111.576 394.775C-111.675 394.501 -111.773 394.227 -111.871 393.953C-100.551 396.18 -89.1166 398.715 -77.6349 401.26L-77.6335 401.26C-67.0788 403.6 -56.4841 405.949 -45.9014 408.076C-8.11635 415.669 29.5446 420.443 64.8745 411.997C84.6665 407.266 104.628 399.517 124.757 391.702C130.614 389.429 136.484 387.15 142.369 384.938C168.459 375.132 194.811 366.656 221.316 365.933C251.844 365.095 283.486 369.748 315.059 375.519C323.7 377.098 332.334 378.761 340.94 380.418L340.947 380.419C363.794 384.82 386.436 389.18 408.446 391.834C420.629 393.303 432.749 393.946 444.833 394.042C444.744 394.292 444.654 394.541 444.565 394.79C432.543 394.686 420.483 394.041 408.356 392.579C386.319 389.921 363.639 385.554 340.783 381.152L340.78 381.151L340.778 381.151C332.177 379.494 323.55 377.833 314.924 376.256C283.361 370.487 251.783 365.847 221.337 366.683C194.965 367.402 168.715 375.837 142.632 385.64C136.767 387.845 130.909 390.119 125.06 392.39C104.923 400.207 84.8954 407.982 65.0489 412.726C29.5504 421.213 -8.24788 416.408 -46.0492 408.811C-56.6669 406.677 -67.2825 404.324 -77.8488 401.981L-77.8501 401.981C-89.168 399.472 -100.43 396.976 -111.576 394.775Z" fill="black"/>
<path d="M-106.231 408.511C-106.352 408.223 -106.472 407.935 -106.591 407.647C-94.9559 410.579 -83.1775 413.91 -71.3395 417.257L-71.3385 417.258C-60.7779 420.244 -50.1699 423.243 -39.5737 425.986C-1.19693 435.918 37.054 442.491 72.558 433.002C92.9456 427.553 112.284 417.198 131.704 406.8C135.197 404.93 138.693 403.058 142.199 401.213C165.166 389.124 188.514 378.2 213.991 376.552C245.83 374.483 279.589 377.693 313.339 382.117C324.207 383.542 335.071 385.092 345.871 386.634L345.872 386.634C368.626 389.881 391.093 393.087 412.694 394.991C423.051 395.902 433.407 396.541 443.763 396.987C443.672 397.234 443.58 397.48 443.489 397.726C433.2 397.28 422.914 396.643 412.628 395.738C391.007 393.832 368.505 390.621 345.74 387.373C334.944 385.832 324.09 384.283 313.242 382.861C279.501 378.437 245.802 375.236 214.039 377.3C188.736 378.937 165.512 389.789 142.548 401.876C139.053 403.716 135.564 405.585 132.074 407.453C112.658 417.85 93.2307 428.253 72.7517 433.726C37.0457 443.269 -1.37048 436.648 -39.7616 426.712C-50.3981 423.959 -61.0305 420.953 -71.6048 417.963C-83.2415 414.672 -94.8077 411.402 -106.231 408.511Z" fill="black"/>
<path d="M-99.8261 422.748C-99.9744 422.441 -100.122 422.133 -100.27 421.824C-97.6666 422.634 -95.0517 423.467 -92.4266 424.318C-83.9488 427.066 -75.3746 430 -66.7436 432.954L-66.7415 432.954C-55.8032 436.697 -44.7735 440.472 -33.7324 443.939C5.75192 456.339 45.057 464.704 79.5525 453.332C98.809 446.983 116.005 435.176 133.258 423.33C136.161 421.337 139.066 419.342 141.983 417.372C162.207 403.714 182.976 391.26 207.557 388.823C240.611 385.556 276.222 387.228 311.888 390.177C325.186 391.276 338.487 392.553 351.668 393.818L351.669 393.818L351.671 393.818C373.857 395.947 395.7 398.044 416.603 399.207C425.187 399.686 433.765 400.208 442.34 400.757C442.246 401.002 442.151 401.246 442.056 401.49C433.559 400.947 425.06 400.43 416.561 399.956C395.645 398.792 373.772 396.693 351.572 394.562L351.568 394.562C338.392 393.297 325.1 392.022 311.826 390.924C276.171 387.976 240.615 386.309 207.63 389.57C183.254 391.986 162.622 404.339 142.403 417.994C139.496 419.957 136.598 421.947 133.698 423.939C116.451 435.782 99.1542 447.658 79.7873 454.044C45.0438 465.498 5.53058 457.056 -33.9571 444.655C-44.9929 441.189 -56.052 437.405 -67.0086 433.656L-67.0125 433.655C-75.6451 430.701 -84.2141 427.769 -92.6579 425.031C-95.0569 424.254 -97.4467 423.491 -99.8261 422.748Z" fill="black"/>
<path d="M-92.2448 437.406C-92.4286 437.073 -92.6117 436.741 -92.7943 436.408C-91.4741 436.887 -90.15 437.372 -88.8223 437.862C-80.18 441.056 -71.3956 444.477 -62.5286 447.931C-51.3871 452.27 -40.1151 456.661 -28.8303 460.713C11.6814 475.262 51.9798 485.307 85.5558 472.581C103.985 465.595 119.216 452.896 134.471 440.176L134.473 440.174C136.929 438.126 139.385 436.079 141.855 434.054C159.648 419.469 178.153 406.112 202.312 403.109C251.541 396.986 306.561 399.735 359.374 402.374C380.083 403.409 400.454 404.427 420.003 404.886C426.815 405.046 433.591 405.365 440.34 405.809C440.241 406.053 440.141 406.297 440.041 406.541C433.385 406.106 426.702 405.793 419.985 405.636C400.391 405.176 379.993 404.157 359.268 403.121L359.267 403.121C306.478 400.483 251.565 397.739 202.405 403.853C178.476 406.827 160.115 420.057 142.33 434.634C139.869 436.652 137.418 438.695 134.965 440.741C119.717 453.457 104.378 466.248 85.8217 473.283C51.9603 486.116 11.4164 475.964 -29.0838 461.419C-40.3597 457.37 -51.6617 452.968 -62.8214 448.622L-62.8238 448.621L-62.8275 448.619C-71.6971 445.165 -80.4768 441.746 -89.0823 438.566C-90.1389 438.176 -91.1932 437.789 -92.2448 437.406Z" fill="black"/>
<path d="M-86.1388 447.924C-86.3372 447.598 -86.535 447.272 -86.7321 446.945C-67.1767 453.24 -48.1297 460.768 -28.5043 468.525C-23.9231 470.335 -19.3105 472.159 -14.6525 473.981C-12.0443 475.003 -9.39812 476.057 -6.71913 477.124C7.20699 482.671 22.0231 488.573 37.0412 492.139C54.9414 496.389 73.0806 497.308 90.2745 490.365C108.259 483.1 121.913 470.158 135.55 457.232C137.665 455.227 139.779 453.224 141.909 451.241C157.753 436.494 174.443 422.974 198.536 419.704C253.532 412.219 314.276 412.35 372.349 412.475H372.352C389.46 412.511 406.337 412.548 422.767 412.389C427.709 412.341 432.604 412.434 437.458 412.646C437.351 412.892 437.243 413.138 437.135 413.383C432.389 413.18 427.604 413.092 422.774 413.139C406.322 413.298 389.431 413.262 372.312 413.225C314.248 413.1 253.576 412.97 198.637 420.447C174.79 423.683 158.249 437.058 142.42 451.79C140.299 453.764 138.19 455.764 136.078 457.766C122.449 470.687 108.682 483.738 90.5555 491.061C73.1618 498.084 54.8483 497.138 36.868 492.869C21.7912 489.289 6.91504 483.363 -7.01042 477.816L-7.01189 477.815C-9.68675 476.75 -12.3265 475.698 -14.9258 474.68C-19.5856 472.856 -24.1987 471.033 -28.7788 469.223C-48.1341 461.573 -66.9031 454.155 -86.1388 447.924Z" fill="black"/>
<path d="M-76.6509 462.533C-76.8946 462.181 -77.1376 461.828 -77.3798 461.475C-60.6347 467.459 -44.2135 474.367 -27.3046 481.481L-27.2997 481.483C-22.353 483.564 -17.3646 485.662 -12.3141 487.76C-10.0989 488.68 -7.83969 489.629 -5.5416 490.595C8.41206 496.458 23.798 502.923 39.4666 506.953C57.7125 511.646 76.2888 513.022 93.3723 506.323C111.327 499.284 123.989 486.853 136.588 474.484L136.589 474.483C138.458 472.649 140.325 470.815 142.208 469.001C156.773 454.969 172.249 442.122 196.482 438.969C270.507 429.366 349.849 425.444 424.64 422.117C427.525 421.99 430.384 421.925 433.219 421.917C433.099 422.168 432.979 422.418 432.859 422.668C430.153 422.681 427.425 422.745 424.673 422.866C349.88 426.194 270.568 430.114 196.579 439.712C172.596 442.833 157.268 455.534 142.729 469.541C140.854 471.347 138.992 473.175 137.126 475.008L137.124 475.011C124.532 487.375 111.754 499.922 93.6461 507.021C76.3538 513.802 57.5979 512.391 39.2798 507.679C23.5535 503.634 8.11089 497.145 -5.83975 491.283C-8.13596 490.318 -10.3917 489.37 -12.6018 488.453C-17.6567 486.353 -22.6475 484.254 -27.5948 482.172L-27.597 482.172C-44.1792 475.196 -60.2728 468.426 -76.6509 462.533Z" fill="black"/>
<path d="M-64.83 478.447C-65.1372 478.061 -65.4434 477.675 -65.7488 477.287C-53.1179 482.162 -40.5675 487.485 -27.7304 492.93C-22.5956 495.108 -17.4149 497.306 -12.1649 499.501C-10.2174 500.316 -8.23273 501.154 -6.21468 502.006C7.9 507.964 23.6478 514.611 39.7119 518.813C58.0713 523.615 76.7933 525.208 93.9104 518.951C111.955 512.357 124.532 500.645 137.031 489.006C138.814 487.345 140.595 485.686 142.39 484.044C156.761 470.898 172.003 458.852 196.082 455.88C271.196 446.618 348.941 438.585 424.589 433.562C425.535 433.499 426.478 433.443 427.418 433.395C427.28 433.652 427.142 433.91 427.004 434.167C426.218 434.21 425.43 434.257 424.639 434.31C349.009 439.332 271.278 447.364 196.174 456.625C172.334 459.566 157.238 471.479 142.897 484.597C141.11 486.232 139.334 487.886 137.554 489.544L137.549 489.548C125.058 501.183 112.365 513.006 94.1678 519.655C76.8455 525.987 57.9492 524.358 39.5221 519.539C23.4011 515.322 7.59987 508.652 -6.51082 502.695C-8.52785 501.843 -10.5103 501.006 -12.4543 500.193C-17.7089 497.995 -22.892 495.797 -28.0273 493.619C-40.4629 488.345 -52.6181 483.189 -64.83 478.447Z" fill="black"/>
<path d="M-49.8062 495.889C-50.2008 495.466 -50.5942 495.041 -50.9864 494.615C-43.5003 497.575 -35.9905 500.636 -28.3888 503.734C-23.6245 505.676 -18.8241 507.632 -13.9709 509.588C-11.7698 510.474 -9.52725 511.388 -7.24821 512.316C6.77917 518.031 22.1906 524.31 37.8838 528.289C56.1239 532.914 74.6953 534.418 91.858 528.339C109.855 521.975 122.895 510.702 135.878 499.48L135.88 499.478C137.668 497.933 139.455 496.388 141.253 494.857C156.101 482.221 171.721 470.562 195.251 467.389C269.201 457.428 345.419 448.949 419.9 442.845C420.688 442.78 421.473 442.721 422.257 442.667C422.105 442.929 421.953 443.19 421.8 443.451C421.188 443.495 420.575 443.542 419.961 443.593C345.494 449.696 269.289 458.172 195.351 468.133C172.044 471.275 156.562 482.813 141.739 495.428C139.946 496.955 138.162 498.497 136.374 500.043C123.399 511.261 110.248 522.631 92.1082 529.046C74.747 535.195 56.0074 533.658 37.6994 529.016C21.9515 525.023 6.48645 518.722 -7.53795 513.008C-9.81532 512.08 -12.0547 511.168 -14.2513 510.284C-19.107 508.327 -23.9083 506.37 -28.672 504.429C-35.7817 501.531 -42.8077 498.668 -49.8062 495.889Z" fill="black"/>
<path d="M-18.9071 524.671C-19.5139 524.182 -20.1187 523.69 -20.7216 523.196C17.5425 537.52 55.4582 547.14 88.2628 536.305C106.351 530.334 120.096 519.748 133.81 509.184C135.57 507.829 137.329 506.473 139.097 505.128C154.631 493.311 170.807 482.303 193.742 478.94C265.844 468.386 339.094 458.233 411.582 450.348C413.733 450.115 415.871 449.925 417.996 449.778C417.834 450.04 417.671 450.302 417.508 450.564C415.57 450.705 413.622 450.881 411.663 451.094C339.188 458.977 265.949 469.128 193.851 479.682C171.114 483.016 155.066 493.922 139.551 505.725C137.787 507.067 136.03 508.421 134.27 509.777C120.564 520.335 106.716 531.004 88.4979 537.017C56.0276 547.742 18.6695 538.572 -18.9071 524.671Z" fill="black"/>
<path d="M2.70544 540.549C2.05528 540.116 1.40694 539.679 0.760422 539.24C29.5867 547.217 57.7141 550.668 83.3564 543.02C101.685 537.559 116.389 527.852 131.096 518.143C132.748 517.053 134.4 515.962 136.056 514.878C152.455 504.145 169.345 494.012 191.639 490.449C217.38 486.342 243.121 482.031 268.872 477.719L268.874 477.718C312.737 470.373 356.629 463.022 400.591 456.666C405.259 455.99 409.888 455.549 414.485 455.316C414.316 455.576 414.147 455.835 413.978 456.094C409.583 456.332 405.158 456.762 400.698 457.408C356.742 463.764 312.868 471.111 269.011 478.456L269.001 478.458C243.251 482.77 217.508 487.081 191.757 491.19C169.63 494.726 152.854 504.78 136.467 515.506C134.817 516.585 133.171 517.672 131.523 518.76L131.507 518.771C116.809 528.475 102.012 538.244 83.5706 543.738C58.3833 551.251 30.8557 548.125 2.70544 540.549Z" fill="black"/>
<path d="M20.0465 551.274C19.4451 550.93 18.8451 550.584 18.2464 550.236C38.6205 553.481 58.5385 553.763 77.4987 548.844C96.5085 543.908 112.884 535.164 129.337 526.379L129.338 526.378C130.395 525.814 131.451 525.25 132.509 524.687C150.03 515.354 167.829 506.253 189.103 502.002C207.446 498.332 225.79 494.623 244.139 490.913L244.144 490.912C292.016 481.233 339.915 471.548 387.902 462.539C395.663 461.082 403.426 460.376 411.188 460.281C411.017 460.534 410.845 460.786 410.673 461.038C403.126 461.158 395.581 461.861 388.04 463.276C340.058 472.284 292.166 481.968 244.296 491.647L244.289 491.648L244.254 491.655C225.917 495.363 207.584 499.07 189.25 502.738C168.095 506.964 150.383 516.015 132.862 525.349C131.799 525.915 130.737 526.482 129.674 527.049C113.236 535.827 96.7867 544.611 77.6872 549.57C59.2029 554.365 39.831 554.246 20.0465 551.274Z" fill="black"/>
<path d="M32.0263 557.76C31.4903 557.486 30.9553 557.21 30.4212 556.932C44.1467 557.652 57.6885 556.882 70.9432 553.991C90.7278 549.678 108.807 541.926 126.988 534.13L128.217 533.603C146.803 525.636 165.534 517.705 186.283 513.489C226.292 505.364 265.984 495.402 305.66 485.445L305.666 485.443C328.594 479.689 351.516 473.936 374.491 468.54C385.249 466.01 396.293 465.157 407.523 465.559C407.349 465.803 407.175 466.047 407 466.291C396.001 465.934 385.19 466.794 374.662 469.27C351.71 474.661 328.797 480.412 305.871 486.165L305.87 486.165C266.18 496.126 226.454 506.096 186.432 514.224C165.769 518.422 147.105 526.322 128.512 534.292L127.258 534.83C109.096 542.618 90.9586 550.395 71.103 554.723C58.3053 557.515 45.2477 558.339 32.0263 557.76Z" fill="black"/>
<path d="M40.3476 561.856C39.852 561.622 39.3572 561.386 38.8632 561.149C45.4782 560.981 52.078 560.478 58.6591 559.58C79.8201 556.693 100.148 549.776 120.528 542.57C121.882 542.091 123.236 541.611 124.591 541.13C143.616 534.386 162.736 527.608 182.622 523.872C213.921 517.996 244.504 508.561 275.089 499.036L277.299 498.348C307.141 489.053 337.001 479.752 367.51 473.687C378.812 471.441 390.634 471.057 402.787 472.034C402.609 472.271 402.431 472.507 402.252 472.743C390.326 471.82 378.735 472.221 367.656 474.423C337.186 480.48 307.359 489.77 277.506 499.069L275.312 499.752C244.733 509.275 214.109 518.724 182.76 524.61C162.934 528.334 143.866 535.093 124.829 541.842C123.479 542.32 122.128 542.799 120.778 543.277C100.403 550.482 80.0074 557.425 58.7604 560.324C52.6369 561.159 46.4983 561.653 40.3476 561.856Z" fill="black"/>
<path d="M47.7448 565.229C47.2669 565.019 46.7898 564.808 46.3133 564.596C48.0518 564.456 49.7901 564.296 51.5284 564.114C72.7965 561.882 94.1671 556.664 115.515 550.99C119.448 549.945 123.381 548.884 127.312 547.823L127.351 547.813L127.354 547.812C144.736 543.122 162.088 538.441 179.315 535.148C209.262 529.421 238.368 519.548 267.442 509.393C269.496 508.676 271.55 507.957 273.605 507.238C300.615 497.784 327.647 488.323 355.313 481.976C368.857 478.863 382.23 479.179 395.456 481.384C395.273 481.608 395.09 481.831 394.907 482.054C381.89 479.924 368.762 479.655 355.48 482.707C327.858 489.044 300.865 498.492 273.847 507.948L273.813 507.96C271.772 508.674 269.731 509.388 267.689 510.101C238.619 520.255 209.464 530.146 179.456 535.884C162.259 539.172 144.942 543.844 127.561 548.533L127.559 548.534L127.533 548.541C123.594 549.603 119.652 550.667 115.708 551.715C94.3562 557.39 72.9373 562.621 51.6067 564.86C50.3195 564.995 49.0321 565.118 47.7448 565.229Z" fill="black"/>
<path d="M55.7081 568.589C55.2148 568.389 54.7221 568.188 54.2301 567.986C83.61 565.035 114.101 558.878 143.721 552.898C154.671 550.687 165.503 548.5 176.116 546.507C203.554 541.356 230.248 530.757 256.967 520.148L258.392 519.583C259.131 519.289 259.869 518.996 260.608 518.703C288.531 507.629 316.519 496.814 345.38 492.525C358.553 490.568 372.293 490.563 386.385 491.97C386.177 492.201 385.969 492.432 385.761 492.662C371.915 491.315 358.425 491.345 345.491 493.267C316.727 497.541 288.817 508.322 260.885 519.4C259.663 519.885 258.442 520.37 257.22 520.855C230.52 531.456 203.766 542.079 176.254 547.245C165.666 549.232 154.85 551.416 143.91 553.625L143.906 553.626C114.747 559.513 84.702 565.58 55.7081 568.589Z" fill="black"/>
<path d="M66.9039 572.856C66.34 572.654 65.7768 572.451 65.2144 572.245C101.277 569.244 138.804 564.006 173.301 557.972C200.671 553.192 227.213 542.791 253.781 532.379L255.942 531.532C283.217 520.848 310.542 510.314 338.767 506.068C350.164 504.354 362.024 504.022 374.198 504.75C373.959 504.987 373.719 505.224 373.478 505.46C361.588 504.786 350.009 505.136 338.879 506.81C310.75 511.041 283.502 521.542 256.215 532.231L254.025 533.089L254.024 533.089C227.479 543.492 200.875 553.918 173.43 558.711C139.437 564.657 102.495 569.831 66.9039 572.856Z" fill="black"/>
<path d="M82.6918 578.007C81.9359 577.784 81.1812 577.558 80.4279 577.329C110.554 576.403 140.719 574.102 170.979 569.585C198.558 565.464 225.42 556.05 252.308 546.627L252.309 546.627L253.658 546.154C280.984 536.579 308.348 527.087 336.463 523.276C342.677 522.436 349.01 521.949 355.44 521.771C355.128 522.031 354.815 522.29 354.501 522.549C348.426 522.747 342.441 523.225 336.563 524.02C308.537 527.818 281.243 537.283 253.906 546.862L252.527 547.345C225.661 556.76 198.74 566.195 171.09 570.327C141.547 574.737 112.097 577.036 82.6918 578.007Z" fill="black"/>
<path d="M125.534 587.243C124.299 587.072 123.066 586.893 121.836 586.706C138.033 585.797 154.183 584.472 170.271 582.617C198.281 579.385 225.96 571.451 253.684 563.503L253.944 563.429C255.098 563.098 256.252 562.767 257.406 562.437C278.347 556.441 299.322 550.558 320.468 546.826C319.875 547.188 319.28 547.549 318.684 547.908C298.236 551.643 277.927 557.342 257.613 563.158C256.365 563.515 255.118 563.873 253.87 564.23C226.163 572.173 198.43 580.123 170.357 583.362C155.464 585.08 140.519 586.343 125.534 587.243Z" fill="black"/>
</svg>
