<svg width="295" height="190" viewBox="0 0 295 190" fill="none" xmlns="http://www.w3.org/2000/svg">
<path d="M233.281 5.72792C237.24 5.06511 241.195 4.39069 245.15 3.71632C248.51 3.14329 251.871 2.5703 255.233 2.00451C256.656 1.765 258.079 1.52678 259.503 1.29041C263.723 0.770662 267.97 0.339879 272.244 0C266.607 0.871669 260.981 1.79756 255.357 2.74411C251.999 3.3093 248.641 3.88188 245.282 4.45466L245.28 4.45496C237.762 5.73699 230.237 7.02003 222.689 8.2234C226.195 7.32845 229.726 6.4962 233.281 5.72792Z" fill="black"/>
<path d="M167.843 28.2191C168.555 27.876 169.268 27.5357 169.983 27.1981C174.126 26.6896 178.274 26.2085 182.426 25.7593C203.948 23.4267 224.834 18.9572 245.705 14.4909L245.711 14.4897C249.087 13.7671 252.464 13.0446 255.843 12.3312C280.098 7.20993 304.461 2.56219 329.855 1.76632C331.629 1.71023 333.402 1.66614 335.174 1.63336C336.805 1.84934 338.431 2.07863 340.053 2.3211C336.665 2.34529 333.274 2.40861 329.878 2.51594C304.556 3.30957 280.249 7.94457 255.997 13.065C252.621 13.778 249.245 14.5003 245.868 15.2231C224.998 19.6892 204.07 24.1678 182.507 26.5049C177.612 27.0344 172.725 27.6082 167.843 28.2191Z" fill="black"/>
<path d="M136.368 45.8423C136.853 45.5299 137.34 45.219 137.828 44.9094C152.099 43.1726 166.301 41.3701 180.383 39.5151C203.003 36.5373 224.678 30.6255 246.333 24.7195L246.334 24.7192C249.848 23.7609 253.361 22.8028 256.877 21.8574C282.055 15.088 307.396 8.97372 334.285 8.16695C348.082 7.75318 361.707 8.46655 375.236 9.80352C376.621 10.1881 378.001 10.5824 379.378 10.9865C364.487 9.37564 349.5 8.461 334.307 8.91662C307.513 9.72056 282.244 15.8137 257.072 22.5816C253.56 23.5259 250.049 24.4833 246.537 25.4413C224.885 31.3468 203.156 37.2737 180.481 40.2587C165.886 42.1812 151.164 44.0472 136.368 45.8423Z" fill="black"/>
<path d="M115.81 60.3338C116.166 60.0598 116.522 59.7865 116.879 59.514C137.482 58.1834 157.938 56.3616 178.029 53.6299C202.806 50.2592 226.118 42.2185 249.44 34.1742L249.444 34.1729C252.4 33.1532 255.356 32.1335 258.316 31.1233C284.61 22.1473 311.144 13.9223 339.945 13.1895C364.41 12.5732 387.842 16.8849 411.043 22.2912C412.359 22.8479 413.67 23.4138 414.976 23.9889C390.445 18.1441 365.774 13.2891 339.964 13.9393C311.288 14.6689 284.849 22.8582 258.558 31.833C255.599 32.843 252.642 33.8629 249.685 34.8832C226.371 42.9252 202.986 50.9917 178.13 54.373C157.661 57.1562 136.808 58.9959 115.81 60.3338Z" fill="black"/>
<path d="M100.002 73.4076C100.279 73.1617 100.557 72.9163 100.835 72.6714C126.115 73.0811 151.17 72.238 175.366 68.0648C201.01 63.6502 224.988 53.7138 248.971 43.7755L248.975 43.7739C252.633 42.258 256.292 40.742 259.956 39.2456C287.627 27.9457 315.627 17.7687 346.412 17.2588C374.597 16.7913 400.586 24.6906 426.308 33.6143C429.917 34.8663 433.52 36.1382 437.123 37.4102C440.913 38.7483 444.703 40.0863 448.5 41.401C449.493 42.0001 450.481 42.605 451.466 43.2154C446.586 41.5466 441.723 39.8297 436.863 38.1141L436.861 38.1135C433.261 36.8424 429.663 35.5721 426.062 34.3229C400.348 25.4017 374.466 17.5436 346.425 18.0087C315.791 18.5161 287.905 28.6423 260.239 39.9399C256.58 41.4342 252.925 42.949 249.268 44.4647L249.266 44.4653C225.289 54.4018 201.226 64.374 175.494 68.8039C150.972 73.0333 125.583 73.8493 100.002 73.4076Z" fill="black"/>
<path d="M88.0306 84.63C88.259 84.4038 88.4877 84.1779 88.7168 83.9524C117.095 87.1272 145.314 88.3787 172.555 82.6696C198.96 77.1462 223.731 65.2066 248.532 53.253C252.941 51.1281 257.351 49.0024 261.771 46.9125C291.031 33.077 320.725 20.8089 353.453 20.6921C382.122 20.5858 407.587 30.8604 432.642 42.4553C436.323 44.1587 439.995 45.8903 443.666 47.6218C455.897 53.3905 468.129 59.1592 480.698 63.882C481.309 64.3716 481.918 64.8635 482.524 65.3578C469.173 60.4822 456.234 54.3797 443.332 48.2938C439.664 46.5637 435.999 44.8348 432.327 43.1359C407.281 31.5452 381.946 21.3364 353.456 21.4421C320.908 21.5583 291.345 33.7581 262.091 47.5906C257.683 49.6751 253.281 51.797 248.876 53.9199L248.874 53.921C224.077 65.8739 199.211 77.8599 172.709 83.4037C145.159 89.1775 116.637 87.8576 88.0306 84.63Z" fill="black"/>
<path d="M78.4401 94.5836C78.6364 94.3702 78.833 94.1571 79.0299 93.9442C109.351 100.521 139.641 104.73 169.682 97.3806C197.049 90.6852 222.838 76.7677 248.698 62.8123C253.683 60.1218 258.671 57.4299 263.674 54.788C294.598 38.4571 326.057 24.0516 360.723 23.9135C389.805 23.7965 414.843 36.5361 439.286 50.982C443.135 53.2569 446.969 55.5738 450.802 57.8898C468.44 68.5486 486.052 79.1906 504.993 85.6549C505.387 86.049 505.78 86.4443 506.171 86.8406C486.594 80.3977 468.463 69.4406 450.391 58.5187L450.39 58.5178C446.563 56.2051 442.739 53.894 438.904 51.6276C414.47 37.1869 389.586 24.5474 360.726 24.6635C326.259 24.8008 294.943 39.1231 264.024 55.4512C259.036 58.0854 254.058 60.7722 249.079 63.4595L249.077 63.4606C223.219 77.4163 197.33 91.3887 169.861 98.1092C139.541 105.527 109.005 101.229 78.5574 94.6091C78.5183 94.6006 78.4792 94.5921 78.4401 94.5836Z" fill="black"/>
<path d="M70.4426 103.643C70.6171 103.437 70.7919 103.231 70.967 103.025C72.8417 103.641 74.7164 104.248 76.5912 104.842C106.151 114.215 135.808 120.592 166.81 112.028C194.946 104.252 221.746 88.3902 248.685 72.446C254.287 69.1301 259.896 65.8107 265.524 62.5596C298.182 43.694 331.474 27.1453 367.867 27.1984C397.414 27.241 422.042 42.4314 445.871 59.6584C449.787 62.489 453.68 65.3741 457.57 68.2568L457.573 68.2584C477.39 82.9432 497.124 97.5659 519.259 104.614C520.63 105.051 522.006 105.456 523.387 105.83C523.661 106.161 523.935 106.492 524.209 106.824C522.477 106.374 520.75 105.876 519.031 105.329C496.766 98.2391 476.913 83.5259 457.097 68.8405C453.213 65.9622 449.331 63.0848 445.432 60.2662C421.608 43.0432 397.152 27.9906 367.866 27.9484C331.692 27.8956 298.554 44.3451 265.899 63.209C260.288 66.4502 254.691 69.7629 249.096 73.0748C222.156 89.0207 195.252 104.946 167.01 112.751C135.789 121.375 105.955 114.94 76.3645 105.557C74.3894 104.931 72.4156 104.291 70.4426 103.643Z" fill="black"/>
<path d="M63.5498 112.087C63.7094 111.884 63.8693 111.681 64.0294 111.479C67.4918 113.014 70.9523 114.522 74.4162 115.975C103.004 127.973 131.867 136.332 164.089 126.548C192.882 117.805 220.662 100.127 248.667 82.3063L248.668 82.3052C254.852 78.3703 261.046 74.4284 267.265 70.5741C301.614 49.2855 336.692 30.684 374.609 30.971C404.629 31.1946 428.882 48.7467 452.129 68.6156C456.052 71.969 459.945 75.3872 463.834 78.8007C471.48 85.5138 479.106 92.2091 486.901 98.3592C498.654 107.631 510.756 115.634 523.812 120.537C528.365 122.247 532.977 123.528 537.642 124.434C537.848 124.727 538.055 125.021 538.26 125.315C533.298 124.395 528.39 123.058 523.549 121.239C510.388 116.297 498.216 108.241 486.437 98.948C478.626 92.7861 470.973 86.0671 463.317 79.3455L463.312 79.3414C459.43 75.9327 455.546 72.5234 451.641 69.1858C428.395 49.317 404.327 31.9424 374.603 31.7209C336.923 31.4357 302.01 49.9226 267.66 71.2116C261.461 75.0534 255.281 78.9869 249.106 82.9166L249.104 82.9178C221.096 100.742 193.208 118.49 164.306 127.266C131.825 137.129 102.755 128.681 74.126 116.667C70.5951 115.185 67.0717 113.649 63.5498 112.087Z" fill="black"/>
<path d="M57.5241 120.023C57.6731 119.82 57.8224 119.617 57.9719 119.414C62.7646 122.078 67.5456 124.703 72.3436 127.202C99.9385 141.577 128.009 151.733 161.623 140.814C191.032 131.257 219.732 111.937 248.743 92.4089L248.747 92.4066C255.413 87.9192 262.095 83.4208 268.807 79.0273C304.688 55.5385 341.381 35.0596 380.63 35.5911C411.164 36.0066 435.055 55.713 457.745 77.9633C461.629 81.7721 465.477 85.6541 469.317 89.5289L469.319 89.5312C476.713 96.9914 484.081 104.425 491.631 111.257C503.098 121.633 514.95 130.586 527.875 136.078C534.747 138.995 541.766 140.774 548.9 141.634C549.064 141.904 549.227 142.175 549.39 142.446C541.994 141.607 534.711 139.794 527.582 136.768C514.545 131.229 502.62 122.212 491.128 111.813C483.563 104.968 476.168 97.5071 468.764 90.0367C464.927 86.1653 461.088 82.2913 457.22 78.4988C434.524 56.2429 410.826 36.7521 380.62 36.341C341.623 35.8129 305.103 56.1631 269.218 79.6548C262.527 84.0345 255.859 88.5237 249.201 93.0058C220.186 112.539 191.374 131.935 161.855 141.527C127.946 152.542 99.6428 142.268 71.9971 127.867C67.1634 125.35 62.3472 122.704 57.5241 120.023Z" fill="black"/>
<path d="M52.1482 127.602C52.2897 127.396 52.4314 127.19 52.5733 126.984C52.7617 127.108 52.9501 127.232 53.1384 127.355L53.1397 127.356C58.9247 131.156 64.67 134.929 70.4516 138.485C97.1127 154.884 124.448 166.605 159.436 154.718C187.778 145.097 215.355 127.763 241.5 111.329C248.249 107.086 254.903 102.903 261.45 98.929C267.813 95.0632 274.668 90.5905 281.884 85.8825C293.885 78.0524 306.883 69.5715 320.272 62.1483C341.725 50.2542 364.295 41.004 385.612 41.398C416.763 41.9735 440.28 63.5193 462.422 87.7828C466.21 91.9336 469.957 96.1629 473.695 100.383L473.697 100.385C480.903 108.519 488.079 116.62 495.464 124.061C506.675 135.357 518.329 145.091 531.213 151.045C539.894 155.056 548.8 157.046 557.864 157.513C557.998 157.77 558.133 158.027 558.267 158.284C548.967 157.855 539.819 155.847 530.899 151.726C517.895 145.716 506.167 135.91 494.932 124.589C487.533 117.134 480.331 109.004 473.115 100.859C469.379 96.6425 465.64 92.4217 461.868 88.2883C439.716 64.0136 416.396 42.7168 385.598 42.1479C364.487 41.7577 342.063 50.9247 320.636 62.8042C307.261 70.2199 294.319 78.6646 282.341 86.4805C275.118 91.1935 268.246 95.6778 261.84 99.57C255.316 103.53 248.678 107.703 241.94 111.939C215.787 128.378 188.112 145.775 159.677 155.428C124.366 167.426 96.7784 155.559 70.0586 139.124C64.2668 135.561 58.5112 131.781 52.7268 127.982C52.5341 127.856 52.341 127.729 52.1482 127.602Z" fill="black"/>
<path d="M47.2789 134.932C47.4143 134.721 47.5501 134.511 47.6861 134.3C48.3263 134.771 48.9655 135.242 49.6039 135.712C50.7701 136.573 51.9336 137.433 53.0951 138.293C58.394 142.212 63.653 146.103 68.9512 149.787C94.7807 167.751 121.447 180.759 157.696 168.198C186.694 158.146 215.011 139.822 241.719 122.539L241.722 122.537C248.753 117.987 255.673 113.51 262.464 109.274C268.961 105.218 275.982 100.498 283.399 95.5126L283.4 95.5119C285.762 93.9242 288.164 92.3096 290.601 90.681C300.69 83.9411 311.384 76.9665 322.363 70.6891C344.311 58.1409 367.45 48.3473 389.216 48.8158C421.109 49.498 444.218 72.4505 465.816 98.2406C469.445 102.574 473.031 106.987 476.609 111.391L476.61 111.392C483.697 120.114 490.755 128.801 498.067 136.767C509.064 148.75 520.595 159.058 533.572 165.332C543.825 170.288 554.335 172.254 565.01 172.105C565.123 172.353 565.236 172.601 565.348 172.85C554.462 173.046 543.725 171.073 533.245 166.007C520.143 159.672 508.536 149.284 497.514 137.275C490.188 129.292 483.104 120.574 476.008 111.841C472.433 107.441 468.854 103.037 465.241 98.7221C443.63 72.9168 420.718 50.2399 389.2 49.5657C367.647 49.1017 344.659 58.8061 322.736 71.3402C311.78 77.6041 301.103 84.5668 291.018 91.3046C288.585 92.93 286.186 94.5425 283.826 96.1291L283.825 96.13C276.406 101.117 269.369 105.847 262.861 109.91C256.095 114.13 249.193 118.597 242.173 123.14L242.17 123.141C215.454 140.431 187.034 158.822 157.941 168.906C121.348 181.587 94.416 168.411 68.523 150.403C63.2149 146.712 57.9458 142.814 52.6464 138.894L52.6309 138.882C51.4752 138.027 50.318 137.171 49.1587 136.316C48.5328 135.854 47.9062 135.393 47.2789 134.932Z" fill="black"/>
<path d="M42.7634 142.181C42.8933 141.966 43.0235 141.75 43.1539 141.535C46.6776 144.268 50.1574 147.045 53.6177 149.807C58.4071 153.629 63.159 157.421 67.9375 161.026C80.5094 170.51 93.3101 178.737 107.631 182.989C121.94 187.237 137.788 187.522 156.467 181.083C185.806 170.964 214.627 151.919 241.617 134.083L241.619 134.082C248.892 129.276 256.031 124.558 263.012 120.126C269.6 115.947 276.708 111.085 284.212 105.953L284.221 105.947C286.58 104.333 288.979 102.693 291.412 101.038C301.584 94.1241 312.362 86.9725 323.437 80.5373C345.575 67.6734 368.953 57.6404 391.102 58.1196C423.934 58.8445 446.593 82.6637 467.643 109.376C471.042 113.69 474.4 118.079 477.751 122.461L477.753 122.463C484.795 131.67 491.814 140.846 499.157 149.237C509.991 161.617 521.494 172.242 534.737 178.663C546.505 184.37 558.489 186.105 570.598 185.193C570.695 185.436 570.792 185.68 570.888 185.923C558.59 186.883 546.395 185.15 534.41 179.338C521.034 172.852 509.452 162.14 498.593 149.731C491.233 141.322 484.189 132.112 477.138 122.895C473.79 118.516 470.439 114.136 467.054 109.84C445.992 83.1125 423.53 59.5857 391.086 58.8694C369.153 58.3949 345.927 68.3367 323.813 81.1858C312.762 87.6071 302.002 94.7464 291.834 101.659C289.408 103.308 287.016 104.944 284.661 106.554L284.644 106.566L284.643 106.566C277.137 111.7 270.013 116.572 263.414 120.76C256.461 125.174 249.34 129.88 242.079 134.678L242.078 134.678C215.08 152.521 186.15 171.639 156.711 181.792C137.888 188.281 121.88 188.002 107.417 183.708C92.9656 179.417 80.0785 171.124 67.4858 161.624C62.6714 157.992 57.9063 154.189 53.113 150.364C49.6873 147.63 46.2464 144.884 42.7634 142.181Z" fill="black"/>
<path d="M38.111 150.177C38.2344 149.957 38.358 149.737 38.4819 149.518C43.4747 153.274 48.3641 157.162 53.2152 161.019C58.0473 164.862 62.8414 168.674 67.6615 172.295C80.2439 181.747 93.0498 189.936 107.346 194.146C121.632 198.352 137.427 198.591 155.999 192.104C185.379 181.845 214.245 163.098 241.403 145.459C248.812 140.646 256.095 135.916 263.226 131.464C269.996 127.235 277.323 122.286 285.063 117.057L285.065 117.055L285.078 117.047C287.266 115.569 289.487 114.068 291.737 112.556C301.953 105.69 312.777 98.574 323.89 92.1537C346.105 79.3195 369.524 69.2343 391.587 69.5218C424.528 69.9589 447.051 93.915 467.933 120.817C471.303 125.159 474.63 129.576 477.951 133.987L477.954 133.99C484.94 143.267 491.904 152.515 499.202 160.963C509.965 173.422 521.416 184.095 534.652 190.489C547.909 196.896 561.346 198.317 574.878 196.613C574.962 196.855 575.047 197.096 575.131 197.337C561.431 199.087 547.792 197.673 534.326 191.164C520.954 184.704 509.423 173.942 498.634 161.453C491.321 152.987 484.331 143.705 477.336 134.416L477.329 134.407C474.012 130.003 470.695 125.598 467.341 121.277C446.446 94.3585 424.123 70.7036 391.577 70.2717C369.727 69.987 346.456 79.9826 324.266 92.8031C313.176 99.2101 302.369 106.315 292.156 113.178C289.905 114.691 287.682 116.193 285.492 117.672L285.49 117.673C277.748 122.904 270.406 127.863 263.624 132.1C256.52 136.535 249.256 141.253 241.858 146.058L241.857 146.059C214.69 163.704 185.721 182.52 156.246 192.812C137.529 199.349 121.574 199.117 107.135 194.865C92.7068 190.617 79.8143 182.363 67.211 172.895C62.3542 169.246 57.547 165.423 52.7111 161.577C47.8987 157.75 43.0577 153.9 38.111 150.177Z" fill="black"/>
<path d="M33.3361 159.038C33.4518 158.814 33.5677 158.591 33.6839 158.368C38.4897 161.651 43.203 165.063 47.8722 168.481C49 169.306 50.1252 170.132 51.2485 170.956C56.587 174.874 61.8827 178.761 67.2172 182.438C93.0356 200.234 119.654 213.047 155.744 200.37C185.179 190.033 213.959 172.544 241.444 155.843L241.445 155.842C249.023 151.237 256.503 146.692 263.871 142.372C271.121 138.123 279.047 133.044 287.449 127.66C289.188 126.546 290.947 125.419 292.725 124.283C303.089 117.663 314.082 110.759 325.332 104.506C347.82 92.0073 371.39 82.0779 393.089 82.2376C425.291 82.4829 447.635 106.198 468.331 132.881C471.784 137.334 475.19 141.867 478.59 146.392C485.397 155.452 492.176 164.475 499.247 172.732C509.845 185.107 521.058 195.71 533.913 202.062C548.576 209.307 563.501 210.367 578.554 207.794C578.628 208.035 578.701 208.276 578.775 208.517C563.57 211.131 548.45 210.081 533.581 202.734C520.591 196.316 509.299 185.623 498.678 173.22C491.592 164.946 484.786 155.888 477.97 146.816C474.574 142.297 471.175 137.773 467.738 133.341C447.027 106.638 424.886 83.2298 393.084 82.9876C371.59 82.8294 348.165 92.6735 325.696 105.162C314.468 111.403 303.492 118.296 293.129 124.915C291.355 126.049 289.599 127.174 287.863 128.286L287.859 128.288C279.456 133.672 271.515 138.761 264.25 143.02C256.906 147.325 249.443 151.86 241.875 156.459L241.874 156.46C214.38 173.167 185.51 190.711 155.993 201.077C119.559 213.875 92.6745 200.896 66.7915 183.055C61.4467 179.371 56.14 175.476 50.801 171.558C49.6787 170.734 48.555 169.91 47.4292 169.086C42.7853 165.687 38.1046 162.298 33.3361 159.038Z" fill="black"/>
<path d="M28.7329 168.34C28.8403 168.113 28.9479 167.886 29.0559 167.66C34.9147 171.15 40.6525 174.824 46.3367 178.497C47.2081 179.06 48.0782 179.623 48.9473 180.186C54.7452 183.938 60.4976 187.661 66.2848 191.165C92.8963 207.277 120.154 218.7 155.409 206.79C185.122 196.742 214.176 180.655 242.241 165.117C249.892 160.881 257.468 156.686 264.965 152.666C272.711 148.512 281.242 143.459 290.298 138.095C291.65 137.294 293.015 136.486 294.39 135.673C304.968 129.419 316.182 122.873 327.62 116.942C350.482 105.085 374.29 95.6519 395.741 95.9287C427.211 96.3233 448.976 119.625 469.092 145.84C472.495 150.274 475.849 154.791 479.197 159.297L479.197 159.298C485.763 168.139 492.301 176.941 499.118 185.009C509.405 197.185 520.287 207.639 532.772 213.953C548.739 222.024 565.147 222.588 581.757 219.03C581.82 219.272 581.884 219.515 581.947 219.757C565.204 223.348 548.604 222.797 532.434 214.622C519.815 208.241 508.855 197.697 498.545 185.493C491.713 177.408 485.15 168.571 478.575 159.718C475.231 155.216 471.884 150.71 468.497 146.297C448.367 120.063 426.802 97.0682 395.731 96.6786C374.477 96.4044 350.811 105.759 327.965 117.607C316.548 123.528 305.349 130.065 294.771 136.318C293.405 137.126 292.049 137.929 290.704 138.726L290.682 138.739C281.628 144.102 273.081 149.164 265.319 153.327C257.843 157.336 250.281 161.524 242.64 165.754C214.567 181.298 185.433 197.428 155.65 207.501C120.077 219.518 92.5705 207.957 65.8964 191.807C60.0989 188.297 54.3363 184.567 48.5393 180.815C47.6703 180.253 46.8004 179.69 45.9296 179.127C40.2655 175.467 34.5573 171.812 28.7329 168.34Z" fill="black"/>
<path d="M24.2998 178.173C24.3985 177.943 24.4975 177.713 24.5968 177.483C31.946 181.137 39.1364 185.043 46.2675 188.917C52.5133 192.311 58.7136 195.679 64.9353 198.831C92.4922 212.794 120.526 222.564 155.036 211.81C185.082 202.445 214.546 187.98 243.267 173.879C251.04 170.063 258.76 166.273 266.421 162.618C274.767 158.641 284 153.718 293.793 148.496L293.795 148.496L293.894 148.443C294.794 147.963 295.699 147.48 296.608 146.996C307.445 141.222 318.913 135.166 330.565 129.688C353.859 118.738 377.944 110.073 399.263 110.616C430.012 111.416 450.884 134.133 470.119 159.647C473.36 163.946 476.553 168.323 479.74 172.691C486.029 181.311 492.294 189.898 498.85 197.782C508.721 209.656 519.214 219.885 531.355 226.162C548.479 235.013 566.339 234.967 584.504 230.361C584.558 230.605 584.612 230.85 584.665 231.094C566.386 235.724 548.338 235.784 531.011 226.828C518.737 220.483 508.168 210.164 498.273 198.262C491.703 190.36 485.413 181.739 479.115 173.107L479.114 173.106C475.931 168.742 472.745 164.376 469.52 160.099C450.273 134.569 429.597 112.155 399.244 111.365C378.113 110.827 354.163 119.424 330.884 130.367C319.251 135.836 307.798 141.884 296.961 147.658C296.017 148.161 295.078 148.661 294.143 149.16C284.354 154.38 275.106 159.311 266.744 163.295C259.102 166.941 251.395 170.724 243.63 174.537L243.627 174.538C214.899 188.642 185.366 203.142 155.259 212.526C120.467 223.368 92.2112 213.492 64.5964 199.5C58.3331 196.327 52.1058 192.944 45.8434 189.542C38.7419 185.685 31.595 181.802 24.2998 178.173Z" fill="black"/>
<path d="M20.1244 188.438C20.2142 188.205 20.3043 187.972 20.3947 187.739C28.0683 190.765 35.612 194.014 43.1035 197.241L43.1049 197.242C49.822 200.135 56.4971 203.01 63.1859 205.69C91.8201 217.162 120.76 225.083 154.561 215.749C185.026 207.347 215.013 194.679 244.48 182.231L244.484 182.229C252.377 178.895 260.233 175.576 268.051 172.359C277.04 168.662 287.004 164.001 297.551 159.069L299.111 158.339C310.232 153.139 321.969 147.678 333.853 142.763C357.61 132.937 382.005 125.267 403.297 126.236C433.417 127.601 453.132 149.627 471.232 174.267C474.185 178.287 477.094 182.375 479.999 186.457L480 186.459C486.015 194.911 492.011 203.337 498.339 211.077C507.72 222.549 517.795 232.465 529.661 238.645C547.863 248.129 567.122 247.372 586.783 241.704C586.828 241.951 586.872 242.199 586.917 242.446C567.162 248.128 547.719 248.9 529.314 239.31C517.316 233.061 507.165 223.055 497.759 211.552C491.414 203.792 485.392 195.329 479.368 186.865L479.366 186.861C476.465 182.786 473.565 178.709 470.628 174.711C452.519 150.06 432.994 128.332 403.263 126.985C382.147 126.025 357.883 133.636 334.14 143.456C322.274 148.364 310.551 153.818 299.429 159.018L297.862 159.751L297.861 159.752C287.321 164.681 277.342 169.348 268.336 173.053C260.532 176.264 252.685 179.579 244.797 182.912C215.324 195.362 185.278 208.056 154.76 216.472C120.72 225.872 91.5904 217.878 62.907 206.386C56.1792 203.691 49.479 200.805 42.7464 197.905C35.2729 194.686 27.7595 191.45 20.1244 188.438Z" fill="black"/>
<path d="M16.299 198.973C16.3799 198.736 16.4611 198.499 16.5426 198.262C24.2921 200.522 31.9565 202.953 39.5833 205.372C46.777 207.653 53.9379 209.924 61.1046 212.031C90.913 220.794 120.878 226.743 154.024 218.988C184.962 211.755 215.54 201.03 245.751 190.434C253.761 187.625 261.746 184.824 269.704 182.1C279.462 178.763 290.275 174.455 301.681 169.911L301.706 169.901C313.118 165.355 325.119 160.574 337.228 156.304C361.438 147.766 386.132 141.246 407.482 142.725C437.749 144.815 455.68 166.472 472.094 190.28C474.286 193.458 476.45 196.674 478.613 199.888C484.564 208.733 490.506 217.565 496.987 225.561C505.818 236.457 515.62 245.761 527.738 251.375C547.663 260.61 568.027 259.081 588.547 252.64C588.582 252.891 588.617 253.142 588.652 253.393C568.062 259.837 547.534 261.377 527.422 252.055C515.158 246.373 505.27 236.972 496.404 226.033C489.9 218.009 483.93 209.135 477.973 200.281C475.814 197.073 473.657 193.867 471.477 190.705C455.058 166.892 437.309 145.536 407.43 143.473C386.244 142.006 361.674 148.478 337.478 157.011C325.385 161.276 313.397 166.051 301.984 170.598L301.947 170.613C290.55 175.153 279.722 179.467 269.947 182.81C262.001 185.529 254.025 188.327 246.02 191.135C215.804 201.733 185.177 212.475 154.195 219.718C120.857 227.518 90.7389 221.525 60.8931 212.75C53.6932 210.634 46.5117 208.356 39.3051 206.071C31.6816 203.654 24.0301 201.227 16.299 198.973Z" fill="black"/>
<path d="M12.815 209.859C12.8869 209.618 12.9591 209.378 13.0315 209.137C20.3976 210.622 27.7397 212.218 35.0702 213.813C41.5541 215.223 48.0293 216.631 54.504 217.958C84.2534 224.054 114.022 228.445 144.767 223.518C182.104 217.542 218.903 207.021 255.501 196.557C269.11 192.666 282.691 188.783 296.263 185.145C304.222 183.014 312.799 180.347 321.735 177.569L323.237 177.102C332.711 174.157 342.565 171.115 352.479 168.484C372.3 163.222 392.4 159.588 410.233 161.652C441.197 165.233 458.12 186.48 473.893 209.285C475.37 211.42 476.836 213.568 478.304 215.718L478.308 215.725C492.537 236.568 506.803 257.467 530.726 266.795C549.856 274.263 569.795 271.74 590.012 264.752C590.038 265.008 590.063 265.263 590.088 265.52C569.828 272.497 549.751 275.027 530.453 267.493C506.302 258.076 491.902 236.976 477.699 216.163C476.226 214.005 474.755 211.85 473.276 209.711C457.503 186.907 440.749 165.937 410.146 162.397C392.459 160.35 372.472 163.953 352.671 169.209C342.775 171.836 332.935 174.873 323.46 177.818L321.953 178.286C313.022 181.063 304.432 183.735 296.457 185.869C282.912 189.5 269.347 193.379 255.747 197.267C219.134 207.735 182.271 218.275 144.886 224.258C114.001 229.208 84.1205 224.792 54.3534 218.692C47.8588 217.361 41.3707 215.95 34.8788 214.539C27.5344 212.942 20.1844 211.344 12.815 209.859Z" fill="black"/>
<path d="M9.86875 220.443C9.93199 220.198 9.99553 219.953 10.0594 219.709C17.2102 220.462 24.3543 221.277 31.4939 222.091C38.2721 222.863 45.0472 223.636 51.8193 224.355C82.4675 227.61 113.089 229.784 143.934 226.038C181.738 221.442 219.23 213.513 256.618 205.606C270.417 202.687 284.201 199.772 297.982 197.028C306.662 195.303 315.977 193.044 325.634 190.698L325.903 190.633C335.475 188.308 345.378 185.902 355.316 183.855C375.372 179.723 395.604 177.041 413.588 179.434C443.413 183.399 459.406 203.544 474.288 225.092C475.653 227.069 477.009 229.058 478.366 231.047C491.817 250.774 505.304 270.552 528.375 279.659C548.286 287.52 569.422 284.291 590.948 276.389C590.963 276.65 590.979 276.911 590.994 277.172C569.446 285.052 548.178 288.283 528.099 280.357C504.802 271.16 491.184 251.184 477.756 231.485L477.754 231.483C476.394 229.488 475.037 227.496 473.671 225.518C458.792 203.975 442.963 184.096 413.489 180.177C395.635 177.802 375.504 180.461 355.467 184.589C345.542 186.634 335.65 189.037 326.075 191.363L325.811 191.427C316.157 193.772 306.827 196.035 298.128 197.764C284.368 200.504 270.596 203.416 256.804 206.333L256.802 206.333C219.404 214.243 181.863 222.182 144.024 226.782C113.091 230.539 82.3991 228.357 51.7401 225.101C44.9549 224.38 38.1722 223.607 31.3887 222.834L31.3876 222.833C24.2166 222.016 17.0449 221.199 9.86875 220.443Z" fill="black"/>
<path d="M7.36731 230.918C7.42202 230.669 7.47704 230.419 7.53237 230.17C14.2186 230.283 20.9049 230.416 27.5906 230.549H27.5917C34.755 230.692 41.9175 230.835 49.0782 230.952C80.4553 231.466 111.806 231.492 143.079 228.898C181.418 225.726 219.604 220.41 257.754 215.1L257.756 215.099C271.599 213.172 285.438 211.246 299.278 209.423C308.239 208.242 317.751 206.596 327.553 204.872C328.304 204.74 329.056 204.608 329.81 204.475C338.898 202.875 348.215 201.235 357.543 199.863C377.744 196.892 398.034 195.173 416.242 197.852C444.905 202.062 460.133 221.008 474.307 241.21C475.577 243.02 476.838 244.839 478.099 246.659C490.941 265.187 503.817 283.762 526.086 292.545C546.64 300.655 568.796 296.786 591.428 288.106C591.434 288.372 591.439 288.637 591.444 288.904C568.81 297.55 546.53 301.417 525.81 293.243C503.318 284.372 490.313 265.604 477.493 247.102L477.485 247.091C476.222 245.268 474.961 243.449 473.693 241.641C459.526 221.449 444.458 202.755 416.133 198.594C398.037 195.932 377.836 197.636 357.653 200.605C348.334 201.975 339.027 203.614 329.936 205.214L327.683 205.611C317.882 207.334 308.355 208.984 299.376 210.166C285.548 211.988 271.716 213.913 257.876 215.84C219.719 221.152 181.502 226.472 143.141 229.645C111.829 232.243 80.4479 232.216 49.066 231.702C41.9031 231.585 34.7406 231.442 27.5789 231.299L27.5667 231.299C20.8328 231.165 14.0994 231.031 7.36731 230.918Z" fill="black"/>
<path d="M5.27935 241.325C5.32547 241.071 5.37192 240.818 5.41869 240.564C14.3129 240.006 23.2066 239.439 32.1003 238.871C68.7803 236.53 105.461 234.189 142.182 232.52C181.307 230.741 220.384 228.013 259.463 225.284C272.961 224.342 286.459 223.4 299.959 222.496C310.623 221.78 321.867 220.527 333.37 219.244C341.771 218.308 350.31 217.356 358.862 216.587C379.099 214.766 399.36 213.973 417.835 216.863C445.367 221.158 460.074 238.824 473.792 257.605C474.995 259.253 476.19 260.908 477.386 262.564C489.841 279.814 502.322 297.101 523.837 305.43C544.978 313.626 567.957 309.213 591.449 299.919C591.445 300.19 591.439 300.461 591.434 300.732C567.959 309.981 544.867 314.387 523.566 306.129C501.833 297.716 489.223 280.246 476.789 263.019C475.589 261.357 474.391 259.697 473.186 258.048C459.479 239.28 444.929 221.849 417.719 217.604C399.338 214.729 379.151 215.514 358.93 217.334C350.417 218.1 341.889 219.05 333.489 219.986L333.486 219.986C321.961 221.27 310.678 222.528 300.009 223.245C286.514 224.148 273.019 225.09 259.523 226.032C220.442 228.76 181.351 231.489 142.216 233.27C105.496 234.938 68.8354 237.278 32.1671 239.618L32.1634 239.619L32.1576 239.619C23.1989 240.191 14.2398 240.762 5.27935 241.325Z" fill="black"/>
<path d="M3.57308 251.765C3.61039 251.508 3.64803 251.25 3.686 250.993C10.8599 250.052 18.0285 249.08 25.1965 248.108L25.2039 248.107C31.445 247.261 37.6855 246.415 43.9285 245.589C76.1819 241.324 108.494 237.607 141.241 237.268C176.479 236.915 211.717 236.769 246.955 236.623H246.957L246.986 236.622C264.595 236.549 282.204 236.477 299.812 236.378C311.715 236.311 324.126 235.697 336.728 235.073L336.73 235.073C344.115 234.708 351.566 234.339 359.018 234.076C379.171 233.363 399.308 233.42 418.069 236.404C444.543 240.624 459.042 256.927 472.626 274.213C473.796 275.702 474.959 277.198 476.122 278.694C488.48 294.589 500.854 310.504 521.713 318.25C543.439 326.315 566.979 321.495 591.003 311.798C590.987 312.075 590.97 312.351 590.954 312.627C566.964 322.268 543.325 327.073 521.452 318.953C500.383 311.129 487.88 295.044 475.541 279.17L475.526 279.15C474.364 277.655 473.203 276.161 472.036 274.677C458.466 257.408 444.121 241.316 417.951 237.144C399.263 234.172 379.185 234.113 359.044 234.825C351.617 235.088 344.176 235.456 336.795 235.821L336.792 235.821C324.176 236.445 311.732 237.061 299.816 237.128C282.198 237.227 264.58 237.3 246.962 237.373H246.954C211.719 237.519 176.484 237.665 141.249 238.018C108.55 238.357 76.2756 242.068 44.0269 246.333C37.7871 247.158 31.5481 248.004 25.3072 248.85C18.0664 249.832 10.8231 250.814 3.57308 251.765Z" fill="black"/>
<path d="M2.22793 262.389C2.25605 262.129 2.2845 261.87 2.31329 261.61C9.44217 260.284 16.5594 258.906 23.6746 257.528L23.6758 257.528C29.7307 256.355 35.7842 255.183 41.842 254.044C74.2612 247.944 106.794 242.777 140.278 243.499C160.342 243.935 180.843 244.136 201.574 244.339L201.576 244.339C273.381 245.041 347.942 245.771 416.626 256.431C442.114 260.395 456.781 275.269 470.636 290.993C471.788 292.3 472.934 293.613 474.08 294.925L474.091 294.938C486.741 309.429 499.395 323.924 519.796 330.921C542.14 338.591 565.926 333.53 590.08 323.678C590.053 323.96 590.025 324.241 589.997 324.523C565.889 334.308 542.024 339.344 519.553 331.63C498.952 324.565 486.17 309.919 473.538 295.446C472.384 294.124 471.231 292.803 470.074 291.489C456.234 275.783 441.719 261.092 416.511 257.172C347.886 246.521 273.4 245.792 201.604 245.089C180.864 244.887 160.347 244.686 140.262 244.249C106.86 243.529 74.3922 248.683 41.9807 254.781C35.9364 255.918 29.8936 257.088 23.847 258.259L23.8319 258.262C16.6388 259.654 9.44049 261.048 2.22793 262.389Z" fill="black"/>
<path d="M1.25337 273.252C1.27197 272.991 1.29091 272.73 1.31019 272.469C8.43551 270.824 15.546 269.104 22.6554 267.383C27.2606 266.269 31.8654 265.155 36.4734 264.061C67.6676 256.659 98.9962 250.215 131.529 251.213C224.395 254.054 322.534 264.249 414.563 276.648C439.451 280.004 455.148 294.411 470.318 309.231C471.062 309.958 471.806 310.687 472.549 311.415C486.961 325.538 501.269 339.559 522.981 344.601C544.773 349.669 566.704 344.699 588.654 335.713C588.614 336 588.574 336.287 588.533 336.573C566.639 345.486 544.673 350.415 522.811 345.332C500.889 340.24 486.441 326.08 472.058 311.984C471.303 311.245 470.549 310.505 469.794 309.767C454.625 294.948 439.083 280.712 414.463 277.392C322.448 264.995 224.336 254.802 131.506 251.963C99.0803 250.968 67.8353 257.39 36.6466 264.791C32.045 265.883 27.4443 266.996 22.8413 268.11C15.6555 269.849 8.46359 271.59 1.25337 273.252Z" fill="black"/>
<path d="M0.65057 284.94C0.658883 284.68 0.667532 284.421 0.676515 284.161C8.44226 282.225 16.1809 280.171 23.9171 278.116C27.8548 277.071 31.7918 276.026 35.7315 274.996C66.7687 266.886 97.9562 259.772 130.795 261.45C177.048 263.803 223.467 270.259 269.817 277.428C279.836 278.978 289.853 280.561 299.863 282.143L299.865 282.144C336.167 287.881 372.395 293.607 408.452 297.692C432.929 300.471 449.905 313.157 466.446 326.151C467.162 326.713 467.877 327.276 468.591 327.838C484.408 340.29 500.098 352.642 521.926 356.699C544.05 360.807 565.543 355.926 586.796 347.343C586.744 347.634 586.691 347.925 586.638 348.216C565.45 356.72 543.946 361.551 521.789 357.436C499.775 353.345 483.952 340.887 468.163 328.456C467.436 327.884 466.71 327.312 465.983 326.741C449.441 313.746 432.613 301.19 408.367 298.438C372.292 294.35 336.042 288.621 299.738 282.883C289.73 281.301 279.717 279.718 269.702 278.169C223.357 271.001 176.97 264.55 130.756 262.199C98.0434 260.528 66.954 267.613 35.9211 275.722C31.9863 276.75 28.0523 277.795 24.1159 278.84L24.1149 278.84C16.3103 280.912 8.49672 282.987 0.65057 284.94Z" fill="black"/>
<path d="M0.504423 296.679C0.502622 296.422 0.501148 296.166 0.5 295.909C7.60739 294.244 14.7028 292.499 21.7977 290.753C26.8471 289.511 31.8963 288.269 36.9494 287.056C68.335 279.521 99.8577 273.103 132.426 274.759C195 277.926 258.536 287.185 321.482 296.357C349.119 300.384 376.643 304.395 403.921 307.866C428.357 310.974 446.574 323.625 464.431 336.476C465.041 336.915 465.65 337.354 466.259 337.793C483.507 350.221 500.599 362.536 522.898 366.511C543.779 370.233 564.254 366.119 584.551 358.543C584.487 358.834 584.422 359.125 584.357 359.416C564.131 366.912 543.662 370.974 522.767 367.249C500.296 363.244 483.078 350.837 465.862 338.431C465.239 337.982 464.616 337.533 463.993 337.085C446.128 324.228 428.051 311.691 403.827 308.61C376.519 305.135 348.979 301.122 321.333 297.093L321.331 297.093C258.403 287.923 194.925 278.673 132.388 275.508C99.9355 273.858 68.5031 280.252 37.1244 287.785C32.0812 288.996 27.039 290.237 21.9942 291.478L21.9908 291.478C14.8377 293.238 7.67851 294.999 0.504423 296.679Z" fill="black"/>
<path d="M0.885258 309.84C0.872414 309.588 0.859886 309.335 0.847674 309.083C8.02841 307.694 15.2027 306.245 22.3769 304.795C29.4735 303.362 36.5705 301.928 43.6733 300.553C76.7087 294.156 109.862 289.03 143.684 291.099C227.495 296.229 313.846 305.746 397.016 317.149C421.317 320.478 440.606 331.959 459.526 343.819C460.614 344.501 461.701 345.185 462.788 345.868C480.609 357.072 498.333 368.216 519.924 372.914C541.014 377.496 561.796 374.276 582.426 367.5C582.353 367.787 582.28 368.074 582.206 368.361C561.644 375.062 540.869 378.232 519.765 373.647C498.041 368.92 480.212 357.71 462.414 346.519C461.319 345.83 460.223 345.142 459.127 344.455C440.206 332.594 421.039 321.197 396.914 317.892C313.757 306.491 227.425 296.976 143.638 291.848C109.916 289.785 76.8403 294.895 43.8159 301.289C36.7278 302.661 29.6412 304.093 22.5512 305.525L22.5481 305.526C15.3327 306.984 8.1133 308.442 0.885258 309.84Z" fill="black"/>
<path d="M1.91253 323.668C1.88818 323.419 1.86414 323.17 1.84041 322.92C9.26842 321.857 16.6959 320.748 24.1251 319.639L24.1295 319.638C32.1044 318.448 40.0813 317.257 48.063 316.122C81.5795 311.352 115.167 307.555 148.974 308.838C228.492 311.848 311.266 315.705 390.229 325.52C415.305 328.635 436.491 339.578 457.383 350.875C458.531 351.496 459.677 352.118 460.824 352.739C480.563 363.44 500.213 374.092 522.883 378.486C542.438 382.27 561.552 380.043 580.46 374.846C580.38 375.127 580.301 375.408 580.221 375.689C561.378 380.821 542.287 383.005 522.74 379.223C499.953 374.806 480.209 364.102 460.492 353.412L460.486 353.409C459.333 352.784 458.18 352.159 457.026 351.535C436.13 340.235 415.056 329.359 390.137 326.264C311.209 316.454 228.463 312.597 148.945 309.588C115.209 308.307 81.6762 312.096 48.1686 316.864C40.1972 317.998 32.2264 319.188 24.2547 320.378L24.2525 320.379C16.8072 321.49 9.36096 322.601 1.91253 323.668Z" fill="black"/>
<path d="M3.74385 338.515C3.70685 338.266 3.67015 338.018 3.63376 337.77C11.4281 337.288 19.2266 336.8 27.0286 336.312L27.0331 336.312C145.42 328.908 264.632 321.452 382.846 333.445C409.046 336.101 432.326 346.263 455.371 356.808C456.733 357.432 458.095 358.057 459.456 358.681C481.137 368.629 502.749 378.546 526.604 382.575C544.401 385.581 561.712 384.23 578.79 380.551C578.707 380.824 578.623 381.098 578.539 381.372C561.525 384.999 544.248 386.316 526.479 383.314C502.523 379.268 480.826 369.312 459.165 359.373L459.112 359.348C457.761 358.729 456.41 358.109 455.059 357.49C432.009 346.943 408.832 336.833 382.77 334.191C264.624 322.205 145.486 329.656 27.1009 337.059L27.0919 337.06C19.3058 337.547 11.523 338.034 3.74385 338.515Z" fill="black"/>
<path d="M6.12981 352.271C6.08046 352.022 6.03142 351.773 5.98269 351.523C18.4203 351.354 30.8572 351.218 43.2935 351.082H43.2954C83.2667 350.646 123.231 350.209 163.187 348.661C185.321 347.803 207.816 346.243 230.441 344.675C278.795 341.322 327.741 337.928 375.014 341.265C402.529 343.208 428.111 351.942 453.491 361.363C456.374 362.433 459.254 363.511 462.133 364.59C484.623 373.015 507.107 381.437 530.846 385.649C546.487 388.419 561.894 387.978 577.179 385.685C577.093 385.951 577.007 386.217 576.92 386.482C561.694 388.736 546.324 389.151 530.715 386.387C506.904 382.163 484.352 373.715 461.87 365.293C458.99 364.214 456.111 363.135 453.23 362.066C427.852 352.646 402.358 343.948 374.961 342.013C327.74 338.68 278.887 342.068 230.561 345.419L230.558 345.419C207.921 346.989 185.4 348.551 163.216 349.41C123.258 350.959 83.2666 351.396 43.2801 351.832L43.2739 351.832C30.8916 351.968 18.5099 352.103 6.12981 352.271Z" fill="black"/>
<path d="M9.3332 366.57C9.26961 366.316 9.20634 366.062 9.1434 365.808C20.0399 366.441 30.9435 367.183 41.8477 367.925L41.8531 367.925C50.0917 368.486 58.3305 369.046 66.5668 369.56C101.601 371.745 136.6 373.084 171.391 369.982C194.963 367.876 218.864 364.242 242.881 360.591C251.597 359.265 260.328 357.938 269.065 356.68C301.863 351.959 334.719 348.225 367.031 349.317C395.97 350.294 423.922 357.746 451.706 366.065C456.081 367.375 460.451 368.706 464.82 370.037C488.215 377.163 511.583 384.281 535.459 388.063C549.124 390.227 562.626 390.323 576.038 389.137C575.95 389.395 575.863 389.654 575.775 389.913C562.421 391.073 548.965 390.961 535.342 388.804C511.409 385.013 487.983 377.877 464.59 370.751C460.223 369.421 455.858 368.091 451.491 366.783C423.712 358.466 395.84 351.04 367.006 350.067C334.763 348.976 301.961 352.702 269.172 357.423C260.449 358.678 251.726 360.005 243.014 361.329L243.013 361.329C218.989 364.982 195.054 368.621 171.458 370.729C136.607 373.837 101.562 372.494 66.5201 370.309C58.2725 369.794 50.0257 369.233 41.7818 368.672C30.9593 367.936 20.1417 367.2 9.3332 366.57Z" fill="black"/>
<path d="M13.2667 380.757C13.1868 380.495 13.1073 380.232 13.0282 379.97C24.2453 381.427 35.505 383.096 46.7788 384.767C55.7005 386.09 64.631 387.414 73.5563 388.635C109.335 393.53 145.05 396.776 179.89 391.708C203.336 388.291 226.841 382.362 250.431 376.413L250.432 376.412C256.661 374.841 262.896 373.268 269.138 371.74C299.003 364.428 329.001 358.134 359.111 357.922C389.487 357.71 419.809 363.802 450.006 370.94C456.231 372.411 462.452 373.927 468.666 375.442C492.604 381.276 516.455 387.089 540.219 390.266C551.925 391.836 563.543 392.23 575.109 391.845C575.021 392.098 574.932 392.351 574.843 392.604C563.338 392.974 551.774 392.572 540.119 391.01C516.312 387.827 492.412 382.001 468.469 376.166L468.467 376.165C462.258 374.652 456.047 373.138 449.833 371.669C419.644 364.533 389.396 358.46 359.116 358.672C329.1 358.884 299.174 365.158 269.316 372.469C263.089 373.994 256.864 375.564 250.642 377.133L250.635 377.135C227.04 383.086 203.486 389.027 179.998 392.45C145.048 397.534 109.246 394.274 73.4547 389.378C64.5098 388.154 55.5669 386.828 46.6379 385.505C35.4847 383.851 24.3531 382.201 13.2667 380.757Z" fill="black"/>
<path d="M17.9239 394.775C17.8252 394.501 17.7269 394.227 17.6289 393.953C28.949 396.18 40.3834 398.715 51.8651 401.26L51.8665 401.26C62.4212 403.6 73.0159 405.949 83.5986 408.076C121.384 415.669 159.045 420.443 194.375 411.997C214.167 407.266 234.128 399.517 254.257 391.702C260.114 389.429 265.984 387.15 271.869 384.938C297.959 375.132 324.311 366.656 350.816 365.933C381.344 365.095 412.986 369.748 444.559 375.519C453.2 377.098 461.834 378.761 470.44 380.418L470.447 380.419C493.294 384.82 515.936 389.18 537.946 391.834C550.129 393.303 562.249 393.946 574.333 394.042C574.244 394.292 574.154 394.541 574.065 394.79C562.043 394.686 549.983 394.041 537.856 392.579C515.819 389.921 493.139 385.554 470.283 381.152L470.28 381.151L470.278 381.151C461.677 379.494 453.05 377.833 444.424 376.256C412.861 370.487 381.283 365.847 350.837 366.683C324.465 367.402 298.215 375.837 272.132 385.64C266.267 387.845 260.409 390.119 254.56 392.39C234.423 400.207 214.395 407.982 194.549 412.726C159.05 421.213 121.252 416.408 83.4508 408.811C72.8331 406.677 62.2175 404.324 51.6512 401.981L51.6499 401.981C40.332 399.472 29.0703 396.976 17.9239 394.775Z" fill="black"/>
<path d="M23.2686 408.511C23.1482 408.223 23.0283 407.935 22.9088 407.647C34.5441 410.579 46.3225 413.91 58.1605 417.257L58.1615 417.258C68.7221 420.244 79.3301 423.243 89.9263 425.986C128.303 435.918 166.554 442.491 202.058 433.002C222.446 427.553 241.784 417.198 261.204 406.8C264.697 404.93 268.193 403.058 271.699 401.213C294.666 389.124 318.014 378.2 343.491 376.552C375.33 374.483 409.089 377.693 442.839 382.117C453.707 383.542 464.571 385.092 475.371 386.634L475.372 386.634C498.126 389.881 520.593 393.087 542.194 394.991C552.551 395.902 562.907 396.541 573.263 396.987C573.172 397.234 573.08 397.48 572.989 397.726C562.7 397.28 552.414 396.643 542.128 395.738C520.507 393.832 498.005 390.621 475.24 387.373C464.444 385.832 453.59 384.283 442.742 382.861C409.001 378.437 375.302 375.236 343.539 377.3C318.236 378.937 295.012 389.789 272.048 401.876C268.553 403.716 265.064 405.585 261.574 407.453C242.158 417.85 222.731 428.253 202.252 433.726C166.546 443.269 128.13 436.648 89.7384 426.712C79.1019 423.959 68.4695 420.953 57.8952 417.963C46.2585 414.672 34.6923 411.402 23.2686 408.511Z" fill="black"/>
<path d="M29.6739 422.748C29.5256 422.441 29.3777 422.133 29.2304 421.824C31.8334 422.634 34.4483 423.467 37.0734 424.318C45.5512 427.066 54.1254 430 62.7564 432.954L62.7585 432.954C73.6968 436.697 84.7265 440.472 95.7676 443.939C135.252 456.339 174.557 464.704 209.052 453.332C228.309 446.983 245.505 435.176 262.758 423.33C265.661 421.337 268.566 419.342 271.483 417.372C291.707 403.714 312.476 391.26 337.057 388.823C370.111 385.556 405.722 387.228 441.388 390.177C454.686 391.276 467.987 392.553 481.168 393.818L481.169 393.818L481.171 393.818C503.357 395.947 525.2 398.044 546.103 399.207C554.687 399.686 563.265 400.208 571.84 400.757C571.746 401.002 571.651 401.246 571.556 401.49C563.059 400.947 554.56 400.43 546.061 399.956C525.145 398.792 503.272 396.693 481.072 394.562L481.068 394.562C467.892 393.297 454.6 392.022 441.326 390.924C405.671 387.976 370.115 386.309 337.13 389.57C312.754 391.986 292.122 404.339 271.903 417.994C268.996 419.957 266.098 421.947 263.198 423.939C245.951 435.782 228.654 447.658 209.287 454.044C174.544 465.498 135.031 457.056 95.5429 444.655C84.5071 441.189 73.448 437.405 62.4914 433.656L62.4875 433.655C53.8549 430.701 45.2859 427.769 36.8421 425.031C34.4431 424.254 32.0533 423.491 29.6739 422.748Z" fill="black"/>
<path d="M37.2552 437.406C37.0714 437.073 36.8883 436.741 36.7057 436.408C38.0259 436.887 39.35 437.372 40.6777 437.862C49.32 441.056 58.1044 444.477 66.9714 447.931C78.1129 452.27 89.3849 456.661 100.67 460.713C141.181 475.262 181.48 485.307 215.056 472.581C233.485 465.595 248.716 452.896 263.971 440.176L263.973 440.174C266.429 438.126 268.885 436.079 271.355 434.054C289.148 419.469 307.653 406.112 331.812 403.109C381.041 396.986 436.061 399.735 488.874 402.374C509.583 403.409 529.954 404.427 549.503 404.886C556.315 405.046 563.091 405.365 569.84 405.809C569.741 406.053 569.641 406.297 569.541 406.541C562.885 406.106 556.202 405.793 549.485 405.636C529.891 405.176 509.493 404.157 488.768 403.121L488.767 403.121C435.978 400.483 381.065 397.739 331.905 403.853C307.976 406.827 289.615 420.057 271.83 434.634C269.369 436.652 266.918 438.695 264.465 440.741C249.217 453.457 233.878 466.248 215.322 473.283C181.46 486.116 140.916 475.964 100.416 461.419C89.1403 457.37 77.8383 452.968 66.6786 448.622L66.6762 448.621L66.6725 448.619C57.8029 445.165 49.0232 441.746 40.4177 438.566C39.3611 438.176 38.3068 437.789 37.2552 437.406Z" fill="black"/>
<path d="M43.3612 447.924C43.1628 447.598 42.965 447.272 42.7679 446.945C62.3233 453.24 81.3703 460.768 100.996 468.525C105.577 470.335 110.19 472.159 114.848 473.981C117.456 475.003 120.102 476.057 122.781 477.124C136.707 482.671 151.523 488.573 166.541 492.139C184.441 496.389 202.581 497.308 219.775 490.365C237.759 483.1 251.413 470.158 265.05 457.232C267.165 455.227 269.279 453.224 271.409 451.241C287.253 436.494 303.943 422.974 328.036 419.704C383.032 412.219 443.776 412.35 501.849 412.475H501.852C518.96 412.511 535.837 412.548 552.267 412.389C557.209 412.341 562.104 412.434 566.958 412.646C566.851 412.892 566.743 413.138 566.635 413.383C561.889 413.18 557.104 413.092 552.274 413.139C535.822 413.298 518.931 413.262 501.812 413.225C443.748 413.1 383.076 412.97 328.137 420.447C304.29 423.683 287.749 437.058 271.92 451.79C269.799 453.764 267.69 455.764 265.578 457.766C251.949 470.687 238.182 483.738 220.055 491.061C202.662 498.084 184.348 497.138 166.368 492.869C151.291 489.289 136.415 483.363 122.49 477.816L122.488 477.815C119.813 476.75 117.173 475.698 114.574 474.68C109.914 472.856 105.301 471.033 100.721 469.223C81.3659 461.573 62.5969 454.155 43.3612 447.924Z" fill="black"/>
<path d="M52.8491 462.533C52.6054 462.181 52.3624 461.828 52.1202 461.475C68.8653 467.459 85.2865 474.367 102.195 481.481L102.2 481.483C107.147 483.564 112.135 485.662 117.186 487.76C119.401 488.68 121.66 489.629 123.958 490.595C137.912 496.458 153.298 502.923 168.967 506.953C187.213 511.646 205.789 513.022 222.872 506.323C240.827 499.284 253.489 486.853 266.088 474.484L266.089 474.483C267.958 472.649 269.825 470.815 271.708 469.001C286.273 454.969 301.749 442.122 325.982 438.969C400.007 429.366 479.349 425.444 554.14 422.117C557.025 421.99 559.884 421.925 562.719 421.917C562.599 422.168 562.479 422.418 562.359 422.668C559.653 422.681 556.925 422.745 554.173 422.866C479.38 426.194 400.068 430.114 326.079 439.712C302.096 442.833 286.768 455.534 272.229 469.541C270.354 471.347 268.492 473.175 266.626 475.008L266.624 475.011C254.032 487.375 241.254 499.922 223.146 507.021C205.854 513.802 187.098 512.391 168.78 507.679C153.053 503.634 137.611 497.145 123.66 491.283C121.364 490.318 119.108 489.37 116.898 488.453C111.843 486.353 106.852 484.254 101.905 482.172L101.903 482.172C85.3208 475.196 69.2272 468.426 52.8491 462.533Z" fill="black"/>
<path d="M64.67 478.447C64.3628 478.061 64.0566 477.675 63.7512 477.287C76.3821 482.162 88.9325 487.485 101.77 492.93C106.904 495.108 112.085 497.306 117.335 499.501C119.283 500.316 121.267 501.154 123.285 502.006C137.4 507.964 153.148 514.611 169.212 518.813C187.571 523.615 206.293 525.208 223.41 518.951C241.455 512.357 254.032 500.645 266.531 489.006C268.314 487.345 270.095 485.686 271.89 484.044C286.261 470.898 301.503 458.852 325.582 455.88C400.696 446.618 478.441 438.585 554.089 433.562C555.035 433.499 555.978 433.443 556.918 433.395C556.78 433.652 556.642 433.91 556.504 434.167C555.718 434.21 554.93 434.257 554.139 434.31C478.509 439.332 400.778 447.364 325.674 456.625C301.834 459.566 286.738 471.479 272.397 484.597C270.61 486.232 268.834 487.886 267.054 489.544L267.049 489.548C254.558 501.183 241.865 513.006 223.668 519.655C206.345 525.987 187.449 524.358 169.022 519.539C152.901 515.322 137.1 508.652 122.989 502.695C120.972 501.843 118.99 501.006 117.046 500.193C111.791 497.995 106.608 495.797 101.473 493.619C89.0371 488.345 76.8819 483.189 64.67 478.447Z" fill="black"/>
<path d="M79.6938 495.889C79.2992 495.466 78.9058 495.041 78.5136 494.615C85.9997 497.575 93.5095 500.636 101.111 503.734C105.876 505.676 110.676 507.632 115.529 509.588C117.73 510.474 119.973 511.388 122.252 512.316C136.279 518.031 151.691 524.31 167.384 528.289C185.624 532.914 204.195 534.418 221.358 528.339C239.355 521.975 252.395 510.702 265.378 499.48L265.38 499.478C267.168 497.933 268.955 496.388 270.753 494.857C285.601 482.221 301.221 470.562 324.751 467.389C398.701 457.428 474.919 448.949 549.4 442.845C550.188 442.78 550.973 442.721 551.757 442.667C551.605 442.929 551.453 443.19 551.3 443.451C550.688 443.495 550.075 443.542 549.461 443.593C474.994 449.696 398.789 458.172 324.851 468.133C301.544 471.275 286.062 482.813 271.239 495.428C269.446 496.955 267.662 498.497 265.874 500.043C252.899 511.261 239.748 522.631 221.608 529.046C204.247 535.195 185.507 533.658 167.199 529.016C151.452 525.023 135.986 518.722 121.962 513.008C119.685 512.08 117.445 511.168 115.249 510.284C110.393 508.327 105.592 506.37 100.828 504.429C93.7183 501.531 86.6923 498.668 79.6938 495.889Z" fill="black"/>
<path d="M110.593 524.671C109.986 524.182 109.381 523.69 108.778 523.196C147.042 537.52 184.958 547.14 217.763 536.305C235.851 530.334 249.596 519.748 263.31 509.184C265.07 507.829 266.829 506.473 268.597 505.128C284.131 493.311 300.307 482.303 323.242 478.94C395.344 468.386 468.594 458.233 541.082 450.348C543.233 450.115 545.371 449.925 547.496 449.778C547.334 450.04 547.171 450.302 547.008 450.564C545.07 450.705 543.122 450.881 541.163 451.094C468.688 458.977 395.449 469.128 323.351 479.682C300.614 483.016 284.566 493.922 269.051 505.725C267.287 507.067 265.53 508.421 263.77 509.777C250.064 520.335 236.216 531.004 217.998 537.017C185.528 547.742 148.169 538.572 110.593 524.671Z" fill="black"/>
<path d="M132.205 540.549C131.555 540.116 130.907 539.679 130.26 539.24C159.087 547.217 187.214 550.668 212.856 543.02C231.185 537.559 245.889 527.852 260.596 518.143C262.248 517.053 263.9 515.962 265.556 514.878C281.955 504.145 298.845 494.012 321.139 490.449C346.88 486.342 372.621 482.031 398.372 477.719L398.374 477.718C442.237 470.373 486.129 463.022 530.091 456.666C534.759 455.99 539.388 455.549 543.985 455.316C543.816 455.576 543.647 455.835 543.478 456.094C539.083 456.332 534.658 456.762 530.198 457.408C486.242 463.764 442.368 471.111 398.511 478.456L398.501 478.458C372.751 482.77 347.008 487.081 321.257 491.19C299.13 494.726 282.354 504.78 265.967 515.506C264.317 516.585 262.671 517.672 261.023 518.76L261.007 518.771C246.309 528.475 231.512 538.244 213.071 543.738C187.883 551.251 160.356 548.125 132.205 540.549Z" fill="black"/>
<path d="M149.546 551.274C148.945 550.93 148.345 550.584 147.746 550.236C168.121 553.481 188.038 553.763 206.999 548.844C226.008 543.908 242.384 535.164 258.837 526.379L258.838 526.378C259.895 525.814 260.951 525.25 262.009 524.687C279.53 515.354 297.329 506.253 318.603 502.002C336.946 498.332 355.29 494.623 373.639 490.913L373.644 490.912C421.516 481.233 469.415 471.548 517.402 462.539C525.163 461.082 532.926 460.376 540.688 460.281C540.517 460.534 540.345 460.786 540.173 461.038C532.626 461.158 525.081 461.861 517.54 463.276C469.558 472.284 421.666 481.968 373.796 491.647L373.789 491.648L373.754 491.655C355.417 495.363 337.084 499.07 318.75 502.738C297.595 506.964 279.883 516.015 262.362 525.349C261.299 525.915 260.237 526.482 259.174 527.049C242.736 535.827 226.287 544.611 207.187 549.57C188.703 554.365 169.331 554.246 149.546 551.274Z" fill="black"/>
<path d="M161.526 557.76C160.99 557.486 160.455 557.21 159.921 556.932C173.647 557.652 187.188 556.882 200.443 553.991C220.228 549.678 238.307 541.926 256.488 534.13L257.717 533.603C276.303 525.636 295.034 517.705 315.783 513.489C355.792 505.364 395.484 495.402 435.16 485.445L435.166 485.443C458.094 479.689 481.016 473.936 503.991 468.54C514.749 466.01 525.793 465.157 537.023 465.559C536.849 465.803 536.675 466.047 536.5 466.291C525.501 465.934 514.69 466.794 504.162 469.27C481.21 474.661 458.297 480.412 435.371 486.165L435.37 486.165C395.68 496.126 355.954 506.096 315.932 514.224C295.269 518.422 276.605 526.322 258.012 534.292L256.758 534.83C238.596 542.618 220.459 550.395 200.603 554.723C187.805 557.515 174.748 558.339 161.526 557.76Z" fill="black"/>
<path d="M169.848 561.856C169.352 561.622 168.857 561.386 168.363 561.149C174.978 560.981 181.578 560.478 188.159 559.58C209.32 556.693 229.648 549.776 250.028 542.57C251.382 542.091 252.736 541.611 254.091 541.13C273.116 534.386 292.236 527.608 312.122 523.872C343.421 517.996 374.004 508.561 404.589 499.036L406.799 498.348C436.641 489.053 466.501 479.752 497.01 473.687C508.312 471.441 520.134 471.057 532.287 472.034C532.109 472.271 531.931 472.507 531.752 472.743C519.826 471.82 508.235 472.221 497.156 474.423C466.686 480.48 436.859 489.77 407.006 499.069L404.812 499.752C374.233 509.275 343.609 518.724 312.26 524.61C292.434 528.334 273.366 535.093 254.329 541.842C252.979 542.32 251.628 542.799 250.278 543.277C229.903 550.482 209.507 557.425 188.26 560.324C182.137 561.159 175.998 561.653 169.848 561.856Z" fill="black"/>
<path d="M177.245 565.229C176.767 565.019 176.29 564.808 175.813 564.596C177.552 564.456 179.29 564.296 181.028 564.114C202.297 561.882 223.667 556.664 245.015 550.99C248.948 549.945 252.881 548.884 256.812 547.823L256.851 547.813L256.854 547.812C274.236 543.122 291.588 538.441 308.815 535.148C338.762 529.421 367.868 519.548 396.942 509.393C398.996 508.676 401.05 507.957 403.105 507.238C430.115 497.784 457.147 488.323 484.813 481.976C498.357 478.863 511.73 479.179 524.956 481.384C524.773 481.608 524.59 481.831 524.407 482.054C511.39 479.924 498.262 479.655 484.98 482.707C457.358 489.044 430.365 498.492 403.347 507.948L403.313 507.96C401.272 508.674 399.231 509.388 397.189 510.101C368.119 520.255 338.964 530.146 308.956 535.884C291.759 539.172 274.442 543.844 257.061 548.533L257.059 548.534L257.033 548.541C253.094 549.603 249.152 550.667 245.208 551.715C223.856 557.39 202.437 562.621 181.107 564.86C179.819 564.995 178.532 565.118 177.245 565.229Z" fill="black"/>
<path d="M185.208 568.589C184.715 568.389 184.222 568.188 183.73 567.986C213.11 565.035 243.601 558.878 273.221 552.898C284.171 550.687 295.003 548.5 305.616 546.507C333.054 541.356 359.748 530.757 386.467 520.148L387.892 519.583C388.631 519.289 389.369 518.996 390.108 518.703C418.031 507.629 446.019 496.814 474.88 492.525C488.053 490.568 501.793 490.563 515.885 491.97C515.677 492.201 515.469 492.432 515.261 492.662C501.415 491.315 487.925 491.345 474.991 493.267C446.227 497.541 418.317 508.322 390.385 519.4C389.163 519.885 387.942 520.37 386.72 520.855C360.02 531.456 333.266 542.079 305.754 547.245C295.166 549.232 284.35 551.416 273.41 553.625L273.406 553.626C244.247 559.513 214.202 565.58 185.208 568.589Z" fill="black"/>
<path d="M196.404 572.856C195.84 572.654 195.277 572.451 194.714 572.245C230.777 569.244 268.304 564.006 302.801 557.972C330.171 553.192 356.713 542.791 383.281 532.379L385.442 531.532C412.717 520.848 440.042 510.314 468.267 506.068C479.664 504.354 491.524 504.022 503.698 504.75C503.459 504.987 503.219 505.224 502.978 505.46C491.088 504.786 479.509 505.136 468.379 506.81C440.25 511.041 413.002 521.542 385.715 532.231L383.525 533.089L383.524 533.089C356.979 543.492 330.375 553.918 302.93 558.711C268.937 564.657 231.995 569.831 196.404 572.856Z" fill="black"/>
<path d="M212.192 578.007C211.436 577.784 210.681 577.558 209.928 577.329C240.054 576.403 270.219 574.102 300.479 569.585C328.058 565.464 354.92 556.05 381.808 546.627L381.809 546.627L383.158 546.154C410.484 536.579 437.848 527.087 465.963 523.276C472.177 522.436 478.51 521.949 484.94 521.771C484.628 522.031 484.315 522.29 484.001 522.549C477.926 522.747 471.941 523.225 466.063 524.02C438.037 527.818 410.743 537.283 383.406 546.862L382.027 547.345C355.161 556.76 328.24 566.195 300.59 570.327C271.047 574.737 241.597 577.036 212.192 578.007Z" fill="black"/>
<path d="M255.034 587.243C253.799 587.072 252.566 586.893 251.336 586.706C267.533 585.797 283.683 584.472 299.771 582.617C327.781 579.385 355.46 571.451 383.184 563.503L383.444 563.429C384.598 563.098 385.752 562.767 386.906 562.437C407.847 556.441 428.822 550.558 449.968 546.826C449.375 547.188 448.78 547.549 448.184 547.908C427.736 551.643 407.427 557.342 387.113 563.158C385.865 563.515 384.618 563.873 383.37 564.23C355.663 572.173 327.93 580.123 299.857 583.362C284.964 585.08 270.019 586.343 255.034 587.243Z" fill="black"/>
</svg>
