<svg width="458" height="276" viewBox="0 0 458 276" fill="none" xmlns="http://www.w3.org/2000/svg">
<path d="M99.7811 5.72792C103.74 5.06511 107.695 4.39069 111.65 3.71632C115.01 3.14329 118.371 2.5703 121.733 2.00451C123.156 1.765 124.579 1.52678 126.003 1.29041C130.223 0.770662 134.47 0.339879 138.744 0C133.107 0.871669 127.481 1.79756 121.857 2.74411C118.499 3.3093 115.141 3.88188 111.782 4.45466L111.78 4.45496C104.262 5.73699 96.7373 7.02003 89.1889 8.2234C92.695 7.32845 96.2262 6.4962 99.7811 5.72792Z" fill="black"/>
<path d="M34.343 28.2191C35.0548 27.876 35.7682 27.5357 36.4831 27.1981C40.6262 26.6896 44.7735 26.2085 48.9259 25.7593C70.4477 23.4267 91.3337 18.9572 112.205 14.4909L112.211 14.4897C115.587 13.7671 118.964 13.0446 122.343 12.3312C146.598 7.20993 170.961 2.56219 196.355 1.76632C198.129 1.71023 199.902 1.66614 201.674 1.63336C203.305 1.84934 204.931 2.07863 206.553 2.3211C203.165 2.34529 199.774 2.40861 196.378 2.51594C171.056 3.30957 146.749 7.94457 122.497 13.065C119.121 13.778 115.745 14.5003 112.368 15.2231C91.4985 19.6892 70.5703 24.1678 49.0067 26.5049C44.1124 27.0344 39.2248 27.6082 34.343 28.2191Z" fill="black"/>
<path d="M2.86777 45.8423C3.35344 45.5299 3.84009 45.219 4.3277 44.9094C18.5993 43.1726 32.8005 41.3701 46.8826 39.5151C69.5031 36.5373 91.1784 30.6255 112.833 24.7195L112.834 24.7192C116.348 23.7609 119.861 22.8028 123.377 21.8574C148.555 15.088 173.896 8.97372 200.785 8.16695C214.582 7.75318 228.207 8.46655 241.736 9.80352C243.121 10.1881 244.501 10.5824 245.878 10.9865C230.987 9.37564 216 8.461 200.807 8.91662C174.013 9.72056 148.744 15.8137 123.572 22.5816C120.06 23.5259 116.549 24.4833 113.037 25.4413C91.3853 31.3468 69.6555 37.2737 46.9805 40.2587C32.3862 42.1812 17.664 44.0472 2.86777 45.8423Z" fill="black"/>
<path d="M-17.6901 60.3338C-17.3344 60.0598 -16.978 59.7865 -16.621 59.514C3.98178 58.1834 24.4381 56.3616 44.5286 53.6299C69.3062 50.2592 92.6177 42.2185 115.94 34.1742L115.944 34.1729C118.9 33.1532 121.856 32.1335 124.816 31.1233C151.11 22.1473 177.644 13.9223 206.445 13.1895C230.91 12.5732 254.342 16.8849 277.543 22.2912C278.859 22.8479 280.17 23.4138 281.476 23.9889C256.945 18.1441 232.274 13.2891 206.464 13.9393C177.788 14.6689 151.349 22.8582 125.058 31.833C122.099 32.843 119.142 33.8629 116.185 34.8832C92.8706 42.9252 69.4858 50.9917 44.6297 54.373C24.1609 57.1562 3.30815 58.9959 -17.6901 60.3338Z" fill="black"/>
<path d="M-33.4984 73.4076C-33.2211 73.1617 -32.9434 72.9163 -32.6652 72.6714C-7.38544 73.0811 17.6702 72.238 41.8662 68.0648C67.5096 63.6502 91.4881 53.7138 115.471 43.7755L115.475 43.7739C119.133 42.258 122.792 40.742 126.456 39.2456C154.127 27.9457 182.127 17.7687 212.912 17.2588C241.097 16.7913 267.086 24.6906 292.808 33.6143C296.417 34.8663 300.02 36.1382 303.623 37.4102C307.413 38.7483 311.203 40.0863 315 41.401C315.993 42.0001 316.981 42.605 317.966 43.2154C313.086 41.5466 308.223 39.8297 303.363 38.1141L303.361 38.1135C299.761 36.8424 296.163 35.5721 292.562 34.3229C266.848 25.4017 240.966 17.5436 212.925 18.0087C182.291 18.5161 154.405 28.6423 126.739 39.9399C123.08 41.4342 119.425 42.949 115.768 44.4647L115.766 44.4653C91.7891 54.4018 67.726 64.374 41.9936 68.8039C17.4722 73.0333 -7.91707 73.8493 -33.4984 73.4076Z" fill="black"/>
<path d="M-45.4694 84.63C-45.241 84.4038 -45.0123 84.1779 -44.7832 83.9524C-16.4053 87.1272 11.8143 88.3787 39.0554 82.6696C65.4601 77.1462 90.2314 65.2066 115.032 53.253C119.441 51.1281 123.851 49.0024 128.271 46.9125C157.531 33.077 187.225 20.8089 219.953 20.6921C248.622 20.5858 274.087 30.8604 299.142 42.4553C302.823 44.1587 306.495 45.8903 310.166 47.6218C322.397 53.3905 334.629 59.1592 347.198 63.882C347.809 64.3716 348.418 64.8635 349.024 65.3578C335.673 60.4822 322.734 54.3797 309.832 48.2938C306.164 46.5637 302.499 44.8348 298.827 43.1359C273.781 31.5452 248.446 21.3364 219.956 21.4421C187.408 21.5583 157.845 33.7581 128.591 47.5906C124.183 49.6751 119.781 51.797 115.376 53.9199L115.374 53.921C90.577 65.8739 65.7113 77.8599 39.2091 83.4037C11.6592 89.1775 -16.8626 87.8576 -45.4694 84.63Z" fill="black"/>
<path d="M-55.0599 94.5836C-54.8636 94.3702 -54.667 94.1571 -54.4701 93.9442C-24.1491 100.521 6.14058 104.73 36.1823 97.3806C63.5494 90.6852 89.3384 76.7677 115.198 62.8123C120.183 60.1218 125.171 57.4299 130.174 54.788C161.098 38.4571 192.557 24.0516 227.223 23.9135C256.305 23.7965 281.343 36.5361 305.786 50.982C309.635 53.2569 313.469 55.5738 317.302 57.8898C334.94 68.5486 352.552 79.1906 371.493 85.6549C371.887 86.049 372.28 86.4443 372.671 86.8406C353.094 80.3977 334.963 69.4406 316.891 58.5187L316.89 58.5178C313.063 56.2051 309.239 53.894 305.404 51.6276C280.97 37.1869 256.086 24.5474 227.226 24.6635C192.759 24.8008 161.443 39.1231 130.524 55.4512C125.536 58.0854 120.558 60.7722 115.579 63.4595L115.577 63.4606C89.7187 77.4163 63.8298 91.3887 36.3605 98.1092C6.04086 105.527 -24.4954 101.229 -54.9426 94.6091C-54.9817 94.6006 -55.0208 94.5921 -55.0599 94.5836Z" fill="black"/>
<path d="M-63.0574 103.643C-62.8829 103.437 -62.7081 103.231 -62.533 103.025C-60.6583 103.641 -58.7836 104.248 -56.9088 104.842C-27.3485 114.215 2.30806 120.592 33.3103 112.028C61.4462 104.252 88.246 88.3902 115.185 72.446C120.787 69.1301 126.396 65.8107 132.024 62.5596C164.682 43.694 197.974 27.1453 234.367 27.1984C263.914 27.241 288.542 42.4314 312.371 59.6584C316.287 62.489 320.18 65.3741 324.07 68.2568L324.073 68.2584C343.89 82.9432 363.624 97.5659 385.759 104.614C387.13 105.051 388.506 105.456 389.887 105.83C390.161 106.161 390.435 106.492 390.709 106.824C388.977 106.374 387.25 105.876 385.531 105.329C363.266 98.2391 343.413 83.5259 323.597 68.8405C319.713 65.9622 315.831 63.0848 311.932 60.2662C288.108 43.0432 263.652 27.9906 234.366 27.9484C198.192 27.8956 165.054 44.3451 132.399 63.209C126.788 66.4502 121.191 69.7629 115.596 73.0748C88.6563 89.0207 61.7518 104.946 33.5101 112.751C2.28853 121.375 -27.5448 114.94 -57.1355 105.557C-59.1106 104.931 -61.0844 104.291 -63.0574 103.643Z" fill="black"/>
<path d="M-69.9502 112.087C-69.7906 111.884 -69.6307 111.681 -69.4706 111.479C-66.0082 113.014 -62.5477 114.522 -59.0838 115.975C-30.4957 127.973 -1.63335 136.332 30.5885 126.548C59.3819 117.805 87.1617 100.127 115.167 82.3063L115.168 82.3052C121.352 78.3703 127.546 74.4284 133.765 70.5741C168.114 49.2855 203.192 30.684 241.109 30.971C271.129 31.1946 295.382 48.7467 318.629 68.6156C322.552 71.969 326.445 75.3872 330.334 78.8007C337.98 85.5138 345.606 92.2091 353.401 98.3592C365.154 107.631 377.256 115.634 390.312 120.537C394.865 122.247 399.477 123.528 404.142 124.434C404.348 124.727 404.555 125.021 404.76 125.315C399.798 124.395 394.89 123.058 390.049 121.239C376.888 116.297 364.716 108.241 352.937 98.948C345.126 92.7861 337.473 86.0671 329.817 79.3455L329.812 79.3414C325.93 75.9327 322.046 72.5234 318.141 69.1858C294.895 49.317 270.827 31.9424 241.103 31.7209C203.423 31.4357 168.51 49.9226 134.16 71.2116C127.961 75.0534 121.781 78.9869 115.606 82.9166L115.604 82.9178C87.5962 100.742 59.7079 118.49 30.8064 127.266C-1.67525 137.129 -30.7451 128.681 -59.374 116.667C-62.9049 115.185 -66.4283 113.649 -69.9502 112.087Z" fill="black"/>
<path d="M-75.9759 120.023C-75.8269 119.82 -75.6776 119.617 -75.5281 119.414C-70.7354 122.078 -65.9544 124.703 -61.1564 127.202C-33.5615 141.577 -5.49052 151.733 28.1232 140.814C57.532 131.257 86.2325 111.937 115.243 92.4089L115.247 92.4066C121.913 87.9192 128.595 83.4208 135.307 79.0273C171.188 55.5385 207.881 35.0596 247.13 35.5911C277.664 36.0066 301.555 55.713 324.245 77.9633C328.129 81.7721 331.977 85.6541 335.817 89.5289L335.819 89.5312C343.213 96.9914 350.581 104.425 358.131 111.257C369.598 121.633 381.45 130.586 394.375 136.078C401.247 138.995 408.266 140.774 415.4 141.634C415.564 141.904 415.727 142.175 415.89 142.446C408.494 141.607 401.211 139.794 394.082 136.768C381.045 131.229 369.12 122.212 357.628 111.813C350.063 104.968 342.668 97.5071 335.264 90.0367C331.427 86.1653 327.588 82.2913 323.72 78.4988C301.024 56.2429 277.326 36.7521 247.12 36.341C208.123 35.8129 171.603 56.1631 135.718 79.6548C129.027 84.0345 122.359 88.5237 115.701 93.0058C86.6859 112.539 57.8739 131.935 28.3549 141.527C-5.55357 152.542 -33.8572 142.268 -61.5029 127.867C-66.3366 125.35 -71.1528 122.704 -75.9759 120.023Z" fill="black"/>
<path d="M-81.3518 127.602C-81.2103 127.396 -81.0686 127.19 -80.9267 126.984C-80.7383 127.108 -80.5499 127.232 -80.3616 127.355L-80.3603 127.356C-74.5753 131.156 -68.83 134.929 -63.0484 138.485C-36.3873 154.884 -9.05183 166.605 25.9356 154.718C54.2784 145.097 81.8545 127.763 108 111.329C114.749 107.086 121.403 102.903 127.95 98.929C134.313 95.0632 141.168 90.5905 148.384 85.8825C160.385 78.0524 173.383 69.5715 186.772 62.1483C208.225 50.2542 230.795 41.004 252.112 41.398C283.263 41.9735 306.78 63.5193 328.922 87.7828C332.71 91.9336 336.457 96.1629 340.195 100.383L340.197 100.385C347.403 108.519 354.579 116.62 361.964 124.061C373.175 135.357 384.829 145.091 397.713 151.045C406.394 155.056 415.3 157.046 424.364 157.513C424.498 157.77 424.633 158.027 424.767 158.284C415.467 157.855 406.319 155.847 397.399 151.726C384.395 145.716 372.667 135.91 361.432 124.589C354.033 117.134 346.831 109.004 339.615 100.859C335.879 96.6425 332.14 92.4217 328.368 88.2883C306.216 64.0136 282.896 42.7168 252.098 42.1479C230.987 41.7577 208.563 50.9247 187.136 62.8042C173.761 70.2199 160.819 78.6646 148.841 86.4805C141.618 91.1935 134.746 95.6778 128.34 99.57C121.816 103.53 115.178 107.703 108.44 111.939C82.2874 128.378 54.6121 145.775 26.1769 155.428C-9.13428 167.426 -36.7216 155.559 -63.4414 139.124C-69.2332 135.561 -74.9888 131.781 -80.7732 127.982C-80.9659 127.856 -81.159 127.729 -81.3518 127.602Z" fill="black"/>
<path d="M-86.2211 134.932C-86.0857 134.721 -85.9499 134.511 -85.8139 134.3C-85.1737 134.771 -84.5345 135.242 -83.8961 135.712C-82.7299 136.573 -81.5664 137.433 -80.4049 138.293C-75.106 142.212 -69.847 146.103 -64.5488 149.787C-38.7193 167.751 -12.0526 180.759 24.1956 168.198C53.1938 158.146 81.5107 139.822 108.219 122.539L108.222 122.537C115.253 117.987 122.173 113.51 128.964 109.274C135.461 105.218 142.482 100.498 149.899 95.5126L149.9 95.5119C152.262 93.9242 154.664 92.3096 157.101 90.681C167.19 83.9411 177.884 76.9665 188.863 70.6891C210.811 58.1409 233.95 48.3473 255.716 48.8158C287.609 49.498 310.718 72.4505 332.316 98.2406C335.945 102.574 339.531 106.987 343.109 111.391L343.11 111.392C350.197 120.114 357.255 128.801 364.567 136.767C375.564 148.75 387.095 159.058 400.072 165.332C410.325 170.288 420.835 172.254 431.51 172.105C431.623 172.353 431.736 172.601 431.848 172.85C420.962 173.046 410.225 171.073 399.745 166.007C386.643 159.672 375.036 149.284 364.014 137.275C356.688 129.292 349.604 120.574 342.508 111.841C338.933 107.441 335.354 103.037 331.741 98.7221C310.13 72.9168 287.218 50.2399 255.7 49.5657C234.147 49.1017 211.159 58.8061 189.236 71.3402C178.28 77.6041 167.603 84.5668 157.518 91.3046C155.085 92.93 152.686 94.5425 150.326 96.1291L150.325 96.13C142.906 101.117 135.869 105.847 129.361 109.91C122.595 114.13 115.693 118.597 108.673 123.14L108.67 123.141C81.954 140.431 53.5345 158.822 24.4411 168.906C-12.1525 181.587 -39.084 168.411 -64.977 150.403C-70.2851 146.712 -75.5542 142.814 -80.8536 138.894L-80.8691 138.882C-82.0248 138.027 -83.182 137.171 -84.3413 136.316C-84.9672 135.854 -85.5938 135.393 -86.2211 134.932Z" fill="black"/>
<path d="M-90.7366 142.181C-90.6067 141.966 -90.4765 141.75 -90.3461 141.535C-86.8224 144.268 -83.3426 147.045 -79.8823 149.807C-75.0929 153.629 -70.341 157.421 -65.5625 161.026C-52.9906 170.51 -40.1899 178.737 -25.8694 182.989C-11.56 187.237 4.28812 187.522 22.9667 181.083C52.3058 170.964 81.1273 151.919 108.117 134.083L108.119 134.082C115.392 129.276 122.531 124.558 129.512 120.126C136.1 115.947 143.208 111.085 150.712 105.953L150.721 105.947C153.08 104.333 155.479 102.693 157.912 101.038C168.084 94.1241 178.862 86.9725 189.937 80.5373C212.075 67.6734 235.453 57.6404 257.602 58.1196C290.434 58.8445 313.093 82.6637 334.143 109.376C337.542 113.69 340.9 118.079 344.251 122.461L344.253 122.463C351.295 131.67 358.314 140.846 365.657 149.237C376.491 161.617 387.994 172.242 401.237 178.663C413.005 184.37 424.989 186.105 437.098 185.193C437.195 185.436 437.292 185.68 437.388 185.923C425.09 186.883 412.895 185.15 400.91 179.338C387.534 172.852 375.952 162.14 365.093 149.731C357.733 141.322 350.689 132.112 343.638 122.895C340.29 118.516 336.939 114.136 333.554 109.84C312.492 83.1125 290.03 59.5857 257.586 58.8694C235.653 58.3949 212.427 68.3367 190.313 81.1858C179.262 87.6071 168.502 94.7464 158.334 101.659C155.908 103.308 153.516 104.944 151.161 106.554L151.144 106.566L151.143 106.566C143.637 111.7 136.513 116.572 129.914 120.76C122.961 125.174 115.84 129.88 108.579 134.678L108.578 134.678C81.5797 152.521 52.6498 171.639 23.2112 181.792C4.38805 188.281 -11.6202 188.002 -26.0829 183.708C-40.5344 179.417 -53.4215 171.124 -66.0142 161.624C-70.8286 157.992 -75.5937 154.189 -80.387 150.364C-83.8127 147.63 -87.2536 144.884 -90.7366 142.181Z" fill="black"/>
<path d="M-95.389 150.177C-95.2656 149.957 -95.142 149.737 -95.0181 149.518C-90.0253 153.274 -85.1359 157.162 -80.2848 161.019C-75.4527 164.862 -70.6586 168.674 -65.8385 172.295C-53.2561 181.747 -40.4502 189.936 -26.1536 194.146C-11.8682 198.352 3.9267 198.591 22.4991 192.104C51.8794 181.845 80.7446 163.098 107.903 145.459C115.312 140.646 122.595 135.916 129.726 131.464C136.496 127.235 143.823 122.286 151.563 117.057L151.565 117.055L151.578 117.047C153.766 115.569 155.987 114.068 158.237 112.556C168.453 105.69 179.277 98.574 190.39 92.1537C212.605 79.3195 236.024 69.2343 258.087 69.5218C291.028 69.9589 313.551 93.915 334.433 120.817C337.803 125.159 341.13 129.576 344.451 133.987L344.454 133.99C351.44 143.267 358.404 152.515 365.702 160.963C376.465 173.422 387.916 184.095 401.152 190.489C414.409 196.896 427.846 198.317 441.378 196.613C441.462 196.855 441.547 197.096 441.631 197.337C427.931 199.087 414.292 197.673 400.826 191.164C387.454 184.704 375.923 173.942 365.134 161.453C357.821 152.987 350.831 143.705 343.836 134.416L343.829 134.407C340.512 130.003 337.195 125.598 333.841 121.277C312.946 94.3585 290.623 70.7036 258.077 70.2717C236.227 69.987 212.956 79.9826 190.766 92.8031C179.676 99.2101 168.869 106.315 158.656 113.178C156.405 114.691 154.182 116.193 151.992 117.672L151.99 117.673C144.248 122.904 136.906 127.863 130.124 132.1C123.02 136.535 115.756 141.253 108.358 146.058L108.357 146.059C81.1904 163.704 52.2212 182.52 22.7464 192.812C4.02902 199.349 -11.9265 199.117 -26.3654 194.865C-40.7932 190.617 -53.6857 182.363 -66.289 172.895C-71.1458 169.246 -75.953 165.423 -80.7889 161.577C-85.6013 157.75 -90.4423 153.9 -95.389 150.177Z" fill="black"/>
<path d="M-100.164 159.038C-100.048 158.814 -99.9323 158.591 -99.8161 158.368C-95.0103 161.651 -90.297 165.063 -85.6278 168.481C-84.5 169.306 -83.3748 170.132 -82.2515 170.956C-76.913 174.874 -71.6173 178.761 -66.2828 182.438C-40.4644 200.234 -13.8456 213.047 22.2441 200.37C51.6794 190.033 80.4587 172.544 107.944 155.843L107.945 155.842C115.523 151.237 123.003 146.692 130.371 142.372C137.621 138.123 145.547 133.044 153.949 127.66C155.688 126.546 157.447 125.419 159.225 124.283C169.589 117.663 180.582 110.759 191.832 104.506C214.32 92.0073 237.89 82.0779 259.589 82.2376C291.791 82.4829 314.135 106.198 334.831 132.881C338.284 137.334 341.69 141.867 345.09 146.392C351.897 155.452 358.676 164.475 365.747 172.732C376.345 185.107 387.558 195.71 400.413 202.062C415.076 209.307 430.001 210.367 445.054 207.794C445.128 208.035 445.201 208.276 445.275 208.517C430.07 211.131 414.95 210.081 400.081 202.734C387.091 196.316 375.799 185.623 365.178 173.22C358.092 164.946 351.286 155.888 344.47 146.816C341.074 142.297 337.675 137.773 334.238 133.341C313.527 106.638 291.386 83.2298 259.584 82.9876C238.09 82.8294 214.665 92.6735 192.196 105.162C180.968 111.403 169.992 118.296 159.629 124.915C157.855 126.049 156.099 127.174 154.363 128.286L154.359 128.288C145.956 133.672 138.015 138.761 130.75 143.02C123.406 147.325 115.943 151.86 108.375 156.459L108.374 156.46C80.8801 173.167 52.0097 190.711 22.4927 201.077C-13.9415 213.875 -40.8255 200.896 -66.7085 183.055C-72.0533 179.371 -77.36 175.476 -82.699 171.558C-83.8213 170.734 -84.945 169.91 -86.0708 169.086C-90.7147 165.687 -95.3954 162.298 -100.164 159.038Z" fill="black"/>
<path d="M-104.767 168.34C-104.66 168.113 -104.552 167.886 -104.444 167.66C-98.5853 171.15 -92.8475 174.824 -87.1633 178.497C-86.2919 179.06 -85.4218 179.623 -84.5527 180.186C-78.7548 183.938 -73.0024 187.661 -67.2152 191.165C-40.6037 207.277 -13.3459 218.7 21.9095 206.79C51.6223 196.742 80.6764 180.655 108.741 165.117C116.392 160.881 123.968 156.686 131.465 152.666C139.211 148.512 147.742 143.459 156.798 138.095C158.15 137.294 159.515 136.486 160.89 135.673C171.468 129.419 182.682 122.873 194.12 116.942C216.982 105.085 240.79 95.6519 262.241 95.9287C293.711 96.3233 315.476 119.625 335.592 145.84C338.995 150.274 342.349 154.791 345.697 159.297L345.697 159.298C352.263 168.139 358.801 176.941 365.618 185.009C375.905 197.185 386.787 207.639 399.272 213.953C415.239 222.024 431.647 222.588 448.257 219.03C448.32 219.272 448.384 219.515 448.447 219.757C431.704 223.348 415.104 222.797 398.934 214.622C386.315 208.241 375.355 197.697 365.045 185.493C358.213 177.408 351.65 168.571 345.075 159.718C341.731 155.216 338.384 150.71 334.997 146.297C314.867 120.063 293.302 97.0682 262.231 96.6786C240.977 96.4044 217.311 105.759 194.465 117.607C183.048 123.528 171.849 130.065 161.271 136.318C159.905 137.126 158.549 137.929 157.204 138.726L157.182 138.739C148.128 144.102 139.581 149.164 131.819 153.327C124.343 157.336 116.781 161.524 109.14 165.754C81.0669 181.298 51.9333 197.428 22.1496 207.501C-13.4234 219.518 -40.9295 207.957 -67.6036 191.807C-73.4011 188.297 -79.1637 184.567 -84.9607 180.815C-85.8297 180.253 -86.6996 179.69 -87.5704 179.127C-93.2345 175.467 -98.9427 171.812 -104.767 168.34Z" fill="black"/>
<path d="M-109.2 178.173C-109.101 177.943 -109.002 177.713 -108.903 177.483C-101.554 181.137 -94.3636 185.043 -87.2325 188.917C-80.9867 192.311 -74.7864 195.679 -68.5647 198.831C-41.0078 212.794 -12.9741 222.564 21.5363 211.81C51.5818 202.445 81.0455 187.98 109.767 173.879C117.54 170.063 125.26 166.273 132.921 162.618C141.267 158.641 150.5 153.718 160.293 148.496L160.295 148.496L160.394 148.443C161.294 147.963 162.199 147.48 163.108 146.996C173.945 141.222 185.413 135.166 197.065 129.688C220.359 118.738 244.444 110.073 265.763 110.616C296.512 111.416 317.384 134.133 336.619 159.647C339.86 163.946 343.053 168.323 346.24 172.691C352.529 181.311 358.794 189.898 365.35 197.782C375.221 209.656 385.714 219.885 397.855 226.162C414.979 235.013 432.839 234.967 451.004 230.361C451.058 230.605 451.112 230.85 451.165 231.094C432.886 235.724 414.838 235.784 397.511 226.828C385.237 220.483 374.668 210.164 364.773 198.262C358.203 190.36 351.913 181.739 345.615 173.107L345.614 173.106C342.431 168.742 339.245 164.376 336.02 160.099C316.773 134.569 296.097 112.155 265.744 111.365C244.613 110.827 220.663 119.424 197.384 130.367C185.751 135.836 174.298 141.884 163.461 147.658C162.517 148.161 161.578 148.661 160.643 149.16C150.854 154.38 141.606 159.311 133.244 163.295C125.602 166.941 117.895 170.724 110.13 174.537L110.127 174.538C81.3991 188.642 51.866 203.142 21.7594 212.526C-13.0327 223.368 -41.2888 213.492 -68.9036 199.5C-75.1669 196.327 -81.3942 192.944 -87.6566 189.542C-94.7581 185.685 -101.905 181.802 -109.2 178.173Z" fill="black"/>
<path d="M-113.376 188.438C-113.286 188.205 -113.196 187.972 -113.105 187.739C-105.432 190.765 -97.888 194.014 -90.3965 197.241L-90.3951 197.242C-83.678 200.135 -77.0029 203.01 -70.3141 205.69C-41.6799 217.162 -12.7399 225.083 21.0605 215.749C51.5261 207.347 81.5135 194.679 110.98 182.231L110.984 182.229C118.877 178.895 126.733 175.576 134.551 172.359C143.54 168.662 153.504 164.001 164.051 159.069L165.611 158.339C176.732 153.139 188.469 147.678 200.353 142.763C224.11 132.937 248.505 125.267 269.797 126.236C299.917 127.601 319.632 149.627 337.732 174.267C340.685 178.287 343.594 182.375 346.499 186.457L346.5 186.459C352.515 194.911 358.511 203.337 364.839 211.077C374.22 222.549 384.295 232.465 396.161 238.645C414.363 248.129 433.622 247.372 453.283 241.704C453.328 241.951 453.372 242.199 453.417 242.446C433.662 248.128 414.219 248.9 395.814 239.31C383.816 233.061 373.665 223.055 364.259 211.552C357.914 203.792 351.892 195.329 345.868 186.865L345.866 186.861C342.965 182.786 340.065 178.709 337.128 174.711C319.019 150.06 299.494 128.332 269.763 126.985C248.647 126.025 224.383 133.636 200.64 143.456C188.774 148.364 177.051 153.818 165.929 159.018L164.362 159.751L164.361 159.752C153.821 164.681 143.842 169.348 134.836 173.053C127.032 176.264 119.185 179.579 111.297 182.912C81.8244 195.362 51.7777 208.056 21.26 216.472C-12.7796 225.872 -41.9096 217.878 -70.593 206.386C-77.3208 203.691 -84.021 200.805 -90.7536 197.905C-98.2271 194.686 -105.74 191.45 -113.376 188.438Z" fill="black"/>
<path d="M-117.201 198.973C-117.12 198.736 -117.039 198.499 -116.957 198.262C-109.208 200.522 -101.544 202.953 -93.9167 205.372C-86.723 207.653 -79.5621 209.924 -72.3954 212.031C-42.587 220.794 -12.6217 226.743 20.5242 218.988C51.4625 211.755 82.04 201.03 112.251 190.434C120.261 187.625 128.246 184.824 136.204 182.1C145.962 178.763 156.775 174.455 168.181 169.911L168.206 169.901C179.618 165.355 191.619 160.574 203.728 156.304C227.938 147.766 252.632 141.246 273.982 142.725C304.249 144.815 322.18 166.472 338.594 190.28C340.786 193.458 342.95 196.674 345.113 199.888C351.064 208.733 357.006 217.565 363.487 225.561C372.318 236.457 382.12 245.761 394.238 251.375C414.163 260.61 434.527 259.081 455.047 252.64C455.082 252.891 455.117 253.142 455.152 253.393C434.562 259.837 414.034 261.377 393.922 252.055C381.658 246.373 371.77 236.972 362.904 226.033C356.4 218.009 350.43 209.135 344.473 200.281C342.314 197.073 340.157 193.867 337.977 190.705C321.558 166.892 303.809 145.536 273.93 143.473C252.744 142.006 228.174 148.478 203.978 157.011C191.885 161.276 179.897 166.051 168.484 170.598L168.447 170.613C157.05 175.153 146.222 179.467 136.447 182.81C128.501 185.529 120.525 188.327 112.52 191.135C82.3042 201.733 51.6767 212.475 20.6949 219.718C-12.643 227.518 -42.7611 221.525 -72.6069 212.75C-79.8068 210.634 -86.9883 208.356 -94.1949 206.071C-101.818 203.654 -109.47 201.227 -117.201 198.973Z" fill="black"/>
<path d="M-120.685 209.859C-120.613 209.618 -120.541 209.378 -120.468 209.137C-113.102 210.622 -105.76 212.218 -98.4298 213.813C-91.9459 215.223 -85.4707 216.631 -78.996 217.958C-49.2466 224.054 -19.4778 228.445 11.2673 223.518C48.604 217.542 85.4026 207.021 122.001 196.557C135.61 192.666 149.191 188.783 162.763 185.145C170.722 183.014 179.299 180.347 188.235 177.569L189.737 177.102C199.211 174.157 209.065 171.115 218.979 168.484C238.8 163.222 258.9 159.588 276.733 161.652C307.697 165.233 324.62 186.48 340.393 209.285C341.87 211.42 343.336 213.568 344.804 215.718L344.808 215.725C359.037 236.568 373.303 257.467 397.226 266.795C416.356 274.263 436.295 271.74 456.512 264.752C456.538 265.008 456.563 265.263 456.588 265.52C436.328 272.497 416.251 275.027 396.953 267.493C372.802 258.076 358.402 236.976 344.199 216.163C342.726 214.005 341.255 211.85 339.776 209.711C324.003 186.907 307.249 165.937 276.646 162.397C258.959 160.35 238.972 163.953 219.171 169.209C209.275 171.836 199.435 174.873 189.96 177.818L188.453 178.286C179.522 181.063 170.932 183.735 162.957 185.869C149.412 189.5 135.847 193.379 122.247 197.267C85.6345 207.735 48.7705 218.275 11.3859 224.258C-19.4995 229.208 -49.3795 224.792 -79.1466 218.692C-85.6412 217.361 -92.1293 215.95 -98.6212 214.539C-105.966 212.942 -113.316 211.344 -120.685 209.859Z" fill="black"/>
<path d="M-123.631 220.443C-123.568 220.198 -123.504 219.953 -123.441 219.709C-116.29 220.462 -109.146 221.277 -102.006 222.091C-95.2279 222.863 -88.4528 223.636 -81.6807 224.355C-51.0325 227.61 -20.4113 229.784 10.4338 226.038C48.2379 221.442 85.7302 213.513 123.118 205.606C136.917 202.687 150.701 199.772 164.482 197.028C173.162 195.303 182.477 193.044 192.134 190.698L192.403 190.633C201.975 188.308 211.878 185.902 221.816 183.855C241.872 179.723 262.104 177.041 280.088 179.434C309.913 183.399 325.906 203.544 340.788 225.092C342.153 227.069 343.509 229.058 344.866 231.047C358.317 250.774 371.804 270.552 394.875 279.659C414.786 287.52 435.922 284.291 457.448 276.389C457.463 276.65 457.479 276.911 457.494 277.172C435.946 285.052 414.678 288.283 394.599 280.357C371.302 271.16 357.684 251.184 344.256 231.485L344.254 231.483C342.894 229.488 341.537 227.496 340.171 225.518C325.292 203.975 309.463 184.096 279.989 180.177C262.135 177.802 242.004 180.461 221.967 184.589C212.042 186.634 202.15 189.037 192.575 191.363L192.311 191.427C182.657 193.772 173.327 196.035 164.628 197.764C150.868 200.504 137.096 203.416 123.304 206.333L123.302 206.333C85.9042 214.243 48.3634 222.182 10.5243 226.782C-20.4094 230.539 -51.1009 228.357 -81.7599 225.101C-88.5451 224.38 -95.3278 223.607 -102.111 222.834L-102.112 222.833C-109.283 222.016 -116.455 221.199 -123.631 220.443Z" fill="black"/>
<path d="M-126.133 230.918C-126.078 230.669 -126.023 230.419 -125.968 230.17C-119.281 230.283 -112.595 230.416 -105.909 230.549H-105.908C-98.745 230.692 -91.5825 230.835 -84.4218 230.952C-53.0447 231.466 -21.6937 231.492 9.57906 228.898C47.9177 225.726 86.1039 220.41 124.254 215.1L124.256 215.099C138.099 213.172 151.938 211.246 165.778 209.423C174.739 208.242 184.251 206.596 194.053 204.872C194.804 204.74 195.556 204.608 196.31 204.475C205.398 202.875 214.715 201.235 224.043 199.863C244.244 196.892 264.534 195.173 282.742 197.852C311.405 202.062 326.633 221.008 340.807 241.21C342.077 243.02 343.338 244.839 344.599 246.659C357.441 265.187 370.317 283.762 392.586 292.545C413.14 300.655 435.296 296.786 457.928 288.106C457.934 288.372 457.939 288.637 457.944 288.904C435.31 297.55 413.03 301.417 392.31 293.243C369.818 284.372 356.813 265.604 343.993 247.102L343.985 247.091C342.722 245.268 341.461 243.449 340.193 241.641C326.026 221.449 310.958 202.755 282.633 198.594C264.537 195.932 244.336 197.636 224.153 200.605C214.834 201.975 205.527 203.614 196.436 205.214L194.183 205.611C184.382 207.334 174.855 208.984 165.876 210.166C152.048 211.988 138.216 213.913 124.376 215.84C86.2193 221.152 48.0022 226.472 9.64088 229.645C-21.6705 232.243 -53.0521 232.216 -84.434 231.702C-91.5969 231.585 -98.7594 231.442 -105.921 231.299L-105.933 231.299C-112.667 231.165 -119.401 231.031 -126.133 230.918Z" fill="black"/>
<path d="M-128.221 241.325C-128.175 241.071 -128.128 240.818 -128.081 240.564C-119.187 240.006 -110.293 239.439 -101.4 238.871C-64.7197 236.53 -28.0389 234.189 8.68158 232.52C47.8072 230.741 86.8843 228.013 125.963 225.284C139.461 224.342 152.959 223.4 166.459 222.496C177.123 221.78 188.367 220.527 199.87 219.244C208.271 218.308 216.81 217.356 225.362 216.587C245.599 214.766 265.86 213.973 284.335 216.863C311.867 221.158 326.574 238.824 340.292 257.605C341.495 259.253 342.69 260.908 343.886 262.564C356.341 279.814 368.822 297.101 390.337 305.43C411.478 313.626 434.457 309.213 457.949 299.919C457.945 300.19 457.939 300.461 457.934 300.732C434.459 309.981 411.367 314.387 390.066 306.129C368.333 297.716 355.723 280.246 343.289 263.019C342.089 261.357 340.891 259.697 339.686 258.048C325.979 239.28 311.429 221.849 284.219 217.604C265.838 214.729 245.651 215.514 225.43 217.334C216.917 218.1 208.389 219.05 199.989 219.986L199.986 219.986C188.461 221.27 177.178 222.528 166.509 223.245C153.014 224.148 139.519 225.09 126.023 226.032C86.9416 228.76 47.8512 231.489 8.71567 233.27C-28.0035 234.938 -64.6646 237.278 -101.333 239.618L-101.337 239.619L-101.342 239.619C-110.301 240.191 -119.26 240.762 -128.221 241.325Z" fill="black"/>
<path d="M-129.927 251.765C-129.89 251.508 -129.852 251.25 -129.814 250.993C-122.64 250.052 -115.471 249.08 -108.304 248.108L-108.296 248.107C-102.055 247.261 -95.8145 246.415 -89.5715 245.589C-57.3181 241.324 -25.0057 237.607 7.74117 237.268C42.9788 236.915 78.2173 236.769 113.455 236.623H113.457L113.486 236.622C131.095 236.549 148.704 236.477 166.312 236.378C178.215 236.311 190.626 235.697 203.228 235.073L203.23 235.073C210.615 234.708 218.066 234.339 225.518 234.076C245.671 233.363 265.808 233.42 284.569 236.404C311.043 240.624 325.542 256.927 339.126 274.213C340.296 275.702 341.459 277.198 342.622 278.694C354.98 294.589 367.354 310.504 388.213 318.25C409.939 326.315 433.479 321.495 457.503 311.798C457.487 312.075 457.47 312.351 457.454 312.627C433.464 322.268 409.825 327.073 387.952 318.953C366.883 311.129 354.38 295.044 342.041 279.17L342.026 279.15C340.864 277.655 339.703 276.161 338.536 274.677C324.966 257.408 310.621 241.316 284.451 237.144C265.763 234.172 245.685 234.113 225.544 234.825C218.117 235.088 210.676 235.456 203.295 235.821L203.292 235.821C190.676 236.445 178.232 237.061 166.316 237.128C148.698 237.227 131.08 237.3 113.462 237.373H113.454C78.2186 237.519 42.9841 237.665 7.74867 238.018C-24.9498 238.357 -57.2244 242.068 -89.4731 246.333C-95.7129 247.158 -101.952 248.004 -108.193 248.85C-115.434 249.832 -122.677 250.814 -129.927 251.765Z" fill="black"/>
<path d="M-131.272 262.389C-131.244 262.129 -131.215 261.87 -131.187 261.61C-124.058 260.284 -116.941 258.906 -109.825 257.528L-109.824 257.528C-103.769 256.355 -97.7158 255.183 -91.658 254.044C-59.2388 247.944 -26.7064 242.777 6.77811 243.499C26.8417 243.935 47.3429 244.136 68.0739 244.339L68.0764 244.339C139.881 245.041 214.442 245.771 283.126 256.431C308.614 260.395 323.281 275.269 337.136 290.993C338.288 292.3 339.434 293.613 340.58 294.925L340.591 294.938C353.241 309.429 365.895 323.924 386.296 330.921C408.64 338.591 432.426 333.53 456.58 323.678C456.553 323.96 456.525 324.241 456.497 324.523C432.389 334.308 408.524 339.344 386.053 331.63C365.452 324.565 352.67 309.919 340.038 295.446C338.884 294.124 337.731 292.803 336.574 291.489C322.734 275.783 308.219 261.092 283.011 257.172C214.386 246.521 139.9 245.792 68.1043 245.089C47.3636 244.887 26.8473 244.686 6.76196 244.249C-26.64 243.529 -59.1078 248.683 -91.5193 254.781C-97.5636 255.918 -103.606 257.088 -109.653 258.259L-109.668 258.262C-116.861 259.654 -124.06 261.048 -131.272 262.389Z" fill="black"/>
<path d="M-132.247 273.252C-132.228 272.991 -132.209 272.73 -132.19 272.469C-125.064 270.824 -117.954 269.104 -110.845 267.383C-106.239 266.269 -101.635 265.155 -97.0266 264.061C-65.8324 256.659 -34.5038 250.215 -1.97136 251.213C90.8948 254.054 189.034 264.249 281.063 276.648C305.951 280.004 321.648 294.411 336.818 309.231C337.562 309.958 338.306 310.687 339.049 311.415C353.461 325.538 367.769 339.559 389.481 344.601C411.273 349.669 433.204 344.699 455.154 335.713C455.114 336 455.074 336.287 455.033 336.573C433.139 345.486 411.173 350.415 389.311 345.332C367.389 340.24 352.941 326.08 338.558 311.984C337.803 311.245 337.049 310.505 336.294 309.767C321.125 294.948 305.583 280.712 280.963 277.392C188.948 264.995 90.8363 254.802 -1.99434 251.963C-34.4197 250.968 -65.6647 257.39 -96.8534 264.791C-101.455 265.883 -106.056 266.996 -110.659 268.11C-117.844 269.849 -125.036 271.59 -132.247 273.252Z" fill="black"/>
<path d="M-132.849 284.94C-132.841 284.68 -132.832 284.421 -132.823 284.161C-125.058 282.225 -117.319 280.171 -109.583 278.116C-105.645 277.071 -101.708 276.026 -97.7685 274.996C-66.7313 266.886 -35.5438 259.772 -2.70541 261.45C43.5483 263.803 89.9672 270.259 136.317 277.428C146.336 278.978 156.353 280.561 166.363 282.143L166.365 282.144C202.667 287.881 238.895 293.607 274.952 297.692C299.429 300.471 316.405 313.157 332.946 326.151C333.662 326.713 334.377 327.276 335.091 327.838C350.908 340.29 366.598 352.642 388.426 356.699C410.55 360.807 432.043 355.926 453.296 347.343C453.244 347.634 453.191 347.925 453.138 348.216C431.95 356.72 410.446 361.551 388.289 357.436C366.275 353.345 350.452 340.887 334.663 328.456C333.936 327.884 333.21 327.312 332.483 326.741C315.941 313.746 299.113 301.19 274.867 298.438C238.792 294.35 202.542 288.621 166.238 282.883C156.23 281.301 146.217 279.718 136.202 278.169C89.8566 271.001 43.4695 264.55 -2.74368 262.199C-35.4566 260.528 -66.546 267.613 -97.5789 275.722C-101.514 276.75 -105.448 277.795 -109.384 278.84L-109.385 278.84C-117.19 280.912 -125.003 282.987 -132.849 284.94Z" fill="black"/>
<path d="M-132.996 296.679C-132.997 296.422 -132.999 296.166 -133 295.909C-125.893 294.244 -118.797 292.499 -111.702 290.753C-106.653 289.511 -101.604 288.269 -96.5506 287.056C-65.165 279.521 -33.6423 273.103 -1.07364 274.759C61.5 277.926 125.036 287.185 187.982 296.357C215.619 300.384 243.143 304.395 270.421 307.866C294.857 310.974 313.074 323.625 330.931 336.476C331.541 336.915 332.15 337.354 332.759 337.793C350.007 350.221 367.099 362.536 389.398 366.511C410.279 370.233 430.754 366.119 451.051 358.543C450.987 358.834 450.922 359.125 450.857 359.416C430.631 366.912 410.162 370.974 389.267 367.249C366.796 363.244 349.578 350.837 332.362 338.431C331.739 337.982 331.116 337.533 330.493 337.085C312.628 324.228 294.551 311.691 270.327 308.61C243.019 305.135 215.479 301.122 187.833 297.093L187.831 297.093C124.903 287.923 61.4254 278.673 -1.11172 275.508C-33.5645 273.858 -64.9969 280.252 -96.3756 287.785C-101.419 288.996 -106.461 290.237 -111.506 291.478L-111.509 291.478C-118.662 293.238 -125.821 294.999 -132.996 296.679Z" fill="black"/>
<path d="M-132.615 309.84C-132.628 309.588 -132.64 309.335 -132.652 309.083C-125.472 307.694 -118.297 306.245 -111.123 304.795C-104.027 303.362 -96.9295 301.928 -89.8267 300.553C-56.7913 294.156 -23.6376 289.03 10.1839 291.099C93.9947 296.229 180.346 305.746 263.516 317.149C287.817 320.478 307.106 331.959 326.026 343.819C327.114 344.501 328.201 345.185 329.288 345.868C347.109 357.072 364.833 368.216 386.424 372.914C407.514 377.496 428.296 374.276 448.926 367.5C448.853 367.787 448.78 368.074 448.706 368.361C428.144 375.062 407.369 378.232 386.265 373.647C364.541 368.92 346.712 357.71 328.914 346.519C327.819 345.83 326.723 345.142 325.627 344.455C306.706 332.594 287.539 321.197 263.414 317.892C180.257 306.491 93.9249 296.976 10.1381 291.848C-23.5838 289.785 -56.6597 294.895 -89.6841 301.289C-96.7722 302.661 -103.859 304.093 -110.949 305.525L-110.952 305.526C-118.167 306.984 -125.387 308.442 -132.615 309.84Z" fill="black"/>
<path d="M-131.587 323.668C-131.612 323.419 -131.636 323.17 -131.66 322.92C-124.232 321.857 -116.804 320.748 -109.375 319.639L-109.371 319.638C-101.396 318.448 -93.4187 317.257 -85.437 316.122C-51.9205 311.352 -18.3332 307.555 15.4736 308.838C94.9915 311.848 177.766 315.705 256.729 325.52C281.805 328.635 302.991 339.578 323.883 350.875C325.031 351.496 326.177 352.118 327.324 352.739C347.063 363.44 366.713 374.092 389.383 378.486C408.938 382.27 428.052 380.043 446.96 374.846C446.88 375.127 446.801 375.408 446.721 375.689C427.878 380.821 408.787 383.005 389.24 379.223C366.453 374.806 346.709 364.102 326.992 353.412L326.986 353.409C325.833 352.784 324.68 352.159 323.526 351.535C302.63 340.235 281.556 329.359 256.637 326.264C177.709 316.454 94.9627 312.597 15.4452 309.588C-18.2914 308.307 -51.8238 312.096 -85.3314 316.864C-93.3028 317.998 -101.274 319.188 -109.245 320.378L-109.247 320.379C-116.693 321.49 -124.139 322.601 -131.587 323.668Z" fill="black"/>
<path d="M-129.756 338.515C-129.793 338.266 -129.83 338.018 -129.866 337.77C-122.072 337.288 -114.273 336.8 -106.471 336.312L-106.467 336.312C11.9202 328.908 131.132 321.452 249.346 333.445C275.546 336.101 298.826 346.263 321.871 356.808C323.233 357.432 324.595 358.057 325.956 358.681C347.637 368.629 369.249 378.546 393.104 382.575C410.901 385.581 428.212 384.23 445.29 380.551C445.207 380.824 445.123 381.098 445.039 381.372C428.025 384.999 410.748 386.316 392.979 383.314C369.023 379.268 347.326 369.312 325.665 359.373L325.612 359.348C324.261 358.729 322.91 358.109 321.559 357.49C298.509 346.943 275.332 336.833 249.27 334.191C131.124 322.205 11.9861 329.656 -106.399 337.059L-106.408 337.06C-114.194 337.547 -121.977 338.034 -129.756 338.515Z" fill="black"/>
<path d="M-127.37 352.271C-127.42 352.022 -127.469 351.773 -127.517 351.523C-115.08 351.354 -102.643 351.218 -90.2065 351.082H-90.2046C-50.2333 350.646 -10.2689 350.209 29.687 348.661C51.8214 347.803 74.3165 346.243 96.9406 344.675C145.295 341.322 194.241 337.928 241.514 341.265C269.029 343.208 294.611 351.942 319.991 361.363C322.874 362.433 325.754 363.511 328.633 364.59C351.123 373.015 373.607 381.437 397.346 385.649C412.987 388.419 428.394 387.978 443.679 385.685C443.593 385.951 443.507 386.217 443.42 386.482C428.194 388.736 412.824 389.151 397.215 386.387C373.404 382.163 350.852 373.715 328.37 365.293C325.49 364.214 322.611 363.135 319.73 362.066C294.352 352.646 268.858 343.948 241.461 342.013C194.24 338.68 145.387 342.068 97.0607 345.419L97.0584 345.419C74.4214 346.989 51.8999 348.551 29.716 349.41C-10.2416 350.959 -50.2334 351.396 -90.2199 351.832L-90.2261 351.832C-102.608 351.968 -114.99 352.103 -127.37 352.271Z" fill="black"/>
<path d="M-124.167 366.57C-124.23 366.316 -124.294 366.062 -124.357 365.808C-113.46 366.441 -102.556 367.183 -91.6523 367.925L-91.6469 367.925C-83.4083 368.486 -75.1695 369.046 -66.9332 369.56C-31.8989 371.745 3.09982 373.084 37.891 369.982C61.4629 367.876 85.364 364.242 109.381 360.591C118.097 359.265 126.828 357.938 135.565 356.68C168.363 351.959 201.219 348.225 233.531 349.317C262.47 350.294 290.422 357.746 318.206 366.065C322.581 367.375 326.951 368.706 331.32 370.037C354.715 377.163 378.083 384.281 401.959 388.063C415.624 390.227 429.126 390.323 442.538 389.137C442.45 389.395 442.363 389.654 442.275 389.913C428.921 391.073 415.465 390.961 401.842 388.804C377.909 385.013 354.483 377.877 331.09 370.751C326.723 369.421 322.358 368.091 317.991 366.783C290.212 358.466 262.34 351.04 233.506 350.067C201.263 348.976 168.461 352.702 135.672 357.423C126.949 358.678 118.226 360.005 109.514 361.329L109.513 361.329C85.4891 364.982 61.5542 368.621 37.9577 370.729C3.1073 373.837 -31.9382 372.494 -66.9799 370.309C-75.2275 369.794 -83.4743 369.233 -91.7182 368.672C-102.541 367.936 -113.358 367.2 -124.167 366.57Z" fill="black"/>
<path d="M-120.233 380.757C-120.313 380.495 -120.393 380.232 -120.472 379.97C-109.255 381.427 -97.995 383.096 -86.7212 384.767C-77.7995 386.09 -68.869 387.414 -59.9437 388.635C-24.1648 393.53 11.5501 396.776 46.3901 391.708C69.8356 388.291 93.3407 382.362 116.931 376.413L116.932 376.412C123.161 374.841 129.396 373.268 135.638 371.74C165.503 364.428 195.501 358.134 225.611 357.922C255.987 357.71 286.309 363.802 316.506 370.94C322.731 372.411 328.952 373.927 335.166 375.442C359.104 381.276 382.955 387.089 406.719 390.266C418.425 391.836 430.043 392.23 441.609 391.845C441.521 392.098 441.432 392.351 441.343 392.604C429.838 392.974 418.274 392.572 406.619 391.01C382.812 387.827 358.912 382.001 334.969 376.166L334.967 376.165C328.758 374.652 322.547 373.138 316.333 371.669C286.144 364.533 255.896 358.46 225.616 358.672C195.6 358.884 165.674 365.158 135.816 372.469C129.589 373.994 123.364 375.564 117.142 377.133L117.135 377.135C93.54 383.086 69.986 389.027 46.4983 392.45C11.5484 397.534 -24.254 394.274 -60.0453 389.378C-68.9902 388.154 -77.9331 386.828 -86.8621 385.505C-98.0153 383.851 -109.147 382.201 -120.233 380.757Z" fill="black"/>
<path d="M-115.576 394.775C-115.675 394.501 -115.773 394.227 -115.871 393.953C-104.551 396.18 -93.1166 398.715 -81.6349 401.26L-81.6335 401.26C-71.0788 403.6 -60.4841 405.949 -49.9014 408.076C-12.1163 415.669 25.5446 420.443 60.8745 411.997C80.6665 407.266 100.628 399.517 120.757 391.702C126.614 389.429 132.484 387.15 138.369 384.938C164.459 375.132 190.811 366.656 217.316 365.933C247.844 365.095 279.486 369.748 311.059 375.519C319.7 377.098 328.334 378.761 336.94 380.418L336.947 380.419C359.794 384.82 382.436 389.18 404.446 391.834C416.629 393.303 428.749 393.946 440.833 394.042C440.744 394.292 440.654 394.541 440.565 394.79C428.543 394.686 416.483 394.041 404.356 392.579C382.319 389.921 359.639 385.554 336.783 381.152L336.78 381.151L336.778 381.151C328.177 379.494 319.55 377.833 310.924 376.256C279.361 370.487 247.783 365.847 217.337 366.683C190.965 367.402 164.715 375.837 138.632 385.64C132.767 387.845 126.909 390.119 121.06 392.39C100.923 400.207 80.8954 407.982 61.0489 412.726C25.5504 421.213 -12.2479 416.408 -50.0492 408.811C-60.6669 406.677 -71.2825 404.324 -81.8488 401.981L-81.8501 401.981C-93.168 399.472 -104.43 396.976 -115.576 394.775Z" fill="black"/>
<path d="M-110.231 408.511C-110.352 408.223 -110.472 407.935 -110.591 407.647C-98.9559 410.579 -87.1775 413.91 -75.3395 417.257L-75.3385 417.258C-64.7779 420.244 -54.1699 423.243 -43.5737 425.986C-5.19693 435.918 33.054 442.491 68.558 433.002C88.9456 427.553 108.284 417.198 127.704 406.8C131.197 404.93 134.693 403.058 138.199 401.213C161.166 389.124 184.514 378.2 209.991 376.552C241.83 374.483 275.589 377.693 309.339 382.117C320.207 383.542 331.071 385.092 341.871 386.634L341.872 386.634C364.626 389.881 387.093 393.087 408.694 394.991C419.051 395.902 429.407 396.541 439.763 396.987C439.672 397.234 439.58 397.48 439.489 397.726C429.2 397.28 418.914 396.643 408.628 395.738C387.007 393.832 364.505 390.621 341.74 387.373C330.944 385.832 320.09 384.283 309.242 382.861C275.501 378.437 241.802 375.236 210.039 377.3C184.736 378.937 161.512 389.789 138.548 401.876C135.053 403.716 131.564 405.585 128.074 407.453C108.658 417.85 89.2307 428.253 68.7517 433.726C33.0457 443.269 -5.37048 436.648 -43.7616 426.712C-54.3981 423.959 -65.0305 420.953 -75.6048 417.963C-87.2415 414.672 -98.8077 411.402 -110.231 408.511Z" fill="black"/>
<path d="M-103.826 422.748C-103.974 422.441 -104.122 422.133 -104.27 421.824C-101.667 422.634 -99.0517 423.467 -96.4266 424.318C-87.9488 427.066 -79.3746 430 -70.7436 432.954L-70.7415 432.954C-59.8032 436.697 -48.7735 440.472 -37.7324 443.939C1.75192 456.339 41.057 464.704 75.5525 453.332C94.809 446.983 112.005 435.176 129.258 423.33C132.161 421.337 135.066 419.342 137.983 417.372C158.207 403.714 178.976 391.26 203.557 388.823C236.611 385.556 272.222 387.228 307.888 390.177C321.186 391.276 334.487 392.553 347.668 393.818L347.669 393.818L347.671 393.818C369.857 395.947 391.7 398.044 412.603 399.207C421.187 399.686 429.765 400.208 438.34 400.757C438.246 401.002 438.151 401.246 438.056 401.49C429.559 400.947 421.06 400.43 412.561 399.956C391.645 398.792 369.772 396.693 347.572 394.562L347.568 394.562C334.392 393.297 321.1 392.022 307.826 390.924C272.171 387.976 236.615 386.309 203.63 389.57C179.254 391.986 158.622 404.339 138.403 417.994C135.496 419.957 132.598 421.947 129.698 423.939C112.451 435.782 95.1542 447.658 75.7873 454.044C41.0438 465.498 1.53058 457.056 -37.9571 444.655C-48.9929 441.189 -60.052 437.405 -71.0086 433.656L-71.0125 433.655C-79.6451 430.701 -88.2141 427.769 -96.6579 425.031C-99.0569 424.254 -101.447 423.491 -103.826 422.748Z" fill="black"/>
<path d="M-96.2448 437.406C-96.4286 437.073 -96.6117 436.741 -96.7943 436.408C-95.4741 436.887 -94.15 437.372 -92.8223 437.862C-84.18 441.056 -75.3956 444.477 -66.5286 447.931C-55.3871 452.27 -44.1151 456.661 -32.8303 460.713C7.68141 475.262 47.9798 485.307 81.5558 472.581C99.9849 465.595 115.216 452.896 130.471 440.176L130.473 440.174C132.929 438.126 135.385 436.079 137.855 434.054C155.648 419.469 174.153 406.112 198.312 403.109C247.541 396.986 302.561 399.735 355.374 402.374C376.083 403.409 396.454 404.427 416.003 404.886C422.815 405.046 429.591 405.365 436.34 405.809C436.241 406.053 436.141 406.297 436.041 406.541C429.385 406.106 422.702 405.793 415.985 405.636C396.391 405.176 375.993 404.157 355.268 403.121L355.267 403.121C302.478 400.483 247.565 397.739 198.405 403.853C174.476 406.827 156.115 420.057 138.33 434.634C135.869 436.652 133.418 438.695 130.965 440.741C115.717 453.457 100.378 466.248 81.8217 473.283C47.9603 486.116 7.41635 475.964 -33.0838 461.419C-44.3597 457.37 -55.6617 452.968 -66.8214 448.622L-66.8238 448.621L-66.8275 448.619C-75.6971 445.165 -84.4768 441.746 -93.0823 438.566C-94.1389 438.176 -95.1932 437.789 -96.2448 437.406Z" fill="black"/>
<path d="M-90.1388 447.924C-90.3372 447.598 -90.535 447.272 -90.7321 446.945C-71.1767 453.24 -52.1297 460.768 -32.5043 468.525C-27.9231 470.335 -23.3105 472.159 -18.6525 473.981C-16.0443 475.003 -13.3981 476.057 -10.7191 477.124C3.20699 482.671 18.0231 488.573 33.0412 492.139C50.9414 496.389 69.0806 497.308 86.2745 490.365C104.259 483.1 117.913 470.158 131.55 457.232C133.665 455.227 135.779 453.224 137.909 451.241C153.753 436.494 170.443 422.974 194.536 419.704C249.532 412.219 310.276 412.35 368.349 412.475H368.352C385.46 412.511 402.337 412.548 418.767 412.389C423.709 412.341 428.604 412.434 433.458 412.646C433.351 412.892 433.243 413.138 433.135 413.383C428.389 413.18 423.604 413.092 418.774 413.139C402.322 413.298 385.431 413.262 368.312 413.225C310.248 413.1 249.576 412.97 194.637 420.447C170.79 423.683 154.249 437.058 138.42 451.79C136.299 453.764 134.19 455.764 132.078 457.766C118.449 470.687 104.682 483.738 86.5555 491.061C69.1618 498.084 50.8483 497.138 32.868 492.869C17.7912 489.289 2.91504 483.363 -11.0104 477.816L-11.0119 477.815C-13.6868 476.75 -16.3265 475.698 -18.9258 474.68C-23.5856 472.856 -28.1987 471.033 -32.7788 469.223C-52.1341 461.573 -70.9031 454.155 -90.1388 447.924Z" fill="black"/>
<path d="M-80.6509 462.533C-80.8946 462.181 -81.1376 461.828 -81.3798 461.475C-64.6347 467.459 -48.2135 474.367 -31.3046 481.481L-31.2997 481.483C-26.353 483.564 -21.3646 485.662 -16.3141 487.76C-14.0989 488.68 -11.8397 489.629 -9.5416 490.595C4.41206 496.458 19.798 502.923 35.4666 506.953C53.7125 511.646 72.2888 513.022 89.3723 506.323C107.327 499.284 119.989 486.853 132.588 474.484L132.589 474.483C134.458 472.649 136.325 470.815 138.208 469.001C152.773 454.969 168.249 442.122 192.482 438.969C266.507 429.366 345.849 425.444 420.64 422.117C423.525 421.99 426.384 421.925 429.219 421.917C429.099 422.168 428.979 422.418 428.859 422.668C426.153 422.681 423.425 422.745 420.673 422.866C345.88 426.194 266.568 430.114 192.579 439.712C168.596 442.833 153.268 455.534 138.729 469.541C136.854 471.347 134.992 473.175 133.126 475.008L133.124 475.011C120.532 487.375 107.754 499.922 89.6461 507.021C72.3538 513.802 53.5979 512.391 35.2798 507.679C19.5535 503.634 4.11089 497.145 -9.83975 491.283C-12.136 490.318 -14.3917 489.37 -16.6018 488.453C-21.6567 486.353 -26.6475 484.254 -31.5948 482.172L-31.597 482.172C-48.1792 475.196 -64.2728 468.426 -80.6509 462.533Z" fill="black"/>
<path d="M-68.83 478.447C-69.1372 478.061 -69.4434 477.675 -69.7488 477.287C-57.1179 482.162 -44.5675 487.485 -31.7304 492.93C-26.5956 495.108 -21.4149 497.306 -16.1649 499.501C-14.2174 500.316 -12.2327 501.154 -10.2147 502.006C3.89999 507.964 19.6478 514.611 35.7119 518.813C54.0713 523.615 72.7933 525.208 89.9104 518.951C107.955 512.357 120.532 500.645 133.031 489.006C134.814 487.345 136.595 485.686 138.39 484.044C152.761 470.898 168.003 458.852 192.082 455.88C267.196 446.618 344.941 438.585 420.589 433.562C421.535 433.499 422.478 433.443 423.418 433.395C423.28 433.652 423.142 433.91 423.004 434.167C422.218 434.21 421.43 434.257 420.639 434.31C345.009 439.332 267.278 447.364 192.174 456.625C168.334 459.566 153.238 471.479 138.897 484.597C137.11 486.232 135.334 487.886 133.554 489.544L133.549 489.548C121.058 501.183 108.365 513.006 90.1678 519.655C72.8455 525.987 53.9492 524.358 35.5221 519.539C19.4011 515.322 3.59987 508.652 -10.5108 502.695C-12.5278 501.843 -14.5103 501.006 -16.4543 500.193C-21.7089 497.995 -26.892 495.797 -32.0273 493.619C-44.4629 488.345 -56.6181 483.189 -68.83 478.447Z" fill="black"/>
<path d="M-53.8062 495.889C-54.2008 495.466 -54.5942 495.041 -54.9864 494.615C-47.5003 497.575 -39.9905 500.636 -32.3888 503.734C-27.6245 505.676 -22.8241 507.632 -17.9709 509.588C-15.7698 510.474 -13.5273 511.388 -11.2482 512.316C2.77917 518.031 18.1906 524.31 33.8838 528.289C52.1239 532.914 70.6953 534.418 87.858 528.339C105.855 521.975 118.895 510.702 131.878 499.48L131.88 499.478C133.668 497.933 135.455 496.388 137.253 494.857C152.101 482.221 167.721 470.562 191.251 467.389C265.201 457.428 341.419 448.949 415.9 442.845C416.688 442.78 417.473 442.721 418.257 442.667C418.105 442.929 417.953 443.19 417.8 443.451C417.188 443.495 416.575 443.542 415.961 443.593C341.494 449.696 265.289 458.172 191.351 468.133C168.044 471.275 152.562 482.813 137.739 495.428C135.946 496.955 134.162 498.497 132.374 500.043C119.399 511.261 106.248 522.631 88.1082 529.046C70.747 535.195 52.0074 533.658 33.6994 529.016C17.9515 525.023 2.48645 518.722 -11.5379 513.008C-13.8153 512.08 -16.0547 511.168 -18.2513 510.284C-23.107 508.327 -27.9083 506.37 -32.672 504.429C-39.7817 501.531 -46.8077 498.668 -53.8062 495.889Z" fill="black"/>
<path d="M-22.9071 524.671C-23.5139 524.182 -24.1187 523.69 -24.7216 523.196C13.5425 537.52 51.4582 547.14 84.2628 536.305C102.351 530.334 116.096 519.748 129.81 509.184C131.57 507.829 133.329 506.473 135.097 505.128C150.631 493.311 166.807 482.303 189.742 478.94C261.844 468.386 335.094 458.233 407.582 450.348C409.733 450.115 411.871 449.925 413.996 449.778C413.834 450.04 413.671 450.302 413.508 450.564C411.57 450.705 409.622 450.881 407.663 451.094C335.188 458.977 261.949 469.128 189.851 479.682C167.114 483.016 151.066 493.922 135.551 505.725C133.787 507.067 132.03 508.421 130.27 509.777C116.564 520.335 102.716 531.004 84.4979 537.017C52.0276 547.742 14.6695 538.572 -22.9071 524.671Z" fill="black"/>
<path d="M-1.29456 540.549C-1.94472 540.116 -2.59306 539.679 -3.23958 539.24C25.5867 547.217 53.7141 550.668 79.3564 543.02C97.6855 537.559 112.389 527.852 127.096 518.143C128.748 517.053 130.4 515.962 132.056 514.878C148.455 504.145 165.345 494.012 187.639 490.449C213.38 486.342 239.121 482.031 264.872 477.719L264.874 477.718C308.737 470.373 352.629 463.022 396.591 456.666C401.259 455.99 405.888 455.549 410.485 455.316C410.316 455.576 410.147 455.835 409.978 456.094C405.583 456.332 401.158 456.762 396.698 457.408C352.742 463.764 308.868 471.111 265.011 478.456L265.001 478.458C239.251 482.77 213.508 487.081 187.757 491.19C165.63 494.726 148.854 504.78 132.467 515.506C130.817 516.585 129.171 517.672 127.523 518.76L127.507 518.771C112.809 528.475 98.0125 538.244 79.5706 543.738C54.3833 551.251 26.8557 548.125 -1.29456 540.549Z" fill="black"/>
<path d="M16.0465 551.274C15.4451 550.93 14.8451 550.584 14.2464 550.236C34.6205 553.481 54.5385 553.763 73.4987 548.844C92.5085 543.908 108.884 535.164 125.337 526.379L125.338 526.378C126.395 525.814 127.451 525.25 128.509 524.687C146.03 515.354 163.829 506.253 185.103 502.002C203.446 498.332 221.79 494.623 240.139 490.913L240.144 490.912C288.016 481.233 335.915 471.548 383.902 462.539C391.663 461.082 399.426 460.376 407.188 460.281C407.017 460.534 406.845 460.786 406.673 461.038C399.126 461.158 391.581 461.861 384.04 463.276C336.058 472.284 288.166 481.968 240.296 491.647L240.289 491.648L240.254 491.655C221.917 495.363 203.584 499.07 185.25 502.738C164.095 506.964 146.383 516.015 128.862 525.349C127.799 525.915 126.737 526.482 125.674 527.049C109.236 535.827 92.7867 544.611 73.6872 549.57C55.2029 554.365 35.831 554.246 16.0465 551.274Z" fill="black"/>
<path d="M28.0263 557.76C27.4903 557.486 26.9553 557.21 26.4212 556.932C40.1467 557.652 53.6885 556.882 66.9432 553.991C86.7278 549.678 104.807 541.926 122.988 534.13L124.217 533.603C142.803 525.636 161.534 517.705 182.283 513.489C222.292 505.364 261.984 495.402 301.66 485.445L301.666 485.443C324.594 479.689 347.516 473.936 370.491 468.54C381.249 466.01 392.293 465.157 403.523 465.559C403.349 465.803 403.175 466.047 403 466.291C392.001 465.934 381.19 466.794 370.662 469.27C347.71 474.661 324.797 480.412 301.871 486.165L301.87 486.165C262.18 496.126 222.454 506.096 182.432 514.224C161.769 518.422 143.105 526.322 124.512 534.292L123.258 534.83C105.096 542.618 86.9586 550.395 67.103 554.723C54.3053 557.515 41.2477 558.339 28.0263 557.76Z" fill="black"/>
<path d="M36.3476 561.856C35.852 561.622 35.3572 561.386 34.8632 561.149C41.4782 560.981 48.078 560.478 54.6591 559.58C75.8201 556.693 96.1481 549.776 116.528 542.57C117.882 542.091 119.236 541.611 120.591 541.13C139.616 534.386 158.736 527.608 178.622 523.872C209.921 517.996 240.504 508.561 271.089 499.036L273.299 498.348C303.141 489.053 333.001 479.752 363.51 473.687C374.812 471.441 386.634 471.057 398.787 472.034C398.609 472.271 398.431 472.507 398.252 472.743C386.326 471.82 374.735 472.221 363.656 474.423C333.186 480.48 303.359 489.77 273.506 499.069L271.312 499.752C240.733 509.275 210.109 518.724 178.76 524.61C158.934 528.334 139.866 535.093 120.829 541.842C119.479 542.32 118.128 542.799 116.778 543.277C96.4026 550.482 76.0074 557.425 54.7604 560.324C48.6369 561.159 42.4983 561.653 36.3476 561.856Z" fill="black"/>
<path d="M43.7448 565.229C43.2669 565.019 42.7898 564.808 42.3133 564.596C44.0518 564.456 45.7901 564.296 47.5284 564.114C68.7965 561.882 90.1671 556.664 111.515 550.99C115.448 549.945 119.381 548.884 123.312 547.823L123.351 547.813L123.354 547.812C140.736 543.122 158.088 538.441 175.315 535.148C205.262 529.421 234.368 519.548 263.442 509.393C265.496 508.676 267.55 507.957 269.605 507.238C296.615 497.784 323.647 488.323 351.313 481.976C364.857 478.863 378.23 479.179 391.456 481.384C391.273 481.608 391.09 481.831 390.907 482.054C377.89 479.924 364.762 479.655 351.48 482.707C323.858 489.044 296.865 498.492 269.847 507.948L269.813 507.96C267.772 508.674 265.731 509.388 263.689 510.101C234.619 520.255 205.464 530.146 175.456 535.884C158.259 539.172 140.942 543.844 123.561 548.533L123.559 548.534L123.533 548.541C119.594 549.603 115.652 550.667 111.708 551.715C90.3562 557.39 68.9373 562.621 47.6067 564.86C46.3195 564.995 45.0321 565.118 43.7448 565.229Z" fill="black"/>
<path d="M51.7081 568.589C51.2148 568.389 50.7221 568.188 50.2301 567.986C79.61 565.035 110.101 558.878 139.721 552.898C150.671 550.687 161.503 548.5 172.116 546.507C199.554 541.356 226.248 530.757 252.967 520.148L254.392 519.583C255.131 519.289 255.869 518.996 256.608 518.703C284.531 507.629 312.519 496.814 341.38 492.525C354.553 490.568 368.293 490.563 382.385 491.97C382.177 492.201 381.969 492.432 381.761 492.662C367.915 491.315 354.425 491.345 341.491 493.267C312.727 497.541 284.817 508.322 256.885 519.4C255.663 519.885 254.442 520.37 253.22 520.855C226.52 531.456 199.766 542.079 172.254 547.245C161.666 549.232 150.85 551.416 139.91 553.625L139.906 553.626C110.747 559.513 80.702 565.58 51.7081 568.589Z" fill="black"/>
<path d="M62.9039 572.856C62.34 572.654 61.7768 572.451 61.2144 572.245C97.2768 569.244 134.804 564.006 169.301 557.972C196.671 553.192 223.213 542.791 249.781 532.379L251.942 531.532C279.217 520.848 306.542 510.314 334.767 506.068C346.164 504.354 358.024 504.022 370.198 504.75C369.959 504.987 369.719 505.224 369.478 505.46C357.588 504.786 346.009 505.136 334.879 506.81C306.75 511.041 279.502 521.542 252.215 532.231L250.025 533.089L250.024 533.089C223.479 543.492 196.875 553.918 169.43 558.711C135.437 564.657 98.495 569.831 62.9039 572.856Z" fill="black"/>
<path d="M78.6918 578.007C77.9359 577.784 77.1812 577.558 76.4279 577.329C106.554 576.403 136.719 574.102 166.979 569.585C194.558 565.464 221.42 556.05 248.308 546.627L248.309 546.627L249.658 546.154C276.984 536.579 304.348 527.087 332.463 523.276C338.677 522.436 345.01 521.949 351.44 521.771C351.128 522.031 350.815 522.29 350.501 522.549C344.426 522.747 338.441 523.225 332.563 524.02C304.537 527.818 277.243 537.283 249.906 546.862L248.527 547.345C221.661 556.76 194.74 566.195 167.09 570.327C137.547 574.737 108.097 577.036 78.6918 578.007Z" fill="black"/>
<path d="M121.534 587.243C120.299 587.072 119.066 586.893 117.836 586.706C134.033 585.797 150.183 584.472 166.271 582.617C194.281 579.385 221.96 571.451 249.684 563.503L249.944 563.429C251.098 563.098 252.252 562.767 253.406 562.437C274.347 556.441 295.322 550.558 316.468 546.826C315.875 547.188 315.28 547.549 314.684 547.908C294.236 551.643 273.927 557.342 253.613 563.158C252.365 563.515 251.118 563.873 249.87 564.23C222.163 572.173 194.43 580.123 166.357 583.362C151.464 585.08 136.519 586.343 121.534 587.243Z" fill="black"/>
</svg>
