<svg width="17" height="19" viewBox="0 0 17 19" fill="none" xmlns="http://www.w3.org/2000/svg">
<path fill-rule="evenodd" clip-rule="evenodd" d="M16.6265 7.36967C16.8657 7.60618 17 7.92691 17 8.26132C17 8.59574 16.8657 8.91647 16.6265 9.15297L7.06474 18.6059C6.93838 18.7308 6.78836 18.8299 6.62324 18.8976C6.45813 18.9652 6.28116 19 6.10244 19C5.92372 19 5.74675 18.9652 5.58163 18.8976C5.41652 18.8299 5.2665 18.7308 5.14014 18.6059L0.389455 13.9101C0.267613 13.7938 0.170428 13.6546 0.10357 13.5007C0.0367117 13.3469 0.00152008 13.1814 4.81659e-05 13.0139C-0.00142375 12.8465 0.0308536 12.6804 0.0949967 12.5254C0.15914 12.3704 0.253864 12.2296 0.373642 12.1112C0.493421 11.9928 0.635854 11.8991 0.792633 11.8357C0.949411 11.7723 1.11739 11.7404 1.28678 11.7418C1.45617 11.7433 1.62356 11.7781 1.7792 11.8442C1.93484 11.9103 2.07561 12.0064 2.19329 12.1268L6.10201 15.991L14.8218 7.36967C14.9403 7.25248 15.0809 7.15951 15.2358 7.09608C15.3906 7.03265 15.5566 7 15.7242 7C15.8917 7 16.0577 7.03265 16.2125 7.09608C16.3674 7.15951 16.508 7.25248 16.6265 7.36967Z" fill="#8EBBFF"/>
</svg>
