<svg width="54" height="54" viewBox="0 0 54 54" fill="none" xmlns="http://www.w3.org/2000/svg">
<path d="M35.7407 21.2285C35.7407 19.7199 35.2563 18.498 34.2874 17.5627C33.3185 16.6275 32.044 16.1598 30.4639 16.1598H23.3089V26.2971H30.4639C32.044 26.2971 33.3185 25.8294 34.2874 24.8942C35.2563 23.9589 35.7407 22.737 35.7407 21.2285ZM41.0399 21.2285C41.0399 24.1399 40.0971 26.5158 38.2115 28.3562C36.3258 30.1966 33.8924 31.1168 30.9111 31.1168H23.3089V33.7869H34.6004C34.8091 33.7869 34.9805 33.8548 35.1147 33.9906C35.2488 34.1263 35.3159 34.2998 35.3159 34.511V37.4074C35.3159 37.6186 35.2488 37.792 35.1147 37.9278C34.9805 38.0636 34.8091 38.1315 34.6004 38.1315H23.3089V42.476C23.3089 42.6872 23.2381 42.8607 23.0965 42.9964C22.9549 43.1322 22.7872 43.2001 22.5934 43.2001H18.8594C18.6507 43.2001 18.4793 43.1322 18.3452 42.9964C18.211 42.8607 18.1439 42.6872 18.1439 42.476V38.1315H13.1354C12.9267 38.1315 12.7553 38.0636 12.6212 37.9278C12.487 37.792 12.4199 37.6186 12.4199 37.4074V34.511C12.4199 34.2998 12.487 34.1263 12.6212 33.9906C12.7553 33.8548 12.9267 33.7869 13.1354 33.7869H18.1439V31.1168H13.1354C12.9267 31.1168 12.7553 31.0489 12.6212 30.9132C12.487 30.7774 12.4199 30.6039 12.4199 30.3927V27.0212C12.4199 26.8251 12.487 26.6554 12.6212 26.5121C12.7553 26.3687 12.9267 26.2971 13.1354 26.2971H18.1439V12.0642C18.1439 11.853 18.211 11.6795 18.3452 11.5437C18.4793 11.408 18.6507 11.3401 18.8594 11.3401H30.9111C33.8924 11.3401 36.3258 12.2603 38.2115 14.1007C40.0971 15.9411 41.0399 18.317 41.0399 21.2285Z" fill="#ACFF8E"/>
</svg>
