<svg width="37" height="37" viewBox="0 0 37 37" fill="none" xmlns="http://www.w3.org/2000/svg">
<path d="M24.4889 14.5449C24.4889 13.5113 24.1569 12.674 23.493 12.0332C22.8292 11.3924 21.9559 11.0719 20.8733 11.0719H15.9708V18.0178H20.8733C21.9559 18.0178 22.8292 17.6974 23.493 17.0566C24.1569 16.4157 24.4889 15.5785 24.4889 14.5449ZM28.1198 14.5449C28.1198 16.5398 27.4738 18.1677 26.1817 19.4287C24.8897 20.6897 23.2224 21.3203 21.1797 21.3203H15.9708V23.1498H23.7075C23.8505 23.1498 23.968 23.1963 24.0599 23.2893C24.1518 23.3823 24.1978 23.5012 24.1978 23.6459V25.6304C24.1978 25.7751 24.1518 25.894 24.0599 25.987C23.968 26.0801 23.8505 26.1266 23.7075 26.1266H15.9708V29.1034C15.9708 29.2481 15.9222 29.367 15.8252 29.46C15.7282 29.553 15.6133 29.5995 15.4805 29.5995H12.922C12.779 29.5995 12.6616 29.553 12.5696 29.46C12.4777 29.367 12.4318 29.2481 12.4318 29.1034V26.1266H9.00002C8.85703 26.1266 8.73957 26.0801 8.64765 25.987C8.55573 25.894 8.50977 25.7751 8.50977 25.6304V23.6459C8.50977 23.5012 8.55573 23.3823 8.64765 23.2893C8.73957 23.1963 8.85703 23.1498 9.00002 23.1498H12.4318V21.3203H9.00002C8.85703 21.3203 8.73957 21.2737 8.64765 21.1807C8.55573 21.0877 8.50977 20.9688 8.50977 20.8241V18.514C8.50977 18.3796 8.55573 18.2633 8.64765 18.1651C8.73957 18.0669 8.85703 18.0178 9.00002 18.0178H12.4318V8.26567C12.4318 8.12096 12.4777 8.0021 12.5696 7.90907C12.6616 7.81604 12.779 7.76953 12.922 7.76953H21.1797C23.2224 7.76953 24.8897 8.40004 26.1817 9.66105C27.4738 10.9221 28.1198 12.55 28.1198 14.5449Z" fill="#8EBBFF"/>
</svg>
