<svg width="309" height="292" viewBox="0 0 309 292" fill="none" xmlns="http://www.w3.org/2000/svg">
<path d="M-96.7277 9.97826C-103.627 8.82362 -110.521 7.64875 -117.414 6.47397C-123.272 5.47573 -129.128 4.47756 -134.988 3.49193C-137.469 3.0747 -139.95 2.65972 -142.431 2.24795C-149.786 1.34252 -157.19 0.592083 -164.638 0C-154.814 1.51848 -145.008 3.13142 -135.205 4.78034C-129.352 5.76493 -123.499 6.76239 -117.644 7.7602L-117.641 7.76072C-104.537 9.99406 -91.4224 12.2292 -78.2659 14.3255C-84.3769 12.7664 -90.5316 11.3166 -96.7277 9.97826Z" fill="black"/>
<path d="M17.3281 49.1589C16.0875 48.5611 14.8441 47.9683 13.5981 47.3802C6.37689 46.4943 -0.851807 45.6563 -8.08914 44.8737C-45.6009 40.8102 -82.0042 33.0243 -118.383 25.2436L-118.392 25.2417C-124.278 23.9828 -130.163 22.7242 -136.051 21.4814C-178.327 12.56 -220.791 4.46343 -265.051 3.077C-268.144 2.97929 -271.234 2.90248 -274.323 2.84537C-277.165 3.22163 -280 3.62105 -282.827 4.04344C-276.922 4.08559 -271.011 4.19589 -265.093 4.38287C-220.957 5.76541 -178.59 13.8397 -136.321 22.7598C-130.436 24.0017 -124.553 25.2602 -118.666 26.5192C-82.2914 34.2993 -45.8144 42.1013 -8.22998 46.1726C0.300568 47.095 8.81937 48.0946 17.3281 49.1589Z" fill="black"/>
<path d="M72.1882 79.8591C71.3417 79.3149 70.4935 78.7732 69.6436 78.2339C44.7687 75.2083 20.0167 72.0684 -4.52786 68.8368C-43.9544 63.6493 -81.7336 53.3509 -119.476 43.0623L-119.478 43.0618C-125.602 41.3925 -131.725 39.7233 -137.854 38.0764C-181.738 26.2839 -225.907 15.6326 -272.773 14.2272C-296.821 13.5063 -320.569 14.7491 -344.149 17.0781C-346.562 17.748 -348.969 18.435 -351.368 19.139C-325.414 16.3327 -299.293 14.7394 -272.812 15.5331C-226.11 16.9336 -182.068 27.5481 -138.194 39.3381C-132.073 40.983 -125.954 42.6508 -119.833 44.3197C-82.0942 54.6074 -44.2201 64.9322 -4.69849 70.1322C20.7387 73.4812 46.399 76.732 72.1882 79.8591Z" fill="black"/>
<path d="M108.02 105.104C107.4 104.626 106.779 104.15 106.156 103.676C70.2465 101.358 34.5919 98.1842 -0.424866 93.4254C-43.6112 87.5535 -84.2422 73.5463 -124.891 59.5328L-124.898 59.5305C-130.051 57.7542 -135.203 55.9778 -140.362 54.2179C-186.192 38.5815 -232.44 24.2532 -282.638 22.9767C-325.281 21.9031 -366.121 29.4141 -406.559 38.8322C-408.853 39.8019 -411.137 40.7878 -413.414 41.7896C-370.657 31.6077 -327.657 23.1502 -282.671 24.2828C-232.691 25.5538 -186.609 39.8198 -140.784 55.4544C-135.627 57.2137 -130.474 58.9905 -125.318 60.768C-84.683 74.7774 -43.9242 88.8295 -0.601105 94.72C35.0752 99.5684 71.4206 102.773 108.02 105.104Z" fill="black"/>
<path d="M135.573 127.879C135.09 127.451 134.606 127.023 134.121 126.596C90.0591 127.31 46.3882 125.841 4.21552 118.572C-40.4798 110.881 -82.2733 93.5716 -124.075 76.2587L-124.081 76.2559C-130.458 73.6151 -136.834 70.9742 -143.221 68.3674C-191.45 48.6825 -240.253 30.9538 -293.911 30.0655C-343.035 29.2512 -388.334 43.012 -433.166 58.5574C-439.456 60.7384 -445.736 62.9542 -452.016 65.1701C-458.622 67.501 -465.228 69.8319 -471.845 72.1221C-473.575 73.1659 -475.299 74.2195 -477.015 75.283C-468.509 72.3759 -460.032 69.3848 -451.563 66.3963L-451.56 66.3951C-445.285 64.1809 -439.014 61.968 -432.737 59.7918C-387.918 44.2507 -342.808 30.5617 -293.932 31.3718C-240.54 32.2557 -191.934 49.8961 -143.715 69.577C-137.337 72.1799 -130.966 74.8189 -124.592 77.4593L-124.589 77.4604C-82.798 94.7701 -40.8571 112.142 3.99353 119.859C46.7333 127.227 90.9857 128.648 135.573 127.879Z" fill="black"/>
<path d="M156.438 147.429C156.04 147.035 155.641 146.641 155.242 146.248C105.78 151.779 56.5947 153.959 9.11459 144.014C-36.9076 134.392 -80.083 113.593 -123.309 92.7689C-130.993 89.0671 -138.68 85.3642 -146.384 81.7235C-197.384 57.6214 -249.14 36.25 -306.183 36.0464C-356.151 35.8612 -400.536 53.76 -444.206 73.9588C-450.622 76.9261 -457.021 79.9426 -463.42 82.9591C-484.739 93.0084 -506.057 103.058 -527.966 111.285C-529.03 112.138 -530.091 112.995 -531.148 113.856C-507.877 105.362 -485.326 94.7315 -462.838 84.1298C-456.444 81.1157 -450.056 78.104 -443.657 75.1445C-400.003 54.9531 -355.845 37.1689 -306.188 37.3529C-249.458 37.5554 -197.931 58.8079 -146.942 82.9046C-139.258 86.536 -131.586 90.2324 -123.91 93.9306L-123.906 93.9325C-80.6854 114.755 -37.3454 135.635 8.84671 145.293C56.8651 155.351 106.577 153.051 156.438 147.429Z" fill="black"/>
<path d="M173.154 164.768C172.812 164.397 172.469 164.025 172.126 163.655C119.277 175.111 66.4838 182.445 14.1223 169.641C-33.5774 157.977 -78.5265 133.732 -123.598 109.422C-132.288 104.735 -140.982 100.045 -149.701 95.4429C-203.6 66.9937 -258.432 41.8989 -318.853 41.6582C-369.542 41.4544 -413.182 63.6473 -455.785 88.8126C-462.494 92.7757 -469.177 96.8117 -475.857 100.846C-506.601 119.414 -537.296 137.953 -570.31 149.214C-570.996 149.901 -571.681 150.589 -572.364 151.28C-538.241 140.056 -506.641 120.968 -475.141 101.942L-475.139 101.94C-468.469 97.9114 -461.804 93.8854 -455.12 89.9374C-412.532 64.781 -369.161 42.7625 -318.858 42.9648C-258.784 43.204 -204.201 68.154 -150.312 96.5982C-141.618 101.187 -132.941 105.867 -124.262 110.549L-124.259 110.551C-79.1894 134.862 -34.0662 159.203 13.8117 170.91C66.6576 183.832 119.881 176.345 172.949 164.813C173.017 164.798 173.086 164.783 173.154 164.768Z" fill="black"/>
<path d="M187.093 180.55C186.789 180.191 186.484 179.832 186.179 179.474C182.911 180.547 179.644 181.604 176.376 182.639C124.854 198.968 73.1637 210.075 19.128 195.157C-29.9115 181.611 -76.6224 153.979 -123.576 126.204C-133.341 120.427 -143.116 114.645 -152.925 108.981C-209.847 76.1166 -267.874 47.2881 -331.305 47.3807C-382.804 47.4549 -425.729 73.9172 -467.263 103.927C-474.088 108.858 -480.874 113.884 -487.655 118.906L-487.658 118.909C-522.199 144.49 -556.594 169.964 -595.175 182.243C-597.565 183.003 -599.964 183.708 -602.369 184.36C-602.848 184.936 -603.326 185.513 -603.803 186.091C-600.783 185.308 -597.775 184.441 -594.778 183.487C-555.971 171.136 -521.367 145.505 -486.83 119.923C-480.06 114.909 -473.293 109.896 -466.497 104.986C-424.973 74.983 -382.348 48.7608 -331.303 48.6872C-268.254 48.5952 -210.495 77.2508 -153.579 110.113C-143.8 115.759 -134.045 121.53 -124.293 127.299C-77.3376 155.078 -30.4442 182.819 18.7798 196.417C73.1978 211.44 125.196 200.23 176.771 183.885C180.214 182.794 183.654 181.68 187.093 180.55Z" fill="black"/>
<path d="M199.107 195.26C198.829 194.907 198.55 194.553 198.271 194.2C192.236 196.875 186.205 199.501 180.167 202.033C130.339 222.933 80.0334 237.496 23.8721 220.452C-26.3136 205.222 -74.7326 174.426 -123.544 143.381L-123.547 143.379C-134.324 136.524 -145.121 129.657 -155.96 122.943C-215.829 85.8573 -276.968 53.4526 -343.056 53.9526C-395.38 54.3422 -437.652 84.9187 -478.17 119.531C-485.008 125.373 -491.794 131.327 -498.571 137.274C-511.898 148.968 -525.19 160.632 -538.777 171.346C-559.262 187.498 -580.355 201.44 -603.111 209.98C-611.046 212.959 -619.086 215.191 -627.215 216.769C-627.576 217.279 -627.935 217.791 -628.294 218.303C-619.645 216.701 -611.091 214.372 -602.652 211.203C-579.714 202.595 -558.498 188.56 -537.967 172.371C-524.354 161.637 -511.015 149.932 -497.671 138.223L-497.663 138.216C-490.895 132.278 -484.127 126.339 -477.32 120.524C-436.803 85.9121 -394.853 55.6448 -343.046 55.2591C-277.371 54.7623 -216.518 86.9672 -156.649 124.053C-145.845 130.746 -135.072 137.598 -124.309 144.444L-124.306 144.446C-75.4899 175.497 -26.8819 206.415 23.4923 221.702C80.1065 238.883 130.774 224.168 180.673 203.238C186.827 200.657 192.968 197.982 199.107 195.26Z" fill="black"/>
<path d="M209.609 209.085C209.35 208.731 209.089 208.377 208.829 208.024C200.475 212.664 192.142 217.238 183.78 221.591C135.683 246.632 86.7563 264.325 28.1691 245.303C-23.0893 228.655 -73.113 194.999 -123.678 160.98L-123.683 160.976C-135.302 153.159 -146.95 145.322 -158.648 137.669C-221.186 96.7502 -285.141 61.0751 -353.55 62.0011C-406.77 62.7249 -448.412 97.0542 -487.959 135.815C-494.729 142.45 -501.435 149.213 -508.129 155.963L-508.132 155.967C-521.02 168.963 -533.861 181.912 -547.021 193.814C-567.008 211.89 -587.665 227.486 -610.193 237.053C-622.169 242.134 -634.404 245.234 -646.838 246.731C-647.123 247.202 -647.408 247.674 -647.693 248.147C-634.801 246.684 -622.107 243.527 -609.681 238.255C-586.958 228.605 -566.174 212.898 -546.144 194.783C-532.958 182.858 -520.07 169.861 -507.165 156.847C-500.477 150.103 -493.785 143.355 -487.044 136.748C-447.486 97.9774 -406.181 64.0236 -353.533 63.3075C-285.562 62.3875 -221.91 97.8383 -159.364 138.762C-147.703 146.391 -136.08 154.212 -124.475 162.02C-73.9032 196.047 -23.6853 229.835 27.7651 246.545C86.8662 265.735 136.198 247.837 184.384 222.75C192.809 218.364 201.203 213.755 209.609 209.085Z" fill="black"/>
<path d="M218.979 222.288C218.733 221.929 218.486 221.57 218.238 221.212C217.91 221.427 217.582 221.643 217.254 221.858L217.251 221.86C207.168 228.478 197.154 235.051 187.077 241.246C140.608 269.814 92.9635 290.233 31.9819 269.525C-17.4185 252.764 -65.4824 222.568 -111.052 193.939C-122.816 186.548 -134.414 179.262 -145.825 172.338C-156.915 165.604 -168.863 157.812 -181.44 149.611C-202.357 135.97 -225.014 121.196 -248.35 108.265C-285.741 87.5447 -325.079 71.4306 -362.234 72.117C-416.53 73.1195 -457.519 110.653 -496.111 152.921C-502.714 160.152 -509.244 167.52 -515.76 174.871L-515.762 174.874C-528.322 189.044 -540.83 203.157 -553.702 216.119C-573.242 235.797 -593.554 252.754 -616.011 263.126C-631.142 270.113 -646.664 273.58 -662.462 274.394C-662.696 274.841 -662.93 275.289 -663.164 275.737C-646.955 274.99 -631.01 271.492 -615.462 264.312C-592.798 253.844 -572.356 236.76 -552.774 217.039C-539.878 204.052 -527.325 189.89 -514.748 175.701C-508.237 168.355 -501.72 161.002 -495.146 153.802C-456.535 111.514 -415.889 74.4144 -362.21 73.4233C-325.414 72.7436 -286.329 88.7128 -248.984 109.407C-225.671 122.326 -203.114 137.037 -182.237 150.652C-169.648 158.863 -157.669 166.674 -146.504 173.455C-135.134 180.353 -123.565 187.622 -111.819 195.002C-66.2369 223.64 -18 253.946 31.5614 270.762C93.1072 291.662 141.191 270.99 187.762 242.359C197.857 236.153 207.889 229.568 217.971 222.95C218.307 222.73 218.643 222.509 218.979 222.288Z" fill="black"/>
<path d="M227.466 235.057C227.23 234.69 226.994 234.323 226.757 233.957C225.641 234.776 224.527 235.596 223.414 236.416C221.381 237.915 219.353 239.414 217.329 240.911C208.093 247.74 198.927 254.517 189.692 260.936C144.673 292.228 98.1938 314.889 35.0147 293.007C-15.528 275.497 -64.8832 243.576 -111.435 213.467L-111.439 213.465C-123.694 205.539 -135.755 197.738 -147.592 190.359C-158.915 183.295 -171.154 175.072 -184.081 166.387L-184.083 166.386C-188.199 163.62 -192.386 160.807 -196.635 157.97C-214.218 146.229 -232.858 134.079 -251.994 123.143C-290.248 101.284 -330.578 84.2229 -368.516 85.0391C-424.103 86.2275 -464.382 126.212 -502.026 171.139C-508.352 178.688 -514.601 186.376 -520.838 194.047L-520.84 194.049C-533.192 209.244 -545.495 224.377 -558.238 238.254C-577.406 259.129 -597.504 277.085 -620.121 288.015C-637.993 296.648 -656.311 300.073 -674.917 299.813C-675.114 300.246 -675.31 300.678 -675.506 301.111C-656.532 301.452 -637.819 298.016 -619.552 289.191C-596.716 278.155 -576.485 260.058 -557.275 239.138C-544.506 225.232 -532.159 210.045 -519.79 194.831C-513.559 187.167 -507.322 179.495 -501.024 171.978C-463.358 127.024 -423.423 87.5198 -368.488 86.3453C-330.922 85.5371 -290.854 102.442 -252.643 124.277C-233.548 135.189 -214.939 147.319 -197.361 159.056C-193.12 161.888 -188.939 164.697 -184.826 167.461L-184.823 167.462C-171.892 176.15 -159.628 184.39 -148.284 191.468C-136.491 198.819 -124.461 206.6 -112.226 214.514L-112.221 214.517C-65.6559 244.635 -16.1218 276.674 34.5867 294.242C98.3678 316.332 145.308 293.378 190.439 262.008C199.691 255.577 208.874 248.787 218.111 241.958L218.138 241.938C220.152 240.449 222.169 238.958 224.19 237.468C225.281 236.664 226.373 235.86 227.466 235.057Z" fill="black"/>
<path d="M235.337 247.685C235.11 247.31 234.883 246.935 234.656 246.56C228.514 251.321 222.449 256.159 216.418 260.969C208.07 267.627 199.788 274.233 191.459 280.513C169.547 297.035 147.236 311.367 122.276 318.774C97.3352 326.175 69.7126 326.671 37.1565 315.454C-13.9802 297.827 -64.215 264.648 -111.257 233.578L-111.261 233.576C-123.937 225.204 -136.38 216.985 -148.548 209.265C-160.029 201.984 -172.419 193.514 -185.498 184.574L-185.514 184.563C-189.626 181.752 -193.806 178.895 -198.048 176.013C-215.776 163.968 -234.562 151.509 -253.865 140.299C-292.452 117.89 -333.198 100.412 -371.803 101.247C-429.027 102.509 -468.522 144.003 -505.21 190.537C-511.136 198.052 -516.987 205.698 -522.829 213.332L-522.832 213.336C-535.106 229.374 -547.339 245.359 -560.138 259.977C-579.022 281.543 -599.071 300.052 -622.153 311.238C-642.664 321.18 -663.551 324.201 -684.657 322.614C-684.826 323.038 -684.995 323.461 -685.163 323.886C-663.728 325.558 -642.471 322.539 -621.583 312.413C-598.269 301.115 -578.083 282.455 -559.154 260.837C-546.328 246.188 -534.049 230.144 -521.761 214.087C-515.924 206.46 -510.084 198.83 -504.183 191.345C-467.474 144.785 -428.324 103.801 -371.775 102.553C-333.547 101.726 -293.064 119.045 -254.522 141.429C-235.26 152.615 -216.506 165.052 -198.782 177.094C-194.555 179.966 -190.385 182.816 -186.281 185.622L-186.251 185.642L-186.25 185.643C-173.167 194.586 -160.751 203.074 -149.248 210.368C-137.129 218.058 -124.717 226.256 -112.063 234.614L-112.061 234.615C-65.0035 265.697 -14.5799 299.002 36.7305 316.689C69.5384 327.993 97.4401 327.506 122.648 320.026C147.836 312.552 170.298 298.105 192.246 281.556C200.638 275.229 208.943 268.604 217.298 261.94C223.269 257.177 229.266 252.393 235.337 247.685Z" fill="black"/>
<path d="M243.446 261.614C243.231 261.231 243.015 260.848 242.799 260.466C234.097 267.009 225.575 273.782 217.12 280.502C208.697 287.196 200.342 293.837 191.94 300.145C170.01 316.611 147.69 330.877 122.771 338.21C97.8724 345.537 70.3425 345.953 37.9715 334.653C-13.237 316.782 -63.5479 284.122 -110.883 253.395C-123.798 245.011 -136.492 236.771 -148.921 229.015C-160.721 221.648 -173.49 213.027 -186.982 203.917L-186.985 203.915L-187.008 203.9C-190.821 201.325 -194.692 198.712 -198.614 196.077C-216.42 184.117 -235.287 171.72 -254.656 160.535C-293.375 138.178 -334.193 120.609 -372.648 121.11C-430.063 121.871 -469.319 163.604 -505.716 210.468C-511.59 218.031 -517.388 225.726 -523.177 233.41L-523.182 233.416C-535.359 249.577 -547.497 265.687 -560.217 280.404C-578.976 302.108 -598.934 320.7 -622.005 331.839C-645.11 343.001 -668.531 345.476 -692.116 342.508C-692.264 342.928 -692.411 343.349 -692.558 343.769C-668.678 346.817 -644.907 344.354 -621.436 333.015C-598.129 321.762 -578.032 303.015 -559.227 281.258C-546.48 266.509 -534.297 250.339 -522.105 234.158L-522.093 234.143C-516.312 226.471 -510.53 218.796 -504.684 211.269C-468.265 164.376 -429.357 123.168 -372.631 122.416C-334.547 121.92 -293.988 139.333 -255.31 161.667C-235.981 172.828 -217.144 185.204 -199.344 197.161C-195.42 199.797 -191.547 202.412 -187.729 204.99L-187.726 204.991C-174.231 214.103 -161.435 222.743 -149.614 230.123C-137.232 237.85 -124.571 246.069 -111.677 254.439L-111.676 254.44C-64.3249 285.179 -13.8327 317.958 37.5405 335.887C70.1642 347.274 97.9739 346.869 123.14 339.463C148.287 332.063 170.759 317.683 192.726 301.189C201.191 294.833 209.569 288.173 217.998 281.474C226.386 274.806 234.824 268.1 243.446 261.614Z" fill="black"/>
<path d="M251.768 277.051C251.566 276.661 251.364 276.272 251.162 275.882C242.786 281.603 234.571 287.546 226.432 293.5C224.466 294.938 222.505 296.376 220.547 297.812C211.243 304.637 202.013 311.408 192.715 317.813C147.714 348.815 101.319 371.135 38.416 349.052C-12.8884 331.044 -63.0495 300.579 -110.954 271.484L-110.956 271.483C-124.165 263.461 -137.202 255.543 -150.045 248.018C-162.681 240.615 -176.496 231.768 -191.141 222.389C-194.171 220.448 -197.237 218.485 -200.336 216.507C-218.401 204.973 -237.56 192.946 -257.168 182.054C-296.363 160.28 -337.446 142.983 -375.266 143.261C-431.393 143.688 -470.337 185.001 -506.409 231.485C-512.428 239.24 -518.365 247.139 -524.291 255.021C-536.155 270.804 -547.971 286.522 -560.296 300.906C-578.767 322.464 -598.311 340.935 -620.717 351.999C-646.274 364.621 -672.287 366.468 -698.524 361.985C-698.653 362.405 -698.781 362.825 -698.909 363.245C-672.408 367.799 -646.053 365.97 -620.138 353.171C-597.497 341.991 -577.816 323.362 -559.303 301.756C-546.952 287.342 -535.091 271.563 -523.211 255.76C-517.291 247.886 -511.367 240.006 -505.376 232.285C-469.278 185.768 -430.687 144.99 -375.257 144.568C-337.795 144.292 -296.965 161.441 -257.803 183.196C-238.232 194.068 -219.102 206.076 -201.039 217.608C-197.948 219.581 -194.887 221.542 -191.861 223.48L-191.855 223.483C-177.209 232.863 -163.367 241.727 -150.706 249.146C-137.906 256.645 -124.897 264.546 -111.706 272.558L-111.704 272.559C-63.784 301.664 -13.4642 332.227 37.9828 350.285C101.486 372.579 148.344 349.968 193.457 318.889C202.772 312.471 212.022 305.687 221.327 298.861C223.284 297.426 225.242 295.99 227.204 294.554C235.299 288.633 243.457 282.73 251.768 277.051Z" fill="black"/>
<path d="M259.791 293.255C259.604 292.86 259.416 292.465 259.228 292.07C249.017 298.15 239.016 304.55 229.109 310.949C227.59 311.93 226.073 312.911 224.558 313.891C214.453 320.428 204.427 326.913 194.34 333.017C147.957 361.085 100.448 380.984 38.9993 360.236C-12.7889 342.732 -63.429 314.709 -112.345 287.64C-125.679 280.262 -138.885 272.954 -151.951 265.949C-165.452 258.713 -180.321 249.911 -196.106 240.567C-198.463 239.171 -200.841 237.764 -203.237 236.347C-221.675 225.452 -241.221 214.05 -261.156 203.717C-301.004 183.062 -342.499 166.629 -379.888 167.112C-434.74 167.799 -472.676 208.392 -507.737 254.059C-513.667 261.784 -519.514 269.652 -525.348 277.502L-525.349 277.504C-536.793 292.904 -548.188 308.238 -560.07 322.294C-577.999 343.505 -596.967 361.715 -618.728 372.714C-646.557 386.775 -675.157 387.756 -704.106 381.56C-704.217 381.981 -704.328 382.403 -704.438 382.825C-675.255 389.081 -646.322 388.12 -618.138 373.88C-596.145 362.764 -577.042 344.396 -559.071 323.137C-547.164 309.051 -535.724 293.657 -524.264 278.235C-518.436 270.393 -512.602 262.543 -506.7 254.855C-471.613 209.155 -434.027 169.097 -379.871 168.418C-342.827 167.94 -301.578 184.237 -261.758 204.877C-241.858 215.191 -222.339 226.578 -203.903 237.472C-201.521 238.879 -199.158 240.278 -196.814 241.666L-196.775 241.689C-180.994 251.031 -166.097 259.85 -152.569 267.101C-139.539 274.086 -126.357 281.38 -113.039 288.75C-64.1096 315.827 -13.3311 343.927 38.5807 361.474C100.583 382.409 148.525 362.269 195.017 334.135C205.122 328.02 215.166 321.523 225.269 314.987C226.784 314.008 228.3 313.027 229.818 312.046C239.69 305.67 249.64 299.303 259.791 293.255Z" fill="black"/>
<path d="M267.518 310.385C267.346 309.984 267.173 309.583 267 309.183C254.191 315.548 241.658 322.353 229.229 329.101C218.343 335.012 207.536 340.88 196.692 346.372C148.661 370.695 99.7999 387.715 39.6497 368.981C-12.7183 352.667 -64.0724 327.468 -114.132 302.905C-127.681 296.256 -141.136 289.654 -154.49 283.288C-169.036 276.36 -185.128 267.783 -202.198 258.686L-202.2 258.685L-202.373 258.593C-203.942 257.757 -205.519 256.916 -207.104 256.072C-225.992 246.014 -245.98 235.464 -266.29 225.922C-306.889 206.847 -348.87 191.751 -386.028 192.697C-439.621 194.09 -476.001 233.666 -509.527 278.112C-515.175 285.6 -520.74 293.224 -526.295 300.834C-537.257 315.851 -548.177 330.81 -559.602 344.545C-576.808 365.228 -595.096 383.049 -616.258 393.982C-646.105 409.401 -677.233 409.321 -708.894 401.298C-708.989 401.723 -709.082 402.149 -709.176 402.575C-677.315 410.641 -645.859 410.745 -615.658 395.143C-594.266 384.091 -575.845 366.113 -558.597 345.38C-547.147 331.615 -536.183 316.597 -525.206 301.559L-525.204 301.557C-519.656 293.956 -514.104 286.35 -508.483 278.899C-474.936 234.424 -438.897 195.379 -385.994 194.003C-349.163 193.066 -307.421 208.041 -266.846 227.104C-246.569 236.631 -226.607 247.167 -207.718 257.225C-206.073 258.102 -204.436 258.974 -202.808 259.842C-185.745 268.935 -169.627 277.525 -155.053 284.467C-141.732 290.818 -128.3 297.409 -114.766 304.05L-114.76 304.053C-64.6886 328.622 -13.2136 353.881 39.2608 370.229C99.902 389.116 149.151 371.912 197.283 347.537C208.199 342.009 219.053 336.116 229.968 330.19C242.346 323.47 254.803 316.707 267.518 310.385Z" fill="black"/>
<path d="M274.795 328.267C274.639 327.86 274.482 327.454 274.324 327.048C260.95 332.319 247.801 337.98 234.744 343.601L234.742 343.602C223.034 348.643 211.399 353.652 199.741 358.32C149.833 378.304 99.3918 392.104 40.479 375.843C-12.6212 361.207 -64.888 339.139 -116.247 317.453L-116.254 317.45C-130.012 311.641 -143.704 305.86 -157.33 300.257C-172.998 293.815 -190.365 285.697 -208.747 277.104L-211.467 275.833C-230.85 266.774 -251.307 257.261 -272.02 248.699C-313.427 231.581 -355.948 218.221 -393.059 219.908C-445.556 222.286 -479.918 260.656 -511.466 303.58C-516.613 310.582 -521.684 317.704 -526.747 324.816L-526.749 324.819C-537.232 339.542 -547.682 354.221 -558.713 367.704C-575.063 387.689 -592.623 404.963 -613.305 415.729C-645.031 432.251 -678.599 430.931 -712.867 421.058C-712.945 421.489 -713.023 421.92 -713.099 422.351C-678.668 432.249 -644.781 433.594 -612.701 416.888C-591.789 406.002 -574.095 388.571 -557.701 368.531C-546.642 355.014 -536.146 340.272 -525.648 325.526L-525.643 325.52C-520.588 318.42 -515.532 311.319 -510.413 304.353C-478.85 261.411 -444.819 223.56 -393 221.213C-356.195 219.54 -313.903 232.798 -272.52 249.906C-251.838 258.456 -231.406 267.957 -212.02 277.016L-209.289 278.293L-209.287 278.294C-190.916 286.881 -173.525 295.011 -157.827 301.465C-144.225 307.059 -130.548 312.834 -116.799 318.639C-65.4299 340.329 -13.0598 362.442 40.1313 377.102C99.4609 393.478 150.233 379.551 200.227 359.533C211.953 354.837 223.632 349.81 235.366 344.758C248.392 339.151 261.488 333.513 274.795 328.267Z" fill="black"/>
<path d="M281.463 346.618C281.322 346.205 281.18 345.793 281.038 345.381C267.531 349.318 254.173 353.552 240.88 357.765C228.341 361.74 215.86 365.696 203.369 369.366C151.414 384.632 99.1857 394.995 41.4138 381.485C-12.5104 368.886 -65.8057 350.203 -118.462 331.744C-132.424 326.849 -146.34 321.971 -160.212 317.226C-177.219 311.412 -196.066 303.908 -215.946 295.992L-215.99 295.974C-235.88 288.055 -256.797 279.727 -277.904 272.287C-320.1 257.414 -363.141 246.056 -400.352 248.632C-453.107 252.274 -484.359 290 -512.969 331.475C-516.789 337.011 -520.56 342.614 -524.33 348.214C-534.703 363.621 -545.06 379.006 -556.356 392.936C-571.748 411.917 -588.832 428.125 -609.953 437.905C-644.682 453.993 -680.176 451.33 -715.94 440.108C-716.003 440.545 -716.064 440.983 -716.125 441.42C-680.237 452.647 -644.458 455.329 -609.404 439.09C-588.026 429.192 -570.793 412.814 -555.34 393.758C-544.004 379.779 -533.598 364.322 -523.215 348.898C-519.452 343.309 -515.693 337.724 -511.893 332.216C-483.276 290.732 -452.34 253.53 -400.262 249.935C-363.336 247.379 -320.512 258.654 -278.338 273.519C-257.26 280.949 -236.367 289.267 -216.474 297.188L-216.41 297.214C-196.546 305.123 -177.673 312.638 -160.635 318.462C-146.785 323.2 -132.883 328.073 -118.931 332.964C-66.2662 351.427 -12.8838 370.14 41.1162 382.757C99.2227 396.346 151.717 385.905 203.737 370.62C216.287 366.932 228.804 362.965 241.364 358.984C254.652 354.772 267.988 350.545 281.463 346.618Z" fill="black"/>
<path d="M287.535 365.582C287.41 365.163 287.284 364.744 287.158 364.325C274.319 366.912 261.522 369.693 248.746 372.47C237.444 374.926 226.158 377.379 214.873 379.691C163.021 390.311 111.136 397.96 57.5482 389.377C-7.52814 378.967 -71.6666 360.639 -135.456 342.41C-159.176 335.632 -182.848 328.868 -206.502 322.529C-220.375 318.818 -235.325 314.172 -250.898 309.332L-253.518 308.518C-270.03 303.388 -287.205 298.09 -304.485 293.505C-339.031 284.34 -374.065 278.008 -405.147 281.604C-459.117 287.843 -488.612 324.856 -516.104 364.582C-518.678 368.302 -521.234 372.044 -523.792 375.788L-523.8 375.801C-548.6 412.11 -573.466 448.517 -615.161 464.767C-648.504 477.776 -683.257 473.381 -718.495 461.208C-718.54 461.653 -718.584 462.099 -718.628 462.545C-683.314 474.701 -648.321 479.107 -614.686 465.984C-572.591 449.578 -547.493 412.821 -522.737 376.564C-520.17 372.805 -517.607 369.051 -515.029 365.325C-487.537 325.599 -458.335 289.068 -404.996 282.902C-374.168 279.335 -339.331 285.612 -304.82 294.768C-287.57 299.344 -270.42 304.635 -253.906 309.766L-251.28 310.582C-235.713 315.42 -220.74 320.073 -206.84 323.791C-183.233 330.117 -159.589 336.874 -135.885 343.647C-72.0707 361.883 -7.81836 380.244 57.3415 390.667C111.173 399.289 163.253 391.597 215.136 380.97C226.456 378.652 237.764 376.194 249.079 373.735C261.88 370.953 274.691 368.169 287.535 365.582Z" fill="black"/>
<path d="M292.671 384.02C292.56 383.594 292.45 383.167 292.338 382.741C279.875 384.054 267.423 385.473 254.979 386.891C243.165 388.237 231.356 389.582 219.553 390.835C166.134 396.506 112.763 400.292 59.0009 393.767C-6.89014 385.76 -72.2375 371.947 -137.402 358.173C-161.453 353.089 -185.479 348.011 -209.499 343.231C-224.628 340.225 -240.863 336.29 -257.696 332.203L-258.165 332.09C-274.847 328.039 -292.108 323.849 -309.429 320.282C-344.386 313.084 -379.65 308.413 -410.995 312.581C-462.979 319.489 -490.853 354.582 -516.792 392.119C-519.172 395.564 -521.536 399.028 -523.9 402.493C-547.345 436.858 -570.852 471.312 -611.064 487.178C-645.768 500.87 -682.607 495.247 -720.125 481.481C-720.153 481.935 -720.18 482.389 -720.206 482.844C-682.649 496.572 -645.58 502.201 -610.584 488.393C-569.977 472.371 -546.242 437.572 -522.837 403.257L-522.834 403.252C-520.464 399.777 -518.097 396.307 -515.717 392.862C-489.784 355.333 -462.194 320.703 -410.822 313.876C-379.703 309.738 -344.616 314.37 -309.693 321.562C-292.394 325.124 -275.152 329.31 -258.463 333.362L-258.004 333.473C-241.177 337.558 -224.915 341.501 -209.754 344.513C-185.77 349.285 -161.766 354.359 -137.728 359.44L-137.724 359.441C-72.5408 373.219 -7.10883 387.05 58.8432 395.064C112.759 401.608 166.253 397.807 219.691 392.134C231.517 390.879 243.339 389.532 255.162 388.185L255.164 388.185C267.663 386.761 280.163 385.336 292.671 384.02Z" fill="black"/>
<path d="M297.031 402.268C296.935 401.834 296.839 401.4 296.743 400.966C285.089 401.162 273.435 401.394 261.782 401.626H261.78C249.295 401.875 236.811 402.123 224.33 402.328C169.641 403.223 114.998 403.268 60.4907 398.749C-6.332 393.224 -72.8889 383.963 -139.383 374.712L-139.386 374.711C-163.515 371.354 -187.635 367.999 -211.757 364.823C-227.376 362.767 -243.955 359.898 -261.04 356.896C-262.348 356.666 -263.659 356.435 -264.973 356.204C-280.813 353.416 -297.052 350.559 -313.312 348.169C-348.521 342.993 -383.885 340 -415.621 344.666C-465.58 352.001 -492.122 385.005 -516.826 420.198C-519.039 423.35 -521.237 426.519 -523.435 429.689C-545.819 461.966 -568.26 494.325 -607.074 509.625C-642.899 523.752 -681.517 517.012 -720.963 501.892C-720.973 502.355 -720.982 502.818 -720.991 503.281C-681.541 518.343 -642.707 525.081 -606.594 510.84C-567.391 495.387 -544.724 462.692 -522.379 430.462L-522.365 430.442C-520.164 427.267 -517.966 424.097 -515.756 420.948C-491.064 385.772 -464.801 353.207 -415.43 345.958C-383.89 341.321 -348.681 344.29 -313.502 349.461C-297.261 351.849 -281.039 354.703 -265.194 357.491L-261.266 358.182C-244.184 361.185 -227.578 364.058 -211.928 366.118C-187.826 369.291 -163.718 372.645 -139.596 376.002C-73.0901 385.255 -6.47928 394.522 60.3829 400.051C114.957 404.576 169.654 404.529 224.352 403.634C236.836 403.43 249.32 403.181 261.803 402.932L261.824 402.932C273.561 402.698 285.297 402.465 297.031 402.268Z" fill="black"/>
<path d="M300.67 420.397C300.589 419.955 300.508 419.514 300.427 419.072C284.925 418.1 269.423 417.112 253.922 416.123C189.99 412.045 126.057 407.967 62.0549 405.06C-6.13934 401.959 -74.2492 397.207 -142.362 392.454C-165.888 390.813 -189.414 389.171 -212.944 387.598C-231.532 386.349 -251.129 384.166 -271.179 381.932C-285.821 380.301 -300.704 378.643 -315.611 377.303C-350.883 374.131 -386.197 372.749 -418.397 377.783C-466.385 385.266 -492.019 416.04 -515.928 448.759C-518.025 451.628 -520.108 454.512 -522.192 457.397C-543.901 487.448 -565.655 517.561 -603.154 532.07C-640.003 546.349 -680.055 538.661 -721 522.471C-720.992 522.943 -720.982 523.415 -720.973 523.888C-680.057 539.999 -639.808 547.674 -602.682 533.289C-564.803 518.632 -542.824 488.199 -521.152 458.19C-519.06 455.294 -516.972 452.402 -514.872 449.529C-490.981 416.835 -465.621 386.47 -418.195 379.074C-386.158 374.066 -350.973 375.435 -315.728 378.604C-300.891 379.938 -286.026 381.594 -271.385 383.224L-271.381 383.225C-251.293 385.462 -231.627 387.652 -213.031 388.901C-189.51 390.474 -165.989 392.115 -142.467 393.757C-74.3489 398.51 -6.21606 403.264 61.9955 406.365C125.996 409.272 189.894 413.348 253.805 417.425L253.812 417.425L253.822 417.426C269.437 418.422 285.052 419.418 300.67 420.397Z" fill="black"/>
<path d="M303.644 438.584C303.579 438.136 303.513 437.688 303.447 437.24C290.943 435.601 278.449 433.908 265.955 432.215L265.942 432.213C255.064 430.739 244.187 429.265 233.306 427.826C177.09 420.396 120.77 413.921 63.694 413.33C2.2764 412.715 -59.1429 412.46 -120.56 412.206H-120.565L-120.614 412.206C-151.306 412.078 -181.998 411.951 -212.688 411.779C-233.434 411.663 -255.067 410.593 -277.032 409.507L-277.035 409.507C-289.907 408.87 -302.893 408.228 -315.882 407.769C-351.008 406.527 -386.105 406.627 -418.805 411.824C-464.948 419.176 -490.22 447.577 -513.896 477.691C-515.935 480.284 -517.962 482.89 -519.99 485.496C-541.529 513.185 -563.096 540.91 -599.452 554.404C-637.32 568.454 -678.35 560.058 -720.221 543.165C-720.193 543.646 -720.165 544.128 -720.136 544.609C-678.323 561.404 -637.122 569.774 -598.997 555.629C-562.275 541.999 -540.483 513.978 -518.977 486.325L-518.951 486.291C-516.925 483.686 -514.901 481.084 -512.868 478.498C-489.216 448.414 -464.213 420.382 -418.6 413.115C-386.028 407.937 -351.033 407.834 -315.928 409.075C-302.981 409.533 -290.013 410.174 -277.148 410.81L-277.143 410.81C-255.154 411.897 -233.464 412.969 -212.696 413.086C-181.987 413.258 -151.28 413.385 -120.573 413.512H-120.56C-59.1451 413.767 2.26712 414.021 63.681 414.636C120.673 415.227 176.926 421.692 233.135 429.122C244.01 430.559 254.884 432.033 265.762 433.507C278.382 435.217 291.007 436.928 303.644 438.584Z" fill="black"/>
<path d="M305.988 457.092C305.939 456.639 305.89 456.187 305.84 455.735C293.414 453.424 281.009 451.024 268.608 448.624L268.606 448.623C258.052 446.581 247.501 444.539 236.943 442.554C180.437 431.929 123.735 422.928 65.3726 424.184C30.4026 424.945 -5.33011 425.294 -41.4633 425.648L-41.4677 425.648C-166.62 426.871 -296.577 428.142 -416.291 446.713C-460.714 453.618 -486.279 479.53 -510.428 506.921C-512.435 509.198 -514.433 511.485 -516.43 513.772L-516.449 513.794C-538.497 539.037 -560.552 564.288 -596.112 576.477C-635.055 589.838 -676.514 581.022 -718.614 563.86C-718.566 564.35 -718.517 564.841 -718.468 565.331C-676.449 582.378 -634.853 591.15 -595.688 577.713C-559.781 565.404 -537.503 539.891 -515.486 514.679C-513.474 512.375 -511.465 510.074 -509.447 507.785C-485.325 480.424 -460.025 454.833 -416.09 448.004C-296.479 429.449 -166.653 428.179 -41.5164 426.955C-5.36612 426.602 30.3928 426.252 65.4008 425.491C123.619 424.237 180.209 433.215 236.701 443.838C247.236 445.819 257.768 447.857 268.307 449.897L268.334 449.902C280.871 452.328 293.417 454.756 305.988 457.092Z" fill="black"/>
<path d="M307.687 476.016C307.654 475.561 307.621 475.107 307.588 474.652C295.169 471.787 282.775 468.789 270.384 465.792C262.357 463.851 254.331 461.91 246.3 460.005C191.93 447.109 137.325 435.885 80.6226 437.623C-81.2393 442.571 -252.292 460.333 -412.694 481.932C-456.072 487.779 -483.433 512.875 -509.872 538.692C-511.171 539.96 -512.467 541.229 -513.762 542.498C-538.881 567.1 -563.819 591.525 -601.663 600.308C-639.645 609.136 -677.869 600.479 -716.128 584.825C-716.058 585.325 -715.988 585.824 -715.917 586.324C-677.757 601.851 -639.471 610.437 -601.367 601.581C-563.156 592.712 -537.974 568.045 -512.906 543.489C-511.59 542.2 -510.275 540.912 -508.959 539.627C-482.52 513.811 -455.432 489.011 -412.52 483.227C-252.141 461.631 -81.1372 443.875 80.6626 438.929C137.179 437.197 191.637 448.383 245.998 461.276C254.018 463.178 262.037 465.118 270.06 467.058C282.585 470.088 295.12 473.12 307.687 476.016Z" fill="black"/>
<path d="M308.738 496.377C308.723 495.925 308.708 495.472 308.692 495.019C295.157 491.647 281.669 488.068 268.185 484.49C261.322 482.668 254.46 480.847 247.593 479.054C193.496 464.927 139.138 452.534 81.902 455.456C1.28375 459.556 -79.6225 470.802 -160.408 483.291C-177.872 485.991 -195.329 488.748 -212.777 491.505L-212.781 491.505C-276.053 501.5 -339.197 511.475 -402.042 518.592C-444.706 523.433 -474.294 545.532 -503.124 568.168C-504.372 569.147 -505.618 570.127 -506.863 571.107C-534.432 592.799 -561.779 614.316 -599.824 621.383C-638.384 628.54 -675.847 620.037 -712.89 605.085C-712.798 605.592 -712.706 606.099 -712.613 606.606C-675.685 621.42 -638.203 629.835 -599.586 622.668C-561.216 615.541 -533.636 593.838 -506.116 572.183C-504.85 571.186 -503.584 570.19 -502.317 569.195C-473.485 546.558 -444.155 524.685 -401.895 519.89C-339.018 512.769 -275.836 502.789 -212.56 492.793C-195.115 490.037 -177.663 487.28 -160.208 484.582C-79.4297 472.095 1.42099 460.857 81.9687 456.761C138.986 453.85 193.173 466.193 247.263 480.318C254.121 482.109 260.978 483.929 267.838 485.75L267.84 485.75C281.443 489.36 295.062 492.975 308.738 496.377Z" fill="black"/>
<path d="M308.992 516.826C308.995 516.379 308.998 515.933 309 515.486C296.612 512.584 284.245 509.544 271.879 506.504C263.078 504.34 254.278 502.176 245.47 500.063C190.766 486.936 135.824 475.757 79.0579 478.641C-30.0053 484.158 -140.746 500.287 -250.458 516.265C-298.629 523.281 -346.601 530.268 -394.146 536.315C-436.736 541.728 -468.488 563.767 -499.612 586.154C-500.675 586.919 -501.737 587.684 -502.799 588.449C-532.861 610.098 -562.652 631.552 -601.519 638.477C-637.912 644.96 -673.6 637.794 -708.977 624.596C-708.865 625.104 -708.752 625.61 -708.639 626.117C-673.385 639.175 -637.709 646.251 -601.289 639.763C-562.123 632.785 -532.114 611.172 -502.107 589.561C-501.021 588.778 -499.935 587.996 -498.848 587.215C-467.711 564.818 -436.204 542.978 -393.981 537.611C-346.385 531.557 -298.384 524.566 -250.198 517.548L-250.196 517.548C-140.514 501.574 -29.8753 485.46 79.1243 479.946C135.688 477.072 190.473 488.21 245.165 501.333C253.955 503.443 262.744 505.603 271.537 507.765L271.542 507.767C284.01 510.832 296.488 513.9 308.992 516.826Z" fill="black"/>
<path d="M308.329 539.753C308.351 539.314 308.373 538.874 308.394 538.435C295.878 536.015 283.374 533.49 270.869 530.965C258.5 528.468 246.131 525.97 233.751 523.574C176.171 512.432 118.386 503.502 59.4365 507.107C-86.6422 516.043 -237.15 532.622 -382.11 552.486C-424.467 558.285 -458.087 578.286 -491.062 598.946C-492.96 600.135 -494.855 601.326 -496.749 602.516C-527.81 622.034 -558.702 641.446 -596.334 649.631C-633.094 657.613 -669.316 652.003 -705.273 640.199C-705.146 640.699 -705.018 641.2 -704.89 641.7C-669.05 653.372 -632.84 658.895 -596.057 650.908C-558.193 642.672 -527.118 623.144 -496.097 603.65C-494.187 602.45 -492.278 601.25 -490.368 600.053C-457.389 579.391 -423.982 559.537 -381.933 553.78C-236.994 533.919 -86.5206 517.344 59.5163 508.411C118.292 504.816 175.942 513.718 233.502 524.857C245.857 527.248 258.208 529.742 270.566 532.237L270.571 532.238C283.147 534.778 295.73 537.319 308.329 539.753Z" fill="black"/>
<path d="M306.538 563.842C306.58 563.408 306.622 562.974 306.664 562.54C293.717 560.687 280.771 558.756 267.823 556.824L267.815 556.823C253.915 554.749 240.011 552.675 226.1 550.696C167.682 542.388 109.141 535.772 50.2167 538.008C-88.3797 543.251 -232.652 549.971 -370.282 567.069C-413.988 572.494 -450.915 591.558 -487.328 611.238C-489.328 612.32 -491.327 613.403 -493.325 614.485C-527.73 633.127 -561.978 651.683 -601.491 659.338C-635.576 665.93 -668.89 662.049 -701.845 652.996C-701.707 653.486 -701.568 653.976 -701.429 654.465C-668.588 663.405 -635.311 667.21 -601.243 660.621C-561.526 652.926 -527.113 634.28 -492.747 615.658L-492.737 615.653C-490.727 614.563 -488.717 613.474 -486.706 612.388C-450.284 592.702 -413.554 573.757 -370.12 568.365C-232.552 551.275 -88.3294 544.556 50.2663 539.314C109.068 537.083 167.513 543.684 225.916 551.99C239.809 553.966 253.702 556.038 267.597 558.111L267.6 558.112C280.577 560.048 293.556 561.984 306.538 563.842Z" fill="black"/>
<path d="M303.346 589.706C303.411 589.273 303.475 588.841 303.538 588.408C289.953 587.569 276.36 586.719 262.762 585.869L262.754 585.869C56.4102 572.971 -151.371 559.983 -357.412 580.874C-403.079 585.502 -443.655 603.204 -483.821 621.574C-486.196 622.66 -488.569 623.748 -490.941 624.837C-528.731 642.167 -566.4 659.442 -607.977 666.46C-638.996 671.698 -669.17 669.344 -698.935 662.934C-698.791 663.411 -698.645 663.888 -698.499 664.364C-668.844 670.683 -638.73 672.978 -607.76 667.748C-566.005 660.7 -528.189 643.357 -490.434 626.042L-490.341 625.999C-487.987 624.919 -485.632 623.839 -483.277 622.762C-443.101 604.388 -402.706 586.777 -357.28 582.174C-151.356 561.294 56.2954 574.273 262.636 587.171L262.651 587.172C276.222 588.02 289.787 588.868 303.346 589.706Z" fill="black"/>
<path d="M299.187 613.67C299.273 613.236 299.359 612.802 299.444 612.367C277.766 612.072 256.089 611.835 234.413 611.599H234.409C164.741 610.838 95.0848 610.078 25.4434 607.38C-13.136 605.887 -52.3439 603.17 -91.7768 600.437C-176.057 594.596 -261.367 588.684 -343.762 594.496C-391.719 597.882 -436.308 613.096 -480.545 629.508C-485.569 631.372 -490.588 633.251 -495.607 635.13C-534.806 649.806 -573.995 664.479 -615.371 671.815C-642.632 676.64 -669.486 675.873 -696.128 671.879C-695.978 672.342 -695.827 672.805 -695.676 673.267C-669.137 677.193 -642.349 677.917 -615.142 673.101C-573.64 665.743 -534.334 651.026 -495.148 636.354C-490.128 634.474 -485.11 632.595 -480.09 630.733C-435.857 614.323 -391.422 599.171 -343.67 595.8C-261.366 589.994 -176.217 595.896 -91.9862 601.734L-91.9822 601.734C-52.5267 604.468 -13.2728 607.189 25.3928 608.686C95.0372 611.384 164.741 612.145 234.436 612.906L234.447 612.906C256.029 613.142 277.61 613.377 299.187 613.67Z" fill="black"/>
<path d="M293.604 638.579C293.715 638.137 293.825 637.694 293.935 637.251C274.943 638.354 255.938 639.647 236.933 640.939L236.923 640.94C222.564 641.917 208.204 642.893 193.848 643.788C132.785 647.595 71.7837 649.927 11.1442 644.523C-29.9406 640.854 -71.5992 634.524 -113.46 628.163C-128.652 625.854 -143.87 623.542 -159.097 621.351C-216.264 613.126 -273.53 606.621 -329.849 608.524C-380.288 610.226 -429.007 623.207 -477.434 637.699C-485.058 639.981 -492.675 642.3 -500.29 644.619C-541.066 657.033 -581.796 669.433 -623.411 676.021C-647.229 679.791 -670.762 679.958 -694.138 677.891C-693.986 678.342 -693.833 678.793 -693.68 679.243C-670.405 681.264 -646.952 681.07 -623.207 677.312C-581.493 670.708 -540.663 658.277 -499.889 645.862C-492.279 643.545 -484.67 641.229 -477.059 638.951C-428.64 624.461 -380.061 611.525 -329.804 609.83C-273.606 607.931 -216.434 614.421 -159.283 622.644C-144.08 624.832 -128.876 627.142 -113.692 629.449L-113.69 629.45C-71.8174 635.812 -30.0999 642.152 11.0278 645.825C71.7707 651.238 132.854 648.9 193.93 645.092C208.305 644.196 222.679 643.218 237.048 642.241C255.911 640.958 274.765 639.676 293.604 638.579Z" fill="black"/>
<path d="M286.748 663.294C286.887 662.837 287.026 662.38 287.164 661.922C267.613 664.46 247.988 667.368 228.338 670.28C212.788 672.584 197.222 674.89 181.666 677.017C119.305 685.544 57.0553 691.199 -3.6694 682.371C-44.5339 676.418 -85.5023 666.09 -126.619 655.725L-126.622 655.725C-137.479 652.988 -148.346 650.248 -159.224 647.586C-211.278 634.847 -263.564 623.884 -316.044 623.514C-368.987 623.144 -421.838 633.757 -474.469 646.191C-485.321 648.755 -496.162 651.396 -506.993 654.034C-548.717 664.198 -590.288 674.324 -631.707 679.859C-652.11 682.593 -672.36 683.28 -692.519 682.609C-692.365 683.05 -692.211 683.49 -692.056 683.931C-672.002 684.576 -651.847 683.876 -631.533 681.154C-590.039 675.609 -548.381 665.461 -506.65 655.296L-506.647 655.295C-495.825 652.659 -484.999 650.021 -474.169 647.463C-421.551 635.031 -368.829 624.452 -316.053 624.821C-263.736 625.189 -211.576 636.12 -159.535 648.855C-148.681 651.511 -137.832 654.246 -126.987 656.98L-126.975 656.983C-85.8497 667.351 -44.796 677.7 -3.85797 683.664C57.0582 692.52 119.46 686.841 181.843 678.311C197.434 676.18 213.021 673.87 228.584 671.564C248.023 668.684 267.425 665.81 286.748 663.294Z" fill="black"/>
<path d="M278.631 687.713C278.803 687.236 278.974 686.759 279.145 686.281C259.415 690.161 239.485 694.577 219.473 699.011L219.47 699.011C201.074 703.087 182.608 707.179 164.163 710.884C98.3049 724.112 32.6634 732.429 -28.9152 717.714C-63.4118 709.473 -98.2044 695.974 -133.289 682.361C-143.496 678.401 -153.728 674.431 -163.984 670.578C-209.459 653.495 -255.388 638.728 -301.587 637.47C-354.796 636.01 -409.947 644.115 -464.975 654.168C-480.037 656.92 -495.087 659.816 -510.086 662.703L-510.097 662.706C-549.919 670.371 -589.384 677.967 -627.746 682.59C-648.981 685.149 -670.104 686.269 -691.167 686.437C-691.012 686.872 -690.855 687.306 -690.699 687.74C-669.747 687.559 -648.725 686.434 -627.589 683.888C-589.179 679.258 -549.648 671.649 -509.811 663.982L-509.807 663.981L-509.804 663.98C-494.811 661.094 -479.776 658.2 -464.74 655.453C-409.727 645.403 -354.688 637.32 -301.623 638.776C-255.658 640.028 -209.904 654.724 -164.444 671.801C-154.22 675.641 -144.01 679.603 -133.817 683.558C-98.7174 697.177 -63.8107 710.721 -29.2191 718.985C32.6534 733.77 98.5341 725.399 164.42 712.165C182.926 708.447 201.429 704.348 219.846 700.267L219.848 700.267C239.574 695.896 259.203 691.547 278.631 687.713Z" fill="black"/>
<path d="M269.315 711.642C269.525 711.141 269.734 710.639 269.942 710.137C249.663 715.245 229.133 721.047 208.5 726.879L208.498 726.879C190.092 732.081 171.602 737.307 153.134 742.084C86.2446 759.387 19.5748 770.836 -42.3072 754.306C-77.8419 744.814 -111.548 726.776 -145.395 708.662C-151.484 705.404 -157.578 702.143 -163.688 698.928C-203.719 677.869 -244.414 658.839 -288.818 655.968C-344.312 652.364 -403.153 657.955 -461.978 665.663C-480.92 668.145 -499.857 670.846 -518.681 673.531L-518.683 673.531C-558.342 679.188 -597.5 684.773 -635.15 688.089C-653.202 689.677 -671.251 690.791 -689.301 691.567C-689.143 691.996 -688.983 692.425 -688.823 692.854C-670.892 692.077 -652.962 690.967 -635.035 689.391C-597.35 686.071 -558.131 680.478 -518.451 674.818C-499.636 672.135 -480.717 669.436 -461.809 666.959C-403.001 659.253 -344.264 653.676 -288.903 657.271C-244.801 660.123 -204.322 679.028 -164.297 700.085C-158.205 703.289 -152.123 706.544 -146.041 709.8C-112.199 727.912 -78.3388 746.034 -42.6447 755.568C19.5893 772.192 86.5471 760.658 153.461 743.349C172 738.553 190.532 733.316 208.963 728.107C229.245 722.375 249.404 716.678 269.315 711.642Z" fill="black"/>
<path d="M258.151 736.444C258.41 735.908 258.667 735.372 258.924 734.835C254.387 736.245 249.83 737.696 245.254 739.179C230.478 743.966 215.533 749.077 200.49 754.222L200.486 754.224C181.421 760.744 162.197 767.319 142.953 773.359C74.1331 794.961 5.62592 809.532 -54.4982 789.722C-88.0615 778.661 -118.034 758.093 -148.104 737.458C-153.165 733.985 -158.229 730.511 -163.312 727.079C-198.561 703.286 -234.761 681.591 -277.604 677.346C-335.216 671.654 -397.285 674.566 -459.449 679.703C-482.627 681.618 -505.811 683.842 -528.784 686.046L-528.786 686.046L-528.79 686.047C-567.458 689.756 -605.529 693.408 -641.962 695.434C-656.924 696.269 -671.876 697.177 -686.822 698.134C-686.657 698.56 -686.493 698.986 -686.327 699.412C-671.516 698.465 -656.704 697.565 -641.89 696.739C-605.435 694.711 -567.31 691.054 -528.617 687.343L-528.61 687.342C-505.644 685.139 -482.478 682.917 -459.342 681.005C-397.196 675.869 -335.223 672.966 -277.733 678.646C-235.246 682.855 -199.285 704.374 -164.044 728.162C-158.978 731.582 -153.925 735.049 -148.871 738.518C-118.81 759.149 -88.6633 779.838 -54.9076 790.963C5.6489 810.915 74.5188 796.209 143.344 774.606C162.579 768.568 181.855 761.976 200.952 755.445L200.958 755.443C216.005 750.298 230.94 745.19 245.657 740.421C249.839 739.067 254.004 737.739 258.151 736.444Z" fill="black"/>
<path d="M244.937 761.978C245.258 761.399 245.577 760.82 245.895 760.24C243.594 761.074 241.286 761.919 238.972 762.774C223.909 768.337 208.598 774.297 193.143 780.313C173.724 787.873 154.077 795.521 134.408 802.581C63.7982 827.925 -6.44022 845.424 -64.9619 823.255C-97.0829 811.086 -123.63 788.962 -150.219 766.803L-150.223 766.8C-154.503 763.234 -158.783 759.666 -163.088 756.139C-194.102 730.732 -226.356 707.462 -268.464 702.232C-354.268 691.565 -450.164 696.354 -542.215 700.952C-578.311 702.755 -613.816 704.528 -647.889 705.328C-659.762 705.606 -671.573 706.162 -683.336 706.935C-683.162 707.36 -682.989 707.785 -682.815 708.21C-671.213 707.453 -659.565 706.908 -647.858 706.634C-613.707 705.832 -578.154 704.057 -542.031 702.252L-542.029 702.252C-450.021 697.657 -354.308 692.877 -268.625 703.528C-226.918 708.709 -194.916 731.755 -163.917 757.15C-159.627 760.664 -155.356 764.224 -151.08 767.788C-124.503 789.94 -97.7682 812.223 -65.4252 824.477C-6.40619 846.834 64.2602 829.148 134.85 803.811C154.504 796.756 174.203 789.088 193.654 781.517L193.658 781.515L193.664 781.513C209.123 775.495 224.426 769.538 239.425 763.999C241.267 763.319 243.104 762.645 244.937 761.978Z" fill="black"/>
<path d="M234.295 780.302C234.64 779.734 234.985 779.165 235.329 778.595C201.245 789.562 168.046 802.676 133.84 816.189C125.855 819.343 117.816 822.519 109.697 825.694C105.151 827.474 100.539 829.31 95.8696 831.169C71.5969 840.832 45.7731 851.113 19.5971 857.326C-11.6021 864.73 -43.218 866.331 -73.1863 854.236C-104.532 841.58 -128.331 819.033 -152.1 796.516C-155.785 793.024 -159.47 789.533 -163.182 786.08C-190.799 760.39 -219.888 736.837 -261.881 731.14C-357.737 718.102 -463.611 718.33 -564.831 718.547H-564.835C-594.655 718.611 -624.07 718.674 -652.706 718.397C-661.321 718.314 -669.852 718.477 -678.313 718.846C-678.126 719.274 -677.938 719.702 -677.75 720.13C-669.477 719.776 -661.138 719.622 -652.719 719.704C-624.044 719.981 -594.603 719.918 -564.766 719.854C-463.562 719.637 -357.814 719.41 -262.057 732.435C-220.494 738.073 -191.662 761.371 -164.073 787.036C-160.376 790.475 -156.701 793.958 -153.02 797.446C-129.265 819.955 -105.27 842.691 -73.676 855.447C-43.3596 867.682 -11.4398 866.034 19.8991 858.597C46.1772 852.36 72.1058 842.037 96.3773 832.374L96.3798 832.373C101.042 830.516 105.643 828.685 110.173 826.911C118.295 823.734 126.336 820.558 134.319 817.405C168.054 804.079 200.768 791.156 234.295 780.302Z" fill="black"/>
<path d="M217.758 805.751C218.182 805.137 218.606 804.523 219.028 803.908C189.842 814.332 161.221 826.366 131.749 838.758L131.741 838.762C123.119 842.387 114.424 846.043 105.621 849.698C101.76 851.299 97.8227 852.953 93.8172 854.635C69.4965 864.849 42.6795 876.111 15.3697 883.131C-16.4321 891.307 -48.8098 893.704 -78.5856 882.034C-109.881 869.773 -131.95 848.118 -153.909 826.57L-153.911 826.568C-157.168 823.372 -160.423 820.179 -163.705 817.018C-189.091 792.574 -216.065 770.193 -258.302 764.701C-387.325 747.972 -525.615 741.141 -655.971 735.345C-661.001 735.123 -665.984 735.01 -670.925 734.996C-670.716 735.432 -670.506 735.869 -670.296 736.305C-665.58 736.326 -660.825 736.438 -656.029 736.65C-525.668 742.446 -387.431 749.276 -258.47 765.996C-216.67 771.432 -189.953 793.558 -164.612 817.959C-161.345 821.105 -158.099 824.29 -154.847 827.482L-154.842 827.487C-132.896 849.027 -110.625 870.885 -79.0627 883.251C-48.9231 895.063 -16.2323 892.604 15.6954 884.397C43.1057 877.35 70.0215 866.046 94.3369 855.834C98.339 854.153 102.271 852.502 106.123 850.904C114.933 847.246 123.632 843.589 132.255 839.963L132.259 839.962C161.161 827.81 189.211 816.016 217.758 805.751Z" fill="black"/>
<path d="M197.154 833.474C197.69 832.802 198.224 832.128 198.756 831.453C176.741 839.945 154.866 849.218 132.491 858.704C123.542 862.498 114.512 866.326 105.361 870.151C101.967 871.57 98.5077 873.029 94.9903 874.513C70.389 884.893 42.9413 896.473 14.9423 903.793C-17.0574 912.158 -49.6891 914.932 -79.5234 904.032C-110.975 892.546 -132.896 872.143 -154.68 851.867C-157.788 848.974 -160.893 846.084 -164.022 843.223C-189.069 820.324 -215.635 799.337 -257.604 794.161C-388.525 778.026 -524.031 764.032 -655.883 755.281C-657.532 755.172 -659.175 755.075 -660.813 754.99C-660.573 755.439 -660.333 755.888 -660.092 756.337C-658.721 756.411 -657.347 756.493 -655.97 756.585C-524.149 765.334 -388.669 779.325 -257.764 795.458C-216.213 800.583 -189.901 821.334 -164.904 844.187C-161.79 847.035 -158.694 849.917 -155.592 852.805L-155.584 852.812C-133.812 873.081 -111.69 893.676 -79.972 905.26C-49.78 916.29 -16.8445 913.453 15.273 905.057C43.3712 897.711 70.9122 886.091 95.5065 875.714C99.0221 874.231 102.477 872.773 105.866 871.356C115.024 867.528 124.058 863.698 133.009 859.904C154.684 850.716 175.87 841.735 197.154 833.474Z" fill="black"/>
<path d="M170.969 863.859C171.656 863.121 172.342 862.38 173.026 861.638C159.978 866.796 146.888 872.128 133.639 877.525C125.335 880.907 116.968 884.315 108.509 887.722C104.673 889.266 100.764 890.858 96.7917 892.475C72.3426 902.43 45.4812 913.368 18.1285 920.3C-13.6632 928.356 -46.0324 930.976 -75.9462 920.386C-107.315 909.3 -130.043 889.664 -152.672 870.113L-152.675 870.11C-155.791 867.418 -158.905 864.727 -162.04 862.061C-187.919 840.047 -215.144 819.738 -256.156 814.21C-385.047 796.857 -517.892 782.088 -647.709 771.454C-649.082 771.341 -650.452 771.238 -651.818 771.144C-651.553 771.599 -651.288 772.055 -651.022 772.509C-649.955 772.586 -648.887 772.668 -647.816 772.756C-518.024 783.388 -385.202 798.154 -256.331 815.505C-215.707 820.98 -188.723 841.079 -162.887 863.056C-159.762 865.715 -156.652 868.402 -153.536 871.094C-130.921 890.637 -107.999 910.444 -76.3824 921.618C-46.1224 932.331 -13.4601 929.653 18.4499 921.566C45.8978 914.61 72.8528 903.634 97.2967 893.681C101.266 892.064 105.169 890.475 108.998 888.934C117.461 885.525 125.83 882.117 134.132 878.735C146.524 873.687 158.77 868.699 170.969 863.859Z" fill="black"/>
<path d="M117.113 913.998C118.17 913.145 119.225 912.288 120.275 911.427C53.5826 936.38 -12.503 953.139 -69.68 934.263C-101.208 923.863 -125.163 905.421 -149.067 887.018C-152.134 884.657 -155.201 882.296 -158.282 879.953C-185.356 859.367 -213.551 840.191 -253.526 834.333C-379.196 815.946 -506.867 798.26 -633.212 784.525C-636.961 784.118 -640.687 783.788 -644.391 783.53C-644.108 783.987 -643.824 784.444 -643.54 784.901C-640.163 785.146 -636.768 785.453 -633.353 785.824C-507.033 799.556 -379.38 817.24 -253.715 835.625C-214.086 841.433 -186.115 860.432 -159.073 880.993C-155.999 883.331 -152.936 885.689 -149.868 888.051C-125.98 906.444 -101.843 925.029 -70.0897 935.504C-13.4954 954.188 51.6183 938.214 117.113 913.998Z" fill="black"/>
<path d="M79.4429 941.658C80.5761 940.902 81.7062 940.142 82.833 939.378C32.59 953.274 -16.4348 959.285 -61.1283 945.962C-93.0751 936.449 -118.703 919.539 -144.337 902.625C-147.215 900.726 -150.095 898.826 -152.982 896.938C-181.565 878.24 -211.002 860.589 -249.861 854.382C-294.726 847.227 -339.592 839.717 -384.474 832.205L-384.477 832.204C-460.93 819.408 -537.43 806.603 -614.054 795.53C-622.19 794.352 -630.26 793.584 -638.271 793.179C-637.978 793.631 -637.683 794.082 -637.388 794.533C-629.727 794.949 -622.015 795.698 -614.242 796.823C-537.629 807.895 -461.157 820.695 -384.716 833.489L-384.699 833.492C-339.818 841.004 -294.948 848.514 -250.067 855.672C-211.5 861.832 -182.26 879.347 -153.698 898.031C-150.822 899.912 -147.953 901.805 -145.082 903.7L-145.052 903.72C-119.435 920.624 -93.645 937.642 -61.5016 947.214C-17.6013 960.301 30.3783 954.856 79.4429 941.658Z" fill="black"/>
<path d="M49.2182 960.341C50.2664 959.742 51.3122 959.139 52.3557 958.533C16.8445 964.185 -17.8717 964.676 -50.9187 956.108C-84.0518 947.509 -112.594 932.277 -141.271 916.973L-141.273 916.972C-143.114 915.989 -144.956 915.006 -146.799 914.025C-177.338 897.766 -208.36 881.912 -245.44 874.507C-277.412 868.114 -309.385 861.653 -341.365 855.19L-341.374 855.188C-424.813 838.327 -508.299 821.455 -591.938 805.761C-605.465 803.223 -618.996 801.993 -632.525 801.828C-632.227 802.268 -631.927 802.708 -631.627 803.147C-618.473 803.355 -605.322 804.579 -592.179 807.045C-508.549 822.738 -425.075 839.607 -341.639 856.468L-341.628 856.47L-341.566 856.483C-309.606 862.941 -277.652 869.399 -245.696 875.789C-208.824 883.152 -177.954 898.919 -147.414 915.178C-145.561 916.164 -143.71 917.152 -141.859 918.14C-113.207 933.432 -84.5367 948.733 -51.2472 957.373C-19.0297 965.726 14.7346 965.518 49.2182 960.341Z" fill="black"/>
<path d="M28.338 971.64C29.2722 971.163 30.2047 970.682 31.1355 970.198C7.21262 971.452 -16.3902 970.11 -39.4927 965.073C-73.9764 957.56 -105.488 944.056 -137.176 930.476L-139.318 929.557C-171.712 915.678 -204.361 901.862 -240.525 894.518C-310.258 880.363 -379.44 863.01 -448.594 845.664L-448.604 845.661C-488.566 835.637 -528.519 825.616 -568.563 816.215C-587.314 811.808 -606.564 810.323 -626.137 811.021C-625.834 811.447 -625.53 811.873 -625.226 812.297C-606.054 811.676 -587.212 813.174 -568.863 817.487C-528.858 826.878 -488.921 836.896 -448.963 846.919L-448.96 846.919C-379.782 864.271 -310.542 881.639 -240.785 895.798C-204.771 903.112 -172.24 916.874 -139.833 930.758L-137.648 931.695C-105.991 945.262 -74.3787 958.81 -39.7711 966.35C-17.4654 971.212 5.29364 972.649 28.338 971.64Z" fill="black"/>
<path d="M13.8343 978.775C14.698 978.367 15.5604 977.957 16.4215 977.544C4.89175 977.25 -6.6113 976.374 -18.0819 974.811C-54.9647 969.782 -90.3955 957.731 -125.917 945.177C-128.277 944.343 -130.637 943.507 -132.999 942.67C-166.158 930.921 -199.484 919.114 -234.144 912.606C-288.697 902.369 -342.002 885.933 -395.31 869.341L-399.163 868.142C-451.175 851.949 -503.22 835.746 -556.396 825.182C-576.095 821.269 -596.7 820.6 -617.883 822.301C-617.573 822.714 -617.261 823.126 -616.95 823.538C-596.164 821.928 -575.962 822.628 -556.65 826.463C-503.543 837.014 -451.556 853.199 -399.523 869.398L-395.699 870.588C-342.4 887.178 -289.025 903.637 -234.385 913.89C-199.829 920.378 -166.594 932.153 -133.414 943.909C-131.06 944.743 -128.706 945.577 -126.352 946.409C-90.8392 958.96 -55.2912 971.056 -18.2586 976.106C-7.58554 977.56 3.11386 978.422 13.8343 978.775Z" fill="black"/>
<path d="M0.941315 984.651C1.77411 984.285 2.60574 983.918 3.43625 983.548C0.406158 983.305 -2.62372 983.026 -5.65338 982.709C-42.7229 978.82 -79.9709 969.731 -117.18 959.847C-124.035 958.025 -130.89 956.177 -137.742 954.329L-137.809 954.311L-137.814 954.31C-168.111 946.14 -198.354 937.985 -228.379 932.248C-280.577 922.272 -331.308 905.073 -381.982 887.383C-385.562 886.133 -389.143 884.881 -392.723 883.628C-439.801 867.16 -486.917 850.678 -535.136 839.621C-558.744 834.199 -582.052 834.749 -605.104 838.59C-604.786 838.979 -604.467 839.368 -604.148 839.756C-581.46 836.047 -558.578 835.578 -535.429 840.895C-487.285 851.935 -440.237 868.392 -393.145 884.865L-393.086 884.885C-389.529 886.13 -385.971 887.374 -382.413 888.617C-331.744 906.305 -280.929 923.534 -228.625 933.531C-198.653 939.258 -168.469 947.397 -138.175 955.566L-138.171 955.567L-138.126 955.579C-131.261 957.43 -124.391 959.283 -117.515 961.109C-80.3005 970.995 -42.9682 980.108 -5.78986 984.009C-3.5463 984.243 -1.3024 984.457 0.941315 984.651Z" fill="black"/>
<path d="M-12.9385 990.504C-12.0786 990.156 -11.2199 989.806 -10.3624 989.454C-61.5704 984.313 -114.715 973.588 -166.341 963.169C-185.427 959.318 -204.307 955.508 -222.804 952.037C-270.628 943.063 -317.154 924.6 -363.725 906.118L-366.208 905.133C-367.496 904.622 -368.783 904.112 -370.071 903.601C-418.739 884.309 -467.52 865.469 -517.825 857.999C-540.785 854.589 -564.733 854.58 -589.294 857.032C-588.932 857.434 -588.57 857.836 -588.207 858.237C-564.075 855.89 -540.561 855.943 -518.017 859.291C-467.884 866.736 -419.238 885.517 -370.553 904.816C-368.424 905.66 -366.295 906.504 -364.165 907.349C-317.628 925.817 -270.996 944.323 -223.045 953.321C-204.59 956.784 -185.739 960.588 -166.67 964.436L-166.663 964.438C-115.842 974.694 -63.4735 985.263 -12.9385 990.504Z" fill="black"/>
<path d="M-32.4524 997.937C-31.4694 997.586 -30.4878 997.231 -29.5076 996.874C-92.3628 991.645 -157.772 982.521 -217.899 972.009C-265.602 963.683 -311.865 945.562 -358.171 927.425L-361.937 925.95C-409.478 907.337 -457.104 888.987 -506.299 881.59C-526.163 878.604 -546.834 878.026 -568.054 879.295C-567.636 879.708 -567.218 880.12 -566.799 880.531C-546.073 879.357 -525.892 879.966 -506.493 882.882C-457.467 890.253 -409.974 908.546 -362.414 927.166L-358.597 928.661L-358.595 928.662C-312.328 946.784 -265.958 964.947 -218.124 973.296C-158.874 983.654 -94.4861 992.668 -32.4524 997.937Z" fill="black"/>
<path d="M-59.9698 1006.91C-58.6524 1006.52 -57.3371 1006.13 -56.024 1005.73C-108.532 1004.12 -161.11 1000.11 -213.851 992.239C-261.919 985.06 -308.739 968.661 -355.603 952.246L-355.606 952.245L-357.957 951.422C-405.585 934.742 -453.279 918.206 -502.282 911.568C-513.114 910.104 -524.151 909.255 -535.359 908.945C-534.815 909.398 -534.269 909.85 -533.722 910.301C-523.134 910.646 -512.702 911.478 -502.457 912.863C-453.608 919.48 -406.036 935.968 -358.389 952.655L-355.986 953.496C-309.159 969.898 -262.237 986.333 -214.045 993.531C-162.552 1001.21 -111.221 1005.22 -59.9698 1006.91Z" fill="black"/>
<path d="M-134.641 1023C-132.489 1022.7 -130.341 1022.39 -128.197 1022.07C-156.427 1020.48 -184.577 1018.17 -212.617 1014.94C-261.437 1009.31 -309.681 995.49 -358.002 981.645L-358.456 981.515C-360.467 980.939 -362.478 980.363 -364.49 979.787C-400.989 969.342 -437.548 959.094 -474.403 952.592C-473.37 953.223 -472.333 953.852 -471.295 954.477C-435.654 960.984 -400.256 970.911 -364.85 981.043C-362.675 981.665 -360.501 982.288 -358.326 982.911C-310.035 996.748 -261.696 1010.6 -212.767 1016.24C-186.809 1019.23 -160.76 1021.43 -134.641 1023Z" fill="black"/>
</svg>
