<svg width="334" height="274" viewBox="0 0 334 274" fill="none" xmlns="http://www.w3.org/2000/svg">
<path d="M232.781 5.72792C236.74 5.06511 240.695 4.39069 244.65 3.71632C248.01 3.14329 251.371 2.5703 254.733 2.00451C256.156 1.765 257.579 1.52678 259.003 1.29041C263.223 0.770662 267.47 0.339879 271.744 0C266.107 0.871669 260.481 1.79756 254.857 2.74411C251.499 3.3093 248.141 3.88188 244.782 4.45466L244.78 4.45496C237.262 5.73699 229.737 7.02003 222.189 8.2234C225.695 7.32845 229.226 6.4962 232.781 5.72792Z" fill="black"/>
<path d="M167.343 28.2191C168.055 27.876 168.768 27.5357 169.483 27.1981C173.626 26.6896 177.774 26.2085 181.926 25.7593C203.448 23.4267 224.334 18.9572 245.205 14.4909L245.211 14.4897C248.587 13.7671 251.964 13.0446 255.343 12.3312C279.598 7.20993 303.961 2.56219 329.355 1.76632C331.129 1.71023 332.902 1.66614 334.674 1.63336C336.305 1.84934 337.931 2.07863 339.553 2.3211C336.165 2.34529 332.774 2.40861 329.378 2.51594C304.056 3.30957 279.749 7.94457 255.497 13.065C252.121 13.778 248.745 14.5003 245.368 15.2231C224.498 19.6892 203.57 24.1678 182.007 26.5049C177.112 27.0344 172.225 27.6082 167.343 28.2191Z" fill="black"/>
<path d="M135.868 45.8423C136.353 45.5299 136.84 45.219 137.328 44.9094C151.599 43.1726 165.801 41.3701 179.883 39.5151C202.503 36.5373 224.178 30.6255 245.833 24.7195L245.834 24.7192C249.348 23.7609 252.861 22.8028 256.377 21.8574C281.555 15.088 306.896 8.97372 333.785 8.16695C347.582 7.75318 361.207 8.46655 374.736 9.80352C376.121 10.1881 377.501 10.5824 378.878 10.9865C363.987 9.37564 349 8.461 333.807 8.91662C307.013 9.72056 281.744 15.8137 256.572 22.5816C253.06 23.5259 249.549 24.4833 246.037 25.4413C224.385 31.3468 202.656 37.2737 179.981 40.2587C165.386 42.1812 150.664 44.0472 135.868 45.8423Z" fill="black"/>
<path d="M115.31 60.3338C115.666 60.0598 116.022 59.7865 116.379 59.514C136.982 58.1834 157.438 56.3616 177.529 53.6299C202.306 50.2592 225.618 42.2185 248.94 34.1742L248.944 34.1729C251.9 33.1532 254.856 32.1335 257.816 31.1233C284.11 22.1473 310.644 13.9223 339.445 13.1895C363.91 12.5732 387.342 16.8849 410.543 22.2912C411.859 22.8479 413.17 23.4138 414.476 23.9889C389.945 18.1441 365.274 13.2891 339.464 13.9393C310.788 14.6689 284.349 22.8582 258.058 31.833C255.099 32.843 252.142 33.8629 249.185 34.8832C225.871 42.9252 202.486 50.9917 177.63 54.373C157.161 57.1562 136.308 58.9959 115.31 60.3338Z" fill="black"/>
<path d="M99.5016 73.4076C99.7789 73.1617 100.057 72.9163 100.335 72.6714C125.615 73.0811 150.67 72.238 174.866 68.0648C200.51 63.6502 224.488 53.7138 248.471 43.7755L248.475 43.7739C252.133 42.258 255.792 40.742 259.456 39.2456C287.127 27.9457 315.127 17.7687 345.912 17.2588C374.097 16.7913 400.086 24.6906 425.808 33.6143C429.417 34.8663 433.02 36.1382 436.623 37.4102C440.413 38.7483 444.203 40.0863 448 41.401C448.993 42.0001 449.981 42.605 450.966 43.2154C446.086 41.5466 441.223 39.8297 436.363 38.1141L436.361 38.1135C432.761 36.8424 429.163 35.5721 425.562 34.3229C399.848 25.4017 373.966 17.5436 345.925 18.0087C315.291 18.5161 287.405 28.6423 259.739 39.9399C256.08 41.4342 252.425 42.949 248.768 44.4647L248.766 44.4653C224.789 54.4018 200.726 64.374 174.994 68.8039C150.472 73.0333 125.083 73.8493 99.5016 73.4076Z" fill="black"/>
<path d="M87.5306 84.63C87.759 84.4038 87.9877 84.1779 88.2168 83.9524C116.595 87.1272 144.814 88.3787 172.055 82.6696C198.46 77.1462 223.231 65.2066 248.032 53.253C252.441 51.1281 256.851 49.0024 261.271 46.9125C290.531 33.077 320.225 20.8089 352.953 20.6921C381.622 20.5858 407.087 30.8604 432.142 42.4553C435.823 44.1587 439.495 45.8903 443.166 47.6218C455.397 53.3905 467.629 59.1592 480.198 63.882C480.809 64.3716 481.418 64.8635 482.024 65.3578C468.673 60.4822 455.734 54.3797 442.832 48.2938C439.164 46.5637 435.499 44.8348 431.827 43.1359C406.781 31.5452 381.446 21.3364 352.956 21.4421C320.408 21.5583 290.845 33.7581 261.591 47.5906C257.183 49.6751 252.781 51.797 248.376 53.9199L248.374 53.921C223.577 65.8739 198.711 77.8599 172.209 83.4037C144.659 89.1775 116.137 87.8576 87.5306 84.63Z" fill="black"/>
<path d="M77.9401 94.5836C78.1364 94.3702 78.333 94.1571 78.5299 93.9442C108.851 100.521 139.141 104.73 169.182 97.3806C196.549 90.6852 222.338 76.7677 248.198 62.8123C253.183 60.1218 258.171 57.4299 263.174 54.788C294.098 38.4571 325.557 24.0516 360.223 23.9135C389.305 23.7965 414.343 36.5361 438.786 50.982C442.635 53.2569 446.469 55.5738 450.302 57.8898C467.94 68.5486 485.552 79.1906 504.493 85.6549C504.887 86.049 505.28 86.4443 505.671 86.8406C486.094 80.3977 467.963 69.4406 449.891 58.5187L449.89 58.5178C446.063 56.2051 442.239 53.894 438.404 51.6276C413.97 37.1869 389.086 24.5474 360.226 24.6635C325.759 24.8008 294.443 39.1231 263.524 55.4512C258.536 58.0854 253.558 60.7722 248.579 63.4595L248.577 63.4606C222.719 77.4163 196.83 91.3887 169.361 98.1092C139.041 105.527 108.505 101.229 78.0574 94.6091C78.0183 94.6006 77.9792 94.5921 77.9401 94.5836Z" fill="black"/>
<path d="M69.9426 103.643C70.1171 103.437 70.2919 103.231 70.467 103.025C72.3417 103.641 74.2164 104.248 76.0912 104.842C105.651 114.215 135.308 120.592 166.31 112.028C194.446 104.252 221.246 88.3902 248.185 72.446C253.787 69.1301 259.396 65.8107 265.024 62.5596C297.682 43.694 330.974 27.1453 367.367 27.1984C396.914 27.241 421.542 42.4314 445.371 59.6584C449.287 62.489 453.18 65.3741 457.07 68.2568L457.073 68.2584C476.89 82.9432 496.624 97.5659 518.759 104.614C520.13 105.051 521.506 105.456 522.887 105.83C523.161 106.161 523.435 106.492 523.709 106.824C521.977 106.374 520.25 105.876 518.531 105.329C496.266 98.2391 476.413 83.5259 456.597 68.8405C452.713 65.9622 448.831 63.0848 444.932 60.2662C421.108 43.0432 396.652 27.9906 367.366 27.9484C331.192 27.8956 298.054 44.3451 265.399 63.209C259.788 66.4502 254.191 69.7629 248.596 73.0748C221.656 89.0207 194.752 104.946 166.51 112.751C135.289 121.375 105.455 114.94 75.8645 105.557C73.8894 104.931 71.9156 104.291 69.9426 103.643Z" fill="black"/>
<path d="M63.0498 112.087C63.2094 111.884 63.3693 111.681 63.5294 111.479C66.9918 113.014 70.4523 114.522 73.9162 115.975C102.504 127.973 131.367 136.332 163.589 126.548C192.382 117.805 220.162 100.127 248.167 82.3063L248.168 82.3052C254.352 78.3703 260.546 74.4284 266.765 70.5741C301.114 49.2855 336.192 30.684 374.109 30.971C404.129 31.1946 428.382 48.7467 451.629 68.6156C455.552 71.969 459.445 75.3872 463.334 78.8007C470.98 85.5138 478.606 92.2091 486.401 98.3592C498.154 107.631 510.256 115.634 523.312 120.537C527.865 122.247 532.477 123.528 537.142 124.434C537.348 124.727 537.555 125.021 537.76 125.315C532.798 124.395 527.89 123.058 523.049 121.239C509.888 116.297 497.716 108.241 485.937 98.948C478.126 92.7861 470.473 86.0671 462.817 79.3455L462.812 79.3414C458.93 75.9327 455.046 72.5234 451.141 69.1858C427.895 49.317 403.827 31.9424 374.103 31.7209C336.423 31.4357 301.51 49.9226 267.16 71.2116C260.961 75.0534 254.781 78.9869 248.606 82.9166L248.604 82.9178C220.596 100.742 192.708 118.49 163.806 127.266C131.325 137.129 102.255 128.681 73.626 116.667C70.0951 115.185 66.5717 113.649 63.0498 112.087Z" fill="black"/>
<path d="M57.0241 120.023C57.1731 119.82 57.3224 119.617 57.4719 119.414C62.2646 122.078 67.0456 124.703 71.8436 127.202C99.4385 141.577 127.509 151.733 161.123 140.814C190.532 131.257 219.232 111.937 248.243 92.4089L248.247 92.4066C254.913 87.9192 261.595 83.4208 268.307 79.0273C304.188 55.5385 340.881 35.0596 380.13 35.5911C410.664 36.0066 434.555 55.713 457.245 77.9633C461.129 81.7721 464.977 85.6541 468.817 89.5289L468.819 89.5312C476.213 96.9914 483.581 104.425 491.131 111.257C502.598 121.633 514.45 130.586 527.375 136.078C534.247 138.995 541.266 140.774 548.4 141.634C548.564 141.904 548.727 142.175 548.89 142.446C541.494 141.607 534.211 139.794 527.082 136.768C514.045 131.229 502.12 122.212 490.628 111.813C483.063 104.968 475.668 97.5071 468.264 90.0367C464.427 86.1653 460.588 82.2913 456.72 78.4988C434.024 56.2429 410.326 36.7521 380.12 36.341C341.123 35.8129 304.603 56.1631 268.718 79.6548C262.027 84.0345 255.359 88.5237 248.701 93.0058C219.686 112.539 190.874 131.935 161.355 141.527C127.446 152.542 99.1428 142.268 71.4971 127.867C66.6634 125.35 61.8472 122.704 57.0241 120.023Z" fill="black"/>
<path d="M51.6482 127.602C51.7897 127.396 51.9314 127.19 52.0733 126.984C52.2617 127.108 52.4501 127.232 52.6384 127.355L52.6397 127.356C58.4247 131.156 64.17 134.929 69.9516 138.485C96.6127 154.884 123.948 166.605 158.936 154.718C187.278 145.097 214.855 127.763 241 111.329C247.749 107.086 254.403 102.903 260.95 98.929C267.313 95.0632 274.168 90.5905 281.384 85.8825C293.385 78.0524 306.383 69.5715 319.772 62.1483C341.225 50.2542 363.795 41.004 385.112 41.398C416.263 41.9735 439.78 63.5193 461.922 87.7828C465.71 91.9336 469.457 96.1629 473.195 100.383L473.197 100.385C480.403 108.519 487.579 116.62 494.964 124.061C506.175 135.357 517.829 145.091 530.713 151.045C539.394 155.056 548.3 157.046 557.364 157.513C557.498 157.77 557.633 158.027 557.767 158.284C548.467 157.855 539.319 155.847 530.399 151.726C517.395 145.716 505.667 135.91 494.432 124.589C487.033 117.134 479.831 109.004 472.615 100.859C468.879 96.6425 465.14 92.4217 461.368 88.2883C439.216 64.0136 415.896 42.7168 385.098 42.1479C363.987 41.7577 341.563 50.9247 320.136 62.8042C306.761 70.2199 293.819 78.6646 281.841 86.4805C274.618 91.1935 267.746 95.6778 261.34 99.57C254.816 103.53 248.178 107.703 241.44 111.939C215.287 128.378 187.612 145.775 159.177 155.428C123.866 167.426 96.2784 155.559 69.5586 139.124C63.7668 135.561 58.0112 131.781 52.2268 127.982C52.0341 127.856 51.841 127.729 51.6482 127.602Z" fill="black"/>
<path d="M46.7789 134.932C46.9143 134.721 47.0501 134.511 47.1861 134.3C47.8263 134.771 48.4655 135.242 49.1039 135.712C50.2701 136.573 51.4336 137.433 52.5951 138.293C57.894 142.212 63.153 146.103 68.4512 149.787C94.2807 167.751 120.947 180.759 157.196 168.198C186.194 158.146 214.511 139.822 241.219 122.539L241.222 122.537C248.253 117.987 255.173 113.51 261.964 109.274C268.461 105.218 275.482 100.498 282.899 95.5126L282.9 95.5119C285.262 93.9242 287.664 92.3096 290.101 90.681C300.19 83.9411 310.884 76.9665 321.863 70.6891C343.811 58.1409 366.95 48.3473 388.716 48.8158C420.609 49.498 443.718 72.4505 465.316 98.2406C468.945 102.574 472.531 106.987 476.109 111.391L476.11 111.392C483.197 120.114 490.255 128.801 497.567 136.767C508.564 148.75 520.095 159.058 533.072 165.332C543.325 170.288 553.835 172.254 564.51 172.105C564.623 172.353 564.736 172.601 564.848 172.85C553.962 173.046 543.225 171.073 532.745 166.007C519.643 159.672 508.036 149.284 497.014 137.275C489.688 129.292 482.604 120.574 475.508 111.841C471.933 107.441 468.354 103.037 464.741 98.7221C443.13 72.9168 420.218 50.2399 388.7 49.5657C367.147 49.1017 344.159 58.8061 322.236 71.3402C311.28 77.6041 300.603 84.5668 290.518 91.3046C288.085 92.93 285.686 94.5425 283.326 96.1291L283.325 96.13C275.906 101.117 268.869 105.847 262.361 109.91C255.595 114.13 248.693 118.597 241.673 123.14L241.67 123.141C214.954 140.431 186.534 158.822 157.441 168.906C120.848 181.587 93.916 168.411 68.023 150.403C62.7149 146.712 57.4458 142.814 52.1464 138.894L52.1309 138.882C50.9752 138.027 49.818 137.171 48.6587 136.316C48.0328 135.854 47.4062 135.393 46.7789 134.932Z" fill="black"/>
<path d="M42.2634 142.181C42.3933 141.966 42.5235 141.75 42.6539 141.535C46.1776 144.268 49.6574 147.045 53.1177 149.807C57.9071 153.629 62.659 157.421 67.4375 161.026C80.0094 170.51 92.8101 178.737 107.131 182.989C121.44 187.237 137.288 187.522 155.967 181.083C185.306 170.964 214.127 151.919 241.117 134.083L241.119 134.082C248.392 129.276 255.531 124.558 262.512 120.126C269.1 115.947 276.208 111.085 283.712 105.953L283.721 105.947C286.08 104.333 288.479 102.693 290.912 101.038C301.084 94.1241 311.862 86.9725 322.937 80.5373C345.075 67.6734 368.453 57.6404 390.602 58.1196C423.434 58.8445 446.093 82.6637 467.143 109.376C470.542 113.69 473.9 118.079 477.251 122.461L477.253 122.463C484.295 131.67 491.314 140.846 498.657 149.237C509.491 161.617 520.994 172.242 534.237 178.663C546.005 184.37 557.989 186.105 570.098 185.193C570.195 185.436 570.292 185.68 570.388 185.923C558.09 186.883 545.895 185.15 533.91 179.338C520.534 172.852 508.952 162.14 498.093 149.731C490.733 141.322 483.689 132.112 476.638 122.895C473.29 118.516 469.939 114.136 466.554 109.84C445.492 83.1125 423.03 59.5857 390.586 58.8694C368.653 58.3949 345.427 68.3367 323.313 81.1858C312.262 87.6071 301.502 94.7464 291.334 101.659C288.908 103.308 286.516 104.944 284.161 106.554L284.144 106.566L284.143 106.566C276.637 111.7 269.513 116.572 262.914 120.76C255.961 125.174 248.84 129.88 241.579 134.678L241.578 134.678C214.58 152.521 185.65 171.639 156.211 181.792C137.388 188.281 121.38 188.002 106.917 183.708C92.4656 179.417 79.5785 171.124 66.9858 161.624C62.1714 157.992 57.4063 154.189 52.613 150.364C49.1873 147.63 45.7464 144.884 42.2634 142.181Z" fill="black"/>
<path d="M37.611 150.177C37.7344 149.957 37.858 149.737 37.9819 149.518C42.9747 153.274 47.8641 157.162 52.7152 161.019C57.5473 164.862 62.3414 168.674 67.1615 172.295C79.7439 181.747 92.5498 189.936 106.846 194.146C121.132 198.352 136.927 198.591 155.499 192.104C184.879 181.845 213.745 163.098 240.903 145.459C248.312 140.646 255.595 135.916 262.726 131.464C269.496 127.235 276.823 122.286 284.563 117.057L284.565 117.055L284.578 117.047C286.766 115.569 288.987 114.068 291.237 112.556C301.453 105.69 312.277 98.574 323.39 92.1537C345.605 79.3195 369.024 69.2343 391.087 69.5218C424.028 69.9589 446.551 93.915 467.433 120.817C470.803 125.159 474.13 129.576 477.451 133.987L477.454 133.99C484.44 143.267 491.404 152.515 498.702 160.963C509.465 173.422 520.916 184.095 534.152 190.489C547.409 196.896 560.846 198.317 574.378 196.613C574.462 196.855 574.547 197.096 574.631 197.337C560.931 199.087 547.292 197.673 533.826 191.164C520.454 184.704 508.923 173.942 498.134 161.453C490.821 152.987 483.831 143.705 476.836 134.416L476.829 134.407C473.512 130.003 470.195 125.598 466.841 121.277C445.946 94.3585 423.623 70.7036 391.077 70.2717C369.227 69.987 345.956 79.9826 323.766 92.8031C312.676 99.2101 301.869 106.315 291.656 113.178C289.405 114.691 287.182 116.193 284.992 117.672L284.99 117.673C277.248 122.904 269.906 127.863 263.124 132.1C256.02 136.535 248.756 141.253 241.358 146.058L241.357 146.059C214.19 163.704 185.221 182.52 155.746 192.812C137.029 199.349 121.074 199.117 106.635 194.865C92.2068 190.617 79.3143 182.363 66.711 172.895C61.8542 169.246 57.047 165.423 52.2111 161.577C47.3987 157.75 42.5577 153.9 37.611 150.177Z" fill="black"/>
<path d="M32.8361 159.038C32.9518 158.814 33.0677 158.591 33.1839 158.368C37.9897 161.651 42.703 165.063 47.3722 168.481C48.5 169.306 49.6252 170.132 50.7485 170.956C56.087 174.874 61.3827 178.761 66.7172 182.438C92.5356 200.234 119.154 213.047 155.244 200.37C184.679 190.033 213.459 172.544 240.944 155.843L240.945 155.842C248.523 151.237 256.003 146.692 263.371 142.372C270.621 138.123 278.547 133.044 286.949 127.66C288.688 126.546 290.447 125.419 292.225 124.283C302.589 117.663 313.582 110.759 324.832 104.506C347.32 92.0073 370.89 82.0779 392.589 82.2376C424.791 82.4829 447.135 106.198 467.831 132.881C471.284 137.334 474.69 141.867 478.09 146.392C484.897 155.452 491.676 164.475 498.747 172.732C509.345 185.107 520.558 195.71 533.413 202.062C548.076 209.307 563.001 210.367 578.054 207.794C578.128 208.035 578.201 208.276 578.275 208.517C563.07 211.131 547.95 210.081 533.081 202.734C520.091 196.316 508.799 185.623 498.178 173.22C491.092 164.946 484.286 155.888 477.47 146.816C474.074 142.297 470.675 137.773 467.238 133.341C446.527 106.638 424.386 83.2298 392.584 82.9876C371.09 82.8294 347.665 92.6735 325.196 105.162C313.968 111.403 302.992 118.296 292.629 124.915C290.855 126.049 289.099 127.174 287.363 128.286L287.359 128.288C278.956 133.672 271.015 138.761 263.75 143.02C256.406 147.325 248.943 151.86 241.375 156.459L241.374 156.46C213.88 173.167 185.01 190.711 155.493 201.077C119.059 213.875 92.1745 200.896 66.2915 183.055C60.9467 179.371 55.64 175.476 50.301 171.558C49.1787 170.734 48.055 169.91 46.9292 169.086C42.2853 165.687 37.6046 162.298 32.8361 159.038Z" fill="black"/>
<path d="M28.2329 168.34C28.3403 168.113 28.4479 167.886 28.5559 167.66C34.4147 171.15 40.1525 174.824 45.8367 178.497C46.7081 179.06 47.5782 179.623 48.4473 180.186C54.2452 183.938 59.9976 187.661 65.7848 191.165C92.3963 207.277 119.654 218.7 154.909 206.79C184.622 196.742 213.676 180.655 241.741 165.117C249.392 160.881 256.968 156.686 264.465 152.666C272.211 148.512 280.742 143.459 289.798 138.095C291.15 137.294 292.515 136.486 293.89 135.673C304.468 129.419 315.682 122.873 327.12 116.942C349.982 105.085 373.79 95.6519 395.241 95.9287C426.711 96.3233 448.476 119.625 468.592 145.84C471.995 150.274 475.349 154.791 478.697 159.297L478.697 159.298C485.263 168.139 491.801 176.941 498.618 185.009C508.905 197.185 519.787 207.639 532.272 213.953C548.239 222.024 564.647 222.588 581.257 219.03C581.32 219.272 581.384 219.515 581.447 219.757C564.704 223.348 548.104 222.797 531.934 214.622C519.315 208.241 508.355 197.697 498.045 185.493C491.213 177.408 484.65 168.571 478.075 159.718C474.731 155.216 471.384 150.71 467.997 146.297C447.867 120.063 426.302 97.0682 395.231 96.6786C373.977 96.4044 350.311 105.759 327.465 117.607C316.048 123.528 304.849 130.065 294.271 136.318C292.905 137.126 291.549 137.929 290.204 138.726L290.182 138.739C281.128 144.102 272.581 149.164 264.819 153.327C257.343 157.336 249.781 161.524 242.14 165.754C214.067 181.298 184.933 197.428 155.15 207.501C119.577 219.518 92.0705 207.957 65.3964 191.807C59.5989 188.297 53.8363 184.567 48.0393 180.815C47.1703 180.253 46.3004 179.69 45.4296 179.127C39.7655 175.467 34.0573 171.812 28.2329 168.34Z" fill="black"/>
<path d="M23.7998 178.173C23.8985 177.943 23.9975 177.713 24.0968 177.483C31.446 181.137 38.6364 185.043 45.7675 188.917C52.0133 192.311 58.2136 195.679 64.4353 198.831C91.9922 212.794 120.026 222.564 154.536 211.81C184.582 202.445 214.046 187.98 242.767 173.879C250.54 170.063 258.26 166.273 265.921 162.618C274.267 158.641 283.5 153.718 293.293 148.496L293.295 148.496L293.394 148.443C294.294 147.963 295.199 147.48 296.108 146.996C306.945 141.222 318.413 135.166 330.065 129.688C353.359 118.738 377.444 110.073 398.763 110.616C429.512 111.416 450.384 134.133 469.619 159.647C472.86 163.946 476.053 168.323 479.24 172.691C485.529 181.311 491.794 189.898 498.35 197.782C508.221 209.656 518.714 219.885 530.855 226.162C547.979 235.013 565.839 234.967 584.004 230.361C584.058 230.605 584.112 230.85 584.165 231.094C565.886 235.724 547.838 235.784 530.511 226.828C518.237 220.483 507.668 210.164 497.773 198.262C491.203 190.36 484.913 181.739 478.615 173.107L478.614 173.106C475.431 168.742 472.245 164.376 469.02 160.099C449.773 134.569 429.097 112.155 398.744 111.365C377.613 110.827 353.663 119.424 330.384 130.367C318.751 135.836 307.298 141.884 296.461 147.658C295.517 148.161 294.578 148.661 293.643 149.16C283.854 154.38 274.606 159.311 266.244 163.295C258.602 166.941 250.895 170.724 243.13 174.537L243.127 174.538C214.399 188.642 184.866 203.142 154.759 212.526C119.967 223.368 91.7112 213.492 64.0964 199.5C57.8331 196.327 51.6058 192.944 45.3434 189.542C38.2419 185.685 31.095 181.802 23.7998 178.173Z" fill="black"/>
<path d="M19.6244 188.438C19.7142 188.205 19.8043 187.972 19.8947 187.739C27.5683 190.765 35.112 194.014 42.6035 197.241L42.6049 197.242C49.322 200.135 55.9971 203.01 62.6859 205.69C91.3201 217.162 120.26 225.083 154.061 215.749C184.526 207.347 214.513 194.679 243.98 182.231L243.984 182.229C251.877 178.895 259.733 175.576 267.551 172.359C276.54 168.662 286.504 164.001 297.051 159.069L298.611 158.339C309.732 153.139 321.469 147.678 333.353 142.763C357.11 132.937 381.505 125.267 402.797 126.236C432.917 127.601 452.632 149.627 470.732 174.267C473.685 178.287 476.594 182.375 479.499 186.457L479.5 186.459C485.515 194.911 491.511 203.337 497.839 211.077C507.22 222.549 517.295 232.465 529.161 238.645C547.363 248.129 566.622 247.372 586.283 241.704C586.328 241.951 586.372 242.199 586.417 242.446C566.662 248.128 547.219 248.9 528.814 239.31C516.816 233.061 506.665 223.055 497.259 211.552C490.914 203.792 484.892 195.329 478.868 186.865L478.866 186.861C475.965 182.786 473.065 178.709 470.128 174.711C452.019 150.06 432.494 128.332 402.763 126.985C381.647 126.025 357.383 133.636 333.64 143.456C321.774 148.364 310.051 153.818 298.929 159.018L297.362 159.751L297.361 159.752C286.821 164.681 276.842 169.348 267.836 173.053C260.032 176.264 252.185 179.579 244.297 182.912C214.824 195.362 184.778 208.056 154.26 216.472C120.22 225.872 91.0904 217.878 62.407 206.386C55.6792 203.691 48.979 200.805 42.2464 197.905C34.7729 194.686 27.2595 191.45 19.6244 188.438Z" fill="black"/>
<path d="M15.799 198.973C15.8799 198.736 15.9611 198.499 16.0426 198.262C23.7921 200.522 31.4565 202.953 39.0833 205.372C46.277 207.653 53.4379 209.924 60.6046 212.031C90.413 220.794 120.378 226.743 153.524 218.988C184.462 211.755 215.04 201.03 245.251 190.434C253.261 187.625 261.246 184.824 269.204 182.1C278.962 178.763 289.775 174.455 301.181 169.911L301.206 169.901C312.618 165.355 324.619 160.574 336.728 156.304C360.938 147.766 385.632 141.246 406.982 142.725C437.249 144.815 455.18 166.472 471.594 190.28C473.786 193.458 475.95 196.674 478.113 199.888C484.064 208.733 490.006 217.565 496.487 225.561C505.318 236.457 515.12 245.761 527.238 251.375C547.163 260.61 567.527 259.081 588.047 252.64C588.082 252.891 588.117 253.142 588.152 253.393C567.562 259.837 547.034 261.377 526.922 252.055C514.658 246.373 504.77 236.972 495.904 226.033C489.4 218.009 483.43 209.135 477.473 200.281C475.314 197.073 473.157 193.867 470.977 190.705C454.558 166.892 436.809 145.536 406.93 143.473C385.744 142.006 361.174 148.478 336.978 157.011C324.885 161.276 312.897 166.051 301.484 170.598L301.447 170.613C290.05 175.153 279.222 179.467 269.447 182.81C261.501 185.529 253.525 188.327 245.52 191.135C215.304 201.733 184.677 212.475 153.695 219.718C120.357 227.518 90.2389 221.525 60.3931 212.75C53.1932 210.634 46.0117 208.356 38.8051 206.071C31.1816 203.654 23.5301 201.227 15.799 198.973Z" fill="black"/>
<path d="M12.315 209.859C12.3869 209.618 12.4591 209.378 12.5315 209.137C19.8976 210.622 27.2397 212.218 34.5702 213.813C41.0541 215.223 47.5293 216.631 54.004 217.958C83.7534 224.054 113.522 228.445 144.267 223.518C181.604 217.542 218.403 207.021 255.001 196.557C268.61 192.666 282.191 188.783 295.763 185.145C303.722 183.014 312.299 180.347 321.235 177.569L322.737 177.102C332.211 174.157 342.065 171.115 351.979 168.484C371.8 163.222 391.9 159.588 409.733 161.652C440.697 165.233 457.62 186.48 473.393 209.285C474.87 211.42 476.336 213.568 477.804 215.718L477.808 215.725C492.037 236.568 506.303 257.467 530.226 266.795C549.356 274.263 569.295 271.74 589.512 264.752C589.538 265.008 589.563 265.263 589.588 265.52C569.328 272.497 549.251 275.027 529.953 267.493C505.802 258.076 491.402 236.976 477.199 216.163C475.726 214.005 474.255 211.85 472.776 209.711C457.003 186.907 440.249 165.937 409.646 162.397C391.959 160.35 371.972 163.953 352.171 169.209C342.275 171.836 332.435 174.873 322.96 177.818L321.453 178.286C312.522 181.063 303.932 183.735 295.957 185.869C282.412 189.5 268.847 193.379 255.247 197.267C218.634 207.735 181.771 218.275 144.386 224.258C113.501 229.208 83.6205 224.792 53.8534 218.692C47.3588 217.361 40.8707 215.95 34.3788 214.539C27.0344 212.942 19.6844 211.344 12.315 209.859Z" fill="black"/>
<path d="M9.36875 220.443C9.43199 220.198 9.49553 219.953 9.55938 219.709C16.7102 220.462 23.8543 221.277 30.9939 222.091C37.7721 222.863 44.5472 223.636 51.3193 224.355C81.9675 227.61 112.589 229.784 143.434 226.038C181.238 221.442 218.73 213.513 256.118 205.606C269.917 202.687 283.701 199.772 297.482 197.028C306.162 195.303 315.477 193.044 325.134 190.698L325.403 190.633C334.975 188.308 344.878 185.902 354.816 183.855C374.872 179.723 395.104 177.041 413.088 179.434C442.913 183.399 458.906 203.544 473.788 225.092C475.153 227.069 476.509 229.058 477.866 231.047C491.317 250.774 504.804 270.552 527.875 279.659C547.786 287.52 568.922 284.291 590.448 276.389C590.463 276.65 590.479 276.911 590.494 277.172C568.946 285.052 547.678 288.283 527.599 280.357C504.302 271.16 490.684 251.184 477.256 231.485L477.254 231.483C475.894 229.488 474.537 227.496 473.171 225.518C458.292 203.975 442.463 184.096 412.989 180.177C395.135 177.802 375.004 180.461 354.967 184.589C345.042 186.634 335.15 189.037 325.575 191.363L325.311 191.427C315.657 193.772 306.327 196.035 297.628 197.764C283.868 200.504 270.096 203.416 256.304 206.333L256.302 206.333C218.904 214.243 181.363 222.182 143.524 226.782C112.591 230.539 81.8991 228.357 51.2401 225.101C44.4549 224.38 37.6722 223.607 30.8887 222.834L30.8876 222.833C23.7166 222.016 16.5449 221.199 9.36875 220.443Z" fill="black"/>
<path d="M6.86731 230.918C6.92202 230.669 6.97704 230.419 7.03237 230.17C13.7186 230.283 20.4049 230.416 27.0906 230.549H27.0917C34.255 230.692 41.4175 230.835 48.5782 230.952C79.9553 231.466 111.306 231.492 142.579 228.898C180.918 225.726 219.104 220.41 257.254 215.1L257.256 215.099C271.099 213.172 284.938 211.246 298.778 209.423C307.739 208.242 317.251 206.596 327.053 204.872C327.804 204.74 328.556 204.608 329.31 204.475C338.398 202.875 347.715 201.235 357.043 199.863C377.244 196.892 397.534 195.173 415.742 197.852C444.405 202.062 459.633 221.008 473.807 241.21C475.077 243.02 476.338 244.839 477.599 246.659C490.441 265.187 503.317 283.762 525.586 292.545C546.14 300.655 568.296 296.786 590.928 288.106C590.934 288.372 590.939 288.637 590.944 288.904C568.31 297.55 546.03 301.417 525.31 293.243C502.818 284.372 489.813 265.604 476.993 247.102L476.985 247.091C475.722 245.268 474.461 243.449 473.193 241.641C459.026 221.449 443.958 202.755 415.633 198.594C397.537 195.932 377.336 197.636 357.153 200.605C347.834 201.975 338.527 203.614 329.436 205.214L327.183 205.611C317.382 207.334 307.855 208.984 298.876 210.166C285.048 211.988 271.216 213.913 257.376 215.84C219.219 221.152 181.002 226.472 142.641 229.645C111.329 232.243 79.9479 232.216 48.566 231.702C41.4031 231.585 34.2406 231.442 27.0789 231.299L27.0667 231.299C20.3328 231.165 13.5994 231.031 6.86731 230.918Z" fill="black"/>
<path d="M4.77935 241.325C4.82547 241.071 4.87192 240.818 4.91869 240.564C13.8129 240.006 22.7066 239.439 31.6003 238.871C68.2803 236.53 104.961 234.189 141.682 232.52C180.807 230.741 219.884 228.013 258.963 225.284C272.461 224.342 285.959 223.4 299.459 222.496C310.123 221.78 321.367 220.527 332.87 219.244C341.271 218.308 349.81 217.356 358.362 216.587C378.599 214.766 398.86 213.973 417.335 216.863C444.867 221.158 459.574 238.824 473.292 257.605C474.495 259.253 475.69 260.908 476.886 262.564C489.341 279.814 501.822 297.101 523.337 305.43C544.478 313.626 567.457 309.213 590.949 299.919C590.945 300.19 590.939 300.461 590.934 300.732C567.459 309.981 544.367 314.387 523.066 306.129C501.333 297.716 488.723 280.246 476.289 263.019C475.089 261.357 473.891 259.697 472.686 258.048C458.979 239.28 444.429 221.849 417.219 217.604C398.838 214.729 378.651 215.514 358.43 217.334C349.917 218.1 341.389 219.05 332.989 219.986L332.986 219.986C321.461 221.27 310.178 222.528 299.509 223.245C286.014 224.148 272.519 225.09 259.023 226.032C219.942 228.76 180.851 231.489 141.716 233.27C104.996 234.938 68.3354 237.278 31.6671 239.618L31.6634 239.619L31.6576 239.619C22.6989 240.191 13.7398 240.762 4.77935 241.325Z" fill="black"/>
<path d="M3.07308 251.765C3.11039 251.508 3.14803 251.25 3.186 250.993C10.3599 250.052 17.5285 249.08 24.6965 248.108L24.7039 248.107C30.945 247.261 37.1855 246.415 43.4285 245.589C75.6819 241.324 107.994 237.607 140.741 237.268C175.979 236.915 211.217 236.769 246.455 236.623H246.457L246.486 236.622C264.095 236.549 281.704 236.477 299.312 236.378C311.215 236.311 323.626 235.697 336.228 235.073L336.23 235.073C343.615 234.708 351.066 234.339 358.518 234.076C378.671 233.363 398.808 233.42 417.569 236.404C444.043 240.624 458.542 256.927 472.126 274.213C473.296 275.702 474.459 277.198 475.622 278.694C487.98 294.589 500.354 310.504 521.213 318.25C542.939 326.315 566.479 321.495 590.503 311.798C590.487 312.075 590.47 312.351 590.454 312.627C566.464 322.268 542.825 327.073 520.952 318.953C499.883 311.129 487.38 295.044 475.041 279.17L475.026 279.15C473.864 277.655 472.703 276.161 471.536 274.677C457.966 257.408 443.621 241.316 417.451 237.144C398.763 234.172 378.685 234.113 358.544 234.825C351.117 235.088 343.676 235.456 336.295 235.821L336.292 235.821C323.676 236.445 311.232 237.061 299.316 237.128C281.698 237.227 264.08 237.3 246.462 237.373H246.454C211.219 237.519 175.984 237.665 140.749 238.018C108.05 238.357 75.7756 242.068 43.5269 246.333C37.2871 247.158 31.0481 248.004 24.8072 248.85C17.5664 249.832 10.3231 250.814 3.07308 251.765Z" fill="black"/>
<path d="M1.72793 262.389C1.75605 262.129 1.7845 261.87 1.81329 261.61C8.94217 260.284 16.0594 258.906 23.1746 257.528L23.1758 257.528C29.2307 256.355 35.2842 255.183 41.342 254.044C73.7612 247.944 106.294 242.777 139.778 243.499C159.842 243.935 180.343 244.136 201.074 244.339L201.076 244.339C272.881 245.041 347.442 245.771 416.126 256.431C441.614 260.395 456.281 275.269 470.136 290.993C471.288 292.3 472.434 293.613 473.58 294.925L473.591 294.938C486.241 309.429 498.895 323.924 519.296 330.921C541.64 338.591 565.426 333.53 589.58 323.678C589.553 323.96 589.525 324.241 589.497 324.523C565.389 334.308 541.524 339.344 519.053 331.63C498.452 324.565 485.67 309.919 473.038 295.446C471.884 294.124 470.731 292.803 469.574 291.489C455.734 275.783 441.219 261.092 416.011 257.172C347.386 246.521 272.9 245.792 201.104 245.089C180.364 244.887 159.847 244.686 139.762 244.249C106.36 243.529 73.8922 248.683 41.4807 254.781C35.4364 255.918 29.3936 257.088 23.347 258.259L23.3319 258.262C16.1388 259.654 8.94049 261.048 1.72793 262.389Z" fill="black"/>
<path d="M0.753368 273.252C0.77197 272.991 0.79091 272.73 0.810189 272.469C7.93551 270.824 15.046 269.104 22.1554 267.383C26.7606 266.269 31.3654 265.155 35.9734 264.061C67.1676 256.659 98.4962 250.215 131.029 251.213C223.895 254.054 322.034 264.249 414.063 276.648C438.951 280.004 454.648 294.411 469.818 309.231C470.562 309.958 471.306 310.687 472.049 311.415C486.461 325.538 500.769 339.559 522.481 344.601C544.273 349.669 566.204 344.699 588.154 335.713C588.114 336 588.074 336.287 588.033 336.573C566.139 345.486 544.173 350.415 522.311 345.332C500.389 340.24 485.941 326.08 471.558 311.984C470.803 311.245 470.049 310.505 469.294 309.767C454.125 294.948 438.583 280.712 413.963 277.392C321.948 264.995 223.836 254.802 131.006 251.963C98.5803 250.968 67.3353 257.39 36.1466 264.791C31.545 265.883 26.9443 266.996 22.3413 268.11C15.1555 269.849 7.96359 271.59 0.753368 273.252Z" fill="black"/>
<path d="M0.15057 284.94C0.158883 284.68 0.167532 284.421 0.176515 284.161C7.94226 282.225 15.6809 280.171 23.4171 278.116C27.3548 277.071 31.2918 276.026 35.2315 274.996C66.2687 266.886 97.4562 259.772 130.295 261.45C176.548 263.803 222.967 270.259 269.317 277.428C279.336 278.978 289.353 280.561 299.363 282.143L299.365 282.144C335.667 287.881 371.895 293.607 407.952 297.692C432.429 300.471 449.405 313.157 465.946 326.151C466.662 326.713 467.377 327.276 468.091 327.838C483.908 340.29 499.598 352.642 521.426 356.699C543.55 360.807 565.043 355.926 586.296 347.343C586.244 347.634 586.191 347.925 586.138 348.216C564.95 356.72 543.446 361.551 521.289 357.436C499.275 353.345 483.452 340.887 467.663 328.456C466.936 327.884 466.21 327.312 465.483 326.741C448.941 313.746 432.113 301.19 407.867 298.438C371.792 294.35 335.542 288.621 299.238 282.883C289.23 281.301 279.217 279.718 269.202 278.169C222.857 271.001 176.47 264.55 130.256 262.199C97.5434 260.528 66.454 267.613 35.4211 275.722C31.4863 276.75 27.5523 277.795 23.6159 278.84L23.6149 278.84C15.8103 280.912 7.99672 282.987 0.15057 284.94Z" fill="black"/>
<path d="M0.00442339 296.679C0.00262227 296.422 0.00114768 296.166 0 295.909C7.10739 294.244 14.2028 292.499 21.2977 290.753C26.3471 289.511 31.3963 288.269 36.4494 287.056C67.835 279.521 99.3577 273.103 131.926 274.759C194.5 277.926 258.036 287.185 320.982 296.357C348.619 300.384 376.143 304.395 403.421 307.866C427.857 310.974 446.074 323.625 463.931 336.476C464.541 336.915 465.15 337.354 465.759 337.793C483.007 350.221 500.099 362.536 522.398 366.511C543.279 370.233 563.754 366.119 584.051 358.543C583.987 358.834 583.922 359.125 583.857 359.416C563.631 366.912 543.162 370.974 522.267 367.249C499.796 363.244 482.578 350.837 465.362 338.431C464.739 337.982 464.116 337.533 463.493 337.085C445.628 324.228 427.551 311.691 403.327 308.61C376.019 305.135 348.479 301.122 320.833 297.093L320.831 297.093C257.903 287.923 194.425 278.673 131.888 275.508C99.4355 273.858 68.0031 280.252 36.6244 287.785C31.5812 288.996 26.539 290.237 21.4942 291.478L21.4908 291.478C14.3377 293.238 7.17851 294.999 0.00442339 296.679Z" fill="black"/>
<path d="M0.385258 309.84C0.372414 309.588 0.359886 309.335 0.347674 309.083C7.52841 307.694 14.7027 306.245 21.8769 304.795C28.9735 303.362 36.0705 301.928 43.1733 300.553C76.2087 294.156 109.362 289.03 143.184 291.099C226.995 296.229 313.346 305.746 396.516 317.149C420.817 320.478 440.106 331.959 459.026 343.819C460.114 344.501 461.201 345.185 462.288 345.868C480.109 357.072 497.833 368.216 519.424 372.914C540.514 377.496 561.296 374.276 581.926 367.5C581.853 367.787 581.78 368.074 581.706 368.361C561.144 375.062 540.369 378.232 519.265 373.647C497.541 368.92 479.712 357.71 461.914 346.519C460.819 345.83 459.723 345.142 458.627 344.455C439.706 332.594 420.539 321.197 396.414 317.892C313.257 306.491 226.925 296.976 143.138 291.848C109.416 289.785 76.3403 294.895 43.3159 301.289C36.2278 302.661 29.1412 304.093 22.0512 305.525L22.0481 305.526C14.8327 306.984 7.6133 308.442 0.385258 309.84Z" fill="black"/>
<path d="M1.41253 323.668C1.38818 323.419 1.36414 323.17 1.34041 322.92C8.76842 321.857 16.1959 320.748 23.6251 319.639L23.6295 319.638C31.6044 318.448 39.5813 317.257 47.563 316.122C81.0795 311.352 114.667 307.555 148.474 308.838C227.992 311.848 310.766 315.705 389.729 325.52C414.805 328.635 435.991 339.578 456.883 350.875C458.031 351.496 459.177 352.118 460.324 352.739C480.063 363.44 499.713 374.092 522.383 378.486C541.938 382.27 561.052 380.043 579.96 374.846C579.88 375.127 579.801 375.408 579.721 375.689C560.878 380.821 541.787 383.005 522.24 379.223C499.453 374.806 479.709 364.102 459.992 353.412L459.986 353.409C458.833 352.784 457.68 352.159 456.526 351.535C435.63 340.235 414.556 329.359 389.637 326.264C310.709 316.454 227.963 312.597 148.445 309.588C114.709 308.307 81.1762 312.096 47.6686 316.864C39.6972 317.998 31.7264 319.188 23.7547 320.378L23.7525 320.379C16.3072 321.49 8.86096 322.601 1.41253 323.668Z" fill="black"/>
<path d="M3.24385 338.515C3.20685 338.266 3.17015 338.018 3.13376 337.77C10.9281 337.288 18.7266 336.8 26.5286 336.312L26.5331 336.312C144.92 328.908 264.132 321.452 382.346 333.445C408.546 336.101 431.826 346.263 454.871 356.808C456.233 357.432 457.595 358.057 458.956 358.681C480.637 368.629 502.249 378.546 526.104 382.575C543.901 385.581 561.212 384.23 578.29 380.551C578.207 380.824 578.123 381.098 578.039 381.372C561.025 384.999 543.748 386.316 525.979 383.314C502.023 379.268 480.326 369.312 458.665 359.373L458.612 359.348C457.261 358.729 455.91 358.109 454.559 357.49C431.509 346.943 408.332 336.833 382.27 334.191C264.124 322.205 144.986 329.656 26.6009 337.059L26.5919 337.06C18.8058 337.547 11.023 338.034 3.24385 338.515Z" fill="black"/>
<path d="M5.62981 352.271C5.58046 352.022 5.53142 351.773 5.48269 351.523C17.9203 351.354 30.3572 351.218 42.7935 351.082H42.7954C82.7667 350.646 122.731 350.209 162.687 348.661C184.821 347.803 207.316 346.243 229.941 344.675C278.295 341.322 327.241 337.928 374.514 341.265C402.029 343.208 427.611 351.942 452.991 361.363C455.874 362.433 458.754 363.511 461.633 364.59C484.123 373.015 506.607 381.437 530.346 385.649C545.987 388.419 561.394 387.978 576.679 385.685C576.593 385.951 576.507 386.217 576.42 386.482C561.194 388.736 545.824 389.151 530.215 386.387C506.404 382.163 483.852 373.715 461.37 365.293C458.49 364.214 455.611 363.135 452.73 362.066C427.352 352.646 401.858 343.948 374.461 342.013C327.24 338.68 278.387 342.068 230.061 345.419L230.058 345.419C207.421 346.989 184.9 348.551 162.716 349.41C122.758 350.959 82.7666 351.396 42.7801 351.832L42.7739 351.832C30.3916 351.968 18.0099 352.103 5.62981 352.271Z" fill="black"/>
<path d="M8.8332 366.57C8.76961 366.316 8.70634 366.062 8.6434 365.808C19.5399 366.441 30.4435 367.183 41.3477 367.925L41.3531 367.925C49.5917 368.486 57.8305 369.046 66.0668 369.56C101.101 371.745 136.1 373.084 170.891 369.982C194.463 367.876 218.364 364.242 242.381 360.591C251.097 359.265 259.828 357.938 268.565 356.68C301.363 351.959 334.219 348.225 366.531 349.317C395.47 350.294 423.422 357.746 451.206 366.065C455.581 367.375 459.951 368.706 464.32 370.037C487.715 377.163 511.083 384.281 534.959 388.063C548.624 390.227 562.126 390.323 575.538 389.137C575.45 389.395 575.363 389.654 575.275 389.913C561.921 391.073 548.465 390.961 534.842 388.804C510.909 385.013 487.483 377.877 464.09 370.751C459.723 369.421 455.358 368.091 450.991 366.783C423.212 358.466 395.34 351.04 366.506 350.067C334.263 348.976 301.461 352.702 268.672 357.423C259.949 358.678 251.226 360.005 242.514 361.329L242.513 361.329C218.489 364.982 194.554 368.621 170.958 370.729C136.107 373.837 101.062 372.494 66.0201 370.309C57.7725 369.794 49.5257 369.233 41.2818 368.672C30.4593 367.936 19.6417 367.2 8.8332 366.57Z" fill="black"/>
<path d="M12.7667 380.757C12.6868 380.495 12.6073 380.232 12.5282 379.97C23.7453 381.427 35.005 383.096 46.2788 384.767C55.2005 386.09 64.131 387.414 73.0563 388.635C108.835 393.53 144.55 396.776 179.39 391.708C202.836 388.291 226.341 382.362 249.931 376.413L249.932 376.412C256.161 374.841 262.396 373.268 268.638 371.74C298.503 364.428 328.501 358.134 358.611 357.922C388.987 357.71 419.309 363.802 449.506 370.94C455.731 372.411 461.952 373.927 468.166 375.442C492.104 381.276 515.955 387.089 539.719 390.266C551.425 391.836 563.043 392.23 574.609 391.845C574.521 392.098 574.432 392.351 574.343 392.604C562.838 392.974 551.274 392.572 539.619 391.01C515.812 387.827 491.912 382.001 467.969 376.166L467.967 376.165C461.758 374.652 455.547 373.138 449.333 371.669C419.144 364.533 388.896 358.46 358.616 358.672C328.6 358.884 298.674 365.158 268.816 372.469C262.589 373.994 256.364 375.564 250.142 377.133L250.135 377.135C226.54 383.086 202.986 389.027 179.498 392.45C144.548 397.534 108.746 394.274 72.9547 389.378C64.0098 388.154 55.0669 386.828 46.1379 385.505C34.9847 383.851 23.8531 382.201 12.7667 380.757Z" fill="black"/>
<path d="M17.4239 394.775C17.3252 394.501 17.2269 394.227 17.1289 393.953C28.449 396.18 39.8834 398.715 51.3651 401.26L51.3665 401.26C61.9212 403.6 72.5159 405.949 83.0986 408.076C120.884 415.669 158.545 420.443 193.875 411.997C213.667 407.266 233.628 399.517 253.757 391.702C259.614 389.429 265.484 387.15 271.369 384.938C297.459 375.132 323.811 366.656 350.316 365.933C380.844 365.095 412.486 369.748 444.059 375.519C452.7 377.098 461.334 378.761 469.94 380.418L469.947 380.419C492.794 384.82 515.436 389.18 537.446 391.834C549.629 393.303 561.749 393.946 573.833 394.042C573.744 394.292 573.654 394.541 573.565 394.79C561.543 394.686 549.483 394.041 537.356 392.579C515.319 389.921 492.639 385.554 469.783 381.152L469.78 381.151L469.778 381.151C461.177 379.494 452.55 377.833 443.924 376.256C412.361 370.487 380.783 365.847 350.337 366.683C323.965 367.402 297.715 375.837 271.632 385.64C265.767 387.845 259.909 390.119 254.06 392.39C233.923 400.207 213.895 407.982 194.049 412.726C158.55 421.213 120.752 416.408 82.9508 408.811C72.3331 406.677 61.7175 404.324 51.1512 401.981L51.1499 401.981C39.832 399.472 28.5703 396.976 17.4239 394.775Z" fill="black"/>
<path d="M22.7686 408.511C22.6482 408.223 22.5283 407.935 22.4088 407.647C34.0441 410.579 45.8225 413.91 57.6605 417.257L57.6615 417.258C68.2221 420.244 78.8301 423.243 89.4263 425.986C127.803 435.918 166.054 442.491 201.558 433.002C221.946 427.553 241.284 417.198 260.704 406.8C264.197 404.93 267.693 403.058 271.199 401.213C294.166 389.124 317.514 378.2 342.991 376.552C374.83 374.483 408.589 377.693 442.339 382.117C453.207 383.542 464.071 385.092 474.871 386.634L474.872 386.634C497.626 389.881 520.093 393.087 541.694 394.991C552.051 395.902 562.407 396.541 572.763 396.987C572.672 397.234 572.58 397.48 572.489 397.726C562.2 397.28 551.914 396.643 541.628 395.738C520.007 393.832 497.505 390.621 474.74 387.373C463.944 385.832 453.09 384.283 442.242 382.861C408.501 378.437 374.802 375.236 343.039 377.3C317.736 378.937 294.512 389.789 271.548 401.876C268.053 403.716 264.564 405.585 261.074 407.453C241.658 417.85 222.231 428.253 201.752 433.726C166.046 443.269 127.63 436.648 89.2384 426.712C78.6019 423.959 67.9695 420.953 57.3952 417.963C45.7585 414.672 34.1923 411.402 22.7686 408.511Z" fill="black"/>
<path d="M29.1739 422.748C29.0256 422.441 28.8777 422.133 28.7304 421.824C31.3334 422.634 33.9483 423.467 36.5734 424.318C45.0512 427.066 53.6254 430 62.2564 432.954L62.2585 432.954C73.1968 436.697 84.2265 440.472 95.2676 443.939C134.752 456.339 174.057 464.704 208.552 453.332C227.809 446.983 245.005 435.176 262.258 423.33C265.161 421.337 268.066 419.342 270.983 417.372C291.207 403.714 311.976 391.26 336.557 388.823C369.611 385.556 405.222 387.228 440.888 390.177C454.186 391.276 467.487 392.553 480.668 393.818L480.669 393.818L480.671 393.818C502.857 395.947 524.7 398.044 545.603 399.207C554.187 399.686 562.765 400.208 571.34 400.757C571.246 401.002 571.151 401.246 571.056 401.49C562.559 400.947 554.06 400.43 545.561 399.956C524.645 398.792 502.772 396.693 480.572 394.562L480.568 394.562C467.392 393.297 454.1 392.022 440.826 390.924C405.171 387.976 369.615 386.309 336.63 389.57C312.254 391.986 291.622 404.339 271.403 417.994C268.496 419.957 265.598 421.947 262.698 423.939C245.451 435.782 228.154 447.658 208.787 454.044C174.044 465.498 134.531 457.056 95.0429 444.655C84.0071 441.189 72.948 437.405 61.9914 433.656L61.9875 433.655C53.3549 430.701 44.7859 427.769 36.3421 425.031C33.9431 424.254 31.5533 423.491 29.1739 422.748Z" fill="black"/>
<path d="M36.7552 437.406C36.5714 437.073 36.3883 436.741 36.2057 436.408C37.5259 436.887 38.85 437.372 40.1777 437.862C48.82 441.056 57.6044 444.477 66.4714 447.931C77.6129 452.27 88.8849 456.661 100.17 460.713C140.681 475.262 180.98 485.307 214.556 472.581C232.985 465.595 248.216 452.896 263.471 440.176L263.473 440.174C265.929 438.126 268.385 436.079 270.855 434.054C288.648 419.469 307.153 406.112 331.312 403.109C380.541 396.986 435.561 399.735 488.374 402.374C509.083 403.409 529.454 404.427 549.003 404.886C555.815 405.046 562.591 405.365 569.34 405.809C569.241 406.053 569.141 406.297 569.041 406.541C562.385 406.106 555.702 405.793 548.985 405.636C529.391 405.176 508.993 404.157 488.268 403.121L488.267 403.121C435.478 400.483 380.565 397.739 331.405 403.853C307.476 406.827 289.115 420.057 271.33 434.634C268.869 436.652 266.418 438.695 263.965 440.741C248.717 453.457 233.378 466.248 214.822 473.283C180.96 486.116 140.416 475.964 99.9162 461.419C88.6403 457.37 77.3383 452.968 66.1786 448.622L66.1762 448.621L66.1725 448.619C57.3029 445.165 48.5232 441.746 39.9177 438.566C38.8611 438.176 37.8068 437.789 36.7552 437.406Z" fill="black"/>
<path d="M42.8612 447.924C42.6628 447.598 42.465 447.272 42.2679 446.945C61.8233 453.24 80.8703 460.768 100.496 468.525C105.077 470.335 109.69 472.159 114.348 473.981C116.956 475.003 119.602 476.057 122.281 477.124C136.207 482.671 151.023 488.573 166.041 492.139C183.941 496.389 202.081 497.308 219.275 490.365C237.259 483.1 250.913 470.158 264.55 457.232C266.665 455.227 268.779 453.224 270.909 451.241C286.753 436.494 303.443 422.974 327.536 419.704C382.532 412.219 443.276 412.35 501.349 412.475H501.352C518.46 412.511 535.337 412.548 551.767 412.389C556.709 412.341 561.604 412.434 566.458 412.646C566.351 412.892 566.243 413.138 566.135 413.383C561.389 413.18 556.604 413.092 551.774 413.139C535.322 413.298 518.431 413.262 501.312 413.225C443.248 413.1 382.576 412.97 327.637 420.447C303.79 423.683 287.249 437.058 271.42 451.79C269.299 453.764 267.19 455.764 265.078 457.766C251.449 470.687 237.682 483.738 219.555 491.061C202.162 498.084 183.848 497.138 165.868 492.869C150.791 489.289 135.915 483.363 121.99 477.816L121.988 477.815C119.313 476.75 116.673 475.698 114.074 474.68C109.414 472.856 104.801 471.033 100.221 469.223C80.8659 461.573 62.0969 454.155 42.8612 447.924Z" fill="black"/>
<path d="M52.3491 462.533C52.1054 462.181 51.8624 461.828 51.6202 461.475C68.3653 467.459 84.7865 474.367 101.695 481.481L101.7 481.483C106.647 483.564 111.635 485.662 116.686 487.76C118.901 488.68 121.16 489.629 123.458 490.595C137.412 496.458 152.798 502.923 168.467 506.953C186.713 511.646 205.289 513.022 222.372 506.323C240.327 499.284 252.989 486.853 265.588 474.484L265.589 474.483C267.458 472.649 269.325 470.815 271.208 469.001C285.773 454.969 301.249 442.122 325.482 438.969C399.507 429.366 478.849 425.444 553.64 422.117C556.525 421.99 559.384 421.925 562.219 421.917C562.099 422.168 561.979 422.418 561.859 422.668C559.153 422.681 556.425 422.745 553.673 422.866C478.88 426.194 399.568 430.114 325.579 439.712C301.596 442.833 286.268 455.534 271.729 469.541C269.854 471.347 267.992 473.175 266.126 475.008L266.124 475.011C253.532 487.375 240.754 499.922 222.646 507.021C205.354 513.802 186.598 512.391 168.28 507.679C152.553 503.634 137.111 497.145 123.16 491.283C120.864 490.318 118.608 489.37 116.398 488.453C111.343 486.353 106.352 484.254 101.405 482.172L101.403 482.172C84.8208 475.196 68.7272 468.426 52.3491 462.533Z" fill="black"/>
<path d="M64.17 478.447C63.8628 478.061 63.5566 477.675 63.2512 477.287C75.8821 482.162 88.4325 487.485 101.27 492.93C106.404 495.108 111.585 497.306 116.835 499.501C118.783 500.316 120.767 501.154 122.785 502.006C136.9 507.964 152.648 514.611 168.712 518.813C187.071 523.615 205.793 525.208 222.91 518.951C240.955 512.357 253.532 500.645 266.031 489.006C267.814 487.345 269.595 485.686 271.39 484.044C285.761 470.898 301.003 458.852 325.082 455.88C400.196 446.618 477.941 438.585 553.589 433.562C554.535 433.499 555.478 433.443 556.418 433.395C556.28 433.652 556.142 433.91 556.004 434.167C555.218 434.21 554.43 434.257 553.639 434.31C478.009 439.332 400.278 447.364 325.174 456.625C301.334 459.566 286.238 471.479 271.897 484.597C270.11 486.232 268.334 487.886 266.554 489.544L266.549 489.548C254.058 501.183 241.365 513.006 223.168 519.655C205.845 525.987 186.949 524.358 168.522 519.539C152.401 515.322 136.6 508.652 122.489 502.695C120.472 501.843 118.49 501.006 116.546 500.193C111.291 497.995 106.108 495.797 100.973 493.619C88.5371 488.345 76.3819 483.189 64.17 478.447Z" fill="black"/>
<path d="M79.1938 495.889C78.7992 495.466 78.4058 495.041 78.0136 494.615C85.4997 497.575 93.0095 500.636 100.611 503.734C105.376 505.676 110.176 507.632 115.029 509.588C117.23 510.474 119.473 511.388 121.752 512.316C135.779 518.031 151.191 524.31 166.884 528.289C185.124 532.914 203.695 534.418 220.858 528.339C238.855 521.975 251.895 510.702 264.878 499.48L264.88 499.478C266.668 497.933 268.455 496.388 270.253 494.857C285.101 482.221 300.721 470.562 324.251 467.389C398.201 457.428 474.419 448.949 548.9 442.845C549.688 442.78 550.473 442.721 551.257 442.667C551.105 442.929 550.953 443.19 550.8 443.451C550.188 443.495 549.575 443.542 548.961 443.593C474.494 449.696 398.289 458.172 324.351 468.133C301.044 471.275 285.562 482.813 270.739 495.428C268.946 496.955 267.162 498.497 265.374 500.043C252.399 511.261 239.248 522.631 221.108 529.046C203.747 535.195 185.007 533.658 166.699 529.016C150.952 525.023 135.486 518.722 121.462 513.008C119.185 512.08 116.945 511.168 114.749 510.284C109.893 508.327 105.092 506.37 100.328 504.429C93.2183 501.531 86.1923 498.668 79.1938 495.889Z" fill="black"/>
<path d="M110.093 524.671C109.486 524.182 108.881 523.69 108.278 523.196C146.542 537.52 184.458 547.14 217.263 536.305C235.351 530.334 249.096 519.748 262.81 509.184C264.57 507.829 266.329 506.473 268.097 505.128C283.631 493.311 299.807 482.303 322.742 478.94C394.844 468.386 468.094 458.233 540.582 450.348C542.733 450.115 544.871 449.925 546.996 449.778C546.834 450.04 546.671 450.302 546.508 450.564C544.57 450.705 542.622 450.881 540.663 451.094C468.188 458.977 394.949 469.128 322.851 479.682C300.114 483.016 284.066 493.922 268.551 505.725C266.787 507.067 265.03 508.421 263.27 509.777C249.564 520.335 235.716 531.004 217.498 537.017C185.028 547.742 147.669 538.572 110.093 524.671Z" fill="black"/>
<path d="M131.705 540.549C131.055 540.116 130.407 539.679 129.76 539.24C158.587 547.217 186.714 550.668 212.356 543.02C230.685 537.559 245.389 527.852 260.096 518.143C261.748 517.053 263.4 515.962 265.056 514.878C281.455 504.145 298.345 494.012 320.639 490.449C346.38 486.342 372.121 482.031 397.872 477.719L397.874 477.718C441.737 470.373 485.629 463.022 529.591 456.666C534.259 455.99 538.888 455.549 543.485 455.316C543.316 455.576 543.147 455.835 542.978 456.094C538.583 456.332 534.158 456.762 529.698 457.408C485.742 463.764 441.868 471.111 398.011 478.456L398.001 478.458C372.251 482.77 346.508 487.081 320.757 491.19C298.63 494.726 281.854 504.78 265.467 515.506C263.817 516.585 262.171 517.672 260.523 518.76L260.507 518.771C245.809 528.475 231.012 538.244 212.571 543.738C187.383 551.251 159.856 548.125 131.705 540.549Z" fill="black"/>
<path d="M149.046 551.274C148.445 550.93 147.845 550.584 147.246 550.236C167.621 553.481 187.538 553.763 206.499 548.844C225.508 543.908 241.884 535.164 258.337 526.379L258.338 526.378C259.395 525.814 260.451 525.25 261.509 524.687C279.03 515.354 296.829 506.253 318.103 502.002C336.446 498.332 354.79 494.623 373.139 490.913L373.144 490.912C421.016 481.233 468.915 471.548 516.902 462.539C524.663 461.082 532.426 460.376 540.188 460.281C540.017 460.534 539.845 460.786 539.673 461.038C532.126 461.158 524.581 461.861 517.04 463.276C469.058 472.284 421.166 481.968 373.296 491.647L373.289 491.648L373.254 491.655C354.917 495.363 336.584 499.07 318.25 502.738C297.095 506.964 279.383 516.015 261.862 525.349C260.799 525.915 259.737 526.482 258.674 527.049C242.236 535.827 225.787 544.611 206.687 549.57C188.203 554.365 168.831 554.246 149.046 551.274Z" fill="black"/>
<path d="M161.026 557.76C160.49 557.486 159.955 557.21 159.421 556.932C173.147 557.652 186.688 556.882 199.943 553.991C219.728 549.678 237.807 541.926 255.988 534.13L257.217 533.603C275.803 525.636 294.534 517.705 315.283 513.489C355.292 505.364 394.984 495.402 434.66 485.445L434.666 485.443C457.594 479.689 480.516 473.936 503.491 468.54C514.249 466.01 525.293 465.157 536.523 465.559C536.349 465.803 536.175 466.047 536 466.291C525.001 465.934 514.19 466.794 503.662 469.27C480.71 474.661 457.797 480.412 434.871 486.165L434.87 486.165C395.18 496.126 355.454 506.096 315.432 514.224C294.769 518.422 276.105 526.322 257.512 534.292L256.258 534.83C238.096 542.618 219.959 550.395 200.103 554.723C187.305 557.515 174.248 558.339 161.026 557.76Z" fill="black"/>
<path d="M169.348 561.856C168.852 561.622 168.357 561.386 167.863 561.149C174.478 560.981 181.078 560.478 187.659 559.58C208.82 556.693 229.148 549.776 249.528 542.57C250.882 542.091 252.236 541.611 253.591 541.13C272.616 534.386 291.736 527.608 311.622 523.872C342.921 517.996 373.504 508.561 404.089 499.036L406.299 498.348C436.141 489.053 466.001 479.752 496.51 473.687C507.812 471.441 519.634 471.057 531.787 472.034C531.609 472.271 531.431 472.507 531.252 472.743C519.326 471.82 507.735 472.221 496.656 474.423C466.186 480.48 436.359 489.77 406.506 499.069L404.312 499.752C373.733 509.275 343.109 518.724 311.76 524.61C291.934 528.334 272.866 535.093 253.829 541.842C252.479 542.32 251.128 542.799 249.778 543.277C229.403 550.482 209.007 557.425 187.76 560.324C181.637 561.159 175.498 561.653 169.348 561.856Z" fill="black"/>
<path d="M176.745 565.229C176.267 565.019 175.79 564.808 175.313 564.596C177.052 564.456 178.79 564.296 180.528 564.114C201.797 561.882 223.167 556.664 244.515 550.99C248.448 549.945 252.381 548.884 256.312 547.823L256.351 547.813L256.354 547.812C273.736 543.122 291.088 538.441 308.315 535.148C338.262 529.421 367.368 519.548 396.442 509.393C398.496 508.676 400.55 507.957 402.605 507.238C429.615 497.784 456.647 488.323 484.313 481.976C497.857 478.863 511.23 479.179 524.456 481.384C524.273 481.608 524.09 481.831 523.907 482.054C510.89 479.924 497.762 479.655 484.48 482.707C456.858 489.044 429.865 498.492 402.847 507.948L402.813 507.96C400.772 508.674 398.731 509.388 396.689 510.101C367.619 520.255 338.464 530.146 308.456 535.884C291.259 539.172 273.942 543.844 256.561 548.533L256.559 548.534L256.533 548.541C252.594 549.603 248.652 550.667 244.708 551.715C223.356 557.39 201.937 562.621 180.607 564.86C179.319 564.995 178.032 565.118 176.745 565.229Z" fill="black"/>
<path d="M184.708 568.589C184.215 568.389 183.722 568.188 183.23 567.986C212.61 565.035 243.101 558.878 272.721 552.898C283.671 550.687 294.503 548.5 305.116 546.507C332.554 541.356 359.248 530.757 385.967 520.148L387.392 519.583C388.131 519.289 388.869 518.996 389.608 518.703C417.531 507.629 445.519 496.814 474.38 492.525C487.553 490.568 501.293 490.563 515.385 491.97C515.177 492.201 514.969 492.432 514.761 492.662C500.915 491.315 487.425 491.345 474.491 493.267C445.727 497.541 417.817 508.322 389.885 519.4C388.663 519.885 387.442 520.37 386.22 520.855C359.52 531.456 332.766 542.079 305.254 547.245C294.666 549.232 283.85 551.416 272.91 553.625L272.906 553.626C243.747 559.513 213.702 565.58 184.708 568.589Z" fill="black"/>
<path d="M195.904 572.856C195.34 572.654 194.777 572.451 194.214 572.245C230.277 569.244 267.804 564.006 302.301 557.972C329.671 553.192 356.213 542.791 382.781 532.379L384.942 531.532C412.217 520.848 439.542 510.314 467.767 506.068C479.164 504.354 491.024 504.022 503.198 504.75C502.959 504.987 502.719 505.224 502.478 505.46C490.588 504.786 479.009 505.136 467.879 506.81C439.75 511.041 412.502 521.542 385.215 532.231L383.025 533.089L383.024 533.089C356.479 543.492 329.875 553.918 302.43 558.711C268.437 564.657 231.495 569.831 195.904 572.856Z" fill="black"/>
<path d="M211.692 578.007C210.936 577.784 210.181 577.558 209.428 577.329C239.554 576.403 269.719 574.102 299.979 569.585C327.558 565.464 354.42 556.05 381.308 546.627L381.309 546.627L382.658 546.154C409.984 536.579 437.348 527.087 465.463 523.276C471.677 522.436 478.01 521.949 484.44 521.771C484.128 522.031 483.815 522.29 483.501 522.549C477.426 522.747 471.441 523.225 465.563 524.02C437.537 527.818 410.243 537.283 382.906 546.862L381.527 547.345C354.661 556.76 327.74 566.195 300.09 570.327C270.547 574.737 241.097 577.036 211.692 578.007Z" fill="black"/>
<path d="M254.534 587.243C253.299 587.072 252.066 586.893 250.836 586.706C267.033 585.797 283.183 584.472 299.271 582.617C327.281 579.385 354.96 571.451 382.684 563.503L382.944 563.429C384.098 563.098 385.252 562.767 386.406 562.437C407.347 556.441 428.322 550.558 449.468 546.826C448.875 547.188 448.28 547.549 447.684 547.908C427.236 551.643 406.927 557.342 386.613 563.158C385.365 563.515 384.118 563.873 382.87 564.23C355.163 572.173 327.43 580.123 299.357 583.362C284.464 585.08 269.519 586.343 254.534 587.243Z" fill="black"/>
</svg>
