<svg width="425" height="363" viewBox="0 0 425 363" fill="none" xmlns="http://www.w3.org/2000/svg">
<path d="M19.2723 9.97826C12.3728 8.82362 5.47904 7.64875 -1.41415 6.47397C-7.27153 5.47573 -13.1285 4.47756 -18.9881 3.49193C-21.4686 3.0747 -23.9496 2.65972 -26.4312 2.24795C-33.7865 1.34252 -41.1897 0.592083 -48.6376 0C-38.8142 1.51848 -29.0081 3.13142 -19.2051 4.78034C-13.3516 5.76493 -7.49897 6.76239 -1.64431 7.7602L-1.64127 7.76072C11.463 9.99406 24.5776 12.2292 37.7341 14.3255C31.6231 12.7664 25.4684 11.3166 19.2723 9.97826Z" fill="black"/>
<path d="M133.328 49.1588C132.087 48.5611 130.844 47.9683 129.598 47.3802C122.377 46.4943 115.148 45.6563 107.911 44.8737C70.3991 40.8102 33.9958 33.0243 -2.3827 25.2436L-2.39196 25.2417C-8.27758 23.9828 -14.1625 22.7242 -20.0514 21.4814C-62.3271 12.56 -104.791 4.46343 -149.051 3.077C-152.144 2.97929 -155.235 2.90248 -158.323 2.84537C-161.165 3.22163 -164 3.62105 -166.827 4.04344C-160.922 4.08559 -155.011 4.19589 -149.093 4.38287C-104.957 5.76541 -62.5904 13.8397 -20.3214 22.7598C-14.4363 24.0017 -8.55268 25.2602 -2.66645 26.5192C33.7086 34.2993 70.1856 42.1013 107.77 46.1726C116.301 47.095 124.819 48.0946 133.328 49.1588Z" fill="black"/>
<path d="M188.188 79.8591C187.342 79.3149 186.493 78.7732 185.644 78.2339C160.769 75.2083 136.017 72.0684 111.472 68.8368C72.0456 63.6493 34.2664 53.3509 -3.47644 43.0623L-3.47827 43.0618C-9.60224 41.3925 -15.7253 39.7233 -21.8542 38.0764C-65.7381 26.2839 -109.907 15.6326 -156.773 14.2272C-180.821 13.5063 -204.569 14.7491 -228.149 17.0781C-230.562 17.748 -232.969 18.435 -235.368 19.139C-209.414 16.3327 -183.293 14.7394 -156.812 15.5331C-110.11 16.9336 -66.0683 27.5481 -22.1936 39.3381C-16.0725 40.983 -9.95431 42.6508 -3.83252 44.3197C33.9058 54.6074 71.7799 64.9322 111.302 70.1322C136.739 73.4812 162.399 76.732 188.188 79.8591Z" fill="black"/>
<path d="M224.02 105.104C223.4 104.626 222.779 104.15 222.156 103.676C186.246 101.358 150.592 98.1842 115.575 93.4254C72.3888 87.5535 31.7579 73.5463 -8.8914 59.5328L-8.8981 59.5305C-14.0506 57.7542 -19.2034 55.9778 -24.3616 54.2179C-70.1921 38.5815 -116.44 24.2532 -166.638 22.9767C-209.281 21.9031 -250.121 29.4141 -290.559 38.8322C-292.853 39.8019 -295.137 40.7878 -297.414 41.7896C-254.657 31.6077 -211.657 23.1502 -166.671 24.2828C-116.691 25.5538 -70.609 39.8198 -24.7839 55.4544C-19.6273 57.2137 -14.4737 58.9905 -9.31815 60.768C31.317 74.7774 72.0758 88.8295 115.399 94.72C151.075 99.5684 187.421 102.773 224.02 105.104Z" fill="black"/>
<path d="M251.573 127.879C251.09 127.451 250.606 127.023 250.121 126.596C206.059 127.31 162.388 125.841 120.216 118.572C75.5202 110.881 33.7267 93.5716 -8.0746 76.2587L-8.08138 76.2559C-14.4576 73.6151 -20.8339 70.9742 -27.2208 68.3674C-75.4498 48.6825 -124.253 30.9538 -177.911 30.0655C-227.035 29.2512 -272.334 43.012 -317.166 58.5574C-323.456 60.7384 -329.736 62.9542 -336.016 65.1701C-342.622 67.501 -349.228 69.8319 -355.845 72.1221C-357.575 73.1659 -359.299 74.2195 -361.015 75.283C-352.509 72.3759 -344.032 69.3848 -335.563 66.3963L-335.56 66.3951C-329.285 64.1809 -323.014 61.968 -316.737 59.7918C-271.918 44.2507 -226.808 30.5617 -177.932 31.3718C-124.54 32.2557 -75.9343 49.8961 -27.715 69.577C-21.3375 72.1799 -14.9663 74.8189 -8.59167 77.4593L-8.58896 77.4604C33.202 94.7701 75.1429 112.142 119.994 119.859C162.733 127.227 206.986 128.648 251.573 127.879Z" fill="black"/>
<path d="M272.438 147.429C272.04 147.035 271.641 146.641 271.242 146.248C221.78 151.779 172.595 153.959 125.115 144.014C79.0924 134.392 35.917 113.593 -7.30908 92.7689C-14.9933 89.0671 -22.6799 85.3642 -30.3836 81.7235C-81.3839 57.6214 -133.14 36.25 -190.183 36.0464C-240.151 35.8612 -284.536 53.76 -328.206 73.9588C-334.622 76.9261 -341.021 79.9426 -347.42 82.9591C-368.739 93.0084 -390.057 103.058 -411.966 111.285C-413.03 112.138 -414.091 112.995 -415.148 113.856C-391.877 105.362 -369.326 94.7315 -346.838 84.1298C-340.444 81.1157 -334.056 78.104 -327.657 75.1445C-284.003 54.9531 -239.845 37.1689 -190.188 37.3529C-133.458 37.5554 -81.9314 58.8079 -30.9424 82.9046C-23.2584 86.536 -15.5859 90.2324 -7.90963 93.9306L-7.90572 93.9325C35.3146 114.755 78.6546 135.635 124.847 145.293C172.865 155.351 222.577 153.051 272.438 147.429Z" fill="black"/>
<path d="M289.154 164.768C288.812 164.397 288.469 164.025 288.126 163.655C235.277 175.111 182.484 182.445 130.122 169.641C82.4226 157.977 37.4735 133.732 -7.59817 109.422C-16.2877 104.735 -24.9819 100.045 -33.7012 95.4429C-87.6003 66.9937 -142.432 41.8989 -202.853 41.6582C-253.542 41.4544 -297.182 63.6473 -339.785 88.8126C-346.494 92.7756 -353.177 96.8117 -359.857 100.846C-390.601 119.414 -421.296 137.953 -454.31 149.214C-454.996 149.901 -455.681 150.589 -456.364 151.28C-422.241 140.056 -390.641 120.968 -359.142 101.942L-359.139 101.94C-352.469 97.9114 -345.804 93.8854 -339.12 89.9374C-296.532 64.781 -253.161 42.7625 -202.858 42.9648C-142.784 43.204 -88.2013 68.154 -34.3116 96.5982C-25.6176 101.187 -16.9409 105.867 -8.26215 110.549L-8.25864 110.551C36.8106 134.862 81.9338 159.203 129.812 170.91C182.658 183.832 235.881 176.345 288.949 164.813C289.017 164.798 289.086 164.783 289.154 164.768Z" fill="black"/>
<path d="M303.093 180.55C302.789 180.191 302.484 179.832 302.179 179.474C298.911 180.547 295.644 181.604 292.376 182.639C240.854 198.968 189.164 210.075 135.128 195.157C86.0885 181.611 39.3775 153.979 -7.57599 126.204C-17.3409 120.427 -27.1163 114.645 -36.9253 108.981C-93.8466 76.1166 -151.874 47.2881 -215.305 47.3807C-266.804 47.4549 -309.729 73.9172 -351.263 103.927C-358.088 108.858 -364.874 113.884 -371.655 118.906L-371.658 118.909C-406.199 144.49 -440.594 169.964 -479.175 182.243C-481.565 183.003 -483.964 183.708 -486.369 184.36C-486.848 184.936 -487.326 185.513 -487.803 186.091C-484.783 185.308 -481.775 184.441 -478.778 183.487C-439.97 171.136 -405.367 145.505 -370.83 119.923C-364.06 114.909 -357.293 109.896 -350.497 104.986C-308.973 74.983 -266.348 48.7608 -215.303 48.6872C-152.254 48.5952 -94.4955 77.2508 -37.5792 110.113C-27.8001 115.759 -18.045 121.53 -8.29263 127.299C38.6623 155.078 85.5559 182.819 134.78 196.417C189.198 211.44 241.196 200.23 292.771 183.885C296.214 182.794 299.654 181.68 303.093 180.55Z" fill="black"/>
<path d="M315.107 195.26C314.829 194.907 314.55 194.553 314.271 194.2C308.236 196.875 302.205 199.501 296.167 202.033C246.339 222.933 196.033 237.496 139.872 220.452C89.6864 205.222 41.2674 174.426 -7.54381 143.381L-7.54668 143.379C-18.3243 136.524 -29.1209 129.657 -39.96 122.943C-99.8287 85.8573 -160.968 53.4526 -227.056 53.9526C-279.38 54.3422 -321.652 84.9187 -362.17 119.531C-369.008 125.373 -375.794 131.327 -382.571 137.274C-395.898 148.968 -409.19 160.632 -422.777 171.346C-443.262 187.498 -464.355 201.44 -487.111 209.98C-495.046 212.959 -503.086 215.191 -511.215 216.769C-511.576 217.279 -511.935 217.791 -512.294 218.303C-503.645 216.701 -495.091 214.372 -486.652 211.203C-463.714 202.595 -442.498 188.56 -421.967 172.371C-408.354 161.637 -395.015 149.932 -381.671 138.223L-381.663 138.216C-374.895 132.278 -368.127 126.339 -361.32 120.524C-320.803 85.9121 -278.853 55.6448 -227.046 55.2591C-161.371 54.7623 -100.519 86.9672 -40.6486 124.053C-29.8446 130.746 -19.0718 137.598 -8.30917 144.444L-8.30598 144.446C40.5101 175.497 89.1181 206.415 139.492 221.702C196.106 238.883 246.774 224.168 296.673 203.238C302.827 200.657 308.968 197.982 315.107 195.26Z" fill="black"/>
<path d="M325.609 209.085C325.35 208.731 325.089 208.377 324.829 208.024C316.475 212.664 308.142 217.238 299.78 221.591C251.683 246.632 202.756 264.325 144.169 245.303C92.9107 228.655 42.887 194.999 -7.67753 160.98L-7.68344 160.976C-19.3024 153.159 -30.95 145.322 -42.6476 137.669C-105.186 96.7502 -169.141 61.0751 -237.55 62.0011C-290.77 62.7249 -332.412 97.0542 -371.959 135.815C-378.729 142.45 -385.435 149.213 -392.129 155.963L-392.132 155.967C-405.02 168.963 -417.861 181.912 -431.021 193.814C-451.008 211.89 -471.665 227.486 -494.193 237.053C-506.169 242.134 -518.404 245.234 -530.838 246.731C-531.123 247.203 -531.408 247.674 -531.693 248.147C-518.801 246.684 -506.107 243.527 -493.681 238.255C-470.958 228.605 -450.174 212.898 -430.144 194.783C-416.958 182.858 -404.07 169.861 -391.165 156.847C-384.477 150.103 -377.785 143.355 -371.044 136.748C-331.486 97.9774 -290.181 64.0235 -237.533 63.3075C-169.562 62.3875 -105.91 97.8383 -43.3635 138.762C-31.7027 146.391 -20.0796 154.212 -8.47524 162.02C42.0968 196.047 92.3147 229.835 143.765 246.545C202.866 265.735 252.198 247.837 300.384 222.75C308.809 218.364 317.203 213.755 325.609 209.085Z" fill="black"/>
<path d="M334.979 222.288C334.733 221.929 334.486 221.57 334.238 221.212C333.91 221.427 333.582 221.643 333.254 221.858L333.251 221.86C323.168 228.478 313.154 235.051 303.077 241.246C256.608 269.814 208.964 290.233 147.982 269.525C98.5815 252.764 50.5176 222.568 4.94753 193.939C-6.81616 186.548 -18.4142 179.262 -29.8254 172.338C-40.9148 165.604 -52.8632 157.812 -65.4402 149.611C-86.3574 135.97 -109.014 121.196 -132.35 108.265C-169.741 87.5447 -209.079 71.4306 -246.234 72.117C-300.53 73.1195 -341.519 110.653 -380.111 152.921C-386.714 160.152 -393.244 167.52 -399.76 174.871L-399.762 174.874C-412.322 189.044 -424.83 203.157 -437.702 216.119C-457.242 235.797 -477.554 252.754 -500.011 263.126C-515.142 270.113 -530.664 273.58 -546.462 274.394C-546.696 274.841 -546.93 275.289 -547.164 275.737C-530.955 274.99 -515.01 271.492 -499.462 264.312C-476.798 253.844 -456.356 236.76 -436.774 217.039C-423.878 204.052 -411.325 189.89 -398.748 175.701C-392.237 168.355 -385.72 161.002 -379.146 153.802C-340.535 111.514 -299.889 74.4144 -246.21 73.4233C-209.414 72.7436 -170.329 88.7128 -132.983 109.407C-109.671 122.326 -87.114 137.037 -66.2365 150.652C-53.6475 158.863 -41.6692 166.674 -30.5042 173.455C-19.134 180.353 -7.56466 187.622 4.18068 195.002C49.7631 223.64 98 253.946 147.561 270.762C209.107 291.662 257.191 270.99 303.762 242.359C313.857 236.153 323.889 229.568 333.971 222.95C334.307 222.73 334.643 222.509 334.979 222.288Z" fill="black"/>
<path d="M343.466 235.057C343.23 234.69 342.994 234.323 342.757 233.957C341.641 234.776 340.527 235.596 339.414 236.416C337.381 237.915 335.353 239.414 333.329 240.911C324.093 247.74 314.927 254.517 305.692 260.936C260.673 292.228 214.194 314.889 151.015 293.007C100.472 275.497 51.1168 243.576 4.56485 213.467L4.56062 213.465C-7.69434 205.539 -19.755 197.738 -31.5917 190.359C-42.9154 183.295 -55.1543 175.072 -68.0808 166.387L-68.0827 166.386C-72.1994 163.62 -76.3858 160.807 -80.6346 157.97C-98.2181 146.229 -116.858 134.079 -135.994 123.143C-174.248 101.284 -214.578 84.2229 -252.516 85.0391C-308.103 86.2275 -348.382 126.212 -386.026 171.139C-392.352 178.688 -398.601 186.376 -404.838 194.047L-404.84 194.049C-417.192 209.244 -429.495 224.377 -442.238 238.254C-461.406 259.129 -481.504 277.085 -504.121 288.015C-521.993 296.648 -540.311 300.073 -558.917 299.813C-559.114 300.246 -559.31 300.678 -559.506 301.111C-540.532 301.452 -521.819 298.016 -503.552 289.191C-480.716 278.155 -460.485 260.058 -441.275 239.138C-428.506 225.232 -416.159 210.045 -403.79 194.831C-397.559 187.167 -391.322 179.495 -385.024 171.978C-347.358 127.024 -307.423 87.5198 -252.488 86.3453C-214.922 85.5371 -174.854 102.442 -136.643 124.277C-117.548 135.189 -98.9388 147.319 -81.3608 159.056C-77.1205 161.888 -72.9394 164.697 -68.8257 167.461L-68.8233 167.462C-55.8923 176.15 -43.6278 184.39 -32.2839 191.468C-20.4912 198.819 -8.46071 206.6 3.77446 214.514L3.77861 214.517C50.3441 244.635 99.8782 276.674 150.587 294.242C214.368 316.332 261.308 293.378 306.439 262.008C315.691 255.577 324.874 248.787 334.111 241.958L334.138 241.938C336.152 240.449 338.169 238.958 340.19 237.468C341.281 236.664 342.373 235.86 343.466 235.057Z" fill="black"/>
<path d="M351.337 247.685C351.11 247.31 350.883 246.935 350.656 246.56C344.514 251.321 338.449 256.159 332.418 260.969C324.07 267.627 315.788 274.233 307.459 280.513C285.547 297.035 263.236 311.367 238.276 318.774C213.335 326.175 185.713 326.671 153.157 315.454C102.02 297.827 51.785 264.648 4.74264 233.578L4.73905 233.576C-7.93657 225.204 -20.3804 216.985 -32.5476 209.265C-44.0293 201.984 -56.4195 193.514 -69.4977 184.574L-69.5141 184.563C-73.6261 181.752 -77.8063 178.895 -82.0476 176.013C-99.7764 163.968 -118.562 151.509 -137.865 140.299C-176.452 117.89 -217.198 100.412 -255.803 101.247C-313.027 102.509 -352.522 144.003 -389.21 190.537C-395.136 198.052 -400.987 205.698 -406.829 213.332L-406.832 213.336C-419.106 229.374 -431.339 245.359 -444.138 259.976C-463.022 281.543 -483.071 300.052 -506.153 311.238C-526.664 321.18 -547.551 324.201 -568.657 322.614C-568.826 323.038 -568.995 323.461 -569.163 323.886C-547.728 325.558 -526.471 322.539 -505.583 312.413C-482.269 301.115 -462.083 282.455 -443.154 260.837C-430.328 246.188 -418.049 230.144 -405.761 214.087C-399.924 206.46 -394.084 198.83 -388.183 191.345C-351.474 144.785 -312.324 103.801 -255.775 102.553C-217.547 101.726 -177.064 119.045 -138.522 141.429C-119.26 152.615 -100.506 165.052 -82.7824 177.094C-78.5547 179.966 -74.3848 182.816 -70.2805 185.622L-70.2515 185.642L-70.2499 185.643C-57.1669 194.586 -44.7506 203.074 -33.2481 210.368C-21.1286 218.058 -8.71736 226.256 3.93736 234.614L3.93887 234.615C50.9965 265.697 101.42 299.002 152.73 316.689C185.538 327.993 213.44 327.506 238.648 320.026C263.836 312.552 286.298 298.105 308.246 281.556C316.638 275.229 324.943 268.604 333.298 261.94C339.269 257.177 345.266 252.393 351.337 247.685Z" fill="black"/>
<path d="M359.446 261.614C359.231 261.231 359.015 260.848 358.799 260.466C350.097 267.009 341.575 273.782 333.12 280.502C324.697 287.196 316.342 293.837 307.94 300.145C286.01 316.611 263.69 330.877 238.771 338.21C213.872 345.537 186.343 345.953 153.972 334.653C102.763 316.782 52.4521 284.122 5.117 253.395C-7.79772 245.011 -20.4918 236.771 -32.9211 229.015C-44.7208 221.648 -57.49 213.027 -70.9815 203.917L-70.985 203.915L-71.0078 203.9C-74.821 201.325 -78.6916 198.712 -82.6144 196.077C-100.42 184.117 -119.287 171.72 -138.656 160.535C-177.375 138.178 -218.193 120.609 -256.648 121.11C-314.063 121.871 -353.319 163.604 -389.716 210.468C-395.59 218.031 -401.388 225.726 -407.177 233.41L-407.182 233.416C-419.359 249.577 -431.497 265.687 -444.217 280.404C-462.976 302.108 -482.934 320.7 -506.005 331.839C-529.111 343.001 -552.531 345.476 -576.116 342.508C-576.264 342.928 -576.411 343.349 -576.558 343.769C-552.678 346.817 -528.907 344.354 -505.436 333.015C-482.129 321.762 -462.032 303.015 -443.227 281.258C-430.48 266.509 -418.297 250.339 -406.105 234.158L-406.093 234.143C-400.312 226.471 -394.53 218.796 -388.684 211.269C-352.265 164.376 -313.357 123.168 -256.631 122.416C-218.547 121.92 -177.988 139.333 -139.31 161.667C-119.981 172.828 -101.144 185.204 -83.3436 197.161C-79.4202 199.797 -75.5466 202.412 -71.729 204.99L-71.7264 204.991C-58.2311 214.103 -45.4353 222.743 -33.6137 230.123C-21.2316 237.85 -8.57087 246.069 4.32267 254.439L4.32435 254.44C51.6751 285.179 102.167 317.958 153.541 335.887C186.164 347.274 213.974 346.869 239.14 339.463C264.287 332.063 286.759 317.683 308.726 301.189C317.191 294.833 325.569 288.173 333.998 281.474C342.386 274.806 350.824 268.1 359.446 261.614Z" fill="black"/>
<path d="M367.768 277.051C367.566 276.661 367.364 276.272 367.162 275.882C358.786 281.603 350.571 287.546 342.432 293.5C340.466 294.938 338.505 296.376 336.547 297.812C327.243 304.637 318.013 311.408 308.715 317.813C263.714 348.815 217.319 371.135 154.416 349.052C103.112 331.044 52.9505 300.579 5.04551 271.484L5.04383 271.483C-8.16508 263.461 -21.2024 255.543 -34.045 248.018C-46.6814 240.615 -60.4959 231.768 -75.1409 222.389C-78.1712 220.448 -81.2371 218.485 -84.3355 216.507C-102.401 204.973 -121.56 192.946 -141.168 182.054C-180.363 160.28 -221.446 142.983 -259.266 143.261C-315.393 143.688 -354.337 185.001 -390.409 231.485C-396.428 239.24 -402.365 247.139 -408.291 255.021C-420.155 270.804 -431.971 286.522 -444.296 300.906C-462.767 322.464 -482.311 340.935 -504.717 351.999C-530.274 364.621 -556.287 366.468 -582.524 361.985C-582.653 362.405 -582.781 362.825 -582.909 363.245C-556.408 367.799 -530.053 365.97 -504.138 353.171C-481.497 341.991 -461.816 323.362 -443.303 301.756C-430.952 287.342 -419.091 271.563 -407.211 255.76C-401.291 247.886 -395.367 240.006 -389.376 232.285C-353.278 185.768 -314.687 144.99 -259.257 144.568C-221.795 144.292 -180.965 161.441 -141.803 183.196C-122.232 194.068 -103.102 206.076 -85.0392 217.608C-81.9477 219.581 -78.8871 221.542 -75.8609 223.48L-75.8551 223.483C-61.2093 232.863 -47.3674 241.727 -34.706 249.146C-21.9056 256.645 -8.89672 264.546 4.29397 272.558L4.29581 272.559C52.216 301.664 102.536 332.227 153.983 350.285C217.486 372.579 264.344 349.968 309.457 318.889C318.772 312.471 328.022 305.687 337.327 298.861C339.284 297.426 341.242 295.99 343.204 294.554C351.299 288.633 359.457 282.73 367.768 277.051Z" fill="black"/>
<path d="M375.791 293.255C375.604 292.86 375.416 292.465 375.228 292.07C365.017 298.15 355.016 304.55 345.109 310.949C343.59 311.93 342.073 312.911 340.558 313.891C330.453 320.428 320.427 326.913 310.34 333.017C263.957 361.085 216.448 380.984 154.999 360.236C103.211 342.732 52.571 314.709 3.65478 287.64C-9.67905 280.262 -22.8848 272.954 -35.9509 265.949C-49.452 258.713 -64.3214 249.911 -80.1056 240.567C-82.463 239.171 -84.8408 237.764 -87.2374 236.347C-105.675 225.452 -125.221 214.05 -145.156 203.717C-185.004 183.062 -226.499 166.629 -263.888 167.112C-318.74 167.799 -356.676 208.392 -391.737 254.059C-397.667 261.784 -403.514 269.652 -409.348 277.502L-409.349 277.504C-420.793 292.904 -432.188 308.238 -444.07 322.294C-461.999 343.505 -480.967 361.715 -502.728 372.714C-530.557 386.775 -559.157 387.756 -588.106 381.56C-588.217 381.981 -588.328 382.403 -588.438 382.825C-559.255 389.081 -530.322 388.12 -502.138 373.88C-480.145 362.764 -461.042 344.396 -443.071 323.137C-431.164 309.051 -419.724 293.657 -408.264 278.235C-402.436 270.393 -396.602 262.543 -390.7 254.855C-355.613 209.155 -318.027 169.097 -263.871 168.418C-226.827 167.94 -185.578 184.237 -145.758 204.877C-125.858 215.191 -106.339 226.578 -87.9028 237.472C-85.5213 238.879 -83.1578 240.278 -80.8138 241.666L-80.7752 241.689C-64.9937 251.031 -50.0968 259.85 -36.5686 267.101C-23.5388 274.086 -10.3574 281.38 2.96085 288.75C51.8904 315.827 102.669 343.927 154.581 361.474C216.583 382.409 264.525 362.269 311.017 334.135C321.122 328.02 331.166 321.523 341.269 314.987C342.784 314.008 344.3 313.027 345.818 312.046C355.69 305.67 365.64 299.303 375.791 293.255Z" fill="black"/>
<path d="M383.518 310.385C383.346 309.984 383.173 309.583 383 309.183C370.191 315.548 357.658 322.353 345.229 329.101C334.343 335.012 323.536 340.88 312.692 346.372C264.661 370.695 215.8 387.715 155.65 368.981C103.282 352.667 51.9276 327.468 1.86815 302.905C-11.6813 296.256 -25.1358 289.654 -38.49 283.288C-53.0358 276.36 -69.1278 267.783 -86.1975 258.686L-86.2001 258.685L-86.3732 258.593C-87.942 257.757 -89.5189 256.916 -91.1036 256.072C-109.992 246.014 -129.98 235.464 -150.29 225.922C-190.889 206.847 -232.87 191.751 -270.028 192.697C-323.621 194.09 -360.001 233.666 -393.527 278.112C-399.175 285.6 -404.74 293.224 -410.295 300.834C-421.257 315.851 -432.176 330.81 -443.602 344.545C-460.808 365.228 -479.096 383.049 -500.258 393.982C-530.105 409.401 -561.233 409.321 -592.894 401.298C-592.989 401.723 -593.082 402.149 -593.176 402.575C-561.315 410.641 -529.859 410.745 -499.658 395.143C-478.266 384.091 -459.845 366.113 -442.597 345.38C-431.147 331.615 -420.183 316.597 -409.206 301.559L-409.204 301.557C-403.656 293.956 -398.104 286.35 -392.483 278.899C-358.936 234.424 -322.897 195.379 -269.994 194.003C-233.163 193.066 -191.421 208.041 -150.846 227.104C-130.569 236.631 -110.607 247.167 -91.7183 257.226C-90.0733 258.101 -88.4363 258.974 -86.808 259.842C-69.7453 268.935 -53.6268 277.525 -39.0525 284.467C-25.7317 290.818 -12.3001 297.409 1.23406 304.05L1.24045 304.053C51.3114 328.622 102.786 353.881 155.261 370.229C215.902 389.116 265.151 371.912 313.283 347.537C324.199 342.009 335.053 336.116 345.968 330.19C358.346 323.47 370.803 316.707 383.518 310.385Z" fill="black"/>
<path d="M390.795 328.267C390.639 327.86 390.482 327.454 390.324 327.048C376.95 332.319 363.801 337.98 350.744 343.601L350.742 343.602C339.034 348.643 327.399 353.652 315.741 358.32C265.833 378.304 215.392 392.104 156.479 375.843C103.379 361.207 51.112 339.139 -0.246982 317.453L-0.254322 317.45C-14.0118 311.641 -27.7041 305.86 -41.3299 300.257C-56.9983 293.815 -74.3648 285.697 -92.7473 277.104L-95.4668 275.833C-114.85 266.774 -135.307 257.261 -156.02 248.699C-197.427 231.581 -239.948 218.221 -277.059 219.908C-329.556 222.286 -363.918 260.656 -395.466 303.58C-400.613 310.582 -405.684 317.704 -410.747 324.816L-410.749 324.819C-421.232 339.542 -431.682 354.221 -442.713 367.704C-459.063 387.689 -476.623 404.963 -497.305 415.729C-529.031 432.251 -562.599 430.931 -596.867 421.058C-596.945 421.489 -597.023 421.92 -597.099 422.351C-562.668 432.249 -528.781 433.594 -496.701 416.888C-475.789 406.002 -458.095 388.571 -441.701 368.531C-430.642 355.014 -420.146 340.272 -409.648 325.526L-409.643 325.52C-404.588 318.42 -399.532 311.319 -394.413 304.353C-362.85 261.411 -328.819 223.56 -277 221.213C-240.195 219.54 -197.903 232.798 -156.52 249.906C-135.838 258.456 -115.406 267.957 -96.0204 277.016L-93.2891 278.293L-93.2869 278.294C-74.9163 286.881 -57.5245 295.011 -41.8271 301.465C-28.2251 307.059 -14.5478 312.834 -0.798837 318.639C50.5701 340.329 102.94 362.442 156.131 377.102C215.461 393.478 266.233 379.551 316.227 359.533C327.953 354.837 339.632 349.81 351.366 344.758C364.392 339.151 377.488 333.513 390.795 328.267Z" fill="black"/>
<path d="M397.463 346.618C397.322 346.205 397.18 345.793 397.038 345.381C383.531 349.318 370.173 353.552 356.88 357.765C344.341 361.74 331.86 365.696 319.369 369.366C267.414 384.632 215.186 394.995 157.414 381.485C103.49 368.886 50.1943 350.203 -2.46238 331.744C-16.4236 326.849 -30.3404 321.971 -44.2117 317.226C-61.2189 311.412 -80.066 303.908 -99.9455 295.992L-99.9897 295.974C-119.88 288.055 -140.797 279.727 -161.904 272.287C-204.1 257.414 -247.141 246.056 -284.352 248.632C-337.108 252.274 -368.359 290 -396.969 331.475C-400.789 337.011 -404.56 342.614 -408.33 348.214C-418.703 363.621 -429.06 379.006 -440.356 392.936C-455.748 411.917 -472.832 428.125 -493.953 437.905C-528.682 453.993 -564.176 451.33 -599.94 440.108C-600.003 440.545 -600.064 440.983 -600.125 441.42C-564.237 452.647 -528.458 455.329 -493.404 439.09C-472.026 429.192 -454.793 412.814 -439.34 393.758C-428.004 379.779 -417.598 364.322 -407.215 348.898C-403.452 343.309 -399.693 337.724 -395.893 332.216C-367.276 290.732 -336.34 253.53 -284.262 249.935C-247.336 247.379 -204.512 258.654 -162.338 273.519C-141.26 280.949 -120.367 289.267 -100.474 297.188L-100.41 297.214C-80.5458 305.123 -61.673 312.638 -44.6348 318.462C-30.7853 323.2 -16.8834 328.073 -2.93126 332.964C49.7338 351.427 103.116 370.14 157.116 382.757C215.223 396.346 267.717 385.905 319.737 370.62C332.287 366.932 344.804 362.965 357.364 358.984C370.652 354.772 383.988 350.545 397.463 346.618Z" fill="black"/>
<path d="M403.535 365.582C403.41 365.163 403.284 364.744 403.158 364.325C390.319 366.912 377.522 369.693 364.746 372.47C353.444 374.926 342.158 377.379 330.873 379.691C279.021 390.311 227.136 397.96 173.548 389.377C108.472 378.967 44.3334 360.639 -19.4561 342.41C-43.176 335.632 -66.8478 328.868 -90.5017 322.529C-104.375 318.818 -119.325 314.172 -134.898 309.332L-137.518 308.518C-154.03 303.388 -171.205 298.09 -188.485 293.505C-223.031 284.34 -258.065 278.008 -289.147 281.604C-343.117 287.843 -372.612 324.856 -400.104 364.582C-402.678 368.301 -405.234 372.044 -407.792 375.788L-407.8 375.801C-432.6 412.11 -457.466 448.517 -499.161 464.767C-532.504 477.776 -567.257 473.381 -602.495 461.208C-602.54 461.653 -602.584 462.099 -602.628 462.545C-567.314 474.701 -532.321 479.107 -498.686 465.984C-456.591 449.578 -431.493 412.821 -406.737 376.564C-404.17 372.805 -401.607 369.051 -399.029 365.325C-371.537 325.599 -342.335 289.068 -288.996 282.902C-258.168 279.335 -223.331 285.612 -188.82 294.768C-171.57 299.344 -154.42 304.635 -137.906 309.765L-135.28 310.582C-119.713 315.42 -104.74 320.073 -90.8399 323.791C-67.2329 330.117 -43.5894 336.874 -19.8855 343.647C43.9292 361.883 108.182 380.244 173.341 390.667C227.173 399.289 279.253 391.597 331.136 380.97C342.456 378.652 353.764 376.194 365.079 373.735C377.88 370.953 390.691 368.169 403.535 365.582Z" fill="black"/>
<path d="M408.671 384.02C408.56 383.594 408.45 383.167 408.338 382.741C395.875 384.054 383.423 385.473 370.979 386.891C359.165 388.237 347.356 389.582 335.553 390.835C282.134 396.506 228.763 400.292 175.001 393.767C109.11 385.76 43.7624 371.947 -21.4024 358.173C-45.4533 353.089 -69.4794 348.011 -93.4989 343.231C-108.628 340.225 -124.863 336.29 -141.696 332.203L-142.165 332.09C-158.847 328.039 -176.108 323.849 -193.429 320.282C-228.386 313.084 -263.65 308.413 -294.995 312.581C-346.979 319.489 -374.853 354.582 -400.792 392.119C-403.172 395.564 -405.536 399.028 -407.9 402.493C-431.345 436.858 -454.852 471.312 -495.064 487.178C-529.768 500.87 -566.607 495.247 -604.125 481.481C-604.153 481.935 -604.18 482.389 -604.206 482.844C-566.649 496.572 -529.58 502.201 -494.584 488.393C-453.977 472.371 -430.242 437.572 -406.837 403.257L-406.834 403.252C-404.464 399.777 -402.097 396.307 -399.717 392.862C-373.784 355.333 -346.194 320.703 -294.822 313.876C-263.703 309.738 -228.616 314.37 -193.693 321.562C-176.394 325.124 -159.152 329.31 -142.463 333.362L-142.004 333.473C-125.177 337.558 -108.915 341.501 -93.7537 344.513C-69.7698 349.285 -45.7656 354.359 -21.7276 359.44L-21.7238 359.441C43.4592 373.219 108.891 387.05 174.843 395.064C228.759 401.608 282.253 397.807 335.691 392.134C347.517 390.879 359.339 389.532 371.162 388.185L371.164 388.185C383.663 386.761 396.163 385.336 408.671 384.02Z" fill="black"/>
<path d="M413.031 402.268C412.935 401.834 412.839 401.4 412.743 400.966C401.089 401.162 389.435 401.394 377.782 401.626H377.78C365.295 401.875 352.811 402.123 340.33 402.328C285.641 403.223 230.998 403.268 176.491 398.749C109.668 393.224 43.1111 383.963 -23.3835 374.712L-23.3863 374.711C-47.5149 371.354 -71.6352 367.999 -95.757 364.823C-111.376 362.767 -127.955 359.898 -145.04 356.896C-146.348 356.666 -147.659 356.435 -148.973 356.204C-164.813 353.416 -181.052 350.559 -197.312 348.169C-232.521 342.993 -267.885 340 -299.621 344.666C-349.58 352.001 -376.122 385.005 -400.826 420.198C-403.039 423.35 -405.237 426.519 -407.435 429.689C-429.819 461.966 -452.26 494.325 -491.074 509.625C-526.899 523.752 -565.517 517.012 -604.963 501.891C-604.972 502.355 -604.982 502.818 -604.991 503.281C-565.541 518.343 -526.707 525.081 -490.594 510.84C-451.391 495.387 -428.724 462.692 -406.379 430.462L-406.365 430.442C-404.164 427.267 -401.966 424.097 -399.756 420.948C-375.064 385.772 -348.801 353.207 -299.431 345.958C-267.89 341.321 -232.681 344.29 -197.502 349.461C-181.261 351.849 -165.038 354.703 -149.194 357.491L-145.266 358.182C-128.184 361.185 -111.578 364.058 -95.9278 366.118C-71.8263 369.291 -47.7182 372.645 -23.5963 376.002C42.91 385.255 109.521 394.522 176.383 400.051C230.957 404.576 285.654 404.529 340.352 403.634C352.836 403.43 365.32 403.181 377.803 402.933L377.824 402.932C389.561 402.698 401.297 402.465 413.031 402.268Z" fill="black"/>
<path d="M416.67 420.397C416.589 419.955 416.508 419.514 416.427 419.072C400.925 418.1 385.423 417.112 369.922 416.123C305.99 412.045 242.057 407.967 178.055 405.06C109.861 401.959 41.7508 397.207 -26.3624 392.454C-49.8879 390.813 -73.4139 389.171 -96.9437 387.598C-115.532 386.349 -135.129 384.166 -155.179 381.932C-169.821 380.301 -184.704 378.643 -199.611 377.303C-234.883 374.131 -270.197 372.749 -302.397 377.783C-350.385 385.266 -376.019 416.04 -399.928 448.759C-402.025 451.628 -404.108 454.512 -406.192 457.397C-427.901 487.448 -449.655 517.561 -487.154 532.07C-524.003 546.348 -564.055 538.661 -605 522.471C-604.992 522.943 -604.982 523.415 -604.973 523.888C-564.057 539.999 -523.808 547.674 -486.682 533.289C-448.803 518.632 -426.824 488.199 -405.152 458.19C-403.06 455.294 -400.972 452.402 -398.872 449.529C-374.981 416.835 -349.621 386.47 -302.195 379.074C-270.158 374.066 -234.973 375.435 -199.728 378.604C-184.891 379.938 -170.026 381.594 -155.385 383.224L-155.381 383.225C-135.293 385.462 -115.627 387.652 -97.0313 388.901C-73.5097 390.474 -49.9891 392.115 -26.4667 393.757C41.6511 398.51 109.784 403.264 177.996 406.365C241.996 409.272 305.894 413.348 369.805 417.425L369.812 417.425L369.822 417.426C385.437 418.422 401.052 419.418 416.67 420.397Z" fill="black"/>
<path d="M419.644 438.584C419.579 438.136 419.513 437.688 419.447 437.24C406.943 435.601 394.449 433.908 381.955 432.215L381.942 432.213C371.064 430.739 360.187 429.265 349.306 427.826C293.09 420.396 236.77 413.921 179.694 413.33C118.276 412.715 56.8571 412.46 -4.55991 412.206H-4.56454L-4.61424 412.206C-35.3064 412.078 -65.9979 411.951 -96.6883 411.779C-117.434 411.663 -139.067 410.593 -161.032 409.507L-161.035 409.507C-173.907 408.87 -186.893 408.228 -199.882 407.769C-235.008 406.527 -270.105 406.627 -302.805 411.824C-348.948 419.176 -374.22 447.577 -397.896 477.691C-399.935 480.284 -401.962 482.89 -403.989 485.496C-425.529 513.185 -447.096 540.91 -483.452 554.404C-521.32 568.454 -562.35 560.058 -604.221 543.165C-604.193 543.646 -604.165 544.128 -604.136 544.609C-562.323 561.404 -521.122 569.774 -482.997 555.629C-446.275 541.999 -424.483 513.978 -402.977 486.325L-402.951 486.291C-400.925 483.686 -398.901 481.084 -396.868 478.498C-373.216 448.414 -348.213 420.382 -302.6 413.115C-270.028 407.937 -235.033 407.834 -199.928 409.075C-186.981 409.533 -174.013 410.174 -161.148 410.81L-161.143 410.81C-139.154 411.897 -117.464 412.969 -96.6956 413.086C-65.9873 413.258 -35.28 413.385 -4.57331 413.512H-4.55959C56.8549 413.767 118.267 414.021 179.681 414.636C236.673 415.227 292.926 421.692 349.135 429.122C360.01 430.559 370.884 432.033 381.762 433.507C394.382 435.217 407.007 436.928 419.644 438.584Z" fill="black"/>
<path d="M421.988 457.092C421.939 456.639 421.89 456.187 421.84 455.735C409.414 453.425 397.009 451.024 384.608 448.624L384.606 448.623C374.052 446.581 363.501 444.539 352.943 442.554C296.437 431.929 239.735 422.928 181.373 424.184C146.403 424.945 110.67 425.294 74.5367 425.648L74.5323 425.648C-50.6196 426.871 -180.577 428.142 -300.291 446.713C-344.714 453.618 -370.279 479.53 -394.428 506.921C-396.435 509.198 -398.433 511.485 -400.43 513.772L-400.449 513.794C-422.497 539.037 -444.552 564.288 -480.112 576.477C-519.055 589.838 -560.514 581.022 -602.614 563.86C-602.566 564.35 -602.517 564.841 -602.468 565.331C-560.449 582.378 -518.853 591.15 -479.688 577.713C-443.781 565.404 -421.503 539.891 -399.486 514.679C-397.474 512.375 -395.465 510.074 -393.447 507.785C-369.325 480.424 -344.025 454.833 -300.09 448.004C-180.479 429.449 -50.6529 428.179 74.4836 426.955C110.634 426.602 146.393 426.252 181.401 425.491C239.619 424.237 296.209 433.215 352.701 443.838C363.236 445.819 373.768 447.857 384.307 449.897L384.334 449.902C396.871 452.328 409.417 454.756 421.988 457.092Z" fill="black"/>
<path d="M423.687 476.016C423.654 475.561 423.621 475.107 423.588 474.652C411.169 471.787 398.775 468.789 386.384 465.792C378.357 463.851 370.331 461.91 362.3 460.005C307.93 447.109 253.325 435.885 196.623 437.623C34.7607 442.571 -136.292 460.333 -296.694 481.932C-340.072 487.779 -367.433 512.875 -393.872 538.692C-395.171 539.96 -396.467 541.229 -397.762 542.498C-422.881 567.1 -447.819 591.525 -485.663 600.308C-523.645 609.136 -561.869 600.479 -600.128 584.825C-600.058 585.325 -599.988 585.824 -599.917 586.324C-561.757 601.851 -523.471 610.437 -485.367 601.581C-447.156 592.712 -421.974 568.045 -396.906 543.489C-395.59 542.2 -394.275 540.912 -392.959 539.627C-366.52 513.811 -339.432 489.011 -296.52 483.227C-136.141 461.631 34.8628 443.875 196.663 438.929C253.179 437.197 307.637 448.383 361.998 461.276C370.018 463.178 378.037 465.118 386.06 467.058C398.585 470.088 411.12 473.12 423.687 476.016Z" fill="black"/>
<path d="M424.738 496.377C424.723 495.925 424.708 495.472 424.692 495.019C411.157 491.648 397.669 488.068 384.185 484.49C377.322 482.668 370.46 480.847 363.593 479.054C309.496 464.927 255.138 452.534 197.902 455.456C117.284 459.556 36.3775 470.802 -44.4075 483.291C-61.8716 485.991 -79.3294 488.748 -96.7775 491.505L-96.7812 491.505C-160.053 501.5 -223.197 511.475 -286.042 518.592C-328.706 523.433 -358.294 545.532 -387.124 568.168C-388.372 569.147 -389.618 570.127 -390.863 571.107C-418.432 592.799 -445.779 614.316 -483.824 621.383C-522.384 628.54 -559.847 620.037 -596.89 605.085C-596.798 605.592 -596.706 606.099 -596.613 606.606C-559.685 621.42 -522.203 629.835 -483.586 622.668C-445.216 615.541 -417.636 593.838 -390.116 572.183C-388.85 571.186 -387.584 570.19 -386.317 569.195C-357.485 546.558 -328.155 524.685 -285.895 519.89C-223.018 512.769 -159.836 502.789 -96.56 492.793C-79.115 490.037 -61.6628 487.28 -44.2077 484.582C36.5702 472.095 117.421 460.857 197.969 456.761C254.986 453.85 309.173 466.193 363.263 480.318C370.121 482.109 376.978 483.929 383.838 485.75L383.84 485.75C397.443 489.36 411.062 492.975 424.738 496.377Z" fill="black"/>
<path d="M424.992 516.826C424.995 516.379 424.998 515.933 425 515.486C412.612 512.584 400.245 509.544 387.879 506.504C379.078 504.34 370.278 502.176 361.47 500.063C306.766 486.936 251.824 475.757 195.058 478.641C85.9947 484.158 -24.7464 500.287 -134.458 516.265C-182.629 523.281 -230.601 530.268 -278.146 536.315C-320.736 541.728 -352.488 563.767 -383.612 586.154C-384.675 586.919 -385.737 587.684 -386.799 588.449C-416.861 610.098 -446.652 631.552 -485.519 638.477C-521.913 644.96 -557.6 637.794 -592.977 624.596C-592.865 625.104 -592.752 625.61 -592.639 626.117C-557.385 639.175 -521.709 646.251 -485.289 639.763C-446.123 632.785 -416.114 611.172 -386.107 589.561C-385.021 588.778 -383.935 587.996 -382.848 587.215C-351.711 564.818 -320.204 542.978 -277.981 537.611C-230.385 531.557 -182.384 524.566 -134.198 517.548L-134.196 517.548C-24.5141 501.574 86.1247 485.46 195.124 479.946C251.688 477.072 306.473 488.21 361.165 501.333C369.955 503.443 378.744 505.603 387.537 507.765L387.542 507.767C400.01 510.832 412.488 513.9 424.992 516.826Z" fill="black"/>
<path d="M424.329 539.753C424.351 539.314 424.373 538.874 424.394 538.435C411.878 536.015 399.374 533.49 386.869 530.965C374.5 528.468 362.131 525.97 349.751 523.574C292.171 512.432 234.386 503.502 175.436 507.107C29.3578 516.043 -121.15 532.622 -266.11 552.486C-308.467 558.285 -342.087 578.286 -375.062 598.946C-376.96 600.135 -378.855 601.326 -380.749 602.516C-411.81 622.034 -442.702 641.446 -480.334 649.631C-517.094 657.613 -553.316 652.003 -589.273 640.199C-589.146 640.699 -589.018 641.2 -588.89 641.7C-553.05 653.372 -516.84 658.895 -480.057 650.908C-442.193 642.672 -411.118 623.144 -380.097 603.65C-378.187 602.45 -376.278 601.25 -374.368 600.053C-341.389 579.391 -307.982 559.537 -265.933 553.78C-120.994 533.919 29.4794 517.344 175.516 508.411C234.292 504.816 291.942 513.718 349.502 524.857C361.857 527.248 374.208 529.742 386.566 532.237L386.571 532.238C399.147 534.778 411.73 537.319 424.329 539.753Z" fill="black"/>
<path d="M422.538 563.842C422.58 563.408 422.622 562.974 422.664 562.54C409.717 560.687 396.771 558.756 383.823 556.824L383.815 556.823C369.915 554.749 356.011 552.675 342.1 550.696C283.682 542.388 225.141 535.772 166.217 538.008C27.6203 543.251 -116.652 549.971 -254.282 567.069C-297.988 572.494 -334.915 591.558 -371.328 611.238C-373.328 612.32 -375.327 613.403 -377.325 614.485C-411.73 633.127 -445.978 651.683 -485.491 659.338C-519.576 665.93 -552.89 662.049 -585.845 652.996C-585.707 653.486 -585.568 653.976 -585.429 654.465C-552.588 663.405 -519.311 667.21 -485.243 660.621C-445.526 652.926 -411.113 634.28 -376.747 615.658L-376.737 615.653C-374.727 614.563 -372.717 613.474 -370.706 612.388C-334.284 592.702 -297.554 573.757 -254.12 568.365C-116.552 551.275 27.6706 544.556 166.266 539.314C225.068 537.083 283.513 543.684 341.916 551.99C355.809 553.966 369.702 556.038 383.597 558.111L383.6 558.112C396.577 560.048 409.556 561.984 422.538 563.842Z" fill="black"/>
<path d="M419.346 589.706C419.411 589.273 419.475 588.841 419.538 588.408C405.953 587.569 392.36 586.719 378.762 585.869L378.754 585.869C172.41 572.971 -35.3711 559.983 -241.412 580.874C-287.079 585.502 -327.655 603.204 -367.821 621.574C-370.196 622.66 -372.569 623.748 -374.941 624.837C-412.731 642.167 -450.4 659.442 -491.977 666.46C-522.996 671.698 -553.17 669.344 -582.935 662.934C-582.791 663.411 -582.645 663.888 -582.499 664.364C-552.844 670.683 -522.73 672.978 -491.76 667.748C-450.005 660.7 -412.189 643.357 -374.434 626.042L-374.341 625.999C-371.987 624.919 -369.632 623.839 -367.277 622.762C-327.101 604.388 -286.706 586.777 -241.28 582.174C-35.3562 561.294 172.295 574.274 378.636 587.171L378.651 587.172C392.222 588.02 405.787 588.868 419.346 589.706Z" fill="black"/>
<path d="M415.187 613.67C415.273 613.236 415.359 612.802 415.444 612.367C393.766 612.072 372.089 611.835 350.413 611.599H350.409C280.741 610.838 211.085 610.078 141.443 607.38C102.864 605.887 63.6561 603.17 24.2232 600.437C-60.0573 594.596 -145.367 588.684 -227.762 594.496C-275.719 597.882 -320.308 613.096 -364.545 629.508C-369.569 631.372 -374.588 633.251 -379.607 635.13C-418.806 649.806 -457.995 664.479 -499.371 671.815C-526.632 676.64 -553.486 675.873 -580.128 671.879C-579.978 672.342 -579.827 672.805 -579.676 673.267C-553.137 677.193 -526.349 677.917 -499.142 673.101C-457.64 665.743 -418.334 651.026 -379.149 636.354C-374.128 634.474 -369.11 632.595 -364.09 630.733C-319.857 614.323 -275.422 599.171 -227.67 595.8C-145.366 589.994 -60.2169 595.896 24.0138 601.734L24.0178 601.734C63.4733 604.468 102.727 607.189 141.393 608.686C211.037 611.384 280.741 612.145 350.436 612.906L350.447 612.906C372.029 613.142 393.61 613.377 415.187 613.67Z" fill="black"/>
<path d="M409.604 638.579C409.715 638.137 409.825 637.694 409.935 637.251C390.943 638.354 371.938 639.647 352.933 640.939L352.923 640.94C338.564 641.917 324.204 642.893 309.848 643.788C248.785 647.595 187.784 649.927 127.144 644.523C86.0594 640.854 44.4008 634.524 2.54027 628.163C-12.6515 625.854 -27.8698 623.542 -43.097 621.351C-100.264 613.126 -157.53 606.621 -213.848 608.524C-264.288 610.226 -313.007 623.207 -361.434 637.699C-369.058 639.981 -376.675 642.3 -384.29 644.619C-425.066 657.033 -465.796 669.433 -507.411 676.021C-531.229 679.791 -554.762 679.958 -578.138 677.891C-577.986 678.342 -577.833 678.793 -577.68 679.243C-554.405 681.264 -530.952 681.07 -507.207 677.312C-465.493 670.708 -424.663 658.277 -383.889 645.862C-376.279 643.545 -368.67 641.229 -361.059 638.951C-312.64 624.461 -264.061 611.525 -213.804 609.83C-157.606 607.931 -100.434 614.421 -43.2833 622.644C-28.0796 624.832 -12.8756 627.142 2.30799 629.449L2.3099 629.45C44.1826 635.812 85.9001 642.152 127.028 645.825C187.771 651.238 248.854 648.9 309.93 645.092C324.305 644.196 338.679 643.218 353.048 642.241C371.911 640.958 390.765 639.676 409.604 638.579Z" fill="black"/>
<path d="M402.748 663.294C402.887 662.837 403.026 662.38 403.164 661.922C383.613 664.46 363.988 667.368 344.338 670.28C328.788 672.584 313.222 674.89 297.666 677.017C235.305 685.544 173.055 691.199 112.331 682.371C71.4661 676.418 30.4977 666.09 -10.6189 655.725L-10.6217 655.725C-21.4785 652.988 -32.3458 650.248 -43.2241 647.586C-95.2781 634.847 -147.564 623.884 -200.044 623.514C-252.987 623.144 -305.838 633.757 -358.469 646.191C-369.321 648.755 -380.162 651.396 -390.993 654.034C-432.717 664.198 -474.288 674.324 -515.707 679.859C-536.11 682.593 -556.36 683.28 -576.519 682.609C-576.365 683.05 -576.211 683.49 -576.056 683.931C-556.002 684.576 -535.847 683.876 -515.533 681.154C-474.039 675.609 -432.381 665.461 -390.65 655.296L-390.647 655.295C-379.825 652.659 -368.999 650.021 -358.169 647.463C-305.551 635.032 -252.829 624.452 -200.053 624.821C-147.736 625.189 -95.5758 636.119 -43.535 648.855C-32.6812 651.511 -21.8316 654.246 -10.9868 656.98L-10.9751 656.983C30.1503 667.351 71.204 677.7 112.142 683.664C173.058 692.52 235.46 686.841 297.843 678.311C313.434 676.18 329.021 673.87 344.584 671.564C364.023 668.684 383.425 665.81 402.748 663.294Z" fill="black"/>
<path d="M394.631 687.713C394.803 687.236 394.974 686.759 395.145 686.281C375.415 690.161 355.485 694.577 335.473 699.011L335.47 699.011C317.074 703.087 298.608 707.179 280.163 710.884C214.305 724.112 148.663 732.429 87.0848 717.714C52.5882 709.473 17.7956 695.974 -17.2887 682.361C-27.4956 678.401 -37.7278 674.431 -47.984 670.578C-93.4589 653.495 -139.388 638.728 -185.587 637.47C-238.796 636.01 -293.947 644.115 -348.975 654.168C-364.037 656.92 -379.087 659.816 -394.086 662.703L-394.097 662.706C-433.919 670.371 -473.384 677.967 -511.746 682.59C-532.981 685.149 -554.104 686.269 -575.167 686.437C-575.012 686.872 -574.855 687.306 -574.699 687.74C-553.747 687.559 -532.725 686.434 -511.589 683.888C-473.179 679.258 -433.648 671.649 -393.811 663.982L-393.807 663.981L-393.804 663.98C-378.811 661.094 -363.776 658.2 -348.74 655.453C-293.727 645.403 -238.688 637.32 -185.623 638.776C-139.658 640.028 -93.9042 654.724 -48.4439 671.801C-38.2204 675.641 -28.0103 679.603 -17.8166 683.558C17.2826 697.177 52.1893 710.721 86.7809 718.985C148.653 733.77 214.534 725.399 280.42 712.165C298.926 708.447 317.429 704.348 335.846 700.267L335.848 700.267C355.574 695.896 375.203 691.547 394.631 687.713Z" fill="black"/>
<path d="M385.315 711.642C385.525 711.141 385.734 710.639 385.942 710.137C365.663 715.245 345.133 721.047 324.5 726.879L324.498 726.879C306.092 732.081 287.602 737.307 269.134 742.084C202.245 759.387 135.575 770.836 73.6928 754.306C38.158 744.814 4.45174 726.776 -29.3954 708.662C-35.4845 705.404 -41.5781 702.143 -47.6878 698.928C-87.7189 677.869 -128.414 658.839 -172.818 655.968C-228.312 652.364 -287.153 657.955 -345.978 665.663C-364.92 668.145 -383.857 670.846 -402.681 673.531L-402.683 673.531C-442.342 679.188 -481.5 684.773 -519.15 688.089C-537.202 689.676 -555.251 690.791 -573.301 691.567C-573.143 691.996 -572.983 692.425 -572.823 692.854C-554.892 692.077 -536.962 690.967 -519.035 689.391C-481.35 686.071 -442.131 680.478 -402.451 674.818C-383.636 672.135 -364.717 669.436 -345.809 666.959C-287.001 659.253 -228.264 653.676 -172.903 657.271C-128.801 660.123 -88.3223 679.028 -48.2967 700.085C-42.205 703.289 -36.1232 706.544 -30.0408 709.8C3.80084 727.912 37.6612 746.034 73.3553 755.568C135.589 772.192 202.547 760.658 269.461 743.349C288 738.553 306.532 733.316 324.963 728.107C345.245 722.375 365.404 716.678 385.315 711.642Z" fill="black"/>
<path d="M374.151 736.444C374.41 735.908 374.667 735.372 374.924 734.835C370.387 736.245 365.83 737.696 361.254 739.179C346.478 743.966 331.533 749.077 316.49 754.222L316.486 754.224C297.421 760.744 278.197 767.319 258.953 773.359C190.133 794.961 121.626 809.532 61.5018 789.722C27.9385 778.661 -2.03419 758.093 -32.1044 737.458C-37.1652 733.985 -42.2287 730.511 -47.3125 727.079C-82.5611 703.286 -118.761 681.591 -161.604 677.346C-219.216 671.654 -281.285 674.566 -343.449 679.703C-366.627 681.618 -389.811 683.842 -412.784 686.046L-412.786 686.046L-412.79 686.046C-451.458 689.756 -489.529 693.408 -525.962 695.434C-540.924 696.269 -555.876 697.177 -570.822 698.134C-570.657 698.56 -570.493 698.986 -570.327 699.412C-555.516 698.465 -540.704 697.565 -525.89 696.739C-489.435 694.711 -451.31 691.054 -412.617 687.343L-412.61 687.342C-389.644 685.139 -366.478 682.917 -343.342 681.005C-281.196 675.869 -219.223 672.966 -161.733 678.646C-119.246 682.855 -83.2849 704.374 -48.0441 728.162C-42.9776 731.582 -37.9254 735.049 -32.8709 738.518C-2.8103 759.149 27.3367 779.838 61.0925 790.963C121.649 810.915 190.519 796.209 259.344 774.606C278.579 768.568 297.855 761.976 316.952 755.445L316.958 755.443C332.005 750.298 346.94 745.19 361.657 740.421C365.839 739.067 370.004 737.739 374.151 736.444Z" fill="black"/>
<path d="M360.937 761.978C361.258 761.399 361.577 760.82 361.895 760.24C359.594 761.074 357.286 761.919 354.972 762.774C339.909 768.337 324.598 774.297 309.143 780.313C289.724 787.873 270.077 795.521 250.408 802.581C179.798 827.925 109.56 845.424 51.0382 823.255C18.9172 811.086 -7.63019 788.962 -34.2194 766.803L-34.2231 766.8C-38.5026 763.234 -42.7833 759.666 -47.0884 756.139C-78.1019 730.732 -110.356 707.462 -152.464 702.232C-238.268 691.565 -334.164 696.354 -426.215 700.952C-462.311 702.755 -497.816 704.528 -531.889 705.328C-543.762 705.606 -555.573 706.162 -567.336 706.935C-567.162 707.36 -566.989 707.785 -566.815 708.21C-555.213 707.453 -543.565 706.908 -531.858 706.634C-497.707 705.832 -462.154 704.057 -426.031 702.252L-426.029 702.252C-334.021 697.657 -238.308 692.877 -152.625 703.528C-110.918 708.709 -78.9156 731.755 -47.9171 757.15C-43.6271 760.664 -39.3556 764.224 -35.08 767.788C-8.50348 789.94 18.2318 812.223 50.5748 824.477C109.594 846.834 180.26 829.148 250.85 803.811C270.504 796.756 290.203 789.088 309.654 781.517L309.658 781.515L309.664 781.513C325.123 775.495 340.426 769.538 355.425 763.999C357.267 763.319 359.104 762.645 360.937 761.978Z" fill="black"/>
<path d="M350.295 780.302C350.64 779.734 350.985 779.165 351.329 778.595C317.245 789.562 284.046 802.676 249.84 816.189C241.855 819.343 233.816 822.519 225.697 825.694C221.151 827.474 216.539 829.31 211.87 831.169C187.597 840.832 161.773 851.113 135.597 857.325C104.398 864.73 72.782 866.33 42.8137 854.236C11.4676 841.58 -12.3314 819.033 -36.0997 796.516C-39.7853 793.024 -43.4701 789.533 -47.1823 786.08C-74.7988 760.39 -103.888 736.837 -145.881 731.14C-241.737 718.102 -347.611 718.33 -448.831 718.547H-448.835C-478.655 718.611 -508.07 718.674 -536.706 718.397C-545.321 718.314 -553.852 718.476 -562.313 718.846C-562.126 719.274 -561.938 719.702 -561.75 720.13C-553.477 719.776 -545.138 719.622 -536.719 719.704C-508.044 719.981 -478.603 719.918 -448.766 719.854C-347.562 719.637 -241.814 719.41 -146.057 732.435C-104.494 738.073 -75.6622 761.371 -48.0729 787.036C-44.376 790.475 -40.7008 793.958 -37.0197 797.446C-13.265 819.955 10.7301 842.691 42.324 855.447C72.6404 867.682 104.56 866.034 135.899 858.597C162.177 852.36 188.106 842.037 212.377 832.374L212.38 832.373C217.042 830.516 221.643 828.685 226.173 826.911C234.295 823.734 242.336 820.558 250.319 817.405C284.054 804.079 316.768 791.156 350.295 780.302Z" fill="black"/>
<path d="M333.758 805.751C334.182 805.137 334.606 804.523 335.028 803.908C305.842 814.332 277.221 826.366 247.749 838.758L247.741 838.762C239.119 842.387 230.424 846.043 221.621 849.698C217.76 851.299 213.823 852.953 209.817 854.635C185.497 864.849 158.679 876.111 131.37 883.131C99.5679 891.307 67.1903 893.704 37.4144 882.034C6.11933 869.773 -15.9497 848.118 -37.9091 826.57L-37.9106 826.568C-41.1679 823.372 -44.4227 820.179 -47.705 817.018C-73.0906 792.574 -100.065 770.193 -142.302 764.701C-271.325 747.972 -409.615 741.141 -539.971 735.345C-545.001 735.123 -549.984 735.01 -554.925 734.996C-554.716 735.432 -554.506 735.869 -554.296 736.305C-549.58 736.326 -544.825 736.438 -540.029 736.65C-409.668 742.446 -271.431 749.276 -142.47 765.996C-100.67 771.432 -73.9532 793.558 -48.6119 817.959C-45.3446 821.105 -42.0994 824.29 -38.8471 827.482L-38.8421 827.487C-16.8955 849.027 5.3754 870.885 36.9373 883.251C67.0769 895.063 99.7677 892.605 131.695 884.397C159.106 877.35 186.021 866.046 210.337 855.834C214.339 854.153 218.271 852.502 222.123 850.904C230.933 847.246 239.632 843.589 248.255 839.963L248.259 839.962C277.161 827.81 305.211 816.016 333.758 805.751Z" fill="black"/>
<path d="M313.154 833.474C313.69 832.802 314.224 832.128 314.756 831.453C292.741 839.945 270.866 849.218 248.491 858.704C239.542 862.498 230.512 866.326 221.361 870.151C217.967 871.57 214.508 873.029 210.99 874.513C186.389 884.893 158.941 896.473 130.942 903.793C98.9426 912.158 66.3108 914.932 36.4766 904.032C5.02487 892.546 -16.8959 872.143 -38.6802 851.867C-41.7879 848.974 -44.8927 846.084 -48.0221 843.223C-73.0694 820.324 -99.6354 799.337 -141.604 794.161C-272.525 778.026 -408.031 764.032 -539.883 755.281C-541.532 755.172 -543.175 755.075 -544.813 754.99C-544.573 755.439 -544.333 755.888 -544.092 756.337C-542.721 756.411 -541.347 756.493 -539.97 756.585C-408.149 765.334 -272.669 779.325 -141.764 795.458C-100.213 800.583 -73.9006 821.334 -48.9044 844.187C-45.7896 847.035 -42.6944 849.917 -39.5921 852.805L-39.5844 852.812C-17.8124 873.081 4.31025 893.676 36.028 905.26C66.22 916.29 99.1555 913.453 131.273 905.057C159.371 897.711 186.912 886.091 211.506 875.714C215.022 874.231 218.477 872.773 221.866 871.356C231.024 867.528 240.058 863.698 249.009 859.904C270.684 850.716 291.87 841.735 313.154 833.474Z" fill="black"/>
<path d="M286.969 863.859C287.656 863.121 288.342 862.38 289.026 861.638C275.978 866.796 262.888 872.128 249.639 877.525C241.335 880.907 232.968 884.315 224.509 887.722C220.673 889.266 216.764 890.858 212.792 892.475C188.343 902.43 161.481 913.368 134.129 920.3C102.337 928.356 69.9676 930.976 40.0538 920.386C8.68541 909.3 -14.043 889.664 -36.6716 870.113L-36.6746 870.11C-39.7909 867.418 -42.9054 864.727 -46.0402 862.061C-71.9192 840.047 -99.144 819.738 -140.156 814.21C-269.047 796.857 -401.892 782.088 -531.709 771.454C-533.082 771.341 -534.452 771.238 -535.818 771.144C-535.553 771.599 -535.288 772.055 -535.022 772.509C-533.955 772.586 -532.887 772.668 -531.816 772.756C-402.024 783.388 -269.202 798.154 -140.331 815.505C-99.707 820.98 -72.7235 841.079 -46.8874 863.056C-43.7615 865.715 -40.6517 868.402 -37.5361 871.094C-14.9209 890.637 8.00085 910.444 39.6176 921.618C69.8776 932.331 102.54 929.653 134.45 921.566C161.898 914.61 188.853 903.634 213.297 893.681C217.266 892.064 221.169 890.475 224.998 888.934C233.461 885.525 241.83 882.117 250.132 878.735C262.524 873.687 274.77 868.699 286.969 863.859Z" fill="black"/>
<path d="M233.113 913.998C234.17 913.145 235.224 912.288 236.275 911.427C169.583 936.38 103.497 953.139 46.32 934.263C14.7923 923.863 -9.16342 905.421 -33.0668 887.018C-36.1337 884.657 -39.2006 882.296 -42.2817 879.953C-69.3563 859.367 -97.5508 840.191 -137.526 834.333C-263.196 815.946 -390.867 798.26 -517.212 784.525C-520.961 784.118 -524.687 783.788 -528.391 783.53C-528.108 783.987 -527.824 784.444 -527.54 784.901C-524.163 785.146 -520.768 785.453 -517.353 785.824C-391.033 799.556 -263.38 817.24 -137.715 835.625C-98.0862 841.433 -70.1147 860.432 -43.0732 880.993C-39.9987 883.331 -36.9356 885.689 -33.8685 888.051C-9.97995 906.444 14.1569 925.029 45.9103 935.504C102.505 954.188 167.618 938.214 233.113 913.998Z" fill="black"/>
<path d="M195.443 941.658C196.576 940.902 197.706 940.142 198.833 939.378C148.59 953.274 99.5652 959.285 54.8717 945.962C22.9249 936.449 -2.70286 919.539 -28.3372 902.625C-31.2154 900.726 -34.0947 898.826 -36.982 896.938C-65.5648 878.24 -95.0024 860.589 -133.861 854.382C-178.726 847.227 -223.592 839.717 -268.474 832.205L-268.477 832.204C-344.93 819.408 -421.43 806.603 -498.054 795.53C-506.19 794.352 -514.26 793.584 -522.271 793.179C-521.978 793.631 -521.683 794.082 -521.388 794.533C-513.727 794.949 -506.015 795.698 -498.242 796.823C-421.629 807.895 -345.157 820.695 -268.716 833.489L-268.699 833.492C-223.818 841.004 -178.948 848.514 -134.067 855.672C-95.5004 861.832 -66.26 879.347 -37.6978 898.031C-34.8221 899.912 -31.9529 901.805 -29.0815 903.7L-29.052 903.72C-3.43514 920.624 22.355 937.642 54.4984 947.214C98.3987 960.301 146.378 954.856 195.443 941.658Z" fill="black"/>
<path d="M165.218 960.341C166.266 959.742 167.312 959.139 168.356 958.533C132.844 964.185 98.1283 964.676 65.0813 956.108C31.9481 947.509 3.40633 932.277 -25.2708 916.973L-25.2726 916.972C-27.1138 915.989 -28.9556 915.006 -30.7992 914.025C-61.3384 897.766 -92.3598 881.912 -129.44 874.507C-161.412 868.114 -193.385 861.653 -225.365 855.19L-225.374 855.188C-308.813 838.327 -392.299 821.455 -475.938 805.761C-489.465 803.223 -502.996 801.993 -516.525 801.828C-516.227 802.268 -515.927 802.708 -515.627 803.147C-502.473 803.355 -489.322 804.579 -476.179 807.045C-392.549 822.738 -309.075 839.607 -225.639 856.468L-225.628 856.47L-225.566 856.483C-193.606 862.941 -161.652 869.399 -129.696 875.789C-92.824 883.152 -61.9537 898.919 -31.4138 915.178C-29.5614 916.164 -27.7101 917.152 -25.8588 918.14C2.79288 933.432 31.4633 948.733 64.7528 957.373C96.9703 965.726 130.735 965.518 165.218 960.341Z" fill="black"/>
<path d="M144.338 971.64C145.272 971.163 146.205 970.682 147.136 970.198C123.213 971.452 99.6098 970.11 76.5073 965.073C42.0236 957.56 10.5121 944.056 -21.1757 930.476L-23.3181 929.557C-55.7125 915.678 -88.3606 901.862 -124.525 894.518C-194.258 880.363 -263.44 863.01 -332.594 845.664L-332.604 845.661C-372.566 835.637 -412.519 825.616 -452.563 816.215C-471.314 811.808 -490.564 810.323 -510.137 811.021C-509.834 811.447 -509.53 811.873 -509.226 812.297C-490.054 811.676 -471.212 813.174 -452.863 817.487C-412.858 826.878 -372.921 836.896 -332.963 846.919L-332.96 846.919C-263.782 864.271 -194.542 881.639 -124.785 895.798C-88.7708 903.112 -56.2396 916.874 -23.8332 930.758L-21.6476 931.695C10.0092 945.262 41.6213 958.81 76.2289 966.35C98.5346 971.212 121.294 972.649 144.338 971.64Z" fill="black"/>
<path d="M129.834 978.775C130.698 978.367 131.56 977.957 132.421 977.544C120.892 977.251 109.389 976.374 97.9181 974.811C61.0353 969.782 25.6045 957.731 -9.9165 945.177C-12.2767 944.343 -14.6373 943.507 -16.9988 942.67C-50.1579 930.921 -83.4838 919.114 -118.144 912.606C-172.697 902.369 -226.002 885.933 -279.31 869.341L-283.163 868.142C-335.175 851.949 -387.22 835.746 -440.396 825.182C-460.095 821.269 -480.7 820.6 -501.883 822.301C-501.573 822.714 -501.261 823.126 -500.95 823.538C-480.164 821.928 -459.962 822.628 -440.65 826.463C-387.543 837.014 -335.556 853.199 -283.523 869.398L-279.699 870.588C-226.4 887.178 -173.025 903.637 -118.385 913.89C-83.8289 920.378 -50.594 932.153 -17.4139 943.909C-15.0599 944.743 -12.7062 945.577 -10.3523 946.409C25.1608 958.96 60.7088 971.056 97.7414 976.106C108.414 977.56 119.114 978.422 129.834 978.775Z" fill="black"/>
<path d="M116.941 984.651C117.774 984.285 118.606 983.918 119.436 983.548C116.406 983.305 113.376 983.026 110.347 982.709C73.2771 978.82 36.0291 969.731 -1.17952 959.847C-8.03519 958.025 -14.89 956.177 -21.7419 954.329L-21.8094 954.311L-21.8135 954.31C-52.1109 946.14 -82.3539 937.985 -112.379 932.248C-164.577 922.272 -215.308 905.073 -265.982 887.383C-269.562 886.133 -273.143 884.881 -276.723 883.628C-323.801 867.16 -370.917 850.678 -419.136 839.621C-442.744 834.199 -466.052 834.749 -489.104 838.59C-488.786 838.979 -488.467 839.368 -488.148 839.756C-465.46 836.047 -442.577 835.578 -419.429 840.895C-371.285 851.935 -324.237 868.392 -277.145 884.865L-277.086 884.886C-273.529 886.13 -269.971 887.374 -266.413 888.617C-215.744 906.305 -164.929 923.534 -112.625 933.531C-82.6531 939.258 -52.4692 947.397 -22.1754 955.566L-22.1714 955.567L-22.1264 955.579C-15.2613 957.43 -8.39053 959.283 -1.51532 961.109C35.6995 970.995 73.0318 980.108 110.21 984.009C112.454 984.243 114.698 984.457 116.941 984.651Z" fill="black"/>
<path d="M103.061 990.504C103.921 990.156 104.78 989.806 105.638 989.454C54.4296 984.313 1.28515 973.588 -50.3407 963.169C-69.4272 959.318 -88.3068 955.508 -106.804 952.037C-154.628 943.063 -201.154 924.6 -247.725 906.118L-250.208 905.133C-251.496 904.622 -252.783 904.112 -254.071 903.601C-302.739 884.309 -351.52 865.469 -401.825 857.999C-424.785 854.589 -448.733 854.58 -473.294 857.032C-472.932 857.434 -472.57 857.836 -472.207 858.237C-448.074 855.89 -424.561 855.943 -402.017 859.291C-351.884 866.736 -303.238 885.517 -254.553 904.816C-252.424 905.66 -250.295 906.504 -248.165 907.349C-201.628 925.817 -154.996 944.323 -107.045 953.321C-88.5901 956.784 -69.7392 960.588 -50.6704 964.436L-50.6629 964.438C0.158386 974.694 52.5265 985.263 103.061 990.504Z" fill="black"/>
<path d="M83.5476 997.937C84.5306 997.586 85.5122 997.231 86.4924 996.874C23.6372 991.645 -41.7716 982.521 -101.899 972.009C-149.602 963.683 -195.865 945.562 -242.171 927.425L-245.937 925.95C-293.478 907.337 -341.104 888.987 -390.299 881.59C-410.163 878.604 -430.834 878.026 -452.054 879.295C-451.636 879.708 -451.218 880.119 -450.799 880.531C-430.073 879.357 -409.892 879.966 -390.493 882.882C-341.467 890.253 -293.974 908.546 -246.414 927.166L-242.597 928.661L-242.595 928.662C-196.328 946.784 -149.958 964.947 -102.124 973.296C-42.8737 983.654 21.5139 992.668 83.5476 997.937Z" fill="black"/>
<path d="M56.0301 1006.91C57.3476 1006.52 58.6629 1006.13 59.976 1005.73C7.46766 1004.12 -45.1096 1000.11 -97.8515 992.239C-145.919 985.06 -192.739 968.661 -239.603 952.246L-239.606 952.245L-241.957 951.422C-289.585 934.742 -337.279 918.206 -386.282 911.568C-397.114 910.104 -408.152 909.255 -419.359 908.945C-418.815 909.398 -418.269 909.85 -417.722 910.301C-407.134 910.646 -396.702 911.478 -386.457 912.863C-337.608 919.48 -290.036 935.968 -242.389 952.655L-239.986 953.496C-193.159 969.898 -146.237 986.333 -98.0447 993.531C-46.5516 1001.21 4.7787 1005.22 56.0301 1006.91Z" fill="black"/>
<path d="M-18.6412 1023C-16.4888 1022.7 -14.3407 1022.39 -12.1969 1022.07C-40.4271 1020.48 -68.5766 1018.17 -96.6174 1014.94C-145.437 1009.31 -193.681 995.49 -242.002 981.645L-242.456 981.515C-244.467 980.939 -246.478 980.363 -248.49 979.787C-284.989 969.342 -321.548 959.094 -358.403 952.592C-357.37 953.223 -356.333 953.852 -355.295 954.477C-319.654 960.984 -284.256 970.911 -248.85 981.043C-246.675 981.665 -244.501 982.288 -242.326 982.911C-194.035 996.748 -145.696 1010.6 -96.7672 1016.24C-70.8093 1019.23 -44.7597 1021.43 -18.6412 1023Z" fill="black"/>
</svg>
