<svg width="550" height="385" viewBox="0 0 550 385" fill="none" xmlns="http://www.w3.org/2000/svg">
<path d="M405.728 375.022C412.627 376.176 419.521 377.351 426.414 378.526C432.272 379.524 438.128 380.522 443.988 381.508C446.469 381.925 448.95 382.34 451.431 382.752C458.786 383.657 466.19 384.408 473.638 385C463.814 383.482 454.008 381.869 444.205 380.22C438.352 379.235 432.499 378.238 426.644 377.24L426.641 377.239C413.537 375.006 400.422 372.771 387.266 370.675C393.377 372.234 399.532 373.683 405.728 375.022Z" fill="black"/>
<path d="M291.672 335.841C292.913 336.439 294.156 337.032 295.402 337.62C302.623 338.506 309.852 339.344 317.089 340.126C354.601 344.19 391.004 351.976 427.383 359.756L427.392 359.758C433.278 361.017 439.163 362.276 445.051 363.519C487.327 372.44 529.791 380.537 574.051 381.923C577.144 382.021 580.235 382.098 583.323 382.155C586.165 381.778 589 381.379 591.827 380.957C585.922 380.914 580.011 380.804 574.093 380.617C529.957 379.235 487.59 371.16 445.321 362.24C439.436 360.998 433.553 359.74 427.666 358.481C391.291 350.701 354.814 342.899 317.23 338.827C308.699 337.905 300.181 336.905 291.672 335.841Z" fill="black"/>
<path d="M236.812 305.141C237.658 305.685 238.507 306.227 239.356 306.766C264.231 309.792 288.983 312.932 313.528 316.163C352.954 321.351 390.734 331.649 428.476 341.938L428.478 341.938C434.602 343.608 440.725 345.277 446.854 346.924C490.738 358.716 534.907 369.367 581.773 370.773C605.821 371.494 629.569 370.251 653.149 367.922C655.562 367.252 657.969 366.565 660.368 365.861C634.414 368.667 608.293 370.261 581.812 369.467C535.11 368.066 491.068 357.452 447.194 345.662C441.073 344.017 434.954 342.349 428.833 340.68C391.094 330.393 353.22 320.068 313.698 314.868C288.261 311.519 262.601 308.268 236.812 305.141Z" fill="black"/>
<path d="M200.98 279.896C201.6 280.374 202.221 280.85 202.844 281.324C238.754 283.642 274.408 286.816 309.425 291.575C352.611 297.446 393.242 311.454 433.891 325.467L433.898 325.47C439.051 327.246 444.203 329.022 449.362 330.782C495.192 346.419 541.44 360.747 591.638 362.023C634.281 363.097 675.121 355.586 715.559 346.168C717.853 345.198 720.137 344.212 722.414 343.21C679.657 353.392 636.657 361.85 591.671 360.717C541.691 359.446 495.609 345.18 449.784 329.546C444.627 327.786 439.474 326.009 434.318 324.232C393.683 310.223 352.924 296.17 309.601 290.28C273.925 285.432 237.579 282.227 200.98 279.896Z" fill="black"/>
<path d="M173.427 257.121C173.91 257.549 174.394 257.977 174.879 258.404C218.941 257.69 262.612 259.159 304.784 266.428C349.48 274.119 391.273 291.428 433.075 308.741L433.081 308.744C439.458 311.385 445.834 314.026 452.221 316.633C500.45 336.317 549.253 354.046 602.911 354.935C652.035 355.749 697.334 341.988 742.166 326.443C748.456 324.262 754.736 322.046 761.016 319.83C767.622 317.499 774.228 315.168 780.845 312.878C782.575 311.834 784.299 310.78 786.015 309.717C777.509 312.624 769.032 315.615 760.563 318.604L760.56 318.605C754.285 320.819 748.014 323.032 741.737 325.208C696.918 340.749 651.808 354.438 602.932 353.628C549.54 352.744 500.934 335.104 452.715 315.423C446.337 312.82 439.966 310.181 433.592 307.541L433.589 307.54C391.798 290.23 349.857 272.858 305.006 265.141C262.267 257.773 218.014 256.352 173.427 257.121Z" fill="black"/>
<path d="M152.562 237.571C152.96 237.965 153.359 238.359 153.758 238.752C203.22 233.221 252.405 231.041 299.885 240.986C345.908 250.608 389.083 271.407 432.309 292.231C439.993 295.933 447.68 299.636 455.384 303.277C506.384 327.379 558.14 348.75 615.183 348.954C665.151 349.139 709.536 331.24 753.206 311.041C759.622 308.074 766.021 305.057 772.42 302.041C793.739 291.992 815.057 281.942 836.966 273.715C838.03 272.862 839.091 272.005 840.148 271.144C816.877 279.638 794.326 290.269 771.838 300.87C765.444 303.884 759.056 306.896 752.657 309.855C709.003 330.047 664.845 347.831 615.188 347.647C558.458 347.445 506.931 326.192 455.942 302.095C448.258 298.464 440.586 294.768 432.91 291.069L432.906 291.068C389.685 270.245 346.345 249.365 300.153 239.707C252.135 229.649 202.423 231.949 152.562 237.571Z" fill="black"/>
<path d="M135.846 220.232C136.188 220.603 136.531 220.975 136.874 221.345C189.723 209.889 242.516 202.555 294.878 215.359C342.577 227.023 387.527 251.268 432.598 275.578C441.288 280.265 449.982 284.955 458.701 289.557C512.6 318.006 567.432 343.101 627.853 343.342C678.542 343.546 722.182 321.353 764.785 296.187C771.494 292.224 778.177 288.188 784.857 284.154C815.601 265.586 846.296 247.047 879.31 235.786C879.996 235.099 880.681 234.411 881.364 233.72C847.241 244.944 815.641 264.032 784.142 283.058L784.139 283.06C777.469 287.089 770.804 291.115 764.12 295.063C721.532 320.219 678.161 342.238 627.858 342.035C567.784 341.796 513.201 316.846 459.312 288.402C450.618 283.813 441.941 279.133 433.262 274.451L433.259 274.449C388.189 250.138 343.066 225.797 295.188 214.09C242.342 201.168 189.119 208.655 136.051 220.187C135.983 220.202 135.914 220.217 135.846 220.232Z" fill="black"/>
<path d="M121.907 204.45C122.211 204.809 122.516 205.168 122.821 205.526C126.089 204.453 129.356 203.396 132.624 202.361C184.146 186.032 235.836 174.925 289.872 189.843C338.911 203.389 385.622 231.021 432.576 258.796C442.341 264.573 452.116 270.355 461.925 276.019C518.847 308.883 576.874 337.712 640.305 337.619C691.804 337.545 734.729 311.083 776.263 281.073C783.088 276.142 789.874 271.116 796.655 266.094L796.658 266.091C831.199 240.51 865.594 215.036 904.175 202.757C906.565 201.997 908.964 201.292 911.369 200.64C911.848 200.064 912.326 199.487 912.803 198.909C909.783 199.692 906.775 200.559 903.778 201.513C864.97 213.864 830.367 239.495 795.83 265.077C789.06 270.091 782.293 275.104 775.497 280.014C733.973 310.017 691.348 336.239 640.303 336.313C577.254 336.405 519.495 307.749 462.579 274.887C452.8 269.241 443.045 263.47 433.293 257.701C386.338 229.922 339.444 202.181 290.22 188.583C235.802 173.56 183.804 184.77 132.229 201.115C128.786 202.206 125.346 203.32 121.907 204.45Z" fill="black"/>
<path d="M109.893 189.74C110.171 190.093 110.45 190.447 110.729 190.8C116.764 188.125 122.795 185.499 128.833 182.967C178.661 162.067 228.967 147.504 285.128 164.548C335.314 179.778 383.733 210.574 432.544 241.619L432.547 241.621C443.324 248.476 454.121 255.343 464.96 262.057C524.829 299.143 585.968 331.547 652.056 331.047C704.38 330.658 746.652 300.081 787.17 265.469C794.008 259.627 800.794 253.673 807.571 247.726C820.898 236.032 834.19 224.368 847.777 213.654C868.262 197.502 889.355 183.56 912.111 175.02C920.046 172.041 928.086 169.809 936.215 168.231C936.576 167.721 936.935 167.209 937.294 166.697C928.645 168.299 920.091 170.628 911.652 173.797C888.714 182.405 867.498 196.44 846.967 212.629C833.354 223.363 820.015 235.068 806.671 246.777L806.663 246.784C799.895 252.722 793.127 258.661 786.32 264.476C745.803 299.088 703.853 329.355 652.046 329.741C586.371 330.238 525.519 298.033 465.649 260.947C454.845 254.254 444.072 247.402 433.309 240.556L433.306 240.554C384.49 209.503 335.882 178.585 285.508 163.298C228.894 146.117 178.226 160.832 128.327 181.762C122.173 184.343 116.032 187.018 109.893 189.74Z" fill="black"/>
<path d="M99.3906 175.915C99.6504 176.269 99.9105 176.623 100.171 176.976C108.525 172.336 116.858 167.762 125.22 163.409C173.317 138.368 222.244 120.675 280.831 139.697C332.089 156.345 382.113 190.001 432.678 224.02L432.683 224.024C444.302 231.841 455.95 239.678 467.648 247.331C530.186 288.25 594.141 323.925 662.55 322.999C715.77 322.275 757.412 287.946 796.959 249.185C803.729 242.55 810.435 235.787 817.129 229.037L817.132 229.033C830.02 216.037 842.861 203.088 856.021 191.186C876.008 173.11 896.665 157.514 919.193 147.947C931.169 142.866 943.404 139.766 955.838 138.269C956.123 137.797 956.408 137.326 956.693 136.853C943.801 138.316 931.107 141.473 918.681 146.745C895.958 156.395 875.174 172.102 855.144 190.217C841.958 202.142 829.07 215.139 816.165 228.153C809.477 234.897 802.785 241.645 796.044 248.252C756.486 287.023 715.181 320.976 662.533 321.693C594.562 322.613 530.91 287.162 468.364 246.238C456.703 238.609 445.08 230.788 433.475 222.98C382.903 188.953 332.685 155.165 281.235 138.455C222.134 119.265 172.802 137.163 124.616 162.25C116.191 166.636 107.797 171.245 99.3906 175.915Z" fill="black"/>
<path d="M90.0206 162.712C90.2672 163.071 90.5142 163.43 90.7617 163.788C91.09 163.573 91.4183 163.357 91.7465 163.142L91.7487 163.14C101.832 156.522 111.846 149.949 121.923 143.754C168.392 115.186 216.036 94.7668 277.018 115.475C326.418 132.236 374.482 162.432 420.052 191.061C431.816 198.452 443.414 205.738 454.825 212.662C465.915 219.396 477.863 227.188 490.44 235.389C511.357 249.03 534.014 263.804 557.35 276.735C594.741 297.455 634.079 313.569 671.234 312.883C725.53 311.881 766.519 274.347 805.111 232.079C811.714 224.848 818.244 217.48 824.76 210.129L824.762 210.126C837.322 195.956 849.83 181.843 862.702 168.881C882.242 149.203 902.554 132.246 925.011 121.874C940.142 114.887 955.664 111.42 971.462 110.606C971.696 110.159 971.93 109.711 972.164 109.263C955.955 110.01 940.01 113.508 924.462 120.688C901.798 131.156 881.356 148.24 861.774 167.961C848.878 180.948 836.325 195.11 823.748 209.299C817.237 216.645 810.72 223.998 804.146 231.198C765.535 273.486 724.889 310.586 671.21 311.577C634.414 312.256 595.329 296.287 557.983 275.593C534.671 262.674 512.114 247.963 491.237 234.348C478.648 226.137 466.669 218.326 455.504 211.545C444.134 204.647 432.565 197.378 420.819 189.998C375.237 161.36 327 131.054 277.439 114.238C215.893 93.3381 167.809 114.01 121.238 142.641C111.143 148.847 101.111 155.432 91.0291 162.05C90.6932 162.27 90.3567 162.491 90.0206 162.712Z" fill="black"/>
<path d="M81.5336 149.943C81.7697 150.31 82.0063 150.677 82.2434 151.043C83.3592 150.224 84.4733 149.404 85.586 148.584C87.6187 147.085 89.6466 145.586 91.671 144.089C100.907 137.26 110.073 130.483 119.308 124.064C164.327 92.7719 210.806 70.1114 273.985 91.9928C324.528 109.503 373.883 141.424 420.435 171.533L420.439 171.535C432.694 179.461 444.755 187.262 456.592 194.641C467.915 201.705 480.154 209.928 493.081 218.613L493.083 218.614C497.199 221.38 501.386 224.193 505.635 227.03C523.218 238.771 541.858 250.921 560.994 261.857C599.248 283.716 639.578 300.777 677.516 299.961C733.103 298.772 773.382 258.788 811.026 213.861C817.352 206.312 823.601 198.624 829.838 190.953L829.84 190.951C842.192 175.756 854.495 160.623 867.238 146.746C886.406 125.871 906.504 107.915 929.121 96.9848C946.993 88.3516 965.311 84.9267 983.917 85.1866C984.114 84.7545 984.31 84.322 984.506 83.8892C965.532 83.5478 946.819 86.9844 928.552 95.8086C905.716 106.845 885.485 124.942 866.275 145.862C853.506 159.768 841.159 174.955 828.79 190.169C822.559 197.833 816.322 205.505 810.024 213.022C772.358 257.976 732.423 297.48 677.488 298.655C639.922 299.463 599.854 282.558 561.643 260.723C542.548 249.811 523.939 237.681 506.361 225.944C502.12 223.112 497.939 220.303 493.826 217.539L493.823 217.538C480.892 208.85 468.628 200.61 457.284 193.532C445.491 186.181 433.461 178.4 421.226 170.486L421.221 170.483C374.656 140.365 325.122 108.326 274.413 90.7583C210.632 68.6683 163.692 91.6222 118.561 122.992C109.309 129.423 100.126 136.213 90.889 143.042L90.862 143.062C88.8476 144.551 86.8307 146.042 84.81 147.532C83.7191 148.336 82.627 149.14 81.5336 149.943Z" fill="black"/>
<path d="M73.6634 137.315C73.8898 137.69 74.1167 138.065 74.344 138.44C80.4856 133.679 86.5508 128.841 92.5819 124.031C100.93 117.373 109.212 110.767 117.541 104.487C139.453 87.9652 161.764 73.6329 186.724 66.2263C211.665 58.8255 239.287 58.3291 271.843 69.5462C322.98 87.1733 373.215 120.352 420.257 151.422L420.261 151.424C432.937 159.796 445.38 168.015 457.548 175.735C469.029 183.016 481.42 191.486 494.498 200.426L494.514 200.437C498.626 203.248 502.806 206.105 507.048 208.987C524.776 221.032 543.562 233.491 562.865 244.701C601.452 267.11 642.198 284.588 680.803 283.753C738.027 282.491 777.522 240.997 814.21 194.463C820.136 186.948 825.987 179.302 831.829 171.668L831.832 171.664C844.106 155.626 856.339 139.641 869.138 125.024C888.022 103.457 908.071 84.9482 931.153 73.7622C951.664 63.8201 972.551 60.7986 993.657 62.3861C993.826 61.9624 993.995 61.5385 994.163 61.1143C972.728 59.4424 951.471 62.4612 930.583 72.5866C907.269 83.8848 887.083 102.545 868.154 124.163C855.328 138.812 843.049 154.856 830.761 170.913C824.924 178.54 819.084 186.17 813.183 193.655C776.474 240.215 737.324 281.199 680.775 282.447C642.547 283.274 602.064 265.955 563.522 243.571C544.26 232.385 525.506 219.948 507.782 207.906C503.555 205.034 499.385 202.184 495.281 199.378L495.251 199.358L495.25 199.357C482.167 190.414 469.751 181.926 458.248 174.632C446.129 166.942 433.717 158.744 421.063 150.386L421.061 150.385C374.003 119.303 323.58 85.9979 272.27 68.311C239.462 57.0071 211.56 57.4937 186.352 64.9738C161.164 72.4482 138.702 86.8949 116.754 103.444C108.362 109.771 100.057 116.396 91.7022 123.06C85.7314 127.823 79.7341 132.607 73.6634 137.315Z" fill="black"/>
<path d="M65.5544 123.386C65.7694 123.769 65.9849 124.152 66.2008 124.534C74.903 117.991 83.4252 111.218 91.8804 104.498C100.303 97.8043 108.658 91.1633 117.06 84.8553C138.99 68.3889 161.31 54.1234 186.229 46.7904C211.128 39.4632 238.657 39.0472 271.028 50.3467C322.237 68.2183 372.548 100.878 419.883 131.605C432.798 139.989 445.492 148.229 457.921 155.985C469.721 163.352 482.49 171.973 495.982 181.083L495.985 181.085L496.008 181.1C499.821 183.675 503.692 186.288 507.614 188.923C525.42 200.883 544.287 213.28 563.656 224.465C602.375 246.822 643.193 264.391 681.648 263.89C739.063 263.129 778.319 221.396 814.716 174.532C820.59 166.969 826.388 159.274 832.177 151.59L832.182 151.584C844.359 135.423 856.497 119.313 869.217 104.596C887.976 82.8917 907.934 64.2999 931.005 53.161C954.111 41.9993 977.531 39.5236 1001.12 42.4917C1001.26 42.0716 1001.41 41.6513 1001.56 41.2306C977.678 38.1825 953.907 40.6465 930.436 51.9846C907.129 63.2376 887.032 81.9855 868.227 103.742C855.48 118.491 843.297 134.661 831.105 150.842L831.093 150.857C825.312 158.529 819.53 166.204 813.684 173.731C777.265 220.624 738.357 261.832 681.631 262.584C643.547 263.08 602.988 245.667 564.31 223.333C544.981 212.172 526.144 199.796 508.344 187.839C504.42 185.203 500.547 182.588 496.729 180.01L496.726 180.009C483.231 170.897 470.435 162.257 458.614 154.877C446.232 147.15 433.571 138.931 420.677 130.561L420.676 130.56C373.325 99.8208 322.833 67.0423 271.459 49.1133C238.836 37.7256 211.026 38.1311 185.86 45.5371C160.713 52.9374 138.241 67.317 116.274 83.8107C107.809 90.1667 99.4306 96.8266 91.0017 103.526C82.614 110.194 74.1763 116.9 65.5544 123.386Z" fill="black"/>
<path d="M57.2319 107.949C57.4335 108.339 57.6356 108.728 57.8382 109.118C66.2145 103.397 74.4295 97.4537 82.5678 91.5002C84.5335 90.0622 86.4947 88.6236 88.4526 87.1875C97.7572 80.3625 106.987 73.5921 116.285 67.1867C161.286 36.1851 207.681 13.8646 270.584 35.948C321.888 53.9557 372.05 84.4209 419.954 113.516L419.956 113.517C433.165 121.539 446.202 129.457 459.045 136.982C471.681 144.385 485.496 153.232 500.141 162.611C503.171 164.552 506.237 166.515 509.336 168.493C527.401 180.027 546.56 192.054 566.168 202.946C605.363 224.72 646.446 242.017 684.266 241.739C740.393 241.312 779.337 199.999 815.409 153.515C821.428 145.76 827.365 137.861 833.291 129.979C845.155 114.196 856.971 98.4776 869.296 84.0937C887.767 62.5363 907.311 44.0648 929.717 33.0006C955.274 20.3789 981.287 18.5325 1007.52 23.0149C1007.65 22.5952 1007.78 22.1753 1007.91 21.7552C981.408 17.2013 955.053 19.0304 929.138 31.8292C906.497 43.0093 886.816 61.6375 868.303 83.2439C855.952 97.6582 844.091 113.437 832.211 129.24C826.291 137.114 820.367 144.994 814.376 152.715C778.278 199.232 739.687 240.01 684.257 240.432C646.795 240.708 605.965 223.559 566.803 201.804C547.232 190.932 528.102 178.924 510.039 167.392C506.948 165.419 503.887 163.458 500.861 161.52L500.855 161.517C486.209 152.137 472.367 143.273 459.706 135.854C446.906 128.355 433.897 120.454 420.706 112.442L420.704 112.441C372.784 83.3358 322.464 52.7731 271.017 34.7153C207.514 12.4211 160.656 35.0319 115.543 66.111C106.228 72.5288 96.9782 79.3133 87.6726 86.139C85.7165 87.5738 83.7579 89.0105 81.7957 90.4459C73.7014 96.3672 65.5432 102.27 57.2319 107.949Z" fill="black"/>
<path d="M49.2087 91.7447C49.3959 92.1402 49.5836 92.5353 49.7717 92.9303C59.9834 86.8497 69.9842 80.4503 79.8914 74.0509C81.4103 73.0699 82.9268 72.0889 84.4417 71.109C94.5472 64.5721 104.573 58.0866 114.66 51.9827C161.043 23.9152 208.552 4.01593 270.001 24.7637C321.789 42.2685 372.429 70.2912 421.345 97.3599C434.679 104.738 447.885 112.046 460.951 119.051C474.452 126.287 489.321 135.089 505.106 144.433C507.463 145.829 509.841 147.236 512.237 148.653C530.675 159.548 550.221 170.95 570.156 181.283C610.004 201.938 651.499 218.371 688.888 217.888C743.74 217.201 781.676 176.608 816.737 130.941C822.667 123.216 828.514 115.348 834.348 107.498L834.349 107.496C845.793 92.0961 857.188 76.762 869.07 62.7063C886.999 41.4952 905.967 23.2845 927.728 12.2858C955.557 -1.77499 984.157 -2.75641 1013.11 3.4403C1013.22 3.0188 1013.33 2.59709 1013.44 2.17516C984.255 -4.08061 955.322 -3.12033 927.138 11.1198C905.145 22.236 886.042 40.6037 868.071 61.8631C856.164 75.9487 844.724 91.3429 833.264 106.765C827.436 114.607 821.602 122.457 815.7 130.145C780.613 175.845 743.027 215.903 688.871 216.582C651.827 217.06 610.578 200.763 570.758 180.123C550.858 169.809 531.339 158.422 512.903 147.528C510.521 146.121 508.158 144.722 505.814 143.334L505.775 143.311C489.994 133.969 475.097 125.15 461.569 117.899C448.539 110.914 435.357 103.62 422.039 96.2495C373.11 69.1726 322.331 41.0725 270.419 23.5259C208.417 2.59127 160.475 22.7314 113.983 50.8651C103.878 56.9798 93.8345 63.4768 83.7306 70.0126C82.2158 70.9925 80.6997 71.9732 79.1819 72.9536C69.3096 79.3304 59.3604 85.6968 49.2087 91.7447Z" fill="black"/>
<path d="M41.482 74.6151C41.6541 75.0161 41.8267 75.4168 41.9998 75.8173C54.8091 69.4524 67.3416 62.6474 79.7708 55.8986C90.657 49.9875 101.464 44.1196 112.308 38.628C160.339 14.305 209.2 -2.71547 269.35 16.0187C321.718 32.3333 373.072 57.5319 423.132 82.0953C436.681 88.7437 450.136 95.3457 463.49 101.712C478.036 108.64 494.128 117.217 511.198 126.314L511.2 126.315L511.373 126.407C512.942 127.243 514.519 128.084 516.104 128.928C534.992 138.986 554.98 149.536 575.29 159.078C615.889 178.153 657.87 193.249 695.028 192.303C748.621 190.91 785.001 151.334 818.527 106.888C824.175 99.3999 829.74 91.7756 835.295 84.1663C846.257 69.149 857.176 54.1905 868.602 40.4554C885.808 19.7719 904.096 1.95103 925.258 -8.98244C955.105 -24.4014 986.233 -24.3211 1017.89 -16.298C1017.99 -16.7234 1018.08 -17.149 1018.18 -17.5748C986.315 -25.6411 954.859 -25.7449 924.658 -10.1431C903.266 0.90917 884.845 18.8867 867.597 39.6202C856.147 53.3848 845.183 68.403 834.206 83.441L834.204 83.4433C828.656 91.044 823.104 98.6498 817.483 106.101C783.936 150.576 747.897 189.621 694.994 190.997C658.163 191.934 616.421 176.959 575.846 157.896C555.569 148.369 535.607 137.833 516.718 127.774C515.073 126.899 513.436 126.026 511.808 125.158C494.745 116.065 478.627 107.475 464.053 100.533C450.732 94.1822 437.3 87.5914 423.766 80.9503L423.76 80.9471C373.689 56.3775 322.214 31.1191 269.739 14.7713C209.098 -4.11578 159.849 13.0884 111.717 37.4625C100.801 42.9908 89.9467 48.8837 79.0316 54.8098C66.654 61.5299 54.1972 68.293 41.482 74.6151Z" fill="black"/>
<path d="M34.2045 56.7331C34.3611 57.1396 34.5181 57.5459 34.6757 57.9519C48.0503 52.6807 61.1988 47.02 74.2561 41.3986L74.2585 41.3975C85.9662 36.3572 97.6006 31.3483 109.259 26.6801C159.167 6.69605 209.608 -7.10372 268.521 9.15727C321.621 23.7929 373.888 45.8614 425.247 67.5467L425.254 67.5498C439.012 73.3586 452.704 79.1399 466.33 84.7434C481.998 91.185 499.365 99.3031 517.747 107.896L520.467 109.167C539.85 118.226 560.307 127.739 581.02 136.301C622.427 153.419 664.948 166.779 702.059 165.092C754.556 162.714 788.918 124.344 820.466 81.4202C825.613 74.4176 830.684 67.2958 835.747 60.1843L835.749 60.1809C846.232 45.4576 856.682 30.7789 867.713 17.296C884.063 -2.68897 901.623 -19.9626 922.305 -30.7295C954.031 -47.2513 987.599 -45.9309 1021.87 -36.0577C1021.95 -36.4886 1022.02 -36.9197 1022.1 -37.351C987.668 -47.2488 953.781 -48.5939 921.701 -31.8882C900.789 -21.0016 883.095 -3.57065 866.701 16.4689C855.642 29.9861 845.146 44.7284 834.648 59.4736L834.643 59.4799C829.588 66.5804 824.532 73.6815 819.413 80.6467C787.85 123.589 753.819 161.44 702 163.787C665.195 165.46 622.903 152.202 581.52 135.094C560.838 126.544 540.406 117.043 521.02 107.984L518.289 106.707L518.287 106.706C499.916 98.1185 482.525 89.9886 466.827 83.5351C453.225 77.9414 439.548 72.1663 425.799 66.361C374.43 44.6711 322.06 22.5585 268.869 7.89782C209.539 -8.47816 158.767 5.44882 108.773 25.4673C97.0466 30.1627 85.3684 35.19 73.6337 40.2416C60.6077 45.8491 47.5122 51.4866 34.2045 56.7331Z" fill="black"/>
<path d="M27.5369 38.382C27.678 38.7946 27.8195 39.207 27.9616 39.6192C41.4687 35.6823 54.8274 31.448 68.1205 27.2345C80.6589 23.2603 93.14 19.3042 105.631 15.6339C157.586 0.367893 209.814 -9.99537 267.586 3.51508C321.51 16.1141 374.806 34.7972 427.462 53.2564C441.424 58.1506 455.34 63.0292 469.212 67.7744C486.219 73.5879 505.066 81.0923 524.946 89.008L524.99 89.0255C544.88 96.9452 565.797 105.273 586.904 112.713C629.1 127.586 672.141 138.944 709.352 136.368C762.108 132.726 793.359 94.9995 821.969 53.5253C825.789 47.9885 829.56 42.386 833.33 36.7864C843.703 21.379 854.06 5.99401 865.356 -7.93563C880.748 -26.9166 897.832 -43.1249 918.953 -52.9048C953.682 -68.9932 989.176 -66.3298 1024.94 -55.1082C1025 -55.5453 1025.06 -55.9826 1025.13 -56.4201C989.237 -67.6471 953.458 -70.3293 918.404 -54.0903C897.026 -44.1919 879.793 -27.814 864.34 -8.7583C853.004 5.22059 842.598 20.6784 832.215 36.1019C828.452 41.691 824.693 47.2756 820.893 52.7836C792.276 94.2681 761.34 131.47 709.262 135.065C672.336 137.621 629.512 126.346 587.338 111.481C566.26 104.051 545.367 95.733 525.474 87.8118L525.41 87.7863C505.546 79.877 486.673 72.3623 469.635 66.5382C455.785 61.8005 441.883 56.927 427.931 52.0359C375.266 33.5734 321.884 14.8596 267.884 2.24284C209.777 -11.3458 157.283 -0.904772 105.263 14.3804C92.7135 18.0677 80.1964 22.035 67.6357 26.0161C54.3482 30.2276 41.0119 34.4545 27.5369 38.382Z" fill="black"/>
<path d="M21.4646 19.4177C21.5898 19.8369 21.7156 20.2559 21.8419 20.6747C34.6807 18.0884 47.4776 15.3071 60.2544 12.5301C71.5556 10.0739 82.8416 7.62092 94.1267 5.30946C145.979 -5.31104 197.864 -12.9596 251.452 -4.37692C316.528 6.03306 380.667 24.3612 444.456 42.5897C468.176 49.3679 491.848 56.1323 515.502 62.4708C529.375 66.1818 544.325 70.8279 559.898 75.6682L562.518 76.4821C579.03 81.612 596.205 86.9104 613.485 91.4947C648.031 100.66 683.065 106.992 714.147 103.396C768.117 97.1568 797.612 60.1438 825.104 20.4182C827.678 16.6985 830.234 12.9555 832.792 9.21153L832.8 9.19933C857.6 -27.1102 882.466 -63.5168 924.161 -79.7666C957.504 -92.7762 992.257 -88.3812 1027.5 -76.2078C1027.54 -76.6535 1027.58 -77.0993 1027.63 -77.5454C992.314 -89.7013 957.321 -94.1072 923.686 -80.9838C881.591 -64.5784 856.493 -27.8209 831.737 8.43567C829.17 12.1952 826.607 15.9494 824.029 19.675C796.537 59.4007 767.335 95.9319 713.996 102.098C683.168 105.665 648.331 99.3879 613.82 90.2319C596.57 85.6555 579.42 80.3649 562.906 75.2345L560.28 74.4184C544.713 69.5805 529.74 64.9269 515.84 61.2087C492.233 54.8829 468.589 48.1265 444.885 41.3528C381.071 23.1171 316.818 4.75632 251.659 -5.66699C197.827 -14.2889 145.747 -6.59729 93.8642 4.02953C82.5444 6.3481 71.236 8.80579 59.9208 11.2649C47.1199 14.047 34.3091 16.8312 21.4646 19.4177Z" fill="black"/>
<path d="M16.3293 0.97993C16.4396 1.40643 16.5503 1.83274 16.6616 2.25881C29.1252 0.946038 41.577 -0.472691 54.0211 -1.89052C65.8353 -3.2366 77.6439 -4.58204 89.4474 -5.83507C142.866 -11.5059 196.237 -15.2921 249.999 -8.7667C315.89 -0.760435 381.238 13.0525 446.402 26.8269C470.453 31.9107 494.479 36.9893 518.499 41.7687C533.628 44.7745 549.863 48.71 566.696 52.7966L567.165 52.9105C583.847 56.9607 601.108 61.1515 618.429 64.7181C653.386 71.9163 688.65 76.5875 719.995 72.419C771.979 65.5112 799.853 30.4184 825.792 -7.11948C828.172 -10.5635 830.536 -14.0276 832.9 -17.4926C856.345 -51.8577 879.852 -86.3117 920.064 -102.178C954.768 -115.87 991.607 -110.247 1029.13 -96.4806C1029.15 -96.9348 1029.18 -97.3891 1029.21 -97.8437C991.649 -111.572 954.58 -117.201 919.584 -103.393C878.977 -87.3711 855.242 -52.5717 831.837 -18.2567L831.834 -18.252C829.464 -14.777 827.097 -11.307 824.717 -7.86195C798.784 29.6673 771.194 64.2975 719.822 71.1239C688.703 75.2623 653.616 70.6298 618.693 63.4385C601.394 59.8764 584.152 55.6903 567.463 51.6384L567.004 51.527C550.177 47.4418 533.915 43.4994 518.754 40.4873C494.77 35.7149 470.766 30.641 446.728 25.5599L446.724 25.5591C381.541 11.7809 316.109 -2.04998 250.157 -10.0637C196.241 -16.6078 142.747 -12.8071 89.3093 -7.13428C77.4831 -5.87884 65.661 -4.53194 53.8377 -3.1849L53.8358 -3.18466C41.3371 -1.76064 28.837 -0.336488 16.3293 0.97993Z" fill="black"/>
<path d="M11.9694 -17.2678C12.0648 -16.8337 12.1607 -16.3997 12.2571 -15.9659C23.9109 -16.162 35.5649 -16.3941 47.2179 -16.6261H47.2197C59.705 -16.8747 72.1889 -17.1233 84.6698 -17.3276C139.359 -18.2229 194.002 -18.2684 248.509 -13.7485C315.332 -8.22354 381.889 1.03663 448.383 10.2881L448.386 10.2885C472.515 13.6456 496.635 17.0015 520.757 20.1773C536.376 22.2335 552.955 25.1016 570.04 28.1044C571.348 28.3344 572.659 28.5651 573.973 28.7963C589.813 31.5838 606.052 34.4414 622.312 36.8314C657.521 42.0071 692.885 45.0004 724.621 40.3342C774.58 32.9993 801.122 -0.00480531 825.826 -35.1979C828.039 -38.35 830.237 -41.5192 832.435 -44.6892C854.819 -76.966 877.26 -109.325 916.074 -124.625C951.899 -138.752 990.517 -132.012 1029.96 -116.891C1029.97 -117.355 1029.98 -117.818 1029.99 -118.281C990.541 -133.343 951.707 -140.081 915.594 -125.84C876.391 -110.387 853.724 -77.6924 831.379 -45.4622L831.365 -45.4418C829.164 -42.2671 826.966 -39.097 824.756 -35.9483C800.064 -0.772264 773.801 31.7932 724.431 39.0416C692.89 43.6791 657.681 40.7099 622.502 35.5388C606.261 33.1514 590.038 30.2968 574.194 27.5085L570.266 26.8177C553.184 23.8153 536.578 20.9424 520.928 18.882C496.826 15.7088 472.718 12.3546 448.596 8.99848C382.09 -0.254671 315.479 -9.52236 248.617 -15.0506C194.043 -19.5761 139.346 -19.5294 84.6484 -18.634C72.1638 -18.4296 59.6799 -18.181 47.1974 -17.9325L47.1761 -17.9321C35.4392 -17.6984 23.7033 -17.4647 11.9694 -17.2678Z" fill="black"/>
<path d="M8.33021 -35.3968C8.4106 -34.9552 8.49155 -34.5137 8.57307 -34.0724C24.0753 -33.1003 39.5766 -32.1116 55.078 -31.1228C119.01 -27.0447 182.943 -22.9665 246.945 -20.0598C315.139 -16.9592 383.249 -12.2068 451.362 -7.45411C474.888 -5.8126 498.414 -4.17107 521.944 -2.59756C540.532 -1.34905 560.129 0.834157 580.179 3.06777C594.821 4.69888 609.704 6.35684 624.611 7.69729C659.883 10.869 695.197 12.2505 727.397 7.21673C775.385 -0.266446 801.019 -31.04 824.928 -63.7586C827.025 -66.6283 829.108 -69.5125 831.192 -72.3972C852.901 -102.448 874.655 -132.561 912.154 -147.07C949.003 -161.348 989.055 -153.661 1030 -137.471C1029.99 -137.943 1029.98 -138.415 1029.97 -138.888C989.057 -154.999 948.808 -162.674 911.682 -148.289C873.803 -133.632 851.824 -103.199 830.152 -73.1901C828.06 -70.2943 825.972 -67.4025 823.872 -64.5292C799.981 -31.8351 774.621 -1.46963 727.195 5.92588C695.158 10.9342 659.973 9.5653 624.728 6.396C609.891 5.06182 595.026 3.40636 580.385 1.77586L580.381 1.77538C560.293 -0.461873 540.627 -2.65215 522.031 -3.90116C498.51 -5.47412 474.989 -7.11528 451.467 -8.75657C383.349 -13.5096 315.216 -18.2636 247.004 -21.365C183.004 -24.2716 119.106 -28.3477 55.1945 -32.4245L55.188 -32.4249L55.1779 -32.4256C39.5633 -33.4216 23.948 -34.4177 8.33021 -35.3968Z" fill="black"/>
<path d="M5.35624 -53.584C5.42127 -53.136 5.48688 -52.6881 5.55306 -52.2405C18.0568 -50.601 30.5515 -48.9077 43.0449 -47.2147L43.0579 -47.2129C53.9358 -45.7388 64.8128 -44.2647 75.6941 -42.8264C131.91 -35.3958 188.23 -28.921 245.306 -28.3298C306.724 -27.7145 368.143 -27.4602 429.56 -27.2058H429.565L429.614 -27.2056C460.306 -27.0784 490.998 -26.9514 521.688 -26.7791C542.434 -26.6628 564.067 -25.5932 586.032 -24.5071L586.035 -24.5069C598.907 -23.8704 611.893 -23.2283 624.882 -22.7692C660.008 -21.5274 695.105 -21.6268 727.805 -26.8242C773.948 -34.1765 799.22 -62.5768 822.896 -92.6906C824.935 -95.2842 826.962 -97.8899 828.989 -100.496C850.529 -128.185 872.096 -155.91 908.452 -169.404C946.32 -183.454 987.35 -175.058 1029.22 -158.165C1029.19 -158.646 1029.17 -159.128 1029.14 -159.609C987.323 -176.404 946.122 -184.774 907.997 -170.629C871.275 -156.999 849.483 -128.978 827.977 -101.325L827.951 -101.291C825.925 -98.6857 823.901 -96.0839 821.868 -93.4979C798.216 -63.414 773.213 -35.3825 727.6 -28.1145C695.028 -22.9375 660.033 -22.8338 624.928 -24.0749C611.981 -24.5326 599.013 -25.1736 586.148 -25.8096L586.143 -25.8099C564.154 -26.8969 542.464 -27.9692 521.696 -28.0857C490.987 -28.258 460.28 -28.3851 429.573 -28.5123H429.56C368.145 -28.7667 306.733 -29.021 245.319 -29.6363C188.327 -30.2266 132.074 -36.6921 75.8655 -44.1217C64.9899 -45.5592 54.1156 -47.0329 43.2379 -48.5071C30.6176 -50.2174 17.9927 -51.9283 5.35624 -53.584Z" fill="black"/>
<path d="M3.01171 -72.0918C3.06072 -71.6394 3.11031 -71.1872 3.16049 -70.7351C15.5858 -68.4245 27.9909 -66.0238 40.3924 -63.6238L40.3944 -63.6235C50.9479 -61.5811 61.4988 -59.5392 72.0574 -57.5538C128.563 -46.9289 185.265 -37.9275 243.627 -39.1844C278.597 -39.9451 314.33 -40.2945 350.463 -40.6478L350.468 -40.6478C475.62 -41.8715 605.577 -43.1421 725.291 -61.713C769.714 -68.618 795.279 -94.5301 819.428 -121.921C821.435 -124.198 823.433 -126.485 825.43 -128.772L825.449 -128.794C847.497 -154.037 869.552 -179.288 905.112 -191.477C944.055 -204.838 985.514 -196.022 1027.61 -178.86C1027.57 -179.35 1027.52 -179.841 1027.47 -180.331C985.449 -197.378 943.853 -206.15 904.688 -192.713C868.781 -180.404 846.503 -154.891 824.486 -129.679C822.474 -127.375 820.465 -125.074 818.447 -122.785C794.325 -95.4243 769.025 -69.8333 725.09 -63.0041C605.479 -44.4492 475.653 -43.1794 350.516 -41.9555C314.366 -41.6019 278.607 -41.2521 243.599 -40.4906C185.381 -39.2368 128.791 -48.2155 72.2991 -58.8379C61.7641 -60.8188 51.2318 -62.8571 40.6929 -64.8967L40.6664 -64.9018C28.1293 -67.3282 15.5829 -69.7562 3.01171 -72.0918Z" fill="black"/>
<path d="M1.31309 -91.016C1.34551 -90.5612 1.37852 -90.1065 1.41213 -89.652C13.8313 -86.7868 26.2246 -83.7893 38.6158 -80.7922C46.6427 -78.8508 54.6686 -76.9096 62.7001 -75.0047C117.07 -62.1093 171.675 -50.8851 228.377 -52.6232C390.239 -57.5714 561.292 -75.3328 721.694 -96.9325C765.072 -102.779 792.433 -127.875 818.872 -153.692C820.171 -154.96 821.467 -156.229 822.762 -157.498C847.881 -182.1 872.819 -206.525 910.663 -215.308C948.645 -224.136 986.869 -215.479 1025.13 -199.825C1025.06 -200.325 1024.99 -200.824 1024.92 -201.324C986.757 -216.851 948.471 -225.437 910.367 -216.581C872.156 -207.712 846.974 -183.045 821.906 -158.489C820.59 -157.2 819.275 -155.912 817.959 -154.627C791.52 -128.811 764.432 -104.011 721.52 -98.2273C561.141 -76.6308 390.137 -58.8754 228.337 -53.9291C171.821 -52.1967 117.363 -63.3828 63.002 -76.2759C54.9816 -78.1782 46.9629 -80.1177 38.94 -82.0583C26.4155 -85.0877 13.8802 -88.1197 1.31309 -91.016Z" fill="black"/>
<path d="M0.262438 -111.377C0.276927 -110.925 0.292 -110.472 0.307659 -110.019C13.843 -106.648 27.3312 -103.068 40.815 -99.4897C47.6782 -97.6684 54.5403 -95.8473 61.407 -94.0541C115.504 -79.9266 169.862 -67.5335 227.098 -70.4558C307.716 -74.5557 388.622 -85.8023 469.408 -98.2909C486.872 -100.991 504.329 -103.748 521.777 -106.505L521.781 -106.505C585.053 -116.5 648.197 -126.475 711.042 -133.592C753.706 -138.433 783.294 -160.532 812.124 -183.168C813.372 -184.147 814.618 -185.127 815.863 -186.107C843.432 -207.799 870.779 -229.316 908.824 -236.383C947.384 -243.54 984.847 -235.037 1021.89 -220.085C1021.8 -220.592 1021.71 -221.099 1021.61 -221.606C984.685 -236.42 947.203 -244.835 908.586 -237.668C870.216 -230.541 842.636 -208.838 815.116 -187.183C813.85 -186.186 812.584 -185.19 811.317 -184.195C782.485 -161.558 753.155 -139.685 710.895 -134.89C648.018 -127.769 584.836 -117.789 521.56 -107.793C504.115 -105.037 486.663 -102.28 469.208 -99.5821C388.43 -87.0945 307.579 -75.8569 227.031 -71.7606C170.014 -68.8495 115.827 -81.1927 61.7374 -95.3182C54.8793 -97.1092 48.0224 -98.929 41.1616 -100.75L41.1598 -100.75C27.5567 -104.36 13.9379 -107.975 0.262438 -111.377Z" fill="black"/>
<path d="M0.00770977 -131.826C0.00457051 -131.379 0.00200036 -130.933 0 -130.486C12.3879 -127.584 24.7549 -124.544 37.1211 -121.504C45.922 -119.34 54.7224 -117.176 63.5297 -115.063C118.234 -101.936 173.176 -90.7566 229.942 -93.6415C339.005 -99.1585 449.746 -115.287 559.458 -131.265C607.629 -138.281 655.601 -145.268 703.146 -151.315C745.736 -156.728 777.488 -178.767 808.612 -201.154C809.675 -201.919 810.737 -202.684 811.799 -203.449C841.861 -225.098 871.652 -246.552 910.519 -253.477C946.913 -259.96 982.6 -252.794 1017.98 -239.596C1017.86 -240.104 1017.75 -240.61 1017.64 -241.117C982.385 -254.175 946.709 -261.251 910.289 -254.763C871.123 -247.785 841.114 -226.172 811.107 -204.561C810.021 -203.778 808.935 -202.996 807.848 -202.215C776.711 -179.818 745.204 -157.978 702.981 -152.611C655.385 -146.557 607.384 -139.566 559.198 -132.548L559.196 -132.548C449.514 -116.574 338.875 -100.46 229.876 -94.9463C173.312 -92.0717 118.527 -103.21 63.8349 -116.333C55.0447 -118.443 46.2564 -120.603 37.4634 -122.765L37.4576 -122.767C24.9901 -125.832 12.5118 -128.9 0.00770977 -131.826Z" fill="black"/>
<path d="M0.671489 -154.753C0.649102 -154.314 0.627266 -153.874 0.60598 -153.435C13.1217 -151.015 25.6262 -148.49 38.1306 -145.965C50.4996 -143.468 62.8695 -140.97 75.2493 -138.574C132.829 -127.432 190.614 -118.502 249.564 -122.107C395.642 -131.043 546.15 -147.622 691.11 -167.486C733.467 -173.285 767.087 -193.286 800.062 -213.946C801.96 -215.135 803.855 -216.326 805.749 -217.516C836.81 -237.034 867.702 -256.446 905.334 -264.631C942.094 -272.613 978.316 -267.003 1014.27 -255.199C1014.15 -255.699 1014.02 -256.2 1013.89 -256.7C978.05 -268.372 941.84 -273.895 905.057 -265.908C867.193 -257.672 836.118 -238.144 805.097 -218.65C803.187 -217.45 801.278 -216.25 799.368 -215.053C766.389 -194.391 732.982 -174.537 690.933 -168.78C545.994 -148.919 395.521 -132.344 249.484 -123.411C190.708 -119.816 133.058 -128.718 75.4977 -139.857C63.1435 -142.248 50.792 -144.742 38.4343 -147.237L38.4289 -147.238C25.8528 -149.778 13.2697 -152.319 0.671489 -154.753Z" fill="black"/>
<path d="M2.46198 -178.842C2.41954 -178.408 2.37764 -177.974 2.33628 -177.54C15.283 -175.687 28.2287 -173.756 41.1775 -171.824L41.1851 -171.823C55.0851 -169.749 68.9885 -167.675 82.9002 -165.696C141.318 -157.388 199.859 -150.772 258.783 -153.008C397.38 -158.251 541.652 -164.971 679.282 -182.069C722.988 -187.494 759.915 -206.558 796.328 -226.238C798.328 -227.32 800.327 -228.403 802.325 -229.485C836.73 -248.127 870.978 -266.683 910.491 -274.338C944.576 -280.93 977.89 -277.049 1010.85 -267.996C1010.71 -268.486 1010.57 -268.976 1010.43 -269.465C977.588 -278.405 944.311 -282.21 910.243 -275.621C870.526 -267.926 836.113 -249.28 801.747 -230.658L801.737 -230.653C799.727 -229.563 797.717 -228.474 795.706 -227.388C759.284 -207.702 722.554 -188.757 679.12 -183.365C541.552 -166.275 397.329 -159.556 258.734 -154.314C199.932 -152.083 141.487 -158.684 83.0844 -166.99C69.1906 -168.966 55.2979 -171.038 41.4034 -173.111L41.3997 -173.112C28.4227 -175.048 15.4443 -176.984 2.46198 -178.842Z" fill="black"/>
<path d="M5.6539 -204.706C5.5894 -204.273 5.52544 -203.841 5.46201 -203.408C19.0472 -202.569 32.6396 -201.719 46.2383 -200.869L46.2461 -200.869C252.59 -187.971 460.371 -174.983 666.412 -195.874C712.079 -200.502 752.655 -218.204 792.821 -236.574C795.196 -237.66 797.569 -238.748 799.941 -239.837C837.731 -257.167 875.4 -274.442 916.977 -281.46C947.996 -286.698 978.17 -284.344 1007.94 -277.934C1007.79 -278.411 1007.64 -278.888 1007.5 -279.364C977.844 -285.683 947.73 -287.978 916.76 -282.748C875.005 -275.7 837.189 -258.357 799.434 -241.042L799.341 -240.999C796.987 -239.919 794.632 -238.839 792.277 -237.762C752.101 -219.388 711.706 -201.777 666.28 -197.174C460.356 -176.294 252.705 -189.274 46.3643 -202.171L46.3486 -202.172C32.7777 -203.02 19.2126 -203.868 5.6539 -204.706Z" fill="black"/>
<path d="M9.81253 -228.67C9.72651 -228.236 9.64103 -227.802 9.5561 -227.367C31.2343 -227.072 52.9114 -226.835 74.5874 -226.599H74.5906C144.259 -225.838 213.915 -225.078 283.557 -222.38C322.136 -220.887 361.344 -218.17 400.777 -215.437C485.057 -209.596 570.367 -203.684 652.762 -209.496C700.719 -212.882 745.308 -228.096 789.545 -244.508C794.569 -246.372 799.588 -248.251 804.607 -250.13C843.806 -264.806 882.995 -279.479 924.371 -286.815C951.632 -291.64 978.486 -290.873 1005.13 -286.879C1004.98 -287.342 1004.83 -287.805 1004.68 -288.267C978.137 -292.193 951.349 -292.917 924.142 -288.101C882.64 -280.743 843.334 -266.026 804.149 -251.354C799.128 -249.474 794.11 -247.595 789.09 -245.733C744.857 -229.323 700.422 -214.171 652.67 -210.8C570.366 -204.994 485.217 -210.896 400.986 -216.734L400.982 -216.734C361.527 -219.468 322.273 -222.189 283.607 -223.686C213.963 -226.384 144.259 -227.145 74.564 -227.906L74.5531 -227.906C52.9713 -228.142 31.3905 -228.377 9.81253 -228.67Z" fill="black"/>
<path d="M15.3959 -253.579C15.2851 -253.137 15.1748 -252.694 15.0651 -252.251C34.0572 -253.354 53.0618 -254.647 72.0673 -255.939L72.0768 -255.94C86.4362 -256.917 100.796 -257.893 115.152 -258.788C176.215 -262.595 237.216 -264.927 297.856 -259.523C338.941 -255.854 380.599 -249.524 422.46 -243.163C437.652 -240.854 452.87 -238.542 468.097 -236.351C525.264 -228.126 582.53 -221.621 638.848 -223.524C689.288 -225.226 738.007 -238.207 786.434 -252.699C794.058 -254.981 801.675 -257.3 809.29 -259.619C850.066 -272.033 890.796 -284.433 932.411 -291.021C956.229 -294.791 979.762 -294.958 1003.14 -292.891C1002.99 -293.342 1002.83 -293.793 1002.68 -294.243C979.405 -296.264 955.952 -296.07 932.207 -292.312C890.493 -285.708 849.663 -273.277 808.889 -260.862C801.279 -258.545 793.67 -256.229 786.059 -253.951C737.64 -239.461 689.061 -226.525 638.804 -224.83C582.606 -222.931 525.434 -229.421 468.283 -237.644C453.08 -239.832 437.876 -242.142 422.692 -244.449L422.69 -244.45C380.817 -250.812 339.1 -257.152 297.972 -260.825C237.229 -266.238 176.146 -263.9 115.07 -260.092C100.695 -259.196 86.3213 -258.218 71.9524 -257.241C53.0893 -255.958 34.2346 -254.676 15.3959 -253.579Z" fill="black"/>
<path d="M22.2518 -278.294C22.1126 -277.837 21.974 -277.38 21.8361 -276.922C41.3871 -279.46 61.0123 -282.368 80.6621 -285.28C96.2122 -287.584 111.778 -289.89 127.334 -292.017C189.695 -300.544 251.945 -306.199 312.669 -297.371C353.534 -291.418 394.502 -281.09 435.619 -270.725L435.622 -270.725C446.479 -267.988 457.346 -265.248 468.224 -262.586C520.278 -249.847 572.564 -238.884 625.044 -238.514C677.987 -238.144 730.838 -248.757 783.469 -261.191C794.321 -263.755 805.162 -266.396 815.993 -269.034C857.717 -279.198 899.288 -289.324 940.707 -294.859C961.11 -297.593 981.36 -298.28 1001.52 -297.609C1001.37 -298.05 1001.21 -298.49 1001.06 -298.931C981.002 -299.576 960.847 -298.876 940.533 -296.154C899.039 -290.609 857.381 -280.461 815.65 -270.296L815.647 -270.295C804.825 -267.659 793.999 -265.021 783.169 -262.463C730.551 -250.032 677.829 -239.452 625.053 -239.821C572.736 -240.189 520.576 -251.119 468.535 -263.855C457.681 -266.511 446.832 -269.246 435.987 -271.98L435.975 -271.983C394.85 -282.351 353.796 -292.7 312.858 -298.664C251.942 -307.52 189.54 -301.841 127.157 -293.311C111.566 -291.18 95.9793 -288.87 80.4164 -286.564C60.9768 -283.684 41.575 -280.81 22.2518 -278.294Z" fill="black"/>
<path d="M30.3692 -302.713C30.1971 -302.236 30.0257 -301.759 29.855 -301.281C49.5853 -305.161 69.515 -309.577 89.5272 -314.011L89.5297 -314.011C107.926 -318.087 126.392 -322.179 144.837 -325.884C210.695 -339.112 276.337 -347.429 337.915 -332.714C372.412 -324.473 407.204 -310.974 442.289 -297.361C452.496 -293.401 462.728 -289.431 472.984 -285.578C518.459 -268.495 564.388 -253.728 610.587 -252.47C663.796 -251.01 718.947 -259.115 773.975 -269.168C789.037 -271.92 804.087 -274.816 819.086 -277.703L819.097 -277.706C858.919 -285.371 898.384 -292.967 936.746 -297.59C957.981 -300.149 979.104 -301.269 1000.17 -301.437C1000.01 -301.872 999.855 -302.306 999.699 -302.74C978.747 -302.559 957.725 -301.434 936.589 -298.888C898.179 -294.258 858.648 -286.649 818.811 -278.982L818.807 -278.981L818.804 -278.98C803.811 -276.094 788.776 -273.2 773.74 -270.453C718.727 -260.403 663.688 -252.32 610.623 -253.776C564.658 -255.028 518.904 -269.724 473.444 -286.801C463.22 -290.641 453.01 -294.603 442.817 -298.558C407.717 -312.177 372.811 -325.721 338.219 -333.985C276.347 -348.77 210.466 -340.399 144.58 -327.165C126.074 -323.447 107.571 -319.348 89.1545 -315.267L89.1521 -315.267C69.4255 -310.896 49.7969 -306.547 30.3692 -302.713Z" fill="black"/>
<path d="M39.6847 -326.642C39.4749 -326.141 39.2659 -325.639 39.0577 -325.137C59.3375 -330.245 79.8667 -336.047 100.5 -341.879L100.502 -341.879C118.908 -347.081 137.398 -352.307 155.866 -357.084C222.755 -374.387 289.425 -385.836 351.307 -369.306C386.842 -359.814 420.548 -341.776 454.395 -323.662C460.484 -320.404 466.578 -317.143 472.688 -313.928C512.719 -292.869 553.414 -273.839 597.818 -270.968C653.312 -267.364 712.153 -272.955 770.978 -280.663C789.92 -283.145 808.857 -285.846 827.681 -288.531L827.683 -288.531C867.342 -294.188 906.5 -299.773 944.15 -303.089C962.202 -304.676 980.251 -305.791 998.301 -306.567C998.143 -306.996 997.983 -307.425 997.823 -307.854C979.892 -307.077 961.962 -305.967 944.035 -304.391C906.35 -301.071 867.131 -295.478 827.451 -289.818C808.636 -287.135 789.717 -284.436 770.809 -281.959C712.001 -274.253 653.264 -268.676 597.903 -272.271C553.801 -275.123 513.322 -294.028 473.297 -315.085C467.205 -318.289 461.123 -321.544 455.041 -324.8C421.199 -342.912 387.339 -361.034 351.645 -370.568C289.411 -387.192 222.453 -375.658 155.539 -358.349C137 -353.553 118.468 -348.316 100.037 -343.107C79.7552 -337.375 59.5958 -331.678 39.6847 -326.642Z" fill="black"/>
<path d="M50.8489 -351.444C50.5903 -350.908 50.3327 -350.372 50.0759 -349.835C54.6129 -351.245 59.1704 -352.696 63.7458 -354.179C78.5224 -358.966 93.4668 -364.077 108.51 -369.222L108.514 -369.224C127.579 -375.744 146.803 -382.319 166.047 -388.359C234.867 -409.961 303.374 -424.532 363.498 -404.722C397.062 -393.661 427.034 -373.093 457.104 -352.458C462.165 -348.985 467.229 -345.511 472.312 -342.079C507.561 -318.286 543.761 -296.591 586.604 -292.346C644.216 -286.654 706.285 -289.566 768.449 -294.703C791.627 -296.618 814.811 -298.842 837.784 -301.046L837.786 -301.046L837.79 -301.046C876.458 -304.756 914.529 -308.408 950.962 -310.434C965.924 -311.269 980.876 -312.177 995.822 -313.134C995.657 -313.56 995.493 -313.986 995.327 -314.412C980.516 -313.465 965.704 -312.565 950.89 -311.739C914.435 -309.711 876.31 -306.054 837.617 -302.343L837.61 -302.342C814.644 -300.139 791.478 -297.917 768.342 -296.005C706.196 -290.869 644.223 -287.966 586.733 -293.646C544.246 -297.855 508.285 -319.374 473.044 -343.162C467.978 -346.582 462.925 -350.049 457.871 -353.518C427.81 -374.149 397.663 -394.838 363.908 -405.963C303.351 -425.915 234.481 -411.209 165.656 -389.606C146.421 -383.568 127.145 -376.976 108.048 -370.445L108.042 -370.443C92.9953 -365.298 78.0599 -360.19 63.3427 -355.421C59.1613 -354.067 54.9961 -352.739 50.8489 -351.444Z" fill="black"/>
<path d="M64.0628 -376.978C63.7425 -376.399 63.4232 -375.82 63.1051 -375.24C65.4061 -376.074 67.7139 -376.919 70.028 -377.774C85.0912 -383.337 100.402 -389.297 115.857 -395.313C135.276 -402.873 154.923 -410.521 174.592 -417.581C245.202 -442.925 315.44 -460.424 373.962 -438.255C406.083 -426.086 432.63 -403.962 459.219 -381.803L459.223 -381.8C463.503 -378.234 467.783 -374.666 472.088 -371.139C503.102 -345.732 535.356 -322.462 577.464 -317.232C663.268 -306.565 759.164 -311.354 851.215 -315.952C887.311 -317.755 922.816 -319.528 956.889 -320.328C968.762 -320.606 980.573 -321.162 992.336 -321.935C992.162 -322.36 991.989 -322.785 991.815 -323.21C980.213 -322.453 968.565 -321.908 956.858 -321.634C922.707 -320.832 887.154 -319.057 851.031 -317.252L851.029 -317.252C759.021 -312.657 663.308 -307.877 577.625 -318.528C535.918 -323.709 503.916 -346.755 472.917 -372.15C468.627 -375.664 464.356 -379.224 460.08 -382.788C433.503 -404.94 406.768 -427.223 374.425 -439.477C315.406 -461.834 244.74 -444.148 174.15 -418.811C154.496 -411.756 134.797 -404.088 115.346 -396.517L115.342 -396.515L115.336 -396.513C99.8766 -390.495 84.5738 -384.538 69.5749 -378.999C67.7332 -378.319 65.8957 -377.645 64.0628 -376.978Z" fill="black"/>
<path d="M74.7053 -395.302C74.3595 -394.734 74.0148 -394.165 73.6711 -393.595C107.755 -404.562 140.954 -417.676 175.16 -431.189C183.145 -434.343 191.184 -437.519 199.303 -440.694C203.849 -442.474 208.461 -444.31 213.13 -446.169C237.403 -455.832 263.227 -466.113 289.403 -472.325C320.602 -479.73 352.218 -481.33 382.186 -469.236C413.532 -456.58 437.331 -434.033 461.1 -411.516C464.785 -408.024 468.47 -404.533 472.182 -401.08C499.799 -375.39 528.888 -351.837 570.881 -346.14C666.737 -333.102 772.611 -333.33 873.831 -333.547H873.835C903.655 -333.611 933.07 -333.674 961.706 -333.397C970.321 -333.314 978.852 -333.476 987.313 -333.846C987.126 -334.274 986.938 -334.702 986.75 -335.13C978.477 -334.776 970.138 -334.622 961.719 -334.704C933.044 -334.981 903.603 -334.918 873.766 -334.854C772.562 -334.637 666.814 -334.41 571.057 -347.435C529.494 -353.073 500.662 -376.371 473.073 -402.036C469.376 -405.475 465.701 -408.958 462.02 -412.446C438.265 -434.955 414.27 -457.691 382.676 -470.447C352.36 -482.682 320.44 -481.034 289.101 -473.597C262.823 -467.36 236.894 -457.037 212.623 -447.374L212.62 -447.373C207.958 -445.516 203.357 -443.685 198.827 -441.911C190.705 -438.734 182.664 -435.558 174.681 -432.405C140.946 -419.079 108.232 -406.156 74.7053 -395.302Z" fill="black"/>
<path d="M91.2424 -420.751C90.8175 -420.137 90.394 -419.523 89.9718 -418.908C119.158 -429.332 147.779 -441.366 177.251 -453.758L177.259 -453.762C185.881 -457.387 194.576 -461.043 203.379 -464.698C207.24 -466.299 211.177 -467.953 215.183 -469.635C239.503 -479.849 266.321 -491.111 293.63 -498.131C325.432 -506.307 357.81 -508.704 387.586 -497.034C418.881 -484.773 440.95 -463.118 462.909 -441.57L462.911 -441.568C466.168 -438.372 469.423 -435.179 472.705 -432.018C498.091 -407.574 525.065 -385.193 567.302 -379.701C696.325 -362.972 834.615 -356.141 964.971 -350.345C970.001 -350.123 974.984 -350.01 979.925 -349.996C979.716 -350.432 979.506 -350.869 979.296 -351.305C974.58 -351.326 969.825 -351.438 965.029 -351.65C834.668 -357.446 696.431 -364.276 567.47 -380.996C525.67 -386.432 498.953 -408.558 473.612 -432.959C470.345 -436.105 467.099 -439.29 463.847 -442.482L463.842 -442.487C441.896 -464.027 419.625 -485.885 388.063 -498.251C357.923 -510.063 325.232 -507.605 293.305 -499.397C265.894 -492.35 238.979 -481.046 214.663 -470.834C210.661 -469.153 206.729 -467.502 202.877 -465.904C194.067 -462.246 185.368 -458.589 176.745 -454.963L176.741 -454.962C147.839 -442.81 119.789 -431.016 91.2424 -420.751Z" fill="black"/>
<path d="M111.846 -448.474C111.31 -447.802 110.776 -447.128 110.244 -446.453C132.259 -454.945 154.134 -464.218 176.509 -473.704C185.458 -477.498 194.488 -481.326 203.639 -485.151C207.033 -486.57 210.492 -488.029 214.01 -489.513C238.611 -499.893 266.059 -511.473 294.058 -518.793C326.057 -527.158 358.689 -529.932 388.523 -519.032C419.975 -507.546 441.896 -487.143 463.68 -466.867C466.788 -463.974 469.893 -461.084 473.022 -458.223C498.069 -435.324 524.635 -414.337 566.604 -409.161C697.525 -393.026 833.031 -379.032 964.883 -370.281C966.532 -370.172 968.175 -370.075 969.813 -369.99C969.573 -370.439 969.333 -370.888 969.092 -371.337C967.721 -371.411 966.347 -371.493 964.97 -371.585C833.149 -380.334 697.669 -394.325 566.764 -410.458C525.213 -415.583 498.901 -436.334 473.904 -459.187C470.79 -462.035 467.694 -464.917 464.592 -467.805L464.584 -467.812C442.812 -488.081 420.69 -508.676 388.972 -520.26C358.78 -531.29 325.845 -528.453 293.727 -520.057C265.629 -512.711 238.088 -501.091 213.494 -490.714C209.978 -489.231 206.523 -487.773 203.134 -486.356C193.976 -482.528 184.942 -478.698 175.991 -474.904C154.316 -465.716 133.13 -456.735 111.846 -448.474Z" fill="black"/>
<path d="M138.031 -478.859C137.344 -478.121 136.658 -477.38 135.974 -476.638C149.022 -481.796 162.112 -487.128 175.361 -492.525C183.665 -495.907 192.032 -499.315 200.491 -502.722C204.327 -504.266 208.236 -505.858 212.208 -507.475C236.657 -517.43 263.519 -528.368 290.871 -535.3C322.663 -543.356 355.032 -545.976 384.946 -535.386C416.315 -524.3 439.043 -504.664 461.672 -485.113L461.675 -485.11C464.791 -482.418 467.905 -479.727 471.04 -477.061C496.919 -455.047 524.144 -434.738 565.156 -429.21C694.047 -411.857 826.892 -397.088 956.709 -386.454C958.082 -386.341 959.452 -386.238 960.818 -386.144C960.553 -386.599 960.288 -387.055 960.022 -387.509C958.955 -387.586 957.887 -387.668 956.816 -387.756C827.024 -398.388 694.202 -413.154 565.331 -430.505C524.707 -435.98 497.723 -456.079 471.887 -478.056C468.762 -480.715 465.652 -483.402 462.536 -486.094C439.921 -505.637 416.999 -525.444 385.382 -536.618C355.122 -547.331 322.46 -544.653 290.55 -536.566C263.102 -529.61 236.147 -518.634 211.703 -508.681C207.734 -507.064 203.831 -505.475 200.002 -503.934C191.539 -500.525 183.17 -497.117 174.868 -493.735C162.476 -488.687 150.23 -483.699 138.031 -478.859Z" fill="black"/>
<path d="M191.887 -528.998C190.83 -528.145 189.776 -527.288 188.725 -526.427C255.417 -551.38 321.503 -568.139 378.68 -549.263C410.208 -538.863 434.163 -520.421 458.067 -502.018C461.134 -499.657 464.201 -497.296 467.282 -494.953C494.356 -474.367 522.551 -455.191 562.526 -449.333C688.196 -430.946 815.867 -413.26 942.212 -399.525C945.961 -399.118 949.687 -398.788 953.391 -398.53C953.108 -398.987 952.824 -399.444 952.54 -399.901C949.163 -400.146 945.768 -400.453 942.353 -400.824C816.033 -414.556 688.38 -432.24 562.715 -450.625C523.086 -456.433 495.115 -475.432 468.073 -495.993C464.999 -498.331 461.936 -500.689 458.868 -503.051C434.98 -521.444 410.843 -540.029 379.09 -550.504C322.495 -569.188 257.382 -553.214 191.887 -528.998Z" fill="black"/>
<path d="M229.557 -556.658C228.424 -555.902 227.294 -555.142 226.167 -554.378C276.41 -568.274 325.435 -574.285 370.128 -560.962C402.075 -551.449 427.703 -534.539 453.337 -517.625C456.215 -515.726 459.095 -513.826 461.982 -511.938C490.565 -493.24 520.002 -475.589 558.861 -469.382C603.726 -462.227 648.592 -454.717 693.474 -447.205L693.477 -447.204C769.93 -434.408 846.43 -421.603 923.054 -410.53C931.19 -409.352 939.26 -408.584 947.271 -408.179C946.978 -408.631 946.683 -409.082 946.388 -409.533C938.727 -409.949 931.015 -410.698 923.242 -411.823C846.629 -422.895 770.157 -435.695 693.716 -448.489L693.699 -448.492C648.818 -456.004 603.948 -463.514 559.067 -470.672C520.5 -476.832 491.26 -494.347 462.698 -513.031C459.822 -514.912 456.953 -516.805 454.082 -518.7L454.052 -518.72C428.435 -535.624 402.645 -552.642 370.502 -562.214C326.601 -575.301 278.622 -569.856 229.557 -556.658Z" fill="black"/>
<path d="M259.782 -575.341C258.734 -574.742 257.688 -574.139 256.644 -573.533C292.156 -579.185 326.872 -579.676 359.919 -571.108C393.052 -562.509 421.594 -547.277 450.271 -531.973L450.273 -531.972C452.114 -530.989 453.956 -530.006 455.799 -529.025C486.338 -512.766 517.36 -496.912 554.44 -489.507C586.412 -483.114 618.385 -476.653 650.365 -470.19L650.374 -470.188C733.813 -453.327 817.299 -436.455 900.938 -420.761C914.465 -418.223 927.996 -416.993 941.525 -416.828C941.227 -417.268 940.927 -417.708 940.627 -418.147C927.473 -418.355 914.322 -419.579 901.179 -422.045C817.549 -437.738 734.075 -454.607 650.639 -471.468L650.628 -471.47L650.566 -471.483C618.606 -477.941 586.652 -484.399 554.696 -490.789C517.824 -498.152 486.954 -513.919 456.414 -530.178C454.561 -531.164 452.71 -532.152 450.859 -533.14C422.207 -548.432 393.537 -563.733 360.247 -572.373C328.03 -580.726 294.265 -580.518 259.782 -575.341Z" fill="black"/>
<path d="M280.662 -586.64C279.728 -586.163 278.795 -585.682 277.864 -585.198C301.787 -586.452 325.39 -585.11 348.493 -580.073C382.976 -572.56 414.488 -559.056 446.176 -545.476L448.318 -544.557C480.712 -530.678 513.361 -516.862 549.525 -509.518C619.258 -495.363 688.44 -478.01 757.594 -460.664L757.604 -460.661C797.566 -450.637 837.519 -440.616 877.563 -431.215C896.314 -426.808 915.564 -425.323 935.137 -426.021C934.834 -426.447 934.53 -426.873 934.226 -427.297C915.054 -426.676 896.212 -428.174 877.863 -432.487C837.858 -441.878 797.921 -451.896 757.963 -461.919L757.96 -461.919C688.782 -479.271 619.542 -496.639 549.785 -510.798C513.771 -518.112 481.24 -531.874 448.833 -545.758L446.648 -546.695C414.991 -560.262 383.379 -573.81 348.771 -581.35C326.465 -586.212 303.706 -587.649 280.662 -586.64Z" fill="black"/>
<path d="M295.166 -593.775C294.302 -593.367 293.44 -592.957 292.579 -592.544C304.108 -592.251 315.611 -591.374 327.082 -589.811C363.965 -584.782 399.395 -572.731 434.916 -560.177C437.277 -559.343 439.637 -558.507 441.999 -557.67C475.158 -545.921 508.484 -534.114 543.144 -527.606C597.697 -517.369 651.002 -500.933 704.31 -484.341L708.163 -483.142C760.175 -466.949 812.22 -450.746 865.396 -440.182C885.095 -436.269 905.7 -435.6 926.883 -437.301C926.573 -437.714 926.261 -438.126 925.95 -438.538C905.164 -436.928 884.962 -437.628 865.65 -441.463C812.543 -452.014 760.556 -468.199 708.523 -484.398L704.699 -485.588C651.4 -502.178 598.025 -518.637 543.385 -528.89C508.829 -535.378 475.594 -547.153 442.414 -558.909C440.06 -559.743 437.706 -560.577 435.352 -561.409C399.839 -573.96 364.291 -586.056 327.259 -591.106C316.586 -592.56 305.886 -593.422 295.166 -593.775Z" fill="black"/>
<path d="M308.059 -599.651C307.226 -599.285 306.394 -598.918 305.564 -598.548C308.594 -598.305 311.624 -598.026 314.653 -597.709C351.723 -593.82 388.971 -584.731 426.18 -574.847C433.035 -573.025 439.89 -571.177 446.742 -569.329L446.809 -569.311L446.814 -569.31C477.111 -561.14 507.354 -552.985 537.379 -547.248C589.577 -537.272 640.308 -520.073 690.982 -502.383C694.562 -501.133 698.143 -499.881 701.723 -498.628C748.801 -482.16 795.917 -465.678 844.136 -454.621C867.744 -449.199 891.052 -449.749 914.104 -453.59C913.786 -453.979 913.467 -454.368 913.148 -454.756C890.46 -451.047 867.577 -450.578 844.429 -455.895C796.285 -466.935 749.237 -483.392 702.145 -499.865L702.086 -499.886C698.529 -501.13 694.971 -502.374 691.413 -503.617C640.744 -521.305 589.929 -538.534 537.625 -548.531C507.653 -554.258 477.469 -562.397 447.175 -570.566L447.171 -570.567L447.126 -570.579C440.261 -572.43 433.391 -574.283 426.515 -576.109C389.301 -585.995 351.968 -595.108 314.79 -599.009C312.546 -599.243 310.302 -599.457 308.059 -599.651Z" fill="black"/>
<path d="M321.939 -605.504C321.079 -605.156 320.22 -604.806 319.362 -604.454C370.57 -599.313 423.715 -588.588 475.341 -578.169C494.427 -574.318 513.307 -570.508 531.804 -567.037C579.628 -558.063 626.154 -539.6 672.725 -521.118L675.208 -520.133C676.496 -519.622 677.783 -519.112 679.071 -518.601C727.739 -499.309 776.52 -480.469 826.825 -472.999C849.785 -469.589 873.733 -469.58 898.294 -472.032C897.932 -472.434 897.57 -472.836 897.207 -473.237C873.074 -470.89 849.561 -470.943 827.017 -474.291C776.884 -481.736 728.238 -500.517 679.553 -519.816C677.424 -520.66 675.295 -521.504 673.165 -522.349C626.628 -540.817 579.996 -559.323 532.045 -568.321C513.59 -571.784 494.739 -575.588 475.67 -579.436L475.663 -579.438C424.842 -589.694 372.474 -600.263 321.939 -605.504Z" fill="black"/>
<path d="M341.452 -612.937C340.469 -612.586 339.488 -612.231 338.508 -611.874C401.363 -606.645 466.772 -597.521 526.899 -587.009C574.602 -578.683 620.865 -560.562 667.171 -542.425L670.937 -540.95C718.478 -522.337 766.104 -503.987 815.299 -496.59C835.163 -493.604 855.834 -493.026 877.054 -494.295C876.636 -494.708 876.218 -495.119 875.799 -495.531C855.073 -494.357 834.892 -494.966 815.493 -497.882C766.467 -505.253 718.974 -523.546 671.414 -542.166L667.597 -543.661L667.595 -543.662C621.328 -561.784 574.958 -579.947 527.124 -588.296C467.874 -598.654 403.486 -607.668 341.452 -612.937Z" fill="black"/>
<path d="M368.97 -621.911C367.652 -621.522 366.337 -621.128 365.024 -620.729C417.532 -619.116 470.11 -615.108 522.851 -607.239C570.919 -600.06 617.739 -583.661 664.603 -567.246L664.606 -567.245L666.957 -566.422C714.585 -549.742 762.279 -533.206 811.282 -526.568C822.114 -525.104 833.152 -524.255 844.359 -523.945C843.815 -524.398 843.269 -524.85 842.722 -525.301C832.134 -525.646 821.702 -526.478 811.457 -527.863C762.608 -534.48 715.036 -550.968 667.389 -567.655L664.986 -568.496C618.159 -584.898 571.237 -601.333 523.045 -608.531C471.552 -616.214 420.221 -620.219 368.97 -621.911Z" fill="black"/>
<path d="M443.641 -638C441.489 -637.702 439.341 -637.39 437.197 -637.065C465.427 -635.482 493.577 -633.174 521.617 -629.941C570.437 -624.312 618.681 -610.49 667.002 -596.645L667.456 -596.515C669.467 -595.939 671.478 -595.363 673.49 -594.787C709.989 -584.342 746.548 -574.094 783.403 -567.592C782.37 -568.223 781.333 -568.852 780.295 -569.477C744.654 -575.984 709.256 -585.911 673.85 -596.043C671.675 -596.665 669.501 -597.288 667.326 -597.911C619.035 -611.748 570.696 -625.597 521.767 -631.239C495.809 -634.231 469.76 -636.433 443.641 -638Z" fill="black"/>
</svg>
