<svg width="570" height="140" viewBox="0 0 570 140" fill="none" xmlns="http://www.w3.org/2000/svg">
<path d="M164.272 9.97826C157.373 8.82362 150.479 7.64875 143.586 6.47397C137.728 5.47573 131.872 4.47756 126.012 3.49193C123.531 3.0747 121.05 2.65972 118.569 2.24795C111.214 1.34252 103.81 0.592083 96.3624 0C106.186 1.51848 115.992 3.13142 125.795 4.78034C131.648 5.76493 137.501 6.76239 143.356 7.7602L143.359 7.76072C156.463 9.99406 169.578 12.2292 182.734 14.3255C176.623 12.7664 170.468 11.3166 164.272 9.97826Z" fill="black"/>
<path d="M278.328 49.1588C277.087 48.5611 275.844 47.9683 274.598 47.3802C267.377 46.4943 260.148 45.6563 252.911 44.8737C215.399 40.8102 178.996 33.0243 142.617 25.2436L142.608 25.2417C136.722 23.9828 130.837 22.7242 124.949 21.4814C82.6729 12.56 40.2086 4.46343 -4.05144 3.077C-7.14396 2.97929 -10.2345 2.90248 -13.3232 2.84537C-16.1652 3.22163 -18.9998 3.62105 -21.827 4.04344C-15.9219 4.08559 -10.0108 4.19589 -4.09272 4.38287C40.0427 5.76541 82.4096 13.8397 124.679 22.7598C130.564 24.0017 136.447 25.2602 142.334 26.5192C178.709 34.2993 215.186 42.1013 252.77 46.1726C261.301 47.095 269.819 48.0946 278.328 49.1588Z" fill="black"/>
<path d="M333.188 79.8591C332.342 79.3149 331.493 78.7732 330.644 78.2339C305.769 75.2083 281.017 72.0684 256.472 68.8368C217.046 63.6493 179.266 53.3509 141.524 43.0623L141.522 43.0618C135.398 41.3925 129.275 39.7233 123.146 38.0764C79.2619 26.2839 35.093 15.6326 -11.7726 14.2272C-35.8215 13.5063 -59.5693 14.7491 -83.1487 17.0781C-85.5624 17.748 -87.9691 18.435 -90.3685 19.139C-64.4144 16.3327 -38.2925 14.7394 -11.8118 15.5331C34.8897 16.9336 78.9317 27.5481 122.806 39.3381C128.927 40.983 135.046 42.6508 141.167 44.3197C178.906 54.6074 216.78 64.9322 256.302 70.1322C281.739 73.4812 307.399 76.732 333.188 79.8591Z" fill="black"/>
<path d="M369.02 105.104C368.4 104.626 367.779 104.15 367.156 103.676C331.246 101.358 295.592 98.1842 260.575 93.4254C217.389 87.5535 176.758 73.5463 136.109 59.5328L136.102 59.5305C130.949 57.7542 125.797 55.9778 120.638 54.2179C74.8079 38.5815 28.56 24.2532 -21.6384 22.9767C-64.2805 21.9031 -105.121 29.4141 -145.559 38.8322C-147.853 39.8019 -150.137 40.7878 -152.414 41.7896C-109.657 31.6077 -66.6571 23.1502 -21.6714 24.2828C28.3092 25.5538 74.391 39.8198 120.216 55.4544C125.373 57.2137 130.526 58.9905 135.682 60.768C176.317 74.7774 217.076 88.8295 260.399 94.72C296.075 99.5684 332.421 102.773 369.02 105.104Z" fill="black"/>
<path d="M396.573 127.879C396.09 127.451 395.606 127.023 395.121 126.596C351.059 127.31 307.388 125.841 265.216 118.572C220.52 110.881 178.727 93.5716 136.925 76.2587L136.919 76.2559C130.542 73.6151 124.166 70.9742 117.779 68.3674C69.5502 48.6825 20.7469 30.9538 -32.9106 30.0655C-82.0348 29.2512 -127.334 43.012 -172.166 58.5574C-178.456 60.7384 -184.736 62.9542 -191.016 65.1701C-197.622 67.501 -204.228 69.8319 -210.845 72.1221C-212.575 73.1659 -214.299 74.2195 -216.015 75.283C-207.509 72.3759 -199.032 69.3848 -190.563 66.3963L-190.56 66.3951C-184.285 64.1809 -178.014 61.968 -171.737 59.7918C-126.918 44.2507 -81.8079 30.5617 -32.9323 31.3718C20.4602 32.2557 69.0657 49.8961 117.285 69.577C123.663 72.1799 130.034 74.8189 136.408 77.4593L136.411 77.4604C178.202 94.7701 220.143 112.142 264.994 119.859C307.733 127.227 351.986 128.648 396.573 127.879Z" fill="black"/>
<path d="M417.438 147.429C417.04 147.035 416.641 146.641 416.242 146.248C366.78 151.779 317.595 153.959 270.115 144.014C224.092 134.392 180.917 113.593 137.691 92.7689C130.007 89.0671 122.32 85.3642 114.616 81.7235C63.6161 57.6214 11.8604 36.25 -45.1828 36.0464C-95.1507 35.8612 -139.536 53.76 -183.206 73.9588C-189.622 76.9261 -196.021 79.9426 -202.42 82.9591C-223.739 93.0084 -245.057 103.058 -266.966 111.285C-268.03 112.138 -269.091 112.995 -270.148 113.856C-246.877 105.362 -224.326 94.7315 -201.838 84.1298C-195.444 81.1157 -189.056 78.104 -182.657 75.1445C-139.003 54.9531 -94.8448 37.1689 -45.1877 37.3529C11.542 37.5554 63.0686 58.8079 114.058 82.9046C121.742 86.536 129.414 90.2324 137.09 93.9306L137.094 93.9325C180.315 114.755 223.655 135.635 269.847 145.293C317.865 155.351 367.577 153.051 417.438 147.429Z" fill="black"/>
<path d="M434.154 164.768C433.812 164.397 433.469 164.025 433.126 163.655C380.277 175.111 327.484 182.445 275.122 169.641C227.423 157.977 182.473 133.732 137.402 109.422C128.712 104.735 120.018 100.045 111.299 95.4429C57.3997 66.9937 2.56832 41.8989 -57.8531 41.6582C-108.542 41.4544 -152.182 63.6473 -194.785 88.8126C-201.494 92.7756 -208.177 96.8117 -214.857 100.846C-245.601 119.414 -276.296 137.953 -309.31 149.214C-309.996 149.901 -310.681 150.589 -311.364 151.28C-277.241 140.056 -245.641 120.968 -214.142 101.942L-214.139 101.94C-207.469 97.9114 -200.804 93.8854 -194.12 89.9374C-151.532 64.781 -108.161 42.7625 -57.8583 42.9648C2.21609 43.204 56.7987 68.154 110.688 96.5982C119.382 101.187 128.059 105.867 136.738 110.549L136.741 110.551C181.811 134.862 226.934 159.203 274.812 170.91C327.658 183.832 380.881 176.345 433.949 164.813C434.017 164.798 434.086 164.783 434.154 164.768Z" fill="black"/>
<path d="M448.093 180.55C447.789 180.191 447.484 179.832 447.179 179.474C443.911 180.547 440.644 181.604 437.376 182.639C385.854 198.968 334.164 210.075 280.128 195.157C231.089 181.611 184.378 153.979 137.424 126.204C127.659 120.427 117.884 114.645 108.075 108.981C51.1534 76.1166 -6.87417 47.2881 -70.305 47.3807C-121.804 47.4549 -164.729 73.9172 -206.263 103.927C-213.088 108.858 -219.874 113.884 -226.655 118.906L-226.658 118.909C-261.199 144.49 -295.594 169.964 -334.175 182.243C-336.565 183.003 -338.964 183.708 -341.369 184.36C-341.848 184.936 -342.326 185.513 -342.803 186.091C-339.783 185.308 -336.775 184.441 -333.778 183.487C-294.97 171.136 -260.367 145.505 -225.83 119.923C-219.06 114.909 -212.293 109.896 -205.497 104.986C-163.973 74.983 -121.348 48.7608 -70.3031 48.6872C-7.25396 48.5952 50.5045 77.2508 107.421 110.113C117.2 115.759 126.955 121.53 136.707 127.299C183.662 155.078 230.556 182.819 279.78 196.417C334.198 211.44 386.196 200.23 437.771 183.885C441.214 182.794 444.654 181.68 448.093 180.55Z" fill="black"/>
<path d="M460.107 195.26C459.829 194.907 459.55 194.553 459.271 194.2C453.236 196.875 447.205 199.501 441.167 202.033C391.339 222.933 341.033 237.496 284.872 220.452C234.686 205.222 186.267 174.426 137.456 143.381L137.453 143.379C126.676 136.524 115.879 129.657 105.04 122.943C45.1713 85.8573 -15.9682 53.4526 -82.0557 53.9526C-134.38 54.3422 -176.652 84.9187 -217.17 119.531C-224.008 125.373 -230.794 131.327 -237.571 137.274C-250.898 148.968 -264.19 160.632 -277.777 171.346C-298.262 187.498 -319.355 201.44 -342.111 209.98C-350.046 212.959 -358.086 215.191 -366.215 216.769C-366.576 217.279 -366.935 217.791 -367.294 218.303C-358.645 216.701 -350.091 214.372 -341.652 211.203C-318.714 202.595 -297.498 188.56 -276.967 172.371C-263.354 161.637 -250.015 149.932 -236.671 138.223L-236.663 138.216C-229.895 132.278 -223.127 126.339 -216.32 120.524C-175.803 85.9121 -133.853 55.6448 -82.0458 55.2591C-16.371 54.7623 44.4815 86.9672 104.351 124.053C115.155 130.746 125.928 137.598 136.691 144.444L136.694 144.446C185.51 175.497 234.118 206.415 284.492 221.702C341.106 238.883 391.774 224.168 441.673 203.238C447.827 200.657 453.968 197.982 460.107 195.26Z" fill="black"/>
<path d="M470.609 209.085C470.35 208.731 470.089 208.377 469.829 208.024C461.475 212.664 453.142 217.238 444.78 221.591C396.683 246.632 347.756 264.325 289.169 245.303C237.911 228.655 187.887 194.999 137.322 160.98L137.317 160.976C125.698 153.159 114.05 145.322 102.352 137.669C39.8135 96.7502 -24.1409 61.0751 -92.5503 62.0011C-145.77 62.7249 -187.412 97.0542 -226.959 135.815C-233.729 142.45 -240.435 149.213 -247.129 155.963L-247.132 155.967C-260.02 168.963 -272.861 181.912 -286.021 193.814C-306.008 211.89 -326.665 227.486 -349.193 237.053C-361.169 242.134 -373.404 245.234 -385.838 246.731C-386.123 247.203 -386.408 247.674 -386.693 248.147C-373.801 246.684 -361.107 243.527 -348.681 238.255C-325.958 228.605 -305.174 212.898 -285.144 194.783C-271.958 182.858 -259.07 169.861 -246.165 156.847C-239.477 150.103 -232.785 143.355 -226.044 136.748C-186.486 97.9774 -145.181 64.0235 -92.5327 63.3075C-24.5624 62.3875 39.0898 97.8383 101.636 138.762C113.297 146.391 124.92 154.212 136.525 162.02C187.097 196.047 237.315 229.835 288.765 246.545C347.866 265.735 397.198 247.837 445.384 222.75C453.809 218.364 462.203 213.755 470.609 209.085Z" fill="black"/>
<path d="M479.979 222.288C479.733 221.929 479.486 221.57 479.238 221.212C478.91 221.427 478.582 221.643 478.254 221.858L478.251 221.86C468.168 228.478 458.154 235.051 448.077 241.246C401.608 269.814 353.964 290.233 292.982 269.525C243.582 252.764 195.518 222.568 149.948 193.939C138.184 186.548 126.586 179.262 115.175 172.338C104.085 165.604 92.1368 157.812 79.5598 149.611C58.6426 135.97 35.9864 121.196 12.6504 108.265C-24.7413 87.5447 -64.0789 71.4306 -101.234 72.117C-155.53 73.1195 -196.519 110.653 -235.111 152.921C-241.714 160.152 -248.244 167.52 -254.76 174.871L-254.762 174.874C-267.322 189.044 -279.83 203.157 -292.702 216.119C-312.242 235.797 -332.554 252.754 -355.011 263.126C-370.142 270.113 -385.664 273.58 -401.462 274.394C-401.696 274.841 -401.93 275.289 -402.164 275.737C-385.955 274.99 -370.01 271.492 -354.462 264.312C-331.798 253.844 -311.356 236.76 -291.774 217.039C-278.878 204.052 -266.325 189.89 -253.748 175.701C-247.237 168.355 -240.72 161.002 -234.146 153.802C-195.535 111.514 -154.889 74.4144 -101.21 73.4233C-64.4136 72.7436 -25.3292 88.7128 12.0165 109.407C35.329 122.326 57.886 137.037 78.7635 150.652C91.3525 158.863 103.331 166.674 114.496 173.455C125.866 180.353 137.435 187.622 149.181 195.002C194.763 223.64 243 253.946 292.561 270.762C354.107 291.662 402.191 270.99 448.762 242.359C458.857 236.153 468.889 229.568 478.971 222.95C479.307 222.73 479.643 222.509 479.979 222.288Z" fill="black"/>
<path d="M488.466 235.057C488.23 234.69 487.994 234.323 487.757 233.957C486.641 234.776 485.527 235.596 484.414 236.416C482.381 237.915 480.353 239.414 478.329 240.911C469.093 247.74 459.927 254.517 450.692 260.936C405.673 292.228 359.194 314.889 296.015 293.007C245.472 275.497 196.117 243.576 149.565 213.467L149.561 213.465C137.306 205.539 125.245 197.738 113.408 190.359C102.085 183.295 89.8457 175.072 76.9192 166.387L76.9173 166.386C72.8006 163.62 68.6142 160.807 64.3654 157.97C46.7819 146.229 28.1422 134.079 9.00558 123.143C-29.2481 101.284 -69.5779 84.2229 -107.516 85.0391C-163.103 86.2275 -203.382 126.212 -241.026 171.139C-247.352 178.688 -253.601 186.376 -259.838 194.047L-259.84 194.049C-272.192 209.244 -284.495 224.377 -297.238 238.254C-316.406 259.129 -336.504 277.085 -359.121 288.015C-376.993 296.648 -395.311 300.073 -413.917 299.813C-414.114 300.246 -414.31 300.678 -414.506 301.111C-395.532 301.452 -376.819 298.016 -358.552 289.191C-335.716 278.155 -315.485 260.058 -296.275 239.138C-283.506 225.232 -271.159 210.045 -258.79 194.831C-252.559 187.167 -246.322 179.495 -240.024 171.978C-202.358 127.024 -162.423 87.5198 -107.488 86.3453C-69.9223 85.5371 -29.8539 102.442 8.35671 124.277C27.4523 135.189 46.0612 147.319 63.6392 159.056C67.8795 161.888 72.0606 164.697 76.1743 167.461L76.1767 167.462C89.1077 176.15 101.372 184.39 112.716 191.468C124.509 198.819 136.539 206.6 148.774 214.514L148.779 214.517C195.344 244.635 244.878 276.674 295.587 294.242C359.368 316.332 406.308 293.378 451.439 262.008C460.691 255.577 469.874 248.787 479.111 241.958L479.138 241.938C481.152 240.449 483.169 238.958 485.19 237.468C486.281 236.664 487.373 235.86 488.466 235.057Z" fill="black"/>
<path d="M496.337 247.685C496.11 247.31 495.883 246.935 495.656 246.56C489.514 251.321 483.449 256.159 477.418 260.969C469.07 267.627 460.788 274.233 452.459 280.513C430.547 297.035 408.236 311.367 383.276 318.774C358.335 326.175 330.713 326.671 298.157 315.454C247.02 297.827 196.785 264.648 149.743 233.578L149.739 233.576C137.063 225.204 124.62 216.985 112.452 209.265C100.971 201.984 88.5805 193.514 75.5023 184.574L75.4859 184.563C71.3739 181.752 67.1937 178.895 62.9524 176.013C45.2236 163.968 26.4382 151.509 7.13513 140.299C-31.4516 117.89 -72.1982 100.412 -110.803 101.247C-168.027 102.509 -207.522 144.003 -244.21 190.537C-250.136 198.052 -255.987 205.698 -261.829 213.332L-261.832 213.336C-274.106 229.374 -286.339 245.359 -299.138 259.976C-318.022 281.543 -338.071 300.052 -361.153 311.238C-381.664 321.18 -402.551 324.201 -423.657 322.614C-423.826 323.038 -423.995 323.461 -424.163 323.886C-402.728 325.558 -381.471 322.539 -360.583 312.413C-337.269 301.115 -317.083 282.455 -298.154 260.837C-285.328 246.188 -273.049 230.144 -260.761 214.087C-254.924 206.46 -249.084 198.83 -243.183 191.345C-206.474 144.785 -167.324 103.801 -110.775 102.553C-72.5468 101.726 -32.0639 119.045 6.47838 141.429C25.7399 152.615 44.494 165.052 62.2176 177.094C66.4453 179.966 70.6152 182.816 74.7195 185.622L74.7485 185.642L74.7501 185.643C87.8331 194.586 100.249 203.074 111.752 210.368C123.871 218.058 136.283 226.256 148.937 234.614L148.939 234.615C195.997 265.697 246.42 299.002 297.73 316.689C330.538 327.993 358.44 327.506 383.648 320.026C408.836 312.552 431.298 298.105 453.246 281.556C461.638 275.229 469.943 268.604 478.298 261.94C484.269 257.177 490.266 252.393 496.337 247.685Z" fill="black"/>
<path d="M504.446 261.614C504.231 261.231 504.015 260.848 503.799 260.466C495.097 267.009 486.575 273.782 478.12 280.502C469.697 287.196 461.342 293.837 452.94 300.145C431.01 316.611 408.69 330.877 383.771 338.21C358.872 345.537 331.343 345.953 298.972 334.653C247.763 316.782 197.452 284.122 150.117 253.395C137.202 245.011 124.508 236.771 112.079 229.015C100.279 221.648 87.51 213.027 74.0185 203.917L74.015 203.915L73.9922 203.9C70.179 201.325 66.3084 198.712 62.3856 196.077C44.5803 184.117 25.7134 171.72 6.34402 160.535C-32.3752 138.178 -73.1933 120.609 -111.648 121.11C-169.063 121.871 -208.319 163.604 -244.716 210.468C-250.59 218.031 -256.388 225.726 -262.177 233.41L-262.182 233.416C-274.359 249.577 -286.497 265.687 -299.217 280.404C-317.976 302.108 -337.934 320.7 -361.005 331.839C-384.111 343.001 -407.531 345.476 -431.116 342.508C-431.264 342.928 -431.411 343.349 -431.558 343.769C-407.678 346.817 -383.907 344.354 -360.436 333.015C-337.129 321.762 -317.032 303.015 -298.227 281.258C-285.48 266.509 -273.297 250.339 -261.105 234.158L-261.093 234.143C-255.312 226.471 -249.53 218.796 -243.684 211.269C-207.265 164.376 -168.357 123.168 -111.631 122.416C-73.5467 121.92 -32.9876 139.333 5.69009 161.667C25.0192 172.828 43.8558 185.204 61.6564 197.161C65.5798 199.797 69.4534 202.412 73.271 204.99L73.2736 204.991C86.7689 214.103 99.5647 222.743 111.386 230.123C123.768 237.85 136.429 246.069 149.323 254.439L149.324 254.44C196.675 285.179 247.167 317.958 298.541 335.887C331.164 347.274 358.974 346.869 384.14 339.463C409.287 332.063 431.759 317.683 453.726 301.189C462.191 294.833 470.569 288.173 478.998 281.474C487.386 274.806 495.824 268.1 504.446 261.614Z" fill="black"/>
<path d="M512.768 277.051C512.566 276.661 512.364 276.272 512.162 275.882C503.786 281.603 495.571 287.546 487.432 293.5C485.466 294.938 483.505 296.376 481.547 297.812C472.243 304.637 463.013 311.408 453.715 317.813C408.714 348.815 362.319 371.135 299.416 349.052C248.112 331.044 197.95 300.579 150.046 271.484L150.044 271.483C136.835 263.461 123.798 255.543 110.955 248.018C98.3186 240.615 84.5041 231.768 69.8591 222.389C66.8288 220.448 63.7629 218.485 60.6645 216.507C42.5992 204.973 23.44 192.946 3.83203 182.054C-35.3634 160.28 -76.4461 142.983 -114.266 143.261C-170.393 143.688 -209.337 185.001 -245.409 231.485C-251.428 239.24 -257.365 247.139 -263.291 255.021C-275.155 270.804 -286.971 286.522 -299.296 300.906C-317.767 322.464 -337.311 340.935 -359.717 351.999C-385.274 364.621 -411.287 366.468 -437.524 361.985C-437.653 362.405 -437.781 362.825 -437.909 363.245C-411.408 367.799 -385.053 365.97 -359.138 353.171C-336.497 341.991 -316.816 323.362 -298.303 301.756C-285.952 287.342 -274.091 271.563 -262.211 255.76C-256.291 247.886 -250.367 240.006 -244.376 232.285C-208.278 185.768 -169.687 144.99 -114.257 144.568C-76.795 144.292 -35.965 161.441 3.19698 183.196C22.7677 194.068 41.8983 206.076 59.9608 217.608C63.0523 219.581 66.1129 221.542 69.1391 223.48L69.1449 223.483C83.7907 232.863 97.6326 241.727 110.294 249.146C123.094 256.645 136.103 264.546 149.294 272.558L149.296 272.559C197.216 301.664 247.536 332.227 298.983 350.285C362.486 372.579 409.344 349.968 454.457 318.889C463.772 312.471 473.022 305.687 482.327 298.861C484.284 297.426 486.242 295.99 488.204 294.554C496.299 288.633 504.457 282.73 512.768 277.051Z" fill="black"/>
<path d="M520.791 293.255C520.604 292.86 520.416 292.465 520.228 292.07C510.017 298.15 500.016 304.55 490.109 310.949C488.59 311.93 487.073 312.911 485.558 313.891C475.453 320.428 465.427 326.913 455.34 333.017C408.957 361.085 361.448 380.984 299.999 360.236C248.211 342.732 197.571 314.709 148.655 287.64C135.321 280.262 122.115 272.954 109.049 265.949C95.548 258.713 80.6786 249.911 64.8944 240.567C62.537 239.171 60.1592 237.764 57.7626 236.347C39.3252 225.452 19.7788 214.05 -0.155903 203.717C-40.0044 183.062 -81.4995 166.629 -118.888 167.112C-173.74 167.799 -211.676 208.392 -246.737 254.059C-252.667 261.784 -258.514 269.652 -264.348 277.502L-264.349 277.504C-275.793 292.904 -287.188 308.238 -299.07 322.294C-316.999 343.505 -335.967 361.715 -357.728 372.714C-385.557 386.775 -414.157 387.756 -443.106 381.56C-443.217 381.981 -443.328 382.403 -443.438 382.825C-414.255 389.081 -385.322 388.12 -357.138 373.88C-335.145 362.764 -316.042 344.396 -298.071 323.137C-286.164 309.051 -274.724 293.657 -263.264 278.235C-257.436 270.393 -251.602 262.543 -245.7 254.855C-210.613 209.155 -173.027 169.097 -118.871 168.418C-81.8269 167.94 -40.578 184.237 -0.757704 204.877C19.142 215.191 38.6611 226.578 57.0972 237.472C59.4787 238.879 61.8422 240.278 64.1862 241.666L64.2248 241.689C80.0063 251.031 94.9032 259.85 108.431 267.101C121.461 274.086 134.643 281.38 147.961 288.75C196.89 315.827 247.669 343.927 299.581 361.474C361.583 382.409 409.525 362.269 456.017 334.135C466.122 328.02 476.166 321.523 486.269 314.987C487.784 314.008 489.3 313.027 490.818 312.046C500.69 305.67 510.64 299.303 520.791 293.255Z" fill="black"/>
<path d="M528.518 310.385C528.346 309.984 528.173 309.583 528 309.183C515.191 315.548 502.658 322.353 490.229 329.101C479.343 335.012 468.536 340.88 457.692 346.372C409.661 370.695 360.8 387.715 300.65 368.981C248.282 352.667 196.928 327.468 146.868 302.905C133.319 296.256 119.864 289.654 106.51 283.288C91.9642 276.36 75.8722 267.783 58.8025 258.686L58.7999 258.685L58.6268 258.593C57.058 257.757 55.4811 256.916 53.8964 256.072C35.0079 246.014 15.02 235.464 -5.28994 225.922C-45.8895 206.847 -87.8698 191.751 -125.028 192.697C-178.621 194.09 -215.001 233.666 -248.527 278.112C-254.175 285.6 -259.74 293.224 -265.295 300.834C-276.257 315.851 -287.176 330.81 -298.602 344.545C-315.808 365.228 -334.096 383.049 -355.258 393.982C-385.105 409.401 -416.233 409.321 -447.894 401.298C-447.989 401.723 -448.082 402.149 -448.176 402.575C-416.315 410.641 -384.859 410.745 -354.658 395.143C-333.266 384.091 -314.845 366.113 -297.597 345.38C-286.147 331.615 -275.183 316.597 -264.206 301.559L-264.204 301.557C-258.656 293.956 -253.104 286.35 -247.483 278.899C-213.936 234.424 -177.897 195.379 -124.994 194.003C-88.163 193.066 -46.4205 208.041 -5.84605 227.104C14.431 236.631 34.3928 247.167 53.2817 257.226C54.9267 258.101 56.5637 258.974 58.192 259.842C75.2547 268.935 91.3732 277.525 105.947 284.467C119.268 290.818 132.7 297.409 146.234 304.05L146.24 304.053C196.311 328.622 247.786 353.881 300.261 370.229C360.902 389.116 410.151 371.912 458.283 347.537C469.199 342.009 480.053 336.116 490.968 330.19C503.346 323.47 515.803 316.707 528.518 310.385Z" fill="black"/>
<path d="M535.795 328.267C535.639 327.86 535.482 327.454 535.324 327.048C521.95 332.319 508.801 337.98 495.744 343.601L495.742 343.602C484.034 348.643 472.399 353.652 460.741 358.32C410.833 378.304 360.392 392.104 301.479 375.843C248.379 361.207 196.112 339.139 144.753 317.453L144.746 317.45C130.988 311.641 117.296 305.86 103.67 300.257C88.0017 293.815 70.6352 285.697 52.2527 277.104L49.5332 275.833C30.1498 266.774 9.69254 257.261 -11.0205 248.699C-52.4273 231.581 -94.9478 218.221 -132.059 219.908C-184.556 222.286 -218.918 260.656 -250.466 303.58C-255.613 310.582 -260.684 317.704 -265.747 324.816L-265.749 324.819C-276.232 339.542 -286.682 354.221 -297.713 367.704C-314.063 387.689 -331.623 404.963 -352.305 415.729C-384.031 432.251 -417.599 430.931 -451.867 421.058C-451.945 421.489 -452.023 421.92 -452.099 422.351C-417.668 432.249 -383.781 433.594 -351.701 416.888C-330.789 406.002 -313.095 388.571 -296.701 368.531C-285.642 355.014 -275.146 340.272 -264.648 325.526L-264.643 325.52C-259.588 318.42 -254.532 311.319 -249.413 304.353C-217.85 261.411 -183.819 223.56 -132 221.213C-95.1954 219.54 -52.9034 232.798 -11.5201 249.906C9.16197 258.456 29.5941 267.957 48.9796 277.016L51.7109 278.293L51.7131 278.294C70.0837 286.881 87.4755 295.011 103.173 301.465C116.775 307.059 130.452 312.834 144.201 318.639C195.57 340.329 247.94 362.442 301.131 377.102C360.461 393.478 411.233 379.551 461.227 359.533C472.953 354.837 484.632 349.81 496.366 344.758C509.392 339.151 522.488 333.513 535.795 328.267Z" fill="black"/>
<path d="M542.463 346.618C542.322 346.205 542.18 345.793 542.038 345.381C528.531 349.318 515.173 353.552 501.88 357.765C489.341 361.74 476.86 365.696 464.369 369.366C412.414 384.632 360.186 394.995 302.414 381.485C248.49 368.886 195.194 350.203 142.538 331.744C128.576 326.849 114.66 321.971 100.788 317.226C83.7811 311.412 64.934 303.908 45.0545 295.992L45.0103 295.974C25.1204 288.055 4.20303 279.727 -16.9036 272.287C-59.0997 257.414 -102.141 246.056 -139.352 248.632C-192.108 252.274 -223.359 290 -251.969 331.475C-255.789 337.011 -259.56 342.614 -263.33 348.214C-273.703 363.621 -284.06 379.006 -295.356 392.936C-310.748 411.917 -327.832 428.125 -348.953 437.905C-383.682 453.993 -419.176 451.33 -454.94 440.108C-455.003 440.545 -455.064 440.983 -455.125 441.42C-419.237 452.647 -383.458 455.329 -348.404 439.09C-327.026 429.192 -309.793 412.814 -294.34 393.758C-283.004 379.779 -272.598 364.322 -262.215 348.898C-258.452 343.309 -254.693 337.724 -250.893 332.216C-222.276 290.732 -191.34 253.53 -139.262 249.935C-102.336 247.379 -59.5116 258.654 -17.3384 273.519C3.73953 280.949 24.6328 289.267 44.5265 297.188L44.5903 297.214C64.4542 305.123 83.327 312.638 100.365 318.462C114.215 323.2 128.117 328.073 142.069 332.964C194.734 351.427 248.116 370.14 302.116 382.757C360.223 396.346 412.717 385.905 464.737 370.62C477.287 366.932 489.804 362.965 502.364 358.984C515.652 354.772 528.988 350.545 542.463 346.618Z" fill="black"/>
<path d="M548.535 365.582C548.41 365.163 548.284 364.744 548.158 364.325C535.319 366.912 522.522 369.693 509.746 372.47C498.444 374.926 487.158 377.379 475.873 379.691C424.021 390.311 372.136 397.96 318.548 389.377C253.472 378.967 189.333 360.639 125.544 342.41C101.824 335.632 78.1522 328.868 54.4983 322.529C40.6249 318.818 25.6754 314.172 10.1015 309.332L7.48209 308.518C-9.03 303.388 -26.2051 298.09 -43.4846 293.505C-78.0314 284.34 -113.065 278.008 -144.147 281.604C-198.117 287.843 -227.612 324.856 -255.104 364.582C-257.678 368.301 -260.234 372.044 -262.792 375.788L-262.8 375.801C-287.6 412.11 -312.466 448.517 -354.161 464.767C-387.504 477.776 -422.257 473.381 -457.495 461.208C-457.54 461.653 -457.584 462.099 -457.628 462.545C-422.314 474.701 -387.321 479.107 -353.686 465.984C-311.591 449.578 -286.493 412.821 -261.737 376.564C-259.17 372.805 -256.607 369.051 -254.029 365.325C-226.537 325.599 -197.335 289.068 -143.996 282.902C-113.168 279.335 -78.3311 285.612 -43.82 294.768C-26.5705 299.344 -9.41978 304.635 7.09412 309.765L9.72047 310.582C25.2867 315.42 40.2599 320.073 54.1601 323.791C77.7671 330.117 101.411 336.874 125.115 343.647C188.929 361.883 253.182 380.244 318.341 390.667C372.173 399.289 424.253 391.597 476.136 380.97C487.456 378.652 498.764 376.194 510.079 373.735C522.88 370.953 535.691 368.169 548.535 365.582Z" fill="black"/>
<path d="M553.671 384.02C553.56 383.594 553.45 383.167 553.338 382.741C540.875 384.054 528.423 385.473 515.979 386.891C504.165 388.237 492.356 389.582 480.553 390.835C427.134 396.506 373.763 400.292 320.001 393.767C254.11 385.76 188.762 371.947 123.598 358.173C99.5467 353.089 75.5206 348.011 51.5011 343.231C36.372 340.225 20.1372 336.29 3.30438 332.203L2.83539 332.09C-13.8471 328.039 -31.1082 323.849 -48.4289 320.282C-83.3856 313.084 -118.65 308.413 -149.995 312.581C-201.979 319.489 -229.853 354.582 -255.792 392.119C-258.172 395.564 -260.536 399.028 -262.9 402.493C-286.345 436.858 -309.852 471.312 -350.064 487.178C-384.768 500.87 -421.607 495.247 -459.125 481.481C-459.153 481.935 -459.18 482.389 -459.206 482.844C-421.649 496.572 -384.58 502.201 -349.584 488.393C-308.977 472.371 -285.242 437.572 -261.837 403.257L-261.834 403.252C-259.464 399.777 -257.097 396.307 -254.717 392.862C-228.784 355.333 -201.194 320.703 -149.822 313.876C-118.703 309.738 -83.616 314.37 -48.6927 321.562C-31.3945 325.124 -14.1521 329.31 2.5372 333.362L2.99581 333.473C19.8227 337.558 36.0852 341.501 51.2463 344.513C75.2302 349.285 99.2344 354.359 123.272 359.44L123.276 359.441C188.459 373.219 253.891 387.05 319.843 395.064C373.759 401.608 427.253 397.807 480.691 392.134C492.517 390.879 504.339 389.532 516.162 388.185L516.164 388.185C528.663 386.761 541.163 385.336 553.671 384.02Z" fill="black"/>
<path d="M558.031 402.268C557.935 401.834 557.839 401.4 557.743 400.966C546.089 401.162 534.435 401.394 522.782 401.626H522.78C510.295 401.875 497.811 402.123 485.33 402.328C430.641 403.223 375.998 403.268 321.491 398.749C254.668 393.224 188.111 383.963 121.617 374.712L121.614 374.711C97.4851 371.354 73.3648 367.999 49.243 364.823C33.6244 362.767 17.045 359.898 -0.0396278 356.896C-1.3478 356.666 -2.65896 356.435 -3.97283 356.204C-19.8134 353.416 -36.0524 350.559 -52.3118 348.169C-87.521 342.993 -122.885 340 -154.621 344.666C-204.58 352.001 -231.122 385.005 -255.826 420.198C-258.039 423.35 -260.237 426.519 -262.435 429.689C-284.819 461.966 -307.26 494.325 -346.074 509.625C-381.899 523.752 -420.517 517.012 -459.963 501.891C-459.972 502.355 -459.982 502.818 -459.991 503.281C-420.541 518.343 -381.707 525.081 -345.594 510.84C-306.391 495.387 -283.724 462.692 -261.379 430.462L-261.365 430.442C-259.164 427.267 -256.966 424.097 -254.756 420.948C-230.064 385.772 -203.801 353.207 -154.431 345.958C-122.89 341.321 -87.6806 344.29 -52.502 349.461C-36.2608 351.849 -20.0385 354.703 -4.19362 357.491L-0.266061 358.182C16.8159 361.185 33.4217 364.058 49.0722 366.118C73.1737 369.291 97.2818 372.645 121.404 376.002C187.91 385.255 254.521 394.522 321.383 400.051C375.957 404.576 430.654 404.529 485.352 403.634C497.836 403.43 510.32 403.181 522.803 402.933L522.824 402.932C534.561 402.698 546.297 402.465 558.031 402.268Z" fill="black"/>
<path d="M561.67 420.397C561.589 419.955 561.508 419.514 561.427 419.072C545.925 418.1 530.423 417.112 514.922 416.123C450.99 412.045 387.057 407.967 323.055 405.06C254.861 401.959 186.751 397.207 118.638 392.454C95.1121 390.813 71.5861 389.171 48.0563 387.598C29.4684 386.349 9.87068 384.166 -10.1793 381.932C-24.821 380.301 -39.7039 378.643 -54.6108 377.303C-89.8828 374.131 -125.197 372.749 -157.397 377.783C-205.385 385.266 -231.019 416.04 -254.928 448.759C-257.025 451.628 -259.108 454.512 -261.192 457.397C-282.901 487.448 -304.655 517.561 -342.154 532.07C-379.003 546.348 -419.055 538.661 -460 522.471C-459.992 522.943 -459.982 523.415 -459.973 523.888C-419.057 539.999 -378.808 547.674 -341.682 533.289C-303.803 518.632 -281.824 488.199 -260.152 458.19C-258.06 455.294 -255.972 452.402 -253.872 449.529C-229.981 416.835 -204.621 386.47 -157.195 379.074C-125.158 374.066 -89.973 375.435 -54.7279 378.604C-39.8906 379.938 -25.0261 381.594 -10.3855 383.224L-10.3815 383.225C9.70675 385.462 29.3732 387.652 47.9687 388.901C71.4903 390.474 95.0109 392.115 118.533 393.757C186.651 398.51 254.784 403.264 322.996 406.365C386.996 409.272 450.894 413.348 514.805 417.425L514.812 417.425L514.822 417.426C530.437 418.422 546.052 419.418 561.67 420.397Z" fill="black"/>
<path d="M564.644 438.584C564.579 438.136 564.513 437.688 564.447 437.24C551.943 435.601 539.449 433.908 526.955 432.215L526.942 432.213C516.064 430.739 505.187 429.265 494.306 427.826C438.09 420.396 381.77 413.921 324.694 413.33C263.276 412.715 201.857 412.46 140.44 412.206H140.435L140.386 412.206C109.694 412.078 79.0021 411.951 48.3117 411.779C27.5658 411.663 5.93323 410.593 -16.0318 409.507L-16.035 409.507C-28.9069 408.87 -41.8931 408.228 -54.8818 407.769C-90.0077 406.527 -125.105 406.627 -157.805 411.824C-203.948 419.176 -229.22 447.577 -252.896 477.691C-254.935 480.284 -256.962 482.89 -258.989 485.496C-280.529 513.185 -302.096 540.91 -338.452 554.404C-376.32 568.454 -417.35 560.058 -459.221 543.165C-459.193 543.646 -459.165 544.128 -459.136 544.609C-417.323 561.404 -376.122 569.774 -337.997 555.629C-301.275 541.999 -279.483 513.978 -257.977 486.325L-257.951 486.291C-255.925 483.686 -253.901 481.084 -251.868 478.498C-228.216 448.414 -203.213 420.382 -157.6 413.115C-125.028 407.937 -90.0329 407.834 -54.928 409.075C-41.9814 409.533 -29.0132 410.174 -16.1479 410.81L-16.1434 410.81C5.84594 411.897 27.5357 412.969 48.3044 413.086C79.0127 413.258 109.72 413.385 140.427 413.512H140.44C201.855 413.767 263.267 414.021 324.681 414.636C381.673 415.227 437.926 421.692 494.135 429.122C505.01 430.559 515.884 432.033 526.762 433.507C539.382 435.217 552.007 436.928 564.644 438.584Z" fill="black"/>
<path d="M566.988 457.092C566.939 456.639 566.89 456.187 566.84 455.735C554.414 453.425 542.009 451.024 529.608 448.624L529.606 448.623C519.052 446.581 508.501 444.539 497.943 442.554C441.437 431.929 384.735 422.928 326.373 424.184C291.403 424.945 255.67 425.294 219.537 425.648L219.532 425.648C94.3804 426.871 -35.577 428.142 -155.291 446.713C-199.714 453.618 -225.279 479.53 -249.428 506.921C-251.435 509.198 -253.433 511.485 -255.43 513.772L-255.449 513.794C-277.497 539.037 -299.552 564.288 -335.112 576.477C-374.055 589.838 -415.514 581.022 -457.614 563.86C-457.566 564.35 -457.517 564.841 -457.468 565.331C-415.449 582.378 -373.853 591.15 -334.688 577.713C-298.781 565.404 -276.503 539.891 -254.486 514.679C-252.474 512.375 -250.465 510.074 -248.447 507.785C-224.325 480.424 -199.025 454.833 -155.09 448.004C-35.4795 429.449 94.3471 428.179 219.484 426.955C255.634 426.602 291.393 426.252 326.401 425.491C384.619 424.237 441.209 433.215 497.701 443.838C508.236 445.819 518.768 447.857 529.307 449.897L529.334 449.902C541.871 452.328 554.417 454.756 566.988 457.092Z" fill="black"/>
<path d="M568.687 476.016C568.654 475.561 568.621 475.107 568.588 474.652C556.169 471.787 543.775 468.789 531.384 465.792C523.357 463.851 515.331 461.91 507.3 460.005C452.93 447.109 398.325 435.885 341.623 437.623C179.761 442.571 8.70766 460.333 -151.694 481.932C-195.072 487.779 -222.433 512.875 -248.872 538.692C-250.171 539.96 -251.467 541.229 -252.762 542.498C-277.881 567.1 -302.819 591.525 -340.663 600.308C-378.645 609.136 -416.869 600.479 -455.128 584.825C-455.058 585.325 -454.988 585.824 -454.917 586.324C-416.757 601.851 -378.471 610.437 -340.367 601.581C-302.156 592.712 -276.974 568.045 -251.906 543.489C-250.59 542.2 -249.275 540.912 -247.959 539.627C-221.52 513.811 -194.432 489.011 -151.52 483.227C8.85851 461.631 179.863 443.875 341.663 438.929C398.179 437.197 452.637 448.383 506.998 461.276C515.018 463.178 523.037 465.118 531.06 467.058C543.585 470.088 556.12 473.12 568.687 476.016Z" fill="black"/>
<path d="M569.738 496.377C569.723 495.925 569.708 495.472 569.692 495.019C556.157 491.648 542.669 488.068 529.185 484.49C522.322 482.668 515.46 480.847 508.593 479.054C454.496 464.927 400.138 452.534 342.902 455.456C262.284 459.556 181.378 470.802 100.592 483.291C83.1284 485.991 65.6706 488.748 48.2225 491.505L48.2188 491.505C-15.053 501.5 -78.1966 511.475 -141.042 518.592C-183.706 523.433 -213.294 545.532 -242.124 568.168C-243.372 569.147 -244.618 570.127 -245.863 571.107C-273.432 592.799 -300.779 614.316 -338.824 621.383C-377.384 628.54 -414.847 620.037 -451.89 605.085C-451.798 605.592 -451.706 606.099 -451.613 606.606C-414.685 621.42 -377.203 629.835 -338.586 622.668C-300.216 615.541 -272.636 593.838 -245.116 572.183C-243.85 571.186 -242.584 570.19 -241.317 569.195C-212.485 546.558 -183.155 524.685 -140.895 519.89C-78.0176 512.769 -14.8364 502.789 48.44 492.793C65.885 490.037 83.3372 487.28 100.792 484.582C181.57 472.095 262.421 460.857 342.969 456.761C399.986 453.85 454.173 466.193 508.263 480.318C515.121 482.109 521.978 483.929 528.838 485.75L528.84 485.75C542.443 489.36 556.062 492.975 569.738 496.377Z" fill="black"/>
<path d="M569.992 516.826C569.995 516.379 569.998 515.933 570 515.486C557.612 512.584 545.245 509.544 532.879 506.504C524.078 504.34 515.278 502.176 506.47 500.063C451.766 486.936 396.824 475.757 340.058 478.641C230.995 484.158 120.254 500.287 10.5419 516.265C-37.629 523.281 -85.6014 530.268 -133.146 536.315C-175.736 541.728 -207.488 563.767 -238.612 586.154C-239.675 586.919 -240.737 587.684 -241.799 588.449C-271.861 610.098 -301.652 631.552 -340.519 638.477C-376.913 644.96 -412.6 637.794 -447.977 624.596C-447.865 625.104 -447.752 625.61 -447.639 626.117C-412.385 639.175 -376.709 646.251 -340.289 639.763C-301.123 632.785 -271.114 611.172 -241.107 589.561C-240.021 588.778 -238.935 587.996 -237.848 587.215C-206.711 564.818 -175.204 542.978 -132.981 537.611C-85.3851 531.557 -37.384 524.566 10.8018 517.548L10.8042 517.548C120.486 501.574 231.125 485.46 340.124 479.946C396.688 477.072 451.473 488.21 506.165 501.333C514.955 503.443 523.744 505.603 532.537 507.765L532.542 507.767C545.01 510.832 557.488 513.9 569.992 516.826Z" fill="black"/>
<path d="M569.329 539.753C569.351 539.314 569.373 538.874 569.394 538.435C556.878 536.015 544.374 533.49 531.869 530.965C519.5 528.468 507.131 525.97 494.751 523.574C437.171 512.432 379.386 503.502 320.436 507.107C174.358 516.043 23.8503 532.622 -121.11 552.486C-163.467 558.285 -197.087 578.286 -230.062 598.946C-231.96 600.135 -233.855 601.326 -235.749 602.516C-266.81 622.034 -297.702 641.446 -335.334 649.631C-372.094 657.613 -408.316 652.003 -444.273 640.199C-444.146 640.699 -444.018 641.2 -443.89 641.7C-408.05 653.372 -371.84 658.895 -335.057 650.908C-297.193 642.672 -266.118 623.144 -235.097 603.65C-233.187 602.45 -231.278 601.25 -229.368 600.053C-196.389 579.391 -162.982 559.537 -120.933 553.78C24.0059 533.919 174.479 517.344 320.516 508.411C379.292 504.816 436.942 513.718 494.502 524.857C506.857 527.248 519.208 529.742 531.566 532.237L531.571 532.238C544.147 534.778 556.73 537.319 569.329 539.753Z" fill="black"/>
<path d="M567.538 563.842C567.58 563.408 567.622 562.974 567.664 562.54C554.717 560.687 541.771 558.756 528.823 556.824L528.815 556.823C514.915 554.749 501.011 552.675 487.1 550.696C428.682 542.388 370.141 535.772 311.217 538.008C172.62 543.251 28.3476 549.971 -109.282 567.069C-152.988 572.494 -189.915 591.558 -226.328 611.238C-228.328 612.32 -230.327 613.403 -232.325 614.485C-266.73 633.127 -300.978 651.683 -340.491 659.338C-374.576 665.93 -407.89 662.049 -440.845 652.996C-440.707 653.486 -440.568 653.976 -440.429 654.465C-407.588 663.405 -374.311 667.21 -340.243 660.621C-300.526 652.926 -266.113 634.28 -231.747 615.658L-231.737 615.653C-229.727 614.563 -227.717 613.474 -225.706 612.388C-189.284 592.702 -152.554 573.757 -109.12 568.365C28.4476 551.275 172.671 544.556 311.266 539.314C370.068 537.083 428.513 543.684 486.916 551.99C500.809 553.966 514.702 556.038 528.597 558.111L528.6 558.112C541.577 560.048 554.556 561.984 567.538 563.842Z" fill="black"/>
<path d="M564.346 589.706C564.411 589.273 564.475 588.841 564.538 588.408C550.953 587.569 537.36 586.719 523.762 585.869L523.754 585.869C317.41 572.971 109.629 559.983 -96.4124 580.874C-142.079 585.502 -182.655 603.204 -222.821 621.574C-225.196 622.66 -227.569 623.748 -229.941 624.837C-267.731 642.167 -305.4 659.442 -346.977 666.46C-377.996 671.698 -408.17 669.344 -437.935 662.934C-437.791 663.411 -437.645 663.888 -437.499 664.364C-407.844 670.683 -377.73 672.978 -346.76 667.748C-305.005 660.7 -267.189 643.357 -229.434 626.042L-229.341 625.999C-226.987 624.919 -224.632 623.839 -222.277 622.762C-182.101 604.388 -141.706 586.777 -96.2805 582.174C109.644 561.294 317.295 574.274 523.636 587.171L523.651 587.172C537.222 588.02 550.787 588.868 564.346 589.706Z" fill="black"/>
<path d="M560.187 613.67C560.273 613.236 560.359 612.802 560.444 612.367C538.766 612.072 517.089 611.835 495.413 611.599H495.409C425.741 610.838 356.085 610.078 286.443 607.38C247.864 605.887 208.656 603.17 169.223 600.437C84.9427 594.596 -0.366805 588.684 -82.7618 594.496C-130.719 597.882 -175.308 613.096 -219.545 629.508C-224.569 631.372 -229.588 633.251 -234.607 635.13C-273.806 649.806 -312.995 664.479 -354.371 671.815C-381.632 676.64 -408.486 675.873 -435.128 671.879C-434.978 672.342 -434.827 672.805 -434.676 673.267C-408.137 677.193 -381.349 677.917 -354.142 673.101C-312.64 665.743 -273.334 651.026 -234.149 636.354C-229.128 634.474 -224.11 632.595 -219.09 630.733C-174.857 614.323 -130.422 599.171 -82.6698 595.8C-0.365901 589.994 84.7831 595.896 169.014 601.734L169.018 601.734C208.473 604.468 247.727 607.189 286.393 608.686C356.037 611.384 425.741 612.145 495.436 612.906L495.447 612.906C517.029 613.142 538.61 613.377 560.187 613.67Z" fill="black"/>
<path d="M554.604 638.579C554.715 638.137 554.825 637.694 554.935 637.251C535.943 638.354 516.938 639.647 497.933 640.939L497.923 640.94C483.564 641.917 469.204 642.893 454.848 643.788C393.785 647.595 332.784 649.927 272.144 644.523C231.059 640.854 189.401 634.524 147.54 628.163C132.348 625.854 117.13 623.542 101.903 621.351C44.7364 613.126 -12.5297 606.621 -68.8485 608.524C-119.288 610.226 -168.007 623.207 -216.434 637.699C-224.058 639.981 -231.675 642.3 -239.29 644.619C-280.066 657.033 -320.796 669.433 -362.411 676.021C-386.229 679.791 -409.762 679.958 -433.138 677.891C-432.986 678.342 -432.833 678.793 -432.68 679.243C-409.405 681.264 -385.952 681.07 -362.207 677.312C-320.493 670.708 -279.663 658.277 -238.889 645.862C-231.279 643.545 -223.67 641.229 -216.059 638.951C-167.64 624.461 -119.061 611.525 -68.8043 609.83C-12.6062 607.931 44.5656 614.421 101.717 622.644C116.92 624.832 132.124 627.142 147.308 629.449L147.31 629.45C189.183 635.812 230.9 642.152 272.028 645.825C332.771 651.238 393.854 648.9 454.93 645.092C469.305 644.196 483.679 643.218 498.048 642.241C516.911 640.958 535.765 639.676 554.604 638.579Z" fill="black"/>
<path d="M547.748 663.294C547.887 662.837 548.026 662.38 548.164 661.922C528.613 664.46 508.988 667.368 489.338 670.28C473.788 672.584 458.222 674.89 442.666 677.017C380.305 685.544 318.055 691.199 257.331 682.371C216.466 676.418 175.498 666.09 134.381 655.725L134.378 655.725C123.521 652.988 112.654 650.248 101.776 647.586C49.7219 634.847 -2.56385 623.884 -55.0436 623.514C-107.987 623.144 -160.838 633.757 -213.469 646.191C-224.321 648.755 -235.162 651.396 -245.993 654.034C-287.717 664.198 -329.288 674.324 -370.707 679.859C-391.11 682.593 -411.36 683.28 -431.519 682.609C-431.365 683.05 -431.211 683.49 -431.056 683.931C-411.002 684.576 -390.847 683.876 -370.533 681.154C-329.039 675.609 -287.381 665.461 -245.65 655.296L-245.647 655.295C-234.825 652.659 -223.999 650.021 -213.169 647.463C-160.551 635.032 -107.829 624.452 -55.0527 624.821C-2.73577 625.189 49.4242 636.119 101.465 648.855C112.319 651.511 123.168 654.246 134.013 656.98L134.025 656.983C175.15 667.351 216.204 677.7 257.142 683.664C318.058 692.52 380.46 686.841 442.843 678.311C458.434 676.18 474.021 673.87 489.584 671.564C509.023 668.684 528.425 665.81 547.748 663.294Z" fill="black"/>
<path d="M539.631 687.713C539.803 687.236 539.974 686.759 540.145 686.281C520.415 690.161 500.485 694.577 480.473 699.011L480.47 699.011C462.074 703.087 443.608 707.179 425.163 710.884C359.305 724.112 293.663 732.429 232.085 717.714C197.588 709.473 162.796 695.974 127.711 682.361C117.504 678.401 107.272 674.431 97.016 670.578C51.5411 653.495 5.61174 638.728 -40.587 637.47C-93.7958 636.01 -148.947 644.115 -203.975 654.168C-219.037 656.92 -234.087 659.816 -249.086 662.703L-249.097 662.706C-288.919 670.371 -328.384 677.967 -366.746 682.59C-387.981 685.149 -409.104 686.269 -430.167 686.437C-430.012 686.872 -429.855 687.306 -429.699 687.74C-408.747 687.559 -387.725 686.434 -366.589 683.888C-328.179 679.258 -288.648 671.649 -248.811 663.982L-248.807 663.981L-248.804 663.98C-233.811 661.094 -218.776 658.2 -203.74 655.453C-148.727 645.403 -93.6883 637.32 -40.6228 638.776C5.3419 640.028 51.0958 654.724 96.5561 671.801C106.78 675.641 116.99 679.603 127.183 683.558C162.283 697.177 197.189 710.721 231.781 718.985C293.653 733.77 359.534 725.399 425.42 712.165C443.926 708.447 462.429 704.348 480.846 700.267L480.848 700.267C500.574 695.896 520.203 691.547 539.631 687.713Z" fill="black"/>
<path d="M530.315 711.642C530.525 711.141 530.734 710.639 530.942 710.137C510.663 715.245 490.133 721.047 469.5 726.879L469.498 726.879C451.092 732.081 432.602 737.307 414.134 742.084C347.245 759.387 280.575 770.836 218.693 754.306C183.158 744.814 149.452 726.776 115.605 708.662C109.516 705.404 103.422 702.143 97.3122 698.928C57.2811 677.869 16.5858 658.839 -27.8184 655.968C-83.3123 652.364 -142.153 657.955 -200.978 665.663C-219.92 668.145 -238.857 670.846 -257.681 673.531L-257.683 673.531C-297.342 679.188 -336.5 684.773 -374.15 688.089C-392.202 689.676 -410.251 690.791 -428.301 691.567C-428.143 691.996 -427.983 692.425 -427.823 692.854C-409.892 692.077 -391.962 690.967 -374.035 689.391C-336.35 686.071 -297.131 680.478 -257.451 674.818C-238.636 672.135 -219.717 669.436 -200.809 666.959C-142.001 659.253 -83.264 653.676 -27.9032 657.271C16.1991 660.123 56.6777 679.028 96.7033 700.085C102.795 703.289 108.877 706.544 114.959 709.8C148.801 727.912 182.661 746.034 218.355 755.568C280.589 772.192 347.547 760.658 414.461 743.349C433 738.553 451.532 733.316 469.963 728.107C490.245 722.375 510.404 716.678 530.315 711.642Z" fill="black"/>
<path d="M519.151 736.444C519.41 735.908 519.667 735.372 519.924 734.835C515.387 736.245 510.83 737.696 506.254 739.179C491.478 743.966 476.533 749.077 461.49 754.222L461.486 754.224C442.421 760.744 423.197 767.319 403.953 773.359C335.133 794.961 266.626 809.532 206.502 789.722C172.938 778.661 142.966 758.093 112.896 737.458C107.835 733.985 102.771 730.511 97.6875 727.079C62.4389 703.286 26.239 681.591 -16.6039 677.346C-74.2161 671.654 -136.285 674.566 -198.449 679.703C-221.627 681.618 -244.811 683.842 -267.784 686.046L-267.786 686.046L-267.79 686.046C-306.458 689.756 -344.529 693.408 -380.962 695.434C-395.924 696.269 -410.876 697.177 -425.822 698.134C-425.657 698.56 -425.493 698.986 -425.327 699.412C-410.516 698.465 -395.704 697.565 -380.89 696.739C-344.435 694.711 -306.31 691.054 -267.617 687.343L-267.61 687.342C-244.644 685.139 -221.478 682.917 -198.342 681.005C-136.196 675.869 -74.223 672.966 -16.7325 678.646C25.7543 682.855 61.7151 704.374 96.9559 728.162C102.022 731.582 107.075 735.049 112.129 738.518C142.19 759.149 172.337 779.838 206.092 790.963C266.649 810.915 335.519 796.209 404.344 774.606C423.579 768.568 442.855 761.976 461.952 755.445L461.958 755.443C477.005 750.298 491.94 745.19 506.657 740.421C510.839 739.067 515.004 737.739 519.151 736.444Z" fill="black"/>
<path d="M505.937 761.978C506.258 761.399 506.577 760.82 506.895 760.24C504.594 761.074 502.286 761.919 499.972 762.774C484.909 768.337 469.598 774.297 454.143 780.313C434.724 787.873 415.077 795.521 395.408 802.581C324.798 827.925 254.56 845.424 196.038 823.255C163.917 811.086 137.37 788.962 110.781 766.803L110.777 766.8C106.497 763.234 102.217 759.666 97.9116 756.139C66.8981 730.732 34.6444 707.462 -7.46353 702.232C-93.2678 691.565 -189.164 696.354 -281.215 700.952C-317.311 702.755 -352.816 704.528 -386.889 705.328C-398.762 705.606 -410.573 706.162 -422.336 706.935C-422.162 707.36 -421.989 707.785 -421.815 708.21C-410.213 707.453 -398.565 706.908 -386.858 706.634C-352.707 705.832 -317.154 704.057 -281.031 702.252L-281.029 702.252C-189.021 697.657 -93.3084 692.877 -7.62491 703.528C34.0824 708.709 66.0844 731.755 97.0829 757.15C101.373 760.664 105.644 764.224 109.92 767.788C136.497 789.94 163.232 812.223 195.575 824.477C254.594 846.834 325.26 829.148 395.85 803.811C415.504 796.756 435.203 789.088 454.654 781.517L454.658 781.515L454.664 781.513C470.123 775.495 485.426 769.538 500.425 763.999C502.267 763.319 504.104 762.645 505.937 761.978Z" fill="black"/>
<path d="M495.295 780.302C495.64 779.734 495.985 779.165 496.329 778.595C462.245 789.562 429.046 802.676 394.84 816.189C386.855 819.343 378.816 822.519 370.697 825.694C366.151 827.474 361.539 829.31 356.87 831.169C332.597 840.832 306.773 851.113 280.597 857.325C249.398 864.73 217.782 866.33 187.814 854.236C156.468 841.58 132.669 819.033 108.9 796.516C105.215 793.024 101.53 789.533 97.8177 786.08C70.2012 760.39 41.1123 736.837 -0.881001 731.14C-96.7367 718.102 -202.611 718.33 -303.831 718.547H-303.835C-333.655 718.611 -363.07 718.674 -391.706 718.397C-400.321 718.314 -408.852 718.476 -417.313 718.846C-417.126 719.274 -416.938 719.702 -416.75 720.13C-408.477 719.776 -400.138 719.622 -391.719 719.704C-363.044 719.981 -333.603 719.918 -303.766 719.854C-202.562 719.637 -96.8144 719.41 -1.05728 732.435C40.506 738.073 69.3378 761.371 96.9271 787.036C100.624 790.475 104.299 793.958 107.98 797.446C131.735 819.955 155.73 842.691 187.324 855.447C217.64 867.682 249.56 866.034 280.899 858.597C307.177 852.36 333.106 842.037 357.377 832.374L357.38 832.373C362.042 830.516 366.643 828.685 371.173 826.911C379.295 823.734 387.336 820.558 395.319 817.405C429.054 804.079 461.768 791.156 495.295 780.302Z" fill="black"/>
<path d="M478.758 805.751C479.182 805.137 479.606 804.523 480.028 803.908C450.842 814.332 422.221 826.366 392.749 838.758L392.741 838.762C384.119 842.387 375.424 846.043 366.621 849.698C362.76 851.299 358.823 852.953 354.817 854.635C330.497 864.849 303.679 876.111 276.37 883.131C244.568 891.307 212.19 893.704 182.414 882.034C151.119 869.773 129.05 848.118 107.091 826.57L107.089 826.568C103.832 823.372 100.577 820.179 97.295 817.018C71.9094 792.574 44.9348 770.193 2.69842 764.701C-126.325 747.972 -264.615 741.141 -394.971 735.345C-400.001 735.123 -404.984 735.01 -409.925 734.996C-409.716 735.432 -409.506 735.869 -409.296 736.305C-404.58 736.326 -399.825 736.438 -395.029 736.65C-264.668 742.446 -126.431 749.276 2.53002 765.996C44.3303 771.432 71.0468 793.558 96.3881 817.959C99.6554 821.105 102.901 824.29 106.153 827.482L106.158 827.487C128.104 849.027 150.375 870.885 181.937 883.251C212.077 895.063 244.768 892.605 276.695 884.397C304.106 877.35 331.021 866.046 355.337 855.834C359.339 854.153 363.271 852.502 367.123 850.904C375.933 847.246 384.632 843.589 393.255 839.963L393.259 839.962C422.161 827.81 450.211 816.016 478.758 805.751Z" fill="black"/>
<path d="M458.154 833.474C458.69 832.802 459.224 832.128 459.756 831.453C437.741 839.945 415.866 849.218 393.491 858.704C384.542 862.498 375.512 866.326 366.361 870.151C362.967 871.57 359.508 873.029 355.99 874.513C331.389 884.893 303.941 896.473 275.942 903.793C243.943 912.158 211.311 914.932 181.477 904.032C150.025 892.546 128.104 872.143 106.32 851.867C103.212 848.974 100.107 846.084 96.9779 843.223C71.9306 820.324 45.3646 799.337 3.39592 794.161C-127.525 778.026 -263.031 764.032 -394.883 755.281C-396.532 755.172 -398.175 755.075 -399.813 754.99C-399.573 755.439 -399.333 755.888 -399.092 756.337C-397.721 756.411 -396.347 756.493 -394.97 756.585C-263.149 765.334 -127.669 779.325 3.23592 795.458C44.7869 800.583 71.0994 821.334 96.0956 844.187C99.2104 847.035 102.306 849.917 105.408 852.805L105.416 852.812C127.188 873.081 149.31 893.676 181.028 905.26C211.22 916.29 244.155 913.453 276.273 905.057C304.371 897.711 331.912 886.091 356.506 875.714C360.022 874.231 363.477 872.773 366.866 871.356C376.024 867.528 385.058 863.698 394.009 859.904C415.684 850.716 436.87 841.735 458.154 833.474Z" fill="black"/>
<path d="M431.969 863.859C432.656 863.121 433.342 862.38 434.026 861.638C420.978 866.796 407.888 872.128 394.639 877.525C386.335 880.907 377.968 884.315 369.509 887.722C365.673 889.266 361.764 890.858 357.792 892.475C333.343 902.43 306.481 913.368 279.129 920.3C247.337 928.356 214.968 930.976 185.054 920.386C153.685 909.3 130.957 889.664 108.328 870.113L108.325 870.11C105.209 867.418 102.095 864.727 98.9598 862.061C73.0808 840.047 45.856 819.738 4.84388 814.21C-124.047 796.857 -256.892 782.088 -386.709 771.454C-388.082 771.341 -389.452 771.238 -390.818 771.144C-390.553 771.599 -390.288 772.055 -390.022 772.509C-388.955 772.586 -387.887 772.668 -386.816 772.756C-257.024 783.388 -124.202 798.154 4.66941 815.505C45.293 820.98 72.2765 841.079 98.1126 863.056C101.238 865.715 104.348 868.402 107.464 871.094C130.079 890.637 153.001 910.444 184.618 921.618C214.878 932.331 247.54 929.653 279.45 921.566C306.898 914.61 333.853 903.634 358.297 893.681C362.266 892.064 366.169 890.475 369.998 888.934C378.461 885.525 386.83 882.117 395.132 878.735C407.524 873.687 419.77 868.699 431.969 863.859Z" fill="black"/>
<path d="M378.113 913.998C379.17 913.145 380.224 912.288 381.275 911.427C314.583 936.38 248.497 953.139 191.32 934.263C159.792 923.863 135.837 905.421 111.933 887.018C108.866 884.657 105.799 882.296 102.718 879.953C75.6437 859.367 47.4492 840.191 7.47411 834.333C-118.196 815.946 -245.867 798.26 -372.212 784.525C-375.961 784.118 -379.687 783.788 -383.391 783.53C-383.108 783.987 -382.824 784.444 -382.54 784.901C-379.163 785.146 -375.768 785.453 -372.353 785.824C-246.033 799.556 -118.38 817.24 7.28475 835.625C46.9138 841.433 74.8853 860.432 101.927 880.993C105.001 883.331 108.064 885.689 111.132 888.051C135.02 906.444 159.157 925.029 190.91 935.504C247.505 954.188 312.618 938.214 378.113 913.998Z" fill="black"/>
<path d="M340.443 941.658C341.576 940.902 342.706 940.142 343.833 939.378C293.59 953.274 244.565 959.285 199.872 945.962C167.925 936.449 142.297 919.539 116.663 902.625C113.785 900.726 110.905 898.826 108.018 896.938C79.4352 878.24 49.9976 860.589 11.1392 854.382C-33.7256 847.227 -78.5917 839.717 -123.474 832.205L-123.477 832.204C-199.93 819.408 -276.43 806.603 -353.054 795.53C-361.19 794.352 -369.26 793.584 -377.271 793.179C-376.978 793.631 -376.683 794.082 -376.388 794.533C-368.727 794.949 -361.015 795.698 -353.242 796.823C-276.629 807.895 -200.157 820.695 -123.716 833.489L-123.699 833.492C-78.8184 841.004 -33.9483 848.514 10.9333 855.672C49.4996 861.832 78.74 879.347 107.302 898.031C110.178 899.912 113.047 901.805 115.918 903.7L115.948 903.72C141.565 920.624 167.355 937.642 199.498 947.214C243.399 960.301 291.378 954.856 340.443 941.658Z" fill="black"/>
<path d="M310.218 960.341C311.266 959.742 312.312 959.139 313.356 958.533C277.844 964.185 243.128 964.676 210.081 956.108C176.948 947.509 148.406 932.277 119.729 916.973L119.727 916.972C117.886 915.989 116.044 915.006 114.201 914.025C83.6616 897.766 52.6402 881.912 15.5601 874.507C-16.4118 868.114 -48.385 861.653 -80.3652 855.19L-80.3743 855.188C-163.813 838.327 -247.299 821.455 -330.938 805.761C-344.465 803.223 -357.996 801.993 -371.525 801.828C-371.227 802.268 -370.927 802.708 -370.627 803.147C-357.473 803.355 -344.322 804.579 -331.179 807.045C-247.549 822.738 -164.075 839.607 -80.6395 856.468L-80.6279 856.47L-80.566 856.483C-48.6063 862.941 -16.6518 869.399 15.3036 875.789C52.176 883.152 83.0463 898.919 113.586 915.178C115.439 916.164 117.29 917.152 119.141 918.14C147.793 933.432 176.463 948.733 209.753 957.373C241.97 965.726 275.735 965.518 310.218 960.341Z" fill="black"/>
<path d="M289.338 971.64C290.272 971.163 291.205 970.682 292.136 970.198C268.213 971.452 244.61 970.11 221.507 965.073C187.024 957.56 155.512 944.056 123.824 930.476L121.682 929.557C89.2875 915.678 56.6394 901.862 20.4748 894.518C-49.2584 880.363 -118.44 863.01 -187.594 845.664L-187.604 845.661C-227.566 835.637 -267.519 825.616 -307.563 816.215C-326.314 811.808 -345.564 810.323 -365.137 811.021C-364.834 811.447 -364.53 811.873 -364.226 812.297C-345.054 811.676 -326.212 813.174 -307.863 817.487C-267.858 826.878 -227.921 836.896 -187.963 846.919L-187.96 846.919C-118.782 864.271 -49.5422 881.639 20.2145 895.798C56.2292 903.112 88.7604 916.874 121.167 930.758L123.352 931.695C155.009 945.262 186.621 958.81 221.229 966.35C243.535 971.212 266.294 972.649 289.338 971.64Z" fill="black"/>
<path d="M274.834 978.775C275.698 978.367 276.56 977.957 277.421 977.544C265.892 977.251 254.389 976.374 242.918 974.811C206.035 969.782 170.605 957.731 135.084 945.177C132.723 944.343 130.363 943.507 128.001 942.67C94.8421 930.921 61.5162 919.114 26.8557 912.606C-27.6973 902.369 -81.0024 885.933 -134.31 869.341L-138.163 868.142C-190.175 851.949 -242.22 835.746 -295.396 825.182C-315.095 821.269 -335.7 820.6 -356.883 822.301C-356.573 822.714 -356.261 823.126 -355.95 823.538C-335.164 821.928 -314.962 822.628 -295.65 826.463C-242.543 837.014 -190.556 853.199 -138.523 869.398L-134.699 870.588C-81.4003 887.178 -28.0248 903.637 26.6146 913.89C61.1711 920.378 94.406 932.153 127.586 943.909C129.94 944.743 132.294 945.577 134.648 946.409C170.161 958.96 205.709 971.056 242.741 976.106C253.414 977.56 264.114 978.422 274.834 978.775Z" fill="black"/>
<path d="M261.941 984.651C262.774 984.285 263.606 983.918 264.436 983.548C261.406 983.305 258.376 983.026 255.347 982.709C218.277 978.82 181.029 969.731 143.82 959.847C136.965 958.025 130.11 956.177 123.258 954.329L123.191 954.311L123.186 954.31C92.8891 946.14 62.6461 937.985 32.6205 932.248C-19.5768 922.272 -70.3078 905.073 -120.982 887.383C-124.562 886.133 -128.143 884.881 -131.723 883.628C-178.801 867.16 -225.917 850.678 -274.136 839.621C-297.744 834.199 -321.052 834.749 -344.104 838.59C-343.786 838.979 -343.467 839.368 -343.148 839.756C-320.46 836.047 -297.577 835.578 -274.429 840.895C-226.285 851.935 -179.237 868.392 -132.145 884.865L-132.086 884.886C-128.529 886.13 -124.971 887.374 -121.413 888.617C-70.7438 906.305 -19.9288 923.534 32.375 933.531C62.3469 939.258 92.5308 947.397 122.825 955.566L122.829 955.567L122.874 955.579C129.739 957.43 136.609 959.283 143.485 961.109C180.699 970.995 218.032 980.108 255.21 984.009C257.454 984.243 259.698 984.457 261.941 984.651Z" fill="black"/>
<path d="M248.061 990.504C248.921 990.156 249.78 989.806 250.638 989.454C199.43 984.313 146.285 973.588 94.6593 963.169C75.5728 959.318 56.6932 955.508 38.1965 952.037C-9.62818 943.063 -56.1539 924.6 -102.725 906.118L-105.208 905.133C-106.496 904.622 -107.783 904.112 -109.071 903.601C-157.739 884.309 -206.52 865.469 -256.825 857.999C-279.785 854.589 -303.733 854.58 -328.294 857.032C-327.932 857.434 -327.57 857.836 -327.207 858.237C-303.074 855.89 -279.561 855.943 -257.017 859.291C-206.884 866.736 -158.238 885.517 -109.553 904.816C-107.424 905.66 -105.295 906.504 -103.165 907.349C-56.6284 925.817 -9.99632 944.323 37.9553 953.321C56.4099 956.784 75.2608 960.588 94.3296 964.436L94.3371 964.438C145.158 974.694 197.526 985.263 248.061 990.504Z" fill="black"/>
<path d="M228.548 997.937C229.531 997.586 230.512 997.231 231.492 996.874C168.637 991.645 103.228 982.521 43.1013 972.009C-4.60223 963.683 -50.8651 945.562 -97.1715 927.425L-100.937 925.95C-148.478 907.337 -196.104 888.987 -245.299 881.59C-265.163 878.604 -285.834 878.026 -307.054 879.295C-306.636 879.708 -306.218 880.119 -305.799 880.531C-285.073 879.357 -264.892 879.966 -245.493 882.882C-196.467 890.253 -148.974 908.546 -101.414 927.166L-97.5967 928.661L-97.5946 928.662C-51.3282 946.784 -4.95808 964.947 42.8764 973.296C102.126 983.654 166.514 992.668 228.548 997.937Z" fill="black"/>
<path d="M201.03 1006.91C202.348 1006.52 203.663 1006.13 204.976 1005.73C152.468 1004.12 99.8904 1000.11 47.1485 992.239C-0.919032 985.06 -47.739 968.661 -94.6034 952.246L-94.6056 952.245L-96.9566 951.422C-144.585 934.742 -192.279 918.206 -241.282 911.568C-252.114 910.104 -263.152 909.255 -274.359 908.945C-273.815 909.398 -273.269 909.85 -272.722 910.301C-262.134 910.646 -251.702 911.478 -241.457 912.863C-192.608 919.48 -145.036 935.968 -97.3888 952.655L-94.9856 953.496C-48.1588 969.898 -1.23706 986.333 46.9553 993.531C98.4484 1001.21 149.779 1005.22 201.03 1006.91Z" fill="black"/>
<path d="M126.359 1023C128.511 1022.7 130.659 1022.39 132.803 1022.07C104.573 1020.48 76.4234 1018.17 48.3826 1014.94C-0.43707 1009.31 -48.6809 995.49 -97.0018 981.645L-97.456 981.515C-99.4671 980.939 -101.478 980.363 -103.49 979.787C-139.989 969.342 -176.548 959.094 -213.403 952.592C-212.37 953.223 -211.333 953.852 -210.295 954.477C-174.654 960.984 -139.256 970.911 -103.85 981.043C-101.675 981.665 -99.5008 982.288 -97.3262 982.911C-49.0349 996.748 -0.696109 1010.6 48.2328 1016.24C74.1907 1019.23 100.24 1021.43 126.359 1023Z" fill="black"/>
</svg>
