<svg width="182" height="150" viewBox="0 0 182 150" fill="none" xmlns="http://www.w3.org/2000/svg">
<path d="M336.986 -337.606C333.261 -338.23 329.54 -338.865 325.819 -339.5C322.657 -340.04 319.496 -340.58 316.333 -341.112C314.994 -341.338 313.654 -341.562 312.315 -341.785C308.344 -342.274 304.348 -342.68 300.328 -343C305.63 -342.179 310.924 -341.307 316.215 -340.416C319.375 -339.884 322.535 -339.344 325.695 -338.805L325.697 -338.805C332.77 -337.598 339.85 -336.389 346.952 -335.256C343.653 -336.099 340.331 -336.883 336.986 -337.606Z" fill="black"/>
<path d="M398.554 -316.426C397.884 -316.749 397.213 -317.07 396.54 -317.388C392.642 -317.867 388.74 -318.32 384.833 -318.743C364.584 -320.939 344.934 -325.148 325.296 -329.354L325.291 -329.355C322.114 -330.036 318.938 -330.716 315.759 -331.388C292.938 -336.21 270.016 -340.587 246.124 -341.337C244.454 -341.389 242.786 -341.431 241.119 -341.462C239.585 -341.258 238.054 -341.043 236.528 -340.814C239.716 -340.791 242.907 -340.732 246.101 -340.631C269.926 -339.883 292.796 -335.519 315.613 -330.697C318.79 -330.025 321.966 -329.345 325.143 -328.665C344.779 -324.459 364.469 -320.241 384.757 -318.041C389.362 -317.542 393.961 -317.002 398.554 -316.426Z" fill="black"/>
<path d="M428.168 -299.831C427.711 -300.125 427.253 -300.418 426.794 -300.709C413.366 -302.345 400.005 -304.042 386.756 -305.789C365.473 -308.593 345.08 -314.16 324.706 -319.722L324.705 -319.722C321.399 -320.625 318.094 -321.527 314.785 -322.417C291.097 -328.792 267.254 -334.55 241.956 -335.309C228.974 -335.699 216.155 -335.027 203.427 -333.768C202.124 -333.406 200.824 -333.035 199.529 -332.654C213.539 -334.171 227.64 -335.032 241.935 -334.603C267.144 -333.846 290.918 -328.108 314.602 -321.735C317.906 -320.846 321.209 -319.944 324.514 -319.042C344.885 -313.481 365.33 -307.9 386.664 -305.089C400.395 -303.278 414.246 -301.521 428.168 -299.831Z" fill="black"/>
<path d="M447.51 -286.184C447.175 -286.442 446.84 -286.7 446.504 -286.956C427.119 -288.209 407.873 -289.925 388.971 -292.497C365.658 -295.671 343.726 -303.243 321.783 -310.819L321.779 -310.82C318.998 -311.78 316.216 -312.74 313.432 -313.692C288.692 -322.144 263.728 -329.89 236.63 -330.58C213.612 -331.16 191.566 -327.1 169.737 -322.009C168.499 -321.484 167.266 -320.951 166.037 -320.41C189.117 -325.914 212.329 -330.486 236.612 -329.874C263.592 -329.186 288.467 -321.475 313.204 -313.023C315.988 -312.072 318.77 -311.112 321.553 -310.151C343.488 -302.578 365.489 -294.982 388.876 -291.798C408.134 -289.177 427.753 -287.444 447.51 -286.184Z" fill="black"/>
<path d="M462.383 -273.873C462.122 -274.104 461.861 -274.336 461.599 -274.566C437.814 -274.18 414.241 -274.974 391.476 -278.904C367.349 -283.061 344.788 -292.418 322.224 -301.777L322.22 -301.779C318.778 -303.206 315.336 -304.634 311.889 -306.043C285.854 -316.684 259.51 -326.267 230.545 -326.748C204.028 -327.188 179.575 -319.749 155.375 -311.346C151.979 -310.167 148.589 -308.969 145.199 -307.771C141.633 -306.511 138.067 -305.251 134.495 -304.013C133.561 -303.449 132.631 -302.879 131.704 -302.304C136.296 -303.876 140.872 -305.493 145.444 -307.108L145.445 -307.109C148.833 -308.306 152.218 -309.502 155.606 -310.679C179.8 -319.08 204.15 -326.479 230.534 -326.041C259.355 -325.564 285.593 -316.028 311.622 -305.389C315.064 -303.982 318.504 -302.555 321.945 -301.128L321.946 -301.127C344.505 -291.77 367.145 -282.38 391.356 -278.208C414.427 -274.225 438.315 -273.457 462.383 -273.873Z" fill="black"/>
<path d="M473.646 -263.305C473.431 -263.518 473.216 -263.731 473 -263.943C446.301 -260.953 419.75 -259.775 394.12 -265.151C369.277 -270.352 345.971 -281.596 322.637 -292.852C318.489 -294.853 314.34 -296.855 310.181 -298.823C282.651 -311.852 254.713 -323.404 223.921 -323.515C196.948 -323.615 172.988 -313.939 149.415 -303.02C145.952 -301.416 142.497 -299.786 139.043 -298.155C127.535 -292.723 116.027 -287.29 104.201 -282.843C103.626 -282.382 103.054 -281.919 102.483 -281.453C115.045 -286.045 127.218 -291.791 139.358 -297.522C142.809 -299.152 146.257 -300.78 149.711 -302.379C173.276 -313.294 197.113 -322.908 223.918 -322.808C254.541 -322.699 282.355 -311.21 309.88 -298.184C314.028 -296.221 318.169 -294.223 322.313 -292.224L322.315 -292.223C345.646 -280.967 369.041 -269.68 393.975 -264.46C419.896 -259.023 446.731 -260.266 473.646 -263.305Z" fill="black"/>
<path d="M482.669 -253.932C482.485 -254.133 482.3 -254.333 482.114 -254.534C453.587 -248.341 425.088 -244.376 396.823 -251.298C371.075 -257.603 346.811 -270.709 322.481 -283.85C317.79 -286.384 313.097 -288.919 308.39 -291.407C279.295 -306.785 249.697 -320.351 217.081 -320.481C189.719 -320.591 166.162 -308.594 143.165 -294.991C139.543 -292.849 135.936 -290.667 132.33 -288.486C115.734 -278.449 99.1645 -268.427 81.3435 -262.34C80.9728 -261.969 80.6032 -261.596 80.2346 -261.223C98.6543 -267.29 115.712 -277.609 132.716 -287.894L132.717 -287.894C136.318 -290.072 139.916 -292.249 143.524 -294.383C166.513 -307.982 189.925 -319.884 217.078 -319.775C249.507 -319.645 278.971 -306.158 308.061 -290.782C312.754 -288.302 317.438 -285.772 322.123 -283.241L322.124 -283.24C346.453 -270.098 370.811 -256.94 396.656 -250.612C425.182 -243.626 453.912 -247.674 482.559 -253.908C482.596 -253.916 482.633 -253.924 482.669 -253.932Z" fill="black"/>
<path d="M490.194 -245.401C490.03 -245.595 489.865 -245.789 489.7 -245.982C487.937 -245.402 486.173 -244.831 484.409 -244.271C456.597 -235.445 428.694 -229.44 399.525 -237.504C373.054 -244.827 347.839 -259.764 322.493 -274.778C317.222 -277.901 311.945 -281.027 306.65 -284.088C275.924 -301.854 244.6 -317.438 210.36 -317.388C182.56 -317.347 159.389 -303.043 136.969 -286.82C133.285 -284.155 129.621 -281.438 125.961 -278.723L125.959 -278.722C107.314 -264.893 88.7473 -251.123 67.9212 -244.486C66.6308 -244.075 65.3362 -243.693 64.0375 -243.341C63.779 -243.03 63.5211 -242.718 63.2638 -242.405C64.8938 -242.829 66.5178 -243.297 68.1353 -243.813C89.0839 -250.489 107.763 -264.345 126.407 -278.174C130.061 -280.884 133.714 -283.594 137.382 -286.248C159.797 -302.467 182.806 -316.642 210.361 -316.681C244.395 -316.731 275.573 -301.241 306.297 -283.477C311.576 -280.425 316.842 -277.305 322.106 -274.186C347.453 -259.17 372.766 -244.174 399.337 -236.824C428.713 -228.702 456.782 -234.762 484.622 -243.598C486.48 -244.188 488.338 -244.79 490.194 -245.401Z" fill="black"/>
<path d="M496.679 -237.449C496.529 -237.64 496.378 -237.831 496.228 -238.022C492.97 -236.576 489.714 -235.156 486.455 -233.787C459.558 -222.49 432.403 -214.618 402.086 -223.831C374.996 -232.064 348.859 -248.711 322.51 -265.493L322.509 -265.494C316.691 -269.2 310.863 -272.912 305.012 -276.541C272.694 -296.588 239.691 -314.105 204.017 -313.835C175.772 -313.624 152.953 -297.096 131.081 -278.385C127.39 -275.228 123.727 -272.009 120.069 -268.794C112.874 -262.473 105.699 -256.168 98.365 -250.376C87.3073 -241.645 75.921 -234.108 63.6371 -229.492C59.3538 -227.881 55.0138 -226.675 50.6255 -225.822C50.4309 -225.546 50.2369 -225.27 50.0433 -224.993C54.7123 -225.858 59.3297 -227.118 63.8851 -228.83C76.2671 -233.484 87.7195 -241.07 98.8021 -249.822C106.15 -255.624 113.351 -261.952 120.555 -268.281L120.559 -268.285C124.212 -271.495 127.866 -274.706 131.54 -277.849C153.411 -296.559 176.056 -312.92 204.022 -313.129C239.474 -313.397 272.322 -295.988 304.64 -275.941C310.472 -272.323 316.287 -268.619 322.097 -264.918L322.099 -264.917C348.45 -248.132 374.689 -231.419 401.881 -223.155C432.442 -213.868 459.793 -221.822 486.728 -233.136C490.05 -234.532 493.365 -235.978 496.679 -237.449Z" fill="black"/>
<path d="M502.348 -229.975C502.208 -230.167 502.068 -230.358 501.927 -230.549C497.418 -228.041 492.92 -225.569 488.405 -223.215C462.442 -209.679 436.032 -200.114 404.406 -210.397C376.736 -219.397 349.733 -237.59 322.438 -255.98L322.435 -255.982C316.163 -260.207 309.876 -264.444 303.561 -268.581C269.802 -290.7 235.279 -309.985 198.351 -309.484C169.623 -309.093 147.145 -290.536 125.797 -269.583C122.142 -265.996 118.522 -262.34 114.909 -258.692L114.907 -258.69C107.951 -251.664 101.019 -244.664 93.9149 -238.23C83.126 -228.459 71.9749 -220.029 59.8145 -214.857C53.3493 -212.11 46.7448 -210.435 40.0333 -209.625C39.879 -209.37 39.7252 -209.115 39.5718 -208.86C46.5308 -209.651 53.3829 -211.357 60.0904 -214.207C72.3565 -219.423 83.5759 -227.914 94.3883 -237.707C101.506 -244.153 108.463 -251.179 115.429 -258.213C119.04 -261.859 122.652 -265.507 126.291 -269.079C147.644 -290.037 169.941 -308.391 198.361 -308.778C235.052 -309.275 269.412 -290.112 303.175 -267.99C309.469 -263.866 315.743 -259.638 322.008 -255.417C349.307 -237.024 376.415 -218.759 404.188 -209.726C436.091 -199.353 462.721 -209.027 488.731 -222.589C493.279 -224.96 497.811 -227.451 502.348 -229.975Z" fill="black"/>
<path d="M507.406 -222.838C507.273 -223.032 507.14 -223.226 507.006 -223.42C506.829 -223.304 506.652 -223.187 506.475 -223.071L506.474 -223.07C501.031 -219.492 495.625 -215.939 490.185 -212.59C465.101 -197.148 439.382 -186.109 406.464 -197.304C379.797 -206.364 353.852 -222.687 329.253 -238.163C322.903 -242.158 316.642 -246.097 310.483 -249.84C304.496 -253.48 298.047 -257.692 291.258 -262.125C279.966 -269.499 267.736 -277.485 255.139 -284.476C234.955 -295.676 213.721 -304.387 193.664 -304.016C164.355 -303.474 142.229 -283.185 121.396 -260.336C117.832 -256.427 114.307 -252.444 110.79 -248.47L110.789 -248.469C104.009 -240.809 97.2568 -233.18 90.3087 -226.173C79.7605 -215.536 68.796 -206.37 56.6738 -200.763C48.5061 -196.986 40.1269 -195.111 31.5992 -194.671C31.4726 -194.43 31.3463 -194.188 31.2204 -193.946C39.9698 -194.35 48.5772 -196.241 56.9698 -200.122C69.2043 -205.781 80.2388 -215.015 90.8096 -225.676C97.7709 -232.696 104.547 -240.352 111.336 -248.022C114.851 -251.993 118.369 -255.968 121.917 -259.86C142.76 -282.719 164.701 -302.774 193.677 -303.31C213.54 -303.677 234.638 -295.045 254.797 -283.858C267.381 -276.875 279.558 -268.922 290.828 -261.562C297.623 -257.124 304.089 -252.901 310.116 -249.236C316.254 -245.507 322.499 -241.578 328.839 -237.589C353.445 -222.108 379.483 -205.725 406.237 -196.635C439.46 -185.337 465.416 -196.512 490.555 -211.989C496.004 -215.343 501.42 -218.903 506.862 -222.48C507.043 -222.6 507.225 -222.719 507.406 -222.838Z" fill="black"/>
<path d="M511.988 -215.936C511.86 -216.135 511.733 -216.333 511.605 -216.531C511.002 -216.088 510.401 -215.645 509.8 -215.201C508.703 -214.391 507.608 -213.581 506.515 -212.771C501.53 -209.08 496.582 -205.417 491.597 -201.947C467.295 -185.031 442.206 -172.782 408.101 -184.61C380.818 -194.075 354.176 -211.331 329.047 -227.607L329.044 -227.608C322.429 -231.893 315.919 -236.109 309.529 -240.098C303.417 -243.917 296.81 -248.362 289.832 -253.057L289.831 -253.057C287.609 -254.553 285.349 -256.073 283.055 -257.607C273.564 -263.954 263.502 -270.522 253.172 -276.433C232.522 -288.249 210.752 -297.472 190.273 -297.031C160.267 -296.388 138.524 -274.774 118.203 -250.488C114.789 -246.407 111.415 -242.251 108.049 -238.104L108.048 -238.103C101.38 -229.89 94.7388 -221.709 87.86 -214.208C77.5128 -202.923 66.6637 -193.217 54.4549 -187.309C44.8078 -182.642 34.9196 -180.79 24.876 -180.931C24.7696 -180.697 24.6635 -180.463 24.5577 -180.229C34.8001 -180.045 44.9016 -181.903 54.7621 -186.673C67.0895 -192.639 78.0101 -202.421 88.3799 -213.73C95.2723 -221.247 101.938 -229.457 108.614 -237.681C111.978 -241.824 115.345 -245.971 118.744 -250.034C139.077 -274.335 160.634 -295.69 190.288 -296.325C210.566 -296.761 232.195 -287.623 252.822 -275.82C263.13 -269.921 273.175 -263.364 282.663 -257.019C284.952 -255.489 287.209 -253.97 289.43 -252.476L289.431 -252.475C296.412 -247.779 303.032 -243.325 309.156 -239.499C315.521 -235.525 322.015 -231.319 328.62 -227.041L328.622 -227.039C353.759 -210.758 380.497 -193.439 407.87 -183.943C442.3 -172.002 467.638 -184.41 492 -201.367C496.994 -204.843 501.952 -208.514 506.938 -212.205L506.952 -212.216C508.04 -213.021 509.128 -213.827 510.219 -214.633C510.808 -215.068 511.397 -215.502 511.988 -215.936Z" fill="black"/>
<path d="M516.236 -209.11C516.114 -209.313 515.991 -209.515 515.869 -209.718C512.553 -207.144 509.279 -204.529 506.024 -201.929C501.518 -198.33 497.047 -194.759 492.551 -191.364C480.722 -182.433 468.679 -174.685 455.205 -170.681C441.742 -166.681 426.831 -166.412 409.257 -172.476C381.653 -182.005 354.536 -199.94 329.143 -216.735L329.141 -216.737C322.298 -221.262 315.581 -225.705 309.013 -229.878C302.815 -233.814 296.127 -238.393 289.067 -243.225L289.058 -243.231C286.839 -244.751 284.582 -246.295 282.293 -247.853C272.723 -254.364 262.582 -261.099 252.162 -267.159C231.333 -279.273 209.338 -288.721 188.498 -288.269C157.608 -287.587 136.289 -265.156 116.485 -240.002C113.286 -235.939 110.127 -231.806 106.974 -227.68L106.972 -227.678C100.347 -219.008 93.7431 -210.367 86.8342 -202.465C76.6407 -190.807 65.8178 -180.802 53.358 -174.755C42.2864 -169.381 31.0115 -167.747 19.6179 -168.606C19.5267 -168.377 19.4358 -168.147 19.3452 -167.918C30.9158 -167.014 42.3902 -168.646 53.6659 -174.12C66.2507 -180.227 77.1475 -190.314 87.3652 -202C94.2891 -209.919 100.917 -218.592 107.55 -227.272C110.701 -231.394 113.853 -235.519 117.039 -239.565C136.855 -264.734 157.988 -286.889 188.514 -287.563C209.15 -288.01 231.002 -278.648 251.808 -266.548C262.205 -260.501 272.329 -253.778 281.896 -247.269C284.178 -245.716 286.429 -244.176 288.645 -242.659L288.66 -242.648L288.661 -242.648C295.723 -237.813 302.426 -233.225 308.635 -229.282C315.177 -225.125 321.877 -220.694 328.708 -216.175L328.709 -216.175C354.111 -199.373 381.33 -181.369 409.027 -171.808C426.737 -165.698 441.799 -165.961 455.406 -170.004C469.003 -174.045 481.128 -181.854 492.976 -190.8C497.506 -194.22 501.989 -197.801 506.499 -201.404C509.722 -203.978 512.959 -206.564 516.236 -209.11Z" fill="black"/>
<path d="M520.613 -201.58C520.497 -201.787 520.381 -201.994 520.264 -202.201C515.567 -198.664 510.967 -195.003 506.402 -191.37C501.856 -187.752 497.346 -184.162 492.811 -180.752C480.972 -171.851 468.924 -164.139 455.473 -160.175C442.032 -156.214 427.171 -155.989 409.697 -162.098C382.055 -171.758 354.896 -189.413 329.345 -206.023C322.373 -210.555 315.521 -215.009 308.812 -219.202C302.442 -223.184 295.549 -227.845 288.266 -232.769L288.264 -232.77L288.252 -232.779C286.194 -234.17 284.104 -235.583 281.987 -237.007C272.375 -243.473 262.191 -250.174 251.735 -256.22C230.834 -268.306 208.801 -277.803 188.043 -277.532C157.049 -277.12 135.859 -254.561 116.211 -229.228C113.041 -225.14 109.911 -220.98 106.786 -216.826L106.783 -216.823C100.21 -208.087 93.6579 -199.378 86.7918 -191.423C76.6654 -179.69 65.8918 -169.64 53.4382 -163.619C40.9656 -157.585 28.3232 -156.247 15.5916 -157.851C15.5119 -157.624 15.4325 -157.397 15.3534 -157.17C28.2435 -155.522 41.0754 -156.854 53.7452 -162.983C66.3264 -169.066 77.1751 -179.2 87.3258 -190.961C94.207 -198.934 100.784 -207.675 107.365 -216.422L107.371 -216.43C110.492 -220.577 113.613 -224.726 116.769 -228.795C136.428 -254.144 157.431 -276.419 188.052 -276.826C208.61 -277.094 230.504 -267.681 251.382 -255.608C261.816 -249.575 271.984 -242.885 281.593 -236.421C283.711 -234.997 285.802 -233.583 287.863 -232.189L287.864 -232.188C295.149 -227.263 302.056 -222.593 308.438 -218.603C315.122 -214.426 321.956 -209.983 328.916 -205.459L328.917 -205.458C354.477 -188.842 381.733 -171.123 409.465 -161.431C427.075 -155.275 442.087 -155.494 455.672 -159.498C469.246 -163.498 481.376 -171.271 493.234 -180.187C497.804 -183.623 502.327 -187.223 506.877 -190.845C511.405 -194.449 515.959 -198.074 520.613 -201.58Z" fill="black"/>
<path d="M525.106 -193.235C524.997 -193.446 524.888 -193.657 524.779 -193.867C520.257 -190.775 515.823 -187.562 511.429 -184.344C510.368 -183.566 509.31 -182.789 508.253 -182.012C503.23 -178.323 498.248 -174.663 493.229 -171.201C468.937 -154.442 443.893 -142.376 409.937 -154.314C382.243 -164.048 355.165 -180.517 329.306 -196.245L329.305 -196.245C322.175 -200.582 315.137 -204.862 308.205 -208.929C301.384 -212.932 293.926 -217.714 286.021 -222.784C284.385 -223.833 282.73 -224.894 281.058 -225.964C271.306 -232.198 260.964 -238.7 250.379 -244.588C229.221 -256.358 207.045 -265.708 186.629 -265.558C156.331 -265.327 135.309 -242.995 115.837 -217.867C112.589 -213.675 109.383 -209.405 106.185 -205.144C99.7806 -196.613 93.402 -188.115 86.7492 -180.34C76.7784 -168.687 66.2285 -158.702 54.1334 -152.721C40.3378 -145.898 26.2955 -144.9 12.1328 -147.323C12.0632 -147.096 11.9941 -146.869 11.9251 -146.642C26.2304 -144.18 40.4567 -145.169 54.4459 -152.088C66.6677 -158.131 77.2917 -168.201 87.2851 -179.881C93.9521 -187.673 100.355 -196.202 106.768 -204.745C109.963 -209.001 113.161 -213.261 116.395 -217.434C135.881 -242.58 156.713 -264.623 186.634 -264.851C206.856 -265 228.897 -255.73 250.036 -243.97C260.601 -238.093 270.928 -231.602 280.678 -225.368C282.347 -224.302 283.999 -223.242 285.632 -222.194L285.635 -222.192C293.541 -217.122 301.013 -212.33 307.848 -208.32C314.758 -204.266 321.78 -199.995 328.9 -195.664L328.901 -195.664C354.769 -179.93 381.932 -163.409 409.703 -153.648C443.983 -141.596 469.277 -153.819 493.629 -170.619C498.658 -174.088 503.651 -177.756 508.674 -181.446C509.73 -182.221 510.787 -182.998 511.846 -183.774C516.216 -186.975 520.619 -190.165 525.106 -193.235Z" fill="black"/>
<path d="M529.437 -184.476C529.336 -184.69 529.234 -184.903 529.133 -185.117C523.621 -181.83 518.222 -178.37 512.874 -174.911C512.054 -174.381 511.236 -173.851 510.418 -173.321C504.963 -169.787 499.551 -166.281 494.106 -162.982C469.068 -147.809 443.422 -137.053 410.252 -148.268C382.296 -157.731 354.961 -172.879 328.555 -187.511C321.358 -191.5 314.229 -195.45 307.176 -199.237C299.888 -203.148 291.861 -207.907 283.341 -212.958C282.069 -213.712 280.785 -214.473 279.491 -215.238C269.539 -221.128 258.987 -227.292 248.227 -232.877C226.716 -244.043 204.317 -252.926 184.134 -252.665C154.525 -252.293 134.047 -230.35 115.121 -205.664C111.919 -201.488 108.763 -197.235 105.614 -192.991L105.613 -192.991C99.4359 -184.666 93.2847 -176.377 86.8712 -168.779C77.1926 -157.313 66.9537 -147.469 55.207 -141.523C40.1848 -133.922 24.7465 -133.392 9.11945 -136.741C9.05945 -136.514 8.99969 -136.286 8.94031 -136.058C24.6932 -132.676 40.3115 -133.195 55.5254 -140.893C67.3976 -146.902 77.7096 -156.831 87.4102 -168.323C93.8374 -175.937 100.013 -184.259 106.199 -192.595C109.345 -196.835 112.494 -201.078 115.681 -205.234C134.62 -229.938 154.91 -251.592 184.143 -251.959C204.14 -252.217 226.406 -243.408 247.902 -232.25C258.644 -226.675 269.18 -220.52 279.132 -214.63C280.418 -213.87 281.693 -213.113 282.959 -212.363L282.98 -212.351C291.499 -207.301 299.54 -202.534 306.843 -198.614C313.876 -194.838 320.992 -190.895 328.181 -186.911C354.593 -172.274 382.004 -157.084 410.026 -147.599C443.495 -136.282 469.375 -147.17 494.471 -162.378C499.926 -165.683 505.348 -169.195 510.802 -172.728C511.619 -173.258 512.438 -173.788 513.257 -174.318C518.586 -177.765 523.957 -181.207 529.437 -184.476Z" fill="black"/>
<path d="M533.608 -175.216C533.515 -175.433 533.422 -175.65 533.328 -175.866C526.414 -172.425 519.649 -168.747 512.939 -165.099C507.063 -161.903 501.229 -158.731 495.375 -155.763C469.448 -142.615 443.073 -133.414 410.603 -143.541C382.335 -152.36 354.613 -165.982 327.591 -179.26C320.277 -182.854 313.014 -186.422 305.805 -189.864C297.954 -193.609 289.267 -198.245 280.053 -203.163L280.051 -203.163L279.958 -203.213C279.111 -203.665 278.26 -204.12 277.404 -204.576C267.208 -210.013 256.419 -215.716 245.455 -220.874C223.539 -231.185 200.878 -239.346 180.82 -238.834C151.89 -238.081 132.252 -216.688 114.154 -192.662C111.106 -188.614 108.101 -184.493 105.103 -180.379C99.1855 -172.261 93.2911 -164.175 87.1234 -156.751C77.8354 -145.57 67.9637 -135.936 56.5403 -130.026C40.4286 -121.691 23.6255 -121.735 6.53473 -126.072C6.48383 -125.842 6.43323 -125.612 6.38287 -125.381C23.5814 -121.021 40.5616 -120.965 56.8643 -129.399C68.4118 -135.373 78.3556 -145.091 87.666 -156.299C93.847 -163.74 99.7651 -171.858 105.691 -179.987L105.692 -179.988C108.687 -184.097 111.684 -188.209 114.718 -192.237C132.827 -216.278 152.281 -237.385 180.838 -238.128C200.72 -238.635 223.253 -230.54 245.155 -220.235C256.101 -215.085 266.876 -209.39 277.072 -203.952C277.96 -203.479 278.844 -203.007 279.723 -202.538C288.934 -197.623 297.634 -192.979 305.502 -189.227C312.692 -185.794 319.943 -182.231 327.249 -178.641L327.252 -178.639C354.281 -165.358 382.067 -151.704 410.393 -142.867C443.128 -132.657 469.713 -141.957 495.694 -155.133C501.587 -158.121 507.446 -161.307 513.338 -164.51C520.02 -168.143 526.744 -171.799 533.608 -175.216Z" fill="black"/>
<path d="M537.536 -165.55C537.452 -165.77 537.367 -165.989 537.282 -166.209C530.062 -163.359 522.965 -160.299 515.916 -157.26L515.915 -157.26C509.595 -154.535 503.315 -151.828 497.021 -149.304C470.081 -138.501 442.852 -131.042 411.051 -139.832C382.387 -147.743 354.173 -159.673 326.449 -171.395L326.445 -171.397C319.019 -174.537 311.628 -177.662 304.272 -180.691C295.815 -184.173 286.44 -188.562 276.517 -193.207L275.049 -193.894C264.586 -198.791 253.543 -203.933 242.362 -208.562C220.01 -217.815 197.057 -225.037 177.024 -224.125C148.686 -222.84 130.138 -202.098 113.108 -178.895C110.329 -175.109 107.592 -171.26 104.859 -167.415L104.858 -167.414C99.1993 -159.455 93.558 -151.52 87.6036 -144.231C78.7779 -133.428 69.2988 -124.091 58.1346 -118.27C41.0082 -109.339 22.8885 -110.053 4.39008 -115.39C4.34802 -115.157 4.30627 -114.924 4.26483 -114.691C22.8508 -109.341 41.1437 -108.613 58.4606 -117.644C69.7489 -123.529 79.3 -132.952 88.1499 -143.784C94.1193 -151.091 99.7853 -159.06 105.452 -167.031L105.455 -167.035C108.184 -170.873 110.913 -174.712 113.676 -178.477C130.714 -201.69 149.084 -222.151 177.056 -223.42C196.924 -224.324 219.753 -217.157 242.092 -207.909C253.256 -203.287 264.286 -198.152 274.75 -193.254L276.225 -192.564L276.226 -192.564C286.142 -187.921 295.53 -183.527 304.004 -180.038C311.346 -177.014 318.73 -173.892 326.151 -170.754C353.881 -159.029 382.15 -147.076 410.863 -139.151C442.89 -130.299 470.297 -137.827 497.284 -148.648C503.614 -151.187 509.918 -153.904 516.252 -156.635C523.284 -159.666 530.353 -162.714 537.536 -165.55Z" fill="black"/>
<path d="M541.135 -155.63C541.059 -155.853 540.983 -156.076 540.906 -156.299C533.615 -154.17 526.404 -151.881 519.228 -149.604C512.46 -147.455 505.722 -145.317 498.98 -143.333C470.934 -135.081 442.741 -129.479 411.555 -136.782C382.447 -143.592 353.678 -153.692 325.253 -163.67C317.717 -166.316 310.205 -168.953 302.717 -171.518C293.536 -174.661 283.362 -178.718 272.631 -182.996L272.607 -183.006C261.871 -187.287 250.579 -191.789 239.186 -195.811C216.408 -203.851 193.174 -209.99 173.088 -208.598C144.61 -206.629 127.74 -186.235 112.296 -163.816C110.234 -160.823 108.198 -157.794 106.164 -154.767C100.564 -146.438 94.9735 -138.122 88.8759 -130.592C80.5669 -120.331 71.3452 -111.57 59.9437 -106.283C41.1968 -97.5863 22.037 -99.026 2.7312 -105.092C2.69769 -104.856 2.66443 -104.619 2.63153 -104.383C22.0042 -98.3139 41.3179 -96.864 60.2404 -105.642C71.7799 -110.993 81.0824 -119.846 89.4241 -130.147C95.5433 -137.704 101.161 -146.06 106.766 -154.397C108.797 -157.419 110.826 -160.437 112.877 -163.415C128.325 -185.84 145.024 -205.95 173.136 -207.893C193.069 -209.275 216.186 -203.18 238.951 -195.145C250.329 -191.128 261.608 -186.632 272.346 -182.35L272.381 -182.336C283.103 -178.061 293.291 -173.998 302.488 -170.85C309.964 -168.289 317.469 -165.655 325 -163.011C353.429 -153.03 382.245 -142.914 411.395 -136.094C442.761 -128.749 471.098 -134.393 499.179 -142.655C505.953 -144.649 512.71 -146.793 519.49 -148.945C526.663 -151.222 533.862 -153.507 541.135 -155.63Z" fill="black"/>
<path d="M544.413 -145.378C544.346 -145.605 544.278 -145.831 544.21 -146.058C537.279 -144.66 530.371 -143.156 523.474 -141.655C517.374 -140.327 511.282 -139.001 505.19 -137.752C477.2 -132.011 449.192 -127.876 420.265 -132.516C385.136 -138.143 350.514 -148.051 316.08 -157.904C303.276 -161.568 290.498 -165.225 277.729 -168.651C270.24 -170.657 262.17 -173.169 253.764 -175.785L252.35 -176.225C243.436 -178.998 234.165 -181.863 224.837 -184.341C206.189 -189.295 187.278 -192.718 170.499 -190.774C141.366 -187.401 125.445 -167.393 110.604 -145.919C109.215 -143.908 107.835 -141.885 106.454 -139.861L106.45 -139.855C93.0628 -120.227 79.6399 -100.547 57.1325 -91.7625C39.1338 -84.73 20.3739 -87.1057 1.35211 -93.6863C1.328 -93.4454 1.3042 -93.2044 1.2807 -92.9633C20.3431 -86.3922 39.2325 -84.0105 57.3889 -91.1045C80.1118 -99.9727 93.6599 -119.843 107.023 -139.442C108.409 -141.474 109.793 -143.503 111.185 -145.517C126.025 -166.992 141.788 -186.739 170.581 -190.072C187.222 -192 206.027 -188.608 224.656 -183.658C233.968 -181.184 243.226 -178.324 252.14 -175.551L253.558 -175.11C261.961 -172.495 270.043 -169.979 277.547 -167.969C290.29 -164.55 303.053 -160.897 315.848 -157.236C350.296 -147.378 384.98 -137.453 420.153 -131.818C449.212 -127.158 477.325 -131.315 505.332 -137.06C511.442 -138.313 517.546 -139.642 523.654 -140.971C530.564 -142.475 537.48 -143.98 544.413 -145.378Z" fill="black"/>
<path d="M547.185 -135.411C547.126 -135.642 547.066 -135.872 547.006 -136.103C540.278 -135.393 533.556 -134.626 526.839 -133.86C520.462 -133.132 514.087 -132.405 507.716 -131.727C478.88 -128.662 450.07 -126.615 421.049 -130.143C385.481 -134.471 350.206 -141.937 315.029 -149.383C302.047 -152.132 289.077 -154.877 276.111 -157.461C267.945 -159.085 259.181 -161.213 250.094 -163.422L249.841 -163.483C240.836 -165.673 231.518 -167.938 222.168 -169.866C203.299 -173.757 184.263 -176.282 167.343 -174.029C139.282 -170.295 124.235 -151.325 110.233 -131.033C108.948 -129.171 107.672 -127.299 106.396 -125.426C93.7397 -106.849 81.0508 -88.2245 59.3443 -79.6479C40.6108 -72.246 20.7249 -75.2859 0.472229 -82.7275C0.457336 -82.482 0.442749 -82.2364 0.428528 -81.9907C20.7021 -74.5698 40.7123 -71.5268 59.6035 -78.9909C81.5231 -87.6518 94.3355 -106.463 106.969 -125.013L106.971 -125.015C108.25 -126.894 109.528 -128.77 110.813 -130.632C124.812 -150.919 139.705 -169.639 167.436 -173.329C184.234 -175.566 203.174 -173.062 222.026 -169.174C231.364 -167.249 240.671 -164.986 249.68 -162.796L249.928 -162.736C259.011 -160.527 267.79 -158.396 275.974 -156.768C288.92 -154.188 301.878 -151.445 314.854 -148.699L314.856 -148.698C350.042 -141.25 385.363 -133.774 420.964 -129.442C450.068 -125.904 478.944 -127.959 507.79 -131.025C514.174 -131.704 520.556 -132.432 526.938 -133.16L526.939 -133.16C533.686 -133.93 540.434 -134.7 547.185 -135.411Z" fill="black"/>
<path d="M549.539 -125.547C549.487 -125.782 549.436 -126.017 549.384 -126.251C543.093 -126.145 536.802 -126.02 530.512 -125.894H530.511C523.771 -125.76 517.032 -125.625 510.295 -125.515C480.773 -125.031 451.277 -125.006 421.853 -127.45C385.782 -130.436 349.854 -135.442 313.96 -140.443L313.958 -140.443C300.934 -142.258 287.913 -144.072 274.892 -145.789C266.461 -146.9 257.512 -148.451 248.289 -150.074C247.583 -150.198 246.875 -150.323 246.166 -150.448C237.615 -151.955 228.849 -153.5 220.072 -154.792C201.066 -157.589 181.977 -159.207 164.846 -156.685C137.877 -152.72 123.55 -134.879 110.214 -115.855C109.02 -114.151 107.833 -112.438 106.647 -110.724C94.5638 -93.2764 82.4502 -75.7842 61.4981 -67.5135C42.1596 -59.877 21.3134 -63.5202 0.0202026 -71.694C0.0148926 -71.4437 0.00982666 -71.1933 0.00512695 -70.9428C21.3 -62.8009 42.2631 -59.1586 61.757 -66.8565C82.9191 -75.2102 95.1547 -92.8838 107.217 -110.306L107.224 -110.317C108.412 -112.034 109.599 -113.747 110.792 -115.449C124.121 -134.464 138.298 -152.068 164.948 -155.986C181.974 -158.493 200.98 -156.888 219.97 -154.093C228.737 -152.802 237.494 -151.259 246.047 -149.752L248.167 -149.378C257.388 -147.755 266.352 -146.202 274.8 -145.089C287.81 -143.373 300.824 -141.56 313.845 -139.746C349.746 -134.744 385.702 -129.734 421.795 -126.746C451.255 -124.3 480.78 -124.325 510.306 -124.809C517.046 -124.919 523.784 -125.054 530.523 -125.188L530.534 -125.188C536.87 -125.315 543.205 -125.441 549.539 -125.547Z" fill="black"/>
<path d="M551.503 -115.747C551.46 -115.986 551.416 -116.225 551.372 -116.463C543.004 -116.989 534.636 -117.523 526.269 -118.058C491.758 -120.262 457.246 -122.467 422.698 -124.038C385.886 -125.714 349.12 -128.283 312.352 -130.852C299.653 -131.74 286.953 -132.627 274.252 -133.478C264.218 -134.152 253.639 -135.333 242.816 -136.54C234.912 -137.422 226.878 -138.318 218.831 -139.043C199.791 -140.757 180.729 -141.504 163.347 -138.783C137.443 -134.738 123.605 -118.103 110.699 -100.416C109.567 -98.8646 108.443 -97.3056 107.318 -95.7462C95.5991 -79.502 83.8559 -63.2235 63.6138 -55.3804C43.7228 -47.662 22.1026 -51.8176 0 -60.5696C0.0045166 -60.3142 0.00946045 -60.0589 0.0147095 -59.8037C22.1013 -51.0944 43.8279 -46.9453 63.8686 -54.7217C84.3159 -62.6444 96.1806 -79.0959 107.879 -95.3176C109.008 -96.8829 110.136 -98.4462 111.269 -99.9994C124.165 -117.673 137.855 -134.087 163.456 -138.085C180.75 -140.792 199.743 -140.052 218.768 -138.339C226.777 -137.618 234.801 -136.723 242.705 -135.842L242.707 -135.841C253.55 -134.632 264.167 -133.448 274.204 -132.773C286.902 -131.923 299.598 -131.035 312.296 -130.148C349.066 -127.579 385.845 -125.009 422.666 -123.333C457.213 -121.761 491.706 -119.558 526.206 -117.354L526.209 -117.354L526.215 -117.354C534.644 -116.815 543.073 -116.277 551.503 -115.747Z" fill="black"/>
<path d="M553.109 -105.916C553.074 -106.158 553.038 -106.4 553.002 -106.642C546.253 -107.528 539.508 -108.444 532.764 -109.359L532.757 -109.36C526.885 -110.157 521.014 -110.954 515.14 -111.731C484.794 -115.748 454.393 -119.248 423.582 -119.568C390.429 -119.9 357.274 -120.038 324.121 -120.175H324.119L324.092 -120.175C307.524 -120.244 290.957 -120.313 274.39 -120.406C263.191 -120.469 251.513 -121.047 239.657 -121.634L239.655 -121.634C232.707 -121.978 225.697 -122.325 218.685 -122.573C199.724 -123.245 180.778 -123.191 163.127 -120.381C138.218 -116.407 124.576 -101.055 111.796 -84.7762C110.695 -83.3742 109.601 -81.9657 108.507 -80.5569C96.8796 -65.5891 85.2373 -50.6018 65.6124 -43.3074C45.1708 -35.7125 23.0229 -40.2514 0.420471 -49.3831C0.435425 -49.1228 0.450745 -48.8626 0.466431 -48.6024C23.0375 -39.5236 45.2779 -34.999 65.8581 -42.6453C85.6807 -50.0132 97.4443 -65.1607 109.053 -80.109L109.067 -80.1273C110.161 -81.5355 111.253 -82.9419 112.351 -84.3398C125.118 -100.602 138.615 -115.755 163.238 -119.684C180.82 -122.482 199.71 -122.539 218.66 -121.868C225.649 -121.62 232.649 -121.274 239.594 -120.93L239.596 -120.93C251.466 -120.342 263.175 -119.763 274.386 -119.7C290.962 -119.606 307.538 -119.538 324.114 -119.469H324.121C357.273 -119.331 390.424 -119.194 423.575 -118.861C454.34 -118.542 484.706 -115.047 515.047 -111.031C520.918 -110.254 526.788 -109.457 532.66 -108.66C539.472 -107.736 546.287 -106.811 553.109 -105.916Z" fill="black"/>
<path d="M554.374 -95.9113C554.348 -96.1558 554.321 -96.4003 554.294 -96.6447C547.587 -97.8937 540.89 -99.1914 534.196 -100.489L534.195 -100.489C528.498 -101.593 522.803 -102.697 517.103 -103.77C486.601 -109.514 455.993 -114.379 424.489 -113.7C405.611 -113.289 386.323 -113.1 366.818 -112.909L366.815 -112.909C299.258 -112.247 229.106 -111.561 164.484 -101.522C140.504 -97.7891 126.704 -83.7819 113.668 -68.9751C112.584 -67.7443 111.506 -66.5081 110.428 -65.272L110.418 -65.2601C98.516 -51.6145 86.6106 -37.9648 67.4154 -31.3757C46.3934 -24.153 24.0139 -28.9188 1.28796 -38.1961C1.3139 -37.9308 1.34021 -37.6657 1.36682 -37.4006C24.0489 -28.1855 46.5026 -23.4438 67.6443 -30.7077C87.0267 -37.3611 99.0529 -51.1525 110.938 -64.7818C112.024 -66.0271 113.108 -67.2711 114.197 -68.5082C127.219 -83.2985 140.876 -97.1322 164.592 -100.824C229.159 -110.854 299.24 -111.54 366.789 -112.202C386.303 -112.393 405.606 -112.582 424.504 -112.994C455.93 -113.672 486.478 -108.818 516.973 -103.076C522.659 -102.005 528.345 -100.903 534.034 -99.8007L534.048 -99.7979C540.816 -98.4863 547.588 -97.1738 554.374 -95.9113Z" fill="black"/>
<path d="M555.291 -85.6815C555.274 -85.9273 555.256 -86.1731 555.238 -86.4188C548.534 -87.9676 541.844 -89.588 535.155 -91.2081C530.822 -92.2576 526.49 -93.307 522.154 -94.3367C492.805 -101.307 463.329 -107.375 432.721 -106.435C345.347 -103.761 253.011 -94.1593 166.425 -82.4832C143.009 -79.3229 128.24 -65.7565 113.968 -51.8008C113.267 -51.1156 112.568 -50.4294 111.868 -49.7436C98.3091 -36.4447 84.8471 -23.2412 64.4191 -18.4931C43.9159 -13.721 23.2822 -18.401 2.62988 -26.8629C2.66748 -26.5928 2.70551 -26.3227 2.74384 -26.0528C23.343 -17.6593 44.0099 -13.0178 64.5787 -17.8052C85.205 -22.5993 98.7985 -35.9338 112.331 -49.208C113.04 -49.9044 113.75 -50.6007 114.461 -51.2956C128.733 -65.2506 143.355 -78.6569 166.519 -81.7833C253.093 -93.4576 345.402 -103.056 432.742 -105.729C463.25 -106.666 492.647 -100.619 521.991 -93.6495C526.321 -92.6212 530.649 -91.5727 534.98 -90.5237C541.741 -88.8861 548.507 -87.2471 555.291 -85.6815Z" fill="black"/>
<path d="M555.858 -74.6748C555.851 -74.9196 555.842 -75.1643 555.834 -75.4089C548.527 -77.2316 541.246 -79.1665 533.968 -81.1009C530.263 -82.0854 526.559 -83.0698 522.852 -84.0392C493.65 -91.676 464.307 -98.3753 433.411 -96.7956C389.893 -94.5794 346.219 -88.4999 302.611 -81.7489C293.184 -80.2895 283.76 -78.7987 274.341 -77.3088L274.34 -77.3085C240.185 -71.9056 206.1 -66.5137 172.175 -62.6663C149.145 -60.0495 133.173 -48.1037 117.61 -35.8674C116.937 -35.338 116.265 -34.808 115.592 -34.2782C100.711 -22.5525 85.9484 -10.9208 65.4114 -7.10065C44.5964 -3.23209 24.3739 -7.82864 4.37793 -15.911C4.42731 -15.6368 4.47711 -15.3628 4.52728 -15.0889C24.4616 -7.08109 44.6943 -2.53192 65.5403 -6.40628C86.2526 -10.2591 101.14 -21.9907 115.995 -33.697C116.679 -34.2356 117.362 -34.7742 118.046 -35.312C133.61 -47.5487 149.442 -59.3724 172.255 -61.9645C206.196 -65.8139 240.302 -71.209 274.459 -76.6123C283.876 -78.102 293.297 -79.5923 302.719 -81.0509C346.323 -87.8013 389.967 -93.876 433.447 -96.0903C464.225 -97.6639 493.476 -90.9916 522.674 -83.3559C526.376 -82.3877 530.077 -81.404 533.781 -80.4197L533.782 -80.4195C541.125 -78.4679 548.476 -76.5141 555.858 -74.6748Z" fill="black"/>
<path d="M555.996 -63.6209C555.998 -63.8623 555.999 -64.1038 556 -64.3454C549.313 -65.9138 542.637 -67.5574 535.962 -69.2009C531.211 -70.3705 526.461 -71.5401 521.706 -72.6825C492.177 -79.7782 462.518 -85.8217 431.876 -84.2622C373.003 -81.2799 313.224 -72.5615 254.001 -63.924C227.998 -60.1316 202.103 -56.3548 176.438 -53.0861C153.447 -50.1596 136.308 -38.2462 119.507 -26.1444C118.933 -25.7311 118.359 -25.3176 117.786 -24.9041C101.558 -13.201 85.4771 -1.60361 64.4968 2.13934C44.8511 5.64432 25.5867 1.77017 6.49023 -5.36377C6.55072 -5.08963 6.61151 -4.81564 6.67279 -4.54181C25.7027 2.51712 44.9612 6.34207 64.6206 2.83463C85.7626 -0.937134 101.962 -12.6206 118.16 -24.3029C118.746 -24.7258 119.332 -25.1487 119.919 -25.5712C136.727 -37.6781 153.734 -49.4842 176.527 -52.3854C202.219 -55.6577 228.131 -59.4368 254.142 -63.2304L254.143 -63.2307C313.35 -71.8658 373.073 -80.5764 431.912 -83.5569C462.445 -85.1108 492.019 -79.0899 521.542 -71.9957C526.287 -70.8556 531.031 -69.6875 535.777 -68.5189L535.78 -68.5181C542.51 -66.8611 549.246 -65.2027 555.996 -63.6209Z" fill="black"/>
<path d="M555.638 -51.2273C555.65 -51.4648 555.661 -51.7023 555.673 -51.9399C548.917 -53.2479 542.167 -54.6128 535.417 -55.9777C528.74 -57.3278 522.063 -58.678 515.38 -59.973C484.298 -65.9962 453.105 -70.8236 421.284 -68.8749C342.43 -64.0444 261.185 -55.0823 182.935 -44.3443C160.07 -41.2096 141.922 -30.3976 124.122 -19.2294C123.098 -18.5869 122.075 -17.9431 121.052 -17.2996C104.285 -6.74896 87.6092 3.74451 67.2953 8.16895C47.4523 12.4839 27.8994 9.4512 8.48944 3.07034C8.55804 3.34091 8.62708 3.61133 8.69653 3.88159C28.0427 10.1914 47.5893 13.1769 67.4452 8.8591C87.8843 4.40741 104.659 -6.1488 121.404 -16.687C122.435 -17.3355 123.465 -17.984 124.496 -18.631C142.299 -29.8004 160.332 -40.5326 183.03 -43.6446C261.269 -54.381 342.496 -63.3409 421.327 -68.1699C453.055 -70.1129 484.175 -65.3008 515.246 -59.2796C521.915 -57.9873 528.582 -56.639 535.253 -55.2901L535.256 -55.2895C542.045 -53.9167 548.837 -52.5432 555.638 -51.2273Z" fill="black"/>
<path d="M554.671 -38.2056C554.694 -38.4401 554.717 -38.6747 554.739 -38.9094C547.75 -39.9112 540.762 -40.9552 533.772 -41.9995L533.768 -42.0001C526.265 -43.121 518.76 -44.2423 511.25 -45.3118C479.716 -49.8029 448.115 -53.3792 416.307 -52.1705C341.492 -49.3365 263.613 -45.7038 189.32 -36.4614C165.727 -33.5285 145.794 -23.2234 126.138 -12.5847C125.058 -12.0003 123.979 -11.4149 122.9 -10.8296C104.328 -0.752502 85.8409 9.27841 64.5115 13.4164C46.1126 16.9798 28.1294 14.882 10.3399 9.98831C10.4144 10.2531 10.4893 10.5177 10.5646 10.7823C28.2925 15.6149 46.2553 17.6716 64.6456 14.1098C86.0851 9.95044 104.661 -0.129303 123.212 -10.1954L123.218 -10.1985C124.303 -10.7873 125.388 -11.376 126.473 -11.9635C146.134 -22.6046 165.961 -32.8459 189.407 -35.7605C263.667 -44.9988 341.519 -48.6308 416.334 -51.4648C448.075 -52.6709 479.625 -49.1024 511.151 -44.6126C518.651 -43.5444 526.15 -42.424 533.65 -41.3035L533.652 -41.3031C540.657 -40.2566 547.663 -39.2099 554.671 -38.2056Z" fill="black"/>
<path d="M552.948 -24.2246C552.983 -24.4583 553.017 -24.692 553.052 -24.9259C545.718 -25.3797 538.381 -25.839 531.04 -26.2985L531.036 -26.2988C419.651 -33.2711 307.489 -40.2919 196.267 -28.9985C171.616 -26.4972 149.713 -16.9277 128.03 -6.99744C126.749 -6.41043 125.468 -5.82217 124.187 -5.23401C103.788 4.13416 83.4541 13.4725 61.0103 17.2664C44.2661 20.0976 27.9784 18.8251 11.9106 15.3604C11.9888 15.6182 12.0674 15.8759 12.1464 16.1333C28.1544 19.5493 44.4098 20.7896 61.1278 17.9628C83.667 14.1528 104.081 4.7774 124.461 -4.58252L124.511 -4.60562C125.782 -5.18936 127.053 -5.77304 128.324 -6.35522C150.011 -16.2878 171.817 -25.8077 196.338 -28.2959C307.497 -39.5828 419.589 -32.5667 530.972 -25.5949L530.981 -25.5944C538.306 -25.1358 545.629 -24.6775 552.948 -24.2246Z" fill="black"/>
<path d="M550.703 -11.27C550.75 -11.5048 550.796 -11.7396 550.842 -11.9746C539.14 -12.1341 527.438 -12.262 515.737 -12.3899H515.736C478.128 -12.801 440.527 -13.212 402.934 -14.6703C382.109 -15.4776 360.944 -16.9464 339.658 -18.4236C294.163 -21.5809 248.113 -24.7768 203.635 -21.6349C177.748 -19.8048 153.678 -11.5803 129.799 -2.70883C127.087 -1.70126 124.378 -0.685394 121.668 0.330444C100.509 8.26373 79.3543 16.1952 57.0194 20.1609C42.3035 22.7694 27.8075 22.3549 13.4263 20.1956C13.5073 20.4459 13.5886 20.6961 13.6703 20.9461C27.996 23.0684 42.4562 23.4596 57.1425 20.8564C79.5457 16.8785 100.764 8.92291 121.916 0.991882C124.626 -0.0242004 127.335 -1.03989 130.045 -2.04672C153.922 -10.9175 177.908 -19.1082 203.685 -20.9304C248.113 -24.0688 294.077 -20.8785 339.545 -17.7227L339.547 -17.7225C360.846 -16.2443 382.035 -14.7737 402.907 -13.9645C440.502 -12.5062 478.128 -12.0948 515.75 -11.6833L515.756 -11.6833C527.406 -11.5559 539.055 -11.4285 550.703 -11.27Z" fill="black"/>
<path d="M547.689 2.19476C547.749 1.9556 547.809 1.71634 547.868 1.47693C537.616 2.07327 527.357 2.77194 517.098 3.47064L517.093 3.47101C509.341 3.9989 501.59 4.52679 493.841 5.01059C460.878 7.06851 427.949 8.32925 395.216 5.40796C373.038 3.42462 350.55 0.00262451 327.954 -3.43594C319.753 -4.68387 311.538 -5.93393 303.319 -7.11823C272.46 -11.5644 241.547 -15.0808 211.146 -14.0519C183.918 -13.1322 157.62 -6.11478 131.478 1.71927C127.363 2.95267 123.251 4.20624 119.14 5.45953C97.1295 12.1703 75.1433 18.8736 52.6791 22.4348C39.822 24.4724 27.1187 24.5627 14.5002 23.4456C14.5824 23.6893 14.6649 23.9329 14.7478 24.1763C27.3113 25.2686 39.9717 25.1638 52.7895 23.1324C75.3067 19.5628 97.3468 12.8428 119.357 6.13187C123.465 4.87936 127.572 3.6272 131.681 2.39587C157.817 -5.4368 184.041 -12.4296 211.17 -13.346C241.506 -14.3727 272.367 -10.8641 303.218 -6.41916C311.425 -5.23666 319.632 -3.98776 327.828 -2.74054L327.829 -2.74036C350.433 0.699219 372.952 4.12604 395.153 6.11142C427.942 9.03769 460.915 7.77383 493.884 5.71548C501.644 5.23102 509.403 4.70264 517.16 4.17438C527.342 3.48093 537.52 2.78778 547.689 2.19476Z" fill="black"/>
<path d="M543.988 15.5547C544.064 15.3078 544.138 15.0607 544.213 14.8134C533.659 16.1854 523.065 17.7572 512.458 19.331C504.064 20.5765 495.662 21.8232 487.264 22.973C453.601 27.5824 419.999 30.6396 387.219 25.8673C365.16 22.649 343.045 17.0663 320.85 11.4634L320.849 11.4631C314.988 9.98364 309.122 8.50278 303.25 7.06366C275.151 0.177399 246.927 -5.74896 218.598 -5.94885C190.019 -6.14871 161.489 -0.411957 133.079 6.3096C127.221 7.69547 121.369 9.12302 115.522 10.5492C92.9995 16.0434 70.5594 21.5174 48.201 24.5096C37.1872 25.9872 26.2564 26.3587 15.3742 25.9957C15.4573 26.2341 15.5405 26.4724 15.6242 26.7105C26.4492 27.0593 37.3292 26.6808 48.2946 25.2096C70.6935 22.212 93.1805 16.7264 115.707 11.2312L115.709 11.2308C121.551 9.80573 127.395 8.38004 133.241 6.99692C161.645 0.277039 190.104 -5.44186 218.593 -5.24258C246.834 -5.0433 274.99 0.865173 303.082 7.74966C308.941 9.18555 314.798 10.664 320.652 12.1418L320.658 12.1434C342.858 17.7477 365.019 23.3421 387.117 26.5661C420 31.3535 453.685 28.2838 487.36 23.6727C495.776 22.5204 504.19 21.272 512.591 20.0255C523.084 18.4686 533.558 16.9147 543.988 15.5547Z" fill="black"/>
<path d="M539.607 28.7551C539.699 28.4972 539.792 28.2391 539.884 27.9808C529.234 30.0782 518.475 32.4652 507.673 34.8621L507.671 34.8624C497.741 37.0657 487.773 39.2775 477.816 41.2802C442.266 48.431 406.832 52.9267 373.591 44.9727C354.97 40.5178 336.189 33.2203 317.25 25.8618C311.74 23.7209 306.217 21.5749 300.68 19.4922C276.133 10.2578 251.34 2.27548 226.402 1.59525C197.679 0.805817 167.908 5.18747 138.204 10.6217C130.073 12.109 121.949 13.6749 113.853 15.2356L113.847 15.2368C92.3505 19.3802 71.0473 23.4865 50.3391 25.9858C38.8765 27.3689 27.4738 27.9746 16.1041 28.0652C16.1879 28.3001 16.2722 28.5348 16.3567 28.7694C27.6669 28.6718 39.0144 28.0637 50.4236 26.687C71.1576 24.1846 92.4966 20.0714 114.001 15.9265L114.003 15.9261L114.005 15.9256C122.098 14.3657 130.214 12.8013 138.33 11.3165C168.027 5.88376 197.737 1.51398 226.382 2.30121C251.194 2.97806 275.892 10.9219 300.432 20.1533C305.951 22.2294 311.462 24.3709 316.965 26.509C335.912 33.8709 354.755 41.1924 373.427 45.6596C406.826 53.6516 442.389 49.1265 477.955 41.9727C487.945 39.9633 497.933 37.7471 507.874 35.5414L507.875 35.5411C518.524 33.1784 529.119 30.8275 539.607 28.7551Z" fill="black"/>
<path d="M534.578 41.69C534.691 41.4191 534.804 41.1479 534.916 40.8765C523.969 43.6381 512.888 46.7744 501.75 49.9266L501.749 49.9269C491.813 52.7389 481.832 55.5636 471.862 58.1462C435.755 67.4995 399.767 73.6884 366.362 64.7528C347.18 59.6219 328.986 49.8711 310.715 40.0794C307.428 38.3179 304.138 36.5551 300.84 34.8177C279.231 23.4335 257.264 13.1465 233.294 11.5945C203.338 9.64627 171.576 12.6689 139.821 16.8356C129.596 18.1773 119.374 19.6373 109.213 21.0886L109.212 21.0888C87.8039 24.1465 66.6661 27.1656 46.3424 28.9583C36.5978 29.8163 26.8547 30.4186 17.1112 30.8385C17.1968 31.0704 17.2828 31.3022 17.3691 31.5338C27.0488 31.114 36.7272 30.5139 46.4043 29.6618C66.7472 27.8674 87.9178 24.8437 109.337 21.7845C119.494 20.3339 129.706 18.8752 139.913 17.5359C171.658 13.3703 203.364 10.3557 233.248 12.2993C257.055 13.8407 278.906 24.0601 300.512 35.4426C303.8 37.175 307.083 38.9345 310.366 40.6942C328.634 50.485 346.912 60.2812 366.18 65.4352C399.774 74.4215 435.919 68.1868 472.039 58.8299C482.047 56.2375 492.05 53.4063 501.999 50.5906C512.948 47.492 523.83 44.4122 534.578 41.69Z" fill="black"/>
<path d="M528.551 55.0973C528.691 54.8076 528.83 54.5176 528.969 54.2274C526.52 54.9898 524.059 55.7741 521.59 56.5755C513.613 59.1637 505.546 61.9265 497.425 64.7077L497.424 64.7084C487.132 68.2331 476.755 71.7871 466.367 75.0525C429.217 86.7296 392.237 94.6064 359.782 83.8977C341.664 77.9185 325.484 66.8001 309.252 55.6455C306.521 53.7682 303.787 51.89 301.043 50.0349C282.016 37.1733 262.475 25.4453 239.348 23.1506C208.248 20.0739 174.743 21.6479 141.187 24.4249C128.675 25.4603 116.16 26.6625 103.759 27.8538L103.758 27.8539L103.756 27.8541C82.8827 29.8592 62.3317 31.8334 42.6649 32.9287C34.5887 33.38 26.5175 33.8711 18.4497 34.3883C18.5384 34.6187 18.6273 34.8489 18.7166 35.079C26.7118 34.5669 34.7075 34.0807 42.7041 33.6339C62.3827 32.5379 82.9628 30.561 103.85 28.5547L103.853 28.5544C116.251 27.3635 128.756 26.1623 141.245 25.1288C174.791 22.3526 208.245 20.7833 239.278 23.8535C262.213 26.1291 281.625 37.7614 300.648 50.6202C303.383 52.4689 306.11 54.3432 308.839 56.2184C325.066 67.3706 341.339 78.5549 359.561 84.5684C392.249 95.3541 429.426 87.4044 466.578 75.7263C476.961 72.4625 487.366 68.8992 497.675 65.3688L497.678 65.3676C505.801 62.5861 513.863 59.8251 521.807 57.2473C524.064 56.5149 526.313 55.7971 528.551 55.0973Z" fill="black"/>
<path d="M521.419 68.9C521.591 68.5872 521.764 68.274 521.936 67.9605C520.693 68.4114 519.448 68.8682 518.198 69.3302C510.067 72.3374 501.802 75.5593 493.46 78.8116C482.977 82.898 472.372 87.0324 461.754 90.8487C423.639 104.549 385.724 114.008 354.133 102.025C336.794 95.4461 322.464 83.4867 308.111 71.5084L308.109 71.5067C305.799 69.5788 303.488 67.6504 301.164 65.7439C284.423 52.0097 267.012 39.4308 244.282 36.6033C197.964 30.8372 146.199 33.4262 96.509 35.9114C77.0243 36.886 57.8587 37.8445 39.4659 38.2771C33.0568 38.4272 26.6812 38.7277 20.3315 39.1455C20.4249 39.3754 20.5186 39.6052 20.6126 39.8348C26.8755 39.4257 33.163 39.1312 39.4825 38.9832C57.9173 38.5496 77.1089 37.5898 96.6087 36.6145L96.6097 36.6144C146.276 34.1302 197.942 31.5462 244.195 37.3041C266.709 40.1047 283.983 52.5626 300.717 66.2901C303.032 68.1899 305.338 70.1145 307.646 72.0409C321.992 84.0152 336.424 96.061 353.883 102.685C385.742 114.77 423.888 105.21 461.993 91.5134C472.602 87.7001 483.236 83.5551 493.735 79.4622L493.738 79.4613L493.741 79.4599C502.086 76.207 510.347 72.987 518.443 69.9927C519.437 69.625 520.429 69.2607 521.419 68.9Z" fill="black"/>
<path d="M515.674 78.8054C515.86 78.4983 516.046 78.1908 516.232 77.8829C497.833 83.8109 479.912 90.9001 461.448 98.2046C457.138 99.9096 452.798 101.626 448.415 103.343C445.961 104.305 443.472 105.298 440.951 106.303C427.848 111.526 413.909 117.084 399.779 120.442C382.937 124.444 365.871 125.31 349.694 118.772C332.773 111.93 319.926 99.7423 307.096 87.5701C305.106 85.6826 303.117 83.7956 301.113 81.9289C286.206 68.0415 270.503 55.3096 247.835 52.2304C196.092 45.1823 138.94 45.3052 84.301 45.4228H84.2986C68.202 45.4575 52.3233 45.4916 36.8654 45.3418C32.215 45.2968 27.61 45.3846 23.043 45.5846C23.1439 45.816 23.245 46.0472 23.3466 46.2783C27.8123 46.0873 32.3139 46.0041 36.8586 46.048C52.3372 46.198 68.23 46.1639 84.336 46.1293C138.967 46.0119 196.05 45.8893 247.74 52.9302C270.176 55.9779 285.74 68.5722 300.632 82.4459C302.628 84.3049 304.612 86.1874 306.599 88.0729C319.422 100.24 332.375 112.531 349.429 119.426C365.794 126.04 383.025 125.149 399.942 121.129C414.127 117.758 428.123 112.177 441.225 106.954L441.226 106.953C443.743 105.95 446.227 104.96 448.672 104.001C453.057 102.283 457.397 100.567 461.706 98.8619C479.917 91.6583 497.576 84.6729 515.674 78.8054Z" fill="black"/>
<path d="M506.747 92.5623C506.976 92.2307 507.205 91.8986 507.433 91.5659C491.678 97.2008 476.228 103.706 460.319 110.405L460.314 110.407C455.66 112.366 450.967 114.343 446.215 116.319C444.131 117.184 442.005 118.078 439.843 118.988C426.715 124.509 412.239 130.597 397.497 134.392C380.33 138.811 362.852 140.107 346.779 133.799C329.886 127.17 317.973 115.464 306.119 103.816L306.118 103.816C304.36 102.088 302.603 100.361 300.831 98.653C287.128 85.4395 272.567 73.341 249.767 70.372C180.12 61.329 105.47 57.6363 35.1029 54.5031C32.3881 54.3831 29.6982 54.322 27.0309 54.3144C27.1437 54.5504 27.2568 54.7863 27.3702 55.0219C29.9161 55.0335 32.4827 55.0942 35.0718 55.2086C105.441 58.342 180.063 62.0337 249.676 71.0724C272.24 74.0107 286.662 85.9712 300.342 99.1616C302.105 100.862 303.857 102.584 305.613 104.309L305.615 104.312C317.462 115.956 329.484 127.771 346.521 134.456C362.791 140.841 380.438 139.513 397.672 135.076C412.469 131.267 426.998 125.156 440.124 119.636C442.284 118.727 444.406 117.835 446.486 116.971C451.242 114.993 455.937 113.016 460.592 111.056L460.594 111.056C476.196 104.487 491.337 98.1113 506.747 92.5623Z" fill="black"/>
<path d="M495.625 107.548C495.914 107.185 496.202 106.821 496.49 106.456C484.606 111.046 472.798 116.059 460.72 121.187C455.888 123.238 451.014 125.307 446.075 127.375C444.242 128.142 442.375 128.931 440.476 129.733C427.196 135.344 412.38 141.604 397.266 145.56C379.992 150.082 362.378 151.582 346.273 145.69C329.295 139.481 317.462 128.452 305.703 117.491C304.025 115.927 302.349 114.365 300.66 112.819C287.139 100.44 272.799 89.0954 250.144 86.2974C179.472 77.5754 106.325 70.0107 35.1507 65.2802C34.2606 65.2208 33.3736 65.1684 32.4896 65.1228C32.6189 65.3656 32.7487 65.6082 32.8787 65.8506C33.6183 65.8906 34.36 65.9353 35.1038 65.9849C106.261 70.7143 179.394 78.2774 250.057 86.9984C272.487 89.7685 286.691 100.986 300.184 113.34C301.865 114.879 303.536 116.437 305.21 117.998L305.215 118.002C316.967 128.959 328.909 140.092 346.031 146.353C362.328 152.316 380.107 150.782 397.444 146.244C412.612 142.273 427.479 135.992 440.755 130.382C442.653 129.58 444.518 128.792 446.347 128.026C451.291 125.957 456.167 123.887 460.999 121.836C472.699 116.869 484.135 112.014 495.625 107.548Z" fill="black"/>
<path d="M481.49 123.974C481.861 123.574 482.231 123.174 482.6 122.773C475.557 125.561 468.491 128.443 461.339 131.361C456.857 133.189 452.34 135.032 447.774 136.873C445.703 137.708 443.593 138.568 441.449 139.443C428.251 144.824 413.751 150.737 398.986 154.484C381.825 158.839 364.351 160.255 348.204 154.53C331.271 148.538 319.002 137.923 306.787 127.354L306.785 127.353C305.103 125.897 303.422 124.443 301.73 123.001C287.76 111.102 273.064 100.123 250.925 97.1353C181.349 87.7545 109.639 79.7707 39.5629 74.0223C38.8216 73.9615 38.0823 73.9056 37.345 73.8548C37.4879 74.1011 37.631 74.3472 37.7746 74.593C38.3503 74.6344 38.9271 74.6787 39.5052 74.7262C109.568 80.4734 181.266 88.4558 250.831 97.8352C272.76 100.795 287.326 111.659 301.272 123.539C302.96 124.977 304.638 126.429 306.32 127.885C318.528 138.449 330.901 149.156 347.968 155.196C364.303 160.987 381.934 159.54 399.159 155.168C413.976 151.408 428.526 145.475 441.721 140.094C443.864 139.22 445.971 138.361 448.038 137.528C452.606 135.686 457.124 133.843 461.605 132.015C468.295 129.286 474.905 126.59 481.49 123.974Z" fill="black"/>
<path d="M452.418 151.077C452.989 150.616 453.558 150.153 454.125 149.687C418.124 163.176 382.451 172.236 351.586 162.032C334.568 156.41 321.636 146.44 308.733 136.493C307.077 135.216 305.422 133.94 303.759 132.674C289.144 121.546 273.924 111.18 252.345 108.013C184.508 98.0735 115.59 88.5131 47.3886 81.0881C45.3647 80.8682 43.3535 80.6898 41.3539 80.5505C41.5067 80.7977 41.6598 81.0446 41.8133 81.2913C43.6364 81.4242 45.4692 81.59 47.3124 81.7903C115.501 89.2138 184.408 98.7727 252.243 108.711C273.635 111.851 288.734 122.121 303.331 133.236C304.991 134.5 306.644 135.774 308.3 137.051C321.195 146.994 334.225 157.04 351.365 162.703C381.915 172.802 417.064 164.167 452.418 151.077Z" fill="black"/>
<path d="M432.084 166.029C432.695 165.621 433.305 165.21 433.914 164.797C406.792 172.308 380.328 175.558 356.203 168.356C338.958 163.213 325.124 154.073 311.286 144.929C309.732 143.903 308.178 142.876 306.619 141.855C291.19 131.748 275.3 122.206 254.324 118.85C230.105 114.983 205.886 110.923 181.658 106.862L181.657 106.862C140.387 99.9448 99.0919 93.0231 57.73 87.0372C53.338 86.4005 48.982 85.9855 44.6574 85.7663C44.816 86.0106 44.975 86.2547 45.1343 86.4985C49.2694 86.7229 53.4329 87.1279 57.6289 87.7362C98.9849 93.7213 140.265 100.64 181.528 107.557L181.537 107.558C205.764 111.619 229.985 115.679 254.213 119.548C275.031 122.878 290.815 132.346 306.233 142.446C307.785 143.463 309.334 144.486 310.884 145.51L310.9 145.521C324.728 154.659 338.65 163.858 356.001 169.032C379.699 176.107 405.598 173.163 432.084 166.029Z" fill="black"/>
<path d="M415.768 176.128C416.334 175.805 416.899 175.479 417.462 175.151C398.293 178.207 379.553 178.472 361.714 173.841C343.828 169.192 328.421 160.958 312.941 152.685L312.94 152.685C311.946 152.153 310.952 151.622 309.957 151.092C293.472 142.303 276.726 133.733 256.71 129.73C239.451 126.274 222.192 122.781 204.929 119.288L204.924 119.287C159.884 110.172 114.817 101.052 69.6686 92.5679C62.3665 91.196 55.0621 90.531 47.7592 90.4417C47.9205 90.6797 48.0821 90.9173 48.2442 91.1547C55.3448 91.267 62.4438 91.929 69.5383 93.2621C114.682 101.745 159.742 110.864 204.781 119.978L204.787 119.979L204.821 119.986C222.073 123.478 239.322 126.968 256.572 130.422C276.476 134.403 293.14 142.926 309.625 151.715C310.625 152.248 311.624 152.782 312.624 153.316C328.09 161.582 343.567 169.854 361.536 174.524C378.928 179.039 397.154 178.927 415.768 176.128Z" fill="black"/>
<path d="M404.497 182.237C405.001 181.978 405.505 181.718 406.007 181.457C393.093 182.135 380.352 181.409 367.882 178.687C349.267 174.626 332.257 167.325 315.152 159.984L313.995 159.488C296.509 151.985 278.885 144.517 259.363 140.547C221.721 132.895 184.376 123.515 147.047 114.138L147.041 114.137C125.469 108.718 103.902 103.301 82.2863 98.219C72.1647 95.8365 61.7733 95.0336 51.2078 95.4114C51.3712 95.6416 51.535 95.8715 51.6992 96.1011C62.0484 95.7652 72.2197 96.575 82.1247 98.9065C103.719 103.983 125.278 109.398 146.847 114.816L146.849 114.817C184.191 124.197 221.568 133.585 259.223 141.239C278.664 145.192 296.224 152.632 313.717 160.137L314.897 160.643C331.986 167.977 349.05 175.301 367.731 179.377C379.772 182.005 392.058 182.782 404.497 182.237Z" fill="black"/>
<path d="M396.668 186.094C397.134 185.873 397.6 185.651 398.064 185.428C391.841 185.269 385.631 184.796 379.439 183.951C359.53 181.232 340.404 174.718 321.23 167.932C319.956 167.481 318.681 167.029 317.407 166.576C299.507 160.225 281.518 153.842 262.808 150.325C233.359 144.791 204.585 135.906 175.809 126.937L173.73 126.289C145.653 117.536 117.559 108.777 88.8545 103.066C78.2206 100.951 67.0977 100.589 55.6631 101.509C55.8307 101.732 55.9987 101.955 56.167 102.177C67.3872 101.307 78.2926 101.686 88.717 103.759C117.385 109.462 145.447 118.211 173.535 126.968L175.599 127.611C204.37 136.579 233.183 145.476 262.677 151.019C281.331 154.526 299.272 160.891 317.182 167.246C318.453 167.697 319.724 168.148 320.994 168.598C340.164 175.382 359.354 181.921 379.344 184.65C385.105 185.437 390.881 185.903 396.668 186.094Z" fill="black"/>
<path d="M389.708 189.27C390.158 189.072 390.607 188.873 391.055 188.673C389.419 188.542 387.784 188.392 386.148 188.22C366.138 186.118 346.031 181.205 325.946 175.861C322.245 174.877 318.545 173.878 314.846 172.879L314.81 172.869L314.807 172.869C298.453 168.452 282.127 164.044 265.919 160.943C237.743 155.55 210.358 146.253 183.004 136.69C181.071 136.014 179.139 135.337 177.206 134.66C151.793 125.758 126.359 116.849 100.33 110.872C87.5866 107.94 75.0049 108.238 62.5612 110.314C62.733 110.524 62.9051 110.735 63.0775 110.945C75.3243 108.939 87.6766 108.686 100.172 111.56C126.161 117.528 151.558 126.424 176.978 135.329L177.01 135.34C178.93 136.013 180.85 136.685 182.771 137.357C210.123 146.919 237.553 156.232 265.787 161.636C281.966 164.732 298.259 169.132 314.612 173.547L314.614 173.548L314.639 173.555C318.344 174.555 322.053 175.557 325.765 176.544C345.853 181.888 366.006 186.814 386.075 188.923C387.286 189.049 388.497 189.165 389.708 189.27Z" fill="black"/>
<path d="M382.216 192.434C382.68 192.246 383.143 192.057 383.606 191.866C355.964 189.087 327.276 183.29 299.408 177.658C289.105 175.575 278.914 173.516 268.929 171.64C243.113 166.789 217.999 156.808 192.859 146.818L191.519 146.285C190.824 146.009 190.129 145.733 189.434 145.457C163.162 135.028 136.83 124.844 109.675 120.806C97.281 118.962 84.354 118.958 71.0956 120.283C71.2909 120.501 71.4865 120.718 71.6824 120.935C84.7093 119.666 97.4022 119.695 109.571 121.504C136.634 125.529 162.893 135.681 189.173 146.113C190.323 146.57 191.472 147.026 192.621 147.483C217.742 157.466 242.915 167.47 268.799 172.334C278.761 174.206 288.937 176.262 299.23 178.342L299.234 178.343C326.668 183.888 354.937 189.601 382.216 192.434Z" fill="black"/>
<path d="M371.682 196.452C372.213 196.262 372.743 196.07 373.272 195.877C339.342 193.051 304.034 188.118 271.577 182.436C245.826 177.935 220.853 168.14 195.857 158.335L193.824 157.538C168.162 147.476 142.453 137.557 115.897 133.558C105.174 131.944 94.016 131.632 82.5613 132.318C82.7868 132.541 83.0126 132.764 83.2388 132.986C94.4264 132.352 105.32 132.681 115.792 134.257C142.257 138.242 167.894 148.13 193.567 158.196L195.627 159.004L195.629 159.004C220.603 168.8 245.634 178.618 271.456 183.132C303.439 188.731 338.196 193.604 371.682 196.452Z" fill="black"/>
<path d="M356.828 201.303C357.539 201.093 358.249 200.88 358.958 200.664C330.614 199.792 302.232 197.625 273.762 193.372C247.815 189.491 222.541 180.626 197.243 171.753L197.242 171.752L195.973 171.307C170.263 162.291 144.517 153.352 118.065 149.764C112.218 148.972 106.26 148.513 100.21 148.346C100.504 148.591 100.798 148.835 101.094 149.079C106.809 149.265 112.44 149.715 117.971 150.464C144.34 154.04 170.019 162.953 195.74 171.974L197.037 172.429C222.314 181.295 247.643 190.179 273.657 194.07C301.454 198.223 329.162 200.388 356.828 201.303Z" fill="black"/>
<path d="M316.52 210C317.682 209.839 318.841 209.67 319.999 209.495C304.76 208.639 289.564 207.391 274.428 205.644C248.075 202.601 222.032 195.129 195.949 187.645L195.703 187.575C194.618 187.263 193.532 186.952 192.446 186.641C172.744 180.994 153.009 175.455 133.114 171.94C133.672 172.281 134.232 172.621 134.792 172.959C154.032 176.476 173.139 181.842 192.252 187.319C193.426 187.656 194.6 187.993 195.773 188.329C221.841 195.809 247.935 203.295 274.347 206.345C288.359 207.963 302.421 209.153 316.52 210Z" fill="black"/>
</svg>
