<svg width="169" height="136" viewBox="0 0 169 136" fill="none" xmlns="http://www.w3.org/2000/svg">
<path d="M336.986 -325.606C333.261 -326.23 329.54 -326.865 325.819 -327.5C322.657 -328.04 319.496 -328.58 316.333 -329.112C314.994 -329.338 313.654 -329.562 312.315 -329.785C308.344 -330.274 304.348 -330.68 300.328 -331C305.63 -330.179 310.924 -329.307 316.215 -328.416C319.375 -327.884 322.535 -327.344 325.695 -326.805L325.697 -326.805C332.77 -325.598 339.85 -324.389 346.952 -323.256C343.653 -324.099 340.331 -324.883 336.986 -325.606Z" fill="black"/>
<path d="M398.554 -304.426C397.884 -304.749 397.213 -305.07 396.54 -305.388C392.642 -305.867 388.74 -306.32 384.833 -306.743C364.584 -308.939 344.934 -313.148 325.296 -317.354L325.291 -317.355C322.114 -318.036 318.938 -318.716 315.759 -319.388C292.938 -324.21 270.016 -328.587 246.124 -329.337C244.454 -329.389 242.786 -329.431 241.119 -329.462C239.585 -329.258 238.054 -329.043 236.528 -328.814C239.716 -328.791 242.907 -328.732 246.101 -328.631C269.926 -327.883 292.796 -323.519 315.613 -318.697C318.79 -318.025 321.966 -317.345 325.143 -316.665C344.779 -312.459 364.469 -308.241 384.757 -306.041C389.362 -305.542 393.961 -305.002 398.554 -304.426Z" fill="black"/>
<path d="M428.168 -287.831C427.711 -288.125 427.253 -288.418 426.794 -288.709C413.366 -290.345 400.005 -292.042 386.756 -293.789C365.473 -296.593 345.08 -302.16 324.706 -307.722L324.705 -307.722C321.399 -308.625 318.094 -309.527 314.785 -310.417C291.097 -316.792 267.254 -322.55 241.956 -323.309C228.974 -323.699 216.155 -323.027 203.427 -321.768C202.124 -321.406 200.824 -321.035 199.529 -320.654C213.539 -322.171 227.64 -323.032 241.935 -322.603C267.144 -321.846 290.918 -316.108 314.602 -309.735C317.906 -308.846 321.209 -307.944 324.514 -307.042C344.885 -301.481 365.33 -295.9 386.664 -293.089C400.395 -291.278 414.246 -289.521 428.168 -287.831Z" fill="black"/>
<path d="M447.51 -274.184C447.175 -274.442 446.84 -274.7 446.504 -274.956C427.119 -276.209 407.873 -277.925 388.971 -280.497C365.658 -283.671 343.726 -291.243 321.783 -298.819L321.779 -298.82C318.998 -299.78 316.216 -300.74 313.432 -301.692C288.692 -310.144 263.728 -317.89 236.63 -318.58C213.612 -319.16 191.566 -315.1 169.737 -310.009C168.499 -309.484 167.266 -308.951 166.037 -308.41C189.117 -313.914 212.329 -318.486 236.612 -317.874C263.592 -317.186 288.467 -309.475 313.204 -301.023C315.988 -300.072 318.77 -299.112 321.553 -298.151C343.488 -290.578 365.489 -282.982 388.876 -279.798C408.134 -277.177 427.753 -275.444 447.51 -274.184Z" fill="black"/>
<path d="M462.383 -261.873C462.122 -262.104 461.861 -262.336 461.599 -262.566C437.814 -262.18 414.241 -262.974 391.476 -266.904C367.349 -271.061 344.788 -280.418 322.224 -289.777L322.22 -289.779C318.778 -291.206 315.336 -292.634 311.889 -294.043C285.854 -304.684 259.51 -314.267 230.545 -314.748C204.028 -315.188 179.575 -307.749 155.375 -299.346C151.979 -298.167 148.589 -296.969 145.199 -295.771C141.633 -294.511 138.067 -293.251 134.495 -292.013C133.561 -291.449 132.631 -290.879 131.704 -290.304C136.296 -291.876 140.872 -293.493 145.444 -295.108L145.445 -295.109C148.833 -296.306 152.218 -297.502 155.606 -298.679C179.8 -307.08 204.15 -314.479 230.534 -314.041C259.355 -313.564 285.593 -304.028 311.622 -293.389C315.064 -291.982 318.504 -290.555 321.945 -289.128L321.946 -289.127C344.505 -279.77 367.145 -270.38 391.356 -266.208C414.427 -262.225 438.315 -261.457 462.383 -261.873Z" fill="black"/>
<path d="M473.646 -251.305C473.431 -251.518 473.216 -251.731 473 -251.943C446.301 -248.953 419.75 -247.775 394.12 -253.151C369.277 -258.352 345.971 -269.596 322.637 -280.852C318.489 -282.853 314.34 -284.855 310.181 -286.823C282.651 -299.852 254.713 -311.404 223.921 -311.515C196.948 -311.615 172.988 -301.939 149.415 -291.02C145.952 -289.416 142.497 -287.786 139.043 -286.155C127.535 -280.723 116.027 -275.29 104.201 -270.843C103.626 -270.382 103.054 -269.919 102.483 -269.453C115.045 -274.045 127.218 -279.791 139.358 -285.522C142.809 -287.152 146.257 -288.78 149.711 -290.379C173.276 -301.294 197.113 -310.908 223.918 -310.808C254.541 -310.699 282.355 -299.21 309.88 -286.184C314.028 -284.221 318.169 -282.223 322.313 -280.224L322.315 -280.223C345.646 -268.967 369.041 -257.68 393.975 -252.46C419.896 -247.023 446.731 -248.266 473.646 -251.305Z" fill="black"/>
<path d="M482.669 -241.932C482.485 -242.133 482.3 -242.333 482.114 -242.534C453.587 -236.341 425.088 -232.376 396.823 -239.298C371.075 -245.603 346.811 -258.709 322.481 -271.85C317.79 -274.384 313.097 -276.919 308.39 -279.407C279.295 -294.785 249.697 -308.351 217.081 -308.481C189.719 -308.591 166.162 -296.594 143.165 -282.991C139.543 -280.849 135.936 -278.667 132.33 -276.486C115.734 -266.449 99.1645 -256.427 81.3435 -250.34C80.9728 -249.969 80.6032 -249.596 80.2346 -249.223C98.6543 -255.29 115.712 -265.609 132.716 -275.894L132.717 -275.894C136.318 -278.072 139.916 -280.249 143.524 -282.383C166.513 -295.982 189.925 -307.884 217.078 -307.775C249.507 -307.645 278.971 -294.158 308.061 -278.782C312.754 -276.302 317.438 -273.772 322.123 -271.241L322.124 -271.24C346.453 -258.098 370.811 -244.94 396.656 -238.612C425.182 -231.626 453.912 -235.674 482.559 -241.908C482.596 -241.916 482.633 -241.924 482.669 -241.932Z" fill="black"/>
<path d="M490.194 -233.401C490.03 -233.595 489.865 -233.789 489.7 -233.982C487.937 -233.402 486.173 -232.831 484.409 -232.271C456.597 -223.445 428.694 -217.44 399.525 -225.504C373.054 -232.827 347.839 -247.764 322.493 -262.778C317.222 -265.901 311.945 -269.027 306.65 -272.088C275.924 -289.854 244.6 -305.438 210.36 -305.388C182.56 -305.347 159.389 -291.043 136.969 -274.82C133.285 -272.155 129.621 -269.438 125.961 -266.723L125.959 -266.722C107.314 -252.893 88.7473 -239.123 67.9212 -232.486C66.6308 -232.075 65.3362 -231.693 64.0375 -231.341C63.779 -231.03 63.5211 -230.718 63.2638 -230.405C64.8938 -230.829 66.5178 -231.297 68.1353 -231.813C89.0839 -238.489 107.763 -252.345 126.407 -266.174C130.061 -268.884 133.714 -271.594 137.382 -274.248C159.797 -290.467 182.806 -304.642 210.361 -304.681C244.395 -304.731 275.573 -289.241 306.297 -271.477C311.576 -268.425 316.842 -265.305 322.106 -262.186C347.453 -247.17 372.766 -232.174 399.337 -224.824C428.713 -216.702 456.782 -222.762 484.622 -231.598C486.48 -232.188 488.338 -232.79 490.194 -233.401Z" fill="black"/>
<path d="M496.679 -225.449C496.529 -225.64 496.378 -225.831 496.228 -226.022C492.97 -224.576 489.714 -223.156 486.455 -221.787C459.558 -210.49 432.403 -202.618 402.086 -211.831C374.996 -220.064 348.859 -236.711 322.51 -253.493L322.509 -253.494C316.691 -257.2 310.863 -260.912 305.012 -264.541C272.694 -284.588 239.691 -302.105 204.017 -301.835C175.772 -301.624 152.953 -285.096 131.081 -266.385C127.39 -263.228 123.727 -260.009 120.069 -256.794C112.874 -250.473 105.699 -244.168 98.365 -238.376C87.3073 -229.645 75.921 -222.108 63.6371 -217.492C59.3538 -215.881 55.0138 -214.675 50.6255 -213.822C50.4309 -213.546 50.2369 -213.27 50.0433 -212.993C54.7123 -213.858 59.3297 -215.118 63.8851 -216.83C76.2671 -221.484 87.7195 -229.07 98.8021 -237.822C106.15 -243.624 113.351 -249.952 120.555 -256.281L120.559 -256.285C124.212 -259.495 127.866 -262.706 131.54 -265.849C153.411 -284.559 176.056 -300.92 204.022 -301.129C239.474 -301.397 272.322 -283.988 304.64 -263.941C310.472 -260.323 316.287 -256.619 322.097 -252.918L322.099 -252.917C348.45 -236.132 374.689 -219.419 401.881 -211.155C432.442 -201.868 459.793 -209.822 486.728 -221.136C490.05 -222.532 493.365 -223.978 496.679 -225.449Z" fill="black"/>
<path d="M502.348 -217.975C502.208 -218.167 502.068 -218.358 501.927 -218.549C497.418 -216.041 492.92 -213.569 488.405 -211.215C462.442 -197.679 436.032 -188.114 404.406 -198.397C376.736 -207.397 349.733 -225.59 322.438 -243.98L322.435 -243.982C316.163 -248.207 309.876 -252.444 303.561 -256.581C269.802 -278.7 235.279 -297.985 198.351 -297.484C169.623 -297.093 147.145 -278.536 125.797 -257.583C122.142 -253.996 118.522 -250.34 114.909 -246.692L114.907 -246.69C107.951 -239.664 101.019 -232.664 93.9149 -226.23C83.126 -216.459 71.9749 -208.029 59.8145 -202.857C53.3493 -200.11 46.7448 -198.435 40.0333 -197.625C39.879 -197.37 39.7252 -197.115 39.5718 -196.86C46.5308 -197.651 53.3829 -199.357 60.0904 -202.207C72.3565 -207.423 83.5759 -215.914 94.3883 -225.707C101.506 -232.153 108.463 -239.179 115.429 -246.213C119.04 -249.859 122.652 -253.507 126.291 -257.079C147.644 -278.037 169.941 -296.391 198.361 -296.778C235.052 -297.275 269.412 -278.112 303.175 -255.99C309.469 -251.866 315.743 -247.638 322.008 -243.417C349.307 -225.024 376.415 -206.759 404.188 -197.726C436.091 -187.353 462.721 -197.027 488.731 -210.589C493.279 -212.96 497.811 -215.451 502.348 -217.975Z" fill="black"/>
<path d="M507.406 -210.838C507.273 -211.032 507.14 -211.226 507.006 -211.42C506.829 -211.304 506.652 -211.187 506.475 -211.071L506.474 -211.07C501.031 -207.492 495.625 -203.939 490.185 -200.59C465.101 -185.148 439.382 -174.109 406.464 -185.304C379.797 -194.364 353.852 -210.687 329.253 -226.163C322.903 -230.158 316.642 -234.097 310.483 -237.84C304.496 -241.48 298.047 -245.692 291.258 -250.125C279.966 -257.499 267.736 -265.485 255.139 -272.476C234.955 -283.676 213.721 -292.387 193.664 -292.016C164.355 -291.474 142.229 -271.185 121.396 -248.336C117.832 -244.427 114.307 -240.444 110.79 -236.47L110.789 -236.469C104.009 -228.809 97.2568 -221.18 90.3087 -214.173C79.7605 -203.536 68.796 -194.37 56.6738 -188.763C48.5061 -184.986 40.1269 -183.111 31.5992 -182.671C31.4726 -182.43 31.3463 -182.188 31.2204 -181.946C39.9698 -182.35 48.5772 -184.241 56.9698 -188.122C69.2043 -193.781 80.2388 -203.015 90.8096 -213.676C97.7709 -220.696 104.547 -228.352 111.336 -236.022C114.851 -239.993 118.369 -243.968 121.917 -247.86C142.76 -270.719 164.701 -290.774 193.677 -291.31C213.54 -291.677 234.638 -283.045 254.797 -271.858C267.381 -264.875 279.558 -256.922 290.828 -249.562C297.623 -245.124 304.089 -240.901 310.116 -237.236C316.254 -233.507 322.499 -229.578 328.839 -225.589C353.445 -210.108 379.483 -193.725 406.237 -184.635C439.46 -173.337 465.416 -184.512 490.555 -199.989C496.004 -203.343 501.42 -206.903 506.862 -210.48C507.043 -210.6 507.225 -210.719 507.406 -210.838Z" fill="black"/>
<path d="M511.988 -203.936C511.86 -204.135 511.733 -204.333 511.605 -204.531C511.002 -204.088 510.401 -203.645 509.8 -203.201C508.703 -202.391 507.608 -201.581 506.515 -200.771C501.53 -197.08 496.582 -193.417 491.597 -189.947C467.295 -173.031 442.206 -160.782 408.101 -172.61C380.818 -182.075 354.176 -199.331 329.047 -215.607L329.044 -215.608C322.429 -219.893 315.919 -224.109 309.529 -228.098C303.417 -231.917 296.81 -236.362 289.832 -241.057L289.831 -241.057C287.609 -242.553 285.349 -244.073 283.055 -245.607C273.564 -251.954 263.502 -258.522 253.172 -264.433C232.522 -276.249 210.752 -285.472 190.273 -285.031C160.267 -284.388 138.524 -262.774 118.203 -238.488C114.789 -234.407 111.415 -230.251 108.049 -226.104L108.048 -226.103C101.38 -217.89 94.7388 -209.709 87.86 -202.208C77.5128 -190.923 66.6637 -181.217 54.4549 -175.309C44.8078 -170.642 34.9196 -168.79 24.876 -168.931C24.7696 -168.697 24.6635 -168.463 24.5577 -168.229C34.8001 -168.045 44.9016 -169.903 54.7621 -174.673C67.0895 -180.639 78.0101 -190.421 88.3799 -201.73C95.2723 -209.247 101.938 -217.457 108.614 -225.681C111.978 -229.824 115.345 -233.971 118.744 -238.034C139.077 -262.335 160.634 -283.69 190.288 -284.325C210.566 -284.761 232.195 -275.623 252.822 -263.82C263.13 -257.921 273.175 -251.364 282.663 -245.019C284.952 -243.489 287.209 -241.97 289.43 -240.476L289.431 -240.475C296.412 -235.779 303.032 -231.325 309.156 -227.499C315.521 -223.525 322.015 -219.319 328.62 -215.041L328.622 -215.039C353.759 -198.758 380.497 -181.439 407.87 -171.943C442.3 -160.002 467.638 -172.41 492 -189.367C496.994 -192.843 501.952 -196.514 506.938 -200.205L506.952 -200.216C508.04 -201.021 509.128 -201.827 510.219 -202.633C510.808 -203.068 511.397 -203.502 511.988 -203.936Z" fill="black"/>
<path d="M516.236 -197.11C516.114 -197.313 515.991 -197.515 515.869 -197.718C512.553 -195.144 509.279 -192.529 506.024 -189.929C501.518 -186.33 497.047 -182.759 492.551 -179.364C480.722 -170.433 468.679 -162.685 455.205 -158.681C441.742 -154.681 426.831 -154.412 409.257 -160.476C381.653 -170.005 354.536 -187.94 329.143 -204.735L329.141 -204.737C322.298 -209.262 315.581 -213.705 309.013 -217.878C302.815 -221.814 296.127 -226.393 289.067 -231.225L289.058 -231.231C286.839 -232.751 284.582 -234.295 282.293 -235.853C272.723 -242.364 262.582 -249.099 252.162 -255.159C231.333 -267.273 209.338 -276.721 188.498 -276.269C157.608 -275.587 136.289 -253.156 116.485 -228.002C113.286 -223.939 110.127 -219.806 106.974 -215.68L106.972 -215.678C100.347 -207.008 93.7431 -198.367 86.8342 -190.465C76.6407 -178.807 65.8178 -168.802 53.358 -162.755C42.2864 -157.381 31.0115 -155.747 19.6179 -156.606C19.5267 -156.377 19.4358 -156.147 19.3452 -155.918C30.9158 -155.014 42.3902 -156.646 53.6659 -162.12C66.2507 -168.227 77.1475 -178.314 87.3652 -190C94.2891 -197.919 100.917 -206.592 107.55 -215.272C110.701 -219.394 113.853 -223.519 117.039 -227.565C136.855 -252.734 157.988 -274.889 188.514 -275.563C209.15 -276.01 231.002 -266.648 251.808 -254.548C262.205 -248.501 272.329 -241.778 281.896 -235.269C284.178 -233.716 286.429 -232.176 288.645 -230.659L288.66 -230.648L288.661 -230.648C295.723 -225.813 302.426 -221.225 308.635 -217.282C315.177 -213.125 321.877 -208.694 328.708 -204.175L328.709 -204.175C354.111 -187.373 381.33 -169.369 409.027 -159.808C426.737 -153.698 441.799 -153.961 455.406 -158.004C469.003 -162.045 481.128 -169.854 492.976 -178.8C497.506 -182.22 501.989 -185.801 506.499 -189.404C509.722 -191.978 512.959 -194.564 516.236 -197.11Z" fill="black"/>
<path d="M520.613 -189.58C520.497 -189.787 520.381 -189.994 520.264 -190.201C515.567 -186.664 510.967 -183.003 506.402 -179.37C501.856 -175.752 497.346 -172.162 492.811 -168.752C480.972 -159.851 468.924 -152.139 455.473 -148.175C442.032 -144.214 427.171 -143.989 409.697 -150.098C382.055 -159.758 354.896 -177.413 329.345 -194.023C322.373 -198.555 315.521 -203.009 308.812 -207.202C302.442 -211.184 295.549 -215.845 288.266 -220.769L288.264 -220.77L288.252 -220.779C286.194 -222.17 284.104 -223.583 281.987 -225.007C272.375 -231.473 262.191 -238.174 251.735 -244.22C230.834 -256.306 208.801 -265.803 188.043 -265.532C157.049 -265.12 135.859 -242.561 116.211 -217.228C113.041 -213.14 109.911 -208.98 106.786 -204.826L106.783 -204.823C100.21 -196.087 93.6579 -187.378 86.7918 -179.423C76.6654 -167.69 65.8918 -157.64 53.4382 -151.619C40.9656 -145.585 28.3232 -144.247 15.5916 -145.851C15.5119 -145.624 15.4325 -145.397 15.3534 -145.17C28.2435 -143.522 41.0754 -144.854 53.7452 -150.983C66.3264 -157.066 77.1751 -167.2 87.3258 -178.961C94.207 -186.934 100.784 -195.675 107.365 -204.422L107.371 -204.43C110.492 -208.577 113.613 -212.726 116.769 -216.795C136.428 -242.144 157.431 -264.419 188.052 -264.826C208.61 -265.094 230.504 -255.681 251.382 -243.608C261.816 -237.575 271.984 -230.885 281.593 -224.421C283.711 -222.997 285.802 -221.583 287.863 -220.189L287.864 -220.188C295.149 -215.263 302.056 -210.593 308.438 -206.603C315.122 -202.426 321.956 -197.983 328.916 -193.459L328.917 -193.458C354.477 -176.842 381.733 -159.123 409.465 -149.431C427.075 -143.275 442.087 -143.494 455.672 -147.498C469.246 -151.498 481.376 -159.271 493.234 -168.187C497.804 -171.623 502.327 -175.223 506.877 -178.845C511.405 -182.449 515.959 -186.074 520.613 -189.58Z" fill="black"/>
<path d="M525.106 -181.235C524.997 -181.446 524.888 -181.657 524.779 -181.867C520.257 -178.775 515.823 -175.562 511.429 -172.344C510.368 -171.566 509.31 -170.789 508.253 -170.012C503.23 -166.323 498.248 -162.663 493.229 -159.201C468.937 -142.442 443.893 -130.376 409.937 -142.314C382.243 -152.048 355.165 -168.517 329.306 -184.245L329.305 -184.245C322.175 -188.582 315.137 -192.862 308.205 -196.929C301.384 -200.932 293.926 -205.714 286.021 -210.784C284.385 -211.833 282.73 -212.894 281.058 -213.964C271.306 -220.198 260.964 -226.7 250.379 -232.588C229.221 -244.358 207.045 -253.708 186.629 -253.558C156.331 -253.327 135.309 -230.995 115.837 -205.867C112.589 -201.675 109.383 -197.405 106.185 -193.144C99.7806 -184.613 93.402 -176.115 86.7492 -168.34C76.7784 -156.687 66.2285 -146.702 54.1334 -140.721C40.3378 -133.898 26.2955 -132.9 12.1328 -135.323C12.0632 -135.096 11.9941 -134.869 11.9251 -134.642C26.2304 -132.18 40.4567 -133.169 54.4459 -140.088C66.6677 -146.131 77.2917 -156.201 87.2851 -167.881C93.9521 -175.673 100.355 -184.202 106.768 -192.745C109.963 -197.001 113.161 -201.261 116.395 -205.434C135.881 -230.58 156.713 -252.623 186.634 -252.851C206.856 -253 228.897 -243.73 250.036 -231.97C260.601 -226.093 270.928 -219.602 280.678 -213.368C282.347 -212.302 283.999 -211.242 285.632 -210.194L285.635 -210.192C293.541 -205.122 301.013 -200.33 307.848 -196.32C314.758 -192.266 321.78 -187.995 328.9 -183.664L328.901 -183.664C354.769 -167.93 381.932 -151.409 409.703 -141.648C443.983 -129.596 469.277 -141.819 493.629 -158.619C498.658 -162.088 503.651 -165.756 508.674 -169.446C509.73 -170.221 510.787 -170.998 511.846 -171.774C516.216 -174.975 520.619 -178.165 525.106 -181.235Z" fill="black"/>
<path d="M529.437 -172.476C529.336 -172.69 529.234 -172.903 529.133 -173.117C523.621 -169.83 518.222 -166.37 512.874 -162.911C512.054 -162.381 511.236 -161.851 510.418 -161.321C504.963 -157.787 499.551 -154.281 494.106 -150.982C469.068 -135.809 443.422 -125.053 410.252 -136.268C382.296 -145.731 354.961 -160.879 328.555 -175.511C321.358 -179.5 314.229 -183.45 307.176 -187.237C299.888 -191.148 291.861 -195.907 283.341 -200.958C282.069 -201.712 280.785 -202.473 279.491 -203.238C269.539 -209.128 258.987 -215.292 248.227 -220.877C226.716 -232.043 204.317 -240.926 184.134 -240.665C154.525 -240.293 134.047 -218.35 115.121 -193.664C111.919 -189.488 108.763 -185.235 105.614 -180.991L105.613 -180.991C99.4359 -172.666 93.2847 -164.377 86.8712 -156.779C77.1926 -145.313 66.9537 -135.469 55.207 -129.523C40.1848 -121.922 24.7465 -121.392 9.11945 -124.741C9.05945 -124.514 8.99969 -124.286 8.94031 -124.058C24.6932 -120.676 40.3115 -121.195 55.5254 -128.893C67.3976 -134.902 77.7096 -144.831 87.4102 -156.323C93.8374 -163.937 100.013 -172.259 106.199 -180.595C109.345 -184.835 112.494 -189.078 115.681 -193.234C134.62 -217.938 154.91 -239.592 184.143 -239.959C204.14 -240.217 226.406 -231.408 247.902 -220.25C258.644 -214.675 269.18 -208.52 279.132 -202.63C280.418 -201.87 281.693 -201.113 282.959 -200.363L282.98 -200.351C291.499 -195.301 299.54 -190.534 306.843 -186.614C313.876 -182.838 320.992 -178.895 328.181 -174.911C354.593 -160.274 382.004 -145.084 410.026 -135.599C443.495 -124.282 469.375 -135.17 494.471 -150.378C499.926 -153.683 505.348 -157.195 510.802 -160.728C511.619 -161.258 512.438 -161.788 513.257 -162.318C518.586 -165.765 523.957 -169.207 529.437 -172.476Z" fill="black"/>
<path d="M533.608 -163.216C533.515 -163.433 533.422 -163.65 533.328 -163.866C526.414 -160.425 519.649 -156.747 512.939 -153.099C507.063 -149.903 501.229 -146.731 495.375 -143.763C469.448 -130.615 443.073 -121.414 410.603 -131.541C382.335 -140.36 354.613 -153.982 327.591 -167.26C320.277 -170.854 313.014 -174.422 305.805 -177.864C297.954 -181.609 289.267 -186.245 280.053 -191.163L280.051 -191.163L279.958 -191.213C279.111 -191.665 278.26 -192.12 277.404 -192.576C267.208 -198.013 256.419 -203.716 245.455 -208.874C223.539 -219.185 200.878 -227.346 180.82 -226.834C151.89 -226.081 132.252 -204.688 114.154 -180.662C111.106 -176.614 108.101 -172.493 105.103 -168.379C99.1855 -160.261 93.2911 -152.175 87.1234 -144.751C77.8354 -133.57 67.9637 -123.936 56.5403 -118.026C40.4286 -109.691 23.6255 -109.735 6.53473 -114.072C6.48383 -113.842 6.43323 -113.612 6.38287 -113.381C23.5814 -109.021 40.5616 -108.965 56.8643 -117.399C68.4118 -123.373 78.3556 -133.091 87.666 -144.299C93.847 -151.74 99.7651 -159.858 105.691 -167.987L105.692 -167.988C108.687 -172.097 111.684 -176.209 114.718 -180.237C132.827 -204.278 152.281 -225.385 180.838 -226.128C200.72 -226.635 223.253 -218.54 245.155 -208.235C256.101 -203.085 266.876 -197.39 277.072 -191.952C277.96 -191.479 278.844 -191.007 279.723 -190.538C288.934 -185.623 297.634 -180.979 305.502 -177.227C312.692 -173.794 319.943 -170.231 327.249 -166.641L327.252 -166.639C354.281 -153.358 382.067 -139.704 410.393 -130.867C443.128 -120.657 469.713 -129.957 495.694 -143.133C501.587 -146.121 507.446 -149.307 513.338 -152.51C520.02 -156.143 526.744 -159.799 533.608 -163.216Z" fill="black"/>
<path d="M537.536 -153.55C537.452 -153.77 537.367 -153.989 537.282 -154.209C530.062 -151.359 522.965 -148.299 515.916 -145.26L515.915 -145.26C509.595 -142.535 503.315 -139.828 497.021 -137.304C470.081 -126.501 442.852 -119.042 411.051 -127.832C382.387 -135.743 354.173 -147.673 326.449 -159.395L326.445 -159.397C319.019 -162.537 311.628 -165.662 304.272 -168.691C295.815 -172.173 286.44 -176.562 276.517 -181.207L275.049 -181.894C264.586 -186.791 253.543 -191.933 242.362 -196.562C220.01 -205.815 197.057 -213.037 177.024 -212.125C148.686 -210.84 130.138 -190.098 113.108 -166.895C110.329 -163.109 107.592 -159.26 104.859 -155.415L104.858 -155.414C99.1993 -147.455 93.558 -139.52 87.6036 -132.231C78.7779 -121.428 69.2988 -112.091 58.1346 -106.27C41.0082 -97.3392 22.8885 -98.053 4.39008 -103.39C4.34802 -103.157 4.30627 -102.924 4.26483 -102.691C22.8508 -97.3406 41.1437 -96.6135 58.4606 -105.644C69.7489 -111.529 79.3 -120.952 88.1499 -131.784C94.1193 -139.091 99.7853 -147.06 105.452 -155.031L105.455 -155.035C108.184 -158.873 110.913 -162.712 113.676 -166.477C130.714 -189.69 149.084 -210.151 177.056 -211.42C196.924 -212.324 219.753 -205.157 242.092 -195.909C253.256 -191.287 264.286 -186.152 274.75 -181.254L276.225 -180.564L276.226 -180.564C286.142 -175.921 295.53 -171.527 304.004 -168.038C311.346 -165.014 318.73 -161.892 326.151 -158.754C353.881 -147.029 382.15 -135.076 410.863 -127.151C442.89 -118.299 470.297 -125.827 497.284 -136.648C503.614 -139.187 509.918 -141.904 516.252 -144.635C523.284 -147.666 530.353 -150.714 537.536 -153.55Z" fill="black"/>
<path d="M541.135 -143.63C541.059 -143.853 540.983 -144.076 540.906 -144.299C533.615 -142.17 526.404 -139.881 519.228 -137.604C512.46 -135.455 505.722 -133.317 498.98 -131.333C470.934 -123.081 442.741 -117.479 411.555 -124.782C382.447 -131.592 353.678 -141.692 325.253 -151.67C317.717 -154.316 310.205 -156.953 302.717 -159.518C293.536 -162.661 283.362 -166.718 272.631 -170.996L272.607 -171.006C261.871 -175.287 250.579 -179.789 239.186 -183.811C216.408 -191.851 193.174 -197.99 173.088 -196.598C144.61 -194.629 127.74 -174.235 112.296 -151.816C110.234 -148.823 108.198 -145.794 106.164 -142.767C100.564 -134.438 94.9735 -126.122 88.8759 -118.592C80.5669 -108.331 71.3452 -99.5698 59.9437 -94.2831C41.1968 -85.5863 22.037 -87.026 2.7312 -93.0921C2.69769 -92.8558 2.66443 -92.6194 2.63153 -92.3829C22.0042 -86.3139 41.3179 -84.864 60.2404 -93.6423C71.7799 -98.993 81.0824 -107.846 89.4241 -118.147C95.5433 -125.704 101.161 -134.06 106.766 -142.397C108.797 -145.419 110.826 -148.437 112.877 -151.415C128.325 -173.84 145.024 -193.95 173.136 -195.893C193.069 -197.275 216.186 -191.18 238.951 -183.145C250.329 -179.128 261.608 -174.632 272.346 -170.35L272.381 -170.336C283.103 -166.061 293.291 -161.998 302.488 -158.85C309.964 -156.289 317.469 -153.655 325 -151.011C353.429 -141.03 382.245 -130.914 411.395 -124.094C442.761 -116.749 471.098 -122.393 499.179 -130.655C505.953 -132.649 512.71 -134.793 519.49 -136.945C526.663 -139.222 533.862 -141.507 541.135 -143.63Z" fill="black"/>
<path d="M544.413 -133.378C544.346 -133.605 544.278 -133.831 544.21 -134.058C537.279 -132.66 530.371 -131.156 523.474 -129.655C517.374 -128.327 511.282 -127.001 505.19 -125.752C477.2 -120.011 449.192 -115.876 420.265 -120.516C385.136 -126.143 350.514 -136.051 316.08 -145.904C303.276 -149.568 290.498 -153.225 277.729 -156.651C270.24 -158.657 262.17 -161.169 253.764 -163.785L252.35 -164.225C243.436 -166.998 234.165 -169.863 224.837 -172.341C206.189 -177.295 187.278 -180.718 170.499 -178.774C141.366 -175.401 125.445 -155.393 110.604 -133.919C109.215 -131.908 107.835 -129.885 106.454 -127.861L106.45 -127.855C93.0628 -108.227 79.6399 -88.5466 57.1325 -79.7625C39.1338 -72.73 20.3739 -75.1057 1.35211 -81.6863C1.328 -81.4454 1.3042 -81.2044 1.2807 -80.9633C20.3431 -74.3922 39.2325 -72.0105 57.3889 -79.1045C80.1118 -87.9727 93.6599 -107.843 107.023 -127.442C108.409 -129.474 109.793 -131.503 111.185 -133.517C126.025 -154.992 141.788 -174.739 170.581 -178.072C187.222 -180 206.027 -176.608 224.656 -171.658C233.968 -169.184 243.226 -166.324 252.14 -163.551L253.558 -163.11C261.961 -160.495 270.043 -157.979 277.547 -155.969C290.29 -152.55 303.053 -148.897 315.848 -145.236C350.296 -135.378 384.98 -125.453 420.153 -119.818C449.212 -115.158 477.325 -119.315 505.332 -125.06C511.442 -126.313 517.546 -127.642 523.654 -128.971C530.564 -130.475 537.48 -131.98 544.413 -133.378Z" fill="black"/>
<path d="M547.185 -123.411C547.126 -123.642 547.066 -123.872 547.006 -124.103C540.278 -123.393 533.556 -122.626 526.839 -121.86C520.462 -121.132 514.087 -120.405 507.716 -119.727C478.88 -116.662 450.07 -114.615 421.049 -118.143C385.481 -122.471 350.206 -129.937 315.029 -137.383C302.047 -140.132 289.077 -142.877 276.111 -145.461C267.945 -147.085 259.181 -149.213 250.094 -151.422L249.841 -151.483C240.836 -153.673 231.518 -155.938 222.168 -157.866C203.299 -161.757 184.263 -164.282 167.343 -162.029C139.282 -158.295 124.235 -139.325 110.233 -119.033C108.948 -117.171 107.672 -115.299 106.396 -113.426C93.7397 -94.8491 81.0508 -76.2245 59.3443 -67.6479C40.6108 -60.246 20.7249 -63.2859 0.472229 -70.7275C0.457336 -70.482 0.442749 -70.2364 0.428528 -69.9907C20.7021 -62.5698 40.7123 -59.5268 59.6035 -66.9909C81.5231 -75.6518 94.3355 -94.4632 106.969 -113.013L106.971 -113.015C108.25 -114.894 109.528 -116.77 110.813 -118.632C124.812 -138.919 139.705 -157.639 167.436 -161.329C184.234 -163.566 203.174 -161.062 222.026 -157.174C231.364 -155.249 240.671 -152.986 249.68 -150.796L249.928 -150.736C259.011 -148.527 267.79 -146.396 275.974 -144.768C288.92 -142.188 301.878 -139.445 314.854 -136.699L314.856 -136.698C350.042 -129.25 385.363 -121.774 420.964 -117.442C450.068 -113.904 478.944 -115.959 507.79 -119.025C514.174 -119.704 520.556 -120.432 526.938 -121.16L526.939 -121.16C533.686 -121.93 540.434 -122.7 547.185 -123.411Z" fill="black"/>
<path d="M549.539 -113.547C549.487 -113.782 549.436 -114.017 549.384 -114.251C543.093 -114.145 536.802 -114.02 530.512 -113.894H530.511C523.771 -113.76 517.032 -113.625 510.295 -113.515C480.773 -113.031 451.277 -113.006 421.853 -115.45C385.782 -118.436 349.854 -123.442 313.96 -128.443L313.958 -128.443C300.934 -130.258 287.913 -132.072 274.892 -133.789C266.461 -134.9 257.512 -136.451 248.289 -138.074C247.583 -138.198 246.875 -138.323 246.166 -138.448C237.615 -139.955 228.849 -141.5 220.072 -142.792C201.066 -145.589 181.977 -147.207 164.846 -144.685C137.877 -140.72 123.55 -122.879 110.214 -103.855C109.02 -102.151 107.833 -100.438 106.647 -98.7242C94.5638 -81.2764 82.4502 -63.7842 61.4981 -55.5135C42.1596 -47.877 21.3134 -51.5202 0.0202026 -59.694C0.0148926 -59.4437 0.00982666 -59.1933 0.00512695 -58.9428C21.3 -50.8009 42.2631 -47.1586 61.757 -54.8565C82.9191 -63.2102 95.1547 -80.8838 107.217 -98.3064L107.224 -98.3174C108.412 -100.034 109.599 -101.747 110.792 -103.449C124.121 -122.464 138.298 -140.068 164.948 -143.986C181.974 -146.493 200.98 -144.888 219.97 -142.093C228.737 -140.802 237.494 -139.259 246.047 -137.752L248.167 -137.378C257.388 -135.755 266.352 -134.202 274.8 -133.089C287.81 -131.373 300.824 -129.56 313.845 -127.746C349.746 -122.744 385.702 -117.734 421.795 -114.746C451.255 -112.3 480.78 -112.325 510.306 -112.809C517.046 -112.919 523.784 -113.054 530.523 -113.188L530.534 -113.188C536.87 -113.315 543.205 -113.441 549.539 -113.547Z" fill="black"/>
<path d="M551.503 -103.747C551.46 -103.986 551.416 -104.225 551.372 -104.463C543.004 -104.989 534.636 -105.523 526.269 -106.058C491.758 -108.262 457.246 -110.467 422.698 -112.038C385.886 -113.714 349.12 -116.283 312.352 -118.852C299.653 -119.74 286.953 -120.627 274.252 -121.478C264.218 -122.152 253.639 -123.333 242.816 -124.54C234.912 -125.422 226.878 -126.318 218.831 -127.043C199.791 -128.757 180.729 -129.504 163.347 -126.783C137.443 -122.738 123.605 -106.103 110.699 -88.4159C109.567 -86.8646 108.443 -85.3056 107.318 -83.7462C95.5991 -67.502 83.8559 -51.2235 63.6138 -43.3804C43.7228 -35.662 22.1026 -39.8176 0 -48.5696C0.0045166 -48.3142 0.00946045 -48.0589 0.0147095 -47.8037C22.1013 -39.0944 43.8279 -34.9453 63.8686 -42.7217C84.3159 -50.6444 96.1806 -67.0959 107.879 -83.3176C109.008 -84.8829 110.136 -86.4462 111.269 -87.9994C124.165 -105.673 137.855 -122.087 163.456 -126.085C180.75 -128.792 199.743 -128.052 218.768 -126.339C226.777 -125.618 234.801 -124.723 242.705 -123.842L242.707 -123.841C253.55 -122.632 264.167 -121.448 274.204 -120.773C286.902 -119.923 299.598 -119.035 312.296 -118.148C349.066 -115.579 385.845 -113.009 422.666 -111.333C457.213 -109.761 491.706 -107.558 526.206 -105.354L526.209 -105.354L526.215 -105.354C534.644 -104.815 543.073 -104.277 551.503 -103.747Z" fill="black"/>
<path d="M553.109 -93.916C553.074 -94.1582 553.038 -94.4003 553.002 -94.6423C546.253 -95.5285 539.508 -96.4438 532.764 -97.359L532.757 -97.36C526.885 -98.1569 521.014 -98.9537 515.14 -99.7312C484.794 -103.748 454.393 -107.248 423.582 -107.568C390.429 -107.9 357.274 -108.038 324.121 -108.175H324.119L324.092 -108.175C307.524 -108.244 290.957 -108.313 274.39 -108.406C263.191 -108.469 251.513 -109.047 239.657 -109.634L239.655 -109.634C232.707 -109.978 225.697 -110.325 218.685 -110.573C199.724 -111.245 180.778 -111.191 163.127 -108.381C138.218 -104.407 124.576 -89.0548 111.796 -72.7762C110.695 -71.3742 109.601 -69.9657 108.507 -68.5569C96.8796 -53.5891 85.2373 -38.6018 65.6124 -31.3074C45.1708 -23.7125 23.0229 -28.2514 0.420471 -37.3831C0.435425 -37.1228 0.450745 -36.8626 0.466431 -36.6024C23.0375 -27.5236 45.2779 -22.999 65.8581 -30.6453C85.6807 -38.0132 97.4443 -53.1607 109.053 -68.109L109.067 -68.1273C110.161 -69.5355 111.253 -70.9419 112.351 -72.3398C125.118 -88.6022 138.615 -103.755 163.238 -107.684C180.82 -110.482 199.71 -110.539 218.66 -109.868C225.649 -109.62 232.649 -109.274 239.594 -108.93L239.596 -108.93C251.466 -108.342 263.175 -107.763 274.386 -107.7C290.962 -107.606 307.538 -107.538 324.114 -107.469H324.121C357.273 -107.331 390.424 -107.194 423.575 -106.861C454.34 -106.542 484.706 -103.047 515.047 -99.031C520.918 -98.2539 526.788 -97.4573 532.66 -96.6604C539.472 -95.7359 546.287 -94.811 553.109 -93.916Z" fill="black"/>
<path d="M554.374 -83.9113C554.348 -84.1558 554.321 -84.4003 554.294 -84.6447C547.587 -85.8937 540.89 -87.1914 534.196 -88.4888L534.195 -88.489C528.498 -89.593 522.803 -90.6968 517.103 -91.77C486.601 -97.5135 455.993 -102.379 424.489 -101.7C405.611 -101.289 386.323 -101.1 366.818 -100.909L366.815 -100.909C299.258 -100.247 229.106 -99.5605 164.484 -89.5217C140.504 -85.7891 126.704 -71.7819 113.668 -56.9751C112.584 -55.7443 111.506 -54.5081 110.428 -53.272L110.418 -53.2601C98.516 -39.6145 86.6106 -25.9648 67.4154 -19.3757C46.3934 -12.153 24.0139 -16.9188 1.28796 -26.1961C1.3139 -25.9308 1.34021 -25.6657 1.36682 -25.4006C24.0489 -16.1855 46.5026 -11.4438 67.6443 -18.7077C87.0267 -25.3611 99.0529 -39.1525 110.938 -52.7818C112.024 -54.0271 113.108 -55.2711 114.197 -56.5082C127.219 -71.2985 140.876 -85.1322 164.592 -88.8238C229.159 -98.854 299.24 -99.5404 366.789 -100.202C386.303 -100.393 405.606 -100.582 424.504 -100.994C455.93 -101.672 486.478 -96.818 516.973 -91.0759C522.659 -90.0051 528.345 -88.9032 534.034 -87.8007L534.048 -87.7979C540.816 -86.4863 547.588 -85.1738 554.374 -83.9113Z" fill="black"/>
<path d="M555.291 -73.6815C555.274 -73.9273 555.256 -74.1731 555.238 -74.4188C548.534 -75.9676 541.844 -77.588 535.155 -79.2081C530.822 -80.2576 526.49 -81.307 522.154 -82.3367C492.805 -89.3075 463.329 -95.3749 432.721 -94.4354C345.347 -91.7605 253.011 -82.1593 166.425 -70.4832C143.009 -67.3229 128.24 -53.7565 113.968 -39.8008C113.267 -39.1156 112.568 -38.4294 111.868 -37.7436C98.3091 -24.4447 84.8471 -11.2412 64.4191 -6.4931C43.9159 -1.72104 23.2822 -6.40097 2.62988 -14.8629C2.66748 -14.5928 2.70551 -14.3227 2.74384 -14.0528C23.343 -5.65933 44.0099 -1.01782 64.5787 -5.80518C85.205 -10.5993 98.7985 -23.9338 112.331 -37.208C113.04 -37.9044 113.75 -38.6007 114.461 -39.2956C128.733 -53.2506 143.355 -66.6569 166.519 -69.7833C253.093 -81.4576 345.402 -91.0556 432.742 -93.7294C463.25 -94.6659 492.647 -88.6191 521.991 -81.6495C526.321 -80.6212 530.649 -79.5727 534.98 -78.5237C541.741 -76.8861 548.507 -75.2471 555.291 -73.6815Z" fill="black"/>
<path d="M555.858 -62.6748C555.851 -62.9196 555.842 -63.1643 555.834 -63.4089C548.527 -65.2316 541.246 -67.1665 533.968 -69.1009C530.263 -70.0854 526.559 -71.0698 522.852 -72.0392C493.65 -79.676 464.307 -86.3753 433.411 -84.7956C389.893 -82.5794 346.219 -76.4999 302.611 -69.7489C293.184 -68.2895 283.76 -66.7987 274.341 -65.3088L274.34 -65.3085C240.185 -59.9056 206.1 -54.5137 172.175 -50.6663C149.145 -48.0495 133.173 -36.1037 117.61 -23.8674C116.937 -23.338 116.265 -22.808 115.592 -22.2782C100.711 -10.5525 85.9484 1.07916 65.4114 4.89935C44.5964 8.76791 24.3739 4.17136 4.37793 -3.91098C4.42731 -3.63681 4.47711 -3.36279 4.52728 -3.08887C24.4616 4.91891 44.6943 9.46808 65.5403 5.59372C86.2526 1.74091 101.14 -9.99069 115.995 -21.697C116.679 -22.2356 117.362 -22.7742 118.046 -23.312C133.61 -35.5487 149.442 -47.3724 172.255 -49.9645C206.196 -53.8139 240.302 -59.209 274.459 -64.6123C283.876 -66.102 293.297 -67.5923 302.719 -69.0509C346.323 -75.8013 389.967 -81.876 433.447 -84.0903C464.225 -85.6639 493.476 -78.9916 522.674 -71.3559C526.376 -70.3877 530.077 -69.404 533.781 -68.4197L533.782 -68.4195C541.125 -66.4679 548.476 -64.5141 555.858 -62.6748Z" fill="black"/>
<path d="M555.996 -51.6209C555.998 -51.8623 555.999 -52.1038 556 -52.3454C549.313 -53.9138 542.637 -55.5574 535.962 -57.2009C531.211 -58.3705 526.461 -59.5401 521.706 -60.6825C492.177 -67.7782 462.518 -73.8217 431.876 -72.2622C373.003 -69.2799 313.224 -60.5615 254.001 -51.924C227.998 -48.1316 202.103 -44.3548 176.438 -41.0861C153.447 -38.1596 136.308 -26.2462 119.507 -14.1444C118.933 -13.7311 118.359 -13.3176 117.786 -12.9041C101.558 -1.20096 85.4771 10.3964 64.4968 14.1393C44.8511 17.6443 25.5867 13.7702 6.49023 6.63623C6.55072 6.91037 6.61151 7.18436 6.67279 7.45819C25.7027 14.5171 44.9612 18.3421 64.6206 14.8346C85.7626 11.0629 101.962 -0.620636 118.16 -12.3029C118.746 -12.7258 119.332 -13.1487 119.919 -13.5712C136.727 -25.6781 153.734 -37.4842 176.527 -40.3854C202.219 -43.6577 228.131 -47.4368 254.142 -51.2304L254.143 -51.2307C313.35 -59.8658 373.073 -68.5764 431.912 -71.5569C462.445 -73.1108 492.019 -67.0899 521.542 -59.9957C526.287 -58.8556 531.031 -57.6875 535.777 -56.5189L535.78 -56.5181C542.51 -54.8611 549.246 -53.2027 555.996 -51.6209Z" fill="black"/>
<path d="M555.638 -39.2273C555.65 -39.4648 555.661 -39.7023 555.673 -39.9399C548.917 -41.2479 542.167 -42.6128 535.417 -43.9777C528.74 -45.3278 522.063 -46.678 515.38 -47.973C484.298 -53.9962 453.105 -58.8236 421.284 -56.8749C342.43 -52.0444 261.185 -43.0823 182.935 -32.3443C160.07 -29.2096 141.922 -18.3976 124.122 -7.22943C123.098 -6.58685 122.075 -5.94312 121.052 -5.29962C104.285 5.25104 87.6092 15.7445 67.2953 20.1689C47.4523 24.4839 27.8994 21.4512 8.48944 15.0703C8.55804 15.3409 8.62708 15.6113 8.69653 15.8816C28.0427 22.1914 47.5893 25.1769 67.4452 20.8591C87.8843 16.4074 104.659 5.8512 121.404 -4.68698C122.435 -5.33554 123.465 -5.98404 124.496 -6.63101C142.299 -17.8004 160.332 -28.5326 183.03 -31.6446C261.269 -42.381 342.496 -51.3409 421.327 -56.1699C453.055 -58.1129 484.175 -53.3008 515.246 -47.2796C521.915 -45.9873 528.582 -44.639 535.253 -43.2901L535.256 -43.2895C542.045 -41.9167 548.837 -40.5432 555.638 -39.2273Z" fill="black"/>
<path d="M554.671 -26.2056C554.694 -26.4401 554.717 -26.6747 554.739 -26.9094C547.75 -27.9112 540.762 -28.9552 533.772 -29.9995L533.768 -30.0001C526.265 -31.121 518.76 -32.2423 511.25 -33.3118C479.716 -37.8029 448.115 -41.3792 416.307 -40.1705C341.492 -37.3365 263.613 -33.7038 189.32 -24.4614C165.727 -21.5285 145.794 -11.2234 126.138 -0.584717C125.058 -0.000274658 123.979 0.585144 122.9 1.17041C104.328 11.2475 85.8409 21.2784 64.5115 25.4164C46.1126 28.9798 28.1294 26.882 10.3399 21.9883C10.4144 22.2531 10.4893 22.5177 10.5646 22.7823C28.2925 27.6149 46.2553 29.6716 64.6456 26.1098C86.0851 21.9504 104.661 11.8707 123.212 1.8046L123.218 1.80148C124.303 1.21271 125.388 0.623993 126.473 0.036499C146.134 -10.6046 165.961 -20.8459 189.407 -23.7605C263.667 -32.9988 341.519 -36.6308 416.334 -39.4648C448.075 -40.6709 479.625 -37.1024 511.151 -32.6126C518.651 -31.5444 526.15 -30.424 533.65 -29.3035L533.652 -29.3031C540.657 -28.2566 547.663 -27.2099 554.671 -26.2056Z" fill="black"/>
<path d="M552.948 -12.2246C552.983 -12.4583 553.017 -12.692 553.052 -12.9259C545.718 -13.3797 538.381 -13.839 531.04 -14.2985L531.036 -14.2988C419.651 -21.2711 307.489 -28.2919 196.267 -16.9985C171.616 -14.4972 149.713 -4.9277 128.03 5.00256C126.749 5.58957 125.468 6.17783 124.187 6.76599C103.788 16.1342 83.4541 25.4725 61.0103 29.2664C44.2661 32.0976 27.9784 30.8251 11.9106 27.3604C11.9888 27.6182 12.0674 27.8759 12.1464 28.1333C28.1544 31.5493 44.4098 32.7896 61.1278 29.9628C83.667 26.1528 104.081 16.7774 124.461 7.41748L124.511 7.39438C125.782 6.81064 127.053 6.22696 128.324 5.64478C150.011 -4.28781 171.817 -13.8077 196.338 -16.2959C307.497 -27.5828 419.589 -20.5667 530.972 -13.5949L530.981 -13.5944C538.306 -13.1358 545.629 -12.6775 552.948 -12.2246Z" fill="black"/>
<path d="M550.703 0.72998C550.75 0.495209 550.796 0.260376 550.842 0.0254211C539.14 -0.134064 527.438 -0.261963 515.737 -0.389862H515.736C478.128 -0.800964 440.527 -1.21201 402.934 -2.67029C382.109 -3.4776 360.944 -4.94635 339.658 -6.42358C294.163 -9.5809 248.113 -12.7768 203.635 -9.63489C177.748 -7.80484 153.678 0.419708 129.799 9.29117C127.087 10.2987 124.378 11.3146 121.668 12.3304C100.509 20.2637 79.3543 28.1952 57.0194 32.1609C42.3035 34.7694 27.8075 34.3549 13.4263 32.1956C13.5073 32.4459 13.5886 32.6961 13.6703 32.9461C27.996 35.0684 42.4562 35.4596 57.1425 32.8564C79.5457 28.8785 100.764 20.9229 121.916 12.9919C124.626 11.9758 127.335 10.9601 130.045 9.95328C153.922 1.08246 177.908 -7.10815 203.685 -8.93036C248.113 -12.0688 294.077 -8.87854 339.545 -5.72272L339.547 -5.72253C360.846 -4.24432 382.035 -2.77365 402.907 -1.96454C440.502 -0.506195 478.128 -0.0947571 515.75 0.31665L515.756 0.316742C527.406 0.444122 539.055 0.571533 550.703 0.72998Z" fill="black"/>
<path d="M547.689 14.1948C547.749 13.9556 547.809 13.7163 547.868 13.4769C537.616 14.0733 527.357 14.7719 517.098 15.4706L517.093 15.471C509.341 15.9989 501.59 16.5268 493.841 17.0106C460.878 19.0685 427.949 20.3293 395.216 17.408C373.038 15.4246 350.55 12.0026 327.954 8.56406C319.753 7.31613 311.538 6.06607 303.319 4.88177C272.46 0.435608 241.547 -3.08081 211.146 -2.05188C183.918 -1.1322 157.62 5.88522 131.478 13.7193C127.363 14.9527 123.251 16.2062 119.14 17.4595C97.1295 24.1703 75.1433 30.8736 52.6791 34.4348C39.822 36.4724 27.1187 36.5627 14.5002 35.4456C14.5824 35.6893 14.6649 35.9329 14.7478 36.1763C27.3113 37.2686 39.9717 37.1638 52.7895 35.1324C75.3067 31.5628 97.3468 24.8428 119.357 18.1319C123.465 16.8794 127.572 15.6272 131.681 14.3959C157.817 6.5632 184.041 -0.429626 211.17 -1.34604C241.506 -2.37274 272.367 1.13586 303.218 5.58084C311.425 6.76334 319.632 8.01224 327.828 9.25946L327.829 9.25964C350.433 12.6992 372.952 16.126 395.153 18.1114C427.942 21.0377 460.915 19.7738 493.884 17.7155C501.644 17.231 509.403 16.7026 517.16 16.1744C527.342 15.4809 537.52 14.7878 547.689 14.1948Z" fill="black"/>
<path d="M543.988 27.5547C544.064 27.3078 544.138 27.0607 544.213 26.8134C533.659 28.1854 523.065 29.7572 512.458 31.331C504.064 32.5765 495.662 33.8232 487.264 34.973C453.601 39.5824 419.999 42.6396 387.219 37.8673C365.16 34.649 343.045 29.0663 320.85 23.4634L320.849 23.4631C314.988 21.9836 309.122 20.5028 303.25 19.0637C275.151 12.1774 246.927 6.25104 218.598 6.05115C190.019 5.85129 161.489 11.588 133.079 18.3096C127.221 19.6955 121.369 21.123 115.522 22.5492C92.9995 28.0434 70.5594 33.5174 48.201 36.5096C37.1872 37.9872 26.2564 38.3587 15.3742 37.9957C15.4573 38.2341 15.5405 38.4724 15.6242 38.7105C26.4492 39.0593 37.3292 38.6808 48.2946 37.2096C70.6935 34.212 93.1805 28.7264 115.707 23.2312L115.709 23.2308C121.551 21.8057 127.395 20.38 133.241 18.9969C161.645 12.277 190.104 6.55814 218.593 6.75742C246.834 6.9567 274.99 12.8652 303.082 19.7497C308.941 21.1855 314.798 22.664 320.652 24.1418L320.658 24.1434C342.858 29.7477 365.019 35.3421 387.117 38.5661C420 43.3535 453.685 40.2838 487.36 35.6727C495.776 34.5204 504.19 33.272 512.591 32.0255C523.084 30.4686 533.558 28.9147 543.988 27.5547Z" fill="black"/>
<path d="M539.607 40.7551C539.699 40.4972 539.792 40.2391 539.884 39.9808C529.234 42.0782 518.475 44.4652 507.673 46.8621L507.671 46.8624C497.741 49.0657 487.773 51.2775 477.816 53.2802C442.266 60.431 406.832 64.9267 373.591 56.9727C354.97 52.5178 336.189 45.2203 317.25 37.8618C311.74 35.7209 306.217 33.5749 300.68 31.4922C276.133 22.2578 251.34 14.2755 226.402 13.5952C197.679 12.8058 167.908 17.1875 138.204 22.6217C130.073 24.109 121.949 25.6749 113.853 27.2356L113.847 27.2368C92.3505 31.3802 71.0473 35.4865 50.3391 37.9858C38.8765 39.3689 27.4738 39.9746 16.1041 40.0652C16.1879 40.3001 16.2722 40.5348 16.3567 40.7694C27.6669 40.6718 39.0144 40.0637 50.4236 38.687C71.1576 36.1846 92.4966 32.0714 114.001 27.9265L114.003 27.9261L114.005 27.9256C122.098 26.3657 130.214 24.8013 138.33 23.3165C168.027 17.8838 197.737 13.514 226.382 14.3012C251.194 14.9781 275.892 22.9219 300.432 32.1533C305.951 34.2294 311.462 36.3709 316.965 38.509C335.912 45.8709 354.755 53.1924 373.427 57.6596C406.826 65.6516 442.389 61.1265 477.955 53.9727C487.945 51.9633 497.933 49.7471 507.874 47.5414L507.875 47.5411C518.524 45.1784 529.119 42.8275 539.607 40.7551Z" fill="black"/>
<path d="M534.578 53.69C534.691 53.4191 534.804 53.1479 534.916 52.8765C523.969 55.6381 512.888 58.7744 501.75 61.9266L501.749 61.9269C491.813 64.7389 481.832 67.5636 471.862 70.1462C435.755 79.4995 399.767 85.6884 366.362 76.7528C347.18 71.6219 328.986 61.8711 310.715 52.0794C307.428 50.3179 304.138 48.5551 300.84 46.8177C279.231 35.4335 257.264 25.1465 233.294 23.5945C203.338 21.6463 171.576 24.6689 139.821 28.8356C129.596 30.1773 119.374 31.6373 109.213 33.0886L109.212 33.0888C87.8039 36.1465 66.6661 39.1656 46.3424 40.9583C36.5978 41.8163 26.8547 42.4186 17.1112 42.8385C17.1968 43.0704 17.2828 43.3022 17.3691 43.5338C27.0488 43.114 36.7272 42.5139 46.4043 41.6618C66.7472 39.8674 87.9178 36.8437 109.337 33.7845C119.494 32.3339 129.706 30.8752 139.913 29.5359C171.658 25.3703 203.364 22.3557 233.248 24.2993C257.055 25.8407 278.906 36.0601 300.512 47.4426C303.8 49.175 307.083 50.9345 310.366 52.6942C328.634 62.485 346.912 72.2812 366.18 77.4352C399.774 86.4215 435.919 80.1868 472.039 70.8299C482.047 68.2375 492.05 65.4063 501.999 62.5906C512.948 59.492 523.83 56.4122 534.578 53.69Z" fill="black"/>
<path d="M528.551 67.0973C528.691 66.8076 528.83 66.5176 528.969 66.2274C526.52 66.9898 524.059 67.7741 521.59 68.5755C513.613 71.1637 505.546 73.9265 497.425 76.7077L497.424 76.7084C487.132 80.2331 476.755 83.7871 466.367 87.0525C429.217 98.7296 392.237 106.606 359.782 95.8977C341.664 89.9185 325.484 78.8001 309.252 67.6455C306.521 65.7682 303.787 63.89 301.043 62.0349C282.016 49.1733 262.475 37.4453 239.348 35.1506C208.248 32.0739 174.743 33.6479 141.187 36.4249C128.675 37.4603 116.16 38.6625 103.759 39.8538L103.758 39.8539L103.756 39.8541C82.8827 41.8592 62.3317 43.8334 42.6649 44.9287C34.5887 45.38 26.5175 45.8711 18.4497 46.3883C18.5384 46.6187 18.6273 46.8489 18.7166 47.079C26.7118 46.5669 34.7075 46.0807 42.7041 45.6339C62.3827 44.5379 82.9628 42.561 103.85 40.5547L103.853 40.5544C116.251 39.3635 128.756 38.1623 141.245 37.1288C174.791 34.3526 208.245 32.7833 239.278 35.8535C262.213 38.1291 281.625 49.7614 300.648 62.6202C303.383 64.4689 306.11 66.3432 308.839 68.2184C325.066 79.3706 341.339 90.5549 359.561 96.5684C392.249 107.354 429.426 99.4044 466.578 87.7263C476.961 84.4625 487.366 80.8992 497.675 77.3688L497.678 77.3676C505.801 74.5861 513.863 71.8251 521.807 69.2473C524.064 68.5149 526.313 67.7971 528.551 67.0973Z" fill="black"/>
<path d="M521.419 80.9C521.591 80.5872 521.764 80.274 521.936 79.9605C520.693 80.4114 519.448 80.8682 518.198 81.3302C510.067 84.3374 501.802 87.5593 493.46 90.8116C482.977 94.898 472.372 99.0324 461.754 102.849C423.639 116.549 385.724 126.008 354.133 114.025C336.794 107.446 322.464 95.4867 308.111 83.5084L308.109 83.5067C305.799 81.5788 303.488 79.6504 301.164 77.7439C284.423 64.0097 267.012 51.4308 244.282 48.6033C197.964 42.8372 146.199 45.4262 96.509 47.9114C77.0243 48.886 57.8587 49.8445 39.4659 50.2771C33.0568 50.4272 26.6812 50.7277 20.3315 51.1455C20.4249 51.3754 20.5186 51.6052 20.6126 51.8348C26.8755 51.4257 33.163 51.1312 39.4825 50.9832C57.9173 50.5496 77.1089 49.5898 96.6087 48.6145L96.6097 48.6144C146.276 46.1302 197.942 43.5462 244.195 49.3041C266.709 52.1047 283.983 64.5626 300.717 78.2901C303.032 80.1899 305.338 82.1145 307.646 84.0409C321.992 96.0152 336.424 108.061 353.883 114.685C385.742 126.77 423.888 117.21 461.993 103.513C472.602 99.7001 483.236 95.5551 493.735 91.4622L493.738 91.4613L493.741 91.4599C502.086 88.207 510.347 84.987 518.443 81.9927C519.437 81.625 520.429 81.2607 521.419 80.9Z" fill="black"/>
<path d="M515.674 90.8054C515.86 90.4983 516.046 90.1908 516.232 89.8829C497.833 95.8109 479.912 102.9 461.448 110.205C457.138 111.91 452.798 113.626 448.415 115.343C445.961 116.305 443.472 117.298 440.951 118.303C427.848 123.526 413.909 129.084 399.779 132.442C382.937 136.444 365.871 137.31 349.694 130.772C332.773 123.93 319.926 111.742 307.096 99.5701C305.106 97.6826 303.117 95.7956 301.113 93.9289C286.206 80.0415 270.503 67.3096 247.835 64.2304C196.092 57.1823 138.94 57.3052 84.301 57.4228H84.2986C68.202 57.4575 52.3233 57.4916 36.8654 57.3418C32.215 57.2968 27.61 57.3846 23.043 57.5846C23.1439 57.816 23.245 58.0472 23.3466 58.2783C27.8123 58.0873 32.3139 58.0041 36.8586 58.048C52.3372 58.198 68.23 58.1639 84.336 58.1293C138.967 58.0119 196.05 57.8893 247.74 64.9302C270.176 67.9779 285.74 80.5722 300.632 94.4459C302.628 96.3049 304.612 98.1874 306.599 100.073C319.422 112.24 332.375 124.531 349.429 131.426C365.794 138.04 383.025 137.149 399.942 133.129C414.127 129.758 428.123 124.177 441.225 118.954L441.226 118.953C443.743 117.95 446.227 116.96 448.672 116.001C453.057 114.283 457.397 112.567 461.706 110.862C479.917 103.658 497.576 96.6729 515.674 90.8054Z" fill="black"/>
<path d="M506.747 104.562C506.976 104.231 507.205 103.899 507.433 103.566C491.678 109.201 476.228 115.706 460.319 122.405L460.314 122.407C455.66 124.366 450.967 126.343 446.215 128.319C444.131 129.184 442.005 130.078 439.843 130.988C426.715 136.509 412.239 142.597 397.497 146.392C380.33 150.811 362.852 152.107 346.779 145.799C329.886 139.17 317.973 127.464 306.119 115.816L306.118 115.816C304.36 114.088 302.603 112.361 300.831 110.653C287.128 97.4395 272.567 85.341 249.767 82.372C180.12 73.329 105.47 69.6363 35.1029 66.5031C32.3881 66.3831 29.6982 66.322 27.0309 66.3144C27.1437 66.5504 27.2568 66.7863 27.3702 67.0219C29.9161 67.0335 32.4827 67.0942 35.0718 67.2086C105.441 70.342 180.063 74.0337 249.676 83.0724C272.24 86.0107 286.662 97.9712 300.342 111.162C302.105 112.862 303.857 114.584 305.613 116.309L305.615 116.312C317.462 127.956 329.484 139.771 346.521 146.456C362.791 152.841 380.438 151.513 397.672 147.076C412.469 143.267 426.998 137.156 440.124 131.636C442.284 130.727 444.406 129.835 446.486 128.971C451.242 126.993 455.937 125.016 460.592 123.056L460.594 123.056C476.196 116.487 491.337 110.111 506.747 104.562Z" fill="black"/>
<path d="M495.625 119.548C495.914 119.185 496.202 118.821 496.49 118.456C484.606 123.046 472.798 128.059 460.72 133.187C455.888 135.238 451.014 137.307 446.075 139.375C444.242 140.142 442.375 140.931 440.476 141.733C427.196 147.344 412.38 153.604 397.266 157.56C379.992 162.082 362.378 163.582 346.273 157.69C329.295 151.481 317.462 140.452 305.703 129.491C304.025 127.927 302.349 126.365 300.66 124.819C287.139 112.44 272.799 101.095 250.144 98.2974C179.472 89.5754 106.325 82.0107 35.1507 77.2802C34.2606 77.2208 33.3736 77.1684 32.4896 77.1228C32.6189 77.3656 32.7487 77.6082 32.8787 77.8506C33.6183 77.8906 34.36 77.9353 35.1038 77.9849C106.261 82.7143 179.394 90.2774 250.057 98.9984C272.487 101.769 286.691 112.986 300.184 125.34C301.865 126.879 303.536 128.437 305.21 129.998L305.215 130.002C316.967 140.959 328.909 152.092 346.031 158.353C362.328 164.316 380.107 162.782 397.444 158.244C412.612 154.273 427.479 147.992 440.755 142.382C442.653 141.58 444.518 140.792 446.347 140.026C451.291 137.957 456.167 135.887 460.999 133.836C472.699 128.869 484.135 124.014 495.625 119.548Z" fill="black"/>
<path d="M481.49 135.974C481.861 135.574 482.231 135.174 482.6 134.773C475.557 137.561 468.491 140.443 461.339 143.361C456.857 145.189 452.34 147.032 447.774 148.873C445.703 149.708 443.593 150.568 441.449 151.443C428.251 156.824 413.751 162.737 398.986 166.484C381.825 170.839 364.351 172.255 348.204 166.53C331.271 160.538 319.002 149.923 306.787 139.354L306.785 139.353C305.103 137.897 303.422 136.443 301.73 135.001C287.76 123.102 273.064 112.123 250.925 109.135C181.349 99.7545 109.639 91.7707 39.5629 86.0223C38.8216 85.9615 38.0823 85.9056 37.345 85.8548C37.4879 86.1011 37.631 86.3472 37.7746 86.593C38.3503 86.6344 38.9271 86.6787 39.5052 86.7262C109.568 92.4734 181.266 100.456 250.831 109.835C272.76 112.795 287.326 123.659 301.272 135.539C302.96 136.977 304.638 138.429 306.32 139.885C318.528 150.449 330.901 161.156 347.968 167.196C364.303 172.987 381.934 171.54 399.159 167.168C413.976 163.408 428.526 157.475 441.721 152.094C443.864 151.22 445.971 150.361 448.038 149.528C452.606 147.686 457.124 145.843 461.605 144.015C468.295 141.286 474.905 138.59 481.49 135.974Z" fill="black"/>
<path d="M452.418 163.077C452.989 162.616 453.558 162.153 454.125 161.687C418.124 175.176 382.451 184.236 351.586 174.032C334.568 168.41 321.636 158.44 308.733 148.493C307.077 147.216 305.422 145.94 303.759 144.674C289.144 133.546 273.924 123.18 252.345 120.013C184.508 110.073 115.59 100.513 47.3886 93.0881C45.3647 92.8682 43.3535 92.6898 41.3539 92.5505C41.5067 92.7977 41.6598 93.0446 41.8133 93.2913C43.6364 93.4242 45.4692 93.59 47.3124 93.7903C115.501 101.214 184.408 110.773 252.243 120.711C273.635 123.851 288.734 134.121 303.331 145.236C304.991 146.5 306.644 147.774 308.3 149.051C321.195 158.994 334.225 169.04 351.365 174.703C381.915 184.802 417.064 176.167 452.418 163.077Z" fill="black"/>
<path d="M432.084 178.029C432.695 177.621 433.305 177.21 433.914 176.797C406.792 184.308 380.328 187.558 356.203 180.356C338.958 175.213 325.124 166.073 311.286 156.929C309.732 155.903 308.178 154.876 306.619 153.855C291.19 143.748 275.3 134.206 254.324 130.85C230.105 126.983 205.886 122.923 181.658 118.862L181.657 118.862C140.387 111.945 99.0919 105.023 57.73 99.0372C53.338 98.4005 48.982 97.9855 44.6574 97.7663C44.816 98.0106 44.975 98.2547 45.1343 98.4985C49.2694 98.7229 53.4329 99.1279 57.6289 99.7362C98.9849 105.721 140.265 112.64 181.528 119.557L181.537 119.558C205.764 123.619 229.985 127.679 254.213 131.548C275.031 134.878 290.815 144.346 306.233 154.446C307.785 155.463 309.334 156.486 310.884 157.51L310.9 157.521C324.728 166.659 338.65 175.858 356.001 181.032C379.699 188.107 405.598 185.163 432.084 178.029Z" fill="black"/>
<path d="M415.768 188.128C416.334 187.805 416.899 187.479 417.462 187.151C398.293 190.207 379.553 190.472 361.714 185.841C343.828 181.192 328.421 172.958 312.941 164.685L312.94 164.685C311.946 164.153 310.952 163.622 309.957 163.092C293.472 154.303 276.726 145.733 256.71 141.73C239.451 138.274 222.192 134.781 204.929 131.288L204.924 131.287C159.884 122.172 114.817 113.052 69.6686 104.568C62.3665 103.196 55.0621 102.531 47.7592 102.442C47.9205 102.68 48.0821 102.917 48.2442 103.155C55.3448 103.267 62.4438 103.929 69.5383 105.262C114.682 113.745 159.742 122.864 204.781 131.978L204.787 131.979L204.821 131.986C222.073 135.478 239.322 138.968 256.572 142.422C276.476 146.403 293.14 154.926 309.625 163.715C310.625 164.248 311.624 164.782 312.624 165.316C328.09 173.582 343.567 181.854 361.536 186.524C378.928 191.039 397.154 190.927 415.768 188.128Z" fill="black"/>
<path d="M404.497 194.237C405.001 193.978 405.505 193.718 406.007 193.457C393.093 194.135 380.352 193.409 367.882 190.687C349.267 186.626 332.257 179.325 315.152 171.984L313.995 171.488C296.509 163.985 278.885 156.517 259.363 152.547C221.721 144.895 184.376 135.515 147.047 126.138L147.041 126.137C125.469 120.718 103.902 115.301 82.2863 110.219C72.1647 107.836 61.7733 107.034 51.2078 107.411C51.3712 107.642 51.535 107.871 51.6992 108.101C62.0484 107.765 72.2197 108.575 82.1247 110.906C103.719 115.983 125.278 121.398 146.847 126.816L146.849 126.817C184.191 136.197 221.568 145.585 259.223 153.239C278.664 157.192 296.224 164.632 313.717 172.137L314.897 172.643C331.986 179.977 349.05 187.301 367.731 191.377C379.772 194.005 392.058 194.782 404.497 194.237Z" fill="black"/>
<path d="M396.668 198.094C397.134 197.873 397.6 197.651 398.064 197.428C391.841 197.269 385.631 196.796 379.439 195.951C359.53 193.232 340.404 186.718 321.23 179.932C319.956 179.481 318.681 179.029 317.407 178.576C299.507 172.225 281.518 165.842 262.808 162.325C233.359 156.791 204.585 147.906 175.809 138.937L173.73 138.289C145.653 129.536 117.559 120.777 88.8545 115.066C78.2206 112.951 67.0977 112.589 55.6631 113.509C55.8307 113.732 55.9987 113.955 56.167 114.177C67.3872 113.307 78.2926 113.686 88.717 115.759C117.385 121.462 145.447 130.211 173.535 138.968L175.599 139.611C204.37 148.579 233.183 157.476 262.677 163.019C281.331 166.526 299.272 172.891 317.182 179.246C318.453 179.697 319.724 180.148 320.994 180.598C340.164 187.382 359.354 193.921 379.344 196.65C385.105 197.437 390.881 197.903 396.668 198.094Z" fill="black"/>
<path d="M389.708 201.27C390.158 201.072 390.607 200.873 391.055 200.673C389.419 200.542 387.784 200.392 386.148 200.22C366.138 198.118 346.031 193.205 325.946 187.861C322.245 186.877 318.545 185.878 314.846 184.879L314.81 184.869L314.807 184.869C298.453 180.452 282.127 176.044 265.919 172.943C237.743 167.55 210.358 158.253 183.004 148.69C181.071 148.014 179.139 147.337 177.206 146.66C151.793 137.758 126.359 128.849 100.33 122.872C87.5866 119.94 75.0049 120.238 62.5612 122.314C62.733 122.524 62.9051 122.735 63.0775 122.945C75.3243 120.939 87.6766 120.686 100.172 123.56C126.161 129.528 151.558 138.424 176.978 147.329L177.01 147.34C178.93 148.013 180.85 148.685 182.771 149.357C210.123 158.919 237.553 168.232 265.787 173.636C281.966 176.732 298.259 181.132 314.612 185.547L314.614 185.548L314.639 185.555C318.344 186.555 322.053 187.557 325.765 188.544C345.853 193.888 366.006 198.814 386.075 200.923C387.286 201.049 388.497 201.165 389.708 201.27Z" fill="black"/>
<path d="M382.216 204.434C382.68 204.246 383.143 204.057 383.606 203.866C355.964 201.087 327.276 195.29 299.408 189.658C289.105 187.575 278.914 185.516 268.929 183.64C243.113 178.789 217.999 168.808 192.859 158.818L191.519 158.285C190.824 158.009 190.129 157.733 189.434 157.457C163.162 147.028 136.83 136.844 109.675 132.806C97.281 130.962 84.354 130.958 71.0956 132.283C71.2909 132.501 71.4865 132.718 71.6824 132.935C84.7093 131.666 97.4022 131.695 109.571 133.504C136.634 137.529 162.893 147.681 189.173 158.113C190.323 158.57 191.472 159.026 192.621 159.483C217.742 169.466 242.915 179.47 268.799 184.334C278.761 186.206 288.937 188.262 299.23 190.342L299.234 190.343C326.668 195.888 354.937 201.601 382.216 204.434Z" fill="black"/>
<path d="M371.682 208.452C372.213 208.262 372.743 208.07 373.272 207.877C339.342 205.051 304.034 200.118 271.577 194.436C245.826 189.935 220.853 180.14 195.857 170.335L193.824 169.538C168.162 159.476 142.453 149.557 115.897 145.558C105.174 143.944 94.016 143.632 82.5613 144.318C82.7868 144.541 83.0126 144.764 83.2388 144.986C94.4264 144.352 105.32 144.681 115.792 146.257C142.257 150.242 167.894 160.13 193.567 170.196L195.627 171.004L195.629 171.004C220.603 180.8 245.634 190.618 271.456 195.132C303.439 200.731 338.196 205.604 371.682 208.452Z" fill="black"/>
<path d="M356.828 213.303C357.539 213.093 358.249 212.88 358.958 212.664C330.614 211.792 302.232 209.625 273.762 205.372C247.815 201.491 222.541 192.626 197.243 183.753L197.242 183.752L195.973 183.307C170.263 174.291 144.517 165.352 118.065 161.764C112.218 160.972 106.26 160.513 100.21 160.346C100.504 160.591 100.798 160.835 101.094 161.079C106.809 161.265 112.44 161.715 117.971 162.464C144.34 166.04 170.019 174.953 195.74 183.974L197.037 184.429C222.314 193.295 247.643 202.179 273.657 206.07C301.454 210.223 329.162 212.388 356.828 213.303Z" fill="black"/>
<path d="M316.52 222C317.682 221.839 318.841 221.67 319.999 221.495C304.76 220.639 289.564 219.391 274.428 217.644C248.075 214.601 222.032 207.129 195.949 199.645L195.703 199.575C194.618 199.263 193.532 198.952 192.446 198.641C172.744 192.994 153.009 187.455 133.114 183.94C133.672 184.281 134.232 184.621 134.792 184.959C154.032 188.476 173.139 193.842 192.252 199.319C193.426 199.656 194.6 199.993 195.773 200.329C221.841 207.809 247.935 215.295 274.347 218.345C288.359 219.963 302.421 221.153 316.52 222Z" fill="black"/>
</svg>
