<svg width="477" height="625" viewBox="0 0 477 625" fill="none" xmlns="http://www.w3.org/2000/svg">
<path d="M71.2723 9.97826C64.3728 8.82362 57.479 7.64875 50.5858 6.47397C44.7285 5.47573 38.8715 4.47756 33.0119 3.49193C30.5313 3.0747 28.0504 2.65972 25.5688 2.24795C18.2135 1.34252 10.8103 0.592083 3.36243 0C13.1858 1.51848 22.9919 3.13142 32.7949 4.78034C38.6484 5.76493 44.501 6.76239 50.3557 7.7602L50.3587 7.76072C63.463 9.99406 76.5776 12.2292 89.7341 14.3255C83.6231 12.7664 77.4684 11.3166 71.2723 9.97826Z" fill="black"/>
<path d="M185.328 49.1589C184.087 48.5611 182.844 47.9683 181.598 47.3802C174.377 46.4943 167.148 45.6563 159.911 44.8737C122.399 40.8102 85.9958 33.0243 49.6173 25.2436L49.608 25.2417C43.7224 23.9828 37.8375 22.7242 31.9486 21.4814C-10.3271 12.56 -52.7914 4.46343 -97.0515 3.077C-100.144 2.97929 -103.234 2.90248 -106.323 2.84537C-109.165 3.22163 -112 3.62105 -114.827 4.04344C-108.922 4.08559 -103.011 4.19589 -97.0927 4.38287C-52.9573 5.76541 -10.5905 13.8397 31.6786 22.7598C37.5638 24.0017 43.4473 25.2602 49.3336 26.5192C85.7086 34.2993 122.186 42.1013 159.77 46.1726C168.301 47.095 176.819 48.0946 185.328 49.1589Z" fill="black"/>
<path d="M240.188 79.8591C239.342 79.3149 238.493 78.7732 237.644 78.2339C212.769 75.2083 188.017 72.0684 163.472 68.8368C124.046 63.6493 86.2664 53.3509 48.5236 43.0623L48.5217 43.0618C42.3978 41.3925 36.2747 39.7233 30.1458 38.0764C-13.7381 26.2839 -57.907 15.6326 -104.773 14.2272C-128.821 13.5063 -152.569 14.7491 -176.149 17.0781C-178.562 17.748 -180.969 18.435 -183.368 19.139C-157.414 16.3327 -131.293 14.7394 -104.812 15.5331C-58.1103 16.9336 -14.0683 27.5481 29.8064 39.3381C35.9275 40.983 42.0457 42.6508 48.1675 44.3197C85.9058 54.6074 123.78 64.9322 163.302 70.1322C188.739 73.4812 214.399 76.732 240.188 79.8591Z" fill="black"/>
<path d="M276.02 105.104C275.4 104.626 274.779 104.15 274.156 103.676C238.247 101.358 202.592 98.1842 167.575 93.4254C124.389 87.5535 83.7578 73.5463 43.1086 59.5328L43.1019 59.5305C37.9494 57.7542 32.7967 55.9778 27.6384 54.2179C-18.1921 38.5815 -64.44 24.2532 -114.638 22.9767C-157.281 21.9031 -198.121 29.4141 -238.559 38.8322C-240.853 39.8019 -243.137 40.7878 -245.414 41.7896C-202.657 31.6077 -159.657 23.1502 -114.671 24.2828C-64.6907 25.5538 -18.609 39.8198 27.2161 55.4544C32.3727 57.2137 37.5263 58.9905 42.6819 60.768C83.317 74.7774 124.076 88.8295 167.399 94.72C203.075 99.5684 239.421 102.773 276.02 105.104Z" fill="black"/>
<path d="M303.573 127.879C303.09 127.451 302.606 127.023 302.121 126.596C258.059 127.31 214.388 125.841 172.216 118.572C127.52 110.881 85.7267 93.5716 43.9254 76.2587L43.9186 76.2559C37.5424 73.6151 31.1661 70.9742 24.7792 68.3674C-23.4498 48.6825 -72.2531 30.9538 -125.911 30.0655C-175.035 29.2512 -220.334 43.012 -265.166 58.5574C-271.456 60.7384 -277.736 62.9542 -284.016 65.1701C-290.622 67.501 -297.228 69.8319 -303.845 72.1221C-305.575 73.1659 -307.299 74.2195 -309.015 75.283C-300.509 72.3759 -292.032 69.3848 -283.563 66.3963L-283.56 66.3951C-277.285 64.1809 -271.014 61.968 -264.737 59.7918C-219.918 44.2507 -174.808 30.5617 -125.932 31.3718C-72.5398 32.2557 -23.9343 49.8961 24.285 69.577C30.6625 72.1799 37.0337 74.8189 43.4083 77.4593L43.411 77.4604C85.202 94.7701 127.143 112.142 171.994 119.859C214.733 127.227 258.986 128.648 303.573 127.879Z" fill="black"/>
<path d="M324.438 147.429C324.04 147.035 323.641 146.641 323.242 146.248C273.78 151.779 224.595 153.959 177.115 144.014C131.092 134.392 87.917 113.593 44.6909 92.7689C37.0067 89.0671 29.3202 85.3642 21.6164 81.7235C-29.3839 57.6214 -81.1395 36.25 -138.183 36.0464C-188.151 35.8612 -232.536 53.76 -276.206 73.9588C-282.622 76.9261 -289.021 79.9426 -295.42 82.9591C-316.739 93.0084 -338.057 103.058 -359.966 111.285C-361.03 112.138 -362.091 112.995 -363.148 113.856C-339.877 105.362 -317.326 94.7315 -294.838 84.1298C-288.444 81.1157 -282.056 78.104 -275.657 75.1445C-232.003 54.9531 -187.845 37.1689 -138.188 37.3529C-81.4579 37.5554 -29.9314 58.8079 21.0576 82.9046C28.7416 86.536 36.4141 90.2324 44.0904 93.9306L44.0943 93.9325C87.3146 114.755 130.655 135.635 176.847 145.293C224.865 155.351 274.577 153.051 324.438 147.429Z" fill="black"/>
<path d="M341.154 164.768C340.812 164.397 340.469 164.025 340.126 163.655C287.277 175.111 234.484 182.445 182.122 169.641C134.423 157.977 89.4735 133.732 44.4018 109.422C35.7122 104.735 27.0181 100.045 18.2988 95.4429C-35.6003 66.9937 -90.4317 41.8989 -150.853 41.6582C-201.542 41.4544 -245.182 63.6473 -287.785 88.8126C-294.494 92.7757 -301.177 96.8117 -307.857 100.846C-338.601 119.414 -369.296 137.953 -402.31 149.214C-402.996 149.901 -403.681 150.589 -404.364 151.28C-370.241 140.056 -338.641 120.968 -307.141 101.942L-307.139 101.94C-300.469 97.9114 -293.804 93.8854 -287.12 89.9374C-244.532 64.781 -201.161 42.7625 -150.858 42.9648C-90.7839 43.204 -36.2012 68.154 17.6884 96.5982C26.3824 101.187 35.0591 105.867 43.7379 110.549L43.7414 110.551C88.8106 134.862 133.934 159.203 181.812 170.91C234.658 183.832 287.881 176.345 340.949 164.813C341.017 164.798 341.086 164.783 341.154 164.768Z" fill="black"/>
<path d="M355.093 180.55C354.789 180.191 354.484 179.832 354.179 179.474C350.911 180.547 347.644 181.604 344.376 182.639C292.854 198.968 241.164 210.075 187.128 195.157C138.089 181.611 91.3776 153.979 44.424 126.204C34.6591 120.427 24.8837 114.645 15.0747 108.981C-41.8466 76.1166 -99.8741 47.2881 -163.305 47.3807C-214.804 47.4549 -257.729 73.9172 -299.263 103.927C-306.088 108.858 -312.874 113.884 -319.655 118.906L-319.658 118.909C-354.199 144.49 -388.594 169.964 -427.175 182.243C-429.565 183.003 -431.964 183.708 -434.369 184.36C-434.848 184.936 -435.326 185.513 -435.803 186.091C-432.783 185.308 -429.775 184.441 -426.778 183.487C-387.971 171.136 -353.367 145.505 -318.83 119.923C-312.06 114.909 -305.293 109.896 -298.497 104.986C-256.973 74.983 -214.348 48.7608 -163.303 48.6872C-100.254 48.5952 -42.4955 77.2508 14.4208 110.113C24.2 115.759 33.955 121.53 43.7074 127.299C90.6624 155.078 137.556 182.819 186.78 196.417C241.198 211.44 293.196 200.23 344.771 183.885C348.214 182.794 351.654 181.68 355.093 180.55Z" fill="black"/>
<path d="M367.107 195.26C366.829 194.907 366.55 194.553 366.271 194.2C360.236 196.875 354.205 199.501 348.167 202.033C298.339 222.933 248.033 237.496 191.872 220.452C141.686 205.222 93.2674 174.426 44.4562 143.381L44.4533 143.379C33.6757 136.524 22.8791 129.657 12.04 122.943C-47.8287 85.8573 -108.968 53.4526 -175.056 53.9526C-227.38 54.3422 -269.652 84.9187 -310.17 119.531C-317.008 125.373 -323.794 131.327 -330.571 137.274C-343.898 148.968 -357.19 160.632 -370.777 171.346C-391.262 187.498 -412.355 201.44 -435.111 209.98C-443.046 212.959 -451.086 215.191 -459.215 216.769C-459.576 217.279 -459.935 217.791 -460.294 218.303C-451.645 216.701 -443.091 214.372 -434.652 211.203C-411.714 202.595 -390.498 188.56 -369.967 172.371C-356.354 161.637 -343.015 149.932 -329.671 138.223L-329.663 138.216C-322.895 132.278 -316.127 126.339 -309.32 120.524C-268.803 85.9121 -226.853 55.6448 -175.046 55.2591C-109.371 54.7623 -48.5185 86.9672 11.3514 124.053C22.1555 130.746 32.9282 137.598 43.6908 144.444L43.694 144.446C92.5101 175.497 141.118 206.415 191.492 221.702C248.106 238.883 298.774 224.168 348.673 203.238C354.827 200.657 360.968 197.982 367.107 195.26Z" fill="black"/>
<path d="M377.609 209.085C377.35 208.731 377.089 208.377 376.829 208.024C368.475 212.664 360.142 217.238 351.78 221.591C303.683 246.632 254.756 264.325 196.169 245.303C144.911 228.655 94.887 194.999 44.3225 160.98L44.3166 160.976C32.6975 153.159 21.05 145.322 9.35242 137.669C-53.1865 96.7502 -117.141 61.0751 -185.55 62.0011C-238.77 62.7249 -280.412 97.0542 -319.959 135.815C-326.729 142.45 -333.435 149.213 -340.129 155.963L-340.132 155.967C-353.02 168.963 -365.861 181.912 -379.021 193.814C-399.008 211.89 -419.665 227.486 -442.193 237.053C-454.169 242.134 -466.404 245.234 -478.838 246.731C-479.123 247.202 -479.408 247.674 -479.693 248.147C-466.801 246.684 -454.107 243.527 -441.681 238.255C-418.958 228.605 -398.174 212.898 -378.144 194.783C-364.958 182.858 -352.07 169.861 -339.165 156.847C-332.477 150.103 -325.785 143.355 -319.044 136.748C-279.486 97.9774 -238.181 64.0236 -185.533 63.3075C-117.562 62.3875 -53.9102 97.8383 8.63644 138.762C20.2973 146.391 31.9204 154.212 43.5247 162.02C94.0968 196.047 144.315 229.835 195.765 246.545C254.866 265.735 304.198 247.837 352.384 222.75C360.809 218.364 369.203 213.755 377.609 209.085Z" fill="black"/>
<path d="M386.979 222.288C386.733 221.929 386.486 221.57 386.238 221.212C385.91 221.427 385.582 221.643 385.254 221.858L385.251 221.86C375.168 228.478 365.154 235.051 355.077 241.246C308.608 269.814 260.964 290.233 199.982 269.525C150.582 252.764 102.518 222.568 56.9475 193.939C45.1838 186.548 33.5858 179.262 22.1747 172.338C11.0852 165.604 -0.863159 157.812 -13.4402 149.611C-34.3574 135.97 -57.0135 121.196 -80.3496 108.265C-117.741 87.5447 -157.079 71.4306 -194.234 72.117C-248.53 73.1195 -289.519 110.653 -328.111 152.921C-334.714 160.152 -341.244 167.52 -347.76 174.871L-347.762 174.874C-360.322 189.044 -372.83 203.157 -385.702 216.119C-405.242 235.797 -425.554 252.754 -448.011 263.126C-463.142 270.113 -478.664 273.58 -494.462 274.394C-494.696 274.841 -494.93 275.289 -495.164 275.737C-478.955 274.99 -463.01 271.492 -447.462 264.312C-424.798 253.844 -404.356 236.76 -384.774 217.039C-371.878 204.052 -359.325 189.89 -346.748 175.701C-340.237 168.355 -333.72 161.002 -327.146 153.802C-288.535 111.514 -247.889 74.4144 -194.21 73.4233C-157.414 72.7436 -118.329 88.7128 -80.9835 109.407C-57.671 122.326 -35.114 137.037 -14.2365 150.652C-1.64752 158.863 10.3308 166.674 21.4958 173.455C32.866 180.353 44.4353 187.622 56.1807 195.002C101.763 223.64 150 253.946 199.561 270.762C261.107 291.662 309.191 270.99 355.762 242.359C365.857 236.153 375.889 229.568 385.971 222.95C386.307 222.73 386.643 222.509 386.979 222.288Z" fill="black"/>
<path d="M395.466 235.057C395.23 234.69 394.994 234.323 394.757 233.957C393.641 234.776 392.527 235.596 391.414 236.416C389.381 237.915 387.353 239.414 385.329 240.911C376.093 247.74 366.927 254.517 357.692 260.936C312.673 292.228 266.194 314.889 203.015 293.007C152.472 275.497 103.117 243.576 56.5648 213.467L56.5606 213.465C44.3057 205.539 32.245 197.738 20.4083 190.359C9.08459 183.295 -3.15427 175.072 -16.0808 166.387L-16.0827 166.386C-20.1994 163.62 -24.3858 160.807 -28.6346 157.97C-46.2181 146.229 -64.8578 134.079 -83.9944 123.143C-122.248 101.284 -162.578 84.2229 -200.516 85.0391C-256.103 86.2275 -296.382 126.212 -334.026 171.139C-340.352 178.688 -346.601 186.376 -352.838 194.047L-352.84 194.049C-365.192 209.244 -377.495 224.377 -390.238 238.254C-409.406 259.129 -429.504 277.085 -452.121 288.015C-469.993 296.648 -488.311 300.073 -506.917 299.813C-507.114 300.246 -507.31 300.678 -507.506 301.111C-488.532 301.452 -469.819 298.016 -451.552 289.191C-428.716 278.155 -408.485 260.058 -389.275 239.138C-376.506 225.232 -364.159 210.045 -351.79 194.831C-345.559 187.167 -339.322 179.495 -333.024 171.978C-295.358 127.024 -255.423 87.5198 -200.488 86.3453C-162.922 85.5371 -122.854 102.442 -84.6433 124.277C-65.5477 135.189 -46.9388 147.319 -29.3608 159.056C-25.1205 161.888 -20.9394 164.697 -16.8257 167.461L-16.8233 167.462C-3.89233 176.15 8.37219 184.39 19.7161 191.468C31.5089 198.819 43.5393 206.6 55.7744 214.514L55.7786 214.517C102.344 244.635 151.878 276.674 202.587 294.242C266.368 316.332 313.308 293.378 358.439 262.008C367.691 255.577 376.874 248.787 386.111 241.958L386.138 241.938C388.152 240.449 390.169 238.958 392.19 237.468C393.281 236.664 394.373 235.86 395.466 235.057Z" fill="black"/>
<path d="M403.337 247.685C403.11 247.31 402.883 246.935 402.656 246.56C396.514 251.321 390.449 256.159 384.418 260.969C376.07 267.627 367.788 274.233 359.459 280.513C337.547 297.035 315.236 311.367 290.276 318.774C265.335 326.175 237.713 326.671 205.157 315.454C154.02 297.827 103.785 264.648 56.7426 233.578L56.739 233.576C44.0634 225.204 31.6196 216.985 19.4524 209.265C7.97067 201.984 -4.41949 193.514 -17.4977 184.574L-17.5141 184.563C-21.6261 181.752 -25.8063 178.895 -30.0475 176.013C-47.7764 163.968 -66.5618 151.509 -85.8649 140.299C-124.452 117.89 -165.198 100.412 -203.803 101.247C-261.027 102.509 -300.522 144.003 -337.21 190.537C-343.136 198.052 -348.987 205.698 -354.829 213.332L-354.832 213.336C-367.106 229.374 -379.339 245.359 -392.138 259.977C-411.022 281.543 -431.071 300.052 -454.153 311.238C-474.664 321.18 -495.551 324.201 -516.657 322.614C-516.826 323.038 -516.995 323.461 -517.163 323.886C-495.728 325.558 -474.471 322.539 -453.583 312.413C-430.269 301.115 -410.083 282.455 -391.154 260.837C-378.328 246.188 -366.049 230.144 -353.761 214.087C-347.924 206.46 -342.084 198.83 -336.183 191.345C-299.474 144.785 -260.324 103.801 -203.775 102.553C-165.547 101.726 -125.064 119.045 -86.5216 141.429C-67.2601 152.615 -48.506 165.052 -30.7824 177.094C-26.5547 179.966 -22.3848 182.816 -18.2805 185.622L-18.2515 185.642L-18.2499 185.643C-5.16693 194.586 7.24939 203.074 18.7519 210.368C30.8714 218.058 43.2827 226.256 55.9373 234.614L55.9389 234.615C102.997 265.697 153.42 299.002 204.73 316.689C237.538 327.993 265.44 327.506 290.648 320.026C315.836 312.552 338.298 298.105 360.246 281.556C368.638 275.229 376.943 268.604 385.298 261.94C391.269 257.177 397.266 252.393 403.337 247.685Z" fill="black"/>
<path d="M411.446 261.614C411.231 261.231 411.015 260.848 410.799 260.466C402.097 267.009 393.575 273.782 385.12 280.502C376.697 287.196 368.342 293.837 359.94 300.145C338.01 316.611 315.69 330.877 290.771 338.21C265.872 345.537 238.343 345.953 205.972 334.653C154.763 316.782 104.452 284.122 57.117 253.395C44.2023 245.011 31.5082 236.771 19.0789 229.015C7.27917 221.648 -5.49002 213.027 -18.9815 203.917L-18.985 203.915L-19.0078 203.9C-22.821 201.325 -26.6917 198.712 -30.6144 196.077C-48.4197 184.117 -67.2866 171.72 -86.656 160.535C-125.375 138.178 -166.193 120.609 -204.648 121.11C-262.063 121.871 -301.319 163.604 -337.716 210.468C-343.59 218.031 -349.388 225.726 -355.177 233.41L-355.182 233.416C-367.359 249.577 -379.497 265.687 -392.217 280.404C-410.976 302.108 -430.934 320.7 -454.005 331.839C-477.11 343.001 -500.531 345.476 -524.116 342.508C-524.264 342.928 -524.411 343.349 -524.558 343.769C-500.678 346.817 -476.907 344.354 -453.436 333.015C-430.129 321.762 -410.032 303.015 -391.227 281.258C-378.48 266.509 -366.297 250.339 -354.105 234.158L-354.093 234.143C-348.312 226.471 -342.53 218.796 -336.684 211.269C-300.265 164.376 -261.357 123.168 -204.631 122.416C-166.547 121.92 -125.988 139.333 -87.3099 161.667C-67.9808 172.828 -49.1442 185.204 -31.3435 197.161C-27.4202 199.797 -23.5466 202.412 -19.7289 204.99L-19.7264 204.991C-6.23114 214.103 6.56467 222.743 18.3864 230.123C30.7684 237.85 43.4291 246.069 56.3227 254.439L56.3243 254.44C103.675 285.179 154.167 317.958 205.541 335.887C238.164 347.274 265.974 346.869 291.14 339.463C316.287 332.063 338.759 317.683 360.726 301.189C369.191 294.833 377.569 288.173 385.998 281.474C394.386 274.806 402.824 268.1 411.446 261.614Z" fill="black"/>
<path d="M419.768 277.051C419.566 276.661 419.364 276.272 419.162 275.882C410.786 281.603 402.571 287.546 394.432 293.5C392.466 294.938 390.505 296.376 388.547 297.812C379.243 304.637 370.013 311.408 360.715 317.813C315.714 348.815 269.319 371.135 206.416 349.052C155.112 331.044 104.95 300.579 57.0455 271.484L57.0438 271.483C43.8349 263.461 30.7976 255.543 17.955 248.018C5.31863 240.615 -8.49591 231.768 -23.1409 222.389C-26.1712 220.448 -29.2372 218.485 -32.3355 216.507C-50.4008 204.973 -69.5599 192.946 -89.168 182.054C-128.363 160.28 -169.446 142.983 -207.266 143.261C-263.393 143.688 -302.337 185.001 -338.409 231.485C-344.428 239.24 -350.365 247.139 -356.291 255.021C-368.155 270.804 -379.971 286.522 -392.296 300.906C-410.767 322.464 -430.311 340.935 -452.717 351.999C-478.274 364.621 -504.287 366.468 -530.524 361.985C-530.653 362.405 -530.781 362.825 -530.909 363.245C-504.408 367.799 -478.053 365.97 -452.138 353.171C-429.497 341.991 -409.816 323.362 -391.303 301.756C-378.952 287.342 -367.091 271.563 -355.211 255.76C-349.291 247.886 -343.367 240.006 -337.376 232.285C-301.278 185.768 -262.687 144.99 -207.257 144.568C-169.795 144.292 -128.965 161.441 -89.803 183.196C-70.2324 194.068 -51.1017 206.076 -33.0392 217.608C-29.9477 219.581 -26.8871 221.542 -23.8609 223.48L-23.8551 223.483C-9.20935 232.863 4.63263 241.727 17.2939 249.146C30.0945 256.645 43.1033 264.546 56.294 272.558L56.2958 272.559C104.216 301.664 154.536 332.227 205.983 350.285C269.486 372.579 316.344 349.968 361.457 318.889C370.772 312.471 380.022 305.687 389.327 298.861C391.284 297.426 393.242 295.99 395.204 294.554C403.299 288.633 411.457 282.73 419.768 277.051Z" fill="black"/>
<path d="M427.791 293.255C427.604 292.86 427.416 292.465 427.228 292.07C417.017 298.15 407.016 304.55 397.109 310.949C395.59 311.93 394.073 312.911 392.558 313.891C382.453 320.428 372.427 326.913 362.34 333.017C315.957 361.085 268.448 380.984 206.999 360.236C155.211 342.732 104.571 314.709 55.6548 287.64C42.321 280.262 29.1152 272.954 16.0491 265.949C2.54797 258.713 -12.3214 249.911 -28.1056 240.567C-30.463 239.171 -32.8408 237.764 -35.2374 236.347C-53.6748 225.452 -73.2212 214.05 -93.1559 203.717C-133.004 183.062 -174.499 166.629 -211.888 167.112C-266.74 167.799 -304.676 208.392 -339.737 254.059C-345.667 261.784 -351.514 269.652 -357.348 277.502L-357.349 277.504C-368.793 292.904 -380.188 308.238 -392.07 322.294C-409.999 343.505 -428.967 361.715 -450.728 372.714C-478.557 386.775 -507.157 387.756 -536.106 381.56C-536.217 381.981 -536.328 382.403 -536.438 382.825C-507.255 389.081 -478.322 388.12 -450.138 373.88C-428.145 362.764 -409.042 344.396 -391.071 323.137C-379.164 309.051 -367.724 293.657 -356.264 278.235C-350.436 270.393 -344.602 262.543 -338.7 254.855C-303.613 209.155 -266.027 169.097 -211.871 168.418C-174.827 167.94 -133.578 184.237 -93.7577 204.877C-73.858 215.191 -54.3389 226.578 -35.9028 237.472C-33.5213 238.879 -31.1578 240.278 -28.8138 241.666L-28.7752 241.689C-12.9937 251.031 1.90323 259.85 15.4314 267.101C28.4612 274.086 41.6425 281.38 54.9608 288.75C103.89 315.827 154.669 343.927 206.581 361.474C268.583 382.409 316.525 362.269 363.017 334.135C373.122 328.02 383.166 321.523 393.269 314.987C394.784 314.008 396.3 313.027 397.818 312.046C407.69 305.67 417.64 299.303 427.791 293.255Z" fill="black"/>
<path d="M435.518 310.385C435.346 309.984 435.173 309.583 435 309.183C422.191 315.548 409.658 322.353 397.229 329.101C386.343 335.012 375.536 340.88 364.692 346.372C316.661 370.695 267.8 387.715 207.65 368.981C155.282 352.667 103.928 327.468 53.8682 302.905C40.3187 296.256 26.8642 289.654 13.51 283.288C-1.03577 276.36 -17.1278 267.783 -34.1975 258.686L-34.2001 258.685L-34.3733 258.593C-35.942 257.757 -37.5189 256.916 -39.1036 256.072C-57.9921 246.014 -77.98 235.464 -98.2899 225.922C-138.889 206.847 -180.87 191.751 -218.028 192.697C-271.621 194.09 -308.001 233.666 -341.527 278.112C-347.175 285.6 -352.74 293.224 -358.295 300.834C-369.257 315.851 -380.177 330.81 -391.602 344.545C-408.808 365.228 -427.096 383.049 -448.258 393.982C-478.105 409.401 -509.233 409.321 -540.894 401.298C-540.989 401.723 -541.082 402.149 -541.176 402.575C-509.315 410.641 -477.859 410.745 -447.658 395.143C-426.266 384.091 -407.845 366.113 -390.597 345.38C-379.147 331.615 -368.183 316.597 -357.206 301.559L-357.204 301.557C-351.656 293.956 -346.104 286.35 -340.483 278.899C-306.936 234.424 -270.897 195.379 -217.994 194.003C-181.163 193.066 -139.421 208.041 -98.8461 227.104C-78.569 236.631 -58.6072 247.167 -39.7183 257.225C-38.0732 258.102 -36.4363 258.974 -34.808 259.842C-17.7452 268.935 -1.62677 277.525 12.9475 284.467C26.2683 290.818 39.6999 297.409 53.2341 304.05L53.2404 304.053C103.311 328.622 154.786 353.881 207.261 370.229C267.902 389.116 317.151 371.912 365.283 347.537C376.199 342.009 387.053 336.116 397.968 330.19C410.346 323.47 422.803 316.707 435.518 310.385Z" fill="black"/>
<path d="M442.795 328.267C442.639 327.86 442.482 327.454 442.324 327.048C428.95 332.319 415.801 337.98 402.744 343.601L402.742 343.602C391.034 348.643 379.399 353.652 367.741 358.32C317.833 378.304 267.392 392.104 208.479 375.843C155.379 361.207 103.112 339.139 51.753 317.453L51.7457 317.45C37.9882 311.641 24.296 305.86 10.6701 300.257C-4.99829 293.815 -22.3648 285.697 -40.7473 277.104L-43.4667 275.833C-62.8502 266.774 -83.3074 257.261 -104.02 248.699C-145.427 231.581 -187.948 218.221 -225.059 219.908C-277.556 222.286 -311.918 260.656 -343.466 303.58C-348.613 310.582 -353.684 317.704 -358.747 324.816L-358.749 324.819C-369.232 339.542 -379.682 354.221 -390.713 367.704C-407.063 387.689 -424.623 404.963 -445.305 415.729C-477.031 432.251 -510.599 430.931 -544.867 421.058C-544.945 421.489 -545.023 421.92 -545.099 422.351C-510.668 432.249 -476.781 433.594 -444.701 416.888C-423.789 406.002 -406.095 388.571 -389.701 368.531C-378.642 355.014 -368.146 340.272 -357.648 325.526L-357.643 325.52C-352.588 318.42 -347.532 311.319 -342.413 304.353C-310.85 261.411 -276.819 223.56 -225 221.213C-188.195 219.54 -145.903 232.798 -104.52 249.906C-83.838 258.456 -63.4059 267.957 -44.0204 277.016L-41.2891 278.293L-41.2869 278.294C-22.9163 286.881 -5.52454 295.011 10.1729 301.465C23.7749 307.059 37.4522 312.834 51.2012 318.639C102.57 340.329 154.94 362.442 208.131 377.102C267.461 393.478 318.233 379.551 368.227 359.533C379.953 354.837 391.632 349.81 403.366 344.758C416.392 339.151 429.488 333.513 442.795 328.267Z" fill="black"/>
<path d="M449.463 346.618C449.322 346.205 449.18 345.793 449.038 345.381C435.531 349.318 422.173 353.552 408.88 357.765C396.341 361.74 383.86 365.696 371.369 369.366C319.414 384.632 267.186 394.995 209.414 381.485C155.49 368.886 102.194 350.203 49.5376 331.744C35.5764 326.849 21.6596 321.971 7.78833 317.226C-9.21887 311.412 -28.066 303.908 -47.9456 295.992L-47.9897 295.974C-67.8796 288.055 -88.7969 279.727 -109.904 272.287C-152.1 257.414 -195.141 246.056 -232.352 248.632C-285.107 252.274 -316.359 290 -344.969 331.475C-348.789 337.011 -352.56 342.614 -356.33 348.214C-366.703 363.621 -377.06 379.006 -388.356 392.936C-403.748 411.917 -420.832 428.125 -441.953 437.905C-476.682 453.993 -512.176 451.33 -547.94 440.108C-548.003 440.545 -548.064 440.983 -548.125 441.42C-512.237 452.647 -476.458 455.329 -441.404 439.09C-420.026 429.192 -402.793 412.814 -387.34 393.758C-376.004 379.779 -365.598 364.322 -355.215 348.898C-351.452 343.309 -347.693 337.724 -343.893 332.216C-315.276 290.732 -284.34 253.53 -232.262 249.935C-195.336 247.379 -152.512 258.654 -110.338 273.519C-89.2605 280.949 -68.3672 289.267 -48.4735 297.188L-48.4097 297.214C-28.5458 305.123 -9.673 312.638 7.3652 318.462C21.2147 323.2 35.1166 328.073 49.0688 332.964C101.734 351.427 155.116 370.14 209.116 382.757C267.223 396.346 319.717 385.905 371.737 370.62C384.287 366.932 396.804 362.965 409.364 358.984C422.652 354.772 435.988 350.545 449.463 346.618Z" fill="black"/>
<path d="M455.535 365.582C455.41 365.163 455.284 364.744 455.158 364.325C442.319 366.912 429.522 369.693 416.746 372.47C405.444 374.926 394.158 377.379 382.873 379.691C331.021 390.311 279.136 397.96 225.548 389.377C160.472 378.967 96.3334 360.639 32.5439 342.41C8.82394 335.632 -14.8478 328.868 -38.5016 322.529C-52.3751 318.818 -67.3246 314.172 -82.8985 309.332L-85.5179 308.518C-102.03 303.388 -119.205 298.09 -136.485 293.505C-171.031 284.34 -206.065 278.008 -237.147 281.604C-291.117 287.843 -320.612 324.856 -348.104 364.582C-350.678 368.302 -353.234 372.044 -355.792 375.788L-355.8 375.801C-380.6 412.11 -405.466 448.517 -447.161 464.767C-480.504 477.776 -515.257 473.381 -550.495 461.208C-550.54 461.653 -550.584 462.099 -550.628 462.545C-515.314 474.701 -480.321 479.107 -446.686 465.984C-404.591 449.578 -379.493 412.821 -354.737 376.564C-352.17 372.805 -349.607 369.051 -347.029 365.325C-319.537 325.599 -290.335 289.068 -236.996 282.902C-206.168 279.335 -171.331 285.612 -136.82 294.768C-119.57 299.344 -102.42 304.635 -85.9059 309.766L-83.2795 310.582C-67.7133 315.42 -52.7401 320.073 -38.8399 323.791C-15.2329 330.117 8.41061 336.874 32.1145 343.647C95.9293 361.883 160.182 380.244 225.341 390.667C279.173 399.289 331.253 391.597 383.136 380.97C394.456 378.652 405.764 376.194 417.079 373.735C429.88 370.953 442.691 368.169 455.535 365.582Z" fill="black"/>
<path d="M460.671 384.02C460.56 383.594 460.45 383.167 460.338 382.741C447.875 384.054 435.423 385.473 422.979 386.891C411.165 388.237 399.356 389.582 387.553 390.835C334.134 396.506 280.763 400.292 227.001 393.767C161.11 385.76 95.7625 371.947 30.5976 358.173C6.54669 353.089 -17.4793 348.011 -41.4988 343.231C-56.628 340.225 -72.8629 336.29 -89.6956 332.203L-90.1646 332.09C-106.847 328.039 -124.108 323.849 -141.429 320.282C-176.386 313.084 -211.65 308.413 -242.995 312.581C-294.979 319.489 -322.853 354.582 -348.792 392.119C-351.172 395.564 -353.536 399.028 -355.9 402.493C-379.345 436.858 -402.852 471.312 -443.064 487.178C-477.768 500.87 -514.607 495.247 -552.125 481.481C-552.153 481.935 -552.18 482.389 -552.206 482.844C-514.649 496.572 -477.58 502.201 -442.584 488.393C-401.977 472.371 -378.242 437.572 -354.837 403.257L-354.834 403.252C-352.464 399.777 -350.097 396.307 -347.717 392.862C-321.784 355.333 -294.194 320.703 -242.822 313.876C-211.703 309.738 -176.616 314.37 -141.693 321.562C-124.394 325.124 -107.152 329.31 -90.4628 333.362L-90.0042 333.473C-73.1772 337.558 -56.9148 341.501 -41.7537 344.513C-17.7698 349.285 6.23441 354.359 30.2724 359.44L30.2762 359.441C95.4592 373.219 160.891 387.05 226.843 395.064C280.759 401.608 334.253 397.807 387.691 392.134C399.517 390.879 411.339 389.532 423.162 388.185L423.164 388.185C435.663 386.761 448.163 385.336 460.671 384.02Z" fill="black"/>
<path d="M465.031 402.268C464.935 401.834 464.839 401.4 464.743 400.966C453.089 401.162 441.435 401.394 429.782 401.626H429.78C417.295 401.875 404.811 402.123 392.33 402.328C337.641 403.223 282.998 403.268 228.491 398.749C161.668 393.224 95.1111 383.963 28.6165 374.712L28.6137 374.711C4.48511 371.354 -19.6352 367.999 -43.757 364.823C-59.3756 362.767 -75.955 359.898 -93.0396 356.896C-94.3478 356.666 -95.6589 356.435 -96.9728 356.204C-112.813 353.416 -129.052 350.559 -145.312 348.169C-180.521 342.993 -215.885 340 -247.621 344.666C-297.58 352.001 -324.122 385.005 -348.826 420.198C-351.039 423.35 -353.237 426.519 -355.435 429.689C-377.819 461.966 -400.26 494.325 -439.074 509.625C-474.899 523.752 -513.517 517.012 -552.963 501.892C-552.973 502.355 -552.982 502.818 -552.991 503.281C-513.541 518.343 -474.707 525.081 -438.594 510.84C-399.391 495.387 -376.724 462.692 -354.379 430.462L-354.365 430.442C-352.164 427.267 -349.966 424.097 -347.756 420.948C-323.064 385.772 -296.801 353.207 -247.43 345.958C-215.89 341.321 -180.681 344.29 -145.502 349.461C-129.261 351.849 -113.039 354.703 -97.1936 357.491L-93.2661 358.182C-76.1841 361.185 -59.5782 364.058 -43.9277 366.118C-19.8264 369.291 4.28183 372.645 28.4037 376.002C94.9099 385.255 161.521 394.522 228.383 400.051C282.957 404.576 337.654 404.529 392.352 403.634C404.836 403.43 417.32 403.181 429.803 402.932L429.824 402.932C441.561 402.698 453.297 402.465 465.031 402.268Z" fill="black"/>
<path d="M468.67 420.397C468.589 419.955 468.508 419.514 468.427 419.072C452.925 418.1 437.423 417.112 421.922 416.123C357.99 412.045 294.057 407.967 230.055 405.06C161.861 401.959 93.7508 397.207 25.6376 392.454C2.11206 390.813 -21.4139 389.171 -44.9437 387.598C-63.5316 386.349 -83.1293 384.166 -103.179 381.932C-117.821 380.301 -132.704 378.643 -147.611 377.303C-182.883 374.131 -218.197 372.749 -250.397 377.783C-298.385 385.266 -324.019 416.04 -347.928 448.759C-350.025 451.628 -352.108 454.512 -354.192 457.397C-375.901 487.448 -397.655 517.561 -435.154 532.07C-472.003 546.349 -512.055 538.661 -553 522.471C-552.992 522.943 -552.982 523.415 -552.973 523.888C-512.057 539.999 -471.808 547.674 -434.682 533.289C-396.803 518.632 -374.824 488.199 -353.152 458.19C-351.06 455.294 -348.972 452.402 -346.872 449.529C-322.981 416.835 -297.621 386.47 -250.195 379.074C-218.158 374.066 -182.973 375.435 -147.728 378.604C-132.891 379.938 -118.026 381.594 -103.385 383.224L-103.381 383.225C-83.2933 385.462 -63.6268 387.652 -45.0313 388.901C-21.5097 390.474 2.01089 392.115 25.5333 393.757C93.6511 398.51 161.784 403.264 229.996 406.365C293.996 409.272 357.894 413.348 421.805 417.425L421.812 417.425L421.822 417.426C437.437 418.422 453.052 419.418 468.67 420.397Z" fill="black"/>
<path d="M471.644 438.584C471.579 438.136 471.513 437.688 471.447 437.24C458.943 435.601 446.449 433.908 433.955 432.215L433.942 432.213C423.064 430.739 412.187 429.265 401.306 427.826C345.09 420.396 288.77 413.921 231.694 413.33C170.276 412.715 108.857 412.46 47.4401 412.206H47.4355L47.3857 412.206C16.6936 412.078 -13.9979 411.951 -44.6883 411.779C-65.4341 411.663 -87.0668 410.593 -109.032 409.507L-109.035 409.507C-121.907 408.87 -134.893 408.228 -147.882 407.769C-183.008 406.527 -218.105 406.627 -250.805 411.824C-296.948 419.176 -322.22 447.577 -345.896 477.691C-347.935 480.284 -349.962 482.89 -351.99 485.496C-373.529 513.185 -395.096 540.91 -431.452 554.404C-469.32 568.454 -510.35 560.058 -552.221 543.165C-552.193 543.646 -552.165 544.128 -552.136 544.609C-510.323 561.404 -469.122 569.774 -430.997 555.629C-394.275 541.999 -372.483 513.978 -350.977 486.325L-350.951 486.291C-348.925 483.686 -346.901 481.084 -344.868 478.498C-321.216 448.414 -296.213 420.382 -250.6 413.115C-218.028 407.937 -183.033 407.834 -147.928 409.075C-134.981 409.533 -122.013 410.174 -109.148 410.81L-109.143 410.81C-87.1541 411.897 -65.4642 412.969 -44.6956 413.086C-13.9873 413.258 16.72 413.385 47.4267 413.512H47.4404C108.855 413.767 170.267 414.021 231.681 414.636C288.673 415.227 344.926 421.692 401.135 429.122C412.01 430.559 422.884 432.033 433.762 433.507C446.382 435.217 459.007 436.928 471.644 438.584Z" fill="black"/>
<path d="M473.988 457.092C473.939 456.639 473.89 456.187 473.84 455.735C461.414 453.424 449.009 451.024 436.608 448.624L436.606 448.623C426.052 446.581 415.501 444.539 404.943 442.554C348.437 431.929 291.735 422.928 233.373 424.184C198.403 424.945 162.67 425.294 126.537 425.648L126.532 425.648C1.38037 426.871 -128.577 428.142 -248.291 446.713C-292.714 453.618 -318.279 479.53 -342.428 506.921C-344.435 509.198 -346.433 511.485 -348.43 513.772L-348.449 513.794C-370.497 539.037 -392.552 564.288 -428.112 576.477C-467.055 589.838 -508.514 581.022 -550.614 563.86C-550.566 564.35 -550.517 564.841 -550.468 565.331C-508.449 582.378 -466.853 591.15 -427.688 577.713C-391.781 565.404 -369.503 539.891 -347.486 514.679C-345.474 512.375 -343.465 510.074 -341.447 507.785C-317.325 480.424 -292.025 454.833 -248.09 448.004C-128.479 429.449 1.34714 428.179 126.484 426.955C162.634 426.602 198.393 426.252 233.401 425.491C291.619 424.237 348.209 433.215 404.701 443.838C415.236 445.819 425.768 447.857 436.307 449.897L436.334 449.902C448.871 452.328 461.417 454.756 473.988 457.092Z" fill="black"/>
<path d="M475.687 476.016C475.654 475.561 475.621 475.107 475.588 474.652C463.169 471.787 450.775 468.789 438.384 465.792C430.357 463.851 422.331 461.91 414.3 460.005C359.93 447.109 305.325 435.885 248.623 437.623C86.7607 442.571 -84.2924 460.333 -244.694 481.932C-288.072 487.779 -315.433 512.875 -341.872 538.692C-343.171 539.96 -344.467 541.229 -345.762 542.498C-370.881 567.1 -395.819 591.525 -433.663 600.308C-471.645 609.136 -509.869 600.479 -548.128 584.825C-548.058 585.325 -547.988 585.824 -547.917 586.324C-509.757 601.851 -471.471 610.437 -433.367 601.581C-395.156 592.712 -369.974 568.045 -344.906 543.489C-343.59 542.2 -342.275 540.912 -340.959 539.627C-314.52 513.811 -287.432 489.011 -244.52 483.227C-84.1415 461.631 86.8628 443.875 248.663 438.929C305.179 437.197 359.637 448.383 413.998 461.276C422.018 463.178 430.037 465.118 438.06 467.058C450.585 470.088 463.12 473.12 475.687 476.016Z" fill="black"/>
<path d="M476.738 496.377C476.723 495.925 476.708 495.472 476.692 495.019C463.157 491.647 449.669 488.068 436.185 484.49C429.322 482.668 422.46 480.847 415.593 479.054C361.496 464.927 307.138 452.534 249.902 455.456C169.284 459.556 88.3775 470.802 7.59247 483.291C-9.87158 485.991 -27.3294 488.748 -44.7775 491.505L-44.7811 491.505C-108.053 501.5 -171.197 511.475 -234.042 518.592C-276.706 523.433 -306.294 545.532 -335.124 568.168C-336.372 569.147 -337.618 570.127 -338.863 571.107C-366.432 592.799 -393.779 614.316 -431.824 621.383C-470.384 628.54 -507.847 620.037 -544.89 605.085C-544.798 605.592 -544.706 606.099 -544.613 606.606C-507.685 621.42 -470.203 629.835 -431.586 622.668C-393.216 615.541 -365.636 593.838 -338.116 572.183C-336.85 571.186 -335.584 570.19 -334.317 569.195C-305.485 546.558 -276.155 524.685 -233.895 519.89C-171.018 512.769 -107.836 502.789 -44.56 492.793C-27.1151 490.037 -9.66281 487.28 7.79227 484.582C88.5703 472.095 169.421 460.857 249.969 456.761C306.986 453.85 361.173 466.193 415.263 480.318C422.121 482.109 428.978 483.929 435.838 485.75L435.84 485.75C449.443 489.36 463.062 492.975 476.738 496.377Z" fill="black"/>
<path d="M476.992 516.826C476.995 516.379 476.998 515.933 477 515.486C464.612 512.584 452.245 509.544 439.879 506.504C431.078 504.34 422.278 502.176 413.47 500.063C358.766 486.936 303.824 475.757 247.058 478.641C137.995 484.158 27.2536 500.287 -82.4581 516.265C-130.629 523.281 -178.601 530.268 -226.146 536.315C-268.736 541.728 -300.488 563.767 -331.612 586.154C-332.675 586.919 -333.737 587.684 -334.799 588.449C-364.861 610.098 -394.652 631.552 -433.519 638.477C-469.912 644.96 -505.6 637.794 -540.977 624.596C-540.865 625.104 -540.752 625.61 -540.639 626.117C-505.385 639.175 -469.709 646.251 -433.289 639.763C-394.123 632.785 -364.114 611.172 -334.107 589.561C-333.021 588.778 -331.935 587.996 -330.848 587.215C-299.711 564.818 -268.204 542.978 -225.981 537.611C-178.385 531.557 -130.384 524.566 -82.1982 517.548L-82.1958 517.548C27.4859 501.574 138.125 485.46 247.124 479.946C303.688 477.072 358.473 488.21 413.165 501.333C421.955 503.443 430.744 505.603 439.537 507.765L439.542 507.767C452.01 510.832 464.488 513.9 476.992 516.826Z" fill="black"/>
<path d="M476.329 539.753C476.351 539.314 476.373 538.874 476.394 538.435C463.878 536.015 451.374 533.49 438.869 530.965C426.5 528.468 414.131 525.97 401.751 523.574C344.171 512.432 286.386 503.502 227.436 507.107C81.3578 516.043 -69.1497 532.622 -214.11 552.486C-256.467 558.285 -290.087 578.286 -323.062 598.946C-324.96 600.135 -326.855 601.326 -328.749 602.516C-359.81 622.034 -390.702 641.446 -428.334 649.631C-465.094 657.613 -501.316 652.003 -537.273 640.199C-537.146 640.699 -537.018 641.2 -536.89 641.7C-501.05 653.372 -464.84 658.895 -428.057 650.908C-390.193 642.672 -359.118 623.144 -328.097 603.65C-326.187 602.45 -324.278 601.25 -322.368 600.053C-289.389 579.391 -255.982 559.537 -213.933 553.78C-68.9941 533.919 81.4794 517.344 227.516 508.411C286.292 504.816 343.942 513.718 401.502 524.857C413.857 527.248 426.208 529.742 438.566 532.237L438.571 532.238C451.147 534.778 463.73 537.319 476.329 539.753Z" fill="black"/>
<path d="M474.538 563.842C474.58 563.408 474.622 562.974 474.664 562.54C461.717 560.687 448.771 558.756 435.823 556.824L435.815 556.823C421.915 554.749 408.011 552.675 394.1 550.696C335.682 542.388 277.141 535.772 218.217 538.008C79.6203 543.251 -64.6524 549.971 -202.282 567.069C-245.988 572.494 -282.915 591.558 -319.328 611.238C-321.328 612.32 -323.327 613.403 -325.325 614.485C-359.73 633.127 -393.978 651.683 -433.491 659.338C-467.576 665.93 -500.89 662.049 -533.845 652.996C-533.707 653.486 -533.568 653.976 -533.429 654.465C-500.588 663.405 -467.311 667.21 -433.243 660.621C-393.526 652.926 -359.113 634.28 -324.747 615.658L-324.737 615.653C-322.727 614.563 -320.717 613.474 -318.706 612.388C-282.284 592.702 -245.554 573.757 -202.12 568.365C-64.5524 551.275 79.6706 544.556 218.266 539.314C277.068 537.083 335.513 543.684 393.916 551.99C407.809 553.966 421.702 556.038 435.597 558.111L435.6 558.112C448.577 560.048 461.556 561.984 474.538 563.842Z" fill="black"/>
<path d="M471.346 589.706C471.411 589.273 471.475 588.841 471.538 588.408C457.953 587.569 444.36 586.719 430.762 585.869L430.754 585.869C224.41 572.971 16.6289 559.983 -189.412 580.874C-235.079 585.502 -275.655 603.204 -315.821 621.574C-318.196 622.66 -320.569 623.748 -322.941 624.837C-360.731 642.167 -398.4 659.442 -439.977 666.46C-470.996 671.698 -501.17 669.344 -530.935 662.934C-530.791 663.411 -530.645 663.888 -530.499 664.364C-500.844 670.683 -470.73 672.978 -439.76 667.748C-398.005 660.7 -360.189 643.357 -322.434 626.042L-322.341 625.999C-319.987 624.919 -317.632 623.839 -315.277 622.762C-275.101 604.388 -234.706 586.777 -189.28 582.174C16.6438 561.294 224.295 574.273 430.636 587.171L430.651 587.172C444.222 588.02 457.787 588.868 471.346 589.706Z" fill="black"/>
<path d="M467.187 613.67C467.273 613.236 467.359 612.802 467.444 612.367C445.766 612.072 424.089 611.835 402.413 611.599H402.409C332.741 610.838 263.085 610.078 193.443 607.38C154.864 605.887 115.656 603.17 76.2232 600.437C-8.05734 594.596 -93.3668 588.684 -175.762 594.496C-223.719 597.882 -268.308 613.096 -312.545 629.508C-317.569 631.372 -322.588 633.251 -327.607 635.13C-366.806 649.806 -405.995 664.479 -447.371 671.815C-474.632 676.64 -501.486 675.873 -528.128 671.879C-527.978 672.342 -527.827 672.805 -527.676 673.267C-501.137 677.193 -474.349 677.917 -447.142 673.101C-405.64 665.743 -366.334 651.026 -327.148 636.354C-322.128 634.474 -317.11 632.595 -312.09 630.733C-267.857 614.323 -223.422 599.171 -175.67 595.8C-93.3659 589.994 -8.21686 595.896 76.0138 601.734L76.0178 601.734C115.473 604.468 154.727 607.189 193.393 608.686C263.037 611.384 332.741 612.145 402.436 612.906L402.447 612.906C424.029 613.142 445.61 613.377 467.187 613.67Z" fill="black"/>
<path d="M461.604 638.579C461.715 638.137 461.825 637.694 461.935 637.251C442.943 638.354 423.938 639.647 404.933 640.939L404.923 640.94C390.564 641.917 376.204 642.893 361.848 643.788C300.785 647.595 239.784 649.927 179.144 644.523C138.059 640.854 96.4008 634.524 54.5403 628.163C39.3485 625.854 24.1302 623.542 8.90298 621.351C-48.2636 613.126 -105.53 606.621 -161.849 608.524C-212.288 610.226 -261.007 623.207 -309.434 637.699C-317.058 639.981 -324.675 642.3 -332.29 644.619C-373.066 657.033 -413.796 669.433 -455.411 676.021C-479.229 679.791 -502.762 679.958 -526.138 677.891C-525.986 678.342 -525.833 678.793 -525.68 679.243C-502.405 681.264 -478.952 681.07 -455.207 677.312C-413.493 670.708 -372.663 658.277 -331.889 645.862C-324.279 643.545 -316.67 641.229 -309.059 638.951C-260.64 624.461 -212.061 611.525 -161.804 609.83C-105.606 607.931 -48.4344 614.421 8.71671 622.644C23.9204 624.832 39.1244 627.142 54.308 629.449L54.3099 629.45C96.1826 635.812 137.9 642.152 179.028 645.825C239.771 651.238 300.854 648.9 361.93 645.092C376.305 644.196 390.679 643.218 405.048 642.241C423.911 640.958 442.765 639.676 461.604 638.579Z" fill="black"/>
<path d="M454.748 663.294C454.887 662.837 455.026 662.38 455.164 661.922C435.613 664.46 415.988 667.368 396.338 670.28C380.788 672.584 365.222 674.89 349.666 677.017C287.305 685.544 225.055 691.199 164.331 682.371C123.466 676.418 82.4977 666.09 41.3811 655.725L41.3783 655.725C30.5215 652.988 19.6542 650.248 8.77591 647.586C-43.2781 634.847 -95.5638 623.884 -148.044 623.514C-200.987 623.144 -253.838 633.757 -306.469 646.191C-317.321 648.755 -328.162 651.396 -338.993 654.034C-380.717 664.198 -422.288 674.324 -463.707 679.859C-484.11 682.593 -504.36 683.28 -524.519 682.609C-524.365 683.05 -524.211 683.49 -524.056 683.931C-504.002 684.576 -483.847 683.876 -463.533 681.154C-422.039 675.609 -380.381 665.461 -338.65 655.296L-338.647 655.295C-327.825 652.659 -316.999 650.021 -306.169 647.463C-253.551 635.031 -200.829 624.452 -148.053 624.821C-95.7358 625.189 -43.5758 636.12 8.46503 648.855C19.3188 651.511 30.1684 654.246 41.0132 656.98L41.0249 656.983C82.1503 667.351 123.204 677.7 164.142 683.664C225.058 692.52 287.46 686.841 349.843 678.311C365.434 676.18 381.021 673.87 396.584 671.564C416.023 668.684 435.425 665.81 454.748 663.294Z" fill="black"/>
<path d="M446.631 687.713C446.803 687.236 446.974 686.759 447.145 686.281C427.415 690.161 407.485 694.577 387.473 699.011L387.47 699.011C369.074 703.087 350.608 707.179 332.163 710.884C266.305 724.112 200.663 732.429 139.085 717.714C104.588 709.473 69.7956 695.974 34.7113 682.361C24.5044 678.401 14.2722 674.431 4.01599 670.578C-41.4589 653.495 -87.3882 638.728 -133.587 637.47C-186.796 636.01 -241.947 644.115 -296.975 654.168C-312.037 656.92 -327.087 659.816 -342.086 662.703L-342.097 662.706C-381.919 670.371 -421.384 677.967 -459.746 682.59C-480.981 685.149 -502.104 686.269 -523.167 686.437C-523.012 686.872 -522.855 687.306 -522.699 687.74C-501.747 687.559 -480.725 686.434 -459.589 683.888C-421.179 679.258 -381.648 671.649 -341.811 663.982L-341.807 663.981L-341.804 663.98C-326.811 661.094 -311.776 658.2 -296.74 655.453C-241.727 645.403 -186.688 637.32 -133.623 638.776C-87.6581 640.028 -41.9042 654.724 3.55609 671.801C13.7796 675.641 23.9897 679.603 34.1834 683.558C69.2826 697.177 104.189 710.721 138.781 718.985C200.653 733.77 266.534 725.399 332.42 712.165C350.926 708.447 369.429 704.348 387.846 700.267L387.848 700.267C407.574 695.896 427.203 691.547 446.631 687.713Z" fill="black"/>
<path d="M437.315 711.642C437.525 711.141 437.734 710.639 437.942 710.137C417.663 715.245 397.133 721.047 376.5 726.879L376.498 726.879C358.092 732.081 339.602 737.307 321.134 742.084C254.245 759.387 187.575 770.836 125.693 754.306C90.1581 744.814 56.4518 726.776 22.6046 708.662C16.5155 705.404 10.4218 702.143 4.31219 698.928C-35.7189 677.869 -76.4142 658.839 -120.818 655.968C-176.312 652.364 -235.153 657.955 -293.978 665.663C-312.92 668.145 -331.857 670.846 -350.681 673.531L-350.683 673.531C-390.342 679.188 -429.5 684.773 -467.15 688.089C-485.202 689.677 -503.251 690.791 -521.301 691.567C-521.143 691.996 -520.983 692.425 -520.823 692.854C-502.892 692.077 -484.962 690.967 -467.035 689.391C-429.35 686.071 -390.131 680.478 -350.451 674.818C-331.636 672.135 -312.717 669.436 -293.809 666.959C-235.001 659.253 -176.264 653.676 -120.903 657.271C-76.801 660.123 -36.3223 679.028 3.70331 700.085C9.79501 703.289 15.8768 706.544 21.9592 709.8C55.8008 727.912 89.6612 746.034 125.355 755.568C187.589 772.192 254.547 760.658 321.461 743.349C340 738.553 358.532 733.316 376.963 728.107C397.245 722.375 417.404 716.678 437.315 711.642Z" fill="black"/>
<path d="M426.151 736.444C426.41 735.908 426.667 735.372 426.924 734.835C422.387 736.245 417.83 737.696 413.254 739.179C398.478 743.966 383.533 749.077 368.49 754.222L368.486 754.224C349.421 760.744 330.197 767.319 310.953 773.359C242.133 794.961 173.626 809.532 113.502 789.722C79.9385 778.661 49.9658 758.093 19.8956 737.458C14.8348 733.985 9.77133 730.511 4.6875 727.079C-30.5611 703.286 -66.761 681.591 -109.604 677.346C-167.216 671.654 -229.285 674.566 -291.449 679.703C-314.627 681.618 -337.811 683.842 -360.784 686.046L-360.786 686.046L-360.79 686.047C-399.458 689.756 -437.529 693.408 -473.962 695.434C-488.924 696.269 -503.876 697.177 -518.822 698.134C-518.657 698.56 -518.493 698.986 -518.327 699.412C-503.516 698.465 -488.704 697.565 -473.89 696.739C-437.435 694.711 -399.31 691.054 -360.617 687.343L-360.61 687.342C-337.644 685.139 -314.478 682.917 -291.342 681.005C-229.196 675.869 -167.223 672.966 -109.733 678.646C-67.2457 682.855 -31.2849 704.374 3.95593 728.162C9.0224 731.582 14.0746 735.049 19.1292 738.518C49.1897 759.149 79.3367 779.838 113.092 790.963C173.649 810.915 242.519 796.209 311.344 774.606C330.579 768.568 349.855 761.976 368.952 755.445L368.958 755.443C384.005 750.298 398.94 745.19 413.657 740.421C417.839 739.067 422.004 737.739 426.151 736.444Z" fill="black"/>
<path d="M412.937 761.978C413.258 761.399 413.577 760.82 413.895 760.24C411.594 761.074 409.286 761.919 406.972 762.774C391.909 768.337 376.598 774.297 361.143 780.313C341.724 787.873 322.077 795.521 302.408 802.581C231.798 827.925 161.56 845.424 103.038 823.255C70.9171 811.086 44.3698 788.962 17.7806 766.803L17.7769 766.8C13.4973 763.234 9.21671 759.666 4.91156 756.139C-26.1019 730.732 -58.3557 707.462 -100.464 702.232C-186.268 691.565 -282.164 696.354 -374.215 700.952C-410.311 702.755 -445.816 704.528 -479.889 705.328C-491.762 705.606 -503.573 706.162 -515.336 706.935C-515.162 707.36 -514.989 707.785 -514.815 708.21C-503.213 707.453 -491.565 706.908 -479.858 706.634C-445.707 705.832 -410.154 704.057 -374.031 702.252L-374.029 702.252C-282.021 697.657 -186.308 692.877 -100.625 703.528C-58.9177 708.709 -26.9156 731.755 4.08289 757.15C8.37296 760.664 12.6444 764.224 16.92 767.788C43.4965 789.94 70.2318 812.223 102.575 824.477C161.594 846.834 232.26 829.148 302.85 803.811C322.504 796.756 342.203 789.088 361.654 781.517L361.658 781.515L361.664 781.513C377.123 775.495 392.426 769.538 407.425 763.999C409.267 763.319 411.104 762.645 412.937 761.978Z" fill="black"/>
<path d="M402.295 780.302C402.64 779.734 402.985 779.165 403.329 778.595C369.245 789.562 336.046 802.676 301.84 816.189C293.855 819.343 285.816 822.519 277.697 825.694C273.151 827.474 268.539 829.31 263.87 831.169C239.597 840.832 213.773 851.113 187.597 857.326C156.398 864.73 124.782 866.331 94.8137 854.236C63.4676 841.58 39.6686 819.033 15.9002 796.516C12.2147 793.024 8.52985 789.533 4.81772 786.08C-22.7988 760.39 -51.8877 736.837 -93.881 731.14C-189.737 718.102 -295.611 718.33 -396.831 718.547H-396.835C-426.655 718.611 -456.07 718.674 -484.706 718.397C-493.321 718.314 -501.852 718.477 -510.313 718.846C-510.126 719.274 -509.938 719.702 -509.75 720.13C-501.477 719.776 -493.138 719.622 -484.719 719.704C-456.044 719.981 -426.603 719.918 -396.766 719.854C-295.562 719.637 -189.814 719.41 -94.0573 732.435C-52.494 738.073 -23.6621 761.371 3.92709 787.036C7.62396 790.475 11.2993 793.958 14.9803 797.446C38.735 819.955 62.7302 842.691 94.324 855.447C124.64 867.682 156.56 866.034 187.899 858.597C214.177 852.36 240.106 842.037 264.377 832.374L264.38 832.373C269.042 830.516 273.643 828.685 278.173 826.911C286.295 823.734 294.336 820.558 302.319 817.405C336.054 804.079 368.768 791.156 402.295 780.302Z" fill="black"/>
<path d="M385.758 805.751C386.182 805.137 386.606 804.523 387.028 803.908C357.842 814.332 329.221 826.366 299.749 838.758L299.741 838.762C291.119 842.387 282.424 846.043 273.621 849.698C269.76 851.299 265.823 852.953 261.817 854.635C237.497 864.849 210.679 876.111 183.37 883.131C151.568 891.307 119.19 893.704 89.4144 882.034C58.1193 869.773 36.0503 848.118 14.0909 826.57L14.0894 826.568C10.8321 823.372 7.57727 820.179 4.29501 817.018C-21.0906 792.574 -48.0652 770.193 -90.3016 764.701C-219.325 747.972 -357.615 741.141 -487.971 735.345C-493.001 735.123 -497.984 735.01 -502.925 734.996C-502.716 735.432 -502.506 735.869 -502.296 736.305C-497.58 736.326 -492.825 736.438 -488.029 736.65C-357.668 742.446 -219.431 749.276 -90.47 765.996C-48.6697 771.432 -21.9532 793.558 3.38806 817.959C6.65536 821.105 9.90057 824.29 13.153 827.482L13.1579 827.487C35.1045 849.027 57.3754 870.885 88.9373 883.251C119.077 895.063 151.768 892.604 183.695 884.397C211.106 877.35 238.021 866.046 262.337 855.834C266.339 854.153 270.271 852.502 274.123 850.904C282.933 847.246 291.632 843.589 300.255 839.963L300.259 839.962C329.161 827.81 357.211 816.016 385.758 805.751Z" fill="black"/>
<path d="M365.154 833.474C365.69 832.802 366.224 832.128 366.756 831.453C344.741 839.945 322.866 849.218 300.491 858.704C291.542 862.498 282.512 866.326 273.361 870.151C269.967 871.57 266.508 873.029 262.99 874.513C238.389 884.893 210.941 896.473 182.942 903.793C150.943 912.158 118.311 914.932 88.4766 904.032C57.0249 892.546 35.1041 872.143 13.3198 851.867C10.2121 848.974 7.10727 846.084 3.97791 843.223C-21.0694 820.324 -47.6354 799.337 -89.6041 794.161C-220.525 778.026 -356.031 764.032 -487.883 755.281C-489.532 755.172 -491.175 755.075 -492.813 754.99C-492.573 755.439 -492.333 755.888 -492.092 756.337C-490.721 756.411 -489.347 756.493 -487.97 756.585C-356.149 765.334 -220.669 779.325 -89.7641 795.458C-48.2131 800.583 -21.9006 821.334 3.09555 844.187C6.21036 847.035 9.3056 849.917 12.4079 852.805L12.4156 852.812C34.1876 873.081 56.3102 893.676 88.028 905.26C118.22 916.29 151.155 913.453 183.273 905.057C211.371 897.711 238.912 886.091 263.507 875.714C267.022 874.231 270.477 872.773 273.866 871.356C283.024 867.528 292.058 863.698 301.009 859.904C322.684 850.716 343.87 841.735 365.154 833.474Z" fill="black"/>
<path d="M338.969 863.859C339.656 863.121 340.342 862.38 341.026 861.638C327.978 866.796 314.888 872.128 301.639 877.525C293.335 880.907 284.968 884.315 276.509 887.722C272.673 889.266 268.764 890.858 264.792 892.475C240.343 902.43 213.481 913.368 186.129 920.3C154.337 928.356 121.968 930.976 92.0538 920.386C60.6854 909.3 37.957 889.664 15.3284 870.113L15.3254 870.11C12.2091 867.418 9.09464 864.727 5.95978 862.061C-19.9192 840.047 -47.144 819.738 -88.1561 814.21C-217.047 796.857 -349.892 782.088 -479.709 771.454C-481.082 771.341 -482.452 771.238 -483.818 771.144C-483.553 771.599 -483.288 772.055 -483.022 772.509C-481.955 772.586 -480.887 772.668 -479.816 772.756C-350.024 783.388 -217.202 798.154 -88.3306 815.505C-47.707 820.98 -20.7234 841.079 5.11255 863.056C8.23849 865.715 11.3483 868.402 14.4639 871.094C37.0792 890.637 60.0009 910.444 91.6176 921.618C121.878 932.331 154.54 929.653 186.45 921.566C213.898 914.61 240.853 903.634 265.297 893.681C269.266 892.064 273.169 890.475 276.998 888.934C285.461 885.525 293.83 882.117 302.132 878.735C314.524 873.687 326.77 868.699 338.969 863.859Z" fill="black"/>
<path d="M285.113 913.998C286.17 913.145 287.225 912.288 288.275 911.427C221.583 936.38 155.497 953.139 98.32 934.263C66.7923 923.863 42.8366 905.421 18.9332 887.018C15.8663 884.657 12.7994 882.296 9.71826 879.953C-17.3563 859.367 -45.5508 840.191 -85.5259 834.333C-211.196 815.946 -338.867 798.26 -465.212 784.525C-468.961 784.118 -472.687 783.788 -476.391 783.53C-476.108 783.987 -475.824 784.444 -475.54 784.901C-472.163 785.146 -468.768 785.453 -465.353 785.824C-339.033 799.556 -211.38 817.24 -85.7153 835.625C-46.0862 841.433 -18.1147 860.432 8.92676 880.993C12.0013 883.331 15.0644 885.689 18.1315 888.051C42.0201 906.444 66.157 925.029 97.9103 935.504C154.505 954.188 219.618 938.214 285.113 913.998Z" fill="black"/>
<path d="M247.443 941.658C248.576 940.902 249.706 940.142 250.833 939.378C200.59 953.274 151.565 959.285 106.872 945.962C74.9249 936.449 49.2971 919.539 23.6628 902.625C20.7845 900.726 17.9053 898.826 15.018 896.938C-13.5648 878.24 -43.0024 860.589 -81.8608 854.382C-126.726 847.227 -171.592 839.717 -216.474 832.205L-216.477 832.204C-292.93 819.408 -369.43 806.603 -446.054 795.53C-454.19 794.352 -462.26 793.584 -470.271 793.179C-469.978 793.631 -469.683 794.082 -469.388 794.533C-461.727 794.949 -454.015 795.698 -446.242 796.823C-369.629 807.895 -293.157 820.695 -216.716 833.489L-216.699 833.492C-171.818 841.004 -126.948 848.514 -82.0667 855.672C-43.5004 861.832 -14.26 879.347 14.3022 898.031C17.1779 899.912 20.0471 901.805 22.9185 903.7L22.948 903.72C48.5648 920.624 74.355 937.642 106.498 947.214C150.399 960.301 198.378 954.856 247.443 941.658Z" fill="black"/>
<path d="M217.218 960.341C218.266 959.742 219.312 959.139 220.356 958.533C184.844 964.185 150.128 964.676 117.081 956.108C83.9482 947.509 55.4063 932.277 26.7292 916.973L26.7274 916.972C24.8862 915.989 23.0444 915.006 21.2008 914.025C-9.33838 897.766 -40.3598 881.912 -77.4399 874.507C-109.412 868.114 -141.385 861.653 -173.365 855.19L-173.374 855.188C-256.813 838.327 -340.299 821.455 -423.938 805.761C-437.465 803.223 -450.996 801.993 -464.525 801.828C-464.227 802.268 -463.927 802.708 -463.627 803.147C-450.473 803.355 -437.322 804.579 -424.179 807.045C-340.549 822.738 -257.075 839.607 -173.639 856.468L-173.628 856.47L-173.566 856.483C-141.606 862.941 -109.652 869.399 -77.6964 875.789C-40.824 883.152 -9.9537 898.919 20.5862 915.178C22.4386 916.164 24.2899 917.152 26.1412 918.14C54.7929 933.432 83.4633 948.733 116.753 957.373C148.97 965.726 182.735 965.518 217.218 960.341Z" fill="black"/>
<path d="M196.338 971.64C197.272 971.163 198.205 970.682 199.136 970.198C175.213 971.452 151.61 970.11 128.507 965.073C94.0236 957.56 62.5121 944.056 30.8243 930.476L28.6819 929.557C-3.71249 915.678 -36.3606 901.862 -72.5253 894.518C-142.258 880.363 -211.44 863.01 -280.594 845.664L-280.604 845.661C-320.566 835.637 -360.519 825.616 -400.563 816.215C-419.314 811.808 -438.564 810.323 -458.137 811.021C-457.834 811.447 -457.53 811.873 -457.226 812.297C-438.054 811.676 -419.212 813.174 -400.863 817.487C-360.858 826.878 -320.921 836.896 -280.963 846.919L-280.96 846.919C-211.782 864.271 -142.542 881.639 -72.7855 895.798C-36.7708 903.112 -4.23956 916.874 28.1668 930.758L30.3524 931.695C62.0092 945.262 93.6213 958.81 128.229 966.35C150.535 971.212 173.294 972.649 196.338 971.64Z" fill="black"/>
<path d="M181.834 978.775C182.698 978.367 183.56 977.957 184.421 977.544C172.892 977.25 161.389 976.374 149.918 974.811C113.035 969.782 77.6045 957.731 42.0835 945.177C39.7233 944.343 37.3627 943.507 35.0013 942.67C1.84213 930.921 -31.4838 919.114 -66.1442 912.606C-120.697 902.369 -174.002 885.933 -227.31 869.341L-231.163 868.142C-283.175 851.949 -335.22 835.746 -388.396 825.182C-408.095 821.269 -428.7 820.6 -449.883 822.301C-449.573 822.714 -449.261 823.126 -448.95 823.538C-428.164 821.928 -407.962 822.628 -388.65 826.463C-335.543 837.014 -283.556 853.199 -231.523 869.398L-227.699 870.588C-174.4 887.178 -121.025 903.637 -66.3854 913.89C-31.8289 920.378 1.40594 932.153 34.5862 943.909C36.9401 944.743 39.2938 945.577 41.6476 946.409C77.1608 958.96 112.709 971.056 149.741 976.106C160.414 977.56 171.114 978.422 181.834 978.775Z" fill="black"/>
<path d="M168.941 984.651C169.774 984.285 170.606 983.918 171.436 983.548C168.406 983.305 165.376 983.026 162.347 982.709C125.277 978.82 88.0291 969.731 50.8205 959.847C43.9648 958.025 37.11 956.177 30.2581 954.329L30.1906 954.311L30.1865 954.31C-0.110931 946.14 -30.3539 937.985 -60.3795 932.248C-112.577 922.272 -163.308 905.073 -213.982 887.383C-217.562 886.133 -221.143 884.881 -224.723 883.628C-271.801 867.16 -318.917 850.678 -367.136 839.621C-390.744 834.199 -414.052 834.749 -437.104 838.59C-436.786 838.979 -436.467 839.368 -436.148 839.756C-413.46 836.047 -390.578 835.578 -367.429 840.895C-319.285 851.935 -272.237 868.392 -225.145 884.865L-225.086 884.885C-221.529 886.13 -217.971 887.374 -214.413 888.617C-163.744 906.305 -112.929 923.534 -60.625 933.531C-30.6531 939.258 -0.469238 947.397 29.8246 955.566L29.8286 955.567L29.8736 955.579C36.7387 957.43 43.6095 959.283 50.4847 961.109C87.6995 970.995 125.032 980.108 162.21 984.009C164.454 984.243 166.698 984.457 168.941 984.651Z" fill="black"/>
<path d="M155.061 990.504C155.921 990.156 156.78 989.806 157.638 989.454C106.43 984.313 53.2852 973.588 1.6593 963.169C-17.4272 959.318 -36.3068 955.508 -54.8035 952.037C-102.628 943.063 -149.154 924.6 -195.725 906.118L-198.208 905.133C-199.496 904.622 -200.783 904.112 -202.071 903.601C-250.739 884.309 -299.52 865.469 -349.825 857.999C-372.785 854.589 -396.733 854.58 -421.294 857.032C-420.932 857.434 -420.57 857.836 -420.207 858.237C-396.075 855.89 -372.561 855.943 -350.017 859.291C-299.884 866.736 -251.238 885.517 -202.553 904.816C-200.424 905.66 -198.295 906.504 -196.165 907.349C-149.628 925.817 -102.996 944.323 -55.0447 953.321C-36.5901 956.784 -17.7392 960.588 1.32956 964.436L1.33707 964.438C52.1584 974.694 104.526 985.263 155.061 990.504Z" fill="black"/>
<path d="M135.548 997.937C136.531 997.586 137.512 997.231 138.492 996.874C75.6372 991.645 10.2284 982.521 -49.8987 972.009C-97.6022 963.683 -143.865 945.562 -190.171 927.425L-193.937 925.95C-241.478 907.337 -289.104 888.987 -338.299 881.59C-358.163 878.604 -378.834 878.026 -400.054 879.295C-399.636 879.708 -399.218 880.12 -398.799 880.531C-378.073 879.357 -357.892 879.966 -338.493 882.882C-289.467 890.253 -241.974 908.546 -194.414 927.166L-190.597 928.661L-190.595 928.662C-144.328 946.784 -97.9581 964.947 -50.1236 973.296C9.12634 983.654 73.5139 992.668 135.548 997.937Z" fill="black"/>
<path d="M108.03 1006.91C109.348 1006.52 110.663 1006.13 111.976 1005.73C59.4677 1004.12 6.89041 1000.11 -45.8514 992.239C-93.919 985.06 -140.739 968.661 -187.603 952.246L-187.606 952.245L-189.957 951.422C-237.585 934.742 -285.279 918.206 -334.282 911.568C-345.114 910.104 -356.151 909.255 -367.359 908.945C-366.815 909.398 -366.269 909.85 -365.722 910.301C-355.134 910.646 -344.702 911.478 -334.457 912.863C-285.608 919.48 -238.036 935.968 -190.389 952.655L-187.986 953.496C-141.159 969.898 -94.2371 986.333 -46.0447 993.531C5.44836 1001.21 56.7787 1005.22 108.03 1006.91Z" fill="black"/>
<path d="M33.3588 1023C35.5112 1022.7 37.6593 1022.39 39.8031 1022.07C11.5729 1020.48 -16.5766 1018.17 -44.6174 1014.94C-93.4371 1009.31 -141.681 995.49 -190.002 981.645L-190.456 981.515C-192.467 980.939 -194.478 980.363 -196.49 979.787C-232.989 969.342 -269.548 959.094 -306.403 952.592C-305.37 953.223 -304.333 953.852 -303.295 954.477C-267.654 960.984 -232.256 970.911 -196.85 981.043C-194.675 981.665 -192.501 982.288 -190.326 982.911C-142.035 996.748 -93.6961 1010.6 -44.7672 1016.24C-18.8093 1019.23 7.2403 1021.43 33.3588 1023Z" fill="black"/>
</svg>
