<svg width="326" height="180" viewBox="0 0 326 180" fill="none" xmlns="http://www.w3.org/2000/svg">
<path d="M12.0456 509.977C15.5154 510.558 18.9824 511.149 22.449 511.741C25.3948 512.243 28.3403 512.746 31.2872 513.242C32.5347 513.452 33.7824 513.661 35.0305 513.868C38.7295 514.324 42.4527 514.702 46.1983 515C41.258 514.236 36.3264 513.424 31.3963 512.593C28.4525 512.098 25.5092 511.596 22.5648 511.093L22.5633 511.093C15.973 509.969 9.37749 508.844 2.76092 507.788C5.83419 508.573 8.92946 509.303 12.0456 509.977Z" fill="black"/>
<path d="M-45.3145 490.252C-44.6906 490.553 -44.0653 490.852 -43.4386 491.148C-39.807 491.594 -36.1716 492.016 -32.5319 492.41C-13.6668 494.455 4.64096 498.375 22.9361 502.292L22.9408 502.293C25.9008 502.927 28.8604 503.56 31.8219 504.186C53.0829 508.677 74.4388 512.753 96.6977 513.451C98.253 513.5 99.8072 513.539 101.361 513.568C102.79 513.378 104.215 513.177 105.637 512.964C102.668 512.943 99.6947 512.888 96.7185 512.794C74.5222 512.098 53.2154 508.033 31.9578 503.542C28.998 502.917 26.0391 502.283 23.0788 501.65C4.78537 497.733 -13.5594 493.805 -32.461 491.756C-36.7512 491.291 -41.0354 490.788 -45.3145 490.252Z" fill="black"/>
<path d="M-72.9044 474.797C-72.4786 475.071 -72.0521 475.344 -71.6246 475.615C-59.1147 477.139 -46.6666 478.719 -34.3229 480.346C-14.4948 482.958 4.50483 488.142 23.4862 493.322L23.4871 493.322C26.5669 494.162 29.6463 495.002 32.7286 495.832C54.7984 501.768 77.0114 507.13 100.581 507.838C112.675 508.201 124.618 507.575 136.477 506.403C137.691 506.065 138.901 505.719 140.108 505.365C127.055 506.778 113.918 507.58 100.6 507.18C77.1137 506.475 54.9644 501.132 32.8993 495.196C29.8209 494.368 26.744 493.529 23.6653 492.689C4.68618 487.509 -14.3612 482.312 -34.2371 479.694C-47.0298 478.008 -59.9346 476.371 -72.9044 474.797Z" fill="black"/>
<path d="M-90.9245 462.088C-90.6127 462.329 -90.3003 462.568 -89.9873 462.807C-71.9279 463.974 -53.9967 465.572 -36.3863 467.968C-14.6674 470.924 5.76643 477.975 26.2094 485.03L26.2128 485.031C28.8041 485.925 31.3955 486.82 33.9896 487.706C57.0383 495.577 80.297 502.79 105.542 503.433C126.988 503.974 147.527 500.192 167.864 495.451C169.017 494.963 170.166 494.467 171.311 493.962C149.808 499.088 128.183 503.346 105.559 502.776C80.4231 502.136 57.248 494.954 34.202 487.083C31.6087 486.197 29.0169 485.303 26.4241 484.408C5.98816 477.355 -14.51 470.281 -36.2977 467.316C-54.2398 464.875 -72.5183 463.262 -90.9245 462.088Z" fill="black"/>
<path d="M-104.781 450.623C-104.538 450.839 -104.295 451.054 -104.051 451.269C-81.8919 450.909 -59.9292 451.649 -38.7201 455.309C-16.2422 459.18 4.77626 467.894 25.7987 476.61L25.8021 476.611C29.0087 477.941 32.2155 479.27 35.4275 480.582C59.6825 490.492 84.2263 499.417 111.211 499.864C135.917 500.274 158.698 493.347 181.245 485.521C184.408 484.423 187.566 483.307 190.724 482.192C194.047 481.019 197.369 479.845 200.697 478.692C201.567 478.167 202.434 477.636 203.297 477.101C199.019 478.564 194.756 480.07 190.497 481.575L190.495 481.575C187.339 482.69 184.185 483.804 181.029 484.9C158.489 492.723 135.802 499.615 111.222 499.207C84.3705 498.762 59.9262 489.881 35.6761 479.973C32.4687 478.663 29.2646 477.335 26.0587 476.005L26.0573 476.005C5.04016 467.291 -16.0525 458.545 -38.6084 454.66C-60.1028 450.951 -82.3579 450.236 -104.781 450.623Z" fill="black"/>
<path d="M-115.275 440.781C-115.074 440.98 -114.874 441.178 -114.673 441.375C-89.7983 438.591 -65.0622 437.494 -41.1839 442.5C-18.0387 447.344 3.67474 457.815 25.4137 468.298C29.2782 470.162 33.1438 472.026 37.0182 473.859C62.6669 485.992 88.6954 496.751 117.383 496.853C142.513 496.947 164.835 487.936 186.797 477.768C190.023 476.274 193.242 474.755 196.46 473.237C207.181 468.178 217.902 463.119 228.921 458.977C229.456 458.547 229.989 458.116 230.521 457.683C218.818 461.958 207.477 467.31 196.167 472.647C192.951 474.165 189.739 475.681 186.521 477.171C164.566 487.335 142.359 496.288 117.386 496.196C88.8555 496.094 62.9422 485.395 37.2992 473.264C33.4348 471.436 29.5762 469.575 25.7157 467.713L25.7137 467.712C3.9777 457.23 -17.8185 446.718 -41.0491 441.857C-65.1982 436.793 -90.1991 437.951 -115.275 440.781Z" fill="black"/>
<path d="M-123.681 432.052C-123.509 432.239 -123.337 432.426 -123.164 432.613C-96.5862 426.845 -70.0356 423.153 -43.7023 429.599C-19.7135 435.471 2.89197 447.676 25.5591 459.915C29.9292 462.274 34.3016 464.635 38.6866 466.952C65.7931 481.274 93.3685 493.907 123.755 494.028C149.247 494.131 171.194 482.959 192.62 470.29C195.994 468.295 199.355 466.263 202.715 464.232C218.176 454.884 233.613 445.551 250.216 439.882C250.561 439.537 250.906 439.19 251.249 438.843C234.088 444.493 218.196 454.102 202.355 463.68L202.353 463.681C198.999 465.709 195.647 467.736 192.286 469.724C170.867 482.388 149.056 493.472 123.758 493.371C93.5457 493.25 66.0954 480.69 38.9936 466.37C34.6213 464.06 30.2576 461.704 25.893 459.347L25.8912 459.346C3.22533 447.107 -19.4677 434.854 -43.5461 428.96C-70.123 422.455 -96.8897 426.224 -123.578 432.03C-123.613 432.037 -123.647 432.045 -123.681 432.052Z" fill="black"/>
<path d="M-130.691 424.108C-130.538 424.288 -130.385 424.469 -130.232 424.649C-128.588 424.109 -126.945 423.577 -125.302 423.056C-99.3906 414.835 -73.395 409.244 -46.2197 416.754C-21.5571 423.573 1.93439 437.484 25.5479 451.466C30.4588 454.374 35.375 457.285 40.3081 460.136C68.9345 476.681 98.1173 491.194 130.017 491.148C155.917 491.11 177.505 477.789 198.393 462.681C201.825 460.198 205.238 457.668 208.648 455.14L208.65 455.139C226.021 442.261 243.318 429.437 262.721 423.255C263.923 422.872 265.129 422.517 266.339 422.189C266.58 421.899 266.82 421.609 267.06 421.318C265.541 421.712 264.028 422.149 262.521 422.628C243.005 428.846 225.602 441.749 208.233 454.628C204.828 457.153 201.425 459.676 198.007 462.148C177.124 477.252 155.688 490.453 130.016 490.49C98.3083 490.536 69.2608 476.11 40.6369 459.567C35.7189 456.725 30.8129 453.819 25.9083 450.915C2.29407 436.931 -21.2893 422.965 -46.0446 416.12C-73.4121 408.556 -99.5627 414.2 -125.501 422.429C-127.232 422.978 -128.962 423.538 -130.691 424.108Z" fill="black"/>
<path d="M-136.733 416.702C-136.593 416.88 -136.453 417.058 -136.313 417.235C-133.278 415.889 -130.245 414.567 -127.208 413.292C-102.149 402.771 -76.8498 395.44 -48.6056 404.02C-23.3666 411.687 0.983974 427.19 25.5317 442.819L25.5332 442.82C30.9534 446.271 36.3831 449.728 41.8343 453.108C71.943 471.778 102.691 488.091 135.927 487.839C162.242 487.643 183.501 472.25 203.878 454.825C207.317 451.885 210.729 448.887 214.138 445.893C220.84 440.006 227.525 434.135 234.358 428.741C244.66 420.609 255.268 413.591 266.712 409.291C270.703 407.792 274.746 406.668 278.835 405.874C279.016 405.617 279.197 405.36 279.377 405.102C275.027 405.908 270.725 407.081 266.481 408.676C254.945 413.009 244.276 420.075 233.951 428.225C227.104 433.628 220.396 439.521 213.685 445.416L213.681 445.419C210.277 448.409 206.873 451.398 203.45 454.326C183.074 471.75 161.977 486.987 135.922 487.181C102.893 487.432 72.2899 471.219 42.1806 452.549C36.7471 449.18 31.3293 445.73 25.9166 442.284L25.915 442.283C1.36479 426.651 -23.0808 411.086 -48.4146 403.39C-76.8866 394.741 -102.368 402.149 -127.463 412.686C-130.558 413.985 -133.646 415.332 -136.733 416.702Z" fill="black"/>
<path d="M-142.015 409.742C-141.885 409.92 -141.754 410.098 -141.623 410.276C-137.422 407.94 -133.231 405.638 -129.025 403.446C-104.837 390.84 -80.2309 381.933 -50.7666 391.509C-24.9881 399.89 0.169452 416.833 25.599 433.959L25.6019 433.961C31.4453 437.897 37.303 441.842 43.1859 445.695C74.6375 466.294 106.801 484.253 141.205 483.787C167.97 483.423 188.912 466.141 208.801 446.628C212.205 443.288 215.578 439.883 218.944 436.485L218.946 436.483C225.427 429.941 231.885 423.422 238.504 417.43C248.555 408.33 258.944 400.479 270.273 395.663C276.297 393.104 282.45 391.544 288.703 390.79C288.846 390.553 288.99 390.315 289.133 390.078C282.649 390.814 276.266 392.403 270.016 395.057C258.589 399.915 248.136 407.823 238.063 416.942C231.431 422.945 224.95 429.488 218.46 436.04C215.096 439.435 211.731 442.832 208.341 446.158C188.447 465.676 167.673 482.769 141.196 483.13C107.013 483.593 75.0014 465.746 43.5459 445.144C37.6815 441.303 31.8361 437.366 26.0002 433.436C0.566856 416.306 -24.6884 399.296 -50.5634 390.884C-80.2861 381.223 -105.096 390.233 -129.329 402.863C-133.566 405.071 -137.788 407.391 -142.015 409.742Z" fill="black"/>
<path d="M-146.727 403.095C-146.603 403.276 -146.479 403.457 -146.355 403.637C-146.19 403.529 -146.025 403.42 -145.86 403.312L-145.858 403.311C-140.788 399.979 -135.751 396.67 -130.684 393.551C-107.314 379.17 -83.3525 368.89 -52.6841 379.316C-27.84 387.753 -3.66807 402.955 19.2497 417.367C25.1658 421.088 30.9986 424.756 36.7374 428.241C42.3144 431.632 48.3234 435.554 54.6486 439.683C65.1681 446.55 76.5621 453.987 88.2981 460.497C107.103 470.928 126.886 479.04 145.572 478.695C172.878 478.19 193.492 459.295 212.901 438.016C216.221 434.376 219.505 430.667 222.782 426.966L222.783 426.965C229.1 419.831 235.39 412.727 241.863 406.201C251.691 396.295 261.906 387.758 273.2 382.537C280.809 379.019 288.616 377.274 296.56 376.864C296.678 376.639 296.796 376.414 296.913 376.188C288.762 376.564 280.743 378.325 272.924 381.94C261.525 387.21 251.245 395.81 241.397 405.738C234.911 412.276 228.598 419.405 222.273 426.548C218.999 430.246 215.721 433.948 212.415 437.573C192.997 458.861 172.556 477.538 145.56 478.037C127.055 478.379 107.399 470.34 88.6169 459.922C76.8928 453.419 65.5486 446.013 55.049 439.158C48.7179 435.025 42.6938 431.093 37.0788 427.679C31.3606 424.206 25.5422 420.547 19.6353 416.832C-3.28865 402.415 -27.5476 387.158 -52.4726 378.693C-83.4248 368.171 -107.607 378.578 -131.028 392.991C-136.105 396.115 -141.15 399.43 -146.22 402.762C-146.389 402.873 -146.558 402.984 -146.727 403.095Z" fill="black"/>
<path d="M-150.996 396.667C-150.877 396.852 -150.758 397.037 -150.639 397.221C-150.078 396.809 -149.517 396.396 -148.958 395.983C-147.935 395.229 -146.916 394.474 -145.897 393.72C-141.253 390.283 -136.643 386.871 -131.999 383.639C-109.358 367.886 -85.9829 356.478 -54.2094 367.494C-28.7908 376.309 -3.96942 392.379 19.4421 407.536L19.4443 407.537C25.6074 411.528 31.6729 415.454 37.6257 419.169C43.3206 422.726 49.4756 426.865 55.9765 431.237L55.9775 431.238C58.0478 432.63 60.1532 434.046 62.29 435.475C71.133 441.385 80.5071 447.502 90.1312 453.007C109.369 464.012 129.652 472.6 148.731 472.19C176.687 471.591 196.944 451.462 215.875 428.845C219.056 425.044 222.199 421.174 225.336 417.312L225.337 417.311C231.549 409.662 237.736 402.044 244.145 395.058C253.785 384.549 263.892 375.51 275.267 370.007C284.255 365.661 293.467 363.937 302.824 364.068C302.923 363.85 303.022 363.632 303.121 363.414C293.578 363.243 284.167 364.973 274.981 369.415C263.496 374.971 253.322 384.081 243.66 394.613C237.239 401.613 231.029 409.259 224.809 416.918C221.675 420.776 218.539 424.639 215.371 428.423C196.428 451.053 176.345 470.941 148.717 471.532C129.825 471.939 109.674 463.428 90.4575 452.436C80.8541 446.943 71.4954 440.837 62.6552 434.928C60.5227 433.502 58.42 432.088 56.3512 430.697L56.35 430.696C49.8468 426.322 43.6788 422.174 37.9738 418.611C32.0431 414.91 25.9929 410.993 19.8396 407.009L19.8375 407.008C-3.58084 391.845 -28.4922 375.716 -53.9941 366.872C-86.0704 355.752 -109.677 367.307 -132.374 383.099C-137.027 386.337 -141.646 389.755 -146.291 393.193L-146.304 393.203C-147.317 393.953 -148.332 394.704 -149.348 395.454C-149.897 395.859 -150.446 396.263 -150.996 396.667Z" fill="black"/>
<path d="M-154.954 390.31C-154.84 390.499 -154.726 390.688 -154.611 390.876C-151.523 388.479 -148.473 386.044 -145.439 383.623C-141.241 380.271 -137.076 376.945 -132.887 373.784C-121.867 365.466 -110.647 358.251 -98.0941 354.523C-85.5511 350.797 -71.6593 350.547 -55.2865 356.194C-29.5692 365.068 -4.30548 381.771 19.3527 397.412L19.3545 397.413C25.7293 401.628 31.9874 405.765 38.1065 409.652C43.8808 413.317 50.1119 417.581 56.6891 422.081L56.6974 422.087C58.7654 423.502 60.8676 424.941 63.0006 426.391C71.9167 432.455 81.3641 438.727 91.0718 444.37C110.478 455.652 130.97 464.451 150.385 464.03C179.163 463.395 199.025 442.506 217.477 419.08C220.457 415.296 223.399 411.447 226.337 407.604L226.339 407.602C232.511 399.528 238.664 391.481 245.101 384.122C254.597 373.265 264.68 363.948 276.289 358.316C286.604 353.311 297.108 351.79 307.723 352.589C307.808 352.376 307.893 352.163 307.977 351.949C297.197 351.107 286.507 352.627 276.002 357.724C264.277 363.412 254.125 372.806 244.606 383.689C238.155 391.064 231.98 399.141 225.8 407.224C222.865 411.064 219.928 414.905 216.96 418.673C198.498 442.112 178.809 462.745 150.37 463.373C131.145 463.789 110.786 455.07 91.4021 443.802C81.7153 438.17 72.2836 431.909 63.3702 425.847C61.244 424.401 59.1469 422.966 57.0828 421.554L57.0682 421.544L57.0674 421.543C50.4878 417.041 44.2435 412.768 38.4587 409.096C32.3637 405.225 26.1219 401.098 19.7577 396.89L19.7569 396.89C-3.90893 381.242 -29.2676 364.476 -55.0722 355.572C-71.5717 349.881 -85.6038 350.126 -98.2812 353.892C-110.949 357.655 -122.245 364.928 -133.283 373.259C-137.503 376.444 -141.68 379.779 -145.882 383.134C-148.885 385.531 -151.901 387.94 -154.954 390.31Z" fill="black"/>
<path d="M-159.032 383.298C-158.924 383.491 -158.815 383.684 -158.707 383.876C-154.33 380.582 -150.044 377.172 -145.792 373.789C-141.557 370.42 -137.354 367.076 -133.129 363.901C-122.1 355.611 -110.875 348.43 -98.3432 344.738C-85.8213 341.049 -71.9761 340.84 -55.6964 346.528C-29.9429 355.525 -4.64096 371.967 19.1644 387.436C25.6594 391.656 32.0434 395.804 38.2943 399.709C44.2285 403.418 50.6503 407.758 57.4354 412.344L57.4371 412.345L57.4486 412.353C59.3663 413.649 61.3129 414.964 63.2857 416.291C72.2402 422.312 81.7286 428.553 91.4697 434.183C110.942 445.438 131.47 454.283 150.809 454.031C179.684 453.647 199.427 432.638 217.731 409.046C220.685 405.238 223.601 401.365 226.513 397.496L226.515 397.494C232.639 389.357 238.743 381.248 245.14 373.839C254.574 362.912 264.612 353.553 276.214 347.945C287.834 342.326 299.613 341.08 311.474 342.574C311.548 342.363 311.622 342.151 311.696 341.939C299.687 340.405 287.732 341.645 275.928 347.353C264.207 353.018 254.099 362.456 244.642 373.409C238.232 380.834 232.104 388.974 225.973 397.12L225.967 397.127C223.06 400.99 220.152 404.853 217.212 408.642C198.896 432.25 179.329 452.994 150.801 453.373C131.648 453.623 111.25 444.857 91.7986 433.614C82.0777 427.995 72.6046 421.764 63.6524 415.745C61.6793 414.418 59.7312 413.102 57.8112 411.804L57.81 411.803C51.023 407.216 44.5879 402.867 38.6426 399.151C32.4155 395.261 26.0483 391.124 19.5639 386.91L19.5631 386.909C-4.25023 371.435 -29.6434 354.933 -55.4796 345.907C-71.8864 340.175 -85.8723 340.379 -98.5289 344.107C-111.176 347.833 -122.477 355.072 -133.524 363.375C-137.781 366.575 -141.995 369.927 -146.234 373.3C-150.452 376.657 -154.696 380.033 -159.032 383.298Z" fill="black"/>
<path d="M-163.217 375.527C-163.116 375.723 -163.014 375.919 -162.912 376.115C-158.7 373.235 -154.568 370.243 -150.476 367.246C-149.487 366.522 -148.501 365.798 -147.516 365.075C-142.837 361.639 -138.195 358.231 -133.519 355.006C-110.887 339.399 -87.5546 328.163 -55.9199 339.28C-30.1183 348.345 -4.89161 363.682 19.2004 378.329L19.2012 378.33C25.8442 382.368 32.4008 386.354 38.8595 390.142C45.2145 393.869 52.162 398.323 59.5271 403.045C61.0511 404.022 62.593 405.01 64.1512 406.006C73.2365 411.812 82.8719 417.867 92.733 423.35C112.445 434.311 133.106 443.019 152.126 442.879C180.353 442.664 199.938 421.867 218.08 398.466C221.106 394.561 224.092 390.585 227.072 386.617C233.039 378.672 238.982 370.758 245.18 363.517C254.469 352.665 264.298 343.366 275.566 337.796C288.419 331.442 301.502 330.512 314.696 332.769C314.761 332.558 314.826 332.346 314.89 332.135C301.562 329.842 288.308 330.763 275.275 337.206C263.889 342.835 253.991 352.212 244.68 363.09C238.469 370.346 232.504 378.289 226.529 386.245C223.552 390.209 220.573 394.176 217.56 398.063C199.406 421.48 179.998 442.009 152.121 442.222C133.281 442.36 112.747 433.727 93.0524 422.775C83.21 417.302 73.589 411.257 64.5051 405.452C62.9504 404.458 61.4111 403.471 59.8892 402.496L59.8864 402.494C52.5208 397.772 45.5595 393.309 39.192 389.575C32.7544 385.799 26.2121 381.822 19.5784 377.789L19.5774 377.788C-4.52221 363.136 -29.8287 347.75 -55.702 338.659C-87.6386 327.436 -111.204 338.819 -133.892 354.464C-138.577 357.695 -143.228 361.111 -147.908 364.547C-148.892 365.269 -149.877 365.993 -150.864 366.715C-154.935 369.696 -159.038 372.668 -163.217 375.527Z" fill="black"/>
<path d="M-167.252 367.369C-167.158 367.568 -167.064 367.767 -166.969 367.966C-161.834 364.905 -156.804 361.683 -151.822 358.462C-151.058 357.968 -150.295 357.474 -149.533 356.981C-144.451 353.69 -139.409 350.425 -134.336 347.352C-111.01 333.222 -87.1166 323.204 -56.2132 333.649C-30.1683 342.462 -4.70074 356.569 19.8998 370.196C26.6056 373.91 33.2469 377.589 39.818 381.115C46.6079 384.758 54.0859 389.19 62.024 393.894C63.2095 394.596 64.4053 395.305 65.6107 396.018C74.883 401.503 84.7132 407.243 94.7386 412.445C114.779 422.843 135.647 431.115 154.45 430.873C182.036 430.526 201.114 410.091 218.747 387.101C221.73 383.213 224.67 379.252 227.604 375.299L227.605 375.299C233.36 367.546 239.091 359.826 245.066 352.75C254.083 342.072 263.622 332.905 274.566 327.368C288.562 320.289 302.945 319.795 317.504 322.915C317.56 322.703 317.615 322.49 317.671 322.278C302.994 319.129 288.444 319.612 274.269 326.781C263.209 332.377 253.601 341.624 244.564 352.326C238.576 359.417 232.823 367.167 227.059 374.93C224.128 378.879 221.194 382.83 218.226 386.701C200.58 409.707 181.678 429.873 154.442 430.215C135.812 430.455 115.067 422.251 95.0412 411.861C85.0334 406.668 75.217 400.936 65.9453 395.452C64.7476 394.743 63.559 394.039 62.3801 393.34L62.3607 393.329C54.424 388.625 46.9321 384.186 40.1287 380.536C33.5758 377.019 26.9467 373.347 20.2488 369.637C-4.3585 356.006 -29.8956 341.86 -56.0027 333.026C-87.1845 322.487 -111.295 332.626 -134.676 346.789C-139.758 349.868 -144.809 353.138 -149.891 356.429C-150.653 356.922 -151.415 357.416 -152.178 357.909C-157.143 361.119 -162.147 364.324 -167.252 367.369Z" fill="black"/>
<path d="M-171.138 358.746C-171.052 358.947 -170.965 359.149 -170.878 359.351C-164.436 356.147 -158.133 352.721 -151.882 349.323C-146.407 346.348 -140.973 343.394 -135.519 340.629C-111.364 328.384 -86.7906 319.816 -56.5404 329.247C-30.2038 337.46 -4.3772 350.146 20.7983 362.511C27.6125 365.858 34.379 369.182 41.095 372.387C48.4102 375.875 56.5031 380.192 65.0877 384.772L65.0889 384.772L65.176 384.819C65.965 385.24 66.758 385.663 67.555 386.088C77.0542 391.151 87.1064 396.462 97.3206 401.266C117.739 410.869 138.851 418.468 157.538 417.992C184.491 417.291 202.787 397.368 219.647 374.992C222.488 371.223 225.287 367.385 228.08 363.554C233.593 355.994 239.085 348.463 244.831 341.549C253.484 331.136 262.681 322.165 273.324 316.661C288.334 308.899 303.989 308.939 319.912 312.978C319.959 312.764 320.006 312.55 320.053 312.335C304.03 308.275 288.211 308.222 273.022 316.077C262.264 321.64 253 330.691 244.326 341.128C238.567 348.058 233.053 355.618 227.533 363.189L227.532 363.19C224.741 367.016 221.949 370.845 219.123 374.596C202.251 396.986 184.127 416.642 157.521 417.335C138.998 417.807 118.006 410.268 97.6002 400.671C87.4026 395.875 77.3636 390.571 67.8641 385.507C67.0368 385.066 66.2136 384.627 65.3947 384.19C56.8136 379.612 48.7074 375.288 41.3779 371.793C34.6786 368.596 27.9237 365.278 21.1172 361.935L21.114 361.933C-4.06731 349.564 -29.9547 336.849 -56.3448 328.619C-86.842 319.111 -111.61 327.772 -135.816 340.042C-141.306 342.825 -146.765 345.792 -152.254 348.775C-158.479 352.158 -164.744 355.563 -171.138 358.746Z" fill="black"/>
<path d="M-174.798 349.743C-174.719 349.948 -174.64 350.153 -174.561 350.357C-167.835 347.703 -161.222 344.854 -154.656 342.024L-154.654 342.023C-148.767 339.486 -142.915 336.964 -137.052 334.614C-111.953 324.554 -86.5854 317.607 -56.9574 325.793C-30.2526 333.161 -3.96704 344.27 21.8621 355.187L21.8658 355.189C28.7845 358.113 35.6706 361.023 42.5232 363.844C50.403 367.087 59.1369 371.174 68.3816 375.5L69.7493 376.14C79.4975 380.7 89.7857 385.489 100.203 389.8C121.027 398.417 142.411 405.143 161.074 404.294C187.476 403.097 204.757 383.78 220.623 362.171C223.211 358.646 225.761 355.061 228.308 351.481L228.309 351.479C233.58 344.067 238.836 336.678 244.384 329.89C252.606 319.829 261.437 311.133 271.839 305.713C287.794 297.396 304.676 298.06 321.91 303.031C321.949 302.814 321.988 302.597 322.027 302.379C304.711 297.397 287.668 296.72 271.535 305.13C261.018 310.61 252.12 319.385 243.875 329.474C238.313 336.278 233.035 343.7 227.755 351.123L227.753 351.126C225.21 354.701 222.668 358.276 220.093 361.782C204.22 383.4 187.105 402.455 161.044 403.637C142.535 404.479 121.266 397.804 100.454 389.192C90.0525 384.888 79.7769 380.105 70.0277 375.544L68.6541 374.901L68.653 374.901C59.4142 370.578 50.6677 366.485 42.7732 363.236C35.9326 360.42 29.0541 357.513 22.1396 354.59C-3.6945 343.671 -30.0321 332.539 -56.7825 325.159C-86.6202 316.915 -112.154 323.926 -137.297 334.004C-143.194 336.367 -149.067 338.898 -154.969 341.441C-161.52 344.264 -168.106 347.102 -174.798 349.743Z" fill="black"/>
<path d="M-178.151 340.505C-178.08 340.713 -178.009 340.92 -177.938 341.128C-171.145 339.146 -164.427 337.014 -157.741 334.893C-151.436 332.893 -145.159 330.901 -138.877 329.053C-112.748 321.368 -86.4817 316.151 -57.4275 322.952C-30.3084 329.295 -3.50548 338.7 22.9762 347.993C29.9975 350.457 36.9964 352.913 43.9725 355.302C52.5256 358.228 62.004 362.006 72.0017 365.991L72.0239 366C82.0268 369.987 92.5464 374.18 103.161 377.925C124.382 385.413 146.028 391.13 164.742 389.833C191.273 388 206.99 369.008 221.379 348.129C223.3 345.341 225.196 342.521 227.092 339.702C232.309 331.945 237.517 324.2 243.198 317.188C250.939 307.632 259.531 299.473 270.153 294.549C287.619 286.45 305.469 287.791 323.455 293.44C323.487 293.22 323.518 293 323.548 292.78C305.5 287.128 287.506 285.778 269.877 293.953C259.126 298.936 250.459 307.181 242.688 316.774C236.987 323.811 231.753 331.593 226.531 339.357C224.639 342.171 222.748 344.982 220.838 347.755C206.445 368.639 190.887 387.368 164.697 389.177C146.126 390.464 124.589 384.788 103.38 377.305C92.7795 373.564 82.272 369.377 72.2672 365.389L72.2351 365.376C62.2453 361.395 52.754 357.611 44.1853 354.68C37.2202 352.294 30.2287 349.841 23.212 347.379C-3.27391 338.084 -30.1206 328.663 -57.2779 322.312C-86.5004 315.471 -112.901 320.727 -139.062 328.422C-145.373 330.278 -151.668 332.276 -157.985 334.28C-164.668 336.4 -171.375 338.528 -178.151 340.505Z" fill="black"/>
<path d="M-181.205 330.958C-181.142 331.169 -181.079 331.38 -181.015 331.591C-174.559 330.289 -168.123 328.889 -161.697 327.491C-156.014 326.254 -150.338 325.019 -144.663 323.856C-118.586 318.509 -92.4915 314.659 -65.5417 318.979C-32.814 324.22 -0.557997 333.447 31.5226 342.623C43.4516 346.036 55.3564 349.441 67.2523 352.632C74.2294 354.5 81.7477 356.839 89.58 359.276L90.8973 359.686C99.2015 362.268 107.839 364.935 116.529 367.243C133.903 371.857 151.522 375.045 167.153 373.234C194.296 370.094 209.129 351.46 222.955 331.462C224.25 329.589 225.535 327.705 226.821 325.82L226.826 325.814C239.298 307.535 251.803 289.207 272.772 281.027C289.541 274.477 307.019 276.69 324.74 282.818C324.763 282.594 324.785 282.369 324.807 282.145C307.047 276.025 289.449 273.807 272.533 280.414C251.363 288.673 238.741 307.177 226.291 325.429C225 327.322 223.711 329.212 222.414 331.088C208.588 351.086 193.903 369.477 167.078 372.581C151.574 374.377 134.054 371.217 116.698 366.607C108.023 364.304 99.3975 361.64 91.0925 359.057L89.7716 358.647C81.9432 356.211 74.4129 353.868 67.4224 351.997C55.5501 348.812 43.6595 345.411 31.7385 342.001C-0.354721 332.82 -32.6681 323.577 -65.4378 318.33C-92.5105 313.989 -118.702 317.862 -144.794 323.211C-150.487 324.379 -156.175 325.616 -161.865 326.854C-168.303 328.254 -174.746 329.656 -181.205 330.958Z" fill="black"/>
<path d="M-183.788 321.676C-183.732 321.891 -183.677 322.105 -183.621 322.32C-177.353 321.659 -171.09 320.945 -164.832 320.231C-158.891 319.553 -152.952 318.876 -147.016 318.245C-120.151 315.391 -93.3097 313.484 -66.2723 316.769C-33.1349 320.8 -0.270832 327.754 32.5014 334.688C44.5969 337.247 56.6799 339.804 68.7596 342.21C76.3682 343.723 84.5329 345.704 92.9984 347.762L93.2342 347.819C101.624 349.858 110.305 351.968 119.016 353.763C136.596 357.387 154.331 359.739 170.094 357.64C196.238 354.163 210.256 336.496 223.301 317.599C224.498 315.865 225.687 314.121 226.876 312.377C238.667 295.077 250.489 277.732 270.712 269.744C288.165 262.851 306.692 265.682 325.56 272.612C325.574 272.384 325.587 272.155 325.601 271.926C306.713 265.015 288.07 262.181 270.47 269.133C250.049 277.198 238.112 294.717 226.342 311.992L226.34 311.994C225.148 313.744 223.958 315.491 222.76 317.225C209.718 336.118 195.843 353.552 170.008 356.988C154.357 359.071 136.712 356.739 119.148 353.119C110.449 351.326 101.777 349.218 93.3842 347.179L93.1535 347.123C84.6911 345.066 76.5125 343.081 68.8878 341.565C56.826 339.162 44.7539 336.608 32.665 334.05L32.663 334.05C-0.118328 327.114 -33.0249 320.151 -66.193 316.117C-93.3081 312.822 -120.211 314.735 -147.085 317.591C-153.033 318.223 -158.978 318.901 -164.924 319.579L-164.925 319.58C-171.211 320.296 -177.497 321.013 -183.788 321.676Z" fill="black"/>
<path d="M-185.98 312.49C-185.932 312.708 -185.884 312.927 -185.836 313.145C-179.975 313.046 -174.114 312.93 -168.254 312.813H-168.253C-161.974 312.688 -155.695 312.563 -149.418 312.46C-121.915 312.009 -94.4339 311.986 -67.0215 314.261C-33.4156 317.043 0.056753 321.705 33.4977 326.362L33.4991 326.362C45.6337 328.052 57.7641 329.742 69.8953 331.341C77.75 332.376 86.0881 333.819 94.6801 335.331C95.338 335.447 95.9974 335.563 96.6582 335.679C104.625 337.083 112.791 338.521 120.968 339.725C138.676 342.33 156.46 343.837 172.421 341.488C197.546 337.795 210.894 321.18 223.318 303.463C224.431 301.877 225.537 300.281 226.642 298.685C237.899 282.436 249.185 266.146 268.705 258.444C286.722 251.332 306.143 254.725 325.981 262.337C325.986 262.104 325.991 261.871 325.995 261.638C306.156 254.055 286.625 250.663 268.464 257.832C248.748 265.612 237.349 282.071 226.111 298.296L226.104 298.306C224.997 299.905 223.892 301.501 222.78 303.086C210.362 320.794 197.154 337.188 172.325 340.837C156.463 343.172 138.756 341.677 121.064 339.074C112.896 337.872 104.738 336.435 96.7692 335.031L94.794 334.683C86.2033 333.172 77.852 331.726 69.9811 330.688C57.8602 329.091 45.7359 327.402 33.6047 325.713C0.157896 321.055 -33.3415 316.389 -66.9673 313.606C-94.4135 311.328 -121.921 311.351 -149.429 311.802C-155.708 311.905 -161.986 312.03 -168.264 312.155L-168.275 312.155C-174.177 312.273 -180.079 312.391 -185.98 312.49Z" fill="black"/>
<path d="M-187.811 303.363C-187.77 303.586 -187.729 303.808 -187.688 304.03C-179.892 304.519 -172.096 305.017 -164.301 305.515C-132.148 307.568 -99.9958 309.621 -67.8082 311.084C-33.5125 312.645 0.74084 315.038 34.9958 317.43C46.8271 318.257 58.6586 319.083 70.492 319.875C79.8401 320.504 89.6961 321.603 99.7795 322.727C107.143 323.548 114.628 324.383 122.125 325.058C139.863 326.654 157.623 327.35 173.817 324.816C197.951 321.049 210.843 305.557 222.867 289.085C223.921 287.641 224.969 286.189 226.017 284.737C236.935 269.609 247.875 254.449 266.734 247.144C285.265 239.957 305.408 243.827 326 251.977C325.996 251.739 325.991 251.502 325.986 251.264C305.409 243.153 285.168 239.289 266.497 246.531C247.447 253.909 236.393 269.23 225.494 284.337C224.442 285.795 223.392 287.251 222.336 288.697C210.321 305.156 197.567 320.443 173.715 324.166C157.603 326.687 139.909 325.998 122.184 324.403C114.722 323.731 107.246 322.898 99.8832 322.077L99.8812 322.077C89.7785 320.95 79.888 319.848 70.5361 319.219C58.7068 318.427 46.878 317.601 35.0483 316.775C0.790997 314.382 -33.4739 311.989 -67.7783 310.427C-99.9648 308.964 -132.1 306.912 -164.242 304.86L-164.245 304.859L-164.25 304.859C-172.103 304.358 -179.956 303.856 -187.811 303.363Z" fill="black"/>
<path d="M-189.306 294.207C-189.274 294.433 -189.241 294.658 -189.207 294.884C-182.919 295.709 -176.635 296.562 -170.352 297.414L-170.346 297.415C-164.875 298.157 -159.405 298.899 -153.932 299.623C-125.661 303.364 -97.337 306.623 -68.6325 306.921C-37.7448 307.231 -6.85631 307.359 24.0311 307.487H24.0334L24.0584 307.487C39.4939 307.551 54.929 307.615 70.3636 307.702C80.797 307.76 91.6763 308.299 102.723 308.845L102.724 308.845C109.198 309.166 115.729 309.489 122.261 309.72C139.926 310.345 157.577 310.295 174.022 307.679C197.228 303.978 209.938 289.68 221.845 274.52C222.87 273.215 223.89 271.903 224.909 270.591C235.742 256.652 246.588 242.694 264.872 235.901C283.916 228.828 304.551 233.055 325.608 241.559C325.594 241.317 325.58 241.075 325.565 240.832C304.537 232.377 283.817 228.164 264.643 235.285C246.175 242.146 235.216 256.253 224.4 270.174L224.387 270.191C223.368 271.502 222.35 272.812 221.328 274.114C209.433 289.259 196.859 303.371 173.919 307.029C157.538 309.636 139.939 309.688 122.284 309.063C115.773 308.833 109.251 308.51 102.781 308.19L102.779 308.19C91.7202 307.642 80.8121 307.103 70.3673 307.044C54.9237 306.957 39.4806 306.893 24.0378 306.829H24.0309C-6.85519 306.701 -37.7402 306.573 -68.626 306.263C-97.288 305.966 -125.578 302.711 -153.846 298.971C-159.316 298.247 -164.785 297.505 -170.255 296.763C-176.602 295.902 -182.951 295.041 -189.306 294.207Z" fill="black"/>
<path d="M-190.485 284.89C-190.461 285.118 -190.436 285.346 -190.411 285.573C-184.162 286.736 -177.923 287.945 -171.686 289.153L-171.685 289.153C-166.378 290.182 -161.071 291.21 -155.761 292.209C-127.344 297.558 -98.8278 302.089 -69.4767 301.457C-51.8898 301.074 -33.9194 300.898 -15.7476 300.72L-15.7454 300.72C47.1951 300.104 112.552 299.464 172.758 290.115C195.099 286.639 207.956 273.594 220.101 259.805C221.11 258.659 222.115 257.508 223.119 256.356L223.129 256.345C234.217 243.637 245.309 230.926 263.192 224.789C282.777 218.063 303.627 222.501 324.8 231.141C324.776 230.894 324.751 230.647 324.727 230.4C303.595 221.818 282.676 217.402 262.979 224.167C244.921 230.363 233.717 243.207 222.644 255.9C221.633 257.06 220.622 258.218 219.607 259.37C207.476 273.144 194.753 286.027 172.657 289.465C112.503 298.806 47.2118 299.445 -15.7209 300.062C-33.9013 300.24 -51.8849 300.416 -69.4909 300.799C-98.7695 301.43 -127.229 296.91 -155.64 291.563C-160.938 290.565 -166.235 289.539 -171.535 288.512L-171.548 288.51C-177.853 287.288 -184.163 286.066 -190.485 284.89Z" fill="black"/>
<path d="M-191.34 275.363C-191.323 275.592 -191.307 275.821 -191.29 276.05C-185.044 277.492 -178.811 279.001 -172.58 280.51C-168.543 281.488 -164.506 282.465 -160.467 283.424C-133.124 289.916 -105.663 295.566 -77.1461 294.691C4.25626 292.2 90.281 283.259 170.949 272.385C192.765 269.442 206.524 256.808 219.821 243.811C220.474 243.173 221.126 242.534 221.777 241.895C234.41 229.51 246.952 217.214 265.984 212.792C285.086 208.348 304.309 212.706 323.55 220.587C323.515 220.335 323.479 220.084 323.444 219.832C304.252 212.015 284.998 207.693 265.835 212.151C246.618 216.616 233.954 229.034 221.347 241.396C220.685 242.045 220.024 242.693 219.362 243.34C206.066 256.337 192.442 268.822 170.861 271.733C90.2051 282.605 4.20493 291.544 -77.1663 294.034C-105.589 294.906 -132.977 289.275 -160.316 282.784C-164.349 281.826 -168.382 280.85 -172.417 279.873C-178.715 278.348 -185.019 276.821 -191.34 275.363Z" fill="black"/>
<path d="M-191.868 265.113C-191.861 265.341 -191.853 265.569 -191.845 265.797C-185.038 267.494 -178.255 269.296 -171.474 271.098C-168.022 272.014 -164.571 272.931 -161.118 273.834C-133.912 280.946 -106.574 287.185 -77.7896 285.714C-37.2456 283.65 3.44313 277.988 44.071 271.701C52.8538 270.342 61.6336 268.954 70.4085 267.566L70.4103 267.566C102.231 262.534 133.986 257.513 165.592 253.93C187.048 251.493 201.928 240.368 216.428 228.972C217.055 228.479 217.682 227.986 218.308 227.492C232.172 216.572 245.926 205.74 265.059 202.182C284.452 198.58 303.292 202.86 321.921 210.387C321.875 210.132 321.829 209.877 321.782 209.622C303.21 202.164 284.36 197.928 264.939 201.536C245.642 205.124 231.772 216.049 217.932 226.951C217.296 227.453 216.659 227.954 216.022 228.455C201.522 239.851 186.771 250.862 165.518 253.276C133.896 256.861 102.122 261.885 70.2991 266.917C61.5258 268.305 52.7488 269.693 43.9705 271.051C3.34622 277.338 -37.3146 282.995 -77.8231 285.057C-106.498 286.522 -133.749 280.309 -160.951 273.198C-164.401 272.296 -167.849 271.38 -171.299 270.463L-171.3 270.463C-178.141 268.646 -184.99 266.826 -191.868 265.113Z" fill="black"/>
<path d="M-191.996 254.819C-191.998 255.044 -191.999 255.268 -192 255.493C-185.77 256.954 -179.55 258.485 -173.331 260.015C-168.905 261.105 -164.479 262.194 -160.05 263.258C-132.539 269.866 -104.907 275.494 -76.3592 274.042C-21.5099 271.264 34.1831 263.145 89.3585 255.101C113.584 251.569 137.71 248.052 161.621 245.008C183.04 242.282 199.008 231.188 214.661 219.918C215.196 219.533 215.73 219.147 216.264 218.762C231.383 207.863 246.365 197.063 265.911 193.577C284.214 190.313 302.162 193.921 319.953 200.565C319.897 200.31 319.84 200.054 319.783 199.799C302.054 193.225 284.112 189.663 265.796 192.93C246.099 196.442 231.007 207.323 215.916 218.203C215.37 218.596 214.823 218.99 214.277 219.384C198.618 230.659 182.773 241.653 161.538 244.355C137.601 247.403 113.461 250.922 89.2278 254.455L89.2266 254.455C34.0663 262.497 -21.5753 270.609 -76.3926 273.385C-104.839 274.832 -132.391 269.225 -159.897 262.618C-164.317 261.556 -168.737 260.468 -173.159 259.38L-173.162 259.379C-179.432 257.836 -185.708 256.292 -191.996 254.819Z" fill="black"/>
<path d="M-191.662 243.277C-191.674 243.498 -191.685 243.719 -191.695 243.94C-185.401 245.158 -179.112 246.43 -172.824 247.701C-166.603 248.958 -160.382 250.215 -154.156 251.422C-125.199 257.031 -96.1378 261.526 -66.4914 259.712C6.97346 255.213 82.6656 246.867 155.568 236.867C176.87 233.947 193.778 223.878 210.361 213.478C211.316 212.879 212.269 212.28 213.221 211.68C228.842 201.855 244.379 192.082 263.304 187.962C281.791 183.944 300.007 186.768 318.091 192.71C318.027 192.458 317.963 192.206 317.898 191.955C299.874 186.079 281.663 183.298 263.164 187.319C244.122 191.465 228.494 201.296 212.893 211.11C211.933 211.714 210.973 212.318 210.012 212.92C193.427 223.322 176.626 233.317 155.479 236.215C82.5873 246.214 6.91231 254.558 -66.5315 259.055C-96.0906 260.865 -125.083 256.383 -154.031 250.776C-160.244 249.572 -166.456 248.317 -172.671 247.06L-172.674 247.06C-178.998 245.781 -185.327 244.502 -191.662 243.277Z" fill="black"/>
<path d="M-190.762 231.15C-190.783 231.368 -190.804 231.587 -190.825 231.805C-184.314 232.738 -177.803 233.711 -171.291 234.683L-171.287 234.684C-164.297 235.728 -157.305 236.772 -150.308 237.768C-120.929 241.95 -91.4882 245.281 -61.8546 244.155C7.84726 241.516 80.4038 238.133 149.619 229.526C171.6 226.794 190.171 217.197 208.483 207.29C209.489 206.745 210.495 206.2 211.499 205.655C228.802 196.27 246.026 186.929 265.898 183.075C283.039 179.757 299.793 181.71 316.367 186.268C316.297 186.021 316.228 185.775 316.157 185.528C299.641 181.028 282.906 179.112 265.773 182.429C245.798 186.303 228.492 195.69 211.209 205.064L211.203 205.067C210.193 205.616 209.182 206.164 208.171 206.711C189.854 216.621 171.382 226.158 149.538 228.873C80.3535 237.476 7.82198 240.859 -61.8796 243.498C-91.4516 244.621 -120.845 241.298 -150.216 237.117C-157.203 236.122 -164.19 235.078 -171.178 234.035L-171.18 234.035C-177.706 233.06 -184.233 232.085 -190.762 231.15Z" fill="black"/>
<path d="M-189.157 218.13C-189.189 218.347 -189.221 218.565 -189.253 218.783C-182.421 219.205 -175.585 219.633 -168.746 220.061L-168.742 220.061C-64.9694 226.554 39.5264 233.093 143.147 222.575C166.113 220.246 186.519 211.334 206.72 202.086C207.914 201.54 209.107 200.992 210.3 200.444C229.305 191.72 248.25 183.023 269.159 179.49C284.759 176.853 299.934 178.038 314.903 181.265C314.831 181.025 314.757 180.785 314.684 180.545C299.77 177.364 284.625 176.209 269.05 178.841C248.051 182.389 229.033 191.121 210.046 199.837L209.999 199.859C208.815 200.402 207.631 200.946 206.446 201.488C186.241 210.738 165.926 219.604 143.081 221.921C39.5189 232.432 -64.9117 225.898 -168.683 219.406L-168.691 219.405C-175.516 218.978 -182.338 218.551 -189.157 218.13Z" fill="black"/>
<path d="M-187.065 206.065C-187.108 206.284 -187.151 206.503 -187.194 206.721C-176.292 206.87 -165.39 206.989 -154.489 207.108H-154.487C-119.45 207.491 -84.4194 207.874 -49.3958 209.232C-29.9937 209.984 -10.2756 211.351 9.5557 212.727C51.9414 215.668 94.8446 218.644 136.282 215.718C160.4 214.014 182.825 206.354 205.072 198.092C207.599 197.154 210.123 196.208 212.647 195.262C232.36 187.874 252.069 180.487 272.878 176.794C286.588 174.365 300.093 174.751 313.491 176.762C313.416 176.529 313.34 176.296 313.264 176.063C299.917 174.086 286.445 173.722 272.763 176.146C251.891 179.851 232.123 187.26 212.416 194.646C209.892 195.592 207.368 196.538 204.843 197.476C182.598 205.737 160.251 213.365 136.236 215.062C94.8442 217.984 52.0217 215.013 9.66101 212.075L9.65901 212.074C-10.1837 210.698 -29.9249 209.328 -49.3704 208.575C-84.3954 207.216 -119.45 206.833 -154.501 206.45L-154.506 206.45C-165.36 206.331 -176.213 206.213 -187.065 206.065Z" fill="black"/>
<path d="M-184.257 193.526C-184.313 193.748 -184.368 193.971 -184.424 194.194C-174.872 193.639 -165.315 192.988 -155.756 192.337L-155.752 192.337C-148.53 191.846 -141.308 191.354 -134.089 190.903C-103.379 188.987 -72.7009 187.813 -42.2046 190.533C-21.5425 192.38 -0.591863 195.567 20.4603 198.769C28.1005 199.932 35.7539 201.096 43.4119 202.199C72.1617 206.339 100.962 209.614 129.285 208.656C154.652 207.799 179.153 201.264 203.507 193.968C207.342 192.82 211.172 191.652 215.002 190.485C235.509 184.236 255.992 177.993 276.921 174.676C288.9 172.779 300.735 172.695 312.491 173.735C312.414 173.508 312.337 173.281 312.26 173.055C300.555 172.037 288.76 172.135 276.818 174.027C255.84 177.351 235.306 183.609 214.8 189.859C210.973 191.026 207.147 192.192 203.319 193.338C178.969 200.633 154.538 207.145 129.263 207.999C101 208.955 72.2476 205.687 43.5056 201.548C35.8594 200.446 28.2132 199.283 20.5771 198.122L20.5762 198.122C-0.482133 194.918 -21.4624 191.727 -42.146 189.878C-72.6944 187.153 -103.414 188.33 -134.13 190.247C-141.359 190.698 -148.588 191.19 -155.814 191.682C-165.301 192.328 -174.783 192.973 -184.257 193.526Z" fill="black"/>
<path d="M-180.809 181.084C-180.879 181.314 -180.949 181.544 -181.018 181.774C-171.186 180.496 -161.316 179.033 -151.434 177.567C-143.614 176.407 -135.786 175.246 -127.962 174.175C-96.5999 169.883 -65.2938 167.035 -34.7546 171.48C-14.2034 174.477 6.4002 179.676 27.0782 184.894L27.0797 184.894C32.5397 186.272 38.0049 187.651 43.4758 188.991C69.6544 195.404 95.9496 200.924 122.342 201.11C148.968 201.296 175.548 195.953 202.017 189.694C207.474 188.403 212.926 187.073 218.373 185.745C239.357 180.629 260.263 175.531 281.093 172.744C291.354 171.368 301.538 171.022 311.677 171.36C311.599 171.138 311.522 170.916 311.444 170.695C301.358 170.37 291.222 170.722 281.006 172.092C260.138 174.884 239.188 179.993 218.201 185.11L218.199 185.111C212.757 186.438 207.312 187.765 201.865 189.053C175.403 195.312 148.889 200.638 122.347 200.452C96.036 200.266 69.8041 194.764 43.6321 188.352C38.1736 187.015 32.7172 185.638 27.2633 184.262L27.2574 184.261C6.5749 179.042 -14.0715 173.832 -34.6598 170.829C-65.2953 166.371 -96.6781 169.229 -128.051 173.524C-135.892 174.597 -143.731 175.759 -151.558 176.92C-161.334 178.37 -171.091 179.817 -180.809 181.084Z" fill="black"/>
<path d="M-176.727 168.79C-176.814 169.031 -176.9 169.271 -176.986 169.512C-167.063 167.558 -157.04 165.335 -146.976 163.103L-146.974 163.103C-137.723 161.051 -128.436 158.991 -119.159 157.126C-86.0388 150.467 -53.0268 146.28 -22.0582 153.687C-4.7094 157.836 12.7882 164.632 30.4325 171.485C35.5657 173.479 40.7116 175.477 45.8696 177.417C68.7395 186.017 91.838 193.45 115.072 194.084C141.831 194.819 169.567 190.739 197.242 185.678C204.816 184.293 212.385 182.834 219.929 181.381L219.934 181.38C239.961 177.521 259.808 173.697 279.101 171.369C289.78 170.081 300.404 169.517 310.997 169.433C310.918 169.214 310.84 168.996 310.761 168.777C300.224 168.868 289.652 169.434 279.023 170.716C259.706 173.047 239.825 176.877 219.791 180.738L219.789 180.738L219.787 180.738C212.247 182.191 204.685 183.648 197.124 185.031C169.457 190.09 141.777 194.16 115.09 193.427C91.9737 192.796 68.9635 185.398 46.1009 176.801C40.9594 174.868 35.8246 172.873 30.698 170.882C13.0462 164.026 -4.5088 157.208 -21.9054 153.048C-53.0218 145.605 -86.1541 149.819 -119.289 156.481C-128.596 158.352 -137.901 160.416 -147.163 162.471L-147.164 162.471C-157.085 164.671 -166.957 166.86 -176.727 168.79Z" fill="black"/>
<path d="M-172.042 156.744C-172.148 156.997 -172.253 157.249 -172.357 157.502C-162.158 154.93 -151.834 152.009 -141.457 149.074L-141.456 149.074C-132.2 146.455 -122.901 143.824 -113.613 141.419C-79.9735 132.708 -46.4444 126.945 -15.3232 135.266C2.54769 140.045 19.499 149.125 36.5212 158.244C39.5834 159.885 42.648 161.526 45.7206 163.145C65.8528 173.746 86.319 183.327 108.65 184.772C136.559 186.586 166.151 183.771 195.735 179.891C205.261 178.641 214.784 177.282 224.251 175.93L224.252 175.93C244.197 173.082 263.89 170.271 282.825 168.601C291.903 167.802 300.981 167.241 310.058 166.85C309.978 166.634 309.898 166.418 309.818 166.203C300.8 166.594 291.783 167.152 282.767 167.946C263.815 169.617 244.091 172.433 224.136 175.282C214.673 176.633 205.159 177.991 195.649 179.239C166.074 183.118 136.535 185.926 108.693 184.116C86.5135 182.68 66.1562 173.163 46.0269 162.562C42.9633 160.949 39.9047 159.311 36.8458 157.672C19.8264 148.554 2.79754 139.431 -15.1534 134.631C-46.4517 126.262 -80.1256 132.068 -113.778 140.782C-123.101 143.197 -132.421 145.833 -141.69 148.455C-151.89 151.341 -162.029 154.209 -172.042 156.744Z" fill="black"/>
<path d="M-166.427 144.258C-166.557 144.528 -166.687 144.798 -166.816 145.069C-164.534 144.359 -162.242 143.628 -159.941 142.882C-152.51 140.471 -144.994 137.898 -137.429 135.308L-137.427 135.308C-127.839 132.025 -118.171 128.715 -108.493 125.674C-73.8825 114.8 -39.4293 107.464 -9.19218 117.437C7.68724 123.005 22.7609 133.36 37.8836 143.748C40.4287 145.496 42.9752 147.245 45.5319 148.973C63.2588 160.951 81.4643 171.873 103.01 174.01C131.984 176.875 163.2 175.409 194.463 172.823C206.119 171.859 217.779 170.739 229.332 169.63L229.333 169.63L229.335 169.63C248.782 167.762 267.928 165.924 286.251 164.904C293.775 164.483 301.295 164.026 308.811 163.544C308.729 163.33 308.646 163.115 308.563 162.901C301.114 163.378 293.665 163.831 286.215 164.247C267.881 165.268 248.707 167.109 229.248 168.977L229.244 168.977C217.695 170.086 206.044 171.205 194.409 172.168C163.155 174.753 131.988 176.215 103.075 173.355C81.708 171.236 63.6229 160.403 45.8998 148.428C43.3518 146.706 40.811 144.961 38.269 143.214C23.1512 132.828 7.98986 122.413 -8.98631 116.812C-39.4409 106.768 -74.0765 114.171 -108.69 125.047C-118.363 128.086 -128.057 131.405 -137.661 134.693L-137.664 134.694C-145.231 137.284 -152.743 139.855 -160.144 142.256C-162.247 142.938 -164.342 143.607 -166.427 144.258Z" fill="black"/>
<path d="M-159.782 131.404C-159.943 131.695 -160.104 131.987 -160.264 132.279C-159.106 131.859 -157.946 131.434 -156.782 131.004C-149.207 128.203 -141.507 125.202 -133.734 122.174C-123.968 118.368 -114.087 114.518 -104.196 110.964C-68.6849 98.2048 -33.3611 89.3957 -3.92988 100.556C12.2242 106.682 25.5752 117.82 38.9472 128.975L38.9491 128.977C41.1013 130.772 43.2541 132.568 45.4192 134.343C61.0163 147.134 77.2371 158.848 98.4137 161.482C141.566 166.851 189.793 164.44 236.087 162.126C254.24 161.218 272.096 160.326 289.231 159.923C295.202 159.783 301.142 159.503 307.058 159.114C306.971 158.9 306.884 158.686 306.796 158.472C300.961 158.853 295.104 159.127 289.216 159.265C272.041 159.669 254.161 160.563 235.994 161.471L235.993 161.471C189.721 163.785 141.586 166.191 98.4948 160.829C77.5197 158.221 61.4255 146.619 45.836 133.835C43.6784 132.065 41.5303 130.273 39.38 128.479C26.0144 117.328 12.5689 106.11 -3.69683 99.9407C-33.3783 88.6858 -68.9173 97.5894 -104.418 110.345C-114.302 113.896 -124.209 117.756 -133.991 121.568L-133.993 121.569L-133.996 121.57C-141.771 124.599 -149.467 127.598 -157.01 130.387C-157.936 130.729 -158.86 131.068 -159.782 131.404Z" fill="black"/>
<path d="M-154.43 122.179C-154.604 122.465 -154.777 122.752 -154.95 123.039C-137.808 117.518 -121.113 110.916 -103.91 104.113C-99.8943 102.525 -95.851 100.927 -91.7681 99.328C-89.4818 98.432 -87.1623 97.5076 -84.814 96.5718C-72.607 91.707 -59.6199 86.5314 -46.4556 83.4041C-30.7652 79.6766 -14.8651 78.8708 0.206314 84.9596C15.9706 91.3309 27.9395 102.681 39.8929 114.017C41.7464 115.775 43.5995 117.532 45.4664 119.271C59.3551 132.204 73.9843 144.061 95.1032 146.928C143.31 153.492 196.556 153.378 247.461 153.268H247.463C262.459 153.236 277.253 153.204 291.654 153.344C295.987 153.385 300.277 153.304 304.532 153.117C304.438 152.902 304.344 152.687 304.249 152.471C300.089 152.649 295.895 152.727 291.661 152.686C277.24 152.546 262.433 152.578 247.428 152.61C196.531 152.719 143.349 152.834 95.1919 146.277C74.2892 143.438 59.7893 131.709 45.9143 118.789C44.0551 117.058 42.2068 115.305 40.3555 113.549C28.409 102.217 16.3415 90.7714 0.452578 84.3497C-14.7939 78.1902 -30.8468 79.02 -46.6075 82.7641C-59.8231 85.9037 -72.8629 91.1006 -85.0694 95.9654L-85.0706 95.9659C-87.4153 96.9003 -89.7292 97.8225 -92.0076 98.7155C-96.0922 100.315 -100.136 101.914 -104.151 103.501C-121.117 110.21 -137.569 116.715 -154.43 122.179Z" fill="black"/>
<path d="M-146.113 109.368C-146.327 109.677 -146.54 109.986 -146.752 110.296C-132.074 105.048 -117.68 98.9897 -102.858 92.7513L-102.854 92.7495C-98.518 90.9245 -94.1454 89.0841 -89.7183 87.244C-87.7766 86.4378 -85.7963 85.6053 -83.7818 84.7584C-71.5507 79.6166 -58.0641 73.9471 -44.3296 70.4128C-28.3361 66.2972 -12.053 65.0905 2.92169 70.9651C18.6604 77.1379 29.7592 88.0395 40.8028 98.8871L40.8036 98.8878C42.4417 100.497 44.0786 102.105 45.7293 103.696C58.496 116.001 72.0619 127.268 93.3031 130.033C158.19 138.455 227.738 141.894 293.296 144.812C295.825 144.924 298.332 144.98 300.817 144.987C300.711 144.768 300.606 144.548 300.5 144.329C298.128 144.318 295.737 144.261 293.325 144.155C227.765 141.237 158.244 137.799 93.3878 129.381C72.3659 126.645 58.9298 115.506 46.1854 103.222C44.5422 101.638 42.9102 100.035 41.2745 98.4279L41.272 98.4254C30.2348 87.5819 19.0345 76.5782 3.16164 70.3527C-11.996 64.4064 -28.4366 65.6439 -44.4934 69.7758C-58.2784 73.3231 -71.8147 79.0139 -84.0432 84.1548C-86.0559 85.001 -88.0333 85.8322 -89.9705 86.6366C-94.4014 88.4782 -98.7761 90.3194 -103.113 92.1446L-103.115 92.1454C-117.65 98.2629 -131.757 104.2 -146.113 109.368Z" fill="black"/>
<path d="M-135.751 95.4115C-136.021 95.75 -136.289 96.0891 -136.557 96.4289C-125.485 92.1538 -114.484 87.4854 -103.232 82.7103C-98.7306 80.8003 -94.1895 78.8732 -89.5875 76.9474C-87.8805 76.2331 -86.1408 75.4984 -84.3718 74.7513C-71.9995 69.5261 -58.1957 63.6964 -44.1147 60.0116C-28.0216 55.8003 -11.6107 54.4036 3.39332 59.8908C19.2108 65.6734 30.235 75.9447 41.1906 86.1521C42.7535 87.6082 44.315 89.0631 45.8888 90.5034C58.4854 102.032 71.8457 112.596 92.9523 115.202C158.794 123.325 226.942 130.37 293.252 134.775C294.081 134.831 294.907 134.879 295.731 134.922C295.61 134.696 295.49 134.47 295.368 134.244C294.679 134.207 293.988 134.165 293.295 134.119C227.001 129.715 158.866 122.671 93.0328 114.549C72.1363 111.97 58.9034 101.523 46.3325 90.0181C44.766 88.5844 43.2094 87.1339 41.6492 85.6799L41.6454 85.6763C30.6959 75.4725 19.5702 65.1045 3.61894 59.273C-11.565 53.72 -28.1287 55.1485 -44.281 59.3752C-58.412 63.0731 -72.2626 68.9229 -84.6314 74.1469C-86.3995 74.8936 -88.1372 75.6276 -89.8412 76.3406C-94.4472 78.2681 -98.9905 80.196 -103.492 82.1061C-114.392 86.7316 -125.047 91.2528 -135.751 95.4115Z" fill="black"/>
<path d="M-122.582 80.1151C-122.928 80.4867 -123.273 80.8594 -123.617 81.2331C-117.055 78.6365 -110.472 75.9524 -103.809 73.2354C-99.6325 71.5326 -95.4247 69.8169 -91.1706 68.1018C-89.2412 67.3244 -87.2755 66.5232 -85.2778 65.709C-72.982 60.6973 -59.4731 55.1911 -45.7171 51.7016C-29.7286 47.6457 -13.4497 46.3266 1.59431 51.6579C17.3698 57.2389 28.8003 67.1244 40.1805 76.9666L40.182 76.9679C41.7492 78.3233 43.3155 79.6779 44.8921 81.0203C57.9069 92.1022 71.5986 102.327 92.2241 105.109C157.045 113.845 223.854 121.28 289.141 126.634C289.832 126.691 290.52 126.742 291.207 126.79C291.074 126.56 290.941 126.331 290.807 126.102C290.271 126.064 289.733 126.023 289.195 125.978C223.921 120.626 157.123 113.192 92.3119 104.457C71.8817 101.701 58.3114 91.5829 45.3181 80.5194C43.7461 79.1808 42.1821 77.828 40.6152 76.4726C29.2417 66.6345 17.7141 56.6632 1.81366 51.0378C-13.4045 45.6449 -29.8307 46.993 -45.8787 51.064C-59.6826 54.5657 -73.2386 60.0913 -85.5318 65.1022C-87.528 65.9159 -89.491 66.716 -91.4163 67.4917C-95.6727 69.2077 -99.8813 70.9237 -104.057 72.6262C-110.289 75.1672 -116.448 77.6783 -122.582 80.1151Z" fill="black"/>
<path d="M-95.4974 54.8739C-96.0293 55.3033 -96.5595 55.7347 -97.0879 56.1681C-63.5474 43.6062 -30.3121 35.1694 -1.55707 44.6719C14.2986 49.9077 26.3463 59.192 38.3676 68.4561C39.91 69.6447 41.4523 70.8333 43.0019 72.0127C56.618 82.3762 70.7974 92.0299 90.9014 94.9792C154.102 104.235 218.31 113.139 281.85 120.054C283.736 120.258 285.61 120.425 287.472 120.554C287.33 120.324 287.187 120.094 287.044 119.864C285.346 119.741 283.638 119.586 281.921 119.4C218.393 112.486 154.195 103.584 90.9966 94.3285C71.0667 91.4046 56.9994 81.8401 43.3999 71.4892C41.8537 70.3124 40.3133 69.1251 38.7707 67.9362C26.7569 58.6765 14.6181 49.3206 -1.35104 44.0473C-29.813 34.6417 -62.5595 42.6832 -95.4974 54.8739Z" fill="black"/>
<path d="M-76.5529 40.9493C-77.1228 41.3297 -77.6911 41.7123 -78.2578 42.0971C-52.9899 35.1018 -28.3347 32.0755 -5.8578 38.7828C10.2086 43.5718 23.0972 52.0844 35.989 60.5992C37.4365 61.5553 38.8845 62.5116 40.3366 63.4625C54.7112 72.8751 69.5158 81.7612 89.0581 84.8861C111.621 88.4881 134.185 92.2685 156.757 96.0504L156.758 96.0506C195.207 102.493 233.681 108.939 272.216 114.513C276.307 115.106 280.366 115.493 284.395 115.697C284.247 115.469 284.099 115.242 283.95 115.015C280.098 114.806 276.219 114.429 272.31 113.862C233.78 108.289 195.321 101.845 156.879 95.4039L156.87 95.4024C134.299 91.6207 111.733 87.8399 89.1617 84.2366C69.7662 81.1352 55.0608 72.318 40.6966 62.9121C39.2503 61.9651 37.8074 61.012 36.3633 60.0581L36.3485 60.0483C23.4654 51.5384 10.4952 42.9709 -5.67007 38.1525C-27.7481 31.5642 -51.8776 34.3053 -76.5529 40.9493Z" fill="black"/>
<path d="M-61.3525 31.5441C-61.8796 31.8456 -62.4055 32.1489 -62.9303 32.454C-45.0713 29.6086 -27.6121 29.3615 -10.9924 33.6747C5.67073 38.0036 20.0248 45.6718 34.4469 53.3764L34.4478 53.3768C35.3737 53.8715 36.3 54.3664 37.2272 54.8605C52.5857 63.0453 68.1868 71.0267 86.8348 74.7544C102.914 77.9728 118.994 81.2255 135.077 84.479L135.081 84.48C177.044 92.9685 219.03 101.462 261.093 109.363C267.896 110.64 274.701 111.26 281.505 111.343C281.355 111.121 281.204 110.9 281.053 110.679C274.438 110.574 267.824 109.958 261.214 108.716C219.156 100.816 177.176 92.3242 135.215 83.8359L135.209 83.8347L135.178 83.8284C119.105 80.577 103.035 77.3261 86.9638 74.1094C68.4202 70.4026 52.8951 62.465 37.5362 54.2799C36.6046 53.7835 35.6736 53.2861 34.7425 52.7886C20.3333 45.0905 5.91455 37.3874 -10.8272 33.0381C-27.0297 28.8331 -44.0102 28.9375 -61.3525 31.5441Z" fill="black"/>
<path d="M-50.8515 25.8555C-51.3213 26.0961 -51.7903 26.3382 -52.2585 26.5816C-40.2273 25.9502 -28.3572 26.6262 -16.7386 29.1615C0.603637 32.9437 16.4512 39.7422 32.3874 46.5788L33.4648 47.041C49.7564 54.0281 66.1755 60.9837 84.3632 64.6807C119.433 71.8064 154.225 80.5424 189.003 89.2748L189.009 89.2761C209.106 94.3224 229.199 99.3675 249.338 104.1C258.767 106.319 268.449 107.066 278.292 106.715C278.14 106.5 277.987 106.286 277.834 106.072C268.192 106.385 258.716 105.631 249.488 103.46C229.369 98.7319 209.284 93.6888 189.189 88.6432L189.188 88.6428C154.397 79.9074 119.576 71.1642 84.494 64.0361C66.3818 60.3544 50.0214 53.4261 33.7239 46.4364L32.6247 45.965C16.7041 39.135 0.805977 32.3146 -16.5986 28.5189C-27.8165 26.071 -39.2623 25.3479 -50.8515 25.8555Z" fill="black"/>
<path d="M-43.5575 22.2636C-43.9918 22.469 -44.4255 22.6757 -44.8586 22.8835C-39.0601 23.0313 -33.2751 23.4724 -27.5064 24.2594C-8.95755 26.7913 8.86102 32.8576 26.725 39.1776C27.9119 39.5975 29.0991 40.0185 30.2867 40.4397C46.9629 46.3544 63.7229 52.2986 81.1541 55.5745C108.59 60.7281 135.397 69.0023 162.207 77.3552L164.144 77.959C190.302 86.1107 216.476 94.2675 243.218 99.5859C253.125 101.555 263.488 101.892 274.141 101.036C273.985 100.828 273.829 100.621 273.672 100.414C263.218 101.224 253.058 100.872 243.346 98.9408C216.638 93.6292 190.493 85.4814 164.325 77.3265L162.402 76.7273C135.597 68.3758 108.754 60.0898 81.2754 54.9281C63.8964 51.662 47.1822 45.7341 30.4955 39.8159C29.3117 39.3961 28.128 38.9763 26.9442 38.5575C9.08417 32.2389 -8.79339 26.1498 -27.4175 23.6077C-32.7852 22.8754 -38.166 22.4414 -43.5575 22.2636Z" fill="black"/>
<path d="M-37.0734 19.3057C-37.4922 19.4898 -37.9105 19.6749 -38.3281 19.8612C-36.8043 19.9832 -35.2805 20.1236 -33.7569 20.2832C-15.1141 22.2412 3.61838 26.8167 22.331 31.7927C25.7788 32.7096 29.2262 33.6401 32.6721 34.5702L32.7061 34.5794L32.7082 34.5799C47.9451 38.6928 63.1547 42.7983 78.2549 45.6865C104.506 50.7089 130.019 59.3668 155.503 68.2724C157.304 68.9016 159.105 69.5321 160.905 70.1626C184.582 78.4532 208.277 86.7504 232.527 92.3167C244.4 95.0466 256.121 94.7696 267.714 92.8359C267.554 92.64 267.394 92.4442 267.234 92.2487C255.824 94.1161 244.316 94.3524 232.674 91.6757C208.462 86.118 184.801 77.8329 161.117 69.54L161.088 69.5298C159.299 68.9033 157.51 68.2768 155.72 67.6514C130.238 58.7468 104.683 50.0731 78.3784 45.0404C63.3051 42.1575 48.1253 38.06 32.8901 33.9477L32.8881 33.9472L32.8655 33.9411C29.413 33.0092 25.9576 32.0765 22.4999 31.1571C3.78415 26.1802 -14.9907 21.5928 -33.6882 19.6291C-34.8165 19.5109 -35.945 19.4032 -37.0734 19.3057Z" fill="black"/>
<path d="M-30.0931 16.3591C-30.5255 16.5342 -30.9574 16.7104 -31.3886 16.8878C-5.63548 19.4758 21.0915 24.875 47.0548 30.12C56.6537 32.059 66.1485 33.9771 75.4507 35.7241C99.5023 40.2421 122.901 49.5368 146.322 58.8407L147.571 59.3367C148.218 59.5938 148.866 59.851 149.513 60.108C173.989 69.8199 198.522 79.3044 223.821 83.0652C235.368 84.7818 247.411 84.7861 259.763 83.552C259.581 83.3494 259.399 83.1471 259.217 82.9451C247.08 84.1268 235.255 84.1001 223.917 82.4146C198.705 78.6666 174.24 69.2118 149.756 59.4965C148.685 59.0717 147.614 58.6464 146.543 58.221C123.139 48.9238 99.6875 39.6077 75.572 35.0777C66.2909 33.3346 56.8106 31.4194 47.2206 29.4821L47.2169 29.4813C21.6582 24.3181 -4.67837 18.9977 -30.0931 16.3591Z" fill="black"/>
<path d="M-20.2793 12.6171C-20.7737 12.7941 -21.2673 12.9725 -21.7603 13.1525C9.85039 15.7846 42.7453 20.3782 72.984 25.6699C96.9747 29.8615 120.241 38.9838 143.529 48.1146L145.423 48.8571C169.331 58.2273 193.283 67.4652 218.024 71.1888C228.014 72.692 238.41 72.9828 249.081 72.3441C248.871 72.1364 248.661 71.9291 248.45 71.7222C238.027 72.3128 227.878 72.0064 218.122 70.5383C193.466 66.8275 169.581 57.6187 145.663 48.2447L143.743 47.492L143.742 47.4915C120.474 38.3685 97.1537 29.2251 73.0971 25.022C43.2996 19.8075 10.9183 15.2695 -20.2793 12.6171Z" fill="black"/>
<path d="M-6.44041 8.09971C-7.10299 8.29541 -7.76446 8.49367 -8.42482 8.6945C17.9823 9.50666 44.424 11.5244 70.9486 15.4857C95.1224 19.0999 118.669 27.3555 142.237 35.6191L142.239 35.6196L143.421 36.0341C167.374 44.431 191.36 52.7558 216.004 56.0972C221.452 56.8341 227.002 57.2616 232.639 57.4177C232.365 57.1896 232.091 56.962 231.816 56.7349C226.491 56.5615 221.244 56.1424 216.092 55.4454C191.525 52.1144 167.601 43.8138 143.638 35.4134L142.43 34.9897C118.88 26.7326 95.2823 18.4587 71.0457 14.8352C45.1493 10.9677 19.3346 8.95116 -6.44041 8.09971Z" fill="black"/>
<path d="M31.1128 1.72231e-05C30.0303 0.150213 28.95 0.307099 27.8718 0.470623C42.0691 1.26753 56.2259 2.42975 70.328 4.0569C94.88 6.89087 119.142 13.8493 143.444 20.8189L143.672 20.8844C144.683 21.1745 145.695 21.4646 146.706 21.7543C165.063 27.0125 183.448 32.1716 201.983 35.4451C201.464 35.127 200.942 34.8107 200.42 34.4961C182.496 31.2202 164.694 26.2228 146.887 21.122C145.794 20.8088 144.7 20.4951 143.607 20.1815C119.32 13.2161 95.0103 6.24384 70.4033 3.40345C57.3487 1.89716 44.2481 0.788999 31.1128 1.72231e-05Z" fill="black"/>
</svg>
