<svg width="498" height="439" viewBox="0 0 498 439" fill="none" xmlns="http://www.w3.org/2000/svg">
<path d="M624.272 -574.022C617.373 -575.176 610.479 -576.351 603.586 -577.526C597.728 -578.524 591.872 -579.522 586.012 -580.508C583.531 -580.925 581.05 -581.34 578.569 -581.752C571.214 -582.657 563.81 -583.408 556.362 -584C566.186 -582.482 575.992 -580.869 585.795 -579.22C591.648 -578.235 597.501 -577.238 603.356 -576.24L603.359 -576.239C616.463 -574.006 629.578 -571.771 642.734 -569.675C636.623 -571.234 630.468 -572.683 624.272 -574.022Z" fill="black"/>
<path d="M738.328 -534.841C737.087 -535.439 735.844 -536.032 734.598 -536.62C727.377 -537.506 720.148 -538.344 712.911 -539.126C675.399 -543.19 638.996 -550.976 602.617 -558.756L602.608 -558.758C596.722 -560.017 590.837 -561.276 584.949 -562.519C542.673 -571.44 500.209 -579.537 455.949 -580.923C452.856 -581.021 449.765 -581.098 446.677 -581.155C443.835 -580.778 441 -580.379 438.173 -579.957C444.078 -579.914 449.989 -579.804 455.907 -579.617C500.043 -578.235 542.41 -570.16 584.679 -561.24C590.564 -559.998 596.447 -558.74 602.334 -557.481C638.709 -549.701 675.186 -541.899 712.77 -537.827C721.301 -536.905 729.819 -535.905 738.328 -534.841Z" fill="black"/>
<path d="M793.188 -504.141C792.342 -504.685 791.493 -505.227 790.644 -505.766C765.769 -508.792 741.017 -511.932 716.472 -515.163C677.046 -520.351 639.266 -530.649 601.524 -540.938L601.522 -540.938C595.398 -542.608 589.275 -544.277 583.146 -545.924C539.262 -557.716 495.093 -568.367 448.227 -569.773C424.179 -570.494 400.431 -569.251 376.851 -566.922C374.438 -566.252 372.031 -565.565 369.632 -564.861C395.586 -567.667 421.707 -569.261 448.188 -568.467C494.89 -567.066 538.932 -556.452 582.806 -544.662C588.927 -543.017 595.046 -541.349 601.167 -539.68C638.906 -529.393 676.78 -519.068 716.302 -513.868C741.739 -510.519 767.399 -507.268 793.188 -504.141Z" fill="black"/>
<path d="M829.02 -478.896C828.4 -479.374 827.779 -479.85 827.156 -480.324C791.246 -482.642 755.592 -485.816 720.575 -490.575C677.389 -496.446 636.758 -510.454 596.109 -524.467L596.102 -524.47C590.949 -526.246 585.797 -528.022 580.638 -529.782C534.808 -545.419 488.56 -559.747 438.362 -561.023C395.719 -562.097 354.879 -554.586 314.441 -545.168C312.147 -544.198 309.863 -543.212 307.586 -542.21C350.343 -552.392 393.343 -560.85 438.329 -559.717C488.309 -558.446 534.391 -544.18 580.216 -528.546C585.373 -526.786 590.526 -525.009 595.682 -523.232C636.317 -509.223 677.076 -495.17 720.399 -489.28C756.075 -484.432 792.421 -481.227 829.02 -478.896Z" fill="black"/>
<path d="M856.573 -456.121C856.09 -456.549 855.606 -456.977 855.121 -457.404C811.059 -456.69 767.388 -458.159 725.216 -465.428C680.52 -473.119 638.727 -490.428 596.925 -507.741L596.919 -507.744C590.542 -510.385 584.166 -513.026 577.779 -515.633C529.55 -535.317 480.747 -553.046 427.089 -553.935C377.965 -554.749 332.666 -540.988 287.834 -525.443C281.544 -523.262 275.264 -521.046 268.984 -518.83C262.378 -516.499 255.772 -514.168 249.155 -511.878C247.425 -510.834 245.701 -509.78 243.985 -508.717C252.491 -511.624 260.968 -514.615 269.437 -517.604L269.44 -517.605C275.715 -519.819 281.986 -522.032 288.263 -524.208C333.082 -539.749 378.192 -553.438 427.068 -552.628C480.46 -551.744 529.066 -534.104 577.285 -514.423C583.663 -511.82 590.034 -509.181 596.408 -506.541L596.411 -506.54C638.202 -489.23 680.143 -471.858 724.994 -464.141C767.733 -456.773 811.986 -455.352 856.573 -456.121Z" fill="black"/>
<path d="M877.438 -436.571C877.04 -436.965 876.641 -437.359 876.242 -437.752C826.78 -432.221 777.595 -430.041 730.115 -439.986C684.092 -449.608 640.917 -470.407 597.691 -491.231C590.007 -494.933 582.32 -498.636 574.616 -502.277C523.616 -526.379 471.86 -547.75 414.817 -547.954C364.849 -548.139 320.464 -530.24 276.794 -510.041C270.378 -507.074 263.979 -504.057 257.58 -501.041C236.261 -490.992 214.943 -480.942 193.034 -472.715C191.97 -471.862 190.909 -471.005 189.852 -470.144C213.123 -478.638 235.674 -489.269 258.162 -499.87C264.556 -502.884 270.944 -505.896 277.343 -508.855C320.997 -529.047 365.155 -546.831 414.812 -546.647C471.542 -546.445 523.069 -525.192 574.058 -501.095C581.742 -497.464 589.414 -493.768 597.09 -490.069L597.094 -490.068C640.315 -469.245 683.655 -448.365 729.847 -438.707C777.865 -428.649 827.577 -430.949 877.438 -436.571Z" fill="black"/>
<path d="M894.154 -419.232C893.812 -419.603 893.469 -419.975 893.126 -420.345C840.277 -408.889 787.484 -401.555 735.122 -414.359C687.423 -426.023 642.473 -450.268 597.402 -474.578C588.712 -479.265 580.018 -483.955 571.299 -488.557C517.4 -517.006 462.568 -542.101 402.147 -542.342C351.458 -542.546 307.818 -520.353 265.215 -495.187C258.506 -491.224 251.823 -487.188 245.143 -483.154C214.399 -464.586 183.704 -446.047 150.69 -434.786C150.004 -434.099 149.319 -433.411 148.636 -432.72C182.759 -443.944 214.359 -463.032 245.858 -482.058L245.861 -482.06C252.531 -486.089 259.196 -490.115 265.88 -494.063C308.468 -519.219 351.839 -541.238 402.142 -541.035C462.216 -540.796 516.799 -515.846 570.688 -487.402C579.382 -482.813 588.059 -478.133 596.738 -473.451L596.741 -473.449C641.811 -449.138 686.934 -424.797 734.812 -413.09C787.658 -400.168 840.881 -407.655 893.949 -419.187C894.017 -419.202 894.086 -419.217 894.154 -419.232Z" fill="black"/>
<path d="M908.093 -403.45C907.789 -403.809 907.484 -404.168 907.179 -404.526C903.911 -403.453 900.644 -402.396 897.376 -401.361C845.854 -385.032 794.164 -373.925 740.128 -388.843C691.089 -402.389 644.378 -430.021 597.424 -457.796C587.659 -463.573 577.884 -469.355 568.075 -475.019C511.153 -507.883 453.126 -536.712 389.695 -536.619C338.196 -536.545 295.271 -510.083 253.737 -480.073C246.912 -475.142 240.126 -470.116 233.345 -465.094L233.342 -465.091C198.801 -439.51 164.406 -414.036 125.825 -401.757C123.435 -400.997 121.036 -400.292 118.631 -399.64C118.152 -399.064 117.674 -398.487 117.197 -397.909C120.217 -398.692 123.225 -399.559 126.222 -400.513C165.03 -412.864 199.633 -438.495 234.17 -464.077C240.94 -469.091 247.707 -474.104 254.503 -479.014C296.027 -509.017 338.652 -535.239 389.697 -535.313C452.746 -535.405 510.505 -506.749 567.421 -473.887C577.2 -468.241 586.955 -462.47 596.707 -456.701C643.662 -428.922 690.556 -401.181 739.78 -387.583C794.198 -372.56 846.196 -383.77 897.771 -400.115C901.214 -401.206 904.654 -402.32 908.093 -403.45Z" fill="black"/>
<path d="M920.107 -388.74C919.829 -389.093 919.55 -389.447 919.271 -389.8C913.236 -387.125 907.205 -384.499 901.167 -381.967C851.339 -361.067 801.033 -346.504 744.872 -363.548C694.686 -378.778 646.267 -409.574 597.456 -440.619L597.453 -440.621C586.676 -447.476 575.879 -454.343 565.04 -461.057C505.171 -498.143 444.032 -530.547 377.944 -530.047C325.62 -529.658 283.348 -499.081 242.83 -464.469C235.992 -458.627 229.206 -452.673 222.429 -446.726C209.102 -435.032 195.81 -423.368 182.223 -412.654C161.738 -396.502 140.645 -382.56 117.889 -374.02C109.954 -371.041 101.914 -368.809 93.7846 -367.231C93.4242 -366.721 93.0647 -366.209 92.7061 -365.697C101.355 -367.299 109.909 -369.628 118.348 -372.797C141.286 -381.405 162.502 -395.44 183.033 -411.629C196.646 -422.363 209.985 -434.068 223.329 -445.777L223.337 -445.784C230.105 -451.722 236.873 -457.661 243.68 -463.476C284.197 -498.088 326.147 -528.355 377.954 -528.741C443.629 -529.238 504.481 -497.033 564.351 -459.947C575.155 -453.254 585.928 -446.402 596.691 -439.556L596.694 -439.554C645.51 -408.503 694.118 -377.585 744.492 -362.298C801.106 -345.117 851.774 -359.832 901.673 -380.762C907.827 -383.343 913.968 -386.018 920.107 -388.74Z" fill="black"/>
<path d="M930.609 -374.915C930.35 -375.269 930.089 -375.623 929.829 -375.976C921.475 -371.336 913.142 -366.762 904.78 -362.409C856.683 -337.368 807.756 -319.675 749.169 -338.697C697.911 -355.345 647.887 -389.001 597.322 -423.02L597.317 -423.024C585.698 -430.841 574.05 -438.678 562.352 -446.331C499.814 -487.25 435.859 -522.925 367.45 -521.999C314.23 -521.275 272.588 -486.946 233.041 -448.185C226.271 -441.55 219.565 -434.787 212.871 -428.037L212.868 -428.033C199.98 -415.037 187.139 -402.088 173.979 -390.186C153.992 -372.11 133.335 -356.514 110.807 -346.947C98.8306 -341.866 86.5956 -338.766 74.1624 -337.269C73.8766 -336.797 73.5917 -336.326 73.3074 -335.853C86.1991 -337.316 98.8928 -340.473 111.319 -345.745C134.042 -355.395 154.826 -371.102 174.856 -389.217C188.042 -401.142 200.93 -414.139 213.835 -427.153C220.523 -433.897 227.215 -440.645 233.956 -447.252C273.514 -486.023 314.819 -519.976 367.467 -520.693C435.438 -521.613 499.09 -486.162 561.636 -445.238C573.297 -437.609 584.92 -429.788 596.525 -421.98C647.097 -387.953 697.315 -354.165 748.765 -337.455C807.866 -318.265 857.198 -336.163 905.384 -361.25C913.809 -365.636 922.203 -370.245 930.609 -374.915Z" fill="black"/>
<path d="M939.979 -361.712C939.733 -362.071 939.486 -362.43 939.238 -362.788C938.91 -362.573 938.582 -362.357 938.254 -362.142L938.251 -362.14C928.168 -355.522 918.154 -348.949 908.077 -342.754C861.608 -314.186 813.964 -293.767 752.982 -314.475C703.582 -331.236 655.518 -361.432 609.948 -390.061C598.184 -397.452 586.586 -404.738 575.175 -411.662C564.085 -418.396 552.137 -426.188 539.56 -434.389C518.643 -448.03 495.986 -462.804 472.65 -475.735C435.259 -496.455 395.921 -512.569 358.766 -511.883C304.47 -510.881 263.481 -473.347 224.889 -431.079C218.286 -423.848 211.756 -416.48 205.24 -409.129L205.238 -409.126C192.678 -394.956 180.17 -380.843 167.298 -367.881C147.758 -348.203 127.446 -331.246 104.989 -320.874C89.8585 -313.887 74.3358 -310.42 58.5381 -309.606C58.3035 -309.159 58.0696 -308.711 57.8363 -308.263C74.0447 -309.01 89.9901 -312.508 105.538 -319.688C128.202 -330.156 148.644 -347.24 168.226 -366.961C181.122 -379.948 193.675 -394.11 206.252 -408.299C212.763 -415.645 219.28 -422.998 225.854 -430.198C264.465 -472.486 305.111 -509.586 358.79 -510.577C395.586 -511.256 434.671 -495.287 472.017 -474.593C495.329 -461.674 517.886 -446.963 538.763 -433.348C551.352 -425.137 563.331 -417.326 574.496 -410.545C585.866 -403.647 597.435 -396.378 609.181 -388.998C654.763 -360.36 703 -330.054 752.561 -313.238C814.107 -292.338 862.191 -313.01 908.762 -341.641C918.857 -347.847 928.889 -354.432 938.971 -361.05C939.307 -361.27 939.643 -361.491 939.979 -361.712Z" fill="black"/>
<path d="M948.466 -348.943C948.23 -349.31 947.994 -349.677 947.757 -350.043C946.641 -349.224 945.527 -348.404 944.414 -347.584C942.381 -346.085 940.353 -344.586 938.329 -343.089C929.093 -336.26 919.927 -329.483 910.692 -323.064C865.673 -291.772 819.194 -269.111 756.015 -290.993C705.472 -308.503 656.117 -340.424 609.565 -370.533L609.561 -370.535C597.306 -378.461 585.245 -386.262 573.408 -393.641C562.085 -400.705 549.846 -408.928 536.919 -417.613L536.917 -417.614C532.801 -420.38 528.614 -423.193 524.365 -426.03C506.782 -437.771 488.142 -449.921 469.006 -460.857C430.752 -482.716 390.422 -499.777 352.484 -498.961C296.897 -497.772 256.618 -457.788 218.974 -412.861C212.648 -405.312 206.399 -397.624 200.162 -389.953L200.16 -389.951C187.808 -374.756 175.505 -359.623 162.762 -345.746C143.594 -324.871 123.496 -306.915 100.879 -295.985C83.0073 -287.352 64.6891 -283.927 46.0833 -284.187C45.8861 -283.754 45.6895 -283.322 45.4936 -282.889C64.4678 -282.548 83.181 -285.984 101.448 -294.809C124.284 -305.845 144.515 -323.942 163.725 -344.862C176.494 -358.768 188.841 -373.955 201.21 -389.169C207.441 -396.833 213.678 -404.505 219.976 -412.022C257.642 -456.976 297.577 -496.48 352.512 -497.655C390.078 -498.463 430.146 -481.558 468.357 -459.723C487.452 -448.811 506.061 -436.681 523.639 -424.944C527.88 -422.112 532.061 -419.303 536.174 -416.539L536.177 -416.538C549.108 -407.85 561.372 -399.61 572.716 -392.532C584.509 -385.181 596.539 -377.4 608.774 -369.486L608.779 -369.483C655.344 -339.365 704.878 -307.326 755.587 -289.758C819.368 -267.668 866.308 -290.622 911.439 -321.992C920.691 -328.423 929.874 -335.213 939.111 -342.042L939.138 -342.062C941.152 -343.551 943.169 -345.042 945.19 -346.532C946.281 -347.336 947.373 -348.14 948.466 -348.943Z" fill="black"/>
<path d="M956.337 -336.315C956.11 -336.69 955.883 -337.065 955.656 -337.44C949.514 -332.679 943.449 -327.841 937.418 -323.031C929.07 -316.373 920.788 -309.767 912.459 -303.487C890.547 -286.965 868.236 -272.633 843.276 -265.226C818.335 -257.825 790.713 -257.329 758.157 -268.546C707.02 -286.173 656.785 -319.352 609.743 -350.422L609.739 -350.424C597.063 -358.796 584.62 -367.015 572.452 -374.735C560.971 -382.016 548.58 -390.486 535.502 -399.426L535.486 -399.437C531.374 -402.248 527.194 -405.105 522.952 -407.987C505.224 -420.032 486.438 -432.491 467.135 -443.701C428.548 -466.11 387.802 -483.588 349.197 -482.753C291.973 -481.491 252.478 -439.997 215.79 -393.463C209.864 -385.948 204.013 -378.302 198.171 -370.668L198.168 -370.664C185.894 -354.626 173.661 -338.641 160.862 -324.024C141.978 -302.457 121.929 -283.948 98.8466 -272.762C78.3363 -262.82 57.4493 -259.799 36.3425 -261.386C36.1736 -260.962 36.0052 -260.539 35.8373 -260.114C57.272 -258.442 78.5286 -261.461 99.417 -271.587C122.731 -282.885 142.917 -301.545 161.846 -323.163C174.672 -337.812 186.951 -353.856 199.239 -369.913C205.076 -377.54 210.916 -385.17 216.817 -392.655C253.526 -439.215 292.676 -480.199 349.225 -481.447C387.453 -482.274 427.936 -464.955 466.478 -442.571C485.74 -431.385 504.494 -418.948 522.218 -406.906C526.445 -404.034 530.615 -401.184 534.719 -398.378L534.749 -398.358L534.75 -398.357C547.833 -389.414 560.249 -380.926 571.752 -373.632C583.871 -365.942 596.283 -357.744 608.937 -349.386L608.939 -349.385C655.997 -318.303 706.42 -284.998 757.73 -267.311C790.538 -256.007 818.44 -256.494 843.648 -263.974C868.836 -271.448 891.298 -285.895 913.246 -302.444C921.638 -308.771 929.943 -315.396 938.298 -322.06C944.269 -326.823 950.266 -331.607 956.337 -336.315Z" fill="black"/>
<path d="M964.446 -322.386C964.231 -322.769 964.015 -323.152 963.799 -323.534C955.097 -316.991 946.575 -310.218 938.12 -303.498C929.697 -296.804 921.342 -290.163 912.94 -283.855C891.01 -267.389 868.69 -253.123 843.771 -245.79C818.872 -238.463 791.343 -238.047 758.972 -249.347C707.763 -267.218 657.452 -299.878 610.117 -330.605C597.202 -338.989 584.508 -347.229 572.079 -354.985C560.279 -362.352 547.51 -370.973 534.018 -380.083L534.015 -380.085L533.992 -380.1C530.179 -382.675 526.308 -385.288 522.386 -387.923C504.58 -399.883 485.713 -412.28 466.344 -423.465C427.625 -445.822 386.807 -463.391 348.352 -462.89C290.937 -462.129 251.681 -420.396 215.284 -373.532C209.41 -365.969 203.612 -358.274 197.823 -350.59L197.818 -350.584C185.641 -334.423 173.503 -318.313 160.783 -303.596C142.024 -281.892 122.066 -263.3 98.9952 -252.161C75.8895 -240.999 52.4692 -238.524 28.8837 -241.492C28.736 -241.072 28.589 -240.651 28.4424 -240.231C52.3216 -237.183 76.0929 -239.646 99.5639 -250.985C122.871 -262.238 142.968 -280.985 161.773 -302.742C174.52 -317.491 186.703 -333.661 198.895 -349.842L198.907 -349.857C204.688 -357.529 210.47 -365.204 216.316 -372.731C252.735 -419.624 291.643 -460.832 348.369 -461.584C386.453 -462.08 427.012 -444.667 465.69 -422.333C485.019 -411.172 503.856 -398.796 521.656 -386.839C525.58 -384.203 529.453 -381.588 533.271 -379.01L533.274 -379.009C546.769 -369.897 559.565 -361.257 571.386 -353.877C583.768 -346.15 596.429 -337.931 609.323 -329.561L609.324 -329.56C656.675 -298.821 707.167 -266.042 758.541 -248.113C791.164 -236.726 818.974 -237.131 844.14 -244.537C869.287 -251.937 891.759 -266.317 913.726 -282.811C922.191 -289.167 930.569 -295.827 938.998 -302.526C947.386 -309.194 955.824 -315.9 964.446 -322.386Z" fill="black"/>
<path d="M972.768 -306.949C972.566 -307.339 972.364 -307.728 972.162 -308.118C963.786 -302.397 955.571 -296.454 947.432 -290.5C945.466 -289.062 943.505 -287.624 941.547 -286.188C932.243 -279.363 923.013 -272.592 913.715 -266.187C868.714 -235.185 822.319 -212.865 759.416 -234.948C708.112 -252.956 657.95 -283.421 610.046 -312.516L610.044 -312.517C596.835 -320.539 583.798 -328.457 570.955 -335.982C558.319 -343.385 544.504 -352.232 529.859 -361.611C526.829 -363.552 523.763 -365.515 520.664 -367.493C502.599 -379.027 483.44 -391.054 463.832 -401.946C424.637 -423.72 383.554 -441.017 345.734 -440.739C289.607 -440.312 250.663 -398.999 214.591 -352.515C208.572 -344.76 202.635 -336.861 196.709 -328.979C184.845 -313.196 173.029 -297.478 160.704 -283.094C142.233 -261.536 122.689 -243.065 100.283 -232.001C74.7264 -219.379 48.7128 -217.532 22.4762 -222.015C22.3474 -221.595 22.2192 -221.175 22.0914 -220.755C48.5923 -216.201 74.9467 -218.03 100.862 -230.829C123.503 -242.009 143.184 -260.638 161.697 -282.244C174.048 -296.658 185.909 -312.437 197.789 -328.24C203.709 -336.114 209.633 -343.994 215.624 -351.715C251.722 -398.232 290.313 -439.01 345.743 -439.432C383.205 -439.708 424.035 -422.559 463.197 -400.804C482.768 -389.932 501.898 -377.924 519.961 -366.392C523.052 -364.419 526.113 -362.458 529.139 -360.52L529.145 -360.517C543.791 -351.137 557.633 -342.273 570.294 -334.854C583.094 -327.355 596.103 -319.454 609.294 -311.442L609.296 -311.441C657.216 -282.336 707.536 -251.773 758.983 -233.715C822.486 -211.421 869.344 -234.032 914.457 -265.111C923.772 -271.529 933.022 -278.313 942.327 -285.139C944.284 -286.574 946.242 -288.01 948.204 -289.446C956.299 -295.367 964.457 -301.27 972.768 -306.949Z" fill="black"/>
<path d="M980.791 -290.745C980.604 -291.14 980.416 -291.535 980.228 -291.93C970.017 -285.85 960.016 -279.45 950.109 -273.051C948.59 -272.07 947.073 -271.089 945.558 -270.109C935.453 -263.572 925.427 -257.087 915.34 -250.983C868.957 -222.915 821.448 -203.016 759.999 -223.764C708.211 -241.268 657.571 -269.291 608.655 -296.36C595.321 -303.738 582.115 -311.046 569.049 -318.051C555.548 -325.287 540.679 -334.089 524.894 -343.433C522.537 -344.829 520.159 -346.236 517.763 -347.653C499.325 -358.548 479.779 -369.95 459.844 -380.283C419.996 -400.938 378.501 -417.371 341.112 -416.888C286.26 -416.201 248.324 -375.608 213.263 -329.941C207.333 -322.216 201.486 -314.348 195.652 -306.498L195.651 -306.496C184.207 -291.096 172.812 -275.762 160.93 -261.706C143.001 -240.495 124.033 -222.285 102.272 -211.286C74.4429 -197.225 45.8433 -196.244 16.8939 -202.44C16.7828 -202.019 16.6721 -201.597 16.562 -201.175C45.7445 -194.919 74.6778 -195.88 102.862 -210.12C124.855 -221.236 143.958 -239.604 161.929 -260.863C173.836 -274.949 185.276 -290.343 196.736 -305.765C202.564 -313.607 208.398 -321.457 214.3 -329.145C249.387 -374.845 286.973 -414.903 341.129 -415.582C378.173 -416.06 419.422 -399.763 459.242 -379.123C479.142 -368.809 498.661 -357.422 517.097 -346.528C519.479 -345.121 521.842 -343.722 524.186 -342.334L524.225 -342.311C540.006 -332.969 554.903 -324.15 568.431 -316.899C581.461 -309.914 594.643 -302.62 607.961 -295.25C656.89 -268.173 707.669 -240.073 759.581 -222.526C821.583 -201.591 869.525 -221.731 916.017 -249.865C926.122 -255.98 936.166 -262.477 946.269 -269.013C947.784 -269.992 949.3 -270.973 950.818 -271.954C960.69 -278.33 970.64 -284.697 980.791 -290.745Z" fill="black"/>
<path d="M988.518 -273.615C988.346 -274.016 988.173 -274.417 988 -274.817C975.191 -268.452 962.658 -261.647 950.229 -254.899C939.343 -248.988 928.536 -243.12 917.692 -237.628C869.661 -213.305 820.8 -196.285 760.65 -215.019C708.282 -231.333 656.928 -256.532 606.868 -281.095C593.319 -287.744 579.864 -294.346 566.51 -300.712C551.964 -307.64 535.872 -316.217 518.802 -325.314L518.8 -325.315L518.627 -325.407C517.058 -326.243 515.481 -327.084 513.896 -327.928C495.008 -337.986 475.02 -348.536 454.71 -358.078C414.111 -377.153 372.13 -392.249 334.972 -391.303C281.379 -389.91 244.999 -350.334 211.473 -305.888C205.825 -298.4 200.26 -290.776 194.705 -283.166C183.743 -268.149 172.824 -253.19 161.398 -239.455C144.192 -218.772 125.904 -200.951 104.742 -190.018C74.8948 -174.599 43.7667 -174.679 12.1057 -182.702C12.0114 -182.277 11.9176 -181.851 11.8244 -181.425C43.6849 -173.359 75.141 -173.255 105.342 -188.857C126.734 -199.909 145.155 -217.887 162.403 -238.62C173.853 -252.385 184.817 -267.403 195.794 -282.441L195.796 -282.443C201.344 -290.044 206.896 -297.65 212.517 -305.101C246.064 -349.576 282.103 -388.621 335.006 -389.997C371.837 -390.934 413.579 -375.959 454.154 -356.896C474.431 -347.369 494.393 -336.833 513.282 -326.774C514.927 -325.899 516.564 -325.026 518.192 -324.158C535.255 -315.065 551.373 -306.475 565.947 -299.533C579.268 -293.182 592.7 -286.591 606.234 -279.95L606.24 -279.947C656.311 -255.378 707.786 -230.119 760.261 -213.771C820.902 -194.884 870.151 -212.088 918.283 -236.463C929.199 -241.991 940.053 -247.884 950.968 -253.81C963.346 -260.53 975.803 -267.293 988.518 -273.615Z" fill="black"/>
<path d="M995.795 -255.733C995.639 -256.14 995.482 -256.546 995.324 -256.952C981.95 -251.681 968.801 -246.02 955.744 -240.399L955.742 -240.398C944.034 -235.357 932.399 -230.348 920.741 -225.68C870.833 -205.696 820.392 -191.896 761.479 -208.157C708.379 -222.793 656.112 -244.861 604.753 -266.547L604.746 -266.55C590.988 -272.359 577.296 -278.14 563.67 -283.743C548.002 -290.185 530.635 -298.303 512.253 -306.896L509.533 -308.167C490.15 -317.226 469.693 -326.739 448.98 -335.301C407.573 -352.419 365.052 -365.779 327.941 -364.092C275.444 -361.714 241.082 -323.344 209.534 -280.42C204.387 -273.418 199.316 -266.296 194.253 -259.184L194.251 -259.181C183.768 -244.458 173.318 -229.779 162.287 -216.296C145.937 -196.311 128.377 -179.037 107.695 -168.271C75.9685 -151.749 42.4013 -153.069 8.13264 -162.942C8.05477 -162.511 7.97743 -162.08 7.90062 -161.649C42.3316 -151.751 76.2194 -150.406 108.299 -167.112C129.211 -177.998 146.905 -195.429 163.299 -215.469C174.358 -228.986 184.854 -243.728 195.352 -258.474L195.357 -258.48C200.412 -265.58 205.468 -272.681 210.587 -279.647C242.15 -322.589 276.181 -360.44 328 -362.787C364.805 -364.46 407.097 -351.202 448.48 -334.094C469.162 -325.544 489.594 -316.043 508.98 -306.984L511.711 -305.707L511.713 -305.706C530.084 -297.119 547.475 -288.989 563.173 -282.535C576.775 -276.941 590.452 -271.166 604.201 -265.361C655.57 -243.671 707.94 -221.558 761.131 -206.898C820.461 -190.522 871.233 -204.449 921.227 -224.467C932.953 -229.163 944.632 -234.19 956.366 -239.242C969.392 -244.849 982.488 -250.487 995.795 -255.733Z" fill="black"/>
<path d="M1002.46 -237.382C1002.32 -237.795 1002.18 -238.207 1002.04 -238.619C988.531 -234.682 975.173 -230.448 961.88 -226.235C949.341 -222.26 936.86 -218.304 924.369 -214.634C872.414 -199.368 820.186 -189.005 762.414 -202.515C708.49 -215.114 655.194 -233.797 602.538 -252.256C588.576 -257.151 574.66 -262.029 560.788 -266.774C543.781 -272.588 524.934 -280.092 505.054 -288.008L505.01 -288.026C485.12 -295.945 464.203 -304.273 443.096 -311.713C400.9 -326.586 357.859 -337.944 320.648 -335.368C267.892 -331.726 236.641 -294 208.031 -252.525C204.211 -246.989 200.44 -241.386 196.67 -235.786C186.297 -220.379 175.94 -204.994 164.644 -191.064C149.252 -172.083 132.168 -155.875 111.047 -146.095C76.3179 -130.007 40.8238 -132.67 5.05959 -143.892C4.99747 -143.455 4.93587 -143.017 4.87491 -142.58C40.7631 -131.353 76.5421 -128.671 111.596 -144.91C132.974 -154.808 150.207 -171.186 165.66 -190.242C176.996 -204.221 187.402 -219.678 197.785 -235.102C201.548 -240.691 205.307 -246.276 209.107 -251.784C237.724 -293.268 268.66 -330.47 320.738 -334.065C357.664 -336.621 400.488 -325.346 442.662 -310.481C463.74 -303.051 484.633 -294.733 504.526 -286.812L504.59 -286.786C524.454 -278.877 543.327 -271.362 560.365 -265.538C574.215 -260.8 588.117 -255.927 602.069 -251.036C654.734 -232.573 708.116 -213.86 762.116 -201.243C820.223 -187.654 872.717 -198.095 924.737 -213.38C937.287 -217.068 949.804 -221.035 962.364 -225.016C975.652 -229.228 988.988 -233.455 1002.46 -237.382Z" fill="black"/>
<path d="M1008.54 -218.418C1008.41 -218.837 1008.28 -219.256 1008.16 -219.675C995.319 -217.088 982.522 -214.307 969.746 -211.53C958.444 -209.074 947.158 -206.621 935.873 -204.309C884.021 -193.689 832.136 -186.04 778.548 -194.623C713.472 -205.033 649.333 -223.361 585.544 -241.59C561.824 -248.368 538.152 -255.132 514.498 -261.471C500.625 -265.182 485.675 -269.828 470.102 -274.668L467.482 -275.482C450.97 -280.612 433.795 -285.91 416.515 -290.495C381.969 -299.66 346.935 -305.992 315.853 -302.396C261.883 -296.157 232.388 -259.144 204.896 -219.418C202.322 -215.699 199.766 -211.956 197.208 -208.212L197.2 -208.199C172.4 -171.89 147.534 -135.483 105.839 -119.233C72.496 -106.224 37.743 -110.619 2.50484 -122.792C2.46016 -122.347 2.41601 -121.901 2.3725 -121.455C37.6859 -109.299 72.679 -104.893 106.314 -118.016C148.409 -134.422 173.507 -171.179 198.263 -207.436C200.83 -211.195 203.393 -214.949 205.971 -218.675C233.463 -258.401 262.665 -294.932 316.004 -301.098C346.832 -304.665 381.669 -298.388 416.18 -289.232C433.43 -284.656 450.58 -279.365 467.094 -274.235L469.72 -273.418C485.287 -268.58 500.26 -263.927 514.16 -260.209C537.767 -253.883 561.411 -247.126 585.115 -240.353C648.929 -222.117 713.182 -203.756 778.341 -193.333C832.173 -184.711 884.253 -192.403 936.136 -203.03C947.456 -205.348 958.764 -207.806 970.079 -210.265C982.88 -213.047 995.691 -215.831 1008.54 -218.418Z" fill="black"/>
<path d="M1013.67 -199.98C1013.56 -200.406 1013.45 -200.833 1013.34 -201.259C1000.87 -199.946 988.423 -198.527 975.979 -197.109C964.165 -195.763 952.356 -194.418 940.553 -193.165C887.134 -187.494 833.763 -183.708 780.001 -190.233C714.11 -198.24 648.762 -212.053 583.598 -225.827C559.547 -230.911 535.521 -235.989 511.501 -240.769C496.372 -243.775 480.137 -247.71 463.304 -251.797L462.835 -251.91C446.153 -255.961 428.892 -260.151 411.571 -263.718C376.614 -270.916 341.35 -275.587 310.005 -271.419C258.021 -264.511 230.147 -229.418 204.208 -191.881C201.828 -188.436 199.464 -184.972 197.1 -181.507C173.655 -147.142 150.148 -112.688 109.936 -96.8224C75.2323 -83.1296 38.3931 -88.7531 0.874749 -102.519C0.847196 -102.065 0.820175 -101.611 0.793792 -101.156C38.3511 -87.4283 75.4204 -81.7991 110.416 -95.6071C151.023 -111.629 174.758 -146.428 198.163 -180.743L198.166 -180.748C200.536 -184.223 202.903 -187.693 205.283 -191.138C231.216 -228.667 258.806 -263.297 310.178 -270.124C341.297 -274.262 376.384 -269.63 411.307 -262.438C428.606 -258.876 445.848 -254.69 462.537 -250.638L462.996 -250.527C479.823 -246.442 496.085 -242.499 511.246 -239.487C535.23 -234.715 559.234 -229.641 583.272 -224.56L583.276 -224.559C648.459 -210.781 713.891 -196.95 779.843 -188.936C833.759 -182.392 887.253 -186.193 940.691 -191.866C952.517 -193.121 964.339 -194.468 976.162 -195.815L976.164 -195.815C988.663 -197.239 1001.16 -198.664 1013.67 -199.98Z" fill="black"/>
<path d="M1018.03 -181.732C1017.94 -182.166 1017.84 -182.6 1017.74 -183.034C1006.09 -182.838 994.435 -182.606 982.782 -182.374H982.78C970.295 -182.125 957.811 -181.877 945.33 -181.672C890.641 -180.777 835.998 -180.732 781.491 -185.251C714.668 -190.776 648.111 -200.037 581.617 -209.288L581.614 -209.289C557.485 -212.646 533.365 -216.001 509.243 -219.177C493.624 -221.233 477.045 -224.102 459.96 -227.104C458.652 -227.334 457.341 -227.565 456.027 -227.796C440.187 -230.584 423.948 -233.441 407.688 -235.831C372.479 -241.007 337.115 -244 305.379 -239.334C255.42 -231.999 228.878 -198.995 204.174 -163.802C201.961 -160.65 199.763 -157.481 197.565 -154.311C175.181 -122.034 152.74 -89.675 113.926 -74.375C78.1014 -60.2479 39.4833 -66.9876 0.0374181 -82.1085C0.0275246 -81.6454 0.018163 -81.1822 0.00943973 -80.7188C39.4588 -65.6569 78.2931 -58.919 114.406 -73.1595C153.609 -88.613 176.276 -121.308 198.621 -153.538L198.635 -153.558C200.836 -156.733 203.034 -159.903 205.244 -163.052C229.936 -198.228 256.199 -230.793 305.569 -238.042C337.11 -242.679 372.319 -239.71 407.498 -234.539C423.739 -232.151 439.962 -229.297 455.806 -226.509L459.734 -225.818C476.816 -222.815 493.422 -219.942 509.072 -217.882C533.174 -214.709 557.282 -211.355 581.404 -207.998C647.91 -198.745 714.521 -189.478 781.383 -183.949C835.957 -179.424 890.654 -179.471 945.352 -180.366C957.836 -180.57 970.32 -180.819 982.803 -181.067L982.824 -181.068C994.561 -181.302 1006.3 -181.535 1018.03 -181.732Z" fill="black"/>
<path d="M1021.67 -163.603C1021.59 -164.045 1021.51 -164.486 1021.43 -164.928C1005.92 -165.9 990.423 -166.888 974.922 -167.877C910.99 -171.955 847.057 -176.033 783.055 -178.94C714.861 -182.041 646.751 -186.793 578.638 -191.546C555.112 -193.187 531.586 -194.829 508.056 -196.402C489.468 -197.651 469.871 -199.834 449.821 -202.068C435.179 -203.699 420.296 -205.357 405.389 -206.697C370.117 -209.869 334.803 -211.251 302.603 -206.217C254.615 -198.734 228.981 -167.96 205.072 -135.241C202.975 -132.372 200.892 -129.488 198.808 -126.603C177.099 -96.5525 155.345 -66.4389 117.846 -51.9297C80.9973 -37.6515 40.9454 -45.3389 -2.82447e-05 -61.5294C0.00837591 -61.0569 0.0175247 -60.5846 0.0272055 -60.1124C40.9431 -44.0011 81.1919 -36.3256 118.318 -50.7113C156.197 -65.3675 178.176 -95.8013 199.848 -125.81C201.94 -128.706 204.028 -131.598 206.128 -134.471C230.019 -167.165 255.379 -197.53 302.805 -204.926C334.842 -209.934 370.027 -208.565 405.272 -205.396C420.109 -204.062 434.974 -202.406 449.615 -200.776L449.619 -200.775C469.707 -198.538 489.373 -196.348 507.969 -195.099C531.49 -193.526 555.011 -191.885 578.533 -190.243C646.651 -185.49 714.784 -180.736 782.996 -177.635C846.996 -174.728 910.894 -170.652 974.805 -166.575L974.812 -166.575L974.822 -166.574C990.437 -165.578 1006.05 -164.582 1021.67 -163.603Z" fill="black"/>
<path d="M1024.64 -145.416C1024.58 -145.864 1024.51 -146.312 1024.45 -146.76C1011.94 -148.399 999.449 -150.092 986.955 -151.785L986.942 -151.787C976.064 -153.261 965.187 -154.735 954.306 -156.174C898.09 -163.604 841.77 -170.079 784.694 -170.67C723.276 -171.285 661.857 -171.54 600.44 -171.794H600.435L600.386 -171.794C569.694 -171.922 539.002 -172.049 508.312 -172.221C487.566 -172.337 465.933 -173.407 443.968 -174.493L443.965 -174.493C431.093 -175.13 418.107 -175.772 405.118 -176.231C369.992 -177.473 334.895 -177.373 302.195 -172.176C256.052 -164.824 230.78 -136.423 207.104 -106.309C205.065 -103.716 203.038 -101.11 201.011 -98.504C179.471 -70.815 157.904 -43.0897 121.548 -29.5958C83.6797 -15.5459 42.6503 -23.9424 0.778899 -40.8354C0.806664 -40.3537 0.834962 -39.8723 0.864004 -39.3911C42.6773 -22.5961 83.878 -14.2259 122.003 -28.371C158.725 -42.0009 180.517 -70.0224 202.023 -97.6754L202.049 -97.7092C204.075 -100.314 206.099 -102.916 208.132 -105.502C231.784 -135.586 256.787 -163.618 302.4 -170.885C334.972 -176.063 369.967 -176.166 405.072 -174.925C418.019 -174.467 430.987 -173.826 443.852 -173.19L443.857 -173.19C465.846 -172.103 487.536 -171.031 508.304 -170.914C539.013 -170.742 569.72 -170.615 600.427 -170.488H600.44C661.855 -170.233 723.267 -169.979 784.681 -169.364C841.673 -168.773 897.926 -162.308 954.135 -154.878C965.01 -153.441 975.884 -151.967 986.762 -150.493C999.382 -148.783 1012.01 -147.072 1024.64 -145.416Z" fill="black"/>
<path d="M1026.99 -126.908C1026.94 -127.361 1026.89 -127.813 1026.84 -128.265C1014.41 -130.575 1002.01 -132.976 989.608 -135.376L989.606 -135.377C979.052 -137.419 968.501 -139.461 957.943 -141.446C901.437 -152.071 844.735 -161.072 786.373 -159.816C751.403 -159.055 715.67 -158.706 679.537 -158.352L679.532 -158.352C554.38 -157.129 424.423 -155.858 304.709 -137.287C260.286 -130.382 234.721 -104.47 210.572 -77.0787C208.565 -74.8017 206.567 -72.5151 204.57 -70.2283L204.551 -70.2062C182.503 -44.9632 160.448 -19.7125 124.888 -7.52325C85.9446 5.83822 44.4861 -2.97815 2.38601 -20.1403C2.43399 -19.6496 2.48271 -19.1591 2.53207 -18.6688C44.5509 -1.62159 86.1468 7.15012 125.312 -6.28742C161.219 -18.5956 183.497 -44.1085 205.514 -69.3215C207.526 -71.6252 209.535 -73.9265 211.553 -76.2149C235.675 -103.576 260.975 -129.167 304.91 -135.996C424.521 -154.551 554.347 -155.821 679.484 -157.045C715.634 -157.398 751.393 -157.748 786.401 -158.509C844.619 -159.763 901.209 -150.785 957.701 -140.162C968.236 -138.181 978.768 -136.143 989.307 -134.103L989.334 -134.098C1001.87 -131.672 1014.42 -129.244 1026.99 -126.908Z" fill="black"/>
<path d="M1028.69 -107.984C1028.65 -108.439 1028.62 -108.893 1028.59 -109.348C1016.17 -112.213 1003.78 -115.211 991.384 -118.208C983.357 -120.149 975.331 -122.09 967.3 -123.995C912.93 -136.891 858.325 -148.115 801.623 -146.377C639.761 -141.429 468.708 -123.667 308.306 -102.068C264.928 -96.2213 237.567 -71.1246 211.128 -45.3078C209.829 -44.0402 208.533 -42.7709 207.238 -41.5022C182.119 -16.9004 157.181 7.52486 119.337 16.3084C81.355 25.1363 43.1306 16.4789 4.87183 0.824963C4.94151 1.32475 5.01193 1.82432 5.083 2.32362C43.2434 17.8508 81.5292 26.4372 119.633 17.581C157.844 8.71225 183.026 -15.9553 208.094 -40.5113C209.41 -41.7997 210.725 -43.0878 212.041 -44.3733C238.48 -70.1888 265.568 -94.9892 308.48 -100.773C468.859 -122.369 639.863 -140.125 801.663 -145.071C858.179 -146.803 912.637 -135.617 966.998 -122.724C975.018 -120.822 983.037 -118.882 991.06 -116.942C1003.58 -113.912 1016.12 -110.88 1028.69 -107.984Z" fill="black"/>
<path d="M1029.74 -87.6226C1029.72 -88.0754 1029.71 -88.5281 1029.69 -88.9806C1016.16 -92.3525 1002.67 -95.9319 989.185 -99.5103C982.322 -101.332 975.46 -103.153 968.593 -104.946C914.496 -119.073 860.138 -131.466 802.902 -128.544C722.284 -124.444 641.378 -113.198 560.592 -100.709C543.128 -98.0093 525.671 -95.2516 508.223 -92.4954L508.219 -92.4948C444.947 -82.4999 381.803 -72.5254 318.958 -65.408C276.294 -60.5671 246.706 -38.4685 217.876 -15.8324C216.628 -14.853 215.382 -13.8726 214.137 -12.8926C186.568 8.79891 159.221 30.3164 121.176 37.3834C82.6156 44.5399 45.1531 36.0367 8.11019 21.0851C8.20168 21.5923 8.29392 22.0992 8.38689 22.6059C45.3155 37.4196 82.797 45.8352 121.414 38.668C159.784 31.5406 187.364 9.83819 214.884 -11.8174C216.15 -12.8138 217.416 -13.8102 218.683 -14.805C247.515 -37.4418 276.845 -59.3147 319.105 -64.1098C381.982 -71.2308 445.164 -81.2113 508.44 -91.2069C525.885 -93.9626 543.337 -96.7195 560.792 -99.4179C641.57 -111.905 722.421 -123.143 802.969 -127.239C859.986 -130.15 914.173 -117.807 968.263 -103.682C975.121 -101.891 981.978 -100.071 988.838 -98.2502L988.84 -98.2497C1002.44 -94.6396 1016.06 -91.0252 1029.74 -87.6226Z" fill="black"/>
<path d="M1029.99 -67.1739C1030 -67.6205 1030 -68.0673 1030 -68.5142C1017.61 -71.4157 1005.25 -74.4561 992.879 -77.4964C984.078 -79.6601 975.278 -81.8237 966.47 -83.937C911.766 -97.0635 856.824 -108.243 800.058 -105.359C690.995 -99.8415 580.254 -83.7132 470.542 -67.7347C422.371 -60.7191 374.399 -53.7324 326.854 -47.6854C284.264 -42.2718 252.512 -20.233 221.388 2.15414C220.325 2.91878 219.263 3.68379 218.201 4.44859C188.139 26.0984 158.348 47.5525 119.481 54.4766C83.0875 60.9605 47.3998 53.7936 12.0232 40.5965C12.1353 41.1036 12.2479 41.6105 12.3614 42.1171C47.6147 55.1754 83.2914 62.2512 119.711 55.7628C158.877 48.7854 188.886 27.1719 218.893 5.56076C219.979 4.77847 221.065 3.99618 222.152 3.21458C253.289 -19.182 284.796 -41.0224 327.019 -46.3893C374.615 -52.4427 422.616 -59.4337 470.802 -66.4516L470.804 -66.4521C580.486 -82.4263 691.125 -98.54 800.124 -104.054C856.688 -106.928 911.473 -95.7902 966.165 -82.6666C974.955 -80.5574 983.744 -78.3966 992.537 -76.2348L992.542 -76.2333C1005.01 -73.1681 1017.49 -70.1002 1029.99 -67.1739Z" fill="black"/>
<path d="M1029.33 -44.2468C1029.35 -44.6861 1029.37 -45.1255 1029.39 -45.5651C1016.88 -47.9847 1004.37 -50.5097 991.869 -53.0346C979.5 -55.5322 967.131 -58.0299 954.751 -60.4256C897.171 -71.568 839.386 -80.4983 780.436 -76.8933C634.358 -67.9574 483.85 -51.3784 338.89 -31.514C296.533 -25.715 262.913 -5.71374 229.938 14.9463C228.04 16.135 226.145 17.3259 224.251 18.5163C193.19 38.034 162.298 57.446 124.666 65.6308C87.9062 73.6131 51.684 68.0029 15.7268 56.1988C15.8539 56.6994 15.9818 57.1996 16.1104 57.6996C51.9496 69.3722 88.16 74.895 124.943 66.9075C162.807 58.6723 193.882 39.1442 224.903 19.6496C226.813 18.4498 228.722 17.2501 230.632 16.0533C263.611 -4.60907 297.018 -24.4627 339.067 -30.2196C484.006 -50.0809 634.479 -66.6559 780.516 -75.5892C839.292 -79.1836 896.942 -70.2816 954.502 -59.1429C966.857 -56.7522 979.208 -54.2581 991.566 -51.7627L991.571 -51.7616C1004.15 -49.2221 1016.73 -46.6812 1029.33 -44.2468Z" fill="black"/>
<path d="M1027.54 -20.158C1027.58 -20.5918 1027.62 -21.0258 1027.66 -21.4599C1014.72 -23.313 1001.77 -25.2444 988.823 -27.1762L988.815 -27.1773C974.915 -29.251 961.011 -31.3253 947.1 -33.3038C888.682 -41.6118 830.141 -48.2277 771.217 -45.9918C632.62 -40.7492 488.348 -34.029 350.718 -16.9313C307.012 -11.5057 270.085 7.55787 233.672 27.2384C231.672 28.3195 229.673 29.4025 227.675 30.4852C193.27 49.1269 159.022 67.6832 119.509 75.3381C85.4245 81.9302 52.1102 78.0494 19.1549 68.9964C19.2929 69.4863 19.4317 69.9759 19.5711 70.4652C52.4123 79.4051 85.6887 83.2098 119.757 76.6208C159.474 68.9264 193.887 50.2798 228.253 31.6584L228.263 31.6526C230.273 30.5635 232.283 29.4744 234.294 28.3876C270.716 8.70242 307.446 -10.2429 350.88 -15.6348C488.448 -32.7248 632.671 -39.4436 771.266 -44.6862C830.068 -46.9175 888.513 -40.3161 946.916 -32.0103C960.809 -30.0343 974.702 -27.9616 988.597 -25.8887L988.6 -25.8881C1001.58 -23.9521 1014.56 -22.0159 1027.54 -20.158Z" fill="black"/>
<path d="M1024.35 5.70574C1024.41 5.27342 1024.47 4.84094 1024.54 4.4083C1010.95 3.5688 997.36 2.71915 983.762 1.86913L983.754 1.86866C777.41 -11.0294 569.629 -24.0174 363.588 -3.12562C317.921 1.50157 277.345 19.2043 237.179 37.5743C234.804 38.6602 232.431 39.7485 230.059 40.8365C192.269 58.1668 154.6 75.4418 113.023 82.4602C82.0038 87.6978 51.8304 85.3437 22.0646 78.9343C22.2095 79.4112 22.3551 79.8879 22.5014 80.3642C52.1565 86.6835 82.2698 88.9778 113.24 83.7485C154.995 76.7003 192.811 59.3567 230.566 42.0417L230.659 41.999C233.013 40.9191 235.368 39.8394 237.723 38.7624C277.899 20.388 318.294 2.777 363.72 -1.82579C569.644 -22.7056 777.295 -9.72647 983.636 3.17077L983.651 3.17173C997.222 4.02 1010.79 4.86789 1024.35 5.70574Z" fill="black"/>
<path d="M1020.19 29.6705C1020.27 29.2362 1020.36 28.8017 1020.44 28.3671C998.766 28.0721 977.089 27.8354 955.413 27.5989H955.409C885.741 26.8384 816.085 26.078 746.443 23.3803C707.864 21.8868 668.656 19.1698 629.223 16.437C544.943 10.5963 459.633 4.68421 377.238 10.4964C329.281 13.8818 284.692 29.0965 240.455 45.5079C235.431 47.3718 230.412 49.2511 225.393 51.1303C186.194 65.8061 147.005 80.4787 105.629 87.8149C78.3679 92.6403 51.5138 91.8735 24.8724 87.879C25.0224 88.3421 25.1732 88.8049 25.3245 89.2673C51.863 93.1935 78.6508 93.9172 105.858 89.1013C147.36 81.7428 186.666 67.0256 225.851 52.3539C230.872 50.4742 235.89 48.5953 240.91 46.7328C285.143 30.3225 329.578 15.1706 377.33 11.7997C459.634 5.99398 544.783 11.8956 629.014 17.7336L629.018 17.7339C668.473 20.4685 707.727 23.1891 746.393 24.6859C816.037 27.3837 885.741 28.1448 955.436 28.9058L955.447 28.906C977.029 29.1417 998.61 29.3773 1020.19 29.6705Z" fill="black"/>
<path d="M1014.6 54.5791C1014.71 54.1367 1014.83 53.6941 1014.93 53.2512C995.943 54.3543 976.938 55.6468 957.933 56.9394L957.923 56.94C943.564 57.9166 929.204 58.8932 914.848 59.7881C853.785 63.5951 792.784 65.9274 732.144 60.5232C691.059 56.8542 649.401 50.5239 607.54 44.1628C592.348 41.8543 577.13 39.5417 561.903 37.3509C504.736 29.1259 447.47 22.6209 391.152 24.5243C340.712 26.2256 291.993 39.2072 243.566 53.6995C235.942 55.9812 228.325 58.3001 220.71 60.6186C179.934 73.033 139.204 85.4334 97.5889 92.0213C73.771 95.7907 50.2378 95.9579 26.8618 93.8913C27.0141 94.3421 27.167 94.7926 27.3205 95.2429C50.5947 97.2637 74.0482 97.0697 97.7934 93.3117C139.507 86.7083 180.337 74.277 221.111 61.8624C228.721 59.5454 236.33 57.229 243.941 54.9511C292.36 40.4614 340.939 27.5253 391.196 25.83C447.394 23.9307 504.566 30.4213 561.717 38.6441C576.92 40.8316 592.124 43.142 607.308 45.4492L607.31 45.4496C649.183 51.8125 690.9 58.1518 732.028 61.8246C792.771 67.2379 853.854 64.8999 914.93 61.0921C929.305 60.1959 943.679 59.2184 958.048 58.2412C976.911 56.9584 995.765 55.6761 1014.6 54.5791Z" fill="black"/>
<path d="M1007.75 79.2938C1007.89 78.837 1008.03 78.3798 1008.16 77.9224C988.613 80.4605 968.988 83.3682 949.338 86.2796C933.788 88.5836 918.222 90.8898 902.666 93.0169C840.305 101.544 778.055 107.199 717.331 98.3711C676.466 92.4176 635.498 82.0901 594.381 71.7253L594.378 71.7247C583.521 68.9878 572.654 66.2483 561.776 63.5861C509.722 50.8472 457.436 39.884 404.956 39.5142C352.013 39.1444 299.162 49.7569 246.531 62.1912C235.679 64.7549 224.838 67.3958 214.007 70.0341C172.283 80.1978 130.712 90.3242 89.2932 95.8595C68.8899 98.593 48.6405 99.2802 28.481 98.6087C28.6348 99.0497 28.7891 99.4905 28.9441 99.931C48.9976 100.576 69.1531 99.876 89.4666 97.1544C130.961 91.6091 172.619 81.4614 214.35 71.2957L214.353 71.2949C225.175 68.6587 236.001 66.0213 246.831 63.4627C299.449 51.0315 352.171 40.452 404.947 40.8207C457.264 41.1893 509.424 52.1195 561.465 64.8552C572.319 67.5114 583.168 70.2464 594.013 72.9802L594.025 72.9832C635.15 83.3505 676.204 93.6997 717.142 99.6639C778.058 108.52 840.46 102.841 902.843 94.3114C918.434 92.1796 934.021 89.8702 949.584 87.5644C969.023 84.6842 988.425 81.8096 1007.75 79.2938Z" fill="black"/>
<path d="M999.631 103.713C999.803 103.236 999.974 102.759 1000.15 102.281C980.415 106.161 960.485 110.577 940.473 115.011L940.47 115.011C922.074 119.087 903.608 123.179 885.163 126.884C819.305 140.112 753.663 148.429 692.085 133.714C657.588 125.473 622.796 111.974 587.711 98.3609C577.504 94.4006 567.272 90.4306 557.016 86.5778C511.541 69.4951 465.612 54.7284 419.413 53.47C366.204 52.0097 311.053 60.1153 256.025 70.1682C240.963 72.9196 225.913 75.8164 210.914 78.7034L210.903 78.7056C171.081 86.3707 131.616 93.9669 93.2541 98.5904C72.0194 101.149 50.8956 102.269 29.833 102.437C29.9884 102.872 30.1445 103.306 30.301 103.74C51.2533 103.559 72.2749 102.434 93.4107 99.8876C131.821 95.2583 171.352 87.6494 211.189 79.9815L211.193 79.9807L211.196 79.9799C226.189 77.0942 241.224 74.2002 256.26 71.4534C311.273 61.4034 366.312 53.3197 419.377 54.776C465.342 56.0281 511.096 70.7235 556.556 87.8008C566.78 91.6413 576.99 95.6029 587.183 99.5583C622.283 113.177 657.189 126.721 691.781 134.985C753.653 149.77 819.534 141.399 885.42 128.165C903.926 124.447 922.429 120.348 940.846 116.267L940.848 116.267C960.574 111.896 980.203 107.547 999.631 103.713Z" fill="black"/>
<path d="M990.315 127.642C990.525 127.141 990.734 126.639 990.942 126.137C970.663 131.245 950.133 137.047 929.5 142.879L929.498 142.879C911.092 148.081 892.602 153.307 874.134 158.084C807.245 175.387 740.575 186.836 678.693 170.306C643.158 160.814 609.452 142.776 575.605 124.662C569.516 121.404 563.422 118.143 557.312 114.928C517.281 93.8689 476.586 74.8388 432.182 71.9677C376.688 68.3637 317.847 73.9552 259.022 81.6633C240.08 84.1453 221.143 86.8462 202.319 89.5311L202.317 89.5314C162.658 95.1878 123.5 100.773 85.8501 104.089C67.7981 105.676 49.7487 106.791 31.6989 107.567C31.8575 107.996 32.0167 108.425 32.1765 108.854C50.1084 108.077 68.0378 106.967 85.9648 105.391C123.65 102.071 162.869 96.4776 202.549 90.8183C221.364 88.1348 240.283 85.4365 259.191 82.9588C317.999 75.2529 376.736 69.6761 432.097 73.2715C476.199 76.123 516.678 95.0279 556.703 116.085C562.795 119.289 568.877 122.544 574.959 125.8C608.801 143.912 642.661 162.034 678.355 171.568C740.589 188.192 807.547 176.658 874.461 159.349C893 154.553 911.532 149.316 929.963 144.107C950.245 138.375 970.404 132.678 990.315 127.642Z" fill="black"/>
<path d="M979.151 152.444C979.41 151.908 979.667 151.372 979.924 150.835C975.387 152.245 970.83 153.696 966.254 155.179C951.478 159.966 936.533 165.077 921.49 170.222L921.486 170.224C902.421 176.744 883.197 183.319 863.953 189.359C795.133 210.961 726.626 225.532 666.502 205.722C632.938 194.661 602.966 174.093 572.896 153.458C567.835 149.985 562.771 146.511 557.688 143.079C522.439 119.286 486.239 97.5905 443.396 93.3456C385.784 87.6539 323.715 90.5657 261.551 95.7029C238.373 97.6182 215.189 99.8423 192.216 102.046L192.214 102.046L192.21 102.046C153.542 105.756 115.471 109.408 79.0375 111.434C64.0761 112.269 49.1241 113.177 34.1784 114.134C34.3426 114.56 34.5074 114.986 34.6729 115.412C49.4841 114.465 64.2963 113.565 79.1101 112.739C115.565 110.711 153.69 107.054 192.383 103.343L192.39 103.342C215.356 101.139 238.522 98.9169 261.658 97.005C323.804 91.8693 385.777 88.9662 443.267 94.6457C485.754 98.8554 521.715 120.374 556.956 144.162C562.022 147.582 567.075 151.049 572.129 154.518C602.19 175.149 632.337 195.838 666.092 206.963C726.649 226.915 795.519 212.209 864.344 190.606C883.579 184.568 902.855 177.976 921.952 171.445L921.958 171.443C937.005 166.298 951.94 161.19 966.657 156.421C970.839 155.067 975.004 153.739 979.151 152.444Z" fill="black"/>
<path d="M965.937 177.978C966.258 177.399 966.577 176.82 966.895 176.24C964.594 177.074 962.286 177.919 959.972 178.774C944.909 184.337 929.598 190.297 914.143 196.313C894.724 203.873 875.077 211.521 855.408 218.581C784.798 243.925 714.56 261.424 656.038 239.255C623.917 227.086 597.37 204.962 570.781 182.803L570.777 182.8C566.497 179.234 562.217 175.666 557.912 172.139C526.898 146.732 494.644 123.462 452.536 118.232C366.732 107.565 270.836 112.354 178.785 116.952C142.689 118.755 107.184 120.528 73.1113 121.328C61.2384 121.606 49.4274 122.162 37.6644 122.935C37.8375 123.36 38.0111 123.785 38.1853 124.21C49.7874 123.453 61.435 122.908 73.142 122.634C107.293 121.832 142.846 120.057 178.969 118.252L178.971 118.252C270.979 113.657 366.692 108.877 452.375 119.528C494.082 124.709 526.084 147.755 557.083 173.15C561.373 176.664 565.644 180.224 569.92 183.788C596.497 205.94 623.232 228.223 655.575 240.477C714.594 262.834 785.26 245.148 855.85 219.811C875.504 212.756 895.203 205.088 914.654 197.517L914.658 197.515L914.664 197.513C930.123 191.495 945.426 185.538 960.425 179.999C962.267 179.319 964.104 178.645 965.937 177.978Z" fill="black"/>
<path d="M955.295 196.302C955.64 195.734 955.985 195.165 956.329 194.595C922.245 205.562 889.046 218.676 854.84 232.189C846.855 235.343 838.816 238.519 830.697 241.694C826.151 243.474 821.539 245.31 816.87 247.169C792.597 256.832 766.773 267.113 740.597 273.325C709.398 280.73 677.782 282.33 647.814 270.236C616.468 257.58 592.669 235.033 568.9 212.516C565.215 209.024 561.53 205.533 557.818 202.08C530.201 176.39 501.112 152.837 459.119 147.14C363.263 134.102 257.389 134.33 156.169 134.547H156.165C126.345 134.611 96.9299 134.674 68.2937 134.397C59.6788 134.314 51.1481 134.476 42.6874 134.846C42.8744 135.274 43.0618 135.702 43.2499 136.13C51.5228 135.776 59.862 135.622 68.2812 135.704C96.9556 135.981 126.397 135.918 156.234 135.854C257.438 135.637 363.186 135.41 458.943 148.435C500.506 154.073 529.338 177.371 556.927 203.036C560.624 206.475 564.299 209.958 567.98 213.446C591.735 235.955 615.73 258.691 647.324 271.447C677.64 283.682 709.56 282.034 740.899 274.597C767.177 268.36 793.106 258.037 817.377 248.374L817.38 248.373C822.042 246.516 826.643 244.685 831.173 242.911C839.295 239.734 847.336 236.558 855.319 233.405C889.054 220.079 921.768 207.156 955.295 196.302Z" fill="black"/>
<path d="M938.758 221.751C939.182 221.137 939.606 220.523 940.028 219.908C910.842 230.332 882.221 242.366 852.749 254.758L852.741 254.762C844.119 258.387 835.424 262.043 826.621 265.698C822.76 267.299 818.823 268.953 814.817 270.635C790.497 280.849 763.679 292.111 736.37 299.131C704.568 307.307 672.19 309.704 642.414 298.034C611.119 285.773 589.05 264.118 567.091 242.57L567.089 242.568C563.832 239.372 560.577 236.179 557.295 233.018C531.909 208.574 504.935 186.193 462.698 180.701C333.675 163.972 195.385 157.141 65.0288 151.345C59.9995 151.123 55.0164 151.01 50.0752 150.996C50.2842 151.432 50.4936 151.869 50.7038 152.305C55.4202 152.326 60.1747 152.438 64.9711 152.65C195.332 158.446 333.569 165.276 462.53 181.996C504.33 187.432 531.047 209.558 556.388 233.959C559.655 237.105 562.901 240.29 566.153 243.482L566.158 243.487C588.104 265.027 610.375 286.885 641.937 299.251C672.077 311.063 704.768 308.605 736.695 300.397C764.106 293.35 791.021 282.046 815.337 271.834C819.339 270.153 823.271 268.502 827.123 266.904C835.933 263.246 844.632 259.589 853.255 255.963L853.259 255.962C882.161 243.81 910.211 232.016 938.758 221.751Z" fill="black"/>
<path d="M918.154 249.474C918.69 248.802 919.224 248.128 919.756 247.453C897.741 255.945 875.866 265.218 853.491 274.704C844.542 278.498 835.512 282.326 826.361 286.151C822.967 287.57 819.508 289.029 815.99 290.513C791.389 300.893 763.941 312.473 735.942 319.793C703.943 328.158 671.311 330.932 641.477 320.032C610.025 308.546 588.104 288.143 566.32 267.867C563.212 264.974 560.107 262.084 556.978 259.223C531.931 236.324 505.365 215.337 463.396 210.161C332.475 194.026 196.969 180.032 65.1173 171.281C63.4684 171.172 61.8252 171.075 60.1875 170.99C60.4271 171.439 60.6674 171.888 60.9084 172.337C62.2786 172.411 63.6525 172.493 65.0305 172.585C196.851 181.334 332.331 195.325 463.236 211.458C504.787 216.583 531.099 237.334 556.096 260.187C559.21 263.035 562.306 265.917 565.408 268.805L565.416 268.812C587.188 289.081 609.31 309.676 641.028 321.26C671.22 332.29 704.155 329.453 736.273 321.057C764.371 313.711 791.912 302.091 816.506 291.714C820.022 290.231 823.477 288.773 826.866 287.356C836.024 283.528 845.058 279.698 854.009 275.904C875.684 266.716 896.87 257.735 918.154 249.474Z" fill="black"/>
<path d="M891.969 279.859C892.656 279.121 893.342 278.38 894.026 277.638C880.978 282.796 867.888 288.128 854.639 293.525C846.335 296.907 837.968 300.315 829.509 303.722C825.673 305.266 821.764 306.858 817.792 308.475C793.343 318.43 766.481 329.368 739.129 336.3C707.337 344.356 674.968 346.976 645.054 336.386C613.685 325.3 590.957 305.664 568.328 286.113L568.325 286.11C565.209 283.418 562.095 280.727 558.96 278.061C533.081 256.047 505.856 235.738 464.844 230.21C335.953 212.857 203.108 198.088 73.2909 187.454C71.9177 187.341 70.5482 187.238 69.1823 187.144C69.4469 187.599 69.7121 188.055 69.9781 188.509C71.0446 188.586 72.1132 188.668 73.1841 188.756C202.976 199.388 335.798 214.154 464.669 231.505C505.293 236.98 532.277 257.079 558.113 279.056C561.238 281.715 564.348 284.402 567.464 287.094C590.079 306.637 613.001 326.444 644.618 337.618C674.878 348.331 707.54 345.653 739.45 337.566C766.898 330.61 793.853 319.634 818.297 309.681C822.266 308.064 826.169 306.475 829.998 304.934C838.461 301.525 846.83 298.117 855.132 294.735C867.524 289.687 879.77 284.699 891.969 279.859Z" fill="black"/>
<path d="M838.113 329.998C839.17 329.145 840.224 328.288 841.275 327.427C774.583 352.38 708.497 369.139 651.32 350.263C619.792 339.863 595.837 321.421 571.933 303.018C568.866 300.657 565.799 298.296 562.718 295.953C535.644 275.367 507.449 256.191 467.474 250.333C341.804 231.946 214.133 214.26 87.7882 200.525C84.039 200.118 80.3131 199.788 76.609 199.53C76.8919 199.987 77.1755 200.444 77.4599 200.901C80.8371 201.146 84.2325 201.453 87.6471 201.824C213.967 215.556 341.62 233.24 467.285 251.625C506.914 257.433 534.885 276.432 561.927 296.993C565.001 299.331 568.064 301.689 571.132 304.051C595.02 322.444 619.157 341.029 650.91 351.504C707.505 370.188 772.618 354.214 838.113 329.998Z" fill="black"/>
<path d="M800.443 357.658C801.576 356.902 802.706 356.142 803.833 355.378C753.59 369.274 704.565 375.285 659.872 361.962C627.925 352.449 602.297 335.539 576.663 318.625C573.785 316.726 570.905 314.826 568.018 312.938C539.435 294.24 509.998 276.589 471.139 270.382C426.274 263.227 381.408 255.717 336.526 248.205L336.523 248.204C260.07 235.408 183.57 222.603 106.946 211.53C98.8097 210.352 90.74 209.584 82.7287 209.179C83.0224 209.631 83.317 210.082 83.6121 210.533C91.2725 210.949 98.9854 211.698 106.758 212.823C183.371 223.895 259.843 236.695 336.284 249.489L336.301 249.492C381.182 257.004 426.052 264.514 470.933 271.672C509.5 277.832 538.74 295.347 567.302 314.031C570.178 315.912 573.047 317.805 575.918 319.7L575.948 319.72C601.565 336.624 627.355 353.642 659.498 363.214C703.399 376.301 751.378 370.856 800.443 357.658Z" fill="black"/>
<path d="M770.218 376.341C771.266 375.742 772.312 375.139 773.356 374.533C737.844 380.185 703.128 380.676 670.081 372.108C636.948 363.509 608.406 348.277 579.729 332.973L579.727 332.972C577.886 331.989 576.044 331.006 574.201 330.025C543.662 313.766 512.64 297.912 475.56 290.507C443.588 284.114 411.615 277.653 379.635 271.19L379.626 271.188C296.187 254.327 212.701 237.455 129.062 221.761C115.535 219.223 102.004 217.993 88.4747 217.828C88.7735 218.268 89.073 218.708 89.3732 219.147C102.527 219.355 115.678 220.579 128.821 223.045C212.451 238.738 295.925 255.607 379.361 272.468L379.372 272.47L379.434 272.483C411.394 278.941 443.348 285.399 475.304 291.789C512.176 299.152 543.046 314.919 573.586 331.178C575.439 332.164 577.29 333.152 579.141 334.14C607.793 349.432 636.463 364.733 669.753 373.373C701.97 381.726 735.735 381.518 770.218 376.341Z" fill="black"/>
<path d="M749.338 387.64C750.272 387.163 751.205 386.682 752.136 386.198C728.213 387.452 704.61 386.11 681.507 381.073C647.024 373.56 615.512 360.056 583.824 346.476L581.682 345.557C549.288 331.678 516.639 317.862 480.475 310.518C410.742 296.363 341.56 279.01 272.406 261.664L272.396 261.661C232.434 251.637 192.481 241.616 152.437 232.215C133.686 227.808 114.436 226.323 94.8633 227.021C95.1661 227.447 95.4696 227.873 95.7736 228.297C114.946 227.676 133.788 229.174 152.137 233.487C192.142 242.878 232.079 252.896 272.037 262.919L272.04 262.919C341.218 280.271 410.458 297.639 480.215 311.798C516.229 319.112 548.76 332.874 581.167 346.758L583.352 347.695C615.009 361.262 646.621 374.81 681.229 382.35C703.535 387.212 726.294 388.649 749.338 387.64Z" fill="black"/>
<path d="M734.834 394.775C735.698 394.367 736.56 393.957 737.421 393.544C725.892 393.251 714.389 392.374 702.918 390.811C666.035 385.782 630.605 373.731 595.084 361.177C592.723 360.343 590.363 359.507 588.001 358.67C554.842 346.921 521.516 335.114 486.856 328.606C432.303 318.369 378.998 301.933 325.69 285.341L321.837 284.142C269.825 267.949 217.78 251.746 164.604 241.182C144.905 237.269 124.3 236.6 103.117 238.301C103.427 238.714 103.739 239.126 104.05 239.538C124.836 237.928 145.038 238.628 164.35 242.463C217.457 253.014 269.444 269.199 321.477 285.398L325.301 286.588C378.6 303.178 431.975 319.637 486.615 329.89C521.171 336.378 554.406 348.153 587.586 359.909C589.94 360.743 592.294 361.577 594.648 362.409C630.161 374.96 665.709 387.056 702.741 392.106C713.414 393.56 724.114 394.422 734.834 394.775Z" fill="black"/>
<path d="M721.941 400.651C722.774 400.285 723.606 399.918 724.436 399.548C721.406 399.305 718.376 399.026 715.347 398.709C678.277 394.82 641.029 385.731 603.82 375.847C596.965 374.025 590.11 372.177 583.258 370.329L583.191 370.311L583.186 370.31C552.889 362.14 522.646 353.985 492.621 348.248C440.423 338.272 389.692 321.073 339.018 303.383C335.438 302.133 331.857 300.881 328.277 299.628C281.199 283.16 234.083 266.678 185.864 255.621C162.256 250.199 138.948 250.749 115.896 254.59C116.214 254.979 116.533 255.368 116.852 255.756C139.54 252.047 162.423 251.578 185.571 256.895C233.715 267.935 280.763 284.392 327.855 300.865L327.914 300.886C331.471 302.13 335.029 303.374 338.587 304.617C389.256 322.305 440.071 339.534 492.375 349.531C522.347 355.258 552.531 363.397 582.825 371.566L582.829 371.567L582.874 371.579C589.739 373.43 596.609 375.283 603.485 377.109C640.699 386.995 678.032 396.108 715.21 400.009C717.454 400.243 719.698 400.457 721.941 400.651Z" fill="black"/>
<path d="M708.061 406.504C708.921 406.156 709.78 405.806 710.638 405.454C659.43 400.313 606.285 389.588 554.659 379.169C535.573 375.318 516.693 371.508 498.196 368.037C450.372 359.063 403.846 340.6 357.275 322.118L354.792 321.133C353.504 320.622 352.217 320.112 350.929 319.601C302.261 300.309 253.48 281.469 203.175 273.999C180.215 270.589 156.267 270.58 131.706 273.032C132.068 273.434 132.43 273.836 132.793 274.237C156.926 271.89 180.439 271.943 202.983 275.291C253.116 282.736 301.762 301.517 350.447 320.816C352.576 321.66 354.705 322.504 356.835 323.349C403.372 341.817 450.004 360.323 497.955 369.321C516.41 372.784 535.261 376.588 554.33 380.436L554.337 380.438C605.158 390.694 657.526 401.263 708.061 406.504Z" fill="black"/>
<path d="M688.548 413.937C689.531 413.586 690.512 413.231 691.492 412.874C628.637 407.645 563.228 398.521 503.101 388.009C455.398 379.683 409.135 361.562 362.829 343.425L359.063 341.95C311.522 323.337 263.896 304.987 214.701 297.59C194.837 294.604 174.166 294.026 152.946 295.295C153.364 295.708 153.782 296.119 154.201 296.531C174.927 295.357 195.108 295.966 214.507 298.882C263.533 306.253 311.026 324.546 358.586 343.166L362.403 344.661L362.405 344.662C408.672 362.784 455.042 380.947 502.876 389.296C562.126 399.654 626.514 408.668 688.548 413.937Z" fill="black"/>
<path d="M661.03 422.911C662.348 422.522 663.663 422.128 664.976 421.729C612.468 420.116 559.89 416.108 507.149 408.239C459.081 401.06 412.261 384.661 365.397 368.246L365.394 368.245L363.043 367.422C315.415 350.742 267.721 334.206 218.718 327.568C207.886 326.104 196.848 325.255 185.641 324.945C186.185 325.398 186.731 325.85 187.278 326.301C197.866 326.646 208.298 327.478 218.543 328.863C267.392 335.48 314.964 351.968 362.611 368.655L365.014 369.496C411.841 385.898 458.763 402.333 506.955 409.531C558.448 417.214 609.779 421.219 661.03 422.911Z" fill="black"/>
<path d="M586.359 439C588.511 438.702 590.659 438.39 592.803 438.065C564.573 436.482 536.423 434.174 508.383 430.941C459.563 425.312 411.319 411.49 362.998 397.645L362.544 397.515C360.533 396.939 358.522 396.363 356.51 395.787C320.011 385.342 283.452 375.094 246.597 368.592C247.63 369.223 248.667 369.852 249.705 370.477C285.346 376.984 320.744 386.911 356.15 397.043C358.325 397.665 360.499 398.288 362.674 398.911C410.965 412.748 459.304 426.597 508.233 432.239C534.191 435.231 560.24 437.433 586.359 439Z" fill="black"/>
</svg>
