<svg width="220" height="362" viewBox="0 0 220 362" fill="none" xmlns="http://www.w3.org/2000/svg">
<path d="M-138.219 -220.272C-134.26 -220.935 -130.305 -221.609 -126.35 -222.284C-122.99 -222.857 -119.629 -223.43 -116.267 -223.995C-114.844 -224.235 -113.421 -224.473 -111.997 -224.71C-107.777 -225.229 -103.53 -225.66 -99.2565 -226C-104.893 -225.128 -110.519 -224.202 -116.143 -223.256C-119.501 -222.691 -122.859 -222.118 -126.218 -221.545L-126.22 -221.545C-133.738 -220.263 -141.263 -218.98 -148.811 -217.777C-145.305 -218.672 -141.774 -219.504 -138.219 -220.272Z" fill="black"/>
<path d="M-203.657 -197.781C-202.945 -198.124 -202.232 -198.464 -201.517 -198.802C-197.374 -199.31 -193.226 -199.791 -189.074 -200.241C-167.552 -202.573 -146.666 -207.043 -125.795 -211.509L-125.789 -211.51C-122.413 -212.233 -119.036 -212.955 -115.657 -213.669C-91.4023 -218.79 -67.0389 -223.438 -41.6453 -224.234C-39.871 -224.29 -38.0978 -224.334 -36.3257 -224.367C-34.6952 -224.151 -33.0688 -223.921 -31.4468 -223.679C-34.8347 -223.655 -38.2262 -223.591 -41.6216 -223.484C-66.9438 -222.69 -91.2512 -218.055 -115.503 -212.935C-118.879 -212.222 -122.255 -211.5 -125.632 -210.777C-146.502 -206.311 -167.43 -201.832 -188.993 -199.495C-193.888 -198.966 -198.775 -198.392 -203.657 -197.781Z" fill="black"/>
<path d="M-235.132 -180.158C-234.647 -180.47 -234.16 -180.781 -233.672 -181.091C-219.401 -182.827 -205.199 -184.63 -191.117 -186.485C-168.497 -189.463 -146.822 -195.374 -125.167 -201.281L-125.166 -201.281C-121.652 -202.239 -118.139 -203.197 -114.623 -204.143C-89.4453 -210.912 -64.1039 -217.026 -37.2154 -217.833C-23.4176 -218.247 -9.79263 -217.533 3.73575 -216.196C5.12061 -215.812 6.50137 -215.418 7.87799 -215.013C-7.01282 -216.624 -21.9999 -217.539 -37.1929 -217.083C-63.9873 -216.279 -89.2558 -210.186 -114.428 -203.418C-117.94 -202.474 -121.451 -201.517 -124.963 -200.559C-146.615 -194.653 -168.344 -188.726 -191.019 -185.741C-205.614 -183.819 -220.336 -181.953 -235.132 -180.158Z" fill="black"/>
<path d="M-255.69 -165.666C-255.334 -165.94 -254.978 -166.214 -254.621 -166.486C-234.018 -167.817 -213.562 -169.638 -193.471 -172.37C-168.694 -175.741 -145.382 -183.781 -122.06 -191.826L-122.056 -191.827C-119.1 -192.847 -116.144 -193.866 -113.184 -194.877C-86.8898 -203.853 -60.3557 -212.078 -31.555 -212.81C-7.08963 -213.427 16.3422 -209.115 39.543 -203.709C40.8588 -203.152 42.1697 -202.586 43.4756 -202.011C18.9448 -207.856 -5.7261 -212.711 -31.536 -212.061C-60.2118 -211.331 -86.6507 -203.142 -112.942 -194.167C-115.901 -193.157 -118.858 -192.137 -121.815 -191.117C-145.129 -183.075 -168.514 -175.008 -193.37 -171.627C-213.839 -168.844 -234.692 -167.004 -255.69 -165.666Z" fill="black"/>
<path d="M-271.498 -152.592C-271.221 -152.838 -270.943 -153.084 -270.665 -153.329C-245.385 -152.919 -220.33 -153.762 -196.134 -157.935C-170.49 -162.35 -146.512 -172.286 -122.529 -182.224L-122.525 -182.226C-118.867 -183.742 -115.208 -185.258 -111.544 -186.754C-83.8733 -198.054 -55.873 -208.231 -25.0877 -208.741C3.09668 -209.209 29.0863 -201.309 54.8082 -192.386C58.4169 -191.134 62.0201 -189.862 65.6232 -188.59C69.4133 -187.252 73.2035 -185.914 77.0001 -184.599C77.9926 -184 78.9813 -183.395 79.9661 -182.785C75.0859 -184.453 70.2226 -186.17 65.3634 -187.886L65.3615 -187.887C61.7612 -189.158 58.1633 -190.428 54.5623 -191.677C28.8477 -200.598 2.96646 -208.456 -25.0753 -207.991C-55.7085 -207.484 -83.5953 -197.358 -111.261 -186.06C-114.92 -184.566 -118.575 -183.051 -122.232 -181.535L-122.234 -181.535C-146.211 -171.598 -170.274 -161.626 -196.006 -157.196C-220.528 -152.967 -245.917 -152.151 -271.498 -152.592Z" fill="black"/>
<path d="M-283.469 -141.37C-283.241 -141.596 -283.012 -141.822 -282.783 -142.048C-254.405 -138.873 -226.186 -137.621 -198.945 -143.33C-172.54 -148.854 -147.769 -160.793 -122.968 -172.747C-118.559 -174.872 -114.149 -176.998 -109.729 -179.087C-80.4687 -192.923 -50.7745 -205.191 -18.0467 -205.308C10.6218 -205.414 36.0873 -195.14 61.1425 -183.545C64.8232 -181.841 68.4947 -180.11 72.1662 -178.378C84.3975 -172.609 96.6286 -166.841 109.198 -162.118C109.809 -161.628 110.418 -161.137 111.024 -160.642C97.6725 -165.518 84.7345 -171.62 71.832 -177.706C68.1638 -179.436 64.4985 -181.165 60.8275 -182.864C35.7814 -194.455 10.4463 -204.664 -18.0439 -204.558C-50.5919 -204.442 -80.1545 -192.242 -109.409 -178.409C-113.817 -176.325 -118.219 -174.203 -122.624 -172.08L-122.626 -172.079C-147.423 -160.126 -172.289 -148.14 -198.791 -142.596C-226.341 -136.823 -254.863 -138.142 -283.469 -141.37Z" fill="black"/>
<path d="M-293.06 -131.416C-292.864 -131.63 -292.667 -131.843 -292.47 -132.056C-262.149 -125.479 -231.859 -121.27 -201.818 -128.619C-174.451 -135.315 -148.662 -149.232 -122.802 -163.188C-117.817 -165.878 -112.829 -168.57 -107.826 -171.212C-76.9021 -187.543 -45.4433 -201.948 -10.7773 -202.087C18.3048 -202.204 43.3426 -189.464 67.7856 -175.018C71.6349 -172.743 75.469 -170.426 79.3018 -168.11C96.9405 -157.451 114.552 -146.809 133.493 -140.345C133.887 -139.951 134.28 -139.556 134.671 -139.159C115.094 -145.602 96.9634 -156.559 78.8912 -167.481L78.8896 -167.482C75.0629 -169.795 71.2388 -172.106 67.4041 -174.372C42.9697 -188.813 18.0865 -201.453 -10.7743 -201.337C-45.2412 -201.199 -76.5573 -186.877 -107.476 -170.549C-112.464 -167.915 -117.442 -165.228 -122.421 -162.54L-122.423 -162.539C-148.281 -148.584 -174.17 -134.611 -201.639 -127.891C-231.959 -120.473 -262.495 -124.771 -292.943 -131.391C-292.982 -131.399 -293.021 -131.408 -293.06 -131.416Z" fill="black"/>
<path d="M-301.057 -122.357C-300.883 -122.563 -300.708 -122.769 -300.533 -122.975C-298.658 -122.359 -296.784 -121.752 -294.909 -121.158C-265.349 -111.785 -235.692 -105.408 -204.69 -113.972C-176.554 -121.748 -149.754 -137.61 -122.815 -153.554C-117.213 -156.87 -111.604 -160.189 -105.976 -163.44C-73.3184 -182.306 -40.0258 -198.855 -3.63315 -198.802C25.9135 -198.759 50.5417 -183.569 74.3712 -166.342C78.2867 -163.511 82.1801 -160.626 86.0704 -157.743L86.0726 -157.742C105.89 -143.057 125.624 -128.434 147.759 -121.386C149.13 -120.949 150.506 -120.544 151.887 -120.17C152.161 -119.839 152.435 -119.508 152.709 -119.176C150.977 -119.626 149.25 -120.124 147.531 -120.671C125.266 -127.761 105.413 -142.474 85.5971 -157.159C81.7132 -160.038 77.8307 -162.915 73.9318 -165.734C50.1078 -182.957 25.652 -198.009 -3.63425 -198.052C-39.8079 -198.104 -72.9461 -181.655 -105.601 -162.791C-111.212 -159.55 -116.809 -156.237 -122.404 -152.925C-149.344 -136.979 -176.248 -121.054 -204.49 -113.249C-235.711 -104.625 -265.545 -111.06 -295.135 -120.443C-297.111 -121.069 -299.084 -121.709 -301.057 -122.357Z" fill="black"/>
<path d="M-307.95 -113.913C-307.791 -114.116 -307.631 -114.319 -307.471 -114.521C-304.008 -112.986 -300.548 -111.478 -297.084 -110.025C-268.496 -98.0273 -239.633 -89.668 -207.411 -99.4517C-178.618 -108.195 -150.838 -125.873 -122.833 -143.694L-122.832 -143.695C-116.648 -147.63 -110.454 -151.572 -104.235 -155.426C-69.8862 -176.714 -34.8082 -195.316 3.10864 -195.029C33.129 -194.805 57.382 -177.253 80.6286 -157.384C84.5521 -154.031 88.4455 -150.613 92.3335 -147.199C99.9798 -140.486 107.606 -133.791 115.401 -127.641C127.154 -118.369 139.256 -110.366 152.312 -105.463C156.865 -103.753 161.477 -102.472 166.142 -101.566C166.348 -101.273 166.555 -100.979 166.76 -100.685C161.798 -101.605 156.89 -102.942 152.049 -104.761C138.888 -109.703 126.716 -117.759 114.937 -127.052C107.126 -133.214 99.4732 -139.933 91.817 -146.655L91.8124 -146.659C87.9298 -150.067 84.0464 -153.477 80.1413 -156.814C56.8949 -176.683 32.8269 -194.058 3.10297 -194.279C-34.5771 -194.564 -69.4904 -176.077 -103.84 -154.788C-110.039 -150.947 -116.219 -147.013 -122.394 -143.083L-122.396 -143.082C-150.404 -125.258 -178.292 -107.51 -207.194 -98.7341C-239.675 -88.8715 -268.745 -97.3186 -297.374 -109.333C-300.905 -110.815 -304.428 -112.351 -307.95 -113.913Z" fill="black"/>
<path d="M-313.976 -105.977C-313.827 -106.18 -313.678 -106.383 -313.528 -106.586C-308.735 -103.922 -303.954 -101.297 -299.156 -98.7977C-271.561 -84.4232 -243.491 -74.2667 -209.877 -85.1864C-180.468 -94.7428 -151.768 -114.063 -122.757 -133.591L-122.753 -133.593C-116.087 -138.081 -109.405 -142.579 -102.693 -146.973C-66.8123 -170.462 -30.1192 -190.94 9.12982 -190.409C39.664 -189.993 63.5552 -170.287 86.2453 -148.037C90.1293 -144.228 93.9768 -140.346 97.8171 -136.471L97.8193 -136.469C105.213 -129.009 112.581 -121.575 120.131 -114.743C131.598 -104.367 143.45 -95.414 156.375 -89.9222C163.247 -87.0052 170.266 -85.226 177.4 -84.3664C177.564 -84.0959 177.727 -83.8251 177.89 -83.554C170.494 -84.3934 163.211 -86.2055 156.082 -89.2319C143.045 -94.7714 131.12 -103.788 119.628 -114.187C112.063 -121.032 104.668 -128.493 97.2643 -135.963C93.4272 -139.835 89.5876 -143.709 85.7201 -147.501C63.0245 -169.757 39.3259 -189.248 9.11969 -189.659C-29.8774 -190.187 -66.397 -169.837 -102.282 -146.345C-108.973 -141.966 -115.641 -137.476 -122.299 -132.994C-151.314 -113.461 -180.126 -94.0653 -209.645 -84.4731C-243.554 -73.4577 -271.857 -83.7316 -299.503 -98.1325C-304.337 -100.65 -309.153 -103.296 -313.976 -105.977Z" fill="black"/>
<path d="M-319.352 -98.3976C-319.21 -98.6038 -319.069 -98.8098 -318.927 -99.0156C-318.738 -98.8919 -318.55 -98.7682 -318.362 -98.6446L-318.36 -98.6437C-312.575 -94.8444 -306.83 -91.0712 -301.048 -87.515C-274.387 -71.1161 -247.052 -59.3945 -212.064 -71.2821C-183.722 -80.9035 -156.145 -98.2371 -130 -114.671C-123.251 -118.914 -116.597 -123.097 -110.05 -127.071C-103.687 -130.937 -96.8321 -135.41 -89.6162 -140.118C-77.6152 -147.948 -64.6165 -156.429 -51.2278 -163.852C-29.7748 -175.746 -7.20532 -184.996 14.1122 -184.602C45.2634 -184.026 68.7804 -162.481 90.9224 -138.217C94.7103 -134.066 98.4569 -129.837 102.195 -125.617L102.197 -125.615C109.403 -117.481 116.579 -109.38 123.964 -101.939C135.175 -90.6429 146.829 -80.9093 159.713 -74.9551C168.394 -70.9442 177.3 -68.9539 186.364 -68.4867C186.498 -68.23 186.633 -67.9732 186.767 -67.7161C177.467 -68.145 168.319 -70.1529 159.399 -74.2742C146.395 -80.2837 134.667 -90.0904 123.432 -101.411C116.033 -108.866 108.831 -116.996 101.615 -125.141C97.8795 -129.358 94.1403 -133.578 90.3684 -137.712C68.2161 -161.986 44.8956 -183.283 14.0984 -183.852C-7.01328 -184.242 -29.4374 -175.075 -50.8641 -163.196C-64.2393 -155.78 -77.1811 -147.335 -89.1593 -139.52C-96.3821 -134.807 -103.254 -130.322 -109.66 -126.43C-116.184 -122.47 -122.822 -118.297 -129.56 -114.061C-155.713 -97.6217 -183.388 -80.2247 -211.823 -70.5719C-247.134 -58.5744 -274.722 -70.4412 -301.441 -86.8762C-307.233 -90.4387 -312.989 -94.2187 -318.773 -98.0176C-318.966 -98.1442 -319.159 -98.271 -319.352 -98.3976Z" fill="black"/>
<path d="M-324.221 -91.0681C-324.086 -91.2788 -323.95 -91.4893 -323.814 -91.6996C-323.174 -91.2292 -322.535 -90.7585 -321.896 -90.2876C-320.73 -89.4273 -319.566 -88.5667 -318.405 -87.7074C-313.106 -83.7875 -307.847 -79.8972 -302.549 -76.2126C-276.719 -58.2494 -250.053 -45.2414 -213.804 -57.8022C-184.806 -67.8536 -156.489 -86.1778 -129.781 -103.461L-129.778 -103.463C-122.747 -108.013 -115.827 -112.49 -109.036 -116.726C-102.539 -120.782 -95.5176 -125.502 -88.1012 -130.487L-88.1001 -130.488C-85.7382 -132.076 -83.3363 -133.69 -80.8986 -135.319C-70.8103 -142.059 -60.116 -149.034 -49.1366 -155.311C-27.1891 -167.859 -4.05032 -177.653 17.7162 -177.184C49.6086 -176.502 72.7182 -153.549 94.3158 -127.759C97.945 -123.426 101.531 -119.013 105.109 -114.609L105.11 -114.608C112.197 -105.886 119.255 -97.1989 126.567 -89.2326C137.564 -77.2496 149.095 -66.9424 162.072 -60.6678C172.325 -55.712 182.835 -53.7459 193.51 -53.8952C193.623 -53.6471 193.736 -53.3988 193.848 -53.1504C182.962 -52.9544 172.225 -54.9272 161.745 -59.9926C148.643 -66.3281 137.036 -76.7163 126.014 -88.7255C118.688 -96.7076 111.604 -105.426 104.508 -114.159C100.933 -118.559 97.3543 -122.963 93.7408 -127.278C72.1304 -153.083 49.2185 -175.76 17.7001 -176.434C-3.85272 -176.898 -26.8415 -167.194 -48.7643 -154.66C-59.7202 -148.396 -70.3968 -141.433 -80.4819 -134.695C-82.9148 -133.07 -85.3136 -131.457 -87.6738 -129.871L-87.6752 -129.87C-95.0941 -124.883 -102.131 -120.153 -108.639 -116.09C-115.405 -111.87 -122.307 -107.403 -129.327 -102.86L-129.33 -102.859C-156.046 -85.5695 -184.466 -67.1779 -213.559 -57.0936C-250.152 -44.413 -277.084 -57.5895 -302.977 -75.5968C-308.285 -79.2884 -313.554 -83.1862 -318.854 -87.1064L-318.869 -87.1179C-320.025 -87.9728 -321.182 -88.8288 -322.341 -89.684C-322.967 -90.1457 -323.594 -90.6072 -324.221 -91.0681Z" fill="black"/>
<path d="M-328.737 -83.819C-328.607 -84.0345 -328.477 -84.2497 -328.346 -84.4648C-324.822 -81.7315 -321.343 -78.9546 -317.882 -76.1932C-313.093 -72.3713 -308.341 -68.5793 -303.562 -64.9743C-290.991 -55.4902 -278.19 -47.2629 -263.869 -43.0112C-249.56 -38.7628 -233.712 -38.4778 -215.033 -44.9169C-185.694 -55.0356 -156.873 -74.0815 -129.883 -91.9169L-129.881 -91.9183C-122.608 -96.7241 -115.469 -101.442 -108.488 -105.874C-101.9 -110.053 -94.7917 -114.915 -87.2883 -120.047L-87.2788 -120.053C-84.9196 -121.667 -82.5213 -123.307 -80.0879 -124.962C-69.9162 -131.876 -59.1383 -139.028 -48.0634 -145.463C-25.9248 -158.327 -2.54697 -168.36 19.6023 -167.88C52.4339 -167.156 75.0931 -143.336 96.1427 -116.624C99.5425 -112.31 102.9 -107.921 106.251 -103.539L106.253 -103.537C113.295 -94.3304 120.314 -85.1542 127.657 -76.7631C138.491 -64.383 149.994 -53.7583 163.237 -47.3371C175.005 -41.6299 186.989 -39.8954 199.098 -40.8067C199.195 -40.5636 199.292 -40.3202 199.388 -40.0767C187.09 -39.1169 174.895 -40.8499 162.91 -46.6622C149.534 -53.1478 137.952 -63.8596 127.093 -76.2692C119.733 -84.6784 112.689 -93.8884 105.638 -103.105C102.29 -107.484 98.9392 -111.864 95.5536 -116.16C74.4919 -142.887 52.0302 -166.414 19.5861 -167.131C-2.34695 -167.605 -25.5735 -157.663 -47.6866 -144.814C-58.7377 -138.393 -69.4977 -131.254 -79.6663 -124.341C-82.0919 -122.692 -84.4843 -121.056 -86.8391 -119.446L-86.8558 -119.434L-86.8567 -119.434C-94.3629 -114.3 -101.487 -109.428 -108.086 -105.24C-115.039 -100.826 -122.16 -96.1203 -129.421 -91.3222L-129.422 -91.3216C-156.42 -73.4794 -185.35 -54.3609 -214.789 -44.2079C-233.612 -37.719 -249.62 -37.9983 -264.083 -42.2922C-278.534 -46.5828 -291.422 -54.8758 -304.014 -64.3756C-308.829 -68.0076 -313.594 -71.8105 -318.387 -75.636C-321.813 -78.37 -325.254 -81.1161 -328.737 -83.819Z" fill="black"/>
<path d="M-333.389 -75.8233C-333.266 -76.0432 -333.142 -76.2628 -333.018 -76.4823C-328.025 -72.7265 -323.136 -68.8383 -318.285 -64.9807C-313.453 -61.1382 -308.659 -57.326 -303.839 -53.705C-291.256 -44.2526 -278.45 -36.0637 -264.154 -31.8542C-249.868 -27.6481 -234.073 -27.4093 -215.501 -33.8957C-186.121 -44.1546 -157.255 -62.9024 -130.097 -80.5412C-122.688 -85.3537 -115.405 -90.084 -108.274 -94.5365C-101.504 -98.7651 -94.1775 -103.714 -86.4369 -108.943L-86.4349 -108.945L-86.4218 -108.953C-84.2341 -110.431 -82.0133 -111.932 -79.7627 -113.444C-69.5471 -120.31 -58.7225 -127.426 -47.6096 -133.846C-25.3949 -146.681 -1.97601 -156.766 20.0866 -156.478C53.0283 -156.041 75.5508 -132.085 96.4332 -105.183C99.8032 -100.841 103.13 -96.424 106.451 -92.0133L106.454 -92.0101C113.44 -82.7327 120.404 -73.4851 127.702 -65.0372C138.465 -52.5778 149.916 -41.9053 163.152 -35.5112C176.409 -29.1039 189.846 -27.6828 203.378 -29.3866C203.462 -29.1454 203.547 -28.9041 203.631 -28.6627C189.931 -26.9129 176.292 -28.3273 162.826 -34.8359C149.454 -41.2955 137.923 -52.0576 127.134 -64.5469C119.821 -73.0133 112.831 -82.2953 105.836 -91.5837L105.829 -91.5925C102.512 -95.9967 99.1947 -100.402 95.8408 -104.723C74.9456 -131.642 52.6229 -155.296 20.0769 -155.728C-1.77325 -156.013 -25.0435 -146.017 -47.2344 -133.197C-58.3242 -126.79 -69.1314 -119.685 -79.3444 -112.822C-81.5953 -111.309 -83.8178 -109.807 -86.0081 -108.328L-86.0096 -108.327C-93.7523 -103.096 -101.094 -98.1368 -107.876 -93.9003C-114.98 -89.4648 -122.244 -84.7468 -129.642 -79.9419L-129.643 -79.9413C-156.81 -62.2957 -185.779 -43.4796 -215.254 -33.1876C-233.971 -26.6506 -249.926 -26.8834 -264.365 -31.1348C-278.793 -35.3828 -291.686 -43.6373 -304.289 -53.1053C-309.146 -56.7539 -313.953 -60.577 -318.789 -64.423C-323.601 -68.2502 -328.442 -72.1001 -333.389 -75.8233Z" fill="black"/>
<path d="M-338.164 -66.9618C-338.048 -67.1855 -337.932 -67.4091 -337.816 -67.6325C-333.01 -64.3487 -328.297 -60.937 -323.628 -57.5194C-322.5 -56.6939 -321.375 -55.8681 -320.251 -55.0437C-314.913 -51.1259 -309.617 -47.2395 -304.283 -43.5625C-278.464 -25.7664 -251.846 -12.9535 -215.756 -25.6302C-186.321 -35.9674 -157.541 -53.4556 -130.056 -70.1572L-130.055 -70.1578C-122.477 -74.763 -114.997 -79.3083 -107.629 -83.6275C-100.379 -87.8775 -92.4529 -92.956 -84.0505 -98.3399C-82.3119 -99.4539 -80.5529 -100.581 -78.7752 -101.717C-68.4105 -108.337 -57.4182 -115.241 -46.1683 -121.494C-23.6805 -133.993 -0.109772 -143.922 21.5892 -143.762C53.7912 -143.517 76.1347 -119.802 96.8307 -93.1185C100.284 -88.6664 103.69 -84.1325 107.09 -79.6077C113.897 -70.548 120.676 -61.5247 127.747 -53.2678C138.345 -40.893 149.558 -30.2896 162.413 -23.9383C177.076 -16.6929 192.001 -15.633 207.054 -18.2061C207.128 -17.9652 207.201 -17.7242 207.275 -17.483C192.07 -14.8689 176.95 -15.9189 162.081 -23.2659C149.091 -29.6837 137.799 -40.377 127.178 -52.78C120.092 -61.0543 113.286 -70.1118 106.47 -79.1836C103.074 -83.7034 99.6753 -88.2271 96.238 -92.6589C75.5273 -119.362 53.3858 -142.77 21.5837 -143.012C0.0904236 -143.171 -23.3353 -133.326 -45.804 -120.838C-57.0324 -114.597 -68.0084 -107.704 -78.3715 -101.085C-80.1452 -99.9515 -81.9012 -98.8263 -83.6375 -97.7138L-83.6407 -97.7117C-92.0436 -92.3275 -99.9852 -87.2389 -107.25 -82.9805C-114.594 -78.6754 -122.057 -74.1399 -129.625 -69.5409L-129.626 -69.5403C-157.12 -52.8327 -185.99 -35.2885 -215.507 -24.9226C-251.941 -12.1249 -278.826 -25.1044 -304.708 -42.945C-310.053 -46.629 -315.36 -50.5236 -320.699 -54.4419C-321.821 -55.2655 -322.945 -56.0902 -324.071 -56.9142C-328.715 -60.3132 -333.395 -63.7016 -338.164 -66.9618Z" fill="black"/>
<path d="M-342.767 -57.6598C-342.66 -57.8868 -342.552 -58.1136 -342.444 -58.3403C-336.585 -54.8499 -330.847 -51.1763 -325.163 -47.5028C-324.292 -46.9397 -323.422 -46.3765 -322.553 -45.814C-316.755 -42.0616 -311.002 -38.3387 -305.215 -34.8348C-278.604 -18.7229 -251.346 -7.29994 -216.091 -19.21C-186.378 -29.2584 -157.324 -45.3446 -129.259 -60.8831C-121.608 -65.1187 -114.032 -69.3136 -106.535 -73.3344C-98.7892 -77.4884 -90.2581 -82.5413 -81.2021 -87.9051C-79.8496 -88.7062 -78.4854 -89.5142 -77.1103 -90.3272C-66.5321 -96.5814 -55.3176 -103.127 -43.8803 -109.058C-21.0178 -120.915 2.78952 -130.348 24.2407 -130.071C55.7112 -129.677 77.4764 -106.375 97.5923 -80.1598C100.995 -75.7257 104.349 -71.2092 107.697 -66.7026L107.697 -66.7017C114.263 -57.8615 120.801 -49.0591 127.618 -40.9905C137.905 -28.8145 148.787 -18.3609 161.272 -12.0472C177.239 -3.97572 193.647 -3.41235 210.257 -6.96951C210.32 -6.72755 210.384 -6.48547 210.447 -6.24327C193.704 -2.65221 177.104 -3.20345 160.934 -11.3779C148.315 -17.759 137.355 -28.3028 127.045 -40.5065C120.213 -48.5922 113.65 -57.4291 107.075 -66.2818C103.731 -70.7838 100.384 -75.2898 96.9973 -79.7032C76.8669 -105.937 55.3022 -128.932 24.231 -129.321C2.97736 -129.596 -20.6887 -120.241 -43.535 -108.393C-54.9522 -102.472 -66.1511 -95.9354 -76.7286 -89.6816C-78.0949 -88.8737 -79.4509 -88.0706 -80.7958 -87.274L-80.8179 -87.2609C-89.8724 -81.898 -98.4193 -76.8357 -106.181 -72.6734C-113.657 -68.6637 -121.219 -64.4765 -128.86 -60.2457C-156.933 -44.7025 -186.067 -28.5719 -215.85 -18.4995C-251.423 -6.48213 -278.93 -18.0434 -305.604 -34.1932C-311.401 -37.7033 -317.164 -41.4328 -322.961 -45.1847C-323.83 -45.7472 -324.7 -46.3101 -325.57 -46.8729C-331.235 -50.5335 -336.943 -54.188 -342.767 -57.6598Z" fill="black"/>
<path d="M-347.2 -47.8267C-347.101 -48.0569 -347.002 -48.2869 -346.903 -48.5168C-339.554 -44.8631 -332.364 -40.9567 -325.233 -37.0827C-318.987 -33.6895 -312.786 -30.321 -306.565 -27.1687C-279.008 -13.2063 -250.974 -3.43585 -216.464 -14.19C-186.418 -23.5553 -156.954 -38.0203 -128.233 -52.1206C-120.46 -55.9371 -112.74 -59.7269 -105.079 -63.3816C-96.7331 -67.3586 -87.5005 -72.2816 -77.7069 -77.5037L-77.7055 -77.5045L-77.6061 -77.5575C-76.7061 -78.0374 -75.8013 -78.5198 -74.8921 -79.0042C-64.0551 -84.778 -52.5873 -90.8341 -40.9347 -96.3118C-17.6413 -107.262 6.44443 -115.927 27.7633 -115.384C58.5116 -114.584 79.3844 -91.8667 98.6194 -66.3525C101.86 -62.0542 105.053 -57.6775 108.24 -53.3095C114.529 -44.6889 120.794 -36.1021 127.35 -28.2177C137.221 -16.3445 147.714 -6.11461 159.855 0.161636C176.979 9.01271 194.839 8.96661 213.004 4.36107C213.058 4.60527 213.112 4.84958 213.165 5.09401C194.886 9.72437 176.838 9.78397 159.511 0.827896C147.237 -5.51654 136.668 -15.8363 126.773 -27.7382C120.203 -35.6396 113.913 -44.2607 107.615 -52.8931L107.614 -52.8944C104.431 -57.2575 101.245 -61.6236 98.0205 -65.901C78.7734 -91.4312 58.0965 -113.845 27.7442 -114.635C6.61264 -115.173 -17.3366 -106.576 -40.6157 -95.633C-52.2494 -90.1643 -63.7022 -84.1163 -74.5395 -78.3423C-75.4833 -77.8394 -76.4225 -77.3387 -77.3567 -76.8405C-87.1462 -71.6205 -96.394 -66.6894 -104.756 -62.7046C-112.398 -59.059 -120.105 -55.2756 -127.87 -51.4633L-127.873 -51.4615C-156.601 -37.3576 -186.134 -22.8582 -216.241 -13.474C-251.033 -2.63202 -279.289 -12.5079 -306.904 -26.4996C-313.167 -29.6731 -319.394 -33.0558 -325.657 -36.4576C-332.758 -40.3152 -339.905 -44.1975 -347.2 -47.8267Z" fill="black"/>
<path d="M-351.376 -37.5617C-351.286 -37.7951 -351.196 -38.0283 -351.105 -38.2614C-343.432 -35.2354 -335.888 -31.986 -328.397 -28.7591L-328.395 -28.7585C-321.678 -25.8651 -315.003 -22.9898 -308.314 -20.3101C-279.68 -8.83844 -250.74 -0.916824 -216.939 -10.2513C-186.474 -18.6527 -156.487 -31.3209 -127.02 -43.7691L-127.016 -43.7709C-119.123 -47.1054 -111.267 -50.4241 -103.449 -53.6407C-94.4596 -57.3385 -84.4958 -61.9986 -73.9491 -66.9314L-72.3888 -67.661C-61.2678 -72.8611 -49.5307 -78.3219 -37.6469 -83.2371C-13.8903 -93.063 10.5053 -100.733 31.7974 -99.7643C61.9172 -98.3991 81.6316 -76.3728 99.732 -51.7331C102.685 -47.7133 105.594 -43.6251 108.499 -39.5428L108.5 -39.5409C114.515 -31.0891 120.511 -22.6629 126.839 -14.9232C136.22 -3.45107 146.295 6.46468 158.161 12.6453C176.363 22.1295 195.622 21.3715 215.283 15.7039C215.328 15.9513 215.372 16.1988 215.417 16.4464C195.662 22.1281 176.219 22.9002 157.814 13.3105C145.816 7.06113 135.665 -2.94495 126.259 -14.4485C119.914 -22.2079 113.892 -30.6705 107.868 -39.1349L107.866 -39.1385C104.965 -43.2144 102.065 -47.2908 99.1276 -51.2891C81.019 -75.9399 61.4938 -97.6675 31.7634 -99.0151C10.6474 -99.9753 -13.6171 -92.3644 -37.3602 -82.544C-49.2263 -77.6361 -60.949 -72.1823 -72.0712 -66.9816L-73.6382 -66.2488L-73.6395 -66.2482C-84.1794 -61.3186 -94.1577 -56.6517 -103.164 -52.9471C-110.968 -49.7361 -118.815 -46.421 -126.703 -43.0885C-156.176 -30.6376 -186.222 -17.9441 -216.74 -9.52831C-250.78 -0.127838 -279.91 -8.12248 -308.593 -19.6139C-315.321 -22.3092 -322.021 -25.1951 -328.754 -28.0949C-336.227 -31.3139 -343.74 -34.55 -351.376 -37.5617Z" fill="black"/>
<path d="M-355.201 -27.0274C-355.12 -27.2643 -355.039 -27.501 -354.957 -27.7376C-347.208 -25.4777 -339.544 -23.0471 -331.917 -20.6284C-324.723 -18.347 -317.562 -16.076 -310.395 -13.9691C-280.587 -5.20583 -250.622 0.743103 -217.476 -7.01244C-186.538 -14.2448 -155.96 -24.9696 -125.749 -35.5659C-117.739 -38.3754 -109.754 -41.1759 -101.796 -43.8998C-92.0381 -47.237 -81.2248 -51.5449 -69.8192 -56.0888L-69.7938 -56.0988C-58.3823 -60.6451 -46.3812 -65.4257 -34.2715 -69.6964C-10.0621 -78.2343 14.6322 -84.7539 35.9817 -83.2753C66.2495 -81.1849 84.1795 -59.5282 100.594 -35.7203C102.786 -32.542 104.95 -29.3259 107.113 -26.1115C113.064 -17.267 119.006 -8.43544 125.487 -0.43927C134.318 10.4566 144.12 19.7608 156.238 25.3748C176.163 34.6102 196.527 33.0813 217.047 26.6397C217.082 26.8906 217.117 27.1416 217.152 27.3927C196.562 33.8375 176.034 35.3772 155.922 26.0554C143.658 20.3733 133.77 10.9717 124.904 0.0329742C118.4 -7.99147 112.43 -16.8649 106.473 -25.7186C104.314 -28.9269 102.157 -32.1327 99.977 -35.2946C83.5581 -59.1083 65.809 -80.4636 35.9299 -82.5271C14.7442 -83.9944 -9.82571 -77.5224 -34.0221 -68.9891C-46.1153 -64.7242 -58.1025 -59.9492 -69.5163 -55.4021L-69.5529 -55.3875C-80.9496 -50.8472 -91.7776 -46.5335 -101.553 -43.1902C-109.499 -40.4706 -117.475 -37.673 -125.48 -34.8653C-155.696 -24.2671 -186.323 -13.5246 -217.305 -6.28212C-250.643 1.51833 -280.761 -4.47527 -310.607 -13.2496C-317.807 -15.3662 -324.988 -17.6436 -332.195 -19.9289C-339.818 -22.3465 -347.47 -24.7729 -355.201 -27.0274Z" fill="black"/>
<path d="M-358.685 -16.1412C-358.613 -16.3818 -358.541 -16.6223 -358.468 -16.8627C-351.102 -15.3781 -343.76 -13.7815 -336.43 -12.1874C-329.946 -10.7774 -323.471 -9.36935 -316.996 -8.04248C-287.247 -1.94589 -257.478 2.4447 -226.733 -2.48212C-189.396 -8.45786 -152.597 -18.9789 -115.999 -29.4428C-102.39 -33.3338 -88.8086 -37.2168 -75.2375 -40.8553C-67.2778 -42.9856 -58.7007 -45.6527 -49.7654 -48.4312L-48.2625 -48.8984C-38.7889 -51.8432 -28.9349 -54.8847 -19.021 -57.5163C0.799774 -62.7776 20.8998 -66.4121 38.7326 -64.348C69.6971 -60.7665 86.6195 -39.5196 102.393 -16.7155C103.87 -14.5802 105.336 -12.4316 106.804 -10.2824L106.808 -10.2754C121.037 10.5677 135.303 31.4666 159.226 40.7946C178.356 48.2626 198.295 45.7397 218.512 38.7517C218.538 39.0075 218.563 39.2635 218.588 39.5195C198.328 46.4975 178.251 49.0267 158.953 41.4933C134.802 32.076 120.402 10.9757 106.199 -9.83705C104.726 -11.9952 103.255 -14.1502 101.776 -16.2888C86.0027 -39.093 69.2488 -60.0634 38.6464 -63.6029C20.959 -65.6503 0.97171 -62.0473 -18.8286 -56.7914C-28.7253 -54.1643 -38.5653 -51.1273 -48.0399 -48.1823L-49.5468 -47.7138C-58.4777 -44.9366 -67.0684 -42.2653 -75.0434 -40.1309C-88.5876 -36.4996 -102.153 -32.6212 -115.753 -28.7328C-152.366 -18.2648 -189.229 -7.72496 -226.614 -1.74156C-257.499 3.20775 -287.38 -1.20753 -317.147 -7.30775C-323.641 -8.6387 -330.129 -10.0495 -336.621 -11.4612C-343.966 -13.0582 -351.316 -14.6564 -358.685 -16.1412Z" fill="black"/>
<path d="M-361.631 -5.55716C-361.568 -5.80199 -361.504 -6.04671 -361.441 -6.29129C-354.29 -5.5377 -347.146 -4.7233 -340.006 -3.90941C-333.228 -3.1367 -326.453 -2.36436 -319.681 -1.64508C-289.032 1.61018 -258.411 3.78365 -227.566 0.037796C-189.762 -4.55812 -152.27 -12.4873 -114.882 -20.3943C-101.083 -23.3127 -87.2988 -26.228 -73.5179 -28.9716C-64.8377 -30.697 -55.5232 -32.9561 -45.8656 -35.302L-45.5965 -35.3674C-36.0251 -37.6924 -26.1218 -40.098 -16.1843 -42.1454C3.87164 -46.2775 24.1039 -48.9589 42.0877 -46.566C71.9128 -42.6007 87.9057 -22.456 102.788 -0.907776C104.153 1.06924 105.509 3.05777 106.866 5.04681C120.317 24.7738 133.804 44.5517 156.875 53.6594C176.786 61.5196 197.922 58.2915 219.448 50.3891C219.463 50.6498 219.479 50.9106 219.494 51.1715C197.946 59.0519 176.678 62.2834 156.599 54.357C133.302 45.1599 119.684 25.1836 106.256 5.48546L106.254 5.48276C104.894 3.48796 103.537 1.49603 102.171 -0.481567C87.292 -22.0248 71.4628 -41.9039 41.9888 -45.8226C24.1345 -48.1982 4.00385 -45.5389 -16.0329 -41.4108C-25.9576 -39.3661 -35.8502 -36.9631 -45.4254 -34.6371L-45.6886 -34.5732C-55.3428 -32.2281 -64.6732 -29.965 -73.3716 -28.236C-87.1321 -25.4964 -100.904 -22.5838 -114.696 -19.667L-114.698 -19.6666C-152.096 -11.7573 -189.637 -3.81787 -227.476 0.782303C-258.409 4.53891 -289.101 2.35713 -319.76 -0.899277C-326.545 -1.61995 -333.328 -2.39313 -340.111 -3.16638L-340.112 -3.16652C-347.283 -3.98396 -354.455 -4.80148 -361.631 -5.55716Z" fill="black"/>
<path d="M-364.133 4.91777C-364.078 4.66855 -364.023 4.41943 -363.968 4.17044C-357.281 4.283 -350.595 4.41623 -343.909 4.54942H-343.908C-336.745 4.69214 -329.583 4.83484 -322.422 4.95212C-291.045 5.466 -259.694 5.49216 -228.421 2.89757C-190.082 -0.274002 -151.896 -5.58971 -113.746 -10.9004L-113.744 -10.9007C-99.9006 -12.8277 -86.0619 -14.7542 -72.2223 -16.5772C-63.2613 -17.7576 -53.7491 -19.404 -43.947 -21.1277C-43.1965 -21.2597 -42.4442 -21.3922 -41.6904 -21.5249C-32.6021 -23.125 -23.2852 -24.7654 -13.9565 -26.1373C6.24432 -29.1084 26.5337 -30.8267 44.7419 -28.1481C73.4055 -23.9375 88.6334 -4.99188 102.807 15.2104C104.077 17.0198 105.338 18.8391 106.599 20.6588C119.441 39.1869 132.317 57.7623 154.586 66.5451C175.14 74.6546 197.296 70.7858 219.928 62.1057C219.934 62.3716 219.939 62.6375 219.944 62.9035C197.31 71.5496 175.03 75.4174 154.31 67.2428C131.818 58.3719 118.813 39.6039 105.993 21.1024L105.985 21.0908C104.722 19.2684 103.461 17.4486 102.193 15.6411C88.0263 -4.55133 72.9582 -23.2452 44.6328 -27.4061C26.5366 -30.0682 6.33585 -28.3638 -13.8474 -25.3953C-23.1656 -24.0249 -32.4729 -22.3862 -41.5637 -20.7856L-43.8171 -20.3891C-53.6176 -18.6656 -63.1451 -17.0164 -72.1243 -15.8336C-85.9522 -14.0121 -99.784 -12.0867 -113.624 -10.1601C-151.781 -4.84845 -189.998 0.471573 -228.359 3.645C-259.671 6.2428 -291.052 6.21599 -322.434 5.70201C-329.597 5.58469 -336.759 5.442 -343.921 5.29933L-343.933 5.2991C-350.667 5.16495 -357.401 5.03081 -364.133 4.91777Z" fill="black"/>
<path d="M-366.221 15.3245C-366.175 15.071 -366.128 14.8176 -366.081 14.5643C-357.187 14.0063 -348.293 13.4387 -339.4 12.8711C-302.72 10.5301 -266.039 8.18906 -229.318 6.52049C-190.193 4.74063 -151.116 2.01254 -112.037 -0.715683C-98.5391 -1.65797 -85.0414 -2.60028 -71.5415 -3.50354C-60.8769 -4.22023 -49.6329 -5.47348 -38.1295 -6.75566C-29.729 -7.69199 -21.1902 -8.64372 -12.6375 -9.41319C7.59933 -11.2339 27.8603 -12.0269 46.3347 -9.13733C73.8672 -4.84169 88.5745 12.8236 102.292 31.6053C103.495 33.2527 104.69 34.9083 105.886 36.5642C118.341 53.8143 130.822 71.1007 152.337 79.4296C173.478 87.6258 196.457 83.213 219.949 73.919C219.945 74.1902 219.939 74.4613 219.934 74.7324C196.459 83.9809 173.367 88.3869 152.066 80.129C130.333 71.7157 117.723 54.2455 105.289 37.0194C104.089 35.3571 102.891 33.6971 101.686 32.0477C87.9791 13.28 73.4288 -4.15102 46.2188 -8.39633C27.8378 -11.2713 7.65112 -10.4855 -12.5703 -8.6662C-21.083 -7.90033 -29.6114 -6.95003 -38.0112 -6.01405L-38.0135 -6.01378C-49.5389 -4.72951 -60.8223 -3.4722 -71.4912 -2.75522C-84.9864 -1.85228 -98.481 -0.910187 -111.977 0.0319824C-151.058 2.76039 -190.149 5.4894 -229.284 7.26973C-266.004 8.93822 -302.665 11.278 -339.333 13.6183L-339.337 13.6186L-339.342 13.6189C-348.301 14.1907 -357.26 14.7625 -366.221 15.3245Z" fill="black"/>
<path d="M-367.927 25.7647C-367.89 25.5075 -367.852 25.2504 -367.814 24.9935C-360.64 24.0524 -353.471 23.0804 -346.304 22.1085L-346.296 22.1075C-340.055 21.2612 -333.815 20.4151 -327.571 19.5894C-295.318 15.324 -263.006 11.6072 -230.259 11.2678C-195.021 10.9146 -159.783 10.7686 -124.545 10.6226H-124.543L-124.514 10.6224C-106.905 10.5495 -89.2962 10.4765 -71.688 10.3777C-59.7853 10.3109 -47.3739 9.69685 -34.7717 9.07339L-34.7699 9.0733C-27.3848 8.70795 -19.9341 8.33936 -12.482 8.07576C7.67102 7.36293 27.8076 7.42 46.5688 10.4035C73.0429 14.624 87.5423 30.9269 101.126 48.2135C102.296 49.7023 103.459 51.1981 104.622 52.6941C116.98 68.5887 129.354 84.5041 150.213 92.2502C171.939 100.315 195.479 95.4954 219.503 85.7982C219.487 86.0746 219.47 86.351 219.454 86.6273C195.464 96.2682 171.825 101.073 149.952 92.9532C128.883 85.1291 116.38 69.0436 104.041 53.1697L104.026 53.1503C102.864 51.6549 101.703 50.1614 100.536 48.6769C86.9662 31.4075 72.6214 15.3163 46.451 11.1442C27.7634 8.17238 7.68546 8.11288 -12.4555 8.82529C-19.8835 9.08803 -27.3238 9.45602 -34.7051 9.82111L-34.7077 9.82124C-47.3238 10.4453 -59.768 11.0608 -71.6838 11.1277C-89.3023 11.2266 -106.92 11.2996 -124.538 11.3726H-124.546C-159.781 11.5186 -195.016 11.6646 -230.251 12.0178C-262.95 12.3566 -295.224 16.0681 -327.473 20.333C-333.713 21.1582 -339.952 22.0041 -346.193 22.8503C-353.434 23.8321 -360.677 24.8143 -367.927 25.7647Z" fill="black"/>
<path d="M-369.272 36.3889C-369.244 36.1292 -369.215 35.8696 -369.187 35.6101C-362.058 34.2838 -354.941 32.9057 -347.825 31.528L-347.824 31.5278C-341.769 30.3553 -335.716 29.1832 -329.658 28.0435C-297.239 21.9444 -264.706 16.7773 -231.222 17.4987C-211.158 17.9354 -190.657 18.136 -169.926 18.3388L-169.924 18.3388C-98.1193 19.0413 -23.5579 19.7707 45.1263 30.4311C70.6136 34.3948 85.2814 49.2694 99.1363 64.9931C100.288 66.3001 101.434 67.6128 102.58 68.9255L102.591 68.9381C115.241 83.4286 127.895 97.9236 148.296 104.921C170.64 112.591 194.426 107.53 218.58 97.6779C218.553 97.9596 218.525 98.2412 218.497 98.5226C194.389 108.308 170.524 113.344 148.053 105.63C127.452 98.5647 114.67 83.9193 102.038 69.446C100.884 68.1236 99.7312 66.8026 98.5736 65.4889C84.7341 49.7827 70.2185 35.0924 45.0112 31.1722C-23.6139 20.521 -98.1002 19.7921 -169.896 19.0895C-190.636 18.8865 -211.153 18.6857 -231.238 18.2486C-264.64 17.5289 -297.108 22.683 -329.519 28.7806C-335.564 29.9178 -341.606 31.0879 -347.653 32.2587L-347.668 32.2616C-354.861 33.6544 -362.06 35.0482 -369.272 36.3889Z" fill="black"/>
<path d="M-370.247 47.2522C-370.228 46.9911 -370.209 46.7301 -370.19 46.4692C-363.064 44.8245 -355.954 43.1038 -348.845 41.3833C-344.239 40.2689 -339.635 39.1545 -335.027 38.061C-303.832 30.6586 -272.504 24.2154 -239.971 25.2132C-147.105 28.0536 -48.9657 38.2494 43.063 50.6485C67.9506 54.0045 83.6481 68.4109 98.8177 83.2308C99.5625 83.9585 100.306 84.6871 101.049 85.4154C115.461 99.5378 129.769 113.559 151.481 118.601C173.273 123.669 195.204 118.699 217.154 109.713C217.114 110 217.074 110.287 217.033 110.573C195.139 119.486 173.173 124.415 151.311 119.332C129.389 114.24 114.941 100.08 100.558 85.9842C99.8033 85.2446 99.0489 84.5052 98.2935 83.7673C83.1247 68.9481 67.5831 54.7117 42.9628 51.3918C-49.0522 38.9945 -147.164 28.8022 -239.994 25.9628C-272.42 24.9684 -303.665 31.3896 -334.853 38.7908C-339.455 39.8828 -344.056 40.9961 -348.659 42.1101C-355.844 43.8491 -363.036 45.5896 -370.247 47.2522Z" fill="black"/>
<path d="M-370.849 58.9404C-370.841 58.6805 -370.832 58.4206 -370.823 58.1609C-363.058 56.2253 -355.319 54.1705 -347.583 52.1164C-343.645 51.0709 -339.708 50.0255 -335.769 48.9962C-304.731 40.8864 -273.544 33.7723 -240.705 35.4498C-194.452 37.8033 -148.033 44.2593 -101.683 51.4283C-91.6636 52.9781 -81.6474 54.5611 -71.6368 56.1432L-71.6347 56.1436C-35.3333 61.881 0.894531 67.6068 36.9515 71.6925C61.429 74.4713 78.4049 87.1569 94.9461 100.151C95.6618 100.713 96.3766 101.276 97.0912 101.838C112.908 114.29 128.598 126.642 150.426 130.699C172.55 134.807 194.043 129.926 215.296 121.343C215.244 121.634 215.191 121.925 215.138 122.216C193.95 130.72 172.446 135.551 150.289 131.436C128.275 127.345 112.452 114.887 96.6627 102.456C95.9362 101.884 95.2097 101.312 94.4828 100.741C77.941 87.7462 61.1133 75.1903 36.8671 72.4377C0.79187 68.35 -35.4576 62.6208 -71.7616 56.8829C-81.7704 55.301 -91.7834 53.7184 -101.798 52.1695C-148.143 45.0011 -194.53 38.5503 -240.744 36.1988C-273.457 34.5277 -304.546 41.6132 -335.579 49.7218C-339.514 50.7499 -343.448 51.7945 -347.384 52.8398L-347.385 52.84C-355.19 54.9124 -363.003 56.9872 -370.849 58.9404Z" fill="black"/>
<path d="M-370.996 70.6788C-370.997 70.4224 -370.999 70.166 -371 69.9094C-363.893 68.2439 -356.797 66.4985 -349.702 64.7533C-344.653 63.5112 -339.604 62.2692 -334.551 61.0561C-303.165 53.521 -271.642 47.1033 -239.074 48.7593C-176.5 51.9263 -112.964 61.1846 -50.0181 70.3569C-22.3806 74.3841 5.14297 78.3948 32.4212 81.866C56.8566 84.9736 75.0737 97.6248 92.9306 110.476C93.5406 110.915 94.1501 111.354 94.7593 111.793C112.007 124.221 129.099 136.536 151.398 140.511C172.279 144.233 192.754 140.119 213.051 132.543C212.987 132.834 212.922 133.125 212.857 133.416C192.631 140.912 172.162 144.974 151.267 141.249C128.796 137.244 111.578 124.837 94.3625 112.431C93.7392 111.982 93.116 111.533 92.4925 111.085C74.628 98.2281 56.5514 85.6908 32.3266 82.61C5.01886 79.1351 -22.5211 75.122 -50.1671 71.0934L-50.1685 71.0932C-113.097 61.9233 -176.575 52.6734 -239.112 49.5083C-271.565 47.8582 -302.997 54.2519 -334.376 61.7854C-339.419 62.9962 -344.461 64.2365 -349.506 65.4775L-349.509 65.4783C-356.662 67.2379 -363.821 68.999 -370.996 70.6788Z" fill="black"/>
<path d="M-370.615 83.8398C-370.628 83.5877 -370.64 83.3354 -370.652 83.0831C-363.472 81.6942 -356.297 80.2447 -349.123 78.7953C-342.027 77.3616 -334.929 75.9278 -327.827 74.5526C-294.791 68.1564 -261.638 63.0301 -227.816 65.0995C-144.005 70.229 -57.6536 79.7461 25.5157 91.149C49.8174 94.4778 69.1063 105.959 88.0256 117.819C89.1142 118.501 90.2014 119.185 91.2884 119.868C109.109 131.072 126.833 142.216 148.424 146.914C169.514 151.496 190.296 148.276 210.926 141.5C210.853 141.787 210.78 142.074 210.706 142.361C190.144 149.062 169.369 152.232 148.265 147.647C126.541 142.92 108.712 131.71 90.9139 120.519C89.8186 119.83 88.7233 119.142 87.6273 118.455C68.7058 106.594 49.5392 95.1967 25.4139 91.892C-57.7428 80.4908 -144.075 70.9762 -227.862 65.8481C-261.584 63.7848 -294.66 68.8949 -327.684 75.2889C-334.772 76.6613 -341.859 78.093 -348.949 79.5254L-348.952 79.5261C-356.167 80.9838 -363.387 82.4424 -370.615 83.8398Z" fill="black"/>
<path d="M-369.587 97.6678C-369.612 97.4188 -369.636 97.1696 -369.66 96.9204C-362.232 95.8567 -354.804 94.748 -347.375 93.6391L-347.371 93.6384C-339.396 92.448 -331.419 91.2573 -323.437 90.1216C-289.92 85.3524 -256.333 81.5547 -222.526 82.8382C-143.008 85.8477 -60.2338 89.7053 18.7292 99.5201C43.805 102.635 64.9913 113.578 85.8829 124.875C87.0306 125.496 88.1774 126.118 89.3239 126.739C109.063 137.44 128.713 148.092 151.383 152.486C170.938 156.27 190.052 154.043 208.96 148.846C208.88 149.127 208.801 149.408 208.721 149.689C189.878 154.821 170.787 157.005 151.24 153.223C128.453 148.806 108.709 138.102 88.9922 127.412L88.9861 127.409C87.8329 126.784 86.6798 126.159 85.5262 125.535C64.6296 114.235 43.5563 103.359 18.6367 100.264C-60.2912 90.4539 -143.037 86.5971 -222.555 83.5876C-256.291 82.3068 -289.824 86.0963 -323.331 90.8641C-331.303 91.9984 -339.274 93.1882 -347.245 94.3781L-347.247 94.3785C-354.693 95.4898 -362.139 96.6013 -369.587 97.6678Z" fill="black"/>
<path d="M-367.756 112.515C-367.793 112.266 -367.83 112.018 -367.866 111.77C-360.072 111.288 -352.273 110.8 -344.471 110.312L-344.467 110.312C-226.08 102.908 -106.868 95.4524 11.3456 107.445C37.5462 110.101 60.826 120.263 83.8711 130.808C85.2334 131.432 86.5949 132.057 87.956 132.681C109.637 142.629 131.249 152.546 155.104 156.575C172.901 159.581 190.212 158.23 207.29 154.551C207.207 154.824 207.123 155.098 207.039 155.372C190.025 158.999 172.748 160.316 154.979 157.314C131.023 153.268 109.326 143.312 87.6653 133.373L87.6117 133.348C86.2609 132.729 84.9102 132.109 83.5591 131.49C60.5085 120.943 37.3323 110.833 11.2699 108.191C-106.876 96.2054 -226.014 103.656 -344.399 111.059L-344.408 111.06C-352.194 111.547 -359.977 112.034 -367.756 112.515Z" fill="black"/>
<path d="M-365.37 126.271C-365.42 126.022 -365.469 125.773 -365.517 125.523C-353.08 125.354 -340.643 125.218 -328.206 125.082H-328.205C-288.233 124.646 -248.269 124.209 -208.313 122.661C-186.179 121.803 -163.684 120.243 -141.059 118.675C-92.7045 115.322 -43.7593 111.928 3.51379 115.265C31.0286 117.208 56.6112 125.942 81.9912 135.363C84.8737 136.433 87.7536 137.511 90.6333 138.59C113.123 147.015 135.607 155.437 159.346 159.649C174.987 162.419 190.394 161.978 205.679 159.685C205.593 159.951 205.507 160.217 205.42 160.482C190.194 162.736 174.824 163.151 159.215 160.387C135.404 156.163 112.852 147.715 90.37 139.293C87.4897 138.214 84.6106 137.135 81.7302 136.066C56.352 126.646 30.8584 117.948 3.461 116.013C-43.7598 112.68 -92.613 116.068 -140.939 119.419L-140.942 119.419C-163.579 120.989 -186.1 122.551 -208.284 123.41C-248.242 124.959 -288.233 125.396 -328.22 125.832L-328.226 125.832C-340.608 125.968 -352.99 126.103 -365.37 126.271Z" fill="black"/>
<path d="M-362.167 140.57C-362.23 140.316 -362.294 140.062 -362.357 139.808C-351.46 140.441 -340.556 141.183 -329.652 141.925L-329.647 141.925C-321.408 142.486 -313.169 143.046 -304.933 143.56C-269.899 145.745 -234.9 147.084 -200.109 143.982C-176.537 141.876 -152.636 138.242 -128.619 134.591C-119.903 133.265 -111.172 131.938 -102.435 130.68C-69.6367 125.959 -36.781 122.225 -4.46881 123.317C24.4701 124.294 52.422 131.746 80.2064 140.065C84.5808 141.375 88.9508 142.706 93.3199 144.037C116.715 151.163 140.083 158.281 163.959 162.063C177.624 164.227 191.126 164.323 204.538 163.137C204.45 163.395 204.363 163.654 204.275 163.913C190.921 165.073 177.465 164.961 163.842 162.804C139.909 159.013 116.483 151.877 93.0895 144.751C88.7234 143.421 84.3583 142.091 79.9913 140.783C52.2118 132.466 24.3402 125.04 -4.49414 124.067C-36.7371 122.976 -69.5387 126.702 -102.328 131.423C-111.051 132.678 -119.774 134.005 -128.486 135.329L-128.487 135.329C-152.511 138.982 -176.446 142.621 -200.042 144.729C-234.893 147.837 -269.938 146.494 -304.98 144.309C-313.228 143.794 -321.474 143.233 -329.718 142.672C-340.541 141.936 -351.358 141.2 -362.167 140.57Z" fill="black"/>
<path d="M-358.233 154.757C-358.313 154.495 -358.393 154.232 -358.472 153.97C-347.255 155.427 -335.995 157.096 -324.721 158.767C-315.799 160.09 -306.869 161.414 -297.944 162.635C-262.165 167.53 -226.45 170.776 -191.61 165.708C-168.164 162.291 -144.659 156.362 -121.069 150.413L-121.068 150.412C-114.839 148.841 -108.604 147.268 -102.362 145.74C-72.4971 138.428 -42.4988 132.134 -12.3892 131.922C17.9865 131.71 48.3091 137.802 78.5056 144.94C84.7315 146.411 90.9515 147.927 97.1656 149.442C121.104 155.276 144.955 161.089 168.719 164.266C180.425 165.836 192.043 166.23 203.609 165.845C203.521 166.098 203.432 166.351 203.343 166.604C191.838 166.974 180.274 166.572 168.619 165.01C144.812 161.827 120.912 156.001 96.969 150.166L96.9671 150.165C90.7583 148.652 84.5467 147.138 78.333 145.669C48.1441 138.533 17.8959 132.46 -12.384 132.672C-42.4001 132.884 -72.3263 139.158 -102.184 146.469C-108.411 147.994 -114.636 149.564 -120.858 151.133L-120.865 151.135C-144.46 157.086 -168.014 163.027 -191.502 166.45C-226.452 171.534 -262.254 168.274 -298.045 163.378C-306.99 162.154 -315.933 160.828 -324.862 159.505C-336.015 157.851 -347.147 156.201 -358.233 154.757Z" fill="black"/>
<path d="M-353.576 168.775C-353.675 168.501 -353.773 168.227 -353.871 167.953C-342.551 170.18 -331.117 172.715 -319.635 175.26L-319.633 175.26C-309.079 177.6 -298.484 179.949 -287.901 182.076C-250.116 189.669 -212.455 194.443 -177.125 185.997C-157.333 181.266 -137.372 173.517 -117.243 165.702C-111.386 163.429 -105.516 161.15 -99.6314 158.938C-73.5408 149.132 -47.1894 140.656 -20.6835 139.933C9.84439 139.095 41.4865 143.748 73.0585 149.519C81.6997 151.098 90.3344 152.761 98.94 154.418L98.9465 154.419C121.794 158.82 144.436 163.18 166.446 165.834C178.629 167.303 190.749 167.946 202.833 168.042C202.744 168.292 202.654 168.541 202.565 168.79C190.543 168.686 178.483 168.041 166.356 166.579C144.319 163.921 121.639 159.554 98.7827 155.152L98.7804 155.151L98.7782 155.151C90.1765 153.494 81.5501 151.833 72.9237 150.256C41.3606 144.487 9.78268 139.847 -20.6629 140.683C-47.0346 141.402 -73.2853 149.837 -99.3676 159.64C-105.233 161.845 -111.091 164.119 -116.94 166.39C-137.077 174.207 -157.105 181.982 -176.951 186.726C-212.45 195.213 -250.248 190.408 -288.049 182.811C-298.667 180.677 -309.282 178.324 -319.849 175.981L-319.85 175.981C-331.168 173.472 -342.43 170.976 -353.576 168.775Z" fill="black"/>
<path d="M-348.231 182.511C-348.352 182.223 -348.472 181.935 -348.591 181.647C-336.956 184.579 -325.178 187.91 -313.339 191.257L-313.338 191.258C-302.778 194.244 -292.17 197.243 -281.574 199.986C-243.197 209.918 -204.946 216.491 -169.442 207.002C-149.054 201.553 -129.716 191.198 -110.296 180.8C-106.803 178.93 -103.307 177.058 -99.8014 175.213C-76.8341 163.124 -53.4857 152.2 -28.0093 150.552C3.82959 148.483 37.5889 151.693 71.3391 156.117C82.2066 157.542 93.0713 159.092 103.871 160.634L103.872 160.634C126.626 163.881 149.093 167.087 170.694 168.991C181.051 169.902 191.407 170.541 201.763 170.987C201.672 171.234 201.58 171.48 201.489 171.726C191.2 171.28 180.914 170.643 170.628 169.738C149.007 167.832 126.505 164.621 103.74 161.373C92.9445 159.832 82.0899 158.283 71.2416 156.861C37.5013 152.437 3.80191 149.236 -27.9607 151.3C-53.2638 152.937 -76.4879 163.789 -99.4521 175.876C-102.947 177.716 -106.436 179.585 -109.926 181.453C-129.342 191.85 -148.769 202.253 -169.248 207.726C-204.954 217.269 -243.37 210.648 -281.762 200.712C-292.398 197.959 -303.031 194.953 -313.605 191.963C-325.241 188.672 -336.808 185.402 -348.231 182.511Z" fill="black"/>
<path d="M-341.826 196.748C-341.974 196.441 -342.122 196.133 -342.27 195.824C-339.667 196.634 -337.052 197.467 -334.427 198.318C-325.949 201.066 -317.375 204 -308.744 206.954L-308.741 206.954C-297.803 210.697 -286.773 214.472 -275.732 217.939C-236.248 230.339 -196.943 238.704 -162.448 227.332C-143.191 220.983 -125.995 209.176 -108.742 197.33C-105.839 195.337 -102.934 193.342 -100.017 191.372C-79.7933 177.714 -59.024 165.26 -34.4435 162.823C-1.38919 159.556 34.2221 161.228 69.888 164.177C83.1857 165.276 96.4875 166.553 109.668 167.818L109.669 167.818L109.671 167.818C131.857 169.947 153.7 172.044 174.603 173.207C183.187 173.686 191.765 174.208 200.34 174.757C200.246 175.002 200.151 175.246 200.056 175.49C191.559 174.947 183.06 174.43 174.561 173.956C153.645 172.792 131.772 170.693 109.572 168.562L109.568 168.562C96.3915 167.297 83.1002 166.022 69.8262 164.924C34.171 161.976 -1.38525 160.309 -34.3697 163.57C-58.7459 165.986 -79.378 178.339 -99.597 191.994C-102.504 193.957 -105.402 195.947 -108.302 197.939C-125.549 209.782 -142.846 221.658 -162.213 228.044C-196.956 239.498 -236.469 231.056 -275.957 218.655C-286.993 215.189 -298.052 211.405 -309.009 207.656L-309.012 207.655C-317.645 204.701 -326.214 201.769 -334.658 199.031C-337.057 198.254 -339.447 197.491 -341.826 196.748Z" fill="black"/>
<path d="M-334.245 211.406C-334.429 211.073 -334.612 210.741 -334.794 210.408C-333.474 210.887 -332.15 211.372 -330.822 211.862C-322.18 215.056 -313.396 218.477 -304.529 221.931C-293.387 226.27 -282.115 230.661 -270.83 234.713C-230.319 249.262 -190.02 259.307 -156.444 246.581C-138.015 239.595 -122.784 226.896 -107.529 214.176L-107.527 214.174C-105.071 212.126 -102.615 210.079 -100.145 208.054C-82.3517 193.469 -63.8465 180.112 -39.6877 177.109C9.54144 170.986 64.5609 173.735 117.374 176.374C138.083 177.409 158.454 178.427 178.003 178.886C184.815 179.046 191.591 179.365 198.34 179.809C198.241 180.053 198.141 180.297 198.041 180.541C191.385 180.106 184.702 179.793 177.985 179.636C158.391 179.176 137.993 178.157 117.268 177.121L117.267 177.121C64.4784 174.483 9.56473 171.739 -39.5951 177.853C-63.5241 180.827 -81.8849 194.057 -99.6698 208.634C-102.131 210.652 -104.582 212.695 -107.035 214.741C-122.283 227.457 -137.622 240.248 -156.178 247.283C-190.04 260.116 -230.584 249.964 -271.084 235.419C-282.36 231.37 -293.662 226.968 -304.821 222.622L-304.824 222.621L-304.827 222.619C-313.697 219.165 -322.477 215.746 -331.082 212.566C-332.139 212.176 -333.193 211.789 -334.245 211.406Z" fill="black"/>
<path d="M-328.139 221.924C-328.337 221.598 -328.535 221.272 -328.732 220.945C-309.177 227.24 -290.13 234.768 -270.504 242.525C-265.923 244.335 -261.31 246.159 -256.652 247.981C-254.044 249.003 -251.398 250.057 -248.719 251.124C-234.793 256.671 -219.977 262.573 -204.959 266.139C-187.059 270.389 -168.919 271.308 -151.725 264.365C-133.741 257.1 -120.087 244.158 -106.45 231.232C-104.335 229.227 -102.221 227.224 -100.091 225.241C-84.2468 210.494 -67.5574 196.974 -43.4643 193.704C11.5317 186.219 72.2757 186.35 130.349 186.475H130.352C147.46 186.511 164.337 186.548 180.767 186.389C185.709 186.341 190.604 186.434 195.458 186.646C195.351 186.892 195.243 187.138 195.135 187.383C190.389 187.18 185.604 187.092 180.774 187.139C164.322 187.298 147.431 187.262 130.312 187.225C72.2476 187.1 11.5763 186.97 -43.3632 194.447C-67.2095 197.683 -83.7515 211.058 -99.5804 225.79C-101.701 227.764 -103.81 229.764 -105.922 231.766C-119.551 244.687 -133.318 257.738 -151.445 265.061C-168.838 272.084 -187.152 271.138 -205.132 266.869C-220.209 263.289 -235.085 257.363 -249.01 251.816L-249.012 251.815C-251.687 250.75 -254.327 249.698 -256.926 248.68C-261.586 246.856 -266.199 245.033 -270.779 243.223C-290.134 235.573 -308.903 228.155 -328.139 221.924Z" fill="black"/>
<path d="M-318.651 236.533C-318.895 236.181 -319.138 235.828 -319.38 235.475C-302.635 241.459 -286.214 248.367 -269.305 255.481L-269.3 255.483C-264.353 257.564 -259.365 259.662 -254.314 261.76C-252.099 262.68 -249.84 263.629 -247.542 264.595C-233.588 270.458 -218.202 276.923 -202.533 280.953C-184.287 285.646 -165.711 287.022 -148.628 280.323C-130.673 273.284 -118.011 260.853 -105.412 248.484L-105.411 248.483C-103.542 246.649 -101.675 244.815 -99.7915 243.001C-85.2269 228.969 -69.7505 216.122 -45.5179 212.969C28.5074 203.366 107.849 199.444 182.64 196.117C185.525 195.99 188.384 195.925 191.219 195.917C191.099 196.168 190.979 196.418 190.859 196.668C188.153 196.681 185.425 196.745 182.673 196.866C107.88 200.194 28.5682 204.114 -45.4213 213.712C-69.4037 216.833 -84.732 229.534 -99.2712 243.541C-101.146 245.347 -103.008 247.175 -104.874 249.008L-104.876 249.011C-117.468 261.375 -130.246 273.922 -148.354 281.021C-165.646 287.802 -184.402 286.391 -202.72 281.679C-218.447 277.634 -233.889 271.145 -247.84 265.283C-250.136 264.318 -252.392 263.37 -254.602 262.453C-259.657 260.353 -264.648 258.254 -269.595 256.172L-269.597 256.172C-286.179 249.196 -302.273 242.426 -318.651 236.533Z" fill="black"/>
<path d="M-306.83 252.447C-307.137 252.061 -307.443 251.675 -307.749 251.287C-295.118 256.162 -282.568 261.485 -269.73 266.93C-264.596 269.108 -259.415 271.306 -254.165 273.501C-252.217 274.316 -250.233 275.154 -248.215 276.006C-234.1 281.964 -218.352 288.611 -202.288 292.813C-183.929 297.615 -165.207 299.208 -148.09 292.951C-130.045 286.357 -117.468 274.645 -104.969 263.006C-103.186 261.345 -101.405 259.686 -99.6096 258.044C-85.239 244.898 -69.9971 232.852 -45.9181 229.88C29.1961 220.618 106.941 212.585 182.589 207.562C183.535 207.499 184.478 207.443 185.418 207.395C185.28 207.652 185.142 207.91 185.004 208.167C184.218 208.21 183.43 208.257 182.639 208.31C107.009 213.332 29.2785 221.364 -45.8263 230.625C-69.6656 233.566 -84.7621 245.479 -99.1034 258.597C-100.89 260.232 -102.666 261.886 -104.446 263.544L-104.451 263.548C-116.942 275.183 -129.635 287.006 -147.832 293.655C-165.155 299.987 -184.051 298.358 -202.478 293.539C-218.599 289.322 -234.4 282.652 -248.511 276.695C-250.528 275.843 -252.51 275.006 -254.454 274.193C-259.709 271.995 -264.892 269.797 -270.027 267.619C-282.463 262.345 -294.618 257.189 -306.83 252.447Z" fill="black"/>
<path d="M-291.806 269.889C-292.201 269.466 -292.594 269.041 -292.986 268.615C-285.5 271.575 -277.99 274.636 -270.389 277.734C-265.624 279.676 -260.824 281.632 -255.971 283.588C-253.77 284.474 -251.527 285.388 -249.248 286.316C-235.221 292.031 -219.809 298.31 -204.116 302.289C-185.876 306.914 -167.305 308.418 -150.142 302.339C-132.145 295.975 -119.105 284.702 -106.122 273.48L-106.12 273.478C-104.332 271.933 -102.545 270.388 -100.747 268.857C-85.899 256.221 -70.2791 244.562 -46.7489 241.389C27.2007 231.428 103.419 222.949 177.9 216.845C178.688 216.78 179.473 216.721 180.257 216.667C180.105 216.929 179.953 217.19 179.8 217.451C179.188 217.495 178.575 217.542 177.961 217.593C103.494 223.696 27.2894 232.172 -46.6488 242.133C-69.9561 245.275 -85.4375 256.813 -100.261 269.428C-102.054 270.955 -103.838 272.497 -105.626 274.043C-118.601 285.261 -131.752 296.631 -149.892 303.046C-167.253 309.195 -185.993 307.658 -204.301 303.016C-220.048 299.023 -235.514 292.722 -249.538 287.008C-251.815 286.08 -254.055 285.168 -256.251 284.284C-261.107 282.327 -265.908 280.37 -270.672 278.429C-277.782 275.531 -284.808 272.668 -291.806 269.889Z" fill="black"/>
<path d="M-260.907 298.671C-261.514 298.182 -262.119 297.69 -262.722 297.196C-224.458 311.52 -186.542 321.14 -153.737 310.305C-135.649 304.334 -121.904 293.748 -108.19 283.184C-106.43 281.829 -104.671 280.473 -102.903 279.128C-87.3694 267.311 -71.1931 256.303 -48.2579 252.94C23.8436 242.386 97.0935 232.233 169.582 224.348C171.733 224.115 173.871 223.925 175.996 223.778C175.834 224.04 175.671 224.302 175.508 224.564C173.57 224.705 171.622 224.881 169.663 225.094C97.1885 232.977 23.9493 243.128 -48.1493 253.682C-70.8859 257.016 -86.9343 267.922 -102.449 279.725C-104.213 281.067 -105.97 282.421 -107.73 283.777C-121.436 294.335 -135.284 305.004 -153.502 311.017C-185.972 321.742 -223.331 312.572 -260.907 298.671Z" fill="black"/>
<path d="M-239.295 314.549C-239.945 314.116 -240.593 313.679 -241.24 313.24C-212.413 321.217 -184.286 324.668 -158.644 317.02C-140.315 311.559 -125.611 301.852 -110.904 292.143C-109.252 291.053 -107.6 289.962 -105.944 288.878C-89.5447 278.145 -72.6552 268.012 -50.3607 264.449C-24.6201 260.342 1.12125 256.031 26.8721 251.719L26.8735 251.718C70.7373 244.373 114.629 237.022 158.591 230.666C163.259 229.99 167.888 229.549 172.485 229.316C172.316 229.576 172.147 229.835 171.978 230.094C167.583 230.332 163.158 230.762 158.698 231.408C114.742 237.764 70.8676 245.111 27.0107 252.456L27.0011 252.458C1.25131 256.77 -24.4923 261.081 -50.2426 265.19C-72.3695 268.726 -89.1458 278.78 -105.533 289.506C-107.183 290.585 -108.829 291.672 -110.477 292.76L-110.493 292.771C-125.191 302.475 -139.988 312.244 -158.429 317.738C-183.617 325.251 -211.144 322.125 -239.295 314.549Z" fill="black"/>
<path d="M-221.954 325.274C-222.555 324.93 -223.155 324.584 -223.754 324.236C-203.379 327.481 -183.462 327.763 -164.501 322.844C-145.492 317.908 -129.116 309.164 -112.663 300.379L-112.662 300.378C-111.605 299.814 -110.549 299.25 -109.491 298.687C-91.9695 289.354 -74.1714 280.253 -52.8972 276.002C-34.5537 272.332 -16.2095 268.623 2.13873 264.913L2.14395 264.912C50.0157 255.233 97.9149 245.548 145.902 236.539C153.663 235.082 161.426 234.376 169.188 234.281C169.017 234.534 168.845 234.786 168.673 235.038C161.126 235.158 153.581 235.861 146.04 237.276C98.0583 246.284 50.1664 255.968 2.29611 265.647L2.28949 265.648L2.25397 265.655C-16.0825 269.363 -34.416 273.07 -52.75 276.738C-73.9051 280.964 -91.6165 290.015 -109.138 299.349C-110.201 299.915 -111.263 300.482 -112.326 301.049C-128.764 309.827 -145.213 318.611 -164.313 323.57C-182.797 328.365 -202.169 328.246 -221.954 325.274Z" fill="black"/>
<path d="M-209.974 331.76C-210.51 331.486 -211.045 331.21 -211.579 330.932C-197.853 331.652 -184.312 330.882 -171.057 327.991C-151.272 323.678 -133.193 315.926 -115.012 308.13L-113.783 307.603C-95.1973 299.636 -76.4659 291.705 -55.7169 287.489C-15.7084 279.364 23.9838 269.402 63.6597 259.445L63.6658 259.443C86.5936 253.689 109.516 247.936 132.491 242.54C143.249 240.01 154.293 239.157 165.523 239.559C165.349 239.803 165.175 240.047 165 240.291C154.001 239.934 143.19 240.794 132.662 243.27C109.71 248.661 86.7968 254.412 63.8714 260.165L63.8698 260.165C24.1799 270.126 -15.5456 280.096 -55.5676 288.224C-76.2305 292.422 -94.8949 300.322 -113.488 308.292L-114.742 308.83C-132.904 316.618 -151.041 324.395 -170.897 328.723C-183.695 331.515 -196.752 332.339 -209.974 331.76Z" fill="black"/>
<path d="M-201.652 335.856C-202.148 335.622 -202.643 335.386 -203.137 335.149C-196.522 334.981 -189.922 334.478 -183.341 333.58C-162.18 330.693 -141.852 323.776 -121.472 316.57C-120.118 316.091 -118.764 315.611 -117.409 315.13C-98.3842 308.386 -79.2639 301.608 -59.3779 297.872C-28.0788 291.996 2.50433 282.561 33.0891 273.036L35.2993 272.348C65.1407 263.053 95.0009 253.752 125.51 247.687C136.812 245.441 148.634 245.057 160.787 246.034C160.609 246.271 160.431 246.507 160.252 246.743C148.326 245.82 136.735 246.221 125.656 248.423C95.1861 254.48 65.3593 263.77 35.5059 273.069L33.3121 273.752C2.7326 283.275 -27.8909 292.724 -59.2395 298.61C-79.0659 302.334 -98.134 309.093 -117.171 315.842C-118.521 316.32 -119.872 316.799 -121.222 317.277C-141.597 324.482 -161.993 331.425 -183.24 334.324C-189.363 335.159 -195.502 335.653 -201.652 335.856Z" fill="black"/>
<path d="M-194.255 339.229C-194.733 339.019 -195.21 338.808 -195.687 338.596C-193.948 338.456 -192.21 338.296 -190.472 338.114C-169.203 335.882 -147.833 330.664 -126.485 324.99C-122.552 323.945 -118.619 322.884 -114.688 321.823L-114.649 321.813L-114.646 321.812C-97.2637 317.122 -79.9122 312.441 -62.6854 309.148C-32.7378 303.421 -3.63153 293.548 25.442 283.393C27.4963 282.676 29.5504 281.957 31.6047 281.238C58.6153 271.784 85.6473 262.323 113.313 255.976C126.857 252.863 140.23 253.179 153.456 255.384C153.273 255.608 153.09 255.831 152.907 256.054C139.89 253.924 126.762 253.655 113.48 256.707C85.8582 263.044 58.865 272.492 31.8466 281.948L31.8131 281.96C29.7721 282.674 27.7309 283.388 25.6893 284.101C-3.38138 294.255 -32.5359 304.146 -62.5445 309.884C-79.7405 313.172 -97.0581 317.844 -114.439 322.533L-114.441 322.534L-114.467 322.541C-118.406 323.603 -122.348 324.667 -126.292 325.715C-147.644 331.39 -169.063 336.621 -190.393 338.86C-191.681 338.995 -192.968 339.118 -194.255 339.229Z" fill="black"/>
<path d="M-186.292 342.589C-186.785 342.389 -187.278 342.188 -187.77 341.986C-158.39 339.035 -127.899 332.878 -98.2793 326.898C-87.3287 324.687 -76.4967 322.5 -65.8845 320.507C-38.4457 315.356 -11.7522 304.757 14.9675 294.148L16.3921 293.583C17.1307 293.289 17.8694 292.996 18.6082 292.703C46.5311 281.629 74.5186 270.814 103.38 266.525C116.553 264.568 130.293 264.563 144.385 265.97C144.177 266.201 143.969 266.432 143.761 266.662C129.915 265.315 116.425 265.345 103.491 267.267C74.7272 271.541 46.8171 282.322 18.8847 293.4C17.6632 293.885 16.4417 294.37 15.2201 294.855C-11.4799 305.456 -38.2345 316.079 -65.7461 321.245C-76.3342 323.232 -87.1497 325.416 -98.0901 327.625L-98.0945 327.626C-127.253 333.513 -157.298 339.58 -186.292 342.589Z" fill="black"/>
<path d="M-175.096 346.856C-175.66 346.654 -176.223 346.451 -176.786 346.245C-140.723 343.244 -103.196 338.006 -68.6986 331.972C-41.3293 327.192 -14.7865 316.791 11.7811 306.379L13.9418 305.532C41.2174 294.848 68.5423 284.314 96.7672 280.068C108.164 278.354 120.024 278.022 132.198 278.75C131.959 278.987 131.719 279.224 131.478 279.46C119.588 278.786 108.009 279.136 96.8788 280.81C68.7504 285.041 41.5022 295.542 14.2154 306.231L12.0251 307.089L12.0239 307.089C-14.5209 317.492 -41.1251 327.918 -68.5695 332.711C-102.563 338.657 -139.505 343.831 -175.096 346.856Z" fill="black"/>
<path d="M-159.308 352.007C-160.064 351.784 -160.819 351.558 -161.572 351.329C-131.446 350.403 -101.281 348.102 -71.0206 343.585C-43.4425 339.464 -16.5801 330.05 10.3077 320.627L10.309 320.627L11.6579 320.154C38.9838 310.579 66.3481 301.087 94.4627 297.276C100.677 296.436 107.01 295.949 113.44 295.771C113.128 296.031 112.815 296.29 112.501 296.549C106.426 296.747 100.441 297.225 94.5633 298.02C66.5365 301.818 39.243 311.283 11.9059 320.862L10.527 321.345C-16.3393 330.76 -43.26 340.195 -70.9098 344.327C-100.453 348.737 -129.903 351.036 -159.308 352.007Z" fill="black"/>
<path d="M-116.466 361.243C-117.701 361.072 -118.934 360.893 -120.164 360.706C-103.967 359.797 -87.8167 358.472 -71.7286 356.617C-43.719 353.385 -16.0397 345.451 11.6838 337.503L11.9444 337.429C13.0982 337.098 14.2521 336.767 15.4062 336.437C36.3474 330.441 57.3222 324.558 78.4677 320.826C77.8746 321.188 77.2801 321.549 76.6843 321.908C56.2356 325.643 35.9268 331.342 15.6126 337.158C14.3651 337.515 13.1176 337.873 11.8699 338.23C-15.8366 346.173 -43.5704 354.123 -71.6427 357.362C-86.5357 359.08 -101.481 360.343 -116.466 361.243Z" fill="black"/>
</svg>
