<svg width="314" height="443" viewBox="0 0 314 443" fill="none" xmlns="http://www.w3.org/2000/svg">
<path d="M289.918 435.87C294.848 436.695 299.774 437.534 304.7 438.374C308.885 439.087 313.07 439.8 317.258 440.505C319.03 440.803 320.803 441.099 322.576 441.394C327.832 442.041 333.122 442.577 338.444 443C331.424 441.915 324.417 440.762 317.413 439.584C313.23 438.881 309.048 438.168 304.864 437.455L304.862 437.454C295.498 435.859 286.127 434.261 276.726 432.764C281.093 433.878 285.491 434.914 289.918 435.87Z" fill="black"/>
<path d="M208.418 407.873C209.304 408.3 210.193 408.724 211.083 409.144C216.243 409.777 221.409 410.376 226.58 410.935C253.385 413.838 279.397 419.402 305.392 424.962L305.399 424.963C309.604 425.863 313.809 426.762 318.017 427.65C348.226 434.025 378.569 439.811 410.196 440.801C412.406 440.871 414.614 440.926 416.821 440.967C418.852 440.698 420.878 440.413 422.898 440.111C418.678 440.081 414.454 440.002 410.225 439.868C378.688 438.88 348.414 433.111 318.21 426.737C314.005 425.849 309.801 424.95 305.595 424.05C279.602 418.491 253.537 412.916 226.681 410.007C220.585 409.348 214.498 408.633 208.418 407.873Z" fill="black"/>
<path d="M169.217 385.935C169.822 386.324 170.428 386.711 171.035 387.097C188.81 389.259 206.497 391.502 224.035 393.812C252.208 397.518 279.204 404.877 306.173 412.229L306.175 412.23C310.551 413.422 314.926 414.615 319.306 415.792C350.663 424.218 382.225 431.83 415.713 432.834C432.898 433.349 449.867 432.461 466.716 430.797C468.441 430.318 470.16 429.827 471.875 429.324C453.329 431.329 434.663 432.468 415.741 431.901C382.37 430.9 350.899 423.315 319.548 414.89C315.174 413.715 310.802 412.523 306.428 411.331C279.461 403.979 252.398 396.602 224.157 392.886C205.981 390.493 187.645 388.17 169.217 385.935Z" fill="black"/>
<path d="M143.613 367.896C144.056 368.238 144.5 368.578 144.945 368.917C170.604 370.573 196.082 372.841 221.104 376.241C251.963 380.437 280.996 390.446 310.043 400.46L310.048 400.462C313.729 401.731 317.411 403 321.097 404.258C353.846 415.431 386.893 425.67 422.763 426.582C453.233 427.349 482.417 421.982 511.312 415.252C512.951 414.559 514.584 413.854 516.21 413.139C485.658 420.414 454.932 426.458 422.787 425.648C387.072 424.74 354.144 414.546 321.399 403.374C317.714 402.117 314.032 400.847 310.348 399.577C281.311 389.567 252.187 379.526 221.23 375.316C195.737 371.852 169.765 369.562 143.613 367.896Z" fill="black"/>
<path d="M123.925 351.622C124.27 351.928 124.616 352.234 124.962 352.539C156.447 352.029 187.653 353.078 217.788 358.273C249.725 363.768 279.589 376.137 309.459 388.508L309.464 388.51C314.02 390.397 318.576 392.284 323.14 394.147C357.603 408.213 392.476 420.882 430.818 421.516C465.92 422.098 498.289 412.265 530.324 401.157C534.819 399.598 539.306 398.015 543.794 396.432C548.514 394.766 553.235 393.101 557.963 391.464C559.199 390.718 560.431 389.965 561.657 389.205C555.579 391.283 549.522 393.42 543.47 395.556L543.468 395.556C538.984 397.139 534.503 398.72 530.018 400.275C497.992 411.38 465.758 421.162 430.833 420.583C392.681 419.951 357.949 407.346 323.493 393.283C318.936 391.423 314.384 389.537 309.829 387.65L309.827 387.65C279.964 375.281 249.995 362.867 217.946 357.353C187.406 352.088 155.785 351.072 123.925 351.622Z" fill="black"/>
<path d="M109.015 337.653C109.3 337.934 109.585 338.215 109.87 338.496C145.213 334.544 180.36 332.986 214.287 340.093C247.173 346.968 278.024 361.831 308.912 376.711C314.403 379.356 319.895 382.002 325.4 384.603C361.843 401.826 398.826 417.097 439.587 417.243C475.292 417.375 507.008 404.585 538.213 390.152C542.798 388.031 547.37 385.876 551.943 383.72C567.176 376.539 582.41 369.359 598.065 363.48C598.825 362.87 599.583 362.258 600.339 361.643C583.71 367.712 567.596 375.308 551.527 382.884C546.958 385.038 542.393 387.19 537.821 389.304C506.627 403.732 475.074 416.44 439.59 416.309C399.053 416.164 362.234 400.978 325.8 383.759C320.309 381.164 314.826 378.523 309.341 375.88L309.338 375.879C278.455 361 247.486 346.08 214.478 339.179C180.166 331.992 144.644 333.635 109.015 337.653Z" fill="black"/>
<path d="M97.0708 325.262C97.3152 325.528 97.5601 325.793 97.8053 326.058C135.569 317.872 173.293 312.631 210.709 321.781C244.793 330.115 276.912 347.439 309.119 364.811C315.328 368.16 321.54 371.511 327.771 374.8C366.285 395.129 405.466 413.061 448.641 413.232C484.861 413.378 516.044 397.52 546.487 379.538C551.281 376.706 556.056 373.822 560.83 370.939C582.798 357.671 604.732 344.423 628.322 336.377C628.813 335.886 629.302 335.394 629.79 334.901C605.407 342.921 582.827 356.56 560.319 370.156L560.317 370.157C555.551 373.036 550.788 375.913 546.012 378.734C515.58 396.71 484.589 412.443 448.644 412.299C405.717 412.128 366.715 394.3 328.207 373.974C321.995 370.695 315.795 367.351 309.593 364.006L309.591 364.004C277.386 346.632 245.142 329.239 210.931 320.874C173.169 311.64 135.137 316.99 97.2168 325.231C97.1682 325.241 97.1195 325.252 97.0708 325.262Z" fill="black"/>
<path d="M87.1102 313.986C87.3276 314.242 87.5453 314.498 87.7634 314.754C90.0982 313.988 92.433 313.232 94.7681 312.492C131.584 300.825 168.52 292.887 207.132 303.547C242.174 313.227 275.552 332.972 309.103 352.819C316.08 356.947 323.066 361.079 330.075 365.126C370.749 388.61 412.213 409.21 457.538 409.143C494.337 409.09 525.011 390.181 554.689 368.737C559.566 365.214 564.415 361.622 569.26 358.034L569.263 358.032C593.944 339.752 618.522 321.55 646.09 312.776C647.798 312.232 649.512 311.729 651.231 311.263C651.573 310.851 651.915 310.439 652.255 310.026C650.097 310.586 647.948 311.205 645.806 311.886C618.076 320.712 593.35 339.027 568.67 357.307C563.833 360.89 558.998 364.472 554.142 367.981C524.47 389.42 494.012 408.157 457.537 408.21C412.484 408.276 371.212 387.799 330.542 364.317C323.554 360.283 316.584 356.159 309.615 352.036C276.063 332.187 242.554 312.364 207.381 302.648C168.496 291.912 131.34 299.923 94.4858 311.602C92.0258 312.382 89.5675 313.178 87.1102 313.986Z" fill="black"/>
<path d="M78.5256 303.474C78.7244 303.727 78.9235 303.979 79.1229 304.231C83.4351 302.32 87.7451 300.444 92.0592 298.634C127.664 283.7 163.611 273.294 203.742 285.473C239.603 296.356 274.201 318.361 309.08 340.545L309.082 340.546C316.783 345.445 324.498 350.352 332.243 355.149C375.023 381.649 418.711 404.805 465.935 404.447C503.324 404.169 533.53 382.32 562.482 357.587C567.369 353.413 572.218 349.158 577.06 344.909C586.583 336.552 596.081 328.218 605.79 320.562C620.428 309.02 635.5 299.058 651.761 292.955C657.431 290.827 663.176 289.232 668.985 288.105C669.242 287.74 669.499 287.374 669.756 287.008C663.575 288.153 657.463 289.817 651.433 292.081C635.042 298.233 619.882 308.261 605.212 319.829C595.484 327.5 585.952 335.864 576.417 344.231L576.411 344.236C571.576 348.479 566.739 352.723 561.876 356.878C532.923 381.61 502.948 403.238 465.928 403.514C418.999 403.869 375.516 380.856 332.735 354.356C325.015 349.573 317.317 344.677 309.627 339.785L309.624 339.784C274.742 317.596 240.009 295.503 204.013 284.579C163.559 272.302 127.354 282.817 91.6977 297.773C87.3002 299.618 82.912 301.529 78.5256 303.474Z" fill="black"/>
<path d="M71.0209 293.595C71.2065 293.848 71.3924 294.101 71.5786 294.353C77.5477 291.038 83.5022 287.77 89.4778 284.659C123.846 266.765 158.807 254.122 200.671 267.715C237.299 279.611 273.044 303.66 309.175 327.969L309.18 327.972C317.482 333.558 325.805 339.158 334.164 344.627C378.852 373.866 424.551 399.358 473.434 398.696C511.463 398.179 541.218 373.648 569.478 345.951C574.315 341.21 579.107 336.378 583.89 331.554L583.893 331.552C593.101 322.265 602.277 313.012 611.681 304.507C625.963 291.591 640.724 280.446 656.821 273.61C665.379 269.979 674.122 267.765 683.006 266.694C683.21 266.358 683.414 266.021 683.617 265.683C674.405 266.728 665.335 268.984 656.456 272.751C640.219 279.647 625.367 290.87 611.054 303.815C601.632 312.336 592.423 321.623 583.201 330.922C578.422 335.741 573.64 340.564 568.824 345.285C540.557 372.989 511.042 397.251 473.421 397.763C424.852 398.42 379.369 373.088 334.675 343.846C326.343 338.394 318.037 332.806 309.745 327.226C273.609 302.912 237.725 278.768 200.96 266.827C158.729 253.115 123.478 265.904 89.0463 283.831C83.0261 286.965 77.0278 290.258 71.0209 293.595Z" fill="black"/>
<path d="M64.3254 284.16C64.5016 284.417 64.6781 284.674 64.8549 284.93C65.0896 284.776 65.3241 284.622 65.5586 284.468L65.5602 284.467C72.7652 279.737 79.9208 275.041 87.1214 270.614C120.327 250.2 154.372 235.609 197.947 250.407C233.247 262.384 267.591 283.961 300.154 304.418C308.56 309.699 316.847 314.906 325.001 319.853C332.926 324.665 341.463 330.233 350.45 336.093C365.397 345.84 381.586 356.397 398.261 365.638C424.98 380.444 453.089 391.958 479.639 391.468C518.437 390.751 547.726 363.931 575.303 333.728C580.021 328.561 584.687 323.296 589.343 318.043L589.345 318.041C598.319 307.916 607.257 297.831 616.455 288.569C630.418 274.507 644.932 262.391 660.979 254.979C671.79 249.986 682.882 247.509 694.171 246.927C694.338 246.608 694.506 246.288 694.672 245.968C683.09 246.502 671.696 249.001 660.587 254.132C644.391 261.612 629.785 273.82 615.792 287.911C606.577 297.191 597.607 307.311 588.62 317.45C583.968 322.699 579.311 327.953 574.613 333.099C547.023 363.316 517.979 389.826 479.622 390.534C453.329 391.02 425.4 379.609 398.714 364.821C382.056 355.59 365.938 345.078 351.019 335.349C342.024 329.482 333.465 323.9 325.486 319.055C317.362 314.126 309.095 308.932 300.702 303.659C268.13 283.195 233.662 261.539 198.247 249.523C154.269 234.589 119.91 249.36 86.632 269.819C79.4186 274.253 72.2502 278.959 65.046 283.687C64.806 283.845 64.5655 284.003 64.3254 284.16Z" fill="black"/>
<path d="M58.2609 275.037C58.4296 275.299 58.5987 275.561 58.7681 275.823C59.5654 275.237 60.3615 274.651 61.1566 274.065C62.6091 272.994 64.0581 271.923 65.5047 270.853C72.1043 265.974 78.6541 261.131 85.2528 256.545C117.422 234.184 150.634 217.992 195.78 233.627C231.896 246.139 267.163 268.949 300.427 290.464L300.43 290.466C309.187 296.129 317.805 301.703 326.264 306.976C334.355 312.024 343.101 317.9 352.337 324.106L352.339 324.107C355.28 326.083 358.272 328.093 361.308 330.12C373.872 338.51 387.192 347.192 400.866 355.006C428.201 370.626 457.019 382.817 484.128 382.234C523.848 381.385 552.63 352.814 579.529 320.71C584.049 315.316 588.515 309.822 592.972 304.341L592.973 304.339C601.799 293.482 610.59 282.668 619.696 272.752C633.393 257.835 647.754 245.005 663.916 237.194C676.686 231.025 689.776 228.578 703.071 228.764C703.211 228.455 703.352 228.146 703.492 227.837C689.934 227.593 676.562 230.048 663.509 236.354C647.191 244.24 632.735 257.172 619.008 272.121C609.884 282.057 601.061 292.909 592.223 303.781C587.771 309.257 583.314 314.739 578.813 320.111C551.898 352.233 523.363 380.461 484.108 381.301C457.265 381.878 428.633 369.798 401.33 354.196C387.685 346.398 374.387 337.731 361.827 329.344C358.797 327.321 355.809 325.313 352.87 323.338L352.868 323.337C343.628 317.129 334.864 311.241 326.758 306.184C318.332 300.931 309.735 295.371 300.992 289.716L300.989 289.714C267.715 268.192 232.32 245.298 196.086 232.745C150.51 216.96 116.968 233.363 84.7194 255.778C78.1084 260.373 71.546 265.225 64.9459 270.105L64.9266 270.12C63.4872 271.184 62.046 272.249 60.6021 273.314C59.8226 273.889 59.0422 274.463 58.2609 275.037Z" fill="black"/>
<path d="M52.6371 266.013C52.7989 266.281 52.961 266.549 53.1235 266.817C57.512 263.415 61.846 259.958 66.1556 256.52C72.1206 251.763 78.0388 247.043 83.9903 242.555C99.648 230.749 115.591 220.508 133.426 215.215C151.248 209.927 170.986 209.572 194.249 217.588C230.79 230.183 266.686 253.892 300.3 276.093L300.303 276.095C309.36 282.077 318.252 287.95 326.947 293.467C335.151 298.669 344.005 304.722 353.35 311.11L353.362 311.118C356.3 313.126 359.287 315.168 362.317 317.227C374.986 325.834 388.409 334.737 402.202 342.747C429.775 358.76 458.891 371.249 486.477 370.653C527.367 369.75 555.588 340.1 581.805 306.849C586.039 301.479 590.22 296.015 594.394 290.56L594.397 290.558C603.167 279.098 611.908 267.675 621.054 257.23C634.547 241.819 648.874 228.593 665.368 220.6C680.024 213.496 694.949 211.337 710.031 212.471C710.152 212.169 710.272 211.866 710.392 211.563C695.076 210.368 679.886 212.525 664.96 219.76C648.301 227.834 633.877 241.168 620.351 256.615C611.186 267.083 602.412 278.547 593.631 290.021C589.46 295.471 585.287 300.923 581.071 306.271C554.839 339.541 526.864 368.828 486.457 369.719C459.14 370.31 430.213 357.934 402.672 341.94C388.908 333.947 375.507 325.06 362.843 316.455C359.822 314.403 356.842 312.366 353.909 310.361L353.888 310.347L353.887 310.346C344.539 303.956 335.666 297.891 327.447 292.678C318.787 287.184 309.918 281.326 300.876 275.353L300.875 275.352C267.249 253.142 231.218 229.344 194.554 216.705C171.11 208.628 151.173 208.975 133.16 214.32C115.162 219.661 99.1113 229.984 83.4277 241.81C77.4316 246.331 71.4969 251.065 65.527 255.827C61.2605 259.23 56.975 262.648 52.6371 266.013Z" fill="black"/>
<path d="M46.8428 256.06C46.9964 256.334 47.1504 256.607 47.3046 256.88C53.5229 252.205 59.6126 247.365 65.6544 242.563C71.6725 237.78 77.6433 233.035 83.6465 228.527C99.3173 216.761 115.266 206.567 133.072 201.327C150.864 196.091 170.536 195.794 193.667 203.868C230.259 216.639 266.209 239.976 300.033 261.933C309.261 267.923 318.332 273.812 327.214 279.354C335.645 284.618 344.77 290.779 354.41 297.288L354.413 297.289L354.429 297.3C357.154 299.14 359.919 301.008 362.723 302.89C375.446 311.437 388.927 320.295 402.768 328.287C430.435 344.263 459.602 356.817 487.08 356.459C528.107 355.915 556.158 326.095 582.166 292.607C586.363 287.203 590.507 281.704 594.643 276.213L594.646 276.209C603.348 264.661 612.021 253.149 621.11 242.633C634.515 227.124 648.776 213.839 665.262 205.879C681.772 197.904 698.507 196.135 715.361 198.256C715.466 197.955 715.571 197.655 715.676 197.354C698.613 195.176 681.627 196.937 664.855 205.039C648.201 213.08 633.84 226.476 620.403 242.023C611.294 252.562 602.589 264.116 593.877 275.679L593.868 275.69C589.738 281.172 585.606 286.656 581.428 292.034C555.405 325.543 527.603 354.988 487.068 355.526C459.855 355.88 430.873 343.438 403.235 327.479C389.423 319.503 375.963 310.66 363.244 302.116C360.44 300.232 357.672 298.364 354.944 296.522L354.942 296.52C345.299 290.009 336.156 283.836 327.708 278.562C318.861 273.041 309.814 267.168 300.6 261.187L300.599 261.186C266.764 239.221 230.684 215.799 193.975 202.987C170.663 194.85 150.791 195.14 132.808 200.432C114.839 205.72 98.7823 215.995 83.0854 227.781C77.0365 232.322 71.0494 237.081 65.0265 241.869C59.0329 246.633 53.0037 251.425 46.8428 256.06Z" fill="black"/>
<path d="M40.8958 245.029C41.0399 245.308 41.1843 245.586 41.329 245.864C47.3144 241.776 53.1845 237.529 58.9999 233.275C60.4046 232.248 61.8059 231.22 63.2049 230.194C69.8537 225.317 76.4493 220.479 83.0932 215.902C115.249 193.749 148.401 177.8 193.349 193.58C230.01 206.447 265.853 228.217 300.084 249.007L300.085 249.008C309.524 254.74 318.84 260.398 328.017 265.775C337.046 271.065 346.917 277.387 357.382 284.089C359.548 285.475 361.738 286.878 363.952 288.292C376.861 296.534 390.552 305.127 404.563 312.911C432.57 328.469 461.927 340.829 488.952 340.631C529.058 340.325 556.885 310.805 582.661 277.589C586.962 272.047 591.205 266.403 595.439 260.771C603.916 249.493 612.36 238.261 621.167 227.983C634.365 212.579 648.331 199.38 664.341 191.474C682.603 182.454 701.192 181.135 719.939 184.338C720.031 184.038 720.123 183.738 720.214 183.438C701.278 180.184 682.446 181.491 663.928 190.637C647.749 198.625 633.686 211.936 620.457 227.376C611.632 237.676 603.156 248.95 594.667 260.243C590.437 265.869 586.204 271.5 581.923 277.017C556.129 310.256 528.553 339.395 488.945 339.697C462.176 339.894 433 327.64 405.017 312.095C391.032 304.326 377.362 295.745 364.455 287.505C362.246 286.095 360.059 284.694 357.897 283.309L357.893 283.307C347.427 276.604 337.536 270.27 328.489 264.969C319.342 259.61 310.047 253.964 300.621 248.24L300.62 248.239C266.378 227.441 230.421 205.602 193.659 192.699C148.282 176.768 114.799 192.925 82.563 215.133C75.9063 219.719 69.297 224.567 62.6476 229.444C61.2498 230.47 59.8503 231.496 58.4482 232.522C52.6643 236.753 46.8347 240.971 40.8958 245.029Z" fill="black"/>
<path d="M35.1627 233.45C35.2965 233.733 35.4306 234.015 35.5651 234.297C42.862 229.952 50.0081 225.379 57.0874 220.807C58.1728 220.106 59.2565 219.405 60.3389 218.704C67.5599 214.033 74.7242 209.399 81.9319 205.037C115.075 184.981 149.024 170.762 192.933 185.588C229.939 198.096 266.124 218.12 301.078 237.462C310.606 242.735 320.042 247.957 329.378 252.962C339.026 258.133 349.651 264.423 360.93 271.099C362.614 272.097 364.313 273.102 366.026 274.114C379.201 281.9 393.168 290.048 407.412 297.431C435.887 312.19 465.537 323.933 492.254 323.588C531.449 323.097 558.557 294.09 583.61 261.458C587.848 255.939 592.025 250.316 596.194 244.706L596.195 244.705C604.373 233.701 612.515 222.744 621.005 212.7C633.817 197.543 647.371 184.531 662.92 176.671C682.806 166.624 703.242 165.923 723.928 170.351C724.008 170.05 724.087 169.748 724.165 169.447C703.313 164.977 682.638 165.663 662.499 175.838C646.783 183.782 633.133 196.906 620.292 212.098C611.784 222.163 603.609 233.163 595.42 244.183C591.255 249.787 587.087 255.396 582.869 260.89C557.797 293.545 530.94 322.169 492.242 322.654C465.771 322.996 436.296 311.351 407.842 296.602C393.623 289.232 379.675 281.096 366.501 273.311C364.8 272.305 363.111 271.305 361.436 270.314L361.408 270.298C350.131 263.622 339.487 257.32 329.82 252.139C320.509 247.148 311.09 241.935 301.574 236.669C266.61 217.321 230.326 197.241 193.232 184.703C148.927 169.744 114.67 184.136 81.4481 204.239C74.2276 208.608 67.0506 213.251 59.8308 217.921C58.7484 218.621 57.665 219.322 56.5804 220.023C49.5261 224.579 42.4168 229.128 35.1627 233.45Z" fill="black"/>
<path d="M29.6415 221.21C29.7645 221.496 29.8878 221.783 30.0115 222.069C39.1646 217.521 48.1198 212.658 57.0013 207.836C64.7802 203.612 72.5024 199.419 80.2512 195.495C114.572 178.114 149.487 165.952 192.468 179.339C229.888 190.997 266.584 209.003 302.354 226.555C312.036 231.306 321.65 236.023 331.193 240.573C341.587 245.523 353.085 251.651 365.283 258.152L365.285 258.153L365.408 258.219C366.529 258.816 367.656 259.417 368.789 260.02C382.286 267.207 396.568 274.745 411.081 281.564C440.092 295.194 470.089 305.981 496.641 305.306C534.937 304.31 560.933 276.031 584.889 244.271C588.925 238.92 592.902 233.472 596.871 228.035C604.704 217.304 612.507 206.615 620.671 196.801C632.966 182.021 646.034 169.287 661.155 161.474C682.483 150.456 704.726 150.513 727.35 156.246C727.417 155.942 727.484 155.638 727.551 155.334C704.784 149.57 682.307 149.496 660.726 160.645C645.44 168.542 632.277 181.388 619.953 196.204C611.771 206.039 603.937 216.771 596.093 227.517L596.092 227.518C592.127 232.949 588.159 238.384 584.143 243.709C560.172 275.489 534.42 303.389 496.617 304.372C470.299 305.042 440.471 294.341 411.478 280.719C396.989 273.912 382.725 266.383 369.228 259.196C368.052 258.57 366.883 257.946 365.719 257.326C353.527 250.828 342.009 244.69 331.595 239.73C322.076 235.192 312.478 230.482 302.807 225.737L302.803 225.734C267.024 208.178 230.242 190.129 192.746 178.448C149.414 164.951 114.222 177.245 79.829 194.662C72.0284 198.612 64.2726 202.823 56.4731 207.058C47.6285 211.86 38.7273 216.692 29.6415 221.21Z" fill="black"/>
<path d="M24.4413 208.432C24.5532 208.722 24.6654 209.013 24.778 209.303C34.335 205.536 43.7304 201.491 53.0607 197.474L53.0624 197.474C61.4283 193.872 69.7418 190.293 78.0724 186.957C113.735 172.677 149.778 162.816 191.875 174.436C229.819 184.894 267.167 200.663 303.866 216.159L303.871 216.161C313.702 220.312 323.486 224.443 333.222 228.447C344.418 233.05 356.828 238.851 369.963 244.991L371.906 245.9C385.757 252.373 400.375 259.17 415.176 265.289C444.764 277.52 475.147 287.067 501.665 285.862C539.178 284.162 563.732 256.744 586.275 226.072C589.953 221.069 593.576 215.98 597.194 210.898L597.195 210.896C604.686 200.375 612.153 189.886 620.035 180.252C631.718 165.971 644.266 153.628 659.045 145.934C681.716 134.128 705.702 135.072 730.189 142.127C730.244 141.819 730.3 141.511 730.354 141.203C705.751 134.13 681.536 133.169 658.613 145.106C643.671 152.885 631.027 165.341 619.312 179.661C611.41 189.319 603.91 199.854 596.408 210.39L596.405 210.395C592.793 215.468 589.18 220.543 585.522 225.52C562.969 256.205 538.651 283.252 501.623 284.929C475.324 286.124 445.104 276.65 415.533 264.426C400.754 258.317 386.154 251.528 372.302 245.054L370.35 244.142L370.349 244.141C357.222 238.005 344.794 232.195 333.577 227.584C323.858 223.587 314.085 219.46 304.26 215.312C267.554 199.813 230.132 184.012 192.124 173.536C149.729 161.834 113.449 171.786 77.725 186.091C69.3459 189.446 61.0011 193.038 52.6159 196.648C43.308 200.655 33.9505 204.683 24.4413 208.432Z" fill="black"/>
<path d="M19.6769 195.319C19.7777 195.614 19.8788 195.908 19.9803 196.203C29.632 193.39 39.1776 190.364 48.6764 187.353C57.6358 184.513 66.5544 181.687 75.4803 179.064C112.605 168.155 149.926 160.75 191.207 170.404C229.739 179.407 267.822 192.757 305.449 205.948C315.425 209.445 325.369 212.931 335.281 216.322C347.434 220.476 360.902 225.838 375.107 231.494L375.138 231.507C389.351 237.166 404.298 243.117 419.38 248.433C449.531 259.061 480.287 267.177 506.877 265.336C544.574 262.734 566.905 235.776 587.349 206.14C590.078 202.183 592.773 198.18 595.467 194.179C602.879 183.169 610.28 172.176 618.351 162.222C629.35 148.659 641.557 137.077 656.65 130.089C681.466 118.592 706.829 120.496 732.385 128.514C732.429 128.202 732.473 127.889 732.517 127.577C706.872 119.554 681.306 117.638 656.257 129.241C640.982 136.314 628.668 148.018 617.626 161.634C609.525 171.623 602.089 182.669 594.67 193.69C591.981 197.683 589.295 201.674 586.58 205.61C566.131 235.253 544.025 261.836 506.812 264.405C480.426 266.231 449.826 258.175 419.69 247.553C404.629 242.244 389.699 236.3 375.484 230.64L375.438 230.622C361.244 224.97 347.759 219.6 335.584 215.438C325.687 212.053 315.754 208.57 305.784 205.075C268.151 191.883 230.006 178.511 191.42 169.495C149.899 159.785 112.388 167.246 75.2168 178.168C66.2496 180.803 57.3054 183.638 48.33 186.483C38.8352 189.492 29.3056 192.512 19.6769 195.319Z" fill="black"/>
<path d="M15.3378 181.768C15.4273 182.067 15.5172 182.367 15.6074 182.666C24.7816 180.818 33.9257 178.83 43.0556 176.846C51.131 175.091 59.1955 173.338 67.2594 171.686C104.311 164.097 141.387 158.632 179.678 164.765C226.179 172.203 272.01 185.3 317.592 198.326C334.541 203.169 351.456 208.003 368.358 212.532C378.272 215.184 388.954 218.504 400.083 221.962L401.955 222.544C413.753 226.21 426.026 229.996 438.373 233.271C463.059 239.821 488.093 244.345 510.303 241.775C548.868 237.317 569.944 210.869 589.589 182.483C591.428 179.825 593.255 177.15 595.082 174.475L595.088 174.466C612.809 148.52 630.577 122.506 660.371 110.894C684.197 101.598 709.03 104.738 734.21 113.437C734.242 113.119 734.274 112.8 734.305 112.481C709.071 103.795 684.066 100.647 660.032 110.024C629.953 121.747 612.018 148.013 594.329 173.92C592.494 176.607 590.663 179.289 588.82 181.951C569.176 210.338 548.309 236.442 510.196 240.848C488.167 243.397 463.273 238.912 438.613 232.369C426.287 229.099 414.032 225.318 402.232 221.652L400.355 221.069C389.232 217.612 378.533 214.287 368.6 211.63C351.731 207.11 334.837 202.282 317.899 197.442C272.299 184.411 226.387 171.291 179.826 163.843C141.36 157.682 104.145 163.178 67.0719 170.772C58.9832 172.429 50.9026 174.185 42.8172 175.942C33.6701 177.93 24.516 179.919 15.3378 181.768Z" fill="black"/>
<path d="M11.6683 168.593C11.7471 168.897 11.8262 169.202 11.9058 169.507C20.8118 168.568 29.7094 167.555 38.6015 166.542C47.0434 165.58 55.4815 164.618 63.9158 163.723C102.087 159.671 140.224 156.965 178.64 161.628C225.723 167.349 272.418 177.219 318.983 187.062C336.169 190.695 353.337 194.324 370.5 197.739C381.311 199.887 392.912 202.699 404.94 205.619L405.275 205.7C417.196 208.595 429.53 211.589 441.906 214.138C466.885 219.281 492.084 222.619 514.482 219.641C551.627 214.705 571.546 189.628 590.081 162.805C591.781 160.344 593.47 157.869 595.159 155.393C611.913 130.837 628.71 106.217 657.443 94.8799C682.242 85.0955 708.566 89.1139 735.375 98.9508C735.395 98.6262 735.414 98.3016 735.433 97.9768C708.596 88.1673 682.107 84.1448 657.1 94.0115C628.084 105.46 611.124 130.327 594.4 154.847L594.398 154.85C592.704 157.333 591.013 159.813 589.312 162.275C570.781 189.092 551.067 213.837 514.358 218.715C492.122 221.672 467.05 218.362 442.095 213.223C429.734 210.678 417.413 207.687 405.488 204.791L405.16 204.712C393.136 201.793 381.516 198.976 370.682 196.823C353.544 193.413 336.392 189.787 319.215 186.157L319.212 186.156C272.635 176.311 225.88 166.428 178.753 160.701C140.226 156.025 102.002 158.741 63.8171 162.795C55.3666 163.692 46.9189 164.654 38.4704 165.617L38.4691 165.617C29.538 166.634 20.6059 167.652 11.6683 168.593Z" fill="black"/>
<path d="M8.55292 155.553C8.62105 155.864 8.68957 156.174 8.75849 156.484C17.0858 156.344 25.4134 156.178 33.7401 156.012H33.7415C42.663 155.834 51.5835 155.657 60.5019 155.511C99.5807 154.871 138.627 154.838 177.576 158.068C225.325 162.016 272.884 168.633 320.398 175.244L320.4 175.244C337.642 177.643 354.877 180.041 372.114 182.31C383.274 183.78 395.121 185.829 407.329 187.975C408.264 188.139 409.201 188.304 410.14 188.469C421.459 190.461 433.063 192.503 444.681 194.211C469.84 197.909 495.11 200.048 517.787 196.714C553.486 191.473 572.452 167.889 590.105 142.741C591.686 140.489 593.257 138.224 594.827 135.959C610.822 112.895 626.857 89.7726 654.592 78.8398C680.192 68.7451 707.787 73.561 735.973 84.3659C735.98 84.035 735.987 83.704 735.993 83.3728C707.804 72.6102 680.055 67.7955 654.25 77.9713C626.237 89.0138 610.04 112.376 594.073 135.407L594.063 135.421C592.49 137.69 590.92 139.955 589.34 142.205C571.696 167.341 552.929 190.611 517.651 195.79C495.113 199.104 469.954 196.982 444.817 193.287C433.212 191.581 421.62 189.541 410.298 187.549L407.491 187.055C395.285 184.91 383.419 182.857 372.236 181.385C355.014 179.117 337.787 176.721 320.55 174.322C273.027 167.71 225.43 161.088 177.653 157.138C138.656 153.904 99.5714 153.937 60.4866 154.577C51.5656 154.723 42.645 154.901 33.7255 155.079L33.7103 155.079C25.3235 155.246 16.9375 155.413 8.55292 155.553Z" fill="black"/>
<path d="M5.95246 142.599C6.0099 142.915 6.06775 143.23 6.126 143.545C17.2033 144.24 28.28 144.947 39.3567 145.653C85.04 148.567 130.724 151.481 176.458 153.558C225.187 155.774 273.856 159.17 322.527 162.566C339.337 163.739 356.148 164.912 372.962 166.036C386.244 166.928 400.248 168.489 414.575 170.085C425.037 171.25 435.672 172.435 446.324 173.393C471.528 175.659 496.762 176.646 519.771 173.049C554.061 167.702 572.379 145.712 589.463 122.333C590.961 120.282 592.45 118.221 593.939 116.16C609.452 94.687 624.996 73.1689 651.792 62.8011C678.122 52.5985 706.742 58.0916 736 69.6608C735.994 69.3232 735.987 68.9856 735.981 68.6483C706.744 57.1356 677.983 51.651 651.455 61.9305C624.388 72.4034 608.682 94.1503 593.196 115.593C591.701 117.663 590.209 119.729 588.709 121.782C571.637 145.144 553.515 166.842 519.627 172.127C496.734 175.706 471.592 174.727 446.408 172.463C435.805 171.509 425.184 170.327 414.722 169.161L414.719 169.161C400.365 167.562 386.312 165.997 373.024 165.105C356.217 163.981 339.41 162.808 322.601 161.635C273.927 158.239 225.242 154.842 176.5 152.626C130.768 150.549 85.1086 147.636 39.44 144.723L39.4353 144.723L39.4281 144.722C28.2705 144.011 17.1123 143.299 5.95246 142.599Z" fill="black"/>
<path d="M3.82737 129.603C3.87384 129.923 3.92072 130.243 3.96801 130.563C12.9027 131.735 21.8309 132.945 30.7583 134.155L30.7676 134.156C38.5405 135.209 46.3128 136.262 54.0882 137.29C94.2583 142.6 134.502 147.227 175.287 147.649C219.173 148.089 263.061 148.27 306.948 148.452H306.951L306.986 148.452C328.918 148.543 350.849 148.634 372.779 148.757C387.603 148.84 403.061 149.604 418.757 150.381L418.759 150.381C427.957 150.835 437.236 151.294 446.517 151.622C471.617 152.51 496.696 152.439 520.062 148.725C553.035 143.471 571.093 123.177 588.011 101.659C589.468 99.8057 590.917 97.9437 592.365 96.0815C607.756 76.2959 623.168 56.4844 649.146 46.8421C676.206 36.8026 705.524 42.8024 735.443 54.8736C735.424 54.5294 735.403 54.1854 735.383 53.8415C705.504 41.8404 676.064 35.8593 648.821 45.9669C622.581 55.7064 607.009 75.7296 591.642 95.4895L591.623 95.5136C590.175 97.3751 588.729 99.2342 587.277 101.082C570.376 122.579 552.51 142.609 519.916 147.803C496.641 151.502 471.635 151.576 446.55 150.689C437.299 150.362 428.033 149.904 418.84 149.45L418.836 149.45C403.124 148.673 387.625 147.907 372.784 147.823C350.841 147.7 328.899 147.609 306.957 147.519H306.947C263.063 147.337 219.18 147.155 175.296 146.715C134.572 146.294 94.375 141.674 54.2107 136.365C46.4394 135.337 38.669 134.284 30.8962 133.231C21.8782 132.009 12.8569 130.786 3.82737 129.603Z" fill="black"/>
<path d="M2.15205 116.378C2.18707 116.701 2.22251 117.025 2.25837 117.348C11.1371 118.999 20.0013 120.714 28.8629 122.429L28.8643 122.429C36.4055 123.889 43.9448 125.348 51.4896 126.767C91.8662 134.359 132.384 140.791 174.087 139.893C199.075 139.349 224.609 139.099 250.428 138.847L250.431 138.847C339.86 137.973 432.723 137.065 518.266 123.794C550.009 118.86 568.277 100.345 585.533 80.7717C586.967 79.1447 588.395 77.5107 589.822 75.8767L589.836 75.8609C605.59 57.8232 621.35 39.7799 646.759 31.0699C674.587 21.5222 704.212 27.8221 734.295 40.0856C734.261 39.735 734.226 39.3844 734.191 39.0341C704.166 26.8527 674.443 20.5848 646.456 30.1868C620.799 38.9818 604.88 57.2124 589.147 75.2287C587.71 76.8749 586.274 78.5193 584.832 80.1545C567.596 99.7056 549.517 117.992 518.123 122.872C432.653 136.131 339.884 137.038 250.466 137.913C224.634 138.165 199.082 138.415 174.067 138.959C132.466 139.855 92.0293 133.439 51.6623 125.849C44.1343 124.433 36.6083 122.977 29.0777 121.52L29.0587 121.516C20.1002 119.782 11.135 118.047 2.15205 116.378Z" fill="black"/>
<path d="M0.938285 102.856C0.961453 103.181 0.985041 103.505 1.00905 103.83C9.88331 105.878 18.7391 108.02 27.5935 110.161C33.3291 111.548 39.0642 112.936 44.8032 114.297C83.6541 123.511 122.672 131.532 163.19 130.29C278.851 126.754 401.079 114.062 515.696 98.6279C546.693 94.4504 566.243 76.5172 585.136 58.0694C586.064 57.1636 586.99 56.2566 587.915 55.35C605.864 37.7705 623.684 20.317 650.726 14.0406C677.867 7.73248 705.18 13.9188 732.519 25.1045C732.469 24.7474 732.419 24.3904 732.368 24.0336C705.1 12.9384 677.742 6.8029 650.514 13.1312C623.211 19.4685 605.216 37.0951 587.303 54.642C586.364 55.5626 585.424 56.483 584.483 57.4016C565.591 75.8485 546.235 93.57 515.571 97.7027C400.971 113.135 278.778 125.822 163.161 129.357C122.777 130.595 83.8629 122.601 45.0189 113.388C39.2878 112.029 33.5579 110.643 27.8251 109.256C18.8755 107.092 9.91828 104.925 0.938285 102.856Z" fill="black"/>
<path d="M0.187528 88.3061C0.197882 88.6296 0.208653 88.9531 0.219842 89.2765C9.89171 91.6859 19.5298 94.2436 29.1649 96.8006C34.0691 98.1021 38.9725 99.4033 43.8791 100.685C82.5346 110.78 121.377 119.635 162.276 117.547C219.883 114.618 277.695 106.581 335.421 97.6572C347.9 95.728 360.375 93.7575 372.843 91.788L372.846 91.7875C418.057 84.6456 463.177 77.5181 508.085 72.4323C538.57 68.9732 559.713 53.1822 580.314 37.0073C581.206 36.3075 582.096 35.6069 582.986 34.9066C602.685 19.4066 622.227 4.03097 649.412 -1.01889C676.966 -6.13264 703.735 -0.0565677 730.205 10.6273C730.139 10.2649 730.073 9.90267 730.007 9.5406C703.619 -1.04476 676.836 -7.05819 649.242 -1.93676C621.824 3.15622 602.117 18.664 582.452 34.1383C581.547 34.8503 580.643 35.5623 579.737 36.2732C559.135 52.4486 538.177 68.0782 507.979 71.5046C463.049 76.5931 417.902 83.7248 372.688 90.8673C360.222 92.8364 347.751 94.8064 335.279 96.7346C277.558 105.658 219.785 113.688 162.228 116.615C121.486 118.695 82.7654 109.875 44.1153 99.7814C39.2147 98.5016 34.3151 97.2013 29.4125 95.9002L29.4112 95.8998C19.691 93.3201 9.95954 90.7375 0.187528 88.3061Z" fill="black"/>
<path d="M0.00550912 73.6941C0.00326592 74.0133 0.00142938 74.3325 0 74.6519C8.85193 76.7251 17.6889 78.8978 26.5254 81.0702C32.8141 82.6163 39.1026 84.1624 45.396 85.6725C84.4853 95.0522 123.745 103.041 164.308 100.98C242.241 97.0373 321.372 85.5125 399.768 74.0949C434.189 69.0817 468.469 64.0893 502.442 59.7683C532.875 55.9 555.564 40.1518 577.804 24.1547C578.564 23.6084 579.323 23.0617 580.082 22.5152C601.563 7.045 622.85 -8.28533 650.623 -13.233C676.629 -17.8662 702.13 -12.745 727.409 -3.31482C727.329 -3.67719 727.248 -4.03937 727.167 -4.40136C701.976 -13.7324 676.483 -18.7886 650.459 -14.1521C622.473 -9.16631 601.029 6.2779 579.587 21.7205C578.811 22.2795 578.035 22.8385 577.258 23.397C555.009 39.4008 532.495 55.0072 502.324 58.8422C468.314 63.1678 434.014 68.1633 399.582 73.178L399.581 73.1783C321.206 84.593 242.148 96.1072 164.261 100.047C123.842 102.101 84.6948 94.1423 45.614 84.7647C39.3329 83.2575 33.0531 81.7135 26.77 80.1687L26.7658 80.1677C17.857 77.9773 8.9405 75.7852 0.00550912 73.6941Z" fill="black"/>
<path d="M0.479821 57.3113C0.463824 57.6252 0.448221 57.9391 0.433011 58.2532C9.37628 59.9822 18.3115 61.7865 27.2467 63.5907C36.0851 65.3754 44.9242 67.1602 53.7703 68.872C94.9144 76.834 136.206 83.2152 178.329 80.6393C282.711 74.254 390.258 62.4072 493.842 48.2128C524.109 44.0691 548.132 29.7769 571.695 15.0139C573.051 14.1645 574.405 13.3136 575.759 12.4629C597.954 -1.48379 620.028 -15.3549 646.918 -21.2035C673.185 -26.9073 699.068 -22.8985 724.762 -14.4637C724.671 -14.8214 724.58 -15.1788 724.488 -15.5361C698.879 -23.8769 673.004 -27.8233 646.72 -22.1158C619.664 -16.2311 597.459 -2.2771 575.292 11.6531C573.928 12.5104 572.564 13.3677 571.199 14.2229C547.633 28.9875 523.762 43.1742 493.715 47.2879C390.147 61.4801 282.624 73.324 178.272 79.7074C136.273 82.2758 95.0784 75.9148 53.9479 67.9555C45.12 66.2472 36.2941 64.4649 27.4638 62.6819L27.4599 62.6811C18.4735 60.8664 9.48201 59.0508 0.479821 57.3113Z" fill="black"/>
<path d="M1.75924 40.0982C1.72892 40.4082 1.69897 40.7183 1.66942 41.0285C10.9207 42.3527 20.1712 43.7328 29.4239 45.1132L29.4294 45.114C39.3618 46.5958 49.2966 48.078 59.2374 49.4917C100.981 55.4284 142.812 60.1559 184.917 58.5581C283.953 54.8119 387.045 50.0099 485.39 37.7925C516.62 33.9156 543.007 20.2934 569.026 6.23042C570.456 5.45785 571.884 4.68399 573.312 3.91032C597.897 -9.41039 622.369 -22.67 650.603 -28.14C674.959 -32.8504 698.764 -30.0774 722.313 -23.6084C722.214 -23.9585 722.115 -24.3083 722.015 -24.6579C698.548 -31.0461 674.77 -33.7648 650.426 -29.0565C622.046 -23.5584 597.456 -10.2342 572.899 3.07203L572.891 3.07614C571.455 3.8544 570.019 4.63263 568.582 5.40923C542.556 19.4756 516.311 33.0132 485.274 36.8661C386.973 49.078 283.917 53.879 184.882 57.6252C142.864 59.2196 101.101 54.5025 59.369 48.5674C49.441 47.1555 39.5138 45.6744 29.5853 44.1932L29.5827 44.1927C20.3098 42.8093 11.0359 41.4258 1.75924 40.0982Z" fill="black"/>
<path d="M4.04007 21.6169C3.99398 21.9258 3.94827 22.2348 3.90295 22.544C13.6105 23.1439 23.3231 23.751 33.0401 24.3584L33.0457 24.3587C180.491 33.5753 328.964 42.856 476.194 27.9275C508.825 24.621 537.819 11.9713 566.521 -1.1553C568.218 -1.93125 569.913 -2.70887 571.608 -3.48634C598.611 -15.87 625.528 -28.2141 655.238 -33.2292C677.403 -36.9718 698.964 -35.2896 720.233 -30.7097C720.13 -31.0505 720.026 -31.3911 719.921 -31.7314C698.731 -36.247 677.213 -37.8864 655.083 -34.1497C625.247 -29.1134 598.224 -16.7202 571.246 -4.34754L571.18 -4.31699C569.497 -3.54537 567.815 -2.77383 566.132 -2.00423C537.424 11.1254 508.559 23.7097 476.099 26.9987C328.954 41.9187 180.573 32.6442 33.1302 23.4283L33.119 23.4276C23.4218 22.8215 13.7286 22.2156 4.04007 21.6169Z" fill="black"/>
<path d="M7.01167 4.49253C6.9502 4.80286 6.88912 5.1133 6.82844 5.42389C22.3189 5.63469 37.8085 5.80377 53.2974 5.97282H53.2997C103.082 6.51624 152.856 7.05959 202.619 8.98727C230.187 10.0544 258.203 11.996 286.38 13.9487C346.604 18.1223 407.563 22.3468 466.44 18.1937C500.708 15.7746 532.57 4.90269 564.179 -6.82433C567.77 -8.15624 571.356 -9.49909 574.943 -10.8419C602.952 -21.3288 630.955 -31.8132 660.521 -37.0554C680.001 -40.5035 699.19 -39.9556 718.227 -37.1013C718.12 -37.4321 718.012 -37.7628 717.904 -38.0933C698.941 -40.8988 679.799 -41.4159 660.358 -37.9747C630.702 -32.7165 602.615 -22.2001 574.615 -11.7162C571.028 -10.3731 567.442 -9.0305 563.854 -7.69958C532.247 4.0266 500.496 14.8536 466.374 17.2623C407.562 21.4109 346.718 17.1938 286.53 13.0222L286.527 13.022C258.334 11.068 230.284 9.12391 202.655 8.05435C152.89 6.1266 103.082 5.58272 53.2807 5.03892L53.2729 5.0388C37.8514 4.8704 22.4305 4.702 7.01167 4.49253Z" fill="black"/>
<path d="M11.0013 -13.3063C10.9221 -12.9902 10.8433 -12.6739 10.765 -12.3574C24.336 -13.1457 37.916 -14.0693 51.4966 -14.9929L51.5034 -14.9933C61.7641 -15.6911 72.0252 -16.389 82.2831 -17.0285C125.917 -19.7488 169.506 -21.4154 212.837 -17.5538C242.194 -14.932 271.962 -10.4086 301.874 -5.86319C312.73 -4.21359 323.604 -2.56114 334.485 -0.995638C375.334 4.88164 416.254 9.52993 456.498 8.16983C492.54 6.9541 527.352 -2.32208 561.957 -12.6778C567.405 -14.3082 572.847 -15.9652 578.289 -17.6219C607.426 -26.4928 636.53 -35.3537 666.267 -40.0612C683.286 -42.7547 700.102 -42.8741 716.806 -41.3974C716.697 -41.7195 716.587 -42.0415 716.478 -42.3633C699.847 -43.8072 683.088 -43.6686 666.12 -40.9833C636.313 -36.2647 607.138 -27.3817 578.002 -18.5107C572.564 -16.855 567.128 -15.1998 561.689 -13.5722C527.091 -3.2183 492.378 6.0254 456.466 7.23677C416.309 8.59397 375.456 3.95598 334.618 -1.91974C323.754 -3.48285 312.89 -5.13374 302.04 -6.78243L302.039 -6.78266C272.118 -11.3294 242.308 -15.8592 212.92 -18.4837C169.515 -22.3519 125.868 -20.6812 82.2249 -17.9603C71.9529 -17.3199 61.682 -16.6214 51.4145 -15.9231C37.9357 -15.0064 24.4628 -14.0902 11.0013 -13.3063Z" fill="black"/>
<path d="M15.9003 -30.9666C15.8008 -30.6401 15.7018 -30.3135 15.6033 -29.9866C29.5737 -31.8002 43.5971 -33.878 57.6381 -35.9584C68.7497 -37.6047 79.8722 -39.2527 90.9883 -40.7726C135.549 -46.8657 180.03 -50.907 223.422 -44.5986C252.622 -40.3444 281.897 -32.9647 311.277 -25.5584L311.279 -25.558C319.037 -23.6023 326.802 -21.6447 334.576 -19.7424C371.772 -10.6396 409.133 -2.80567 446.633 -2.54142C484.465 -2.27721 522.23 -9.86055 559.838 -18.7456C567.592 -20.5776 575.339 -22.4646 583.078 -24.3499C612.893 -31.6125 642.598 -38.8485 672.194 -42.8038C686.774 -44.7571 701.243 -45.2481 715.648 -44.7683C715.539 -45.0834 715.428 -45.3984 715.318 -45.7132C700.988 -46.1742 686.586 -45.6739 672.07 -43.7292C642.42 -39.7667 612.653 -32.5154 582.834 -25.2514L582.831 -25.2508C575.099 -23.3671 567.362 -21.4825 559.623 -19.6542C522.024 -10.7713 484.352 -3.21161 446.64 -3.47502C409.256 -3.73843 371.984 -11.5487 334.798 -20.6492C327.042 -22.5473 319.289 -24.5016 311.54 -26.4551L311.532 -26.4573C282.145 -33.8653 252.81 -41.2605 223.557 -45.5224C180.028 -51.8507 135.438 -47.7928 90.8616 -41.6976C79.7212 -40.1743 68.5833 -38.5241 57.4626 -36.8765C43.5718 -34.8184 29.708 -32.7643 15.9003 -30.9666Z" fill="black"/>
<path d="M21.7007 -48.4159C21.5777 -48.075 21.4552 -47.7338 21.3333 -47.3923C35.4318 -50.1648 49.6729 -53.3202 63.9728 -56.4886L63.9746 -56.489C77.12 -59.4016 90.3152 -62.3252 103.495 -64.9726C150.555 -74.4251 197.46 -80.3679 241.462 -69.8536C266.112 -63.9648 290.973 -54.3184 316.043 -44.5913C323.337 -41.7614 330.648 -38.9245 337.977 -36.1715C370.472 -23.9647 403.291 -13.413 436.303 -12.5138C474.324 -11.4703 513.733 -17.2623 553.054 -24.4457C563.816 -26.4118 574.571 -28.4817 585.288 -30.5447L585.297 -30.5463C613.752 -36.0235 641.952 -41.4515 669.364 -44.7553C684.538 -46.5836 699.632 -47.3842 714.682 -47.5039C714.571 -47.8144 714.46 -48.1247 714.348 -48.4348C699.376 -48.3058 684.355 -47.502 669.252 -45.6822C641.806 -42.3742 613.558 -36.9372 585.092 -31.458L585.09 -31.4574L585.087 -31.4569C574.374 -29.3948 563.63 -27.3268 552.886 -25.3641C513.576 -18.1827 474.247 -12.4064 436.329 -13.447C403.484 -14.3417 370.79 -24.8426 338.306 -37.0454C331 -39.7897 323.704 -42.6205 316.42 -45.4468C291.34 -55.1784 266.397 -64.8566 241.679 -70.7616C197.467 -81.3261 150.391 -75.3445 103.311 -65.8879C90.0876 -63.2317 76.8663 -60.3023 63.7065 -57.3865L63.7048 -57.3862C49.6089 -54.263 35.583 -51.1553 21.7007 -48.4159Z" fill="black"/>
<path d="M28.3572 -65.5143C28.2073 -65.1562 28.058 -64.7977 27.9092 -64.4389C42.4004 -68.0894 57.0698 -72.2353 71.8135 -76.4021L71.8148 -76.4025C84.9674 -80.1197 98.1792 -83.8536 111.376 -87.2674C159.173 -99.6314 206.813 -107.812 251.031 -96.0006C276.423 -89.2181 300.508 -76.3287 324.694 -63.3853C329.045 -61.0568 333.4 -58.7266 337.765 -56.4299C366.37 -41.3814 395.449 -27.7832 427.179 -25.7316C466.833 -23.1563 508.878 -27.1518 550.913 -32.6598C564.448 -34.4333 577.979 -36.3633 591.43 -38.2818L591.431 -38.282C619.77 -42.3239 647.751 -46.3148 674.655 -48.6844C687.554 -49.8187 700.451 -50.6149 713.349 -51.1699C713.236 -51.4765 713.122 -51.7829 713.008 -52.0891C700.194 -51.5342 687.383 -50.7409 674.573 -49.6145C647.644 -47.2425 619.62 -43.2455 591.266 -39.2016C577.821 -37.284 564.302 -35.3559 550.791 -33.5855C508.769 -28.0791 466.798 -24.0941 427.24 -26.6632C395.726 -28.7008 366.801 -42.2096 338.2 -57.256C333.847 -59.546 329.502 -61.8718 325.155 -64.1979C300.973 -77.1402 276.778 -90.0897 251.272 -96.9025C206.802 -108.781 158.957 -100.54 111.142 -88.1712C97.895 -84.7444 84.6528 -81.0019 71.4831 -77.2799C56.9901 -73.1839 42.5849 -69.1127 28.3572 -65.5143Z" fill="black"/>
<path d="M36.3347 -83.2372C36.15 -82.8542 35.9659 -82.4709 35.7824 -82.0872C39.0243 -83.095 42.281 -84.1318 45.5504 -85.1911C56.1092 -88.6124 66.7879 -92.2646 77.5375 -95.941L77.5401 -95.9419C91.1632 -100.601 104.9 -105.299 118.651 -109.615C167.827 -125.051 216.78 -135.463 259.742 -121.308C283.725 -113.404 305.143 -98.7068 326.63 -83.9618C330.246 -81.4803 333.864 -78.9974 337.497 -76.5453C362.684 -59.5438 388.552 -44.0408 419.165 -41.0075C460.333 -36.9404 504.685 -39.021 549.105 -42.6919C565.667 -44.0606 582.234 -45.6498 598.65 -47.2245L598.651 -47.2246L598.654 -47.2248C626.285 -49.8754 653.489 -52.485 679.523 -53.9329C690.214 -54.5295 700.898 -55.1786 711.577 -55.8623C711.46 -56.1668 711.342 -56.4712 711.224 -56.7754C700.64 -56.0984 690.056 -55.4558 679.471 -54.865C653.421 -53.4163 626.179 -50.8032 598.53 -48.151L598.525 -48.1505C582.114 -46.5764 565.561 -44.9885 549.029 -43.6223C504.622 -39.9526 460.338 -37.8781 419.257 -41.9365C388.898 -44.9446 363.202 -60.3212 338.02 -77.319C334.4 -79.7627 330.789 -82.2403 327.178 -84.7191C305.697 -99.461 284.155 -114.245 260.035 -122.194C216.764 -136.452 167.552 -125.943 118.371 -110.506C104.627 -106.192 90.8534 -101.482 77.2074 -96.8149L77.2026 -96.8133C66.451 -93.1365 55.7787 -89.4867 45.2624 -86.0792C42.2745 -85.1111 39.2982 -84.1622 36.3347 -83.2372Z" fill="black"/>
<path d="M45.7769 -101.483C45.548 -101.069 45.3199 -100.655 45.0925 -100.241C46.7368 -100.837 48.3858 -101.441 50.0394 -102.051C60.8031 -106.026 71.7436 -110.285 82.787 -114.585C96.6632 -119.986 110.702 -125.452 124.757 -130.496C175.212 -148.606 225.402 -161.11 267.219 -145.269C290.172 -136.573 309.142 -120.765 328.141 -104.931L328.144 -104.928C331.202 -102.38 334.261 -99.8309 337.337 -97.3107C359.498 -79.1557 382.545 -62.5279 412.634 -58.7903C473.947 -51.1681 542.471 -54.5905 608.247 -57.8757C634.04 -59.1639 659.41 -60.431 683.757 -61.0028C692.241 -61.2012 700.681 -61.5985 709.086 -62.1507C708.963 -62.4547 708.839 -62.7584 708.714 -63.062C700.424 -62.5211 692.101 -62.1318 683.735 -61.9362C659.332 -61.3631 633.928 -60.0943 608.115 -58.805L608.114 -58.8049C542.368 -55.5212 473.976 -52.1054 412.749 -59.7167C382.947 -63.4188 360.079 -79.8865 337.929 -98.0327C334.864 -100.544 331.811 -103.088 328.756 -105.635C309.766 -121.463 290.662 -137.386 267.55 -146.142C225.378 -162.118 174.882 -149.48 124.441 -131.375C110.397 -126.334 96.3213 -120.855 82.4223 -115.445L82.4193 -115.443L82.4148 -115.442C71.3681 -111.142 60.4333 -106.885 49.7156 -102.927C48.3996 -102.441 47.0867 -101.959 45.7769 -101.483Z" fill="black"/>
<path d="M53.3816 -114.576C53.1346 -114.17 52.8882 -113.764 52.6427 -113.357C76.998 -121.193 100.72 -130.564 125.163 -140.22C130.868 -142.474 136.613 -144.743 142.414 -147.012C145.663 -148.284 148.959 -149.596 152.295 -150.924C169.639 -157.83 188.092 -165.176 206.797 -169.615C229.09 -174.906 251.682 -176.049 273.096 -167.407C295.495 -158.363 312.501 -142.252 329.485 -126.162C332.118 -123.667 334.751 -121.173 337.404 -118.705C357.138 -100.348 377.924 -83.5178 407.93 -79.4474C476.425 -70.1306 552.079 -70.2932 624.407 -70.4486H624.41C645.718 -70.4944 666.737 -70.5396 687.2 -70.3416C693.356 -70.2821 699.451 -70.3982 705.497 -70.6625C705.364 -70.9684 705.23 -71.2741 705.095 -71.5795C699.184 -71.327 693.225 -71.217 687.209 -71.2751C666.719 -71.4734 645.681 -71.4282 624.361 -71.3825C552.044 -71.2274 476.481 -71.0653 408.056 -80.3725C378.357 -84.4012 357.755 -101.049 338.04 -119.389C335.399 -121.846 332.773 -124.335 330.142 -126.827C313.168 -142.911 296.022 -159.158 273.446 -168.273C251.783 -177.015 228.974 -175.838 206.581 -170.523C187.803 -166.067 169.276 -158.69 151.932 -151.785L151.931 -151.784C148.599 -150.458 145.311 -149.149 142.074 -147.882C136.271 -145.612 130.525 -143.342 124.821 -141.089C100.715 -131.566 77.3388 -122.333 53.3816 -114.576Z" fill="black"/>
<path d="M65.1984 -132.761C64.8949 -132.323 64.5922 -131.884 64.2905 -131.444C85.1458 -138.893 105.598 -147.492 126.657 -156.347L126.663 -156.35C132.824 -158.94 139.037 -161.553 145.327 -164.164C148.086 -165.309 150.9 -166.49 153.762 -167.692C171.14 -174.991 190.303 -183.038 209.817 -188.055C232.542 -193.897 255.678 -195.609 276.954 -187.271C299.317 -178.509 315.086 -163.035 330.778 -147.638L330.779 -147.637C333.106 -145.353 335.432 -143.071 337.778 -140.813C355.917 -123.346 375.192 -107.353 405.373 -103.428C497.568 -91.4747 596.385 -86.5934 689.533 -82.4516C693.127 -82.2931 696.687 -82.2123 700.218 -82.2023C700.069 -82.5143 699.919 -82.826 699.769 -83.1375C696.399 -83.1529 693.001 -83.2331 689.574 -83.3843C596.423 -87.5263 497.644 -92.4063 405.493 -104.354C375.624 -108.238 356.534 -124.049 338.426 -141.485C336.091 -143.733 333.772 -146.009 331.448 -148.29L331.444 -148.293C315.762 -163.685 299.848 -179.304 277.295 -188.14C255.759 -196.58 232.399 -194.824 209.585 -188.959C189.998 -183.924 170.765 -175.846 153.39 -168.549C150.531 -167.348 147.721 -166.168 144.969 -165.026C138.673 -162.412 132.457 -159.799 126.295 -157.208L126.293 -157.207C105.64 -148.524 85.5965 -140.096 65.1984 -132.761Z" fill="black"/>
<path d="M79.9208 -152.571C79.5382 -152.091 79.1567 -151.609 78.7765 -151.127C94.5076 -157.195 110.139 -163.822 126.127 -170.6C132.522 -173.311 138.974 -176.046 145.513 -178.78C147.938 -179.793 150.41 -180.836 152.923 -181.897C170.503 -189.314 190.116 -197.588 210.123 -202.819C232.989 -208.796 256.306 -210.779 277.624 -202.99C300.099 -194.782 315.762 -180.203 331.329 -165.714C333.549 -163.647 335.768 -161.582 338.004 -159.538C355.902 -143.175 374.885 -128.179 404.874 -124.48C498.426 -112.951 595.253 -102.951 689.47 -96.6977C690.648 -96.6192 691.822 -96.55 692.992 -96.4897C692.821 -96.8106 692.649 -97.1314 692.477 -97.4517C691.498 -97.5046 690.516 -97.5637 689.532 -97.6292C595.337 -103.881 498.528 -113.879 404.989 -125.407C375.298 -129.068 356.496 -143.897 338.635 -160.227C336.409 -162.262 334.197 -164.321 331.98 -166.384L331.975 -166.39C316.417 -180.873 300.609 -195.59 277.945 -203.867C256.371 -211.749 232.836 -209.721 209.886 -203.722C189.808 -198.473 170.129 -190.17 152.555 -182.755C150.042 -181.695 147.573 -180.653 145.152 -179.641C138.608 -176.905 132.153 -174.168 125.757 -171.457C110.269 -164.892 95.1301 -158.474 79.9208 -152.571Z" fill="black"/>
<path d="M98.6322 -174.283C98.1407 -173.756 97.6507 -173.227 97.1623 -172.696C106.486 -176.382 115.839 -180.192 125.307 -184.048C131.24 -186.465 137.219 -188.901 143.263 -191.335C146.005 -192.439 148.798 -193.576 151.636 -194.732C169.107 -201.845 188.301 -209.661 207.846 -214.614C230.563 -220.371 253.693 -222.243 275.068 -214.676C297.483 -206.754 313.724 -192.722 329.893 -178.752L329.896 -178.75C332.122 -176.827 334.348 -174.904 336.588 -172.998C355.08 -157.269 374.534 -142.756 403.84 -138.806C495.94 -126.406 590.866 -115.852 683.629 -108.254C684.61 -108.173 685.589 -108.1 686.565 -108.032C686.376 -108.358 686.186 -108.683 685.996 -109.008C685.234 -109.063 684.471 -109.121 683.705 -109.184C590.961 -116.781 496.051 -127.333 403.964 -139.732C374.936 -143.644 355.655 -158.006 337.193 -173.709C334.96 -175.609 332.738 -177.53 330.511 -179.453C314.351 -193.418 297.972 -207.571 275.38 -215.556C253.757 -223.211 230.418 -221.297 207.616 -215.519C188.003 -210.549 168.742 -202.705 151.275 -195.593C148.439 -194.438 145.65 -193.302 142.914 -192.201C136.867 -189.765 130.887 -187.33 124.954 -184.913C116.099 -181.306 107.348 -177.742 98.6322 -174.283Z" fill="black"/>
<path d="M137.116 -210.111C136.36 -209.502 135.607 -208.889 134.856 -208.274C182.512 -226.105 229.734 -238.08 270.591 -224.592C293.119 -217.16 310.237 -203.982 327.318 -190.832C329.509 -189.145 331.701 -187.458 333.902 -185.784C353.249 -171.074 373.395 -157.371 401.96 -153.185C491.759 -140.047 582.989 -127.409 673.27 -117.594C675.949 -117.303 678.611 -117.067 681.258 -116.883C681.056 -117.21 680.853 -117.536 680.65 -117.862C678.237 -118.038 675.811 -118.257 673.371 -118.522C583.107 -128.335 491.891 -140.971 402.096 -154.109C373.778 -158.259 353.791 -171.835 334.468 -186.527C332.271 -188.197 330.082 -189.883 327.89 -191.57C310.821 -204.714 293.573 -217.994 270.883 -225.479C230.443 -238.829 183.915 -227.415 137.116 -210.111Z" fill="black"/>
<path d="M164.033 -229.876C163.223 -229.336 162.416 -228.793 161.611 -228.247C197.512 -238.176 232.544 -242.472 264.48 -232.951C287.308 -226.153 305.621 -214.071 323.938 -201.984C325.995 -200.627 328.052 -199.27 330.115 -197.92C350.54 -184.56 371.575 -171.947 399.341 -167.511C431.4 -162.399 463.46 -157.032 495.531 -151.664L495.533 -151.664C550.163 -142.52 604.828 -133.371 659.58 -125.458C665.394 -124.616 671.161 -124.068 676.885 -123.778C676.675 -124.101 676.465 -124.423 676.254 -124.746C670.78 -125.042 665.269 -125.578 659.714 -126.382C604.97 -134.293 550.325 -143.44 495.704 -152.582L495.692 -152.584C463.622 -157.952 431.559 -163.319 399.488 -168.433C371.93 -172.835 351.036 -185.351 330.627 -198.701C328.572 -200.046 326.522 -201.399 324.47 -202.752L324.449 -202.766C306.144 -214.846 287.715 -227.006 264.747 -233.846C233.377 -243.197 199.093 -239.306 164.033 -229.876Z" fill="black"/>
<path d="M185.63 -243.226C184.882 -242.798 184.134 -242.367 183.389 -241.934C208.764 -245.973 233.57 -246.324 257.185 -240.202C280.86 -234.057 301.255 -223.173 321.747 -212.237L321.748 -212.236C323.064 -211.534 324.38 -210.831 325.697 -210.13C347.519 -198.512 369.686 -187.184 396.182 -181.892C419.028 -177.324 441.875 -172.707 464.727 -168.089L464.733 -168.088C524.355 -156.039 584.012 -143.983 643.777 -132.769C653.443 -130.955 663.112 -130.076 672.779 -129.958C672.566 -130.273 672.352 -130.587 672.137 -130.901C662.738 -131.049 653.341 -131.924 643.949 -133.686C584.19 -144.9 524.543 -156.953 464.923 -169.002L464.915 -169.004L464.87 -169.013C442.033 -173.628 419.2 -178.242 396.366 -182.808C370.018 -188.069 347.959 -199.336 326.136 -210.954C324.813 -211.659 323.49 -212.365 322.167 -213.071C301.694 -223.998 281.207 -234.932 257.419 -241.105C234.398 -247.074 210.271 -246.926 185.63 -243.226Z" fill="black"/>
<path d="M200.551 -251.3C199.883 -250.959 199.217 -250.615 198.552 -250.27C215.646 -251.166 232.512 -250.206 249.02 -246.608C273.661 -241.239 296.178 -231.589 318.821 -221.885L320.352 -221.229C343.499 -211.312 366.829 -201.439 392.67 -196.191C442.499 -186.077 491.934 -173.677 541.348 -161.282L541.356 -161.28C569.912 -154.117 598.46 -146.956 627.074 -140.239C640.473 -137.089 654.228 -136.028 668.214 -136.528C667.998 -136.832 667.781 -137.136 667.564 -137.439C653.864 -136.995 640.4 -138.066 627.288 -141.148C598.702 -147.858 570.165 -155.016 541.612 -162.178L541.61 -162.179C492.178 -174.578 442.702 -186.988 392.856 -197.106C367.122 -202.332 343.876 -212.166 320.72 -222.087L319.158 -222.757C296.537 -232.451 273.948 -242.132 249.219 -247.52C233.28 -250.994 217.017 -252.021 200.551 -251.3Z" fill="black"/>
<path d="M210.915 -256.399C210.297 -256.107 209.681 -255.814 209.066 -255.519C217.305 -255.309 225.524 -254.683 233.721 -253.566C260.076 -249.972 285.393 -241.361 310.775 -232.391C312.462 -231.795 314.149 -231.197 315.836 -230.599C339.53 -222.204 363.344 -213.767 388.111 -209.117C427.092 -201.801 465.182 -190.057 503.274 -178.201L506.027 -177.344C543.193 -165.773 580.382 -154.195 618.38 -146.646C632.456 -143.85 647.18 -143.372 662.316 -144.588C662.095 -144.883 661.872 -145.177 661.649 -145.471C646.797 -144.321 632.361 -144.821 618.562 -147.562C580.613 -155.101 543.465 -166.666 506.284 -178.241L503.552 -179.092C465.467 -190.946 427.326 -202.708 388.283 -210.034C363.59 -214.67 339.842 -223.084 316.133 -231.485C314.451 -232.081 312.769 -232.676 311.087 -233.271C285.71 -242.24 260.309 -250.883 233.847 -254.491C226.22 -255.53 218.575 -256.146 210.915 -256.399Z" fill="black"/>
<path d="M220.127 -260.597C219.532 -260.336 218.938 -260.073 218.345 -259.809C220.51 -259.636 222.675 -259.436 224.84 -259.21C251.328 -256.431 277.944 -249.936 304.532 -242.873C309.431 -241.571 314.329 -240.251 319.225 -238.93L319.273 -238.917L319.276 -238.917C340.926 -233.079 362.536 -227.251 383.992 -223.152C421.29 -216.023 457.54 -203.734 493.75 -191.093C496.309 -190.2 498.867 -189.305 501.425 -188.41C535.066 -176.642 568.733 -164.865 603.189 -156.964C620.058 -153.089 636.713 -153.482 653.185 -156.227C652.958 -156.505 652.73 -156.783 652.502 -157.061C636.29 -154.41 619.939 -154.075 603.398 -157.874C568.996 -165.763 535.377 -177.523 501.727 -189.294L501.685 -189.308C499.143 -190.197 496.601 -191.087 494.058 -191.974C457.852 -204.614 421.541 -216.925 384.167 -224.069C362.75 -228.161 341.182 -233.977 319.535 -239.814L319.532 -239.815L319.5 -239.823C314.594 -241.146 309.685 -242.47 304.772 -243.775C278.18 -250.839 251.503 -257.351 224.937 -260.138C223.334 -260.306 221.731 -260.459 220.127 -260.597Z" fill="black"/>
<path d="M230.045 -264.78C229.431 -264.531 228.817 -264.281 228.205 -264.029C264.796 -260.356 302.771 -252.692 339.661 -245.247C353.299 -242.495 366.79 -239.772 380.007 -237.293C414.181 -230.88 447.426 -217.687 480.705 -204.481L482.479 -203.776C483.399 -203.411 484.319 -203.047 485.239 -202.682C520.016 -188.896 554.873 -175.434 590.819 -170.096C607.225 -167.659 624.337 -167.653 641.888 -169.405C641.629 -169.692 641.37 -169.98 641.111 -170.266C623.867 -168.589 607.065 -168.627 590.956 -171.019C555.133 -176.339 520.372 -189.76 485.583 -203.55C484.062 -204.153 482.541 -204.756 481.019 -205.36C447.766 -218.557 414.444 -231.78 380.18 -238.21C366.993 -240.684 353.522 -243.403 339.897 -246.153L339.891 -246.154C303.576 -253.482 266.156 -261.034 230.045 -264.78Z" fill="black"/>
<path d="M243.989 -270.091C243.287 -269.84 242.585 -269.587 241.885 -269.331C286.799 -265.595 333.538 -259.075 376.502 -251.564C410.59 -245.614 443.647 -232.666 476.736 -219.705L479.427 -218.651C513.398 -205.351 547.43 -192.239 582.582 -186.953C596.777 -184.82 611.547 -184.407 626.71 -185.314C626.412 -185.608 626.113 -185.903 625.813 -186.196C611.004 -185.358 596.583 -185.793 582.721 -187.877C547.689 -193.144 513.752 -206.215 479.768 -219.521L477.04 -220.589L477.038 -220.59C443.978 -233.539 410.844 -246.517 376.663 -252.483C334.325 -259.885 288.316 -266.326 243.989 -270.091Z" fill="black"/>
<path d="M263.652 -276.503C262.711 -276.225 261.771 -275.944 260.833 -275.659C298.353 -274.506 335.923 -271.642 373.61 -266.019C407.958 -260.889 441.413 -249.171 474.901 -237.442L474.903 -237.441L476.583 -236.853C510.616 -224.934 544.697 -213.118 579.712 -208.375C587.452 -207.329 595.339 -206.722 603.348 -206.5C602.959 -206.824 602.569 -207.147 602.178 -207.469C594.612 -207.716 587.158 -208.311 579.837 -209.3C544.931 -214.028 510.939 -225.81 476.891 -237.734L475.174 -238.335C441.713 -250.055 408.185 -261.799 373.748 -266.943C336.953 -272.432 300.275 -275.295 263.652 -276.503Z" fill="black"/>
<path d="M317.01 -288C315.472 -287.787 313.937 -287.564 312.405 -287.332C332.577 -286.201 352.692 -284.551 372.729 -282.242C407.613 -278.219 442.087 -268.342 476.615 -258.449L476.939 -258.356C478.376 -257.945 479.814 -257.533 481.251 -257.122C507.332 -249.658 533.455 -242.335 559.791 -237.689C559.052 -238.14 558.312 -238.589 557.57 -239.036C532.102 -243.686 506.808 -250.779 481.508 -258.019C479.954 -258.464 478.401 -258.909 476.847 -259.354C442.339 -269.241 407.798 -279.137 372.836 -283.169C354.287 -285.307 335.673 -286.88 317.01 -288Z" fill="black"/>
</svg>
