<svg width="330" height="361" viewBox="0 0 330 361" fill="none" xmlns="http://www.w3.org/2000/svg">
<path d="M-294.272 1013.02C-287.373 1014.18 -280.479 1015.35 -273.586 1016.53C-267.728 1017.52 -261.872 1018.52 -256.012 1019.51C-253.531 1019.93 -251.05 1020.34 -248.569 1020.75C-241.214 1021.66 -233.81 1022.41 -226.362 1023C-236.186 1021.48 -245.992 1019.87 -255.795 1018.22C-261.648 1017.24 -267.501 1016.24 -273.356 1015.24L-273.359 1015.24C-286.463 1013.01 -299.578 1010.77 -312.734 1008.67C-306.623 1010.23 -300.468 1011.68 -294.272 1013.02Z" fill="black"/>
<path d="M-408.328 973.841C-407.087 974.439 -405.844 975.032 -404.598 975.62C-397.377 976.506 -390.148 977.344 -382.911 978.126C-345.399 982.19 -308.996 989.976 -272.617 997.756L-272.608 997.758C-266.722 999.017 -260.837 1000.28 -254.949 1001.52C-212.673 1010.44 -170.209 1018.54 -125.949 1019.92C-122.856 1020.02 -119.765 1020.1 -116.677 1020.15C-113.835 1019.78 -111 1019.38 -108.173 1018.96C-114.078 1018.91 -119.989 1018.8 -125.907 1018.62C-170.043 1017.23 -212.41 1009.16 -254.679 1000.24C-260.564 998.998 -266.447 997.74 -272.334 996.481C-308.709 988.701 -345.186 980.899 -382.77 976.827C-391.301 975.905 -399.819 974.905 -408.328 973.841Z" fill="black"/>
<path d="M-463.188 943.141C-462.342 943.685 -461.493 944.227 -460.644 944.766C-435.769 947.792 -411.017 950.932 -386.472 954.163C-347.046 959.351 -309.266 969.649 -271.524 979.938L-271.522 979.938C-265.398 981.608 -259.275 983.277 -253.146 984.924C-209.262 996.716 -165.093 1007.37 -118.227 1008.77C-94.1785 1009.49 -70.4307 1008.25 -46.8513 1005.92C-44.4376 1005.25 -42.0309 1004.56 -39.6315 1003.86C-65.5856 1006.67 -91.7075 1008.26 -118.188 1007.47C-164.89 1006.07 -208.932 995.452 -252.806 983.662C-258.927 982.017 -265.046 980.349 -271.167 978.68C-308.906 968.393 -346.78 958.068 -386.302 952.868C-411.739 949.519 -437.399 946.268 -463.188 943.141Z" fill="black"/>
<path d="M-499.02 917.896C-498.4 918.374 -497.779 918.85 -497.156 919.324C-461.246 921.642 -425.592 924.816 -390.575 929.575C-347.389 935.446 -306.758 949.454 -266.109 963.467L-266.102 963.47C-260.949 965.246 -255.797 967.022 -250.638 968.782C-204.808 984.419 -158.56 998.747 -108.362 1000.02C-65.7195 1001.1 -24.8788 993.586 15.5592 984.168C17.8526 983.198 20.1374 982.212 22.4136 981.21C-20.3425 991.392 -63.3429 999.85 -108.329 998.717C-158.309 997.446 -204.391 983.18 -250.216 967.546C-255.373 965.786 -260.526 964.009 -265.682 962.232C-306.317 948.223 -347.076 934.17 -390.399 928.28C-426.075 923.432 -462.421 920.227 -499.02 917.896Z" fill="black"/>
<path d="M-526.573 895.121C-526.09 895.549 -525.606 895.977 -525.121 896.404C-481.059 895.69 -437.388 897.159 -395.216 904.428C-350.52 912.119 -308.727 929.428 -266.925 946.741L-266.919 946.744C-260.542 949.385 -254.166 952.026 -247.779 954.633C-199.55 974.317 -150.747 992.046 -97.0894 992.935C-47.9652 993.749 -2.66635 979.988 42.1658 964.443C48.4557 962.262 54.7358 960.046 61.0159 957.83C67.622 955.499 74.2281 953.168 80.8454 950.878C82.5753 949.834 84.2985 948.78 86.015 947.717C77.509 950.624 69.0324 953.615 60.5631 956.604L60.5597 956.605C54.2847 958.819 48.0136 961.032 41.7373 963.208C-3.08214 978.749 -48.1921 992.438 -97.0677 991.628C-150.46 990.744 -199.066 973.104 -247.285 953.423C-253.663 950.82 -260.034 948.181 -266.408 945.541L-266.411 945.54C-308.202 928.23 -350.143 910.858 -394.994 903.141C-437.733 895.773 -481.986 894.352 -526.573 895.121Z" fill="black"/>
<path d="M-547.438 875.571C-547.04 875.965 -546.641 876.359 -546.242 876.752C-496.78 871.221 -447.595 869.041 -400.115 878.986C-354.092 888.608 -310.917 909.407 -267.691 930.231C-260.007 933.933 -252.32 937.636 -244.616 941.277C-193.616 965.379 -141.86 986.75 -84.8172 986.954C-34.8493 987.139 9.53606 969.24 53.2062 949.041C59.6216 946.074 66.0209 943.057 72.42 940.041C93.7387 929.992 115.057 919.942 136.966 911.715C138.03 910.862 139.091 910.005 140.148 909.144C116.877 917.638 94.3261 928.269 71.8376 938.87C65.4441 941.884 59.0557 944.896 52.6571 947.855C9.00287 968.047 -35.1552 985.831 -84.8123 985.647C-141.542 985.445 -193.069 964.192 -244.058 940.095C-251.742 936.464 -259.414 932.768 -267.09 929.069L-267.094 929.068C-310.315 908.245 -353.655 887.365 -399.847 877.707C-447.865 867.649 -497.577 869.949 -547.438 875.571Z" fill="black"/>
<path d="M-564.154 858.232C-563.812 858.603 -563.469 858.975 -563.126 859.345C-510.277 847.889 -457.484 840.555 -405.122 853.359C-357.423 865.023 -312.473 889.268 -267.402 913.578C-258.712 918.265 -250.018 922.955 -241.299 927.557C-187.4 956.006 -132.568 981.101 -72.1469 981.342C-21.4581 981.546 22.1818 959.353 64.785 934.187C71.4942 930.224 78.1768 926.188 84.8571 922.154C115.601 903.586 146.296 885.047 179.31 873.786C179.996 873.099 180.681 872.411 181.364 871.72C147.241 882.944 115.641 902.032 84.1415 921.058L84.1388 921.06C77.4689 925.089 70.8036 929.115 64.1199 933.063C21.5319 958.219 -21.8386 980.238 -72.1417 980.035C-132.216 979.796 -186.799 954.846 -240.688 926.402C-249.382 921.813 -258.059 917.133 -266.738 912.451L-266.741 912.449C-311.811 888.138 -356.934 863.797 -404.812 852.09C-457.658 839.168 -510.881 846.655 -563.949 858.187C-564.017 858.202 -564.086 858.217 -564.154 858.232Z" fill="black"/>
<path d="M-578.093 842.45C-577.789 842.809 -577.484 843.168 -577.179 843.526C-573.911 842.453 -570.644 841.396 -567.376 840.361C-515.854 824.032 -464.164 812.925 -410.128 827.843C-361.089 841.389 -314.378 869.021 -267.424 896.796C-257.659 902.573 -247.884 908.355 -238.075 914.019C-181.153 946.883 -123.126 975.712 -59.695 975.619C-8.19634 975.545 34.7295 949.083 76.2632 919.073C83.0878 914.142 89.874 909.116 96.6545 904.094L96.6584 904.091C131.199 878.51 165.594 853.036 204.175 840.757C206.565 839.997 208.964 839.292 211.369 838.64C211.848 838.064 212.326 837.487 212.803 836.909C209.783 837.692 206.775 838.559 203.778 839.513C164.97 851.864 130.367 877.495 95.8297 903.077C89.0602 908.091 82.2931 913.104 75.4974 918.014C33.9733 948.017 -8.65218 974.239 -59.6969 974.313C-122.746 974.405 -180.505 945.749 -237.421 912.887C-247.2 907.241 -256.955 901.47 -266.707 895.701C-313.662 867.922 -360.556 840.181 -409.78 826.583C-464.198 811.56 -516.196 822.77 -567.771 839.115C-571.214 840.206 -574.654 841.32 -578.093 842.45Z" fill="black"/>
<path d="M-590.107 827.74C-589.829 828.093 -589.55 828.447 -589.271 828.8C-583.236 826.125 -577.205 823.499 -571.167 820.967C-521.339 800.067 -471.033 785.504 -414.872 802.548C-364.686 817.778 -316.267 848.574 -267.456 879.619L-267.453 879.621C-256.676 886.476 -245.879 893.343 -235.04 900.057C-175.171 937.143 -114.032 969.547 -47.9443 969.047C4.3799 968.658 46.6519 938.081 87.1697 903.469C94.0082 897.627 100.794 891.673 107.571 885.726C120.898 874.032 134.19 862.368 147.777 851.654C168.262 835.502 189.355 821.56 212.111 813.02C220.046 810.041 228.086 807.809 236.215 806.231C236.576 805.721 236.935 805.209 237.294 804.697C228.645 806.299 220.091 808.628 211.652 811.797C188.714 820.405 167.498 834.44 146.967 850.629C133.354 861.363 120.015 873.068 106.671 884.777L106.663 884.784C99.8954 890.722 93.1268 896.661 86.3204 902.476C45.8028 937.088 3.85336 967.355 -47.9542 967.741C-113.629 968.238 -174.481 936.033 -234.351 898.947C-245.155 892.254 -255.928 885.402 -266.691 878.556L-266.694 878.554C-315.51 847.503 -364.118 816.585 -414.492 801.298C-471.106 784.117 -521.774 798.832 -571.673 819.762C-577.827 822.343 -583.968 825.018 -590.107 827.74Z" fill="black"/>
<path d="M-600.609 813.915C-600.35 814.269 -600.089 814.623 -599.829 814.976C-591.475 810.336 -583.142 805.762 -574.78 801.409C-526.683 776.368 -477.756 758.675 -419.169 777.697C-367.911 794.345 -317.887 828.001 -267.322 862.02L-267.317 862.024C-255.698 869.841 -244.05 877.678 -232.352 885.331C-169.814 926.25 -105.859 961.925 -37.4497 960.999C15.7701 960.275 57.4116 925.946 96.9593 887.185C103.729 880.55 110.435 873.787 117.129 867.037L117.132 867.033C130.02 854.037 142.861 841.088 156.021 829.186C176.008 811.11 196.665 795.514 219.193 785.947C231.169 780.866 243.404 777.766 255.838 776.269C256.123 775.797 256.408 775.326 256.693 774.853C243.801 776.316 231.107 779.473 218.681 784.745C195.958 794.395 175.174 810.102 155.144 828.217C141.958 840.142 129.07 853.139 116.165 866.153C109.477 872.897 102.785 879.645 96.044 886.252C56.4865 925.023 15.1808 958.976 -37.4673 959.693C-105.438 960.613 -169.09 925.162 -231.636 884.238C-243.297 876.609 -254.92 868.788 -266.525 860.98C-317.097 826.953 -367.315 793.165 -418.765 776.455C-477.866 757.265 -527.198 775.163 -575.384 800.25C-583.809 804.636 -592.203 809.245 -600.609 813.915Z" fill="black"/>
<path d="M-609.979 800.712C-609.733 801.071 -609.486 801.43 -609.238 801.788C-608.91 801.573 -608.582 801.357 -608.254 801.142L-608.251 801.14C-598.168 794.522 -588.154 787.949 -578.077 781.754C-531.608 753.186 -483.964 732.767 -422.982 753.475C-373.582 770.236 -325.518 800.432 -279.948 829.061C-268.184 836.452 -256.586 843.738 -245.175 850.662C-234.085 857.396 -222.137 865.188 -209.56 873.389C-188.643 887.03 -165.986 901.804 -142.65 914.735C-105.259 935.455 -65.9211 951.569 -28.7655 950.883C25.5296 949.881 66.5188 912.347 105.111 870.079C111.714 862.848 118.244 855.48 124.76 848.129L124.762 848.126C137.322 833.956 149.83 819.843 162.702 806.881C182.242 787.203 202.554 770.246 225.011 759.874C240.142 752.887 255.664 749.42 271.462 748.606C271.696 748.159 271.93 747.711 272.164 747.263C255.955 748.01 240.01 751.508 224.462 758.688C201.798 769.156 181.356 786.24 161.774 805.961C148.878 818.948 136.325 833.11 123.748 847.299C117.237 854.645 110.72 861.998 104.146 869.198C65.5352 911.486 24.8886 948.586 -28.7897 949.577C-65.5864 950.256 -104.671 934.287 -142.017 913.593C-165.329 900.674 -187.886 885.963 -208.763 872.348C-221.352 864.137 -233.331 856.326 -244.496 849.545C-255.866 842.647 -267.435 835.378 -279.181 827.998C-324.763 799.36 -373 769.054 -422.561 752.238C-484.107 731.338 -532.191 752.01 -578.762 780.641C-588.857 786.847 -598.889 793.432 -608.971 800.05C-609.307 800.27 -609.643 800.491 -609.979 800.712Z" fill="black"/>
<path d="M-618.466 787.943C-618.23 788.31 -617.994 788.677 -617.757 789.043C-616.641 788.224 -615.527 787.404 -614.414 786.584C-612.381 785.085 -610.353 783.586 -608.329 782.089C-599.093 775.26 -589.927 768.483 -580.692 762.064C-535.673 730.772 -489.194 708.111 -426.015 729.993C-375.472 747.503 -326.117 779.424 -279.565 809.533L-279.561 809.535C-267.306 817.461 -255.245 825.262 -243.408 832.641C-232.085 839.705 -219.846 847.928 -206.919 856.613L-206.917 856.614C-202.801 859.38 -198.614 862.193 -194.365 865.03C-176.782 876.771 -158.142 888.921 -139.006 899.857C-100.752 921.716 -60.4221 938.777 -22.4839 937.961C33.1031 936.772 73.3822 896.788 111.026 851.861C117.352 844.312 123.601 836.624 129.838 828.953L129.84 828.951C142.192 813.756 154.495 798.623 167.238 784.746C186.406 763.871 206.504 745.915 229.121 734.985C246.993 726.352 265.311 722.927 283.917 723.187C284.114 722.754 284.31 722.322 284.506 721.889C265.532 721.548 246.819 724.984 228.552 733.809C205.716 744.845 185.485 762.942 166.275 783.862C153.506 797.768 141.159 812.955 128.79 828.169C122.559 835.833 116.322 843.505 110.024 851.022C72.3577 895.976 32.4232 935.48 -22.512 936.655C-60.0777 937.463 -100.146 920.558 -138.357 898.723C-157.452 887.811 -176.061 875.681 -193.639 863.944C-197.88 861.112 -202.061 858.303 -206.174 855.539L-206.177 855.538C-219.108 846.85 -231.372 838.61 -242.716 831.532C-254.509 824.181 -266.539 816.4 -278.774 808.486L-278.779 808.483C-325.344 778.365 -374.878 746.326 -425.587 728.758C-489.368 706.668 -536.308 729.622 -581.439 760.992C-590.691 767.423 -599.874 774.213 -609.111 781.042L-609.138 781.062C-611.152 782.551 -613.169 784.042 -615.19 785.532C-616.281 786.336 -617.373 787.14 -618.466 787.943Z" fill="black"/>
<path d="M-626.337 775.315C-626.11 775.69 -625.883 776.065 -625.656 776.44C-619.514 771.679 -613.449 766.841 -607.418 762.031C-599.07 755.373 -590.788 748.767 -582.459 742.487C-560.547 725.965 -538.236 711.633 -513.276 704.226C-488.335 696.825 -460.713 696.329 -428.157 707.546C-377.02 725.173 -326.785 758.352 -279.743 789.422L-279.739 789.424C-267.063 797.796 -254.62 806.015 -242.452 813.735C-230.971 821.016 -218.58 829.486 -205.502 838.426L-205.486 838.437C-201.374 841.248 -197.194 844.105 -192.952 846.987C-175.224 859.032 -156.438 871.491 -137.135 882.701C-98.5484 905.11 -57.8018 922.588 -19.1965 921.753C38.0275 920.491 77.5216 878.997 114.21 832.463C120.136 824.948 125.987 817.302 131.829 809.668L131.832 809.664C144.106 793.626 156.339 777.641 169.138 763.024C188.022 741.457 208.071 722.948 231.153 711.762C251.664 701.82 272.551 698.799 293.657 700.386C293.826 699.962 293.995 699.539 294.163 699.114C272.728 697.442 251.471 700.461 230.583 710.587C207.269 721.885 187.083 740.545 168.154 762.163C155.328 776.812 143.049 792.856 130.761 808.913C124.924 816.54 119.084 824.17 113.183 831.655C76.4737 878.215 37.3238 919.199 -19.2248 920.447C-57.4532 921.274 -97.9361 903.955 -136.478 881.571C-155.74 870.385 -174.494 857.948 -192.218 845.906C-196.445 843.034 -200.615 840.184 -204.719 837.378L-204.749 837.358L-204.75 837.357C-217.833 828.414 -230.249 819.926 -241.752 812.632C-253.871 804.942 -266.283 796.744 -278.937 788.386L-278.939 788.385C-325.997 757.303 -376.42 723.998 -427.73 706.311C-460.538 695.007 -488.44 695.494 -513.648 702.974C-538.836 710.448 -561.298 724.895 -583.246 741.444C-591.638 747.771 -599.943 754.396 -608.298 761.06C-614.269 765.823 -620.266 770.607 -626.337 775.315Z" fill="black"/>
<path d="M-634.446 761.386C-634.231 761.769 -634.015 762.152 -633.799 762.534C-625.097 755.991 -616.575 749.218 -608.12 742.498C-599.697 735.804 -591.342 729.163 -582.94 722.855C-561.01 706.389 -538.69 692.123 -513.771 684.79C-488.872 677.463 -461.343 677.047 -428.972 688.347C-377.763 706.218 -327.452 738.878 -280.117 769.605C-267.202 777.989 -254.508 786.229 -242.079 793.985C-230.279 801.352 -217.51 809.973 -204.018 819.083L-204.015 819.085L-203.992 819.1C-200.179 821.675 -196.308 824.288 -192.386 826.923C-174.58 838.883 -155.713 851.28 -136.344 862.465C-97.6248 884.822 -56.8067 902.391 -18.3524 901.89C39.0635 901.129 78.3193 859.396 114.716 812.532C120.59 804.969 126.388 797.274 132.177 789.59L132.182 789.584C144.359 773.423 156.497 757.313 169.217 742.596C187.976 720.892 207.934 702.3 231.005 691.161C254.111 679.999 277.531 677.524 301.116 680.492C301.264 680.072 301.411 679.651 301.558 679.231C277.678 676.183 253.907 678.646 230.436 689.985C207.129 701.238 187.032 719.985 168.227 741.742C155.48 756.491 143.297 772.661 131.105 788.842L131.093 788.857C125.312 796.529 119.53 804.204 113.684 811.731C77.2646 858.624 38.357 899.832 -18.3694 900.584C-56.4533 901.08 -97.0124 883.667 -135.69 861.333C-155.019 850.172 -173.856 837.796 -191.656 825.839C-195.58 823.203 -199.453 820.588 -203.271 818.01L-203.274 818.009C-216.769 808.897 -229.565 800.257 -241.386 792.877C-253.768 785.15 -266.429 776.931 -279.323 768.561L-279.324 768.56C-326.675 737.821 -377.167 705.042 -428.541 687.113C-461.164 675.726 -488.974 676.131 -514.14 683.537C-539.287 690.937 -561.759 705.317 -583.726 721.811C-592.191 728.167 -600.569 734.827 -608.998 741.526C-617.386 748.194 -625.824 754.9 -634.446 761.386Z" fill="black"/>
<path d="M-642.768 745.949C-642.566 746.339 -642.364 746.728 -642.162 747.118C-633.786 741.397 -625.571 735.454 -617.432 729.5C-615.466 728.062 -613.505 726.624 -611.547 725.188C-602.243 718.363 -593.013 711.592 -583.715 705.187C-538.714 674.185 -492.319 651.865 -429.416 673.948C-378.112 691.956 -327.95 722.421 -280.046 751.516L-280.044 751.517C-266.835 759.539 -253.798 767.457 -240.955 774.982C-228.319 782.385 -214.504 791.232 -199.859 800.611C-196.829 802.552 -193.763 804.515 -190.664 806.493C-172.599 818.027 -153.44 830.054 -133.832 840.946C-94.6366 862.72 -53.5539 880.017 -15.7335 879.739C40.3932 879.312 79.337 837.999 115.409 791.515C121.428 783.76 127.365 775.861 133.291 767.979C145.155 752.196 156.971 736.478 169.296 722.094C187.767 700.536 207.311 682.065 229.717 671.001C255.274 658.379 281.287 656.532 307.524 661.015C307.653 660.595 307.781 660.175 307.909 659.755C281.408 655.201 255.053 657.03 229.138 669.829C206.497 681.009 186.816 699.638 168.303 721.244C155.952 735.658 144.091 751.437 132.211 767.24C126.291 775.114 120.367 782.994 114.376 790.715C78.2784 837.232 39.6867 878.01 -15.7431 878.432C-53.205 878.708 -94.035 861.559 -133.197 839.804C-152.768 828.932 -171.898 816.924 -189.961 805.392C-193.052 803.419 -196.113 801.458 -199.139 799.52L-199.145 799.517C-213.791 790.137 -227.633 781.273 -240.294 773.854C-253.094 766.355 -266.103 758.454 -279.294 750.442L-279.296 750.441C-327.216 721.336 -377.536 690.773 -428.983 672.715C-492.486 650.421 -539.344 673.032 -584.457 704.111C-593.772 710.529 -603.022 717.313 -612.327 724.139C-614.284 725.574 -616.242 727.01 -618.204 728.446C-626.299 734.367 -634.457 740.27 -642.768 745.949Z" fill="black"/>
<path d="M-650.791 729.745C-650.604 730.14 -650.416 730.535 -650.228 730.93C-640.017 724.85 -630.016 718.45 -620.109 712.051C-618.59 711.07 -617.073 710.089 -615.558 709.109C-605.453 702.572 -595.427 696.087 -585.34 689.983C-538.957 661.915 -491.448 642.016 -429.999 662.764C-378.211 680.268 -327.571 708.291 -278.655 735.36C-265.321 742.738 -252.115 750.046 -239.049 757.051C-225.548 764.287 -210.679 773.089 -194.894 782.433C-192.537 783.829 -190.159 785.236 -187.763 786.653C-169.325 797.548 -149.779 808.95 -129.844 819.283C-89.9956 839.938 -48.5005 856.371 -11.1121 855.888C43.7398 855.201 81.6756 814.608 116.737 768.941C122.667 761.216 128.514 753.348 134.348 745.498L134.349 745.496C145.793 730.096 157.188 714.762 169.07 700.706C186.999 679.495 205.967 661.285 227.728 650.286C255.557 636.225 284.157 635.244 313.106 641.44C313.217 641.019 313.328 640.597 313.438 640.175C284.255 633.919 255.322 634.88 227.138 649.12C205.145 660.236 186.042 678.604 168.071 699.863C156.164 713.949 144.724 729.343 133.264 744.765C127.436 752.607 121.602 760.457 115.7 768.145C80.6133 813.845 43.0269 853.903 -11.129 854.582C-48.1731 855.06 -89.422 838.763 -129.242 818.123C-149.142 807.809 -168.661 796.422 -187.097 785.528C-189.479 784.121 -191.842 782.722 -194.186 781.334L-194.225 781.311C-210.006 771.969 -224.903 763.15 -238.431 755.899C-251.461 748.914 -264.643 741.62 -277.961 734.25C-326.89 707.173 -377.669 679.073 -429.581 661.526C-491.583 640.591 -539.525 660.731 -586.017 688.865C-596.122 694.98 -606.166 701.477 -616.269 708.013C-617.784 708.992 -619.3 709.973 -620.818 710.954C-630.69 717.33 -640.64 723.697 -650.791 729.745Z" fill="black"/>
<path d="M-658.518 712.615C-658.346 713.016 -658.173 713.417 -658 713.817C-645.191 707.452 -632.658 700.647 -620.229 693.899C-609.343 687.988 -598.536 682.12 -587.692 676.628C-539.661 652.305 -490.8 635.285 -430.65 654.019C-378.282 670.333 -326.928 695.532 -276.868 720.095C-263.319 726.744 -249.864 733.346 -236.51 739.712C-221.964 746.64 -205.872 755.217 -188.802 764.314L-188.8 764.315L-188.627 764.407C-187.058 765.243 -185.481 766.084 -183.896 766.928C-165.008 776.986 -145.02 787.536 -124.71 797.078C-84.1105 816.153 -42.1302 831.249 -4.97228 830.303C48.6208 828.91 85.0012 789.334 118.527 744.888C124.175 737.4 129.74 729.776 135.295 722.166C146.257 707.149 157.176 692.19 168.602 678.455C185.808 657.772 204.096 639.951 225.258 629.018C255.105 613.599 286.233 613.679 317.894 621.702C317.989 621.277 318.082 620.851 318.176 620.425C286.315 612.359 254.859 612.255 224.658 627.857C203.266 638.909 184.845 656.887 167.597 677.62C156.147 691.385 145.183 706.403 134.206 721.441L134.204 721.443C128.656 729.044 123.104 736.65 117.483 744.101C83.9362 788.576 47.8973 827.621 -5.00558 828.997C-41.837 829.934 -83.5795 814.959 -124.154 795.896C-144.431 786.369 -164.393 775.833 -183.282 765.774C-184.927 764.899 -186.564 764.026 -188.192 763.158C-205.255 754.065 -221.373 745.475 -235.947 738.533C-249.268 732.182 -262.7 725.591 -276.234 718.95L-276.24 718.947C-326.311 694.378 -377.786 669.119 -430.261 652.771C-490.902 633.884 -540.151 651.088 -588.283 675.463C-599.199 680.991 -610.053 686.884 -620.968 692.81C-633.346 699.53 -645.803 706.293 -658.518 712.615Z" fill="black"/>
<path d="M-665.795 694.733C-665.639 695.14 -665.482 695.546 -665.324 695.952C-651.95 690.681 -638.801 685.02 -625.744 679.399L-625.742 679.398C-614.034 674.357 -602.399 669.348 -590.741 664.68C-540.833 644.696 -490.392 630.896 -431.479 647.157C-378.379 661.793 -326.112 683.861 -274.753 705.547L-274.746 705.55C-260.988 711.359 -247.296 717.14 -233.67 722.743C-218.002 729.185 -200.635 737.303 -182.253 745.896L-179.533 747.167C-160.15 756.226 -139.693 765.739 -118.98 774.301C-77.5727 791.419 -35.0522 804.779 2.05902 803.092C54.5565 800.714 88.9179 762.344 120.466 719.42C125.613 712.418 130.684 705.296 135.747 698.184L135.749 698.181C146.232 683.458 156.682 668.779 167.713 655.296C184.063 635.311 201.623 618.037 222.305 607.271C254.031 590.749 287.599 592.069 321.867 601.942C321.945 601.511 322.023 601.08 322.099 600.649C287.668 590.751 253.781 589.406 221.701 606.112C200.789 616.998 183.095 634.429 166.701 654.469C155.642 667.986 145.146 682.728 134.648 697.474L134.643 697.48C129.588 704.58 124.532 711.681 119.413 718.647C87.8502 761.589 53.8186 799.44 1.99966 801.787C-34.8046 803.46 -77.0966 790.202 -118.48 773.094C-139.162 764.544 -159.594 755.043 -178.98 745.984L-181.711 744.707L-181.713 744.706C-200.084 736.119 -217.475 727.989 -233.173 721.535C-246.775 715.941 -260.452 710.166 -274.201 704.361C-325.57 682.671 -377.94 660.558 -431.131 645.898C-490.461 629.522 -541.233 643.449 -591.227 663.467C-602.953 668.163 -614.632 673.19 -626.366 678.242C-639.392 683.849 -652.488 689.487 -665.795 694.733Z" fill="black"/>
<path d="M-672.463 676.382C-672.322 676.795 -672.18 677.207 -672.038 677.619C-658.531 673.682 -645.173 669.448 -631.88 665.235C-619.341 661.26 -606.86 657.304 -594.369 653.634C-542.414 638.368 -490.186 628.005 -432.414 641.515C-378.49 654.114 -325.194 672.797 -272.538 691.256C-258.576 696.151 -244.66 701.029 -230.788 705.774C-213.781 711.588 -194.934 719.092 -175.054 727.008L-175.01 727.026C-155.12 734.945 -134.203 743.273 -113.096 750.713C-70.9003 765.586 -27.8592 776.944 9.35202 774.368C62.1075 770.726 93.3588 733 121.969 691.525C125.789 685.989 129.56 680.386 133.33 674.786C143.703 659.379 154.06 643.994 165.356 630.064C180.748 611.083 197.832 594.875 218.953 585.095C253.682 569.007 289.176 571.67 324.94 582.892C325.003 582.455 325.064 582.017 325.125 581.58C289.237 570.353 253.458 567.671 218.404 583.91C197.026 593.808 179.793 610.186 164.34 629.242C153.004 643.221 142.598 658.678 132.215 674.102C128.452 679.691 124.693 685.276 120.893 690.784C92.2757 732.268 61.3398 769.47 9.26181 773.065C-27.664 775.621 -70.4884 764.346 -112.662 749.481C-133.74 742.051 -154.633 733.733 -174.526 725.812L-174.59 725.786C-194.454 717.877 -213.327 710.362 -230.365 704.538C-244.215 699.8 -258.117 694.927 -272.069 690.036C-324.734 671.573 -378.116 652.86 -432.116 640.243C-490.223 626.654 -542.717 637.095 -594.737 652.38C-607.287 656.068 -619.804 660.035 -632.364 664.016C-645.652 668.228 -658.988 672.455 -672.463 676.382Z" fill="black"/>
<path d="M-678.535 657.418C-678.41 657.837 -678.284 658.256 -678.158 658.675C-665.319 656.088 -652.522 653.307 -639.746 650.53C-628.444 648.074 -617.158 645.621 -605.873 643.309C-554.021 632.689 -502.136 625.04 -448.548 633.623C-383.472 644.033 -319.333 662.361 -255.544 680.59C-231.824 687.368 -208.152 694.132 -184.498 700.471C-170.625 704.182 -155.675 708.828 -140.102 713.668L-137.482 714.482C-120.97 719.612 -103.795 724.91 -86.5154 729.495C-51.9686 738.66 -16.935 744.992 14.1468 741.396C68.1166 735.157 97.6117 698.144 125.104 658.418C127.678 654.699 130.234 650.956 132.792 647.212L132.8 647.199C157.6 610.89 182.466 574.483 224.161 558.233C257.504 545.224 292.257 549.619 327.495 561.792C327.54 561.347 327.584 560.901 327.628 560.455C292.314 548.299 257.321 543.893 223.686 557.016C181.591 573.422 156.493 610.179 131.737 646.436C129.17 650.195 126.607 653.949 124.029 657.675C96.5366 697.401 67.3352 733.932 13.9965 740.098C-16.8319 743.665 -51.6689 737.388 -86.18 728.232C-103.43 723.656 -120.58 718.365 -137.094 713.235L-139.72 712.418C-155.287 707.58 -170.26 702.927 -184.16 699.209C-207.767 692.883 -231.411 686.126 -255.115 679.353C-318.929 661.117 -383.182 642.756 -448.341 632.333C-502.173 623.711 -554.253 631.403 -606.136 642.03C-617.456 644.348 -628.764 646.806 -640.079 649.265C-652.88 652.047 -665.691 654.831 -678.535 657.418Z" fill="black"/>
<path d="M-683.671 638.98C-683.56 639.406 -683.45 639.833 -683.338 640.259C-670.875 638.946 -658.423 637.527 -645.979 636.109C-634.165 634.763 -622.356 633.418 -610.553 632.165C-557.134 626.494 -503.763 622.708 -450.001 629.233C-384.11 637.24 -318.762 651.053 -253.598 664.827C-229.547 669.911 -205.521 674.989 -181.501 679.769C-166.372 682.775 -150.137 686.71 -133.304 690.797L-132.835 690.91C-116.153 694.961 -98.8918 699.151 -81.5711 702.718C-46.6144 709.916 -11.3504 714.587 19.9946 710.419C71.9785 703.511 99.8533 668.418 125.792 630.881C128.172 627.436 130.536 623.972 132.9 620.507C156.345 586.142 179.852 551.688 220.064 535.822C254.768 522.13 291.607 527.753 329.125 541.519C329.153 541.065 329.18 540.611 329.206 540.156C291.649 526.428 254.58 520.799 219.584 534.607C178.977 550.629 155.242 585.428 131.837 619.743L131.834 619.748C129.464 623.223 127.097 626.693 124.717 630.138C98.7837 667.667 71.1942 702.297 19.8222 709.124C-11.2971 713.262 -46.384 708.63 -81.3073 701.438C-98.6055 697.876 -115.848 693.69 -132.537 689.638L-132.996 689.527C-149.823 685.442 -166.085 681.499 -181.246 678.487C-205.23 673.715 -229.234 668.641 -253.272 663.56L-253.276 663.559C-318.459 649.781 -383.891 635.95 -449.843 627.936C-503.759 621.392 -557.253 625.193 -610.691 630.866C-622.517 632.121 -634.339 633.468 -646.162 634.815L-646.164 634.815C-658.663 636.239 -671.163 637.664 -683.671 638.98Z" fill="black"/>
<path d="M-688.031 620.732C-687.935 621.166 -687.839 621.6 -687.743 622.034C-676.089 621.838 -664.435 621.606 -652.782 621.374H-652.78C-640.295 621.125 -627.811 620.877 -615.33 620.672C-560.641 619.777 -505.998 619.732 -451.491 624.251C-384.668 629.776 -318.111 639.037 -251.617 648.288L-251.614 648.289C-227.485 651.646 -203.365 655.001 -179.243 658.177C-163.624 660.233 -147.045 663.102 -129.96 666.104C-128.652 666.334 -127.341 666.565 -126.027 666.796C-110.187 669.584 -93.9476 672.441 -77.6882 674.831C-42.479 680.007 -7.11544 683 24.6206 678.334C74.5801 670.999 101.122 637.995 125.826 602.802C128.039 599.65 130.237 596.481 132.435 593.311C154.819 561.034 177.26 528.675 216.074 513.375C251.899 499.248 290.517 505.988 329.963 521.109C329.972 520.645 329.982 520.182 329.991 519.719C290.541 504.657 251.707 497.919 215.594 512.16C176.391 527.613 153.724 560.308 131.379 592.538L131.365 592.558C129.164 595.733 126.966 598.903 124.756 602.052C100.064 637.228 73.8005 669.793 24.4305 677.042C-7.11039 681.679 -42.3194 678.71 -77.498 673.539C-93.7392 671.151 -109.962 668.297 -125.806 665.509L-129.734 664.818C-146.816 661.815 -163.422 658.942 -179.072 656.882C-203.174 653.709 -227.282 650.355 -251.404 646.998C-317.91 637.745 -384.521 628.478 -451.383 622.949C-505.957 618.424 -560.654 618.471 -615.352 619.366C-627.836 619.57 -640.32 619.819 -652.803 620.067L-652.824 620.068C-664.561 620.302 -676.297 620.535 -688.031 620.732Z" fill="black"/>
<path d="M-691.67 602.603C-691.589 603.045 -691.508 603.486 -691.427 603.928C-675.925 604.9 -660.423 605.888 -644.922 606.877C-580.99 610.955 -517.057 615.033 -453.055 617.94C-384.861 621.041 -316.751 625.793 -248.638 630.546C-225.112 632.187 -201.586 633.829 -178.056 635.402C-159.468 636.651 -139.871 638.834 -119.821 641.068C-105.179 642.699 -90.2961 644.357 -75.3892 645.697C-40.1172 648.869 -4.80319 650.251 27.3969 645.217C75.385 637.734 101.019 606.96 124.928 574.241C127.025 571.372 129.108 568.488 131.192 565.603C152.901 535.552 174.655 505.439 212.154 490.93C249.003 476.652 289.055 484.339 330 500.529C329.992 500.057 329.982 499.585 329.973 499.112C289.057 483.001 248.808 475.326 211.682 489.711C173.803 504.368 151.824 534.801 130.152 564.81C128.06 567.706 125.972 570.598 123.872 573.471C99.9813 606.165 74.6208 636.53 27.1948 643.926C-4.84244 648.934 -40.027 647.565 -75.2721 644.396C-90.1094 643.062 -104.974 641.406 -119.615 639.776L-119.619 639.775C-139.707 637.538 -159.373 635.348 -177.969 634.099C-201.49 632.526 -225.011 630.885 -248.533 629.243C-316.651 624.49 -384.784 619.736 -452.996 616.635C-516.996 613.728 -580.894 609.652 -644.805 605.575L-644.812 605.575L-644.822 605.574C-660.437 604.578 -676.052 603.582 -691.67 602.603Z" fill="black"/>
<path d="M-694.644 584.416C-694.579 584.864 -694.513 585.312 -694.447 585.76C-681.943 587.399 -669.449 589.092 -656.955 590.785L-656.942 590.787C-646.064 592.261 -635.187 593.735 -624.306 595.174C-568.09 602.604 -511.77 609.079 -454.694 609.67C-393.276 610.285 -331.857 610.54 -270.44 610.794H-270.435L-270.386 610.794C-239.694 610.922 -209.002 611.049 -178.312 611.221C-157.566 611.337 -135.933 612.407 -113.968 613.493L-113.965 613.493C-101.093 614.13 -88.1069 614.772 -75.1182 615.231C-39.9923 616.473 -4.8951 616.373 27.8049 611.176C73.9481 603.824 99.2201 575.423 122.896 545.309C124.935 542.716 126.962 540.11 128.989 537.504C150.529 509.815 172.096 482.09 208.452 468.596C246.32 454.546 287.35 462.942 329.221 479.835C329.193 479.354 329.165 478.872 329.136 478.391C287.323 461.596 246.122 453.226 207.997 467.371C171.275 481.001 149.483 509.022 127.977 536.675L127.951 536.709C125.925 539.314 123.901 541.916 121.868 544.502C98.2158 574.586 73.2134 602.618 27.5996 609.885C-4.97212 615.063 -39.9671 615.166 -75.072 613.925C-88.0186 613.467 -100.987 612.826 -113.852 612.19L-113.857 612.19C-135.846 611.103 -157.536 610.031 -178.304 609.914C-209.013 609.742 -239.72 609.615 -270.427 609.488H-270.44C-331.855 609.233 -393.267 608.979 -454.681 608.364C-511.673 607.773 -567.926 601.308 -624.135 593.878C-635.01 592.441 -645.884 590.967 -656.762 589.493C-669.382 587.783 -682.007 586.072 -694.644 584.416Z" fill="black"/>
<path d="M-696.988 565.908C-696.939 566.361 -696.89 566.813 -696.84 567.265C-684.414 569.575 -672.009 571.976 -659.608 574.376L-659.606 574.377C-649.052 576.419 -638.501 578.461 -627.943 580.446C-571.437 591.071 -514.735 600.072 -456.373 598.816C-421.403 598.055 -385.67 597.706 -349.537 597.352L-349.532 597.352C-224.38 596.129 -94.423 594.858 25.2906 576.287C69.7139 569.382 95.2794 543.47 119.428 516.079C121.435 513.802 123.433 511.515 125.43 509.228L125.449 509.206C147.497 483.963 169.552 458.712 205.112 446.523C244.055 433.162 285.514 441.978 327.614 459.14C327.566 458.65 327.517 458.159 327.468 457.669C285.449 440.622 243.853 431.85 204.688 445.287C168.781 457.596 146.503 483.109 124.486 508.321C122.474 510.625 120.465 512.926 118.447 515.215C94.3254 542.576 69.0254 568.167 25.0901 574.996C-94.5205 593.551 -224.347 594.821 -349.484 596.045C-385.634 596.398 -421.393 596.748 -456.401 597.509C-514.619 598.763 -571.209 589.785 -627.701 579.162C-638.236 577.181 -648.768 575.143 -659.307 573.103L-659.334 573.098C-671.871 570.672 -684.417 568.244 -696.988 565.908Z" fill="black"/>
<path d="M-698.687 546.984C-698.654 547.439 -698.621 547.893 -698.588 548.348C-686.169 551.213 -673.775 554.211 -661.384 557.208C-653.357 559.149 -645.331 561.09 -637.3 562.995C-582.93 575.891 -528.325 587.115 -471.623 585.377C-309.761 580.429 -138.708 562.667 21.6944 541.068C65.0724 535.221 92.4326 510.125 118.872 484.308C120.171 483.04 121.467 481.771 122.762 480.502C147.881 455.9 172.819 431.475 210.663 422.692C248.645 413.864 286.869 422.521 325.128 438.175C325.058 437.675 324.988 437.176 324.917 436.676C286.757 421.149 248.471 412.563 210.367 421.419C172.156 430.288 146.974 454.955 121.906 479.511C120.59 480.8 119.275 482.088 117.959 483.373C91.5204 509.189 64.432 533.989 21.5199 539.773C-138.859 561.369 -309.863 579.125 -471.663 584.071C-528.179 585.803 -582.637 574.617 -636.998 561.724C-645.018 559.822 -653.037 557.882 -661.06 555.942C-673.585 552.912 -686.12 549.88 -698.687 546.984Z" fill="black"/>
<path d="M-699.738 526.623C-699.723 527.075 -699.708 527.528 -699.692 527.981C-686.157 531.352 -672.669 534.932 -659.185 538.51C-652.322 540.332 -645.46 542.153 -638.593 543.946C-584.496 558.073 -530.138 570.466 -472.902 567.544C-392.284 563.444 -311.378 552.198 -230.592 539.709C-213.128 537.009 -195.671 534.252 -178.223 531.495L-178.219 531.495C-114.947 521.5 -51.8034 511.525 11.0424 504.408C53.7056 499.567 83.2939 477.468 112.124 454.832C113.372 453.853 114.618 452.873 115.863 451.893C143.432 430.201 170.779 408.684 208.824 401.617C247.384 394.46 284.847 402.963 321.89 417.915C321.798 417.408 321.706 416.901 321.613 416.394C284.685 401.58 247.203 393.165 208.586 400.332C170.216 407.459 142.636 429.162 115.116 450.817C113.85 451.814 112.584 452.81 111.317 453.805C82.4853 476.442 53.1553 498.315 10.8952 503.11C-51.9824 510.231 -115.164 520.211 -178.44 530.207C-195.885 532.963 -213.337 535.72 -230.792 538.418C-311.57 550.905 -392.421 562.143 -472.969 566.239C-529.986 569.15 -584.173 556.807 -638.263 542.682C-645.121 540.891 -651.978 539.071 -658.838 537.25L-658.84 537.25C-672.443 533.64 -686.062 530.025 -699.738 526.623Z" fill="black"/>
<path d="M-699.992 506.174C-699.995 506.621 -699.998 507.067 -700 507.514C-687.612 510.416 -675.245 513.456 -662.879 516.496C-654.078 518.66 -645.278 520.824 -636.47 522.937C-581.766 536.064 -526.824 547.243 -470.058 544.359C-360.995 538.842 -250.254 522.713 -140.542 506.735C-92.371 499.719 -44.3986 492.732 3.1463 486.685C45.7361 481.272 77.4877 459.233 108.612 436.846C109.675 436.081 110.737 435.316 111.799 434.551C141.861 412.902 171.652 391.448 210.519 384.523C246.913 378.04 282.6 385.206 317.977 398.404C317.865 397.896 317.752 397.39 317.639 396.883C282.385 383.825 246.709 376.749 210.289 383.237C171.123 390.215 141.114 411.828 111.107 433.439C110.021 434.222 108.935 435.004 107.848 435.785C76.7109 458.182 45.2041 480.022 2.9813 485.389C-44.6149 491.443 -92.616 498.434 -140.802 505.452L-140.804 505.452C-250.486 521.426 -361.125 537.54 -470.124 543.054C-526.688 545.928 -581.473 534.79 -636.165 521.667C-644.955 519.557 -653.744 517.397 -662.537 515.235L-662.542 515.233C-675.01 512.168 -687.488 509.1 -699.992 506.174Z" fill="black"/>
<path d="M-699.329 483.247C-699.351 483.686 -699.373 484.126 -699.394 484.565C-686.878 486.985 -674.374 489.51 -661.869 492.035C-649.5 494.532 -637.131 497.03 -624.751 499.426C-567.171 510.568 -509.386 519.498 -450.436 515.893C-304.358 506.957 -153.85 490.378 -8.88968 470.514C33.4671 464.715 67.0868 444.714 100.062 424.054C101.96 422.865 103.855 421.674 105.749 420.484C136.81 400.966 167.702 381.554 205.334 373.369C242.094 365.387 278.316 370.997 314.273 382.801C314.146 382.301 314.018 381.8 313.89 381.3C278.05 369.628 241.84 364.105 205.057 372.092C167.193 380.328 136.118 399.856 105.097 419.35C103.187 420.55 101.278 421.75 99.3681 422.947C66.3887 443.609 32.9822 463.463 -9.06723 469.22C-154.006 489.081 -304.479 505.656 -450.516 514.589C-509.292 518.184 -566.942 509.282 -624.502 498.143C-636.857 495.752 -649.208 493.258 -661.566 490.763L-661.571 490.762C-674.147 488.222 -686.73 485.681 -699.329 483.247Z" fill="black"/>
<path d="M-697.538 459.158C-697.58 459.592 -697.622 460.026 -697.664 460.46C-684.717 462.313 -671.771 464.244 -658.823 466.176L-658.815 466.177C-644.915 468.251 -631.011 470.325 -617.1 472.304C-558.682 480.612 -500.141 487.228 -441.217 484.992C-302.62 479.749 -158.348 473.029 -20.7183 455.931C22.9877 450.506 59.9146 431.442 96.3277 411.762C98.3281 410.68 100.327 409.597 102.325 408.515C136.73 389.873 170.978 371.317 210.491 363.662C244.576 357.07 277.89 360.951 310.845 370.004C310.707 369.514 310.568 369.024 310.429 368.535C277.588 359.595 244.311 355.79 210.243 362.379C170.526 370.074 136.113 388.72 101.747 407.342L101.737 407.347C99.7265 408.437 97.7167 409.526 95.7059 410.612C59.2841 430.298 22.5542 449.243 -20.8795 454.635C-158.448 471.725 -302.671 478.444 -441.266 483.686C-500.068 485.917 -558.513 479.316 -616.916 471.01C-630.809 469.034 -644.702 466.962 -658.597 464.889L-658.6 464.888C-671.577 462.952 -684.556 461.016 -697.538 459.158Z" fill="black"/>
<path d="M-694.346 433.294C-694.411 433.727 -694.475 434.159 -694.538 434.592C-680.953 435.431 -667.36 436.281 -653.762 437.131L-653.754 437.131C-447.41 450.029 -239.629 463.017 -33.5876 442.126C12.079 437.498 52.6546 419.796 92.8213 401.426C95.1957 400.34 97.5687 399.252 99.9411 398.163C137.731 380.833 175.4 363.558 216.977 356.54C247.996 351.302 278.17 353.656 307.935 360.066C307.791 359.589 307.645 359.112 307.499 358.636C277.844 352.317 247.73 350.022 216.76 355.252C175.005 362.3 137.189 379.643 99.4343 396.958L99.341 397.001C96.9865 398.081 94.6323 399.161 92.2774 400.238C52.1013 418.612 11.7061 436.223 -33.7195 440.826C-239.644 461.706 -447.295 448.726 -653.636 435.829L-653.651 435.828C-667.222 434.98 -680.787 434.132 -694.346 433.294Z" fill="black"/>
<path d="M-690.187 409.33C-690.273 409.764 -690.359 410.198 -690.444 410.633C-668.766 410.928 -647.089 411.165 -625.413 411.401H-625.409C-555.741 412.162 -486.085 412.922 -416.443 415.62C-377.864 417.113 -338.656 419.83 -299.223 422.563C-214.943 428.404 -129.633 434.316 -47.2382 428.504C0.718984 425.118 45.3083 409.904 89.5447 393.492C94.5688 391.628 99.5882 389.749 104.607 387.87C143.806 373.194 182.995 358.521 224.371 351.185C251.632 346.36 278.486 347.127 305.128 351.121C304.978 350.658 304.827 350.195 304.676 349.733C278.137 345.807 251.349 345.083 224.142 349.899C182.64 357.257 143.334 371.974 104.149 386.646C99.1283 388.526 94.1102 390.405 89.0897 392.267C44.8565 408.677 0.422285 423.829 -47.3302 427.2C-129.634 433.006 -214.783 427.104 -299.014 421.266L-299.018 421.266C-338.473 418.532 -377.727 415.811 -416.393 414.314C-486.037 411.616 -555.741 410.855 -625.436 410.094L-625.447 410.094C-647.029 409.858 -668.61 409.623 -690.187 409.33Z" fill="black"/>
<path d="M-684.604 384.421C-684.715 384.863 -684.825 385.306 -684.935 385.749C-665.943 384.646 -646.938 383.353 -627.933 382.061L-627.923 382.06C-613.564 381.083 -599.204 380.107 -584.848 379.212C-523.785 375.405 -462.784 373.073 -402.144 378.477C-361.059 382.146 -319.401 388.476 -277.54 394.837C-262.348 397.146 -247.13 399.458 -231.903 401.649C-174.736 409.874 -117.47 416.379 -61.1515 414.476C-10.7122 412.774 38.0068 399.793 86.4338 385.301C94.0583 383.019 101.675 380.7 109.29 378.381C150.066 365.967 190.796 353.567 232.411 346.979C256.229 343.209 279.762 343.042 303.138 345.109C302.986 344.658 302.833 344.207 302.68 343.757C279.405 341.736 255.952 341.93 232.207 345.688C190.493 352.292 149.663 364.723 108.889 377.138C101.279 379.455 93.6704 381.771 86.0589 384.049C37.6405 398.539 -10.9385 411.475 -61.1957 413.17C-117.394 415.069 -174.566 408.579 -231.717 400.356C-246.92 398.168 -262.124 395.858 -277.308 393.551L-277.31 393.55C-319.183 387.188 -360.9 380.848 -402.028 377.175C-462.771 371.762 -523.854 374.1 -584.93 377.908C-599.305 378.804 -613.679 379.782 -628.048 380.759C-646.911 382.042 -665.765 383.324 -684.604 384.421Z" fill="black"/>
<path d="M-677.748 359.706C-677.887 360.163 -678.026 360.62 -678.164 361.078C-658.613 358.54 -638.988 355.632 -619.338 352.72C-603.788 350.416 -588.222 348.11 -572.666 345.983C-510.305 337.456 -448.055 331.801 -387.331 340.629C-346.466 346.582 -305.498 356.91 -264.381 367.275L-264.378 367.275C-253.521 370.012 -242.654 372.752 -231.776 375.414C-179.722 388.153 -127.436 399.116 -74.9564 399.486C-22.0128 399.856 30.8382 389.243 83.4693 376.809C94.3209 374.245 105.162 371.604 115.993 368.966C157.717 358.802 199.288 348.676 240.707 343.141C261.11 340.407 281.36 339.72 301.519 340.391C301.365 339.95 301.211 339.51 301.056 339.069C281.002 338.424 260.847 339.124 240.533 341.846C199.039 347.391 157.381 357.539 115.65 367.704L115.647 367.705C104.825 370.341 93.9987 372.979 83.1686 375.537C30.5506 387.968 -22.1708 398.548 -74.9473 398.179C-127.264 397.811 -179.424 386.881 -231.465 374.145C-242.319 371.489 -253.168 368.754 -264.013 366.02L-264.025 366.017C-305.15 355.649 -346.204 345.3 -387.142 339.336C-448.058 330.48 -510.46 336.159 -572.843 344.689C-588.434 346.82 -604.021 349.13 -619.584 351.436C-639.023 354.316 -658.425 357.19 -677.748 359.706Z" fill="black"/>
<path d="M-669.631 335.287C-669.803 335.764 -669.974 336.241 -670.145 336.719C-650.415 332.839 -630.485 328.423 -610.473 323.989L-610.47 323.989C-592.074 319.913 -573.608 315.821 -555.163 312.116C-489.305 298.888 -423.663 290.571 -362.085 305.286C-327.588 313.527 -292.796 327.026 -257.711 340.639C-247.504 344.599 -237.272 348.569 -227.016 352.422C-181.541 369.505 -135.612 384.272 -89.413 385.53C-36.2042 386.99 18.9466 378.885 73.9754 368.832C89.0366 366.08 104.087 363.184 119.086 360.297L119.097 360.294C158.919 352.629 198.384 345.033 236.746 340.41C257.981 337.851 279.104 336.731 300.167 336.563C300.012 336.128 299.855 335.694 299.699 335.26C278.747 335.441 257.725 336.566 236.589 339.112C198.179 343.742 158.648 351.351 118.811 359.018L118.807 359.019L118.804 359.02C103.811 361.906 88.7758 364.8 73.7404 367.547C18.7272 377.597 -36.3117 385.68 -89.3772 384.224C-135.342 382.972 -181.096 368.276 -226.556 351.199C-236.78 347.359 -246.99 343.397 -257.183 339.442C-292.283 325.823 -327.189 312.279 -361.781 304.015C-423.653 289.23 -489.534 297.601 -555.42 310.835C-573.926 314.553 -592.429 318.652 -610.846 322.733L-610.848 322.733C-630.574 327.104 -650.203 331.453 -669.631 335.287Z" fill="black"/>
<path d="M-660.315 311.358C-660.525 311.859 -660.734 312.361 -660.942 312.863C-640.663 307.755 -620.133 301.953 -599.5 296.121L-599.498 296.121C-581.092 290.919 -562.602 285.693 -544.134 280.916C-477.245 263.613 -410.575 252.164 -348.693 268.694C-313.158 278.186 -279.452 296.224 -245.605 314.338C-239.516 317.596 -233.422 320.857 -227.312 324.072C-187.281 345.131 -146.586 364.161 -102.182 367.032C-46.6877 370.636 12.1533 365.045 70.9785 357.337C89.9202 354.855 108.857 352.154 127.681 349.469L127.683 349.469C167.342 343.812 206.5 338.227 244.15 334.911C262.202 333.324 280.251 332.209 298.301 331.433C298.143 331.004 297.983 330.575 297.823 330.146C279.892 330.923 261.962 332.033 244.035 333.609C206.35 336.929 167.131 342.522 127.451 348.182C108.636 350.865 89.7168 353.564 70.8086 356.041C12.0007 363.747 -46.736 369.324 -102.097 365.729C-146.199 362.877 -186.678 343.972 -226.703 322.915C-232.795 319.711 -238.877 316.456 -244.959 313.2C-278.801 295.088 -312.661 276.966 -348.355 267.432C-410.589 250.808 -477.547 262.342 -544.461 279.651C-563 284.447 -581.532 289.684 -599.963 294.893C-620.245 300.625 -640.404 306.322 -660.315 311.358Z" fill="black"/>
<path d="M-649.151 286.556C-649.41 287.092 -649.667 287.628 -649.924 288.165C-645.387 286.755 -640.83 285.304 -636.254 283.821C-621.478 279.034 -606.533 273.923 -591.49 268.778L-591.486 268.776C-572.421 262.256 -553.197 255.681 -533.953 249.641C-465.133 228.039 -396.626 213.468 -336.502 233.278C-302.938 244.339 -272.966 264.907 -242.896 285.542C-237.835 289.015 -232.771 292.489 -227.688 295.921C-192.439 319.714 -156.239 341.409 -113.396 345.654C-55.7839 351.346 6.28514 348.434 68.4493 343.297C91.6266 341.382 114.811 339.158 137.784 336.954L137.786 336.954L137.79 336.954C176.458 333.244 214.529 329.592 250.962 327.566C265.924 326.731 280.876 325.823 295.822 324.866C295.657 324.44 295.493 324.014 295.327 323.588C280.516 324.535 265.704 325.435 250.89 326.261C214.435 328.289 176.31 331.946 137.617 335.657L137.61 335.658C114.644 337.861 91.4776 340.083 68.3416 341.995C6.19599 347.131 -55.777 350.034 -113.267 344.354C-155.754 340.145 -191.715 318.626 -226.956 294.838C-232.022 291.418 -237.075 287.951 -242.129 284.482C-272.19 263.851 -302.337 243.162 -336.092 232.037C-396.649 212.085 -465.519 226.791 -534.344 248.394C-553.579 254.432 -572.855 261.024 -591.952 267.555L-591.958 267.557C-607.005 272.702 -621.94 277.81 -636.657 282.579C-640.839 283.933 -645.004 285.261 -649.151 286.556Z" fill="black"/>
<path d="M-635.937 261.022C-636.258 261.601 -636.577 262.18 -636.895 262.76C-634.594 261.926 -632.286 261.081 -629.972 260.226C-614.909 254.663 -599.598 248.703 -584.143 242.687C-564.724 235.127 -545.077 227.479 -525.408 220.419C-454.798 195.075 -384.56 177.576 -326.038 199.745C-293.917 211.914 -267.37 234.038 -240.781 256.197L-240.777 256.2C-236.497 259.766 -232.217 263.334 -227.912 266.861C-196.898 292.268 -164.644 315.538 -122.536 320.768C-36.7322 331.435 59.1644 326.646 151.215 322.048C187.311 320.245 222.816 318.472 256.889 317.672C268.762 317.394 280.573 316.838 292.336 316.065C292.162 315.64 291.989 315.215 291.815 314.79C280.213 315.547 268.565 316.092 256.858 316.366C222.707 317.168 187.154 318.943 151.031 320.748L151.029 320.748C59.0206 325.343 -36.6916 330.123 -122.375 319.472C-164.082 314.291 -196.084 291.245 -227.083 265.85C-231.373 262.336 -235.644 258.776 -239.92 255.212C-266.497 233.06 -293.232 210.777 -325.575 198.523C-384.594 176.166 -455.26 193.852 -525.85 219.189C-545.504 226.244 -565.203 233.912 -584.654 241.483L-584.658 241.485L-584.664 241.487C-600.123 247.505 -615.426 253.462 -630.425 259.001C-632.267 259.681 -634.104 260.355 -635.937 261.022Z" fill="black"/>
<path d="M-625.295 242.698C-625.64 243.266 -625.985 243.835 -626.329 244.405C-592.245 233.438 -559.046 220.324 -524.84 206.811C-516.855 203.657 -508.816 200.481 -500.697 197.306C-496.151 195.526 -491.539 193.69 -486.87 191.831C-462.597 182.168 -436.773 171.887 -410.597 165.675C-379.398 158.27 -347.782 156.67 -317.814 168.764C-286.468 181.42 -262.669 203.967 -238.9 226.484C-235.215 229.976 -231.53 233.467 -227.818 236.92C-200.201 262.61 -171.112 286.163 -129.119 291.86C-33.2633 304.898 72.611 304.67 173.831 304.453H173.835C203.655 304.389 233.07 304.326 261.706 304.603C270.321 304.686 278.852 304.524 287.313 304.154C287.126 303.726 286.938 303.298 286.75 302.87C278.477 303.224 270.138 303.378 261.719 303.296C233.044 303.019 203.603 303.082 173.766 303.146C72.562 303.363 -33.1856 303.59 -128.943 290.565C-170.506 284.927 -199.338 261.629 -226.927 235.964C-230.624 232.525 -234.299 229.042 -237.98 225.554C-261.735 203.045 -285.73 180.309 -317.324 167.553C-347.64 155.318 -379.56 156.966 -410.899 164.403C-437.177 170.64 -463.106 180.963 -487.377 190.626L-487.38 190.627C-492.042 192.484 -496.643 194.315 -501.173 196.089C-509.295 199.266 -517.336 202.442 -525.319 205.595C-559.054 218.921 -591.768 231.844 -625.295 242.698Z" fill="black"/>
<path d="M-608.758 217.249C-609.182 217.863 -609.606 218.477 -610.028 219.092C-580.842 208.668 -552.221 196.634 -522.749 184.242L-522.741 184.238C-514.119 180.613 -505.424 176.957 -496.621 173.302C-492.76 171.701 -488.823 170.047 -484.817 168.365C-460.497 158.151 -433.679 146.889 -406.37 139.869C-374.568 131.693 -342.19 129.296 -312.414 140.966C-281.119 153.227 -259.05 174.882 -237.091 196.43L-237.089 196.432C-233.832 199.628 -230.577 202.821 -227.295 205.982C-201.909 230.426 -174.935 252.807 -132.698 258.299C-3.67543 275.028 134.615 281.859 264.971 287.655C270.001 287.877 274.984 287.99 279.925 288.004C279.716 287.568 279.506 287.131 279.296 286.695C274.58 286.674 269.825 286.562 265.029 286.35C134.668 280.554 -3.56932 273.724 -132.53 257.004C-174.33 251.568 -201.047 229.442 -226.388 205.041C-229.655 201.895 -232.901 198.71 -236.153 195.518L-236.158 195.513C-258.104 173.973 -280.375 152.115 -311.937 139.749C-342.077 127.937 -374.768 130.395 -406.695 138.603C-434.106 145.65 -461.021 156.954 -485.337 167.166C-489.339 168.847 -493.271 170.498 -497.123 172.096C-505.933 175.754 -514.632 179.411 -523.255 183.037L-523.259 183.038C-552.161 195.19 -580.211 206.984 -608.758 217.249Z" fill="black"/>
<path d="M-588.154 189.526C-588.69 190.198 -589.224 190.872 -589.756 191.547C-567.741 183.055 -545.866 173.782 -523.491 164.296C-514.542 160.502 -505.512 156.674 -496.361 152.849C-492.967 151.43 -489.508 149.971 -485.99 148.487C-461.389 138.107 -433.941 126.527 -405.942 119.207C-373.943 110.842 -341.311 108.068 -311.477 118.968C-280.025 130.454 -258.104 150.857 -236.32 171.133C-233.212 174.026 -230.107 176.916 -226.978 179.777C-201.931 202.676 -175.365 223.663 -133.396 228.839C-2.47502 244.974 133.031 258.968 264.883 267.719C266.532 267.828 268.175 267.925 269.813 268.01C269.573 267.561 269.333 267.112 269.092 266.663C267.721 266.589 266.347 266.507 264.97 266.415C133.149 257.666 -2.33141 243.675 -133.236 227.542C-174.787 222.417 -201.099 201.666 -226.096 178.813C-229.21 175.965 -232.306 173.083 -235.408 170.195L-235.416 170.188C-257.188 149.919 -279.31 129.324 -311.028 117.74C-341.22 106.71 -374.155 109.547 -406.273 117.943C-434.371 125.289 -461.912 136.909 -486.506 147.286C-490.022 148.769 -493.477 150.227 -496.866 151.644C-506.024 155.472 -515.058 159.302 -524.009 163.096C-545.684 172.284 -566.87 181.265 -588.154 189.526Z" fill="black"/>
<path d="M-561.969 159.141C-562.656 159.879 -563.342 160.62 -564.026 161.362C-550.978 156.204 -537.888 150.872 -524.639 145.475C-516.335 142.093 -507.968 138.685 -499.509 135.278C-495.673 133.734 -491.764 132.142 -487.792 130.525C-463.343 120.57 -436.481 109.632 -409.129 102.7C-377.337 94.6438 -344.968 92.0236 -315.054 102.614C-283.685 113.7 -260.957 133.336 -238.328 152.887L-238.325 152.89C-235.209 155.582 -232.095 158.273 -228.96 160.939C-203.081 182.953 -175.856 203.262 -134.844 208.79C-5.95291 226.143 126.892 240.912 256.709 251.546C258.082 251.659 259.452 251.762 260.818 251.856C260.553 251.401 260.288 250.945 260.022 250.491C258.955 250.414 257.887 250.332 256.816 250.244C127.024 239.612 -5.79828 224.846 -134.669 207.495C-175.293 202.02 -202.277 181.921 -228.113 159.944C-231.238 157.285 -234.348 154.598 -237.464 151.906C-260.079 132.363 -283.001 112.556 -314.618 101.382C-344.878 90.6694 -377.54 93.3473 -409.45 101.434C-436.898 108.39 -463.853 119.366 -488.297 129.319C-492.266 130.936 -496.169 132.525 -499.998 134.066C-508.461 137.475 -516.83 140.883 -525.132 144.265C-537.524 149.313 -549.77 154.301 -561.969 159.141Z" fill="black"/>
<path d="M-508.113 109.002C-509.17 109.855 -510.224 110.712 -511.275 111.573C-444.583 86.6197 -378.497 69.8608 -321.32 88.7365C-289.792 99.137 -265.837 117.579 -241.933 135.982C-238.866 138.343 -235.799 140.704 -232.718 143.047C-205.644 163.633 -177.449 182.809 -137.474 188.667C-11.8042 207.054 115.867 224.74 242.212 238.475C245.961 238.882 249.687 239.212 253.391 239.47C253.108 239.013 252.824 238.556 252.54 238.099C249.163 237.854 245.768 237.547 242.353 237.176C116.033 223.444 -11.62 205.76 -137.285 187.375C-176.914 181.567 -204.885 162.568 -231.927 142.007C-235.001 139.669 -238.064 137.311 -241.132 134.949C-265.02 116.556 -289.157 97.9708 -320.91 87.4959C-377.505 68.8125 -442.618 84.7862 -508.113 109.002Z" fill="black"/>
<path d="M-470.443 81.3419C-471.576 82.0976 -472.706 82.8576 -473.833 83.6219C-423.59 69.7265 -374.565 63.7149 -329.872 77.0385C-297.925 86.5513 -272.297 103.461 -246.663 120.375C-243.785 122.274 -240.905 124.174 -238.018 126.062C-209.435 144.76 -179.998 162.411 -141.139 168.618C-96.2744 175.773 -51.4083 183.283 -6.52556 190.795L-6.52316 190.796C69.9297 203.592 146.43 216.397 223.054 227.47C231.19 228.648 239.26 229.416 247.271 229.821C246.978 229.369 246.683 228.918 246.388 228.467C238.727 228.051 231.015 227.302 223.242 226.177C146.629 215.105 70.1566 202.305 -6.28397 189.511L-6.30072 189.508C-51.1816 181.996 -96.0517 174.486 -140.933 167.328C-179.5 161.168 -208.74 143.653 -237.302 124.969C-240.178 123.088 -243.047 121.195 -245.918 119.3L-245.948 119.28C-271.565 102.376 -297.355 85.3577 -329.498 75.7864C-373.399 62.6993 -421.378 68.1443 -470.443 81.3419Z" fill="black"/>
<path d="M-440.218 62.6594C-441.266 63.2584 -442.312 63.8608 -443.356 64.4669C-407.844 58.8148 -373.128 58.3239 -340.081 66.8917C-306.948 75.4906 -278.406 90.7228 -249.729 106.027L-249.727 106.028C-247.886 107.011 -246.044 107.994 -244.201 108.975C-213.662 125.234 -182.64 141.088 -145.56 148.493C-113.588 154.886 -81.615 161.347 -49.6348 167.81L-49.6257 167.812C33.8126 184.673 117.299 201.545 200.938 217.239C214.465 219.777 227.996 221.007 241.525 221.172C241.227 220.732 240.927 220.292 240.627 219.853C227.473 219.645 214.322 218.421 201.179 215.955C117.549 200.262 34.0754 183.393 -49.3605 166.532L-49.3721 166.53L-49.434 166.517C-81.3937 160.059 -113.348 153.601 -145.304 147.211C-182.176 139.848 -213.046 124.081 -243.586 107.822C-245.439 106.836 -247.29 105.848 -249.141 104.86C-277.793 89.5682 -306.463 74.2667 -339.753 65.6271C-371.97 57.2742 -405.735 57.4817 -440.218 62.6594Z" fill="black"/>
<path d="M-419.338 51.3596C-420.272 51.8375 -421.205 52.3184 -422.136 52.8019C-398.213 51.5476 -374.61 52.8904 -351.507 57.9267C-317.024 65.4395 -285.512 78.9441 -253.824 92.5245L-251.682 93.4425C-219.288 107.322 -186.639 121.138 -150.475 128.482C-80.7416 142.637 -11.5599 159.99 57.5936 177.336L57.6043 177.339C97.5665 187.363 137.519 197.384 177.563 206.785C196.314 211.192 215.564 212.677 235.137 211.979C234.834 211.553 234.53 211.127 234.226 210.703C215.054 211.324 196.212 209.826 177.863 205.513C137.858 196.122 97.9207 186.104 57.9627 176.081L57.9598 176.081C-11.2181 158.729 -80.4578 141.361 -150.215 127.202C-186.229 119.888 -218.76 106.126 -251.167 92.2417L-253.352 91.3051C-285.009 77.738 -316.621 64.19 -351.229 56.6501C-373.535 51.7876 -396.294 50.3513 -419.338 51.3596Z" fill="black"/>
<path d="M-404.834 44.2246C-405.698 44.6327 -406.56 45.0432 -407.421 45.4559C-395.892 45.7495 -384.389 46.6258 -372.918 48.189C-336.035 53.2183 -300.605 65.2685 -265.084 77.8226C-262.723 78.6568 -260.363 79.4931 -258.001 80.3298C-224.842 92.0787 -191.516 103.886 -156.856 110.394C-102.303 120.631 -48.9976 137.067 4.31032 153.659L8.16257 154.858C60.175 171.051 112.22 187.254 165.396 197.818C185.095 201.731 205.7 202.4 226.883 200.699C226.573 200.286 226.261 199.874 225.95 199.462C205.164 201.072 184.962 200.372 165.65 196.537C112.543 185.986 60.5559 169.801 8.52277 153.602L4.69904 152.412C-48.5997 135.822 -101.975 119.363 -156.615 109.11C-191.171 102.622 -224.406 90.8466 -257.586 79.0907C-259.94 78.2566 -262.294 77.4227 -264.648 76.5908C-300.161 64.0395 -335.709 51.9442 -372.741 46.8944C-383.414 45.4399 -394.114 44.5778 -404.834 44.2246Z" fill="black"/>
<path d="M-391.941 38.3489C-392.774 38.7147 -393.606 39.0825 -394.436 39.4525C-391.406 39.6948 -388.376 39.9737 -385.347 40.2906C-348.277 44.18 -311.029 53.2688 -273.82 63.1533C-266.965 64.9746 -260.11 66.8229 -253.258 68.6705L-253.191 68.6887L-253.186 68.6897C-222.889 76.8596 -192.646 85.0149 -162.621 90.7519C-110.423 100.728 -59.6922 117.927 -9.01824 135.617C-5.4377 136.867 -1.85742 138.119 1.72307 139.372C48.8014 155.84 95.9171 172.322 144.136 183.379C167.744 188.801 191.052 188.251 214.104 184.41C213.786 184.021 213.467 183.632 213.148 183.244C190.46 186.953 167.577 187.422 144.429 182.105C96.2847 171.065 49.2367 154.608 2.14471 138.135L2.08631 138.114C-1.4711 136.87 -5.02877 135.626 -8.58718 134.383C-59.2562 116.695 -110.071 99.4656 -162.375 89.4686C-192.347 83.7419 -222.531 75.6028 -252.825 67.434L-252.829 67.433L-252.874 67.4209C-259.739 65.5698 -266.609 63.717 -273.485 61.8907C-310.699 52.0045 -348.032 42.892 -385.21 38.9913C-387.454 38.7567 -389.698 38.5426 -391.941 38.3489Z" fill="black"/>
<path d="M-378.061 32.4958C-378.921 32.8436 -379.78 33.1937 -380.638 33.546C-329.43 38.6869 -276.285 49.4119 -224.659 59.8305C-205.573 63.6823 -186.693 67.4923 -168.196 70.9626C-120.372 79.9372 -73.8461 98.4004 -27.2749 116.882L-24.7919 117.867C-23.5044 118.378 -22.2169 118.888 -20.9292 119.399C27.7392 138.691 76.5203 157.531 126.825 165.001C149.785 168.411 173.733 168.42 198.294 165.968C197.932 165.566 197.57 165.164 197.207 164.763C173.074 167.11 149.561 167.057 127.017 163.709C76.8839 156.264 28.2376 137.483 -20.4473 118.184C-22.5763 117.34 -24.7053 116.496 -26.8346 115.651C-73.3716 97.1826 -120.004 78.677 -167.955 69.6786C-186.41 66.216 -205.261 62.4118 -224.33 58.5635L-224.337 58.562C-275.158 48.3057 -327.526 37.7372 -378.061 32.4958Z" fill="black"/>
<path d="M-358.548 25.0627C-359.531 25.4143 -360.512 25.7687 -361.492 26.1261C-298.637 31.3547 -233.228 40.4794 -173.101 50.9909C-125.398 59.3172 -79.1349 77.4376 -32.8285 95.5752L-29.0626 97.05C18.4777 115.663 66.1038 134.013 115.299 141.41C135.163 144.396 155.834 144.974 177.054 143.705C176.636 143.292 176.218 142.881 175.799 142.469C155.073 143.643 134.892 143.034 115.493 140.118C66.4666 132.747 18.9741 114.454 -28.5858 95.8336L-32.4033 94.3385L-32.4054 94.3376C-78.6718 76.2155 -125.042 58.053 -172.876 49.704C-232.126 39.3458 -296.514 30.3315 -358.548 25.0627Z" fill="black"/>
<path d="M-331.03 16.0893C-332.348 16.4781 -333.663 16.8719 -334.976 17.2708C-282.468 18.8841 -229.89 22.8921 -177.149 30.761C-129.081 37.9401 -82.261 54.3392 -35.3966 70.754L-35.3944 70.7549L-33.0434 71.5784C14.5846 88.2582 62.2795 104.794 111.282 111.432C122.114 112.896 133.152 113.745 144.359 114.055C143.815 113.602 143.269 113.15 142.722 112.699C132.134 112.354 121.702 111.522 111.457 110.137C62.6078 103.52 15.0364 87.032 -32.6112 70.3455L-35.0144 69.5038C-81.8412 53.1018 -128.763 36.6665 -176.955 29.4687C-228.448 21.7863 -279.779 17.7806 -331.03 16.0893Z" fill="black"/>
<path d="M-256.359 2.40851e-05C-258.511 0.298374 -260.659 0.610014 -262.803 0.934839C-234.573 2.51782 -206.423 4.82646 -178.383 8.05866C-129.563 13.6881 -81.3191 27.5104 -32.9982 41.3548L-32.544 41.485C-30.5329 42.0612 -28.5217 42.6373 -26.5102 43.213C9.98946 53.6579 46.5476 63.906 83.4033 70.4084C82.3696 69.7765 81.3335 69.1482 80.295 68.5233C44.6537 62.0159 9.25644 52.0892 -26.1504 41.957C-28.3248 41.3348 -30.4992 40.7117 -32.6738 40.0886C-80.9651 26.2525 -129.304 12.4028 -178.233 6.76063C-204.191 3.76852 -230.24 1.56726 -256.359 2.40851e-05Z" fill="black"/>
</svg>
