<svg width="250" height="348" viewBox="0 0 250 348" fill="none" xmlns="http://www.w3.org/2000/svg">
<path d="M160.715 344.05C163.448 344.507 166.179 344.972 168.91 345.437C171.23 345.832 173.55 346.227 175.871 346.618C176.854 346.783 177.836 346.947 178.819 347.11C181.733 347.469 184.665 347.766 187.616 348C183.724 347.399 179.84 346.76 175.957 346.107C173.638 345.718 171.32 345.323 169.001 344.928L169 344.928C163.809 344.043 158.614 343.159 153.402 342.329C155.823 342.946 158.261 343.52 160.715 344.05Z" fill="black"/>
<path d="M115.536 328.538C116.027 328.775 116.52 329.01 117.014 329.242C119.874 329.593 122.737 329.925 125.604 330.235C140.463 331.843 154.883 334.926 169.293 338.006L169.297 338.007C171.628 338.505 173.96 339.004 176.292 339.496C193.038 343.028 209.859 346.233 227.391 346.782C228.616 346.821 229.84 346.851 231.064 346.874C232.19 346.725 233.313 346.566 234.432 346.399C232.093 346.383 229.752 346.339 227.408 346.265C209.925 345.718 193.143 342.521 176.399 338.99C174.068 338.498 171.737 338 169.406 337.501C154.997 334.421 140.548 331.332 125.66 329.721C122.281 329.355 118.907 328.96 115.536 328.538Z" fill="black"/>
<path d="M93.8051 316.384C94.1404 316.6 94.4764 316.814 94.813 317.028C104.666 318.225 114.471 319.469 124.194 320.748C139.811 322.802 154.776 326.879 169.727 330.952L169.727 330.952C172.153 331.613 174.579 332.274 177.006 332.926C194.389 337.594 211.885 341.811 230.45 342.368C239.976 342.653 249.383 342.161 258.723 341.239C259.679 340.974 260.632 340.702 261.583 340.423C251.302 341.534 240.955 342.165 230.465 341.851C211.966 341.296 194.52 337.094 177.141 332.426C174.716 331.775 172.293 331.115 169.868 330.454C154.919 326.381 139.916 322.294 124.261 320.235C114.185 318.909 104.021 317.622 93.8051 316.384Z" fill="black"/>
<path d="M79.6116 306.39C79.8572 306.579 80.1033 306.767 80.3497 306.955C94.5742 307.873 108.698 309.129 122.568 311.013C139.675 313.338 155.77 318.883 171.872 324.431L171.874 324.432C173.915 325.135 175.956 325.839 178 326.535C196.154 332.726 214.473 338.398 234.358 338.904C251.249 339.329 267.427 336.355 283.445 332.627C284.353 332.243 285.258 331.852 286.16 331.456C269.224 335.487 252.19 338.835 234.371 338.387C214.573 337.883 196.319 332.236 178.167 326.046C176.124 325.349 174.083 324.646 172.041 323.942C155.944 318.396 139.799 312.833 122.638 310.501C108.506 308.581 94.1091 307.313 79.6116 306.39Z" fill="black"/>
<path d="M68.6973 297.373C68.8888 297.543 69.0805 297.712 69.2726 297.881C86.7261 297.599 104.025 298.18 120.73 301.058C138.435 304.103 154.99 310.956 171.548 317.81L171.551 317.811C174.076 318.856 176.602 319.902 179.132 320.934C198.236 328.727 217.568 335.746 238.823 336.097C258.282 336.42 276.225 330.972 293.984 324.817C296.476 323.954 298.963 323.077 301.451 322.2C304.068 321.277 306.684 320.354 309.306 319.447C309.991 319.034 310.674 318.617 311.354 318.196C307.984 319.347 304.626 320.531 301.272 321.714L301.27 321.715C298.785 322.591 296.301 323.467 293.814 324.329C276.061 330.481 258.192 335.901 238.831 335.58C217.682 335.23 198.428 328.246 179.328 320.455C176.802 319.424 174.278 318.38 171.753 317.334L171.752 317.334C155.198 310.481 138.584 303.604 120.818 300.548C103.888 297.632 86.3591 297.069 68.6973 297.373Z" fill="black"/>
<path d="M60.4324 289.634C60.5901 289.79 60.748 289.946 60.9062 290.101C80.4987 287.912 99.9819 287.048 118.79 290.986C137.02 294.795 154.122 303.029 171.245 311.273C174.289 312.739 177.333 314.205 180.385 315.646C200.587 325.188 221.088 333.649 243.684 333.729C263.477 333.803 281.059 326.717 298.357 318.72C300.899 317.545 303.433 316.351 305.968 315.157C314.413 311.178 322.858 307.2 331.536 303.943C331.958 303.605 332.378 303.266 332.797 302.925C323.578 306.288 314.646 310.496 305.738 314.693C303.205 315.887 300.674 317.079 298.14 318.251C280.848 326.244 263.356 333.285 243.686 333.212C221.214 333.132 200.804 324.718 180.606 315.179C177.563 313.741 174.523 312.277 171.483 310.813L171.481 310.813C154.361 302.569 137.193 294.303 118.896 290.479C99.8748 286.498 80.1829 287.408 60.4324 289.634Z" fill="black"/>
<path d="M53.811 282.769C53.9465 282.916 54.0822 283.063 54.2181 283.21C75.1522 278.675 96.0647 275.771 116.806 280.84C135.701 285.458 153.506 295.056 171.359 304.681C174.801 306.536 178.245 308.393 181.699 310.215C203.049 321.478 224.769 331.412 248.703 331.508C268.782 331.588 286.068 322.802 302.944 312.84C305.602 311.271 308.249 309.673 310.895 308.075C323.073 300.725 335.232 293.385 348.309 288.927C348.581 288.655 348.852 288.383 349.123 288.109C335.606 292.553 323.089 300.109 310.611 307.642L310.61 307.642C307.968 309.237 305.328 310.831 302.68 312.394C285.811 322.354 268.631 331.071 248.705 330.99C224.909 330.896 203.287 321.018 181.941 309.757C178.497 307.941 175.06 306.088 171.622 304.234L171.621 304.234C153.768 294.609 135.894 284.973 116.929 280.338C95.9958 275.222 74.9131 278.186 53.8919 282.752C53.865 282.757 53.838 282.763 53.811 282.769Z" fill="black"/>
<path d="M48.2894 276.521C48.4099 276.664 48.5306 276.805 48.6514 276.947C49.9458 276.523 51.2401 276.104 52.5345 275.694C72.9433 269.23 93.4186 264.832 114.823 270.738C134.248 276.101 152.751 287.041 171.35 298.037C175.219 300.323 179.091 302.613 182.976 304.855C205.524 317.866 228.509 329.279 253.635 329.242C274.035 329.213 291.038 318.737 307.491 306.856C310.194 304.904 312.882 302.914 315.568 300.926L315.57 300.925C329.252 290.797 342.876 280.712 358.159 275.851C359.105 275.55 360.055 275.271 361.008 275.013C361.198 274.785 361.387 274.556 361.576 274.327C360.38 274.638 359.188 274.981 358.001 275.358C342.629 280.248 328.922 290.395 315.241 300.523C312.56 302.508 309.879 304.493 307.187 306.437C290.739 318.315 273.854 328.696 253.635 328.725C228.66 328.761 205.781 317.417 183.235 304.407C179.362 302.172 175.497 299.887 171.634 297.603C153.035 286.606 134.459 275.623 114.961 270.24C93.4052 264.292 72.8078 268.73 52.378 275.201C51.0143 275.633 49.6515 276.074 48.2894 276.521Z" fill="black"/>
<path d="M43.5305 270.698C43.6407 270.838 43.7511 270.977 43.8616 271.117C46.2521 270.058 48.6413 269.019 51.0328 268.016C70.7704 259.742 90.6974 253.977 112.944 260.724C132.823 266.754 152.003 278.946 171.338 291.236L171.339 291.237C175.608 293.951 179.885 296.669 184.178 299.328C207.893 314.01 232.112 326.838 258.29 326.64C279.016 326.486 295.761 314.381 311.811 300.678C314.52 298.366 317.208 296.008 319.892 293.654C325.171 289.024 330.436 284.407 335.818 280.165C343.933 273.77 352.288 268.251 361.302 264.87C364.445 263.691 367.63 262.807 370.85 262.183C370.993 261.98 371.136 261.778 371.278 261.575C367.851 262.209 364.463 263.131 361.12 264.386C352.034 267.794 343.63 273.35 335.498 279.759C330.105 284.009 324.821 288.643 319.536 293.278L319.532 293.281C316.852 295.632 314.171 297.983 311.474 300.285C295.425 313.988 278.808 325.971 258.286 326.123C232.271 326.32 208.167 313.57 184.451 298.888C180.171 296.238 175.904 293.526 171.641 290.815L171.64 290.815C152.303 278.522 133.048 266.282 113.094 260.229C90.6685 253.427 70.5982 259.253 50.8324 267.539C48.3947 268.561 45.9621 269.62 43.5305 270.698Z" fill="black"/>
<path d="M39.3703 265.224C39.4731 265.364 39.5762 265.505 39.6794 265.644C42.9884 263.808 46.2893 261.997 49.6018 260.273C68.6538 250.36 88.0344 243.355 111.242 250.886C131.546 257.477 151.361 270.801 171.391 284.269L171.393 284.271C175.996 287.365 180.609 290.468 185.243 293.498C210.016 309.697 235.349 323.821 262.447 323.454C283.528 323.168 300.023 309.577 315.689 294.232C318.37 291.605 321.027 288.927 323.678 286.255L323.68 286.254C328.784 281.109 333.871 275.982 339.084 271.27C347.001 264.114 355.184 257.94 364.107 254.152C368.852 252.14 373.698 250.913 378.623 250.32C378.736 250.134 378.849 249.947 378.962 249.76C373.855 250.339 368.827 251.589 363.905 253.676C354.904 257.496 346.671 263.715 338.737 270.886C333.513 275.608 328.408 280.753 323.296 285.905C320.647 288.575 317.996 291.247 315.326 293.862C299.657 309.211 283.295 322.653 262.44 322.937C235.516 323.301 210.302 309.266 185.527 293.065C180.907 290.044 176.303 286.948 171.707 283.857C151.674 270.386 131.782 257.009 111.402 250.394C87.9909 242.797 68.4496 249.883 49.3626 259.814C46.0254 261.551 42.7002 263.375 39.3703 265.224Z" fill="black"/>
<path d="M35.6587 259.997C35.7563 260.139 35.8542 260.282 35.9522 260.424C36.0823 260.338 36.2123 260.253 36.3423 260.168L36.3432 260.167C40.3373 257.547 44.3039 254.944 48.2956 252.492C66.7028 241.182 85.5756 233.098 109.731 241.297C129.3 247.932 148.339 259.887 166.39 271.221C171.05 274.147 175.644 277.031 180.164 279.772C184.557 282.438 189.289 285.523 194.271 288.77C202.557 294.17 211.532 300.019 220.775 305.139C235.587 313.342 251.169 319.721 265.887 319.449C287.394 319.052 303.631 304.193 318.918 287.459C321.533 284.597 324.12 281.68 326.701 278.769L326.702 278.768C331.677 273.159 336.632 267.571 341.73 262.44C349.471 254.649 357.517 247.936 366.412 243.83C372.406 241.064 378.554 239.691 384.812 239.369C384.905 239.192 384.998 239.015 385.09 238.837C378.67 239.133 372.353 240.518 366.195 243.36C357.217 247.505 349.12 254.268 341.363 262.075C336.254 267.217 331.282 272.824 326.3 278.441C323.721 281.349 321.14 284.26 318.535 287.111C303.241 303.852 287.14 318.54 265.877 318.932C251.302 319.201 235.82 312.879 221.026 304.686C211.792 299.572 202.857 293.748 194.587 288.358C189.6 285.107 184.855 282.015 180.433 279.33C175.929 276.599 171.346 273.721 166.693 270.8C148.638 259.462 129.53 247.464 109.898 240.807C85.5187 232.533 66.472 240.717 48.0243 252.051C44.0255 254.508 40.0518 257.115 36.0581 259.735C35.9251 259.822 35.7918 259.91 35.6587 259.997Z" fill="black"/>
<path d="M32.2968 254.942C32.3903 255.088 32.4841 255.233 32.578 255.378C33.0199 255.054 33.4613 254.729 33.902 254.404C34.7072 253.811 35.5105 253.217 36.3124 252.625C39.9709 249.921 43.6017 247.238 47.2597 244.697C65.0927 232.309 83.5038 223.337 108.53 232C128.551 238.932 148.101 251.57 166.541 263.489L166.543 263.491C171.397 266.628 176.175 269.717 180.863 272.638C185.349 275.435 190.197 278.69 195.317 282.128L195.318 282.129C196.949 283.224 198.607 284.337 200.29 285.461C207.255 290.109 214.639 294.919 222.219 299.248C237.372 307.902 253.347 314.657 268.375 314.333C290.394 313.863 306.349 298.033 321.261 280.247C323.766 277.258 326.242 274.215 328.713 271.178L328.713 271.177C333.606 265.162 338.479 259.171 343.527 253.677C351.12 245.412 359.081 238.304 368.04 233.976C375.119 230.559 382.376 229.203 389.746 229.306C389.824 229.134 389.902 228.963 389.979 228.792C382.463 228.657 375.051 230.017 367.815 233.511C358.769 237.88 350.755 245.044 343.146 253.327C338.088 258.832 333.197 264.844 328.298 270.867C325.829 273.902 323.359 276.939 320.864 279.915C305.944 297.712 290.125 313.351 268.364 313.816C253.484 314.136 237.612 307.444 222.476 298.799C214.912 294.479 207.541 289.677 200.578 285.031C198.898 283.91 197.242 282.797 195.612 281.703L195.612 281.703C190.489 278.263 185.631 275.001 181.138 272.199C176.466 269.289 171.701 266.208 166.854 263.075L166.853 263.074C148.407 251.15 128.786 238.466 108.7 231.511C83.4349 222.766 64.841 231.853 46.964 244.272C43.2992 246.818 39.6614 249.506 36.0026 252.21L35.9919 252.218C35.194 252.808 34.3951 253.398 33.5946 253.988C33.1625 254.306 32.7299 254.624 32.2968 254.942Z" fill="black"/>
<path d="M29.1793 249.943C29.269 250.092 29.3588 250.24 29.4489 250.388C31.8817 248.503 34.2842 246.588 36.6732 244.684C39.9799 242.048 43.2607 239.433 46.5598 236.946C55.2397 230.406 64.0774 224.732 73.9645 221.799C83.8439 218.869 94.7857 218.673 107.682 223.114C127.938 230.092 147.837 243.227 166.471 255.528L166.472 255.529C171.493 258.843 176.423 262.097 181.242 265.153C185.79 268.036 190.698 271.389 195.879 274.928L195.885 274.933C197.514 276.045 199.17 277.177 200.85 278.317C207.873 283.086 215.314 288.018 222.96 292.456C238.245 301.328 254.385 308.248 269.677 307.917C292.345 307.417 307.989 290.99 322.522 272.568C324.869 269.592 327.187 266.565 329.501 263.543L329.502 263.541C334.364 257.192 339.21 250.864 344.28 245.077C351.76 236.539 359.702 229.211 368.845 224.783C376.97 220.847 385.243 219.65 393.604 220.279C393.671 220.111 393.738 219.943 393.804 219.775C385.314 219.114 376.894 220.309 368.619 224.317C359.384 228.79 351.388 236.178 343.89 244.736C338.809 250.536 333.946 256.887 329.078 263.244C326.766 266.264 324.453 269.284 322.115 272.247C307.574 290.68 292.066 306.906 269.666 307.4C254.523 307.727 238.487 300.871 223.22 292.009C215.59 287.581 208.162 282.657 201.141 277.89C199.466 276.752 197.815 275.624 196.189 274.513L196.177 274.505L196.177 274.505C190.994 270.964 186.076 267.604 181.52 264.717C176.719 261.672 171.803 258.427 166.79 255.118L166.789 255.117C148.149 242.812 128.175 229.627 107.85 222.625C94.8547 218.149 83.8024 218.342 73.8171 221.303C63.8396 224.262 54.9421 229.982 46.248 236.534C42.924 239.038 39.6342 241.661 36.3248 244.299C33.9596 246.185 31.584 248.079 29.1793 249.943Z" fill="black"/>
<path d="M25.9672 244.429C26.0523 244.58 26.1377 244.732 26.2232 244.883C29.6703 242.293 33.0461 239.611 36.3954 236.951C39.7315 234.301 43.0414 231.672 46.3692 229.174C55.0563 222.655 63.8977 217.008 73.7683 214.105C83.6311 211.204 94.5362 211.039 107.359 215.513C127.643 222.588 147.572 235.517 166.323 247.682C171.438 251.001 176.467 254.264 181.39 257.334C186.064 260.251 191.122 263.664 196.466 267.27L196.468 267.271L196.477 267.277C197.987 268.296 199.521 269.331 201.074 270.374C208.127 275.109 215.601 280.017 223.273 284.445C238.611 293.296 254.779 300.252 270.012 300.053C292.755 299.752 308.305 283.23 322.723 264.677C325.049 261.683 327.346 258.636 329.639 255.594L329.641 255.592C334.465 249.194 339.273 242.816 344.311 236.99C351.742 228.397 359.648 221.037 368.786 216.627C377.939 212.208 387.216 211.228 396.559 212.403C396.617 212.237 396.675 212.07 396.733 211.904C387.275 210.697 377.858 211.672 368.561 216.161C359.329 220.616 351.368 228.038 343.919 236.652C338.87 242.491 334.044 248.892 329.214 255.298L329.21 255.304C326.92 258.341 324.629 261.38 322.314 264.36C307.887 282.924 292.475 299.238 270.005 299.536C254.919 299.733 238.853 292.839 223.532 283.997C215.876 279.578 208.414 274.679 201.363 269.945C199.809 268.902 198.275 267.866 196.763 266.846L196.762 266.845C191.416 263.238 186.347 259.817 181.664 256.896C176.76 253.837 171.745 250.583 166.637 247.269L166.637 247.269C147.88 235.099 127.879 222.122 107.53 215.024C94.6068 210.516 83.5909 210.677 73.622 213.609C63.6609 216.538 54.7597 222.231 46.0582 228.761C42.705 231.277 39.3861 233.914 36.0473 236.566C32.7247 239.206 29.3825 241.861 25.9672 244.429Z" fill="black"/>
<path d="M22.6705 238.317C22.7504 238.471 22.8304 238.626 22.9107 238.78C26.2287 236.515 29.4827 234.162 32.7065 231.805C33.4851 231.236 34.262 230.666 35.0375 230.098C38.7232 227.396 42.3795 224.715 46.0625 222.179C63.8879 209.906 82.2659 201.07 107.183 209.812C127.505 216.941 147.375 229.002 166.351 240.521L166.352 240.521C171.584 243.697 176.748 246.832 181.835 249.811C186.841 252.742 192.313 256.244 198.114 259.957C199.314 260.726 200.529 261.503 201.756 262.286C208.912 266.852 216.501 271.614 224.268 275.926C239.794 284.546 256.068 291.394 271.049 291.284C293.282 291.115 308.708 274.759 322.997 256.356C325.381 253.286 327.733 250.159 330.08 247.039C334.78 240.79 339.46 234.567 344.342 228.873C351.659 220.338 359.401 213.026 368.276 208.645C378.4 203.649 388.704 202.918 399.097 204.692C399.148 204.526 399.199 204.36 399.249 204.193C388.752 202.391 378.312 203.115 368.047 208.182C359.078 212.608 351.282 219.983 343.949 228.536C339.057 234.243 334.358 240.49 329.652 246.746C327.308 249.863 324.961 252.983 322.588 256.039C308.289 274.455 293.002 290.599 271.045 290.766C256.206 290.876 240.033 284.086 224.52 275.474C216.768 271.17 209.19 266.416 202.035 261.85C200.81 261.069 199.598 260.293 198.399 259.526L198.397 259.524C192.596 255.811 187.113 252.301 182.097 249.365C177.027 246.396 171.874 243.268 166.649 240.096L166.648 240.095C147.666 228.573 127.733 216.473 107.354 209.324C82.1997 200.498 63.6386 209.45 45.7686 221.754C42.0785 224.294 38.4146 226.98 34.7286 229.683C33.9537 230.251 33.1779 230.819 32.4006 231.388C29.1944 233.732 25.9627 236.069 22.6705 238.317Z" fill="black"/>
<path d="M19.4924 231.902C19.5665 232.058 19.6409 232.215 19.7154 232.371C23.7604 229.964 27.7219 227.43 31.6463 224.897C32.2479 224.509 32.8487 224.12 33.4487 223.732C37.4517 221.144 41.4232 218.577 45.4188 216.16C63.7917 205.049 82.6109 197.171 106.952 205.384C127.466 212.314 147.525 223.409 166.902 234.125C172.184 237.046 177.415 239.939 182.59 242.712C187.938 245.577 193.828 249.062 200.081 252.761C201.014 253.313 201.956 253.871 202.906 254.431C210.209 258.745 217.952 263.259 225.848 267.35C241.633 275.527 258.07 282.032 272.88 281.841C294.608 281.569 309.635 265.499 323.523 247.419C325.872 244.361 328.188 241.246 330.499 238.138L330.499 238.138C335.033 232.041 339.546 225.97 344.253 220.406C351.355 212.008 358.868 204.799 367.488 200.445C378.512 194.878 389.841 194.489 401.308 196.943C401.352 196.776 401.396 196.609 401.439 196.442C389.88 193.965 378.419 194.345 367.255 199.983C358.543 204.384 350.976 211.655 343.857 220.072C339.141 225.648 334.609 231.743 330.07 237.848C327.761 240.953 325.45 244.061 323.112 247.104C309.214 265.197 294.325 281.056 272.873 281.324C258.199 281.513 241.86 275.062 226.087 266.89C218.204 262.807 210.472 258.299 203.169 253.986C202.226 253.429 201.29 252.875 200.361 252.326L200.346 252.317C194.095 248.618 188.194 245.127 182.835 242.256C177.674 239.491 172.452 236.603 167.177 233.685C147.795 222.966 127.681 211.841 107.118 204.894C82.5574 196.607 63.5668 204.58 45.1506 215.718C41.1479 218.139 37.1694 220.711 33.1671 223.298C32.567 223.686 31.9665 224.074 31.3652 224.463C27.4547 226.987 23.5136 229.508 19.4924 231.902Z" fill="black"/>
<path d="M16.4317 225.12C16.4999 225.279 16.5682 225.438 16.6368 225.596C21.7108 223.076 26.6751 220.382 31.5985 217.711C35.9107 215.37 40.1915 213.047 44.4871 210.873C63.5128 201.244 82.8676 194.506 106.694 201.922C127.438 208.381 147.78 218.357 167.61 228.082C172.977 230.714 178.306 233.327 183.596 235.848C189.358 238.591 195.732 241.986 202.494 245.588L202.495 245.588L202.563 245.625C203.185 245.956 203.809 246.288 204.437 246.622C211.919 250.604 219.837 254.781 227.882 258.559C243.964 266.11 260.593 272.087 275.312 271.712C296.541 271.161 310.952 255.493 324.232 237.897C326.469 234.933 328.674 231.914 330.874 228.902C335.216 222.956 339.542 217.034 344.068 211.597C350.883 203.408 358.127 196.353 366.51 192.025C378.333 185.92 390.663 185.952 403.205 189.128C403.242 188.96 403.279 188.791 403.316 188.623C390.696 185.429 378.235 185.388 366.272 191.565C357.799 195.941 350.502 203.058 343.67 211.266C339.134 216.715 334.791 222.661 330.443 228.614L330.442 228.615C328.244 231.624 326.045 234.636 323.819 237.586C310.53 255.193 296.254 270.651 275.299 271.195C260.709 271.566 244.174 265.638 228.102 258.091C220.07 254.319 212.163 250.148 204.681 246.166C204.029 245.819 203.381 245.474 202.736 245.13C195.977 241.53 189.592 238.129 183.819 235.381C178.542 232.867 173.222 230.258 167.861 227.628L167.858 227.627C148.024 217.9 127.634 207.901 106.848 201.429C82.8272 193.951 63.3188 200.762 44.253 210.412C39.9288 212.6 35.6294 214.933 31.3057 217.28C26.4028 219.94 21.4684 222.617 16.4317 225.12Z" fill="black"/>
<path d="M13.549 218.041C13.611 218.202 13.6732 218.363 13.7356 218.523C19.0335 216.437 24.2419 214.196 29.4141 211.97L29.415 211.97C34.0526 209.974 38.6612 207.991 43.2793 206.143C63.0487 198.232 83.0293 192.768 106.366 199.206C127.399 205 148.103 213.737 168.447 222.322L168.45 222.323C173.9 224.623 179.324 226.912 184.721 229.13C190.927 231.68 197.807 234.894 205.088 238.296L206.165 238.799C213.844 242.386 221.947 246.152 230.152 249.542C246.554 256.318 263.397 261.608 278.097 260.94C298.892 259.998 312.503 244.808 325 227.814C327.039 225.042 329.047 222.223 331.053 219.407L331.054 219.406C335.206 213.577 339.346 207.766 343.715 202.428C350.192 194.516 357.148 187.678 365.34 183.415C377.908 176.874 391.204 177.397 404.779 181.306C404.809 181.135 404.84 180.964 404.87 180.794C391.232 176.875 377.808 176.343 365.101 182.956C356.817 187.266 349.809 194.167 343.314 202.101C338.934 207.452 334.776 213.288 330.618 219.126L330.616 219.128C328.613 221.939 326.611 224.751 324.583 227.508C312.08 244.509 298.6 259.494 278.074 260.423C263.495 261.085 246.742 255.836 230.35 249.064C222.157 245.679 214.064 241.917 206.385 238.331L205.303 237.825L205.302 237.825C198.025 234.425 191.136 231.207 184.918 228.652C179.53 226.437 174.112 224.151 168.666 221.853C148.318 213.266 127.573 204.511 106.503 198.707C83.0019 192.224 62.8901 197.738 43.0867 205.663C38.4418 207.522 33.8158 209.512 29.1675 211.512C24.0077 213.732 18.8204 215.964 13.549 218.041Z" fill="black"/>
<path d="M10.9078 210.776C10.9637 210.939 11.0198 211.102 11.0761 211.266C16.4264 209.707 21.718 208.031 26.9836 206.363C31.9503 204.789 36.8943 203.223 41.8423 201.77C62.4225 195.726 83.1109 191.624 105.995 196.972C127.356 201.96 148.467 209.357 169.325 216.665C174.855 218.602 180.368 220.534 185.862 222.412C192.599 224.714 200.065 227.685 207.94 230.818L207.957 230.825C215.836 233.961 224.122 237.258 232.482 240.203C249.197 246.091 266.246 250.588 280.986 249.568C301.883 248.126 314.263 233.19 325.596 216.771C327.109 214.579 328.603 212.361 330.096 210.144C334.204 204.044 338.307 197.954 342.782 192.439C348.879 184.925 355.646 178.508 364.013 174.636C377.769 168.267 391.829 169.321 405.996 173.764C406.02 173.591 406.045 173.417 406.069 173.244C391.853 168.8 377.68 167.738 363.795 174.167C355.327 178.085 348.501 184.569 342.379 192.113C337.889 197.647 333.767 203.767 329.654 209.873C328.164 212.086 326.674 214.297 325.169 216.477C313.833 232.901 301.579 247.629 280.95 249.052C266.323 250.064 249.36 245.6 232.654 239.715C224.305 236.774 216.029 233.481 208.149 230.345L208.123 230.335C200.255 227.203 192.779 224.228 186.03 221.923C180.544 220.047 175.037 218.118 169.511 216.181C148.649 208.872 127.503 201.463 106.113 196.469C83.0962 191.089 62.3023 195.222 41.6963 201.274C36.7253 202.734 31.7671 204.304 26.7916 205.88C21.5282 207.548 16.2455 209.221 10.9078 210.776Z" fill="black"/>
<path d="M8.50247 203.268C8.55209 203.434 8.60192 203.6 8.65196 203.766C13.7376 202.742 18.8066 201.641 23.8678 200.541C28.3444 199.569 32.8149 198.598 37.2851 197.683C57.8245 193.478 78.3774 190.45 99.6042 193.848C125.382 197.969 150.788 205.225 176.056 212.442C185.452 215.125 194.829 217.803 204.199 220.312C209.694 221.782 215.616 223.621 221.785 225.537L222.823 225.859C229.363 227.89 236.167 229.988 243.011 231.803C256.696 235.431 270.573 237.938 282.885 236.514C304.264 234.044 315.947 219.391 326.837 203.664C327.857 202.191 328.87 200.71 329.882 199.227L329.886 199.223C339.709 184.848 349.559 170.435 366.075 164.001C379.283 158.851 393.049 160.591 407.008 165.41C407.025 165.234 407.043 165.057 407.06 164.881C393.072 160.068 379.211 158.324 365.887 163.52C349.213 170.014 339.271 184.566 329.465 198.92C328.448 200.409 327.433 201.895 326.411 203.37C315.521 219.097 303.954 233.56 282.826 236.001C270.614 237.413 256.815 234.928 243.144 231.303C236.311 229.491 229.518 227.397 222.976 225.366L221.936 225.042C215.77 223.127 209.839 221.285 204.333 219.813C194.982 217.308 185.616 214.634 176.226 211.952C150.948 204.733 125.497 197.464 99.6861 193.337C78.3624 189.924 57.7328 192.969 37.1812 197.176C32.6972 198.094 28.2177 199.067 23.7356 200.04C18.665 201.142 13.5904 202.244 8.50247 203.268Z" fill="black"/>
<path d="M6.46832 195.969C6.51198 196.137 6.55585 196.306 6.59993 196.475C11.537 195.955 16.4694 195.394 21.3987 194.832C26.0784 194.299 30.756 193.767 35.4316 193.271C56.5916 191.026 77.7329 189.527 99.0288 192.11C125.129 195.28 151.014 200.748 176.827 206.201C186.354 208.214 195.871 210.224 205.386 212.117C211.379 213.307 217.81 214.865 224.477 216.483L224.663 216.528C231.271 218.131 238.109 219.79 244.97 221.202C258.817 224.052 272.785 225.901 285.202 224.251C305.793 221.516 316.835 207.623 327.11 192.762C328.053 191.399 328.989 190.027 329.925 188.655C339.213 175.05 348.524 161.41 364.452 155.129C378.199 149.708 392.792 151.935 407.653 157.385C407.664 157.205 407.675 157.025 407.686 156.845C392.808 151.41 378.125 149.181 364.262 154.648C348.177 160.991 338.775 174.768 329.505 188.353L329.503 188.355C328.564 189.73 327.627 191.104 326.684 192.468C316.411 207.326 305.483 221.036 285.133 223.738C272.807 225.377 258.908 223.543 245.074 220.696C238.222 219.285 231.392 217.628 224.781 216.024L224.6 215.98C217.934 214.363 211.492 212.802 205.487 211.609C195.986 209.72 186.478 207.711 176.956 205.7L176.955 205.699C151.135 200.245 125.216 194.769 99.0913 191.596C77.7342 189.006 56.5443 190.51 35.3769 192.756C30.6923 193.253 26.0094 193.786 21.326 194.32L21.3252 194.32C16.3743 194.884 11.4228 195.447 6.46832 195.969Z" fill="black"/>
<path d="M4.74129 188.744C4.77906 188.916 4.81705 189.088 4.85525 189.26C9.47149 189.182 14.0879 189.09 18.7038 188.998H18.7045C23.6501 188.9 28.5952 188.802 33.5391 188.721C55.2023 188.366 76.8474 188.348 98.4386 190.138C124.908 192.325 151.273 195.991 177.612 199.654L177.613 199.654C187.171 200.983 196.725 202.311 206.28 203.569C212.467 204.383 219.035 205.518 225.802 206.707C226.32 206.798 226.84 206.889 227.36 206.981C233.635 208.084 240.067 209.216 246.508 210.162C260.455 212.211 274.463 213.396 287.034 211.549C306.824 208.645 317.338 195.579 327.123 181.646C328 180.398 328.87 179.143 329.741 177.888C338.608 165.11 347.497 152.299 362.872 146.242C377.063 140.649 392.36 143.318 407.985 149.304C407.989 149.121 407.993 148.937 407.996 148.754C392.37 142.791 376.987 140.123 362.682 145.761C347.153 151.879 338.174 164.823 329.323 177.582L329.318 177.59C328.446 178.847 327.575 180.102 326.7 181.349C316.918 195.275 306.515 208.167 286.959 211.037C274.465 212.873 260.518 211.697 246.583 209.65C240.15 208.705 233.724 207.575 227.448 206.471L225.892 206.198C219.125 205.009 212.547 203.872 206.348 203.056C196.801 201.8 187.251 200.472 177.696 199.143C151.352 195.48 124.967 191.811 98.4813 189.622C76.8635 187.831 55.1972 187.849 33.5306 188.204C28.5853 188.284 23.6402 188.383 18.6957 188.481L18.6872 188.481C14.038 188.574 9.38925 188.666 4.74129 188.744Z" fill="black"/>
<path d="M3.29973 181.567C3.33158 181.742 3.36364 181.917 3.39593 182.092C9.53663 182.476 15.677 182.868 21.8173 183.259C47.1417 184.874 72.4666 186.488 97.819 187.639C124.832 188.867 151.811 190.748 178.792 192.63C188.111 193.279 197.43 193.929 206.75 194.552C214.113 195.047 221.876 195.911 229.819 196.795C235.618 197.441 241.514 198.097 247.419 198.628C261.39 199.884 275.379 200.431 288.134 198.438C307.143 195.475 317.297 183.292 326.767 170.339C327.598 169.203 328.423 168.061 329.249 166.919C337.848 155.022 346.465 143.1 361.319 137.356C375.916 131.704 391.781 134.747 408 141.157C407.997 140.97 407.993 140.783 407.989 140.596C391.782 134.217 375.839 131.179 361.132 136.874C346.128 142.676 337.421 154.725 328.837 166.605C328.008 167.752 327.181 168.896 326.349 170.034C316.886 182.977 306.84 194.999 288.054 197.927C275.363 199.909 261.426 199.367 247.465 198.113C241.588 197.585 235.7 196.929 229.9 196.284L229.899 196.283C221.941 195.398 214.151 194.531 206.785 194.036C197.468 193.413 188.151 192.764 178.833 192.114C151.851 190.232 124.862 188.35 97.8425 187.122C72.4911 185.972 47.1798 184.358 21.8635 182.744L21.8609 182.744L21.8569 182.744C15.6717 182.349 9.48618 181.955 3.29973 181.567Z" fill="black"/>
<path d="M2.1217 174.367C2.14746 174.544 2.17344 174.722 2.19966 174.899C7.15259 175.548 12.1019 176.218 17.0508 176.889L17.0559 176.889C21.3648 177.473 25.6734 178.056 29.9837 178.626C52.2519 181.568 74.5608 184.131 97.1697 184.365C121.498 184.609 145.827 184.709 170.156 184.81H170.158L170.177 184.81C182.335 184.86 194.492 184.911 206.649 184.979C214.867 185.025 223.436 185.448 232.137 185.878L232.138 185.878C237.237 186.13 242.381 186.385 247.526 186.566C261.44 187.058 275.343 187.019 288.296 184.961C306.574 182.05 316.584 170.807 325.963 158.885C326.77 157.858 327.573 156.827 328.376 155.795C336.908 144.833 345.452 133.857 359.853 128.514C374.853 122.952 391.105 126.276 407.691 132.964C407.68 132.773 407.669 132.583 407.658 132.392C391.095 125.743 374.775 122.43 359.673 128.03C345.126 133.426 336.494 144.519 327.975 155.467L327.965 155.48C327.162 156.512 326.361 157.542 325.556 158.565C316.186 170.475 306.283 181.573 288.214 184.45C275.312 186.5 261.45 186.541 247.544 186.05C242.416 185.868 237.279 185.615 232.183 185.363L232.181 185.363C223.471 184.932 214.879 184.508 206.652 184.462C194.488 184.393 182.325 184.343 170.161 184.293H170.156C145.828 184.192 121.502 184.091 97.1749 183.848C74.5994 183.614 52.3166 181.054 30.0516 178.113C25.7436 177.544 21.4361 176.961 17.1272 176.377C12.1281 175.7 7.12721 175.023 2.1217 174.367Z" fill="black"/>
<path d="M1.19299 167.04C1.2124 167.219 1.23204 167.398 1.25192 167.577C6.1738 168.492 11.0877 169.442 16.0001 170.392L16.0009 170.392C20.1813 171.201 24.3607 172.009 28.5431 172.795C50.9258 177.002 73.3866 180.565 96.5048 180.068C110.357 179.767 124.511 179.628 138.824 179.488L138.826 179.488C188.401 179.004 239.879 178.501 287.3 171.149C304.896 168.415 315.023 158.157 324.589 147.313C325.384 146.411 326.175 145.506 326.966 144.601L326.974 144.592C335.708 134.598 344.444 124.602 358.53 119.776C373.956 114.486 390.378 117.977 407.055 124.771C407.036 124.577 407.017 124.383 406.997 124.189C390.353 117.44 373.876 113.967 358.362 119.287C344.139 124.16 335.314 134.26 326.593 144.242C325.796 145.154 325 146.065 324.2 146.971C314.645 157.803 304.624 167.934 287.22 170.638C239.84 177.983 188.414 178.486 138.845 178.971C124.526 179.111 110.361 179.249 96.4937 179.551C73.4325 180.047 51.0162 176.492 28.6389 172.287C24.4658 171.503 20.2938 170.696 16.1191 169.888L16.1086 169.886C11.1425 168.926 6.17264 167.965 1.19299 167.04Z" fill="black"/>
<path d="M0.520136 159.548C0.532979 159.728 0.546055 159.908 0.559366 160.088C5.47879 161.222 10.388 162.409 15.2964 163.595C18.4759 164.364 21.6551 165.133 24.8366 165.887C46.3735 170.992 68.0032 175.436 90.4641 174.747C154.58 172.788 222.337 165.757 285.875 157.206C303.058 154.891 313.896 144.955 324.369 134.735C324.883 134.233 325.396 133.73 325.91 133.228C335.86 123.488 345.738 113.819 360.728 110.341C375.774 106.846 390.915 110.274 406.07 116.471C406.043 116.273 406.015 116.075 405.987 115.878C390.871 109.731 375.705 106.331 360.611 109.837C345.475 113.349 335.5 123.114 325.57 132.836C325.049 133.346 324.529 133.856 324.007 134.365C313.534 144.585 302.804 154.403 285.806 156.693C222.277 165.243 154.54 172.272 90.4482 174.23C68.0612 174.916 46.4892 170.488 24.9561 165.383C21.7791 164.63 18.6028 163.862 15.4248 163.094C10.4636 161.895 5.49818 160.695 0.520136 159.548Z" fill="black"/>
<path d="M0.103956 151.487C0.109695 151.666 0.115666 151.845 0.121869 152.025C5.48345 153.359 10.8263 154.777 16.1675 156.193C18.8861 156.914 21.6043 157.635 24.3243 158.345C45.7529 163.938 67.2852 168.844 89.9573 167.688C121.891 166.064 153.94 161.612 185.94 156.668C192.858 155.599 199.773 154.507 206.685 153.416L206.686 153.416C231.749 149.459 256.761 145.51 281.656 142.692C298.555 140.776 310.276 132.027 321.696 123.066C322.19 122.678 322.684 122.29 323.177 121.902C334.097 113.314 344.93 104.796 360 101.998C375.275 99.1645 390.114 102.531 404.787 108.45C404.751 108.249 404.715 108.049 404.678 107.848C390.05 101.983 375.203 98.6518 359.906 101.489C344.707 104.311 333.782 112.903 322.881 121.476C322.379 121.871 321.878 122.265 321.376 122.659C309.955 131.621 298.337 140.28 281.597 142.178C256.69 144.998 231.663 148.949 206.599 152.906C199.688 153.997 192.775 155.088 185.861 156.157C153.863 161.1 121.837 165.549 89.9308 167.171C67.3454 168.323 45.8808 163.437 24.4552 157.845C21.7386 157.136 19.0225 156.415 16.3048 155.694L16.3041 155.694C10.9157 154.265 5.52105 152.834 0.103956 151.487Z" fill="black"/>
<path d="M0.00305397 143.391C0.00181046 143.568 0.000792375 143.745 0 143.922C4.90705 145.071 9.80582 146.274 14.7043 147.478C18.1904 148.335 21.6765 149.191 25.1652 150.028C46.8343 155.225 68.598 159.651 91.0839 158.508C134.286 156.324 178.152 149.939 221.611 143.613C240.692 140.836 259.695 138.07 278.528 135.676C295.398 133.533 307.976 124.808 320.304 115.945C320.726 115.642 321.146 115.339 321.567 115.036C333.475 106.465 345.276 97.9719 360.671 95.2307C375.088 92.6637 389.224 95.501 403.237 100.726C403.193 100.525 403.148 100.324 403.103 100.124C389.139 94.954 375.007 92.1527 360.581 94.7215C345.066 97.4838 333.179 106.04 321.293 114.596C320.863 114.906 320.432 115.216 320.002 115.525C307.668 124.392 295.188 133.038 278.462 135.163C259.609 137.559 240.595 140.327 221.508 143.105L221.507 143.106C178.06 149.43 134.234 155.809 91.0576 157.992C68.6517 159.13 46.9504 154.72 25.286 149.525C21.8041 148.69 18.3229 147.834 14.8399 146.979L14.8376 146.978C9.89897 145.764 4.95615 144.55 0.00305397 143.391Z" fill="black"/>
<path d="M0.265988 134.315C0.25712 134.489 0.24847 134.663 0.240039 134.837C5.19772 135.795 10.1509 136.794 15.1042 137.794C20.0037 138.783 24.9036 139.771 29.8075 140.72C52.6156 145.131 75.5054 148.666 98.8562 147.239C156.72 143.702 216.339 137.138 273.76 129.274C290.538 126.978 303.856 119.06 316.918 110.88C317.669 110.41 318.42 109.938 319.171 109.467C331.474 101.74 343.711 94.0551 358.618 90.8148C373.179 87.6546 387.527 89.8757 401.77 94.5488C401.72 94.3507 401.669 94.1526 401.618 93.9547C387.422 89.3336 373.078 87.1471 358.508 90.3093C343.509 93.5696 331.2 101.301 318.912 109.018C318.156 109.493 317.4 109.968 316.643 110.442C303.579 118.622 290.346 126.482 273.69 128.761C216.277 136.624 156.672 143.186 98.8246 146.723C75.5425 148.146 52.7065 144.622 29.9059 140.212C25.0122 139.266 20.1195 138.278 15.2245 137.29L15.2223 137.29C10.2407 136.284 5.25633 135.278 0.265988 134.315Z" fill="black"/>
<path d="M0.975232 124.778C0.95842 124.95 0.941823 125.122 0.925439 125.294C6.05384 126.027 11.1819 126.792 16.3111 127.557L16.3141 127.557C21.8201 128.378 27.3275 129.199 32.8381 129.982C55.9785 133.272 79.1676 135.891 102.508 135.006C157.409 132.93 214.557 130.27 269.075 123.501C286.387 121.353 301.015 113.806 315.439 106.014C316.231 105.586 317.023 105.157 317.814 104.729C331.443 97.3486 345.009 90.0022 360.661 86.9717C374.162 84.3619 387.358 85.8983 400.412 89.4823C400.358 89.2884 400.303 89.0946 400.248 88.9009C387.239 85.3616 374.057 83.8553 360.562 86.4639C344.83 89.5101 331.198 96.8922 317.585 104.264L317.581 104.267C316.785 104.698 315.989 105.129 315.192 105.559C300.765 113.352 286.216 120.853 269.011 122.987C214.518 129.753 157.389 132.413 102.489 134.489C79.1964 135.372 56.0452 132.759 32.9111 129.47C27.4075 128.688 21.9044 127.868 16.4006 127.047L16.3991 127.047C11.2587 126.28 6.11774 125.514 0.975232 124.778Z" fill="black"/>
<path d="M2.2396 114.539C2.21405 114.71 2.18872 114.881 2.16359 115.052C7.54493 115.385 12.9291 115.721 18.3157 116.058L18.3188 116.058C100.055 121.164 182.361 126.306 263.977 118.035C282.066 116.203 298.139 109.195 314.05 101.922C314.99 101.492 315.93 101.061 316.87 100.631C331.839 93.7697 346.76 86.9306 363.23 84.1521C375.517 82.0786 387.469 83.0105 399.26 85.548C399.202 85.3592 399.145 85.1705 399.087 84.9819C387.34 82.4801 375.412 81.5718 363.144 83.6421C346.604 86.4324 331.624 93.2986 316.669 100.154L316.632 100.17C315.699 100.598 314.767 101.025 313.834 101.452C297.92 108.726 281.919 115.698 263.925 117.52C182.355 125.787 100.1 120.648 18.3657 115.542L18.3594 115.542C12.9838 115.206 7.61041 114.87 2.2396 114.539Z" fill="black"/>
<path d="M3.88691 105.051C3.85283 105.223 3.81897 105.395 3.78533 105.567C12.3724 105.684 20.9591 105.778 29.5453 105.871H29.5466C57.1433 106.172 84.7353 106.474 112.321 107.542C127.603 108.133 143.134 109.208 158.754 110.29C192.139 112.603 225.932 114.943 258.57 112.642C277.566 111.302 295.229 105.279 312.752 98.7813C314.742 98.0434 316.73 97.2994 318.718 96.5554C334.245 90.7454 349.769 84.9366 366.158 82.0322C376.957 80.1218 387.595 80.4254 398.148 82.0068C398.088 81.8235 398.028 81.6403 397.969 81.4572C387.456 79.9029 376.845 79.6164 366.068 81.5229C349.628 84.4361 334.058 90.2626 318.536 96.071C316.548 96.8152 314.56 97.559 312.571 98.2964C295.05 104.793 277.449 110.792 258.533 112.126C225.931 114.425 192.202 112.088 158.837 109.777L158.836 109.777C143.207 108.694 127.658 107.617 112.341 107.025C84.7542 105.957 57.1432 105.655 29.536 105.354L29.5317 105.354C20.9828 105.261 12.4343 105.167 3.88691 105.051Z" fill="black"/>
<path d="M6.09857 95.1901C6.05466 95.3652 6.01098 95.5405 5.96753 95.7158C13.4906 95.2791 21.0186 94.7674 28.547 94.2557L28.5508 94.2554C34.2388 93.8688 39.927 93.4822 45.6134 93.1279C69.8017 91.6207 93.9653 90.6974 117.986 92.8368C134.26 94.2894 150.762 96.7955 167.343 99.3138C173.361 100.228 179.389 101.143 185.421 102.011C208.066 105.267 230.75 107.842 253.058 107.089C273.038 106.415 292.337 101.276 311.519 95.5383C314.54 94.635 317.557 93.7169 320.573 92.7991C336.725 87.8843 352.859 82.975 369.343 80.3669C378.778 78.8746 388.1 78.8085 397.36 79.6266C397.299 79.4481 397.239 79.2698 397.178 79.0915C387.959 78.2915 378.668 78.3683 369.262 79.856C352.739 82.4703 336.566 87.3918 320.414 92.3067C317.4 93.224 314.386 94.141 311.371 95.0428C292.192 100.779 272.949 105.901 253.041 106.572C230.78 107.324 208.133 104.754 185.495 101.499C179.472 100.633 173.45 99.718 167.435 98.8045L167.435 98.8044C150.848 96.2854 134.323 93.7757 118.032 92.3216C93.9704 90.1785 69.7745 91.1041 45.5812 92.6116C39.887 92.9664 34.1933 93.3534 28.5015 93.7403C21.0296 94.2481 13.5609 94.7558 6.09857 95.1901Z" fill="black"/>
<path d="M8.81429 85.4057C8.75916 85.5865 8.70427 85.7675 8.64963 85.9486C16.3941 84.9438 24.168 83.7926 31.9516 82.64C38.1112 81.7279 44.277 80.8149 50.4391 79.9728C75.1414 76.597 99.7995 74.358 123.854 77.8531C140.041 80.21 156.269 84.2986 172.556 88.402L172.557 88.4022C176.858 89.4857 181.162 90.5703 185.471 91.6243C206.091 96.6675 226.802 101.008 247.59 101.154C268.562 101.301 289.497 97.0992 310.345 92.1765C314.644 91.1615 318.938 90.116 323.228 89.0715C339.756 85.0478 356.223 81.0388 372.629 78.8474C380.712 77.7652 388.733 77.4932 396.718 77.759C396.657 77.5844 396.596 77.4099 396.535 77.2355C388.591 76.9801 380.607 77.2573 372.561 78.3347C356.124 80.5301 339.623 84.5475 323.093 88.5721L323.091 88.5724C318.805 89.616 314.516 90.6602 310.226 91.6731C289.383 96.5946 268.499 100.783 247.594 100.637C226.87 100.491 206.209 96.1638 185.594 91.1218C181.295 90.0703 176.997 88.9875 172.702 87.9052L172.697 87.904C156.406 83.7996 140.144 79.7024 123.928 77.3412C99.7983 73.8351 75.0798 76.0833 50.369 79.4603C44.1933 80.3042 38.019 81.2185 31.8543 82.1314C24.1539 83.2716 16.4686 84.4097 8.81429 85.4057Z" fill="black"/>
<path d="M12.0297 75.7381C11.9616 75.927 11.8937 76.116 11.826 76.3052C19.6416 74.7691 27.536 73.021 35.4632 71.2655L35.4642 71.2653C42.7513 69.6517 50.066 68.0319 57.3725 66.5651C83.4598 61.3281 109.462 58.0356 133.854 63.8609C147.518 67.1235 161.3 72.4679 175.198 77.8571C179.241 79.425 183.294 80.9967 187.357 82.522C205.37 89.2849 223.563 95.131 241.864 95.6292C262.94 96.2073 284.787 92.9983 306.584 89.0185C312.55 87.9292 318.512 86.7824 324.453 85.6394L324.458 85.6385C340.232 82.604 355.865 79.5967 371.061 77.7662C379.472 76.7533 387.839 76.3097 396.183 76.2434C396.121 76.0714 396.059 75.8994 395.997 75.7276C387.698 75.7991 379.371 76.2445 370.998 77.2527C355.784 79.0854 340.125 82.0977 324.345 85.1334L324.343 85.1337L324.342 85.134C318.403 86.2765 312.447 87.4222 306.491 88.5096C284.7 92.4884 262.898 95.6887 241.878 95.1121C223.67 94.6164 205.547 88.7986 187.539 82.0378C183.489 80.5174 179.445 78.949 175.407 77.3831C161.504 71.9915 147.676 66.6294 133.974 63.3578C109.465 57.5047 83.369 60.8187 57.2704 66.058C49.9398 67.5296 42.6107 69.1526 35.3156 70.7681L35.3146 70.7683C27.5006 72.4986 19.7254 74.2204 12.0297 75.7381Z" fill="black"/>
<path d="M15.7198 66.265C15.6367 66.4634 15.5539 66.662 15.4714 66.8608C23.5045 64.8383 31.6365 62.5413 39.8097 60.2327L39.8104 60.2326C47.1015 58.1731 54.4254 56.1044 61.7412 54.213C88.2371 47.3629 114.646 42.8304 139.159 49.3745C153.234 53.1322 166.586 60.2734 179.994 67.4445C182.405 68.7346 184.819 70.0256 187.239 71.2981C203.096 79.6355 219.216 87.1694 236.806 88.306C258.788 89.7328 282.096 87.5192 305.397 84.4676C312.9 83.485 320.401 82.4157 327.858 81.3528L327.859 81.3527C343.568 79.1133 359.08 76.9022 373.993 75.5893C381.144 74.9609 388.294 74.5198 395.444 74.2123C395.381 74.0424 395.318 73.8727 395.254 73.703C388.151 74.0105 381.049 74.45 373.948 75.0741C359.02 76.3882 343.485 78.6027 327.767 80.8432C320.314 81.9056 312.82 82.9738 305.33 83.9547C282.035 87.0054 258.769 89.2133 236.839 87.7899C219.37 86.661 203.335 79.1766 187.481 70.8404C185.068 69.5717 182.659 68.283 180.249 66.9943C166.844 59.8238 153.431 52.6494 139.292 48.8748C114.64 42.2934 88.1173 46.8596 61.6115 53.7123C54.2679 55.6108 46.9271 57.6843 39.6265 59.7464C31.5924 62.0158 23.6069 64.2713 15.7198 66.265Z" fill="black"/>
<path d="M20.1421 56.4459C20.0397 56.6581 19.9376 56.8704 19.8359 57.083C21.6331 56.5246 23.4384 55.9502 25.2508 55.3633C31.104 53.4678 37.0237 51.4444 42.9827 49.4075L42.9842 49.407C50.5361 46.8257 58.1512 44.2228 65.7741 41.8314C93.0347 33.2794 120.171 27.5107 143.988 35.3534C157.283 39.7324 169.155 47.8751 181.067 56.0444C183.071 57.4193 185.077 58.7949 187.091 60.1534C201.053 69.5729 215.393 78.1621 232.363 79.8426C255.185 82.0959 279.771 80.9432 304.395 78.9094C313.576 78.1511 322.76 77.2706 331.86 76.3982L331.861 76.3981L331.862 76.398C347.18 74.9295 362.26 73.4837 376.692 72.6815C382.618 72.351 388.541 71.9913 394.461 71.6126C394.396 71.4438 394.331 71.2752 394.265 71.1067C388.399 71.4818 382.531 71.8378 376.663 72.1651C362.223 72.9677 347.121 74.4155 331.794 75.8849L331.791 75.8851C322.694 76.7573 313.517 77.637 304.353 78.3939C279.736 80.4271 255.187 81.5764 232.414 79.3279C215.585 77.6613 201.34 69.1421 187.381 59.7248C185.374 58.3709 183.372 56.9982 181.37 55.6249C169.463 47.4573 157.521 39.2663 144.15 34.8622C120.162 26.9631 92.8819 32.7852 65.619 41.3379C57.9997 43.7282 50.3644 46.3378 42.7998 48.9233L42.7971 48.9242C36.837 50.9613 30.9208 52.9834 25.0911 54.8713C23.4348 55.4077 21.7849 55.9334 20.1421 56.4459Z" fill="black"/>
<path d="M25.3763 46.3372C25.2494 46.5663 25.123 46.7957 24.997 47.0253C25.9084 46.6951 26.8226 46.3605 27.7392 46.0222C33.706 43.8198 39.7709 41.4602 45.8928 39.0783C53.585 36.0855 61.3674 33.0576 69.1586 30.2627C97.1285 20.229 124.951 13.3014 148.132 22.0778C160.856 26.8957 171.372 35.6544 181.904 44.4269L181.906 44.4281C183.601 45.8401 185.297 47.2524 187.002 48.6487C199.287 58.7071 212.063 67.9196 228.743 69.9903C262.731 74.2133 300.718 72.3171 337.18 70.4971C351.479 69.7833 365.543 69.0813 379.039 68.7645C383.742 68.6546 388.421 68.4345 393.08 68.1285C393.012 67.9601 392.943 67.7918 392.874 67.6237C388.278 67.9233 383.665 68.139 379.027 68.2474C365.5 68.5649 351.416 69.2679 337.107 69.9822L337.107 69.9822C300.661 71.8015 262.747 73.694 228.807 69.4771C212.286 67.426 199.609 58.3023 187.33 48.2486C185.631 46.8573 183.939 45.4478 182.245 44.0369C171.718 35.2673 161.128 26.4454 148.316 21.5941C124.938 12.7432 96.9455 19.745 68.9836 29.7759C61.1985 32.5686 53.3955 35.6043 45.6906 38.6018L45.689 38.6025L45.6865 38.6035C39.5628 40.9858 33.5011 43.344 27.5598 45.537C26.8302 45.8063 26.1024 46.0731 25.3763 46.3372Z" fill="black"/>
<path d="M29.592 39.0829C29.455 39.3078 29.3185 39.533 29.1824 39.7584C42.6837 35.417 55.834 30.2251 69.3837 24.8755C72.5466 23.6267 75.7312 22.3694 78.9472 21.1123C80.7479 20.4076 82.5749 19.6807 84.4245 18.9448C94.0393 15.1191 104.269 11.0489 114.637 8.5896C126.996 5.65829 139.519 5.02457 151.39 9.81284C163.807 14.8233 173.234 23.7493 182.649 32.6638C184.109 34.0462 185.569 35.4282 187.039 36.7953C197.979 46.9659 209.501 56.2904 226.135 58.5455C264.105 63.7074 306.044 63.6173 346.139 63.5312H346.141C357.953 63.5058 369.604 63.4808 380.948 63.5905C384.36 63.6235 387.739 63.5591 391.091 63.4127C391.017 63.2433 390.942 63.0739 390.868 62.9046C387.591 63.0445 384.288 63.1055 380.953 63.0733C369.594 62.9635 357.932 62.9885 346.113 63.0138C306.025 63.0998 264.136 63.1895 226.205 58.033C209.741 55.801 198.321 46.5773 187.392 36.4166C185.928 35.0551 184.472 33.6764 183.014 32.2956C173.604 23.3845 164.099 14.3833 151.584 9.33327C139.575 4.48937 126.932 5.14189 114.518 8.08632C104.108 10.5553 93.8377 14.6422 84.2234 18.4679L84.2224 18.4683C82.3756 19.2032 80.553 19.9284 78.7585 20.6306C75.5413 21.8882 72.3564 23.1456 69.1941 24.394C55.831 29.6698 42.8726 34.7857 29.592 39.0829Z" fill="black"/>
<path d="M36.1426 29.0077C35.9743 29.2506 35.8066 29.4938 35.6393 29.7374C47.2004 25.6106 58.5378 20.8462 70.212 15.9403L70.2153 15.9389C73.6306 14.5037 77.0747 13.0564 80.5616 11.6094C82.091 10.9753 83.6508 10.3206 85.2375 9.65467C94.8713 5.61111 105.494 1.15254 116.312 -1.62683C128.909 -4.86341 141.734 -5.81233 153.529 -1.19255C165.926 3.66179 174.667 12.235 183.366 20.7656L183.367 20.7661C184.657 22.0315 185.946 23.2959 187.246 24.5471C197.302 34.2243 207.987 43.0848 224.718 45.2592C275.826 51.882 330.605 54.5864 382.241 56.8811C384.233 56.969 386.207 57.0137 388.164 57.0193C388.082 56.8464 387.999 56.6737 387.915 56.5011C386.047 56.4926 384.164 56.4481 382.264 56.3644C330.626 54.0696 275.868 51.3659 224.784 44.7463C208.226 42.5943 197.644 33.8348 187.605 24.1746C186.311 22.9291 185.026 21.6681 183.737 20.4044L183.736 20.4025C175.042 11.8751 166.22 3.22166 153.718 -1.6741C141.779 -6.35033 128.83 -5.37717 116.183 -2.12778C105.325 0.661852 94.6633 5.13709 85.0316 9.17996C83.4463 9.8454 81.8889 10.4991 80.363 11.1317C76.873 12.58 73.4273 14.0279 70.0116 15.4632L70.0101 15.4638C58.5615 20.2747 47.4502 24.9438 36.1426 29.0077Z" fill="black"/>
<path d="M44.3039 18.0323C44.0918 18.2985 43.8804 18.5652 43.6696 18.8325C52.3901 15.4705 61.055 11.7992 69.918 8.04398C73.4631 6.54192 77.0399 5.02647 80.6647 3.51202C82.0092 2.95028 83.3795 2.3725 84.7728 1.785C94.5177 -2.32417 105.39 -6.90868 116.481 -9.80646C129.157 -13.1183 142.083 -14.2166 153.901 -9.90142C166.359 -5.35395 175.042 2.72348 183.671 10.7507C184.902 11.8958 186.132 13.0399 187.372 14.1725C197.293 23.2384 207.817 31.5467 224.441 33.5959C276.301 39.9836 329.977 45.5238 382.206 48.9883C382.859 49.0318 383.51 49.0701 384.159 49.1035C384.064 48.9257 383.969 48.748 383.873 48.5705C383.33 48.5413 382.786 48.5085 382.24 48.4722C330.024 45.0085 276.358 39.4695 224.505 33.0825C208.046 31.0538 197.623 22.8383 187.721 13.7909C186.488 12.6635 185.261 11.5227 184.033 10.3794L184.03 10.3765C175.405 2.35217 166.642 -5.80132 154.078 -10.3873C142.119 -14.7542 129.072 -13.6308 116.35 -10.3069C105.22 -7.39882 94.3105 -2.79851 84.5683 1.30967C83.1757 1.89692 81.807 2.47411 80.4649 3.03484C76.837 4.55064 73.2585 6.06673 69.713 7.56884C61.1273 11.2064 52.7352 14.7619 44.3039 18.0323Z" fill="black"/>
<path d="M54.6765 6.00308C54.4041 6.29536 54.1325 6.58844 53.8617 6.88229C59.0302 4.84033 64.2151 2.72952 69.4634 0.592902C72.7528 -0.746225 76.067 -2.09546 79.4177 -3.44426C80.9374 -4.05559 82.4857 -4.68563 84.0592 -5.32596C93.7439 -9.2672 104.384 -13.5973 115.219 -16.3415C127.812 -19.5311 140.634 -20.5684 152.484 -16.3759C164.909 -11.9869 173.912 -4.21285 182.876 3.52713L182.877 3.52814C184.111 4.59404 185.345 5.6593 186.587 6.71497C196.838 15.4299 207.622 23.4704 223.868 25.6586C274.923 32.5288 327.546 38.3759 378.968 42.5858C379.512 42.6304 380.055 42.6713 380.596 42.7085C380.491 42.5281 380.386 42.3479 380.281 42.1678C379.858 42.1376 379.435 42.1051 379.011 42.0703C327.598 37.8612 274.985 32.0152 223.937 25.146C207.845 22.9785 197.156 15.0215 186.922 6.32106C185.684 5.26838 184.452 4.2045 183.218 3.13865C174.26 -4.5981 165.18 -12.4397 152.656 -16.8635C140.67 -21.1045 127.732 -20.0443 115.092 -16.8429C104.219 -14.0891 93.5418 -9.74374 83.8592 -5.80318C82.2868 -5.16327 80.7407 -4.53407 79.2242 -3.92405C75.8717 -2.57452 72.5568 -1.22508 69.2679 0.113792C64.3593 2.11207 59.5084 4.08679 54.6765 6.00308Z" fill="black"/>
<path d="M76.0098 -13.8467C75.5908 -13.5091 75.1732 -13.1698 74.757 -12.829C101.175 -22.7078 127.353 -29.3425 150.001 -21.8697C162.49 -17.7522 171.979 -10.451 181.448 -3.16565C182.663 -2.23087 183.878 -1.29614 185.098 -0.368645C195.823 7.78127 206.991 15.373 222.826 17.6924C272.606 24.9715 323.179 31.9732 373.226 37.411C374.711 37.5721 376.187 37.7028 377.654 37.8048C377.542 37.6237 377.429 37.4429 377.317 37.2622C375.979 37.1649 374.634 37.0435 373.282 36.8968C323.244 31.46 272.679 24.4594 222.901 17.1806C207.203 14.8813 196.123 7.35966 185.412 -0.780321C184.194 -1.70584 182.98 -2.63952 181.765 -3.57446C172.303 -10.8563 162.742 -18.2139 150.164 -22.3609C127.746 -29.7575 101.953 -23.4336 76.0098 -13.8467Z" fill="black"/>
<path d="M90.9313 -24.7972C90.4825 -24.4981 90.0348 -24.1972 89.5885 -23.8946C109.491 -29.3957 128.91 -31.7756 146.614 -26.5009C159.269 -22.7348 169.42 -16.0405 179.574 -9.34431C180.714 -8.59248 181.855 -7.84039 182.999 -7.09263C194.321 0.309548 205.982 7.29763 221.374 9.75509C239.146 12.5877 256.918 15.5607 274.697 18.5348L274.698 18.535C304.982 23.601 335.285 28.6702 365.637 33.0541C368.86 33.5204 372.056 33.8243 375.23 33.9849C375.113 33.806 374.997 33.6272 374.88 33.4487C371.845 33.2843 368.79 32.9877 365.711 32.5422C335.364 28.1589 305.072 23.0916 274.792 18.0263L274.786 18.0252C257.008 15.0512 239.234 12.078 221.456 9.24432C206.179 6.80531 194.596 -0.128605 183.282 -7.52544C182.143 -8.27016 181.007 -9.01973 179.869 -9.76984L179.857 -9.77754C169.71 -16.4698 159.494 -23.2074 146.762 -26.9966C129.372 -32.1777 110.367 -30.0221 90.9313 -24.7972Z" fill="black"/>
<path d="M102.904 -32.1935C102.489 -31.9564 102.074 -31.7179 101.661 -31.478C115.728 -33.7156 129.479 -33.9099 142.57 -30.518C155.694 -27.1137 167 -21.0834 178.36 -15.0244L178.36 -15.0241C179.09 -14.635 179.819 -14.2459 180.55 -13.8573C192.647 -7.42071 204.935 -1.1441 219.623 1.7874C232.287 4.31837 244.952 6.87636 257.62 9.43492L257.624 9.43568C290.675 16.1111 323.746 22.7904 356.876 29.0036C362.235 30.0084 367.595 30.4954 372.954 30.5608C372.835 30.3865 372.717 30.2124 372.598 30.0386C367.387 29.9564 362.178 29.4715 356.972 28.4952C323.845 22.2827 290.779 15.6044 257.729 8.92917L257.724 8.92822L257.7 8.92329C245.04 6.36635 232.382 3.80983 219.724 1.28017C205.119 -1.63487 192.89 -7.87709 180.793 -14.3139C180.059 -14.7043 179.326 -15.0955 178.593 -15.4866C167.243 -21.5405 155.886 -27.5983 142.7 -31.0186C129.938 -34.3255 116.563 -34.2433 102.904 -32.1935Z" fill="black"/>
<path d="M111.175 -36.6671C110.805 -36.4778 110.435 -36.2875 110.067 -36.0961C119.543 -36.5926 128.892 -36.061 138.044 -34.0672C151.703 -31.0929 164.185 -25.7465 176.738 -20.3701L177.586 -20.0067C190.418 -14.5119 203.351 -9.04199 217.676 -6.13462C245.298 -0.530895 272.702 6.33912 300.095 13.2064L300.1 13.2074C315.929 17.1759 331.755 21.1433 347.617 24.8649C355.045 26.6098 362.67 27.1978 370.423 26.9211C370.303 26.7525 370.183 26.5842 370.062 26.416C362.468 26.662 355.004 26.069 347.736 24.3614C331.889 20.6435 316.07 16.6776 300.242 12.7096L300.24 12.7093C272.838 5.83976 245.411 -1.03594 217.779 -6.64152C203.513 -9.53685 190.627 -14.9853 177.79 -20.4821L176.924 -20.8528C164.385 -26.224 151.863 -31.5876 138.154 -34.5726C129.318 -36.4976 120.303 -37.0662 111.175 -36.6671Z" fill="black"/>
<path d="M116.92 -39.4918C116.578 -39.3302 116.236 -39.1677 115.895 -39.0043C120.462 -38.888 125.019 -38.5411 129.563 -37.9222C144.172 -35.9312 158.207 -31.1606 172.278 -26.1905C173.213 -25.8602 174.148 -25.5291 175.083 -25.1979C188.218 -20.5466 201.419 -15.872 215.148 -13.2958C236.758 -9.24295 257.873 -2.73604 278.989 3.83273L280.515 4.30751C301.118 10.7181 321.734 17.1327 342.797 21.3151C350.601 22.864 358.763 23.129 367.154 22.4555C367.031 22.2921 366.907 22.129 366.784 21.966C358.55 22.6031 350.548 22.3261 342.898 20.8078C321.862 16.6307 301.269 10.2233 280.658 3.81013L279.143 3.33889C258.03 -3.22875 236.887 -9.74492 215.244 -13.8041C201.556 -16.3726 188.391 -21.0344 175.247 -25.6885C174.315 -26.0186 173.383 -26.3488 172.45 -26.6781C158.383 -31.6471 144.302 -36.4356 129.633 -38.4348C125.405 -39.0106 121.167 -39.3519 116.92 -39.4918Z" fill="black"/>
<path d="M122.027 -41.8179C121.697 -41.6731 121.368 -41.5275 121.039 -41.381C122.239 -41.2851 123.439 -41.1747 124.639 -41.0492C139.323 -39.5094 154.078 -35.9112 168.817 -31.998C171.532 -31.277 174.248 -30.5452 176.962 -29.8137L176.989 -29.8065L176.99 -29.8062C188.992 -26.5717 200.971 -23.3431 212.865 -21.0718C233.541 -17.1222 253.636 -10.3135 273.709 -3.31011C275.128 -2.81526 276.546 -2.31944 277.964 -1.82357C296.613 4.6962 315.276 11.2211 334.376 15.5986C343.728 17.7453 352.96 17.5275 362.092 16.0069C361.966 15.8528 361.839 15.6988 361.713 15.5451C352.726 17.0136 343.662 17.1994 334.492 15.0944C315.422 10.7239 296.785 4.20837 278.131 -2.31319L278.108 -2.32127C276.699 -2.81391 275.29 -3.3066 273.88 -3.7984C253.809 -10.8011 233.681 -17.6221 212.962 -21.5799C201.09 -23.8471 189.133 -27.0693 177.134 -30.3033L177.132 -30.3037L177.114 -30.3085C174.395 -31.0413 171.673 -31.7748 168.95 -32.4978C154.208 -36.4117 139.42 -40.0193 124.693 -41.5636C123.805 -41.6565 122.916 -41.7412 122.027 -41.8179Z" fill="black"/>
<path d="M127.525 -44.1351C127.185 -43.9974 126.844 -43.8588 126.505 -43.7194C146.789 -41.6841 167.84 -37.4381 188.29 -33.3134C195.851 -31.7886 203.329 -30.2802 210.656 -28.9063C229.6 -25.3533 248.03 -18.0439 266.478 -10.7273L267.461 -10.3372C267.971 -10.135 268.481 -9.93274 268.991 -9.73065C288.27 -2.09308 307.592 5.36557 327.519 8.32312C336.614 9.67307 346.1 9.67646 355.829 8.70592C355.686 8.54662 355.542 8.38752 355.399 8.22868C345.839 9.15792 336.525 9.13692 327.595 7.81147C307.737 4.86403 288.467 -2.5713 269.182 -10.2115C268.339 -10.5456 267.495 -10.8801 266.652 -11.2146C248.218 -18.526 229.746 -25.8523 210.752 -29.4146C203.442 -30.7855 195.974 -32.2915 188.421 -33.815L188.418 -33.8157C168.287 -37.8761 147.543 -42.0601 127.525 -44.1351Z" fill="black"/>
<path d="M135.255 -47.0778C134.866 -46.9386 134.477 -46.7983 134.088 -46.6568C158.986 -44.5869 184.896 -40.9745 208.713 -36.813C227.609 -33.5167 245.935 -26.3429 264.278 -19.1623L265.769 -18.5785C284.601 -11.2097 303.466 -3.94489 322.953 -1.01659C330.822 0.165567 339.01 0.39422 347.415 -0.108063C347.25 -0.271366 347.084 -0.434416 346.918 -0.59715C338.709 -0.132688 330.715 -0.373654 323.03 -1.52812C303.61 -4.44635 284.797 -11.6883 265.958 -19.06L264.446 -19.6519L264.445 -19.6523C246.118 -26.8267 227.75 -34.0172 208.802 -37.3225C185.332 -41.4232 159.828 -44.9919 135.255 -47.0778Z" fill="black"/>
<path d="M146.155 -50.6303C145.633 -50.4765 145.112 -50.3205 144.592 -50.1626C165.391 -49.5239 186.218 -47.9371 207.11 -44.8219C226.15 -41.9797 244.697 -35.4874 263.26 -28.9889L263.261 -28.9885L264.193 -28.6625C283.059 -22.0591 301.951 -15.5125 321.362 -12.8848C325.653 -12.3052 330.025 -11.969 334.465 -11.8463C334.249 -12.0257 334.033 -12.2047 333.816 -12.3832C329.622 -12.5197 325.49 -12.8492 321.432 -13.3973C302.082 -16.0168 283.238 -22.5445 264.364 -29.1506L263.412 -29.4838C244.863 -35.9773 226.276 -42.4839 207.187 -45.3335C186.789 -48.375 166.457 -49.9608 146.155 -50.6303Z" fill="black"/>
<path d="M175.734 -57C174.881 -56.8819 174.03 -56.7585 173.181 -56.6299C184.363 -56.0032 195.514 -55.0892 206.621 -53.8096C225.96 -51.581 245.07 -46.1088 264.21 -40.6279L264.39 -40.5763C265.187 -40.3482 265.984 -40.1201 266.78 -39.8922C281.239 -35.7572 295.72 -31.7 310.319 -29.1257C309.909 -29.3759 309.499 -29.6246 309.088 -29.872C294.97 -32.4483 280.948 -36.3782 266.923 -40.3895C266.062 -40.6358 265.2 -40.8825 264.339 -41.1292C245.21 -46.6068 226.062 -52.0898 206.681 -54.3235C196.398 -55.5081 186.08 -56.3795 175.734 -57Z" fill="black"/>
</svg>
