<svg width="254" height="490" viewBox="0 0 254 490" fill="none" xmlns="http://www.w3.org/2000/svg">
<path d="M-104.219 -92.2721C-100.26 -92.9349 -96.3052 -93.6093 -92.3503 -94.2837C-88.9897 -94.8567 -85.6294 -95.4297 -82.2675 -95.9955C-80.8443 -96.235 -79.4209 -96.4732 -77.9971 -96.7096C-73.7771 -97.2293 -69.5296 -97.6601 -65.2565 -98C-70.8925 -97.1283 -76.5186 -96.2024 -82.143 -95.2559C-85.5013 -94.6907 -88.8592 -94.1181 -92.2183 -93.5453L-92.22 -93.545C-99.7384 -92.263 -107.263 -90.98 -114.811 -89.7766C-111.305 -90.6716 -107.774 -91.5038 -104.219 -92.2721Z" fill="black"/>
<path d="M-169.657 -69.7809C-168.945 -70.124 -168.232 -70.4643 -167.517 -70.8019C-163.374 -71.3104 -159.226 -71.7915 -155.074 -72.2407C-133.552 -74.5733 -112.666 -79.0428 -91.7946 -83.5091L-91.7893 -83.5103C-88.4125 -84.2329 -85.0361 -84.9554 -81.6574 -85.6688C-57.4023 -90.7901 -33.0389 -95.4378 -7.64529 -96.2337C-5.871 -96.2898 -4.09784 -96.3339 -2.32574 -96.3666C-0.69519 -96.1507 0.931152 -95.9214 2.55322 -95.6789C-0.834747 -95.6547 -4.2262 -95.5914 -7.62161 -95.4841C-32.9438 -94.6904 -57.2512 -90.0554 -81.5025 -84.935C-84.879 -84.222 -88.2547 -83.4997 -91.6318 -82.7769C-112.502 -78.3108 -133.43 -73.8322 -154.993 -71.4951C-159.888 -70.9656 -164.775 -70.3918 -169.657 -69.7809Z" fill="black"/>
<path d="M-201.132 -52.1577C-200.647 -52.4701 -200.16 -52.781 -199.672 -53.0906C-185.401 -54.8274 -171.199 -56.6299 -157.117 -58.4849C-134.497 -61.4627 -112.822 -67.3745 -91.1671 -73.2805L-91.166 -73.2808C-87.6525 -74.2391 -84.1395 -75.1972 -80.6231 -76.1426C-55.4453 -82.912 -30.1039 -89.0263 -3.21536 -89.833C10.5824 -90.2468 24.2074 -89.5334 37.7357 -88.1965C39.1206 -87.8119 40.5014 -87.4176 41.878 -87.0135C26.9872 -88.6244 12.0001 -89.539 -3.1929 -89.0834C-29.9873 -88.2794 -55.2558 -82.1863 -80.4283 -75.4184C-83.9402 -74.4741 -87.4505 -73.5167 -90.9628 -72.5587C-112.615 -66.6532 -134.344 -60.7263 -157.019 -57.7413C-171.614 -55.8188 -186.336 -53.9528 -201.132 -52.1577Z" fill="black"/>
<path d="M-221.69 -37.6662C-221.334 -37.9402 -220.978 -38.2135 -220.621 -38.486C-200.018 -39.8166 -179.562 -41.6384 -159.471 -44.3701C-134.694 -47.7408 -111.382 -55.7815 -88.0603 -63.8258L-88.0565 -63.8271C-85.1003 -64.8468 -82.144 -65.8665 -79.1845 -66.8767C-52.8898 -75.8527 -26.3557 -84.0777 2.44498 -84.8105C26.9104 -85.4268 50.3422 -81.1151 73.543 -75.7088C74.8588 -75.1521 76.1697 -74.5862 77.4756 -74.0111C52.9448 -79.8559 28.2739 -84.7109 2.46396 -84.0607C-26.2118 -83.3311 -52.6507 -75.1418 -78.9422 -66.167C-81.9007 -65.157 -84.8575 -64.1371 -87.8155 -63.1168C-111.129 -55.0748 -134.514 -47.0083 -159.37 -43.627C-179.839 -40.8438 -200.692 -39.0041 -221.69 -37.6662Z" fill="black"/>
<path d="M-237.498 -24.5924C-237.221 -24.8383 -236.943 -25.0837 -236.665 -25.3286C-211.385 -24.9189 -186.33 -25.762 -162.134 -29.9352C-136.49 -34.3498 -112.512 -44.2862 -88.529 -54.2245L-88.5251 -54.2261C-84.8668 -55.742 -81.2085 -57.258 -77.5441 -58.7544C-49.8733 -70.0543 -21.873 -80.2313 8.91226 -80.7412C37.0967 -81.2087 63.0863 -73.3094 88.8082 -64.3857C92.4169 -63.1337 96.0201 -61.8618 99.6232 -60.5898C103.413 -59.2517 107.203 -57.9137 111 -56.599C111.993 -55.9999 112.981 -55.395 113.966 -54.7846C109.086 -56.4534 104.223 -58.1703 99.3634 -59.8859L99.3615 -59.8865C95.7612 -61.1576 92.1633 -62.4279 88.5623 -63.6771C62.8477 -72.5983 36.9665 -80.4564 8.92471 -79.9913C-21.7085 -79.4839 -49.5953 -69.3577 -77.2606 -58.0601C-80.9196 -56.5658 -84.5749 -55.051 -88.2323 -53.5353L-88.2339 -53.5347C-112.211 -43.5982 -136.274 -33.626 -162.006 -29.1961C-186.528 -24.9667 -211.917 -24.1507 -237.498 -24.5924Z" fill="black"/>
<path d="M-249.469 -13.37C-249.241 -13.5962 -249.012 -13.8221 -248.783 -14.0476C-220.405 -10.8728 -192.186 -9.62133 -164.945 -15.3304C-138.54 -20.8538 -113.769 -32.7934 -88.9682 -44.747C-84.5594 -46.8719 -80.1494 -48.9976 -75.7294 -51.0875C-46.4687 -64.923 -16.7745 -77.1911 15.9533 -77.3079C44.6218 -77.4142 70.0873 -67.1396 95.1425 -55.5447C98.8232 -53.8413 102.495 -52.1097 106.166 -50.3782C118.397 -44.6095 130.629 -38.8408 143.198 -34.118C143.809 -33.6284 144.418 -33.1365 145.024 -32.6422C131.673 -37.5178 118.734 -43.6203 105.832 -49.7062C102.164 -51.4363 98.4985 -53.1652 94.8275 -54.8641C69.7814 -66.4548 44.4463 -76.6636 15.9561 -76.5579C-16.5919 -76.4417 -46.1545 -64.2419 -75.4088 -50.4094C-79.8175 -48.3249 -84.2195 -46.203 -88.6236 -44.0801L-88.6259 -44.079C-113.423 -32.1261 -138.289 -20.1401 -164.791 -14.5963C-192.341 -8.82255 -220.863 -10.1424 -249.469 -13.37Z" fill="black"/>
<path d="M-259.06 -3.41639C-258.864 -3.62981 -258.667 -3.84293 -258.47 -4.05576C-228.149 2.52066 -197.859 6.7305 -167.818 -0.619362C-140.451 -7.31481 -114.662 -21.2323 -88.8023 -35.1877C-83.8168 -37.8782 -78.8286 -40.5701 -73.826 -43.212C-42.9021 -59.5429 -11.4433 -73.9484 23.2227 -74.0865C52.3048 -74.2035 77.3426 -61.4639 101.786 -47.018C105.635 -44.7431 109.469 -42.4262 113.302 -40.1102C130.94 -29.4514 148.552 -18.8094 167.493 -12.3451C167.887 -11.951 168.28 -11.5557 168.671 -11.1594C149.094 -17.6023 130.963 -28.5594 112.891 -39.4813L112.89 -39.4822C109.063 -41.7949 105.239 -44.106 101.404 -46.3724C76.9697 -60.8131 52.0865 -73.4526 23.2257 -73.3365C-11.2412 -73.1992 -42.5573 -58.8769 -73.4758 -42.5488C-78.4639 -39.9146 -83.442 -37.2278 -88.4214 -34.5405L-88.4234 -34.5394C-114.281 -20.5837 -140.17 -6.6113 -167.639 0.109154C-197.959 7.52701 -228.495 3.22912 -258.943 -3.39088C-258.982 -3.39938 -259.021 -3.40788 -259.06 -3.41639Z" fill="black"/>
<path d="M-267.057 5.64265C-266.883 5.43664 -266.708 5.23087 -266.533 5.02535C-264.658 5.64104 -262.784 6.24769 -260.909 6.84219C-231.349 16.2155 -201.692 22.5917 -170.69 14.0281C-142.554 6.25198 -115.754 -9.60982 -88.815 -25.554C-83.2126 -28.8699 -77.604 -32.1893 -71.9762 -35.4404C-39.3184 -54.306 -6.02579 -70.8547 30.3669 -70.8016C59.9135 -70.759 84.5417 -55.5686 108.371 -38.3416C112.287 -35.511 116.18 -32.6259 120.07 -29.7432L120.073 -29.7416C139.89 -15.0568 159.624 -0.434143 181.759 6.61449C183.13 7.05109 184.506 7.4558 185.887 7.82977C186.161 8.16052 186.435 8.49189 186.709 8.82387C184.977 8.37391 183.25 7.87643 181.531 7.32914C159.266 0.239059 139.413 -14.4741 119.597 -29.1595C115.713 -32.0378 111.831 -34.9152 107.932 -37.7338C84.1078 -54.9568 59.652 -70.0094 30.3658 -70.0516C-5.80789 -70.1044 -38.9461 -53.6549 -71.6011 -34.791C-77.2117 -31.5498 -82.8086 -28.2371 -88.4039 -24.9252C-115.344 -8.97932 -142.248 6.94563 -170.49 14.751C-201.711 23.3752 -231.545 16.94 -261.135 7.55711C-263.111 6.93082 -265.084 6.29148 -267.057 5.64265Z" fill="black"/>
<path d="M-273.95 14.0872C-273.791 13.8842 -273.631 13.6814 -273.471 13.4787C-270.008 15.0139 -266.548 16.5215 -263.084 17.9752C-234.496 29.9727 -205.633 38.332 -173.411 28.5483C-144.618 19.8054 -116.838 2.12742 -88.8335 -15.6937L-88.8318 -15.6948C-82.6483 -19.6297 -76.4539 -23.5716 -70.2351 -27.4259C-35.8862 -48.7145 -0.808197 -67.316 37.1086 -67.029C67.129 -66.8054 91.382 -49.2533 114.629 -29.3844C118.552 -26.031 122.445 -22.6128 126.334 -19.1993C133.98 -12.4862 141.606 -5.79095 149.401 0.3592C161.154 9.63147 173.256 17.6345 186.312 22.5371C190.865 24.2472 195.477 25.5283 200.142 26.4338C200.348 26.727 200.555 27.0206 200.76 27.3145C195.798 26.3952 190.89 25.0579 186.049 23.2392C172.888 18.2975 160.716 10.2412 148.937 0.948013C141.126 -5.21391 133.473 -11.9329 125.817 -18.6545L125.812 -18.6586C121.93 -22.0673 118.046 -25.4766 114.141 -28.8142C90.8949 -48.683 66.8269 -66.0576 37.103 -66.2791C-0.577118 -66.5643 -35.4904 -48.0774 -69.84 -26.7884C-76.0387 -22.9466 -82.2195 -19.0131 -88.3944 -15.0834L-88.3962 -15.0822C-116.404 2.742 -144.292 20.4902 -173.194 29.2659C-205.675 39.1285 -234.745 30.6814 -263.374 18.6668C-266.905 17.185 -270.428 15.6494 -273.95 14.0872Z" fill="black"/>
<path d="M-279.976 22.0233C-279.827 21.82 -279.678 21.617 -279.528 21.4141C-274.735 24.0776 -269.954 26.703 -265.156 29.2023C-237.561 43.5768 -209.491 53.7333 -175.877 42.8136C-146.468 33.2572 -117.768 13.9375 -88.7568 -5.59115L-88.7534 -5.59344C-82.0871 -10.0808 -75.4045 -14.5792 -68.6931 -18.9727C-32.8123 -42.4615 3.88077 -62.9404 43.1298 -62.4089C73.664 -61.9934 97.5552 -42.287 120.245 -20.0367C124.129 -16.2279 127.977 -12.3459 131.817 -8.47106L131.819 -8.46884C139.213 -1.00864 146.581 6.42478 154.131 13.2571C165.598 23.6332 177.45 32.586 190.375 38.0778C197.247 40.9948 204.266 42.774 211.4 43.6336C211.564 43.9041 211.727 44.1749 211.89 44.446C204.494 43.6066 197.211 41.7945 190.082 38.7681C177.045 33.2286 165.12 24.212 153.628 13.8133C146.063 6.9677 138.668 -0.492859 131.264 -7.96329C127.427 -11.8347 123.588 -15.7087 119.72 -19.5012C97.0245 -41.7571 73.3259 -61.2479 43.1197 -61.659C4.12262 -62.1871 -32.397 -41.8369 -68.2824 -18.3452C-74.9727 -13.9655 -81.6412 -9.47626 -88.2991 -4.99419C-117.314 14.5386 -146.126 33.9347 -175.645 43.5269C-209.554 54.5423 -237.857 44.2684 -265.503 29.8675C-270.337 27.3496 -275.153 24.704 -279.976 22.0233Z" fill="black"/>
<path d="M-285.352 29.6024C-285.21 29.3962 -285.069 29.1902 -284.927 28.9844C-284.738 29.1081 -284.55 29.2318 -284.362 29.3554L-284.36 29.3563C-278.575 33.1556 -272.83 36.9288 -267.048 40.485C-240.387 56.8839 -213.052 68.6055 -178.064 56.7179C-149.722 47.0965 -122.145 29.7629 -96.0002 13.3285C-89.251 9.08609 -82.5968 4.90341 -76.0497 0.929047C-69.6873 -2.93684 -62.8321 -7.40951 -55.6162 -12.1175C-43.6152 -19.9476 -30.6165 -28.4285 -17.2278 -35.8517C4.22522 -47.7458 26.7947 -56.996 48.1122 -56.602C79.2634 -56.0265 102.78 -34.4807 124.922 -10.2172C128.71 -6.06636 132.457 -1.83709 136.195 2.38315L136.197 2.38468C143.403 10.5188 150.579 18.62 157.964 26.0608C169.175 37.3571 180.829 47.0907 193.713 53.0449C202.394 57.0558 211.3 59.0461 220.364 59.5133C220.498 59.77 220.633 60.0268 220.767 60.2839C211.467 59.855 202.319 57.8471 193.399 53.7258C180.395 47.7163 168.667 37.9096 157.432 26.5891C150.033 19.1341 142.831 11.0042 135.615 2.85929C131.879 -1.35751 128.14 -5.57834 124.368 -9.71168C102.216 -33.9864 78.8956 -55.2832 48.0984 -55.8521C26.9867 -56.2423 4.56256 -47.0753 -16.8641 -35.1958C-30.2393 -27.7801 -43.1811 -19.3354 -55.1593 -11.5195C-62.3821 -6.80655 -69.2545 -2.32222 -75.6603 1.57001C-82.1837 5.53007 -88.8215 9.70263 -95.5603 13.9387C-121.713 30.3783 -149.388 47.7753 -177.823 57.4281C-213.134 69.4256 -240.722 57.5588 -267.441 41.1238C-273.233 37.5613 -278.989 33.7813 -284.773 29.9824C-284.966 29.8558 -285.159 29.729 -285.352 29.6024Z" fill="black"/>
<path d="M-290.221 36.9319C-290.086 36.7212 -289.95 36.5107 -289.814 36.3004C-289.174 36.7708 -288.535 37.2415 -287.896 37.7124C-286.73 38.5727 -285.566 39.4333 -284.405 40.2926C-279.106 44.2125 -273.847 48.1028 -268.549 51.7874C-242.719 69.7506 -216.053 82.7586 -179.804 70.1978C-150.806 60.1464 -122.489 41.8222 -95.7807 24.5388L-95.7783 24.5372C-88.7471 19.9873 -81.8275 15.5095 -75.0363 11.2739C-68.5395 7.21839 -61.5176 2.49813 -54.1012 -2.48737L-54.1001 -2.48808C-51.7382 -4.0758 -49.3363 -5.69041 -46.8986 -7.31902C-36.8103 -14.0589 -26.116 -21.0335 -15.1366 -27.3109C6.81094 -39.8591 29.9497 -49.6527 51.7162 -49.1842C83.6086 -48.502 106.718 -25.5495 128.316 0.240593C131.945 4.57425 135.531 8.98709 139.109 13.3909L139.11 13.3921C146.197 22.1143 153.255 30.8011 160.567 38.7674C171.564 50.7504 183.095 61.0576 196.072 67.3322C206.325 72.288 216.835 74.2541 227.51 74.1048C227.623 74.3529 227.736 74.6012 227.848 74.8496C216.962 75.0456 206.225 73.0728 195.745 68.0074C182.643 61.6719 171.036 51.2837 160.014 39.2745C152.688 31.2924 145.604 22.5741 138.508 13.8408C134.933 9.44115 131.354 5.03711 127.741 0.722122C106.13 -25.0832 83.2185 -47.7601 51.7001 -48.4343C30.1473 -48.8983 7.15854 -39.1939 -14.7643 -26.6598C-25.7202 -20.3959 -36.3968 -13.4332 -46.4819 -6.6954C-48.9148 -5.07004 -51.3136 -3.45747 -53.6738 -1.87092L-53.6752 -1.87003C-61.0941 3.1172 -68.1308 7.84737 -74.6392 11.9101C-81.4051 16.13 -88.3074 20.5968 -95.3272 25.1396L-95.3296 25.1411C-122.046 42.4305 -150.466 60.8221 -179.559 70.9064C-216.152 83.587 -243.084 70.4105 -268.977 52.4032C-274.285 48.7116 -279.554 44.8138 -284.854 40.8936L-284.869 40.8821C-286.025 40.0272 -287.182 39.1712 -288.341 38.316C-288.967 37.8543 -289.594 37.3928 -290.221 36.9319Z" fill="black"/>
<path d="M-294.737 44.181C-294.607 43.9655 -294.477 43.7503 -294.346 43.5352C-290.822 46.2685 -287.343 49.0454 -283.882 51.8068C-279.093 55.6287 -274.341 59.4207 -269.562 63.0257C-256.991 72.5098 -244.19 80.7371 -229.869 84.9888C-215.56 89.2372 -199.712 89.5222 -181.033 83.0831C-151.694 72.9644 -122.873 53.9185 -95.8827 36.0831L-95.8806 36.0817C-88.6082 31.2759 -81.4687 26.558 -74.4879 22.1263C-67.9004 17.9467 -60.7917 13.0848 -53.2883 7.95294L-53.2788 7.94651C-50.9196 6.33292 -48.5213 4.69263 -46.0879 3.03849C-35.9162 -3.87592 -25.1383 -11.0275 -14.0634 -17.4627C8.07523 -30.3266 31.453 -40.3596 53.6023 -39.8804C86.4339 -39.1555 109.093 -15.3363 130.143 11.3756C133.542 15.6899 136.9 20.0789 140.251 24.4611L140.253 24.4633C147.295 33.6696 154.314 42.8458 161.657 51.2369C172.491 63.617 183.994 74.2417 197.237 80.6629C209.005 86.3701 220.989 88.1046 233.098 87.1933C233.195 87.4364 233.292 87.6798 233.388 87.9233C221.09 88.8831 208.895 87.1501 196.91 81.3378C183.534 74.8522 171.952 64.1404 161.093 51.7308C153.733 43.3216 146.689 34.1116 139.638 24.8946C136.29 20.5163 132.939 16.1361 129.554 11.8399C108.492 -14.8875 86.0302 -38.4143 53.5861 -39.1306C31.653 -39.6051 8.42651 -29.6633 -13.6866 -16.8142C-24.7377 -10.3929 -35.4977 -3.25356 -45.6663 3.65875C-48.0919 5.30762 -50.4843 6.94385 -52.8391 8.55437L-52.8558 8.56579L-52.8567 8.56643C-60.3629 13.7002 -67.4866 18.5724 -74.086 22.7596C-81.0394 27.1738 -88.1602 31.8797 -95.4207 36.6778L-95.4215 36.6784C-122.42 54.5206 -151.35 73.6391 -180.789 83.7921C-199.612 90.281 -215.62 90.0017 -230.083 85.7078C-244.534 81.4172 -257.422 73.1242 -270.014 63.6244C-274.829 59.9924 -279.594 56.1895 -284.387 52.364C-287.813 49.63 -291.254 46.8839 -294.737 44.181Z" fill="black"/>
<path d="M-299.389 52.1767C-299.266 51.9568 -299.142 51.7372 -299.018 51.5177C-294.025 55.2735 -289.136 59.1617 -284.285 63.0193C-279.453 66.8618 -274.659 70.674 -269.839 74.295C-257.256 83.7474 -244.45 91.9363 -230.154 96.1458C-215.868 100.352 -200.073 100.591 -181.501 94.1043C-152.121 83.8454 -123.255 65.0976 -96.0975 47.4588C-88.6878 42.6463 -81.4048 37.916 -74.2736 33.4635C-67.5037 29.2349 -60.1775 24.2858 -52.4369 19.0568L-52.4349 19.0554L-52.4218 19.0465C-50.2341 17.5687 -48.0133 16.0685 -45.7627 14.5559C-35.5471 7.6903 -24.7225 0.574005 -13.6096 -5.84633C8.6051 -18.6805 32.024 -28.7657 54.0866 -28.4782C87.0283 -28.0411 109.551 -4.08499 130.433 22.8172C133.803 27.1586 137.13 31.576 140.451 35.9867L140.454 35.9899C147.44 45.2673 154.404 54.5149 161.702 62.9628C172.465 75.4222 183.916 86.0947 197.152 92.4888C210.409 98.8961 223.846 100.317 237.378 98.6134C237.462 98.8546 237.547 99.0959 237.631 99.3373C223.931 101.087 210.292 99.6727 196.826 93.1641C183.454 86.7045 171.923 75.9424 161.134 63.4531C153.821 54.9867 146.831 45.7047 139.836 36.4163L139.829 36.4075C136.512 32.0033 133.195 27.5977 129.841 23.277C108.946 -3.6415 86.6229 -27.2964 54.0769 -27.7283C32.2267 -28.013 8.95648 -18.0174 -13.2344 -5.19691C-24.3242 1.21008 -35.1314 8.31458 -45.3444 15.1784C-47.5953 16.6912 -49.8178 18.1925 -52.0081 19.6722L-52.0096 19.6732C-59.7523 24.9037 -67.0937 29.8632 -73.8763 34.0997C-80.9803 38.5352 -88.2442 43.2532 -95.6417 48.0581L-95.6427 48.0587C-122.81 65.7043 -151.779 84.5204 -181.254 94.8124C-199.971 101.349 -215.926 101.117 -230.365 96.8652C-244.793 92.6172 -257.686 84.3627 -270.289 74.8947C-275.146 71.2461 -279.953 67.423 -284.789 63.577C-289.601 59.7498 -294.442 55.8999 -299.389 52.1767Z" fill="black"/>
<path d="M-304.164 61.0382C-304.048 60.8145 -303.932 60.5909 -303.816 60.3675C-299.01 63.6513 -294.297 67.063 -289.628 70.4806C-288.5 71.3061 -287.375 72.1319 -286.251 72.9563C-280.913 76.8741 -275.617 80.7605 -270.283 84.4375C-244.464 102.234 -217.846 115.047 -181.756 102.37C-152.321 92.0326 -123.541 74.5444 -96.0565 57.8428L-96.0555 57.8422C-88.4771 53.237 -80.997 48.6917 -73.6288 44.3725C-66.3788 40.1225 -58.4529 35.044 -50.0505 29.6601C-48.3119 28.5461 -46.5529 27.419 -44.7752 26.2834C-34.4105 19.6626 -23.4182 12.7589 -12.1683 6.50617C10.3195 -5.99268 33.8902 -15.9221 55.5892 -15.7624C87.7912 -15.5171 110.135 8.19784 130.831 34.8815C134.284 39.3336 137.69 43.8675 141.09 48.3923C147.897 57.452 154.676 66.4753 161.747 74.7322C172.345 87.107 183.558 97.7104 196.413 104.062C211.076 111.307 226.001 112.367 241.054 109.794C241.128 110.035 241.201 110.276 241.275 110.517C226.07 113.131 210.95 112.081 196.081 104.734C183.091 98.3163 171.799 87.623 161.178 75.22C154.092 66.9457 147.286 57.8882 140.47 48.8164C137.074 44.2966 133.675 39.7729 130.238 35.3411C109.527 8.63847 87.3858 -14.7702 55.5837 -15.0124C34.0904 -15.1706 10.6647 -5.32648 -11.804 7.16172C-23.0324 13.4025 -34.0084 20.2957 -44.3715 26.9155C-46.1452 28.0485 -47.9012 29.1737 -49.6375 30.2862L-49.6407 30.2883C-58.0436 35.6725 -65.9852 40.7611 -73.2495 45.0195C-80.5936 49.3246 -88.0573 53.8601 -95.6253 58.4591L-95.6263 58.4597C-123.12 75.1673 -151.99 92.7115 -181.507 103.077C-217.941 115.875 -244.826 102.896 -270.708 85.055C-276.053 81.371 -281.36 77.4764 -286.699 73.5581C-287.821 72.7345 -288.945 71.9098 -290.071 71.0858C-294.715 67.6868 -299.395 64.2984 -304.164 61.0382Z" fill="black"/>
<path d="M-308.767 70.3402C-308.66 70.1132 -308.552 69.8864 -308.444 69.6597C-302.585 73.1501 -296.847 76.8237 -291.163 80.4972C-290.292 81.0603 -289.422 81.6235 -288.553 82.186C-282.755 85.9384 -277.002 89.6613 -271.215 93.1652C-244.604 109.277 -217.346 120.7 -182.091 108.79C-152.378 98.7416 -123.324 82.6554 -95.2585 67.1169C-87.6084 62.8813 -80.0318 58.6864 -72.5353 54.6656C-64.7892 50.5116 -56.2581 45.4587 -47.2021 40.0949C-45.8496 39.2938 -44.4854 38.4858 -43.1103 37.6728C-32.5321 31.4186 -21.3176 24.8731 -9.88031 18.9416C12.9822 7.08503 36.7895 -2.34811 58.2407 -2.07133C89.7112 -1.67674 111.476 21.6254 131.592 47.8402C134.995 52.2743 138.349 56.7908 141.697 61.2974L141.697 61.2983C148.263 70.1385 154.801 78.9409 161.618 87.0095C171.905 99.1855 182.787 109.639 195.272 115.953C211.239 124.024 227.647 124.588 244.257 121.03C244.32 121.272 244.384 121.515 244.447 121.757C227.704 125.348 211.104 124.797 194.934 116.622C182.315 110.241 171.355 99.6972 161.045 87.4935C154.213 79.4078 147.65 70.5709 141.075 61.7182C137.731 57.2162 134.384 52.7102 130.997 48.2968C110.867 22.0631 89.3022 -0.931816 58.231 -1.32139C36.9774 -1.59563 13.3113 7.75921 -9.53503 19.6074C-20.9522 25.5284 -32.1511 32.0646 -42.7286 38.3184C-44.0949 39.1263 -45.4509 39.9294 -46.7958 40.726L-46.8179 40.7391C-55.8724 46.102 -64.4193 51.1643 -72.1809 55.3266C-79.6566 59.3363 -87.2192 63.5235 -94.8604 67.7543C-122.933 83.2975 -152.067 99.4281 -181.85 109.501C-217.423 121.518 -244.93 109.957 -271.604 93.8068C-277.401 90.2967 -283.164 86.5672 -288.961 82.8153C-289.83 82.2528 -290.7 81.6899 -291.57 81.1271C-297.235 77.4665 -302.943 73.812 -308.767 70.3402Z" fill="black"/>
<path d="M-313.2 80.1733C-313.101 79.9431 -313.002 79.7131 -312.903 79.4832C-305.554 83.1369 -298.364 87.0433 -291.233 90.9173C-284.987 94.3105 -278.786 97.679 -272.565 100.831C-245.008 114.794 -216.974 124.564 -182.464 113.81C-152.418 104.445 -122.954 89.9797 -94.2335 75.8794C-86.4597 72.0629 -78.7403 68.2731 -71.0785 64.6184C-62.7331 60.6414 -53.5005 55.7184 -43.7069 50.4963L-43.7055 50.4955L-43.6061 50.4425C-42.7061 49.9626 -41.8013 49.4802 -40.8921 48.9958C-30.0551 43.222 -18.5873 37.1659 -6.93472 31.6882C16.3587 20.7384 40.4444 12.0729 61.7633 12.6157C92.5116 13.4156 113.384 36.1333 132.619 61.6475C135.86 65.9458 139.053 70.3225 142.24 74.6905C148.529 83.3111 154.794 91.8979 161.35 99.7823C171.221 111.656 181.714 121.885 193.855 128.162C210.979 137.013 228.839 136.967 247.004 132.361C247.058 132.605 247.112 132.85 247.165 133.094C228.886 137.724 210.838 137.784 193.511 128.828C181.237 122.483 170.668 112.164 160.773 100.262C154.203 92.3604 147.913 83.7393 141.615 75.1069L141.614 75.1056C138.431 70.7425 135.245 66.3764 132.02 62.099C112.773 36.5688 92.0965 14.1551 61.7442 13.3655C40.6126 12.8274 16.6634 21.424 -6.61566 32.367C-18.2494 37.8357 -29.7022 43.8837 -40.5395 49.6577C-41.4833 50.1606 -42.4225 50.6613 -43.3567 51.1595C-53.1462 56.3795 -62.394 61.3106 -70.7558 65.2954C-78.3984 68.941 -86.1046 72.7244 -93.8697 76.5367L-93.8734 76.5385C-122.601 90.6424 -152.134 105.142 -182.241 114.526C-217.033 125.368 -245.289 115.492 -272.904 101.5C-279.167 98.3269 -285.394 94.9442 -291.657 91.5424C-298.758 87.6848 -305.905 83.8025 -313.2 80.1733Z" fill="black"/>
<path d="M-317.376 90.4383C-317.286 90.2049 -317.196 89.9717 -317.105 89.7386C-309.432 92.7646 -301.888 96.014 -294.397 99.2409L-294.395 99.2415C-287.678 102.135 -281.003 105.01 -274.314 107.69C-245.68 119.162 -216.74 127.083 -182.939 117.749C-152.474 109.347 -122.487 96.6791 -93.02 84.2309L-93.0157 84.2291C-85.1226 80.8946 -77.2668 77.5759 -69.4492 74.3593C-60.4596 70.6615 -50.4958 66.0014 -39.9491 61.0686L-38.3888 60.339C-27.2678 55.1389 -15.5307 49.6781 -3.64691 44.7629C20.1097 34.937 44.5053 27.2674 65.7974 28.2357C95.9172 29.6009 115.632 51.6272 133.732 76.2669C136.685 80.2867 139.594 84.3749 142.499 88.4572L142.5 88.4591C148.515 96.9109 154.511 105.337 160.839 113.077C170.22 124.549 180.295 134.465 192.161 140.645C210.363 150.129 229.622 149.372 249.283 143.704C249.328 143.951 249.372 144.199 249.417 144.446C229.662 150.128 210.219 150.9 191.814 141.31C179.816 135.061 169.665 125.055 160.259 113.552C153.914 105.792 147.892 97.3295 141.868 88.8651L141.866 88.8615C138.965 84.7856 136.065 80.7092 133.128 76.7109C115.019 52.0601 95.4938 30.3325 65.7634 28.9849C44.6474 28.0247 20.3829 35.6356 -3.36023 45.456C-15.2263 50.3639 -26.949 55.8177 -38.0712 61.0184L-39.6382 61.7512L-39.6395 61.7518C-50.1794 66.6814 -60.1577 71.3483 -69.1639 75.0529C-76.9679 78.2639 -84.815 81.579 -92.7033 84.9115C-122.176 97.3624 -152.222 110.056 -182.74 118.472C-216.78 127.872 -245.91 119.878 -274.593 108.386C-281.321 105.691 -288.021 102.805 -294.754 99.9051C-302.227 96.6861 -309.74 93.45 -317.376 90.4383Z" fill="black"/>
<path d="M-321.201 100.973C-321.12 100.736 -321.039 100.499 -320.957 100.262C-313.208 102.522 -305.544 104.953 -297.917 107.372C-290.723 109.653 -283.562 111.924 -276.395 114.031C-246.587 122.794 -216.622 128.743 -183.476 120.988C-152.538 113.755 -121.96 103.03 -91.7489 92.4341C-83.7388 89.6246 -75.7542 86.8241 -67.7958 84.1002C-58.0381 80.763 -47.2248 76.4551 -35.8192 71.9112L-35.7938 71.9012C-24.3823 67.3549 -12.3812 62.5743 -0.271515 58.3036C23.9379 49.7657 48.6322 43.2461 69.9817 44.7247C100.249 46.8151 118.18 68.4718 134.594 92.2797C136.786 95.458 138.95 98.6741 141.113 101.888C147.064 110.733 153.006 119.565 159.487 127.561C168.318 138.457 178.12 147.761 190.238 153.375C210.163 162.61 230.527 161.081 251.047 154.64C251.082 154.891 251.117 155.142 251.152 155.393C230.562 161.837 210.034 163.377 189.922 154.055C177.658 148.373 167.77 138.972 158.904 128.033C152.4 120.009 146.43 111.135 140.473 102.281C138.314 99.0731 136.157 95.8673 133.977 92.7054C117.558 68.8917 99.809 47.5364 69.9299 45.4729C48.7442 44.0056 24.1743 50.4776 -0.0220642 59.0109C-12.1153 63.2758 -24.1025 68.0508 -35.5163 72.5979L-35.5529 72.6125C-46.9496 77.1528 -57.7776 81.4665 -67.553 84.8098C-75.499 87.5294 -83.475 90.327 -91.4799 93.1347C-121.696 103.733 -152.323 114.475 -183.305 121.718C-216.643 129.518 -246.761 123.525 -276.607 114.75C-283.807 112.634 -290.988 110.356 -298.195 108.071C-305.818 105.654 -313.47 103.227 -321.201 100.973Z" fill="black"/>
<path d="M-324.685 111.859C-324.613 111.618 -324.541 111.378 -324.468 111.137C-317.102 112.622 -309.76 114.218 -302.43 115.813C-295.946 117.223 -289.471 118.631 -282.996 119.958C-253.247 126.054 -223.478 130.445 -192.733 125.518C-155.396 119.542 -118.597 109.021 -81.999 98.5572C-68.39 94.6662 -54.8086 90.7832 -41.2375 87.1447C-33.2778 85.0144 -24.7007 82.3473 -15.7654 79.5688L-14.2625 79.1016C-4.78891 76.1568 5.06509 73.1153 14.979 70.4837C34.7998 65.2224 54.8998 61.5879 72.7326 63.652C103.697 67.2335 120.62 88.4804 136.393 111.285C137.87 113.42 139.336 115.568 140.804 117.718L140.808 117.725C155.037 138.568 169.303 159.467 193.226 168.795C212.356 176.263 232.295 173.74 252.512 166.752C252.538 167.008 252.563 167.263 252.588 167.52C232.328 174.497 212.251 177.027 192.953 169.493C168.802 160.076 154.402 138.976 140.199 118.163C138.726 116.005 137.255 113.85 135.776 111.711C120.003 88.907 103.249 67.9366 72.6464 64.3971C54.959 62.3497 34.9717 65.9527 15.1714 71.2086C5.27472 73.8357 -4.56528 76.8727 -14.0399 79.8177L-15.5468 80.2862C-24.4777 83.0634 -33.0684 85.7347 -41.0434 87.8691C-54.5876 91.5004 -68.1528 95.3788 -81.7526 99.2672C-118.366 109.735 -155.229 120.275 -192.614 126.258C-223.499 131.208 -253.38 126.792 -283.147 120.692C-289.641 119.361 -296.129 117.95 -302.621 116.539C-309.966 114.942 -317.316 113.344 -324.685 111.859Z" fill="black"/>
<path d="M-327.631 122.443C-327.568 122.198 -327.504 121.953 -327.441 121.709C-320.29 122.462 -313.146 123.277 -306.006 124.091C-299.228 124.863 -292.453 125.636 -285.681 126.355C-255.032 129.61 -224.411 131.784 -193.566 128.038C-155.762 123.442 -118.27 115.513 -80.8823 107.606C-67.0834 104.687 -53.2988 101.772 -39.5179 99.0284C-30.8377 97.303 -21.5232 95.0439 -11.8656 92.698L-11.5965 92.6326C-2.02515 90.3076 7.8782 87.902 17.8157 85.8546C37.8716 81.7225 58.1039 79.0411 76.0877 81.434C105.913 85.3993 121.906 105.544 136.788 127.092C138.153 129.069 139.509 131.058 140.866 133.047C154.317 152.774 167.804 172.552 190.875 181.659C210.786 189.52 231.922 186.291 253.448 178.389C253.463 178.65 253.479 178.911 253.494 179.172C231.946 187.052 210.678 190.283 190.599 182.357C167.302 173.16 153.684 153.184 140.256 133.485L140.254 133.483C138.894 131.488 137.537 129.496 136.171 127.518C121.292 105.975 105.463 86.0961 75.9888 82.1774C58.1345 79.8018 38.0038 82.4611 17.9671 86.5892C8.04242 88.6339 -1.85019 91.0369 -11.4254 93.3629L-11.6886 93.4268C-21.3428 95.7719 -30.6732 98.035 -39.3716 99.764C-53.1321 102.504 -66.9042 105.416 -80.6957 108.333L-80.6979 108.333C-118.096 116.243 -155.637 124.182 -193.476 128.782C-224.409 132.539 -255.101 130.357 -285.76 127.101C-292.545 126.38 -299.328 125.607 -306.111 124.834L-306.112 124.833C-313.283 124.016 -320.455 123.199 -327.631 122.443Z" fill="black"/>
<path d="M-330.133 132.918C-330.078 132.669 -330.023 132.419 -329.968 132.17C-323.281 132.283 -316.595 132.416 -309.909 132.549H-309.908C-302.745 132.692 -295.583 132.835 -288.422 132.952C-257.045 133.466 -225.694 133.492 -194.421 130.898C-156.082 127.726 -117.896 122.41 -79.7457 117.1L-79.744 117.099C-65.9006 115.172 -52.0619 113.246 -38.2223 111.423C-29.2613 110.242 -19.7491 108.596 -9.94702 106.872C-9.19647 106.74 -8.44421 106.608 -7.6904 106.475C1.39795 104.875 10.7148 103.235 20.0435 101.863C40.2443 98.8916 60.5337 97.1733 78.7419 99.8519C107.405 104.062 122.633 123.008 136.807 143.21C138.077 145.02 139.338 146.839 140.599 148.659C153.441 167.187 166.317 185.762 188.586 194.545C209.14 202.655 231.296 198.786 253.928 190.106C253.934 190.372 253.939 190.637 253.944 190.904C231.31 199.55 209.03 203.417 188.31 195.243C165.818 186.372 152.813 167.604 139.993 149.102L139.985 149.091C138.722 147.268 137.461 145.449 136.193 143.641C122.026 123.449 106.958 104.755 78.6328 100.594C60.5366 97.9318 40.3358 99.6362 20.1526 102.605C10.8344 103.975 1.52707 105.614 -7.56372 107.214L-9.81711 107.611C-19.6176 109.334 -29.1451 110.984 -38.1243 112.166C-51.9522 113.988 -65.784 115.913 -79.6236 117.84C-117.781 123.152 -155.998 128.472 -194.359 131.645C-225.671 134.243 -257.052 134.216 -288.434 133.702C-295.597 133.585 -302.759 133.442 -309.921 133.299L-309.933 133.299C-316.667 133.165 -323.401 133.031 -330.133 132.918Z" fill="black"/>
<path d="M-332.221 143.325C-332.175 143.071 -332.128 142.818 -332.081 142.564C-323.187 142.006 -314.293 141.439 -305.4 140.871C-268.72 138.53 -232.039 136.189 -195.318 134.52C-156.193 132.741 -117.116 130.013 -78.0366 127.284C-64.5391 126.342 -51.0414 125.4 -37.5415 124.496C-26.8769 123.78 -15.6329 122.527 -4.12952 121.244C4.27097 120.308 12.8098 119.356 21.3625 118.587C41.5993 116.766 61.8603 115.973 80.3347 118.863C107.867 123.158 122.574 140.824 136.292 159.605C137.495 161.253 138.69 162.908 139.886 164.564C152.341 181.814 164.822 199.101 186.337 207.43C207.478 215.626 230.457 211.213 253.949 201.919C253.945 202.19 253.939 202.461 253.934 202.732C230.459 211.981 207.367 216.387 186.066 208.129C164.333 199.716 151.723 182.246 139.289 165.019C138.089 163.357 136.891 161.697 135.686 160.048C121.979 141.28 107.429 123.849 80.2188 119.604C61.8378 116.729 41.6511 117.514 21.4297 119.334C12.917 120.1 4.38864 121.05 -4.01123 121.986L-4.01352 121.986C-15.5389 123.27 -26.8223 124.528 -37.4912 125.245C-50.9864 126.148 -64.481 127.09 -77.9767 128.032C-117.058 130.76 -156.149 133.489 -195.284 135.27C-232.004 136.938 -268.665 139.278 -305.333 141.618L-305.337 141.619L-305.342 141.619C-314.301 142.191 -323.26 142.762 -332.221 143.325Z" fill="black"/>
<path d="M-333.927 153.765C-333.89 153.508 -333.852 153.25 -333.814 152.993C-326.64 152.052 -319.471 151.08 -312.304 150.108L-312.296 150.107C-306.055 149.261 -299.815 148.415 -293.571 147.589C-261.318 143.324 -229.006 139.607 -196.259 139.268C-161.021 138.915 -125.783 138.769 -90.5455 138.623H-90.5428L-90.5143 138.622C-72.9051 138.549 -55.2962 138.477 -37.688 138.378C-25.7853 138.311 -13.3739 137.697 -0.771698 137.073L-0.769867 137.073C6.61523 136.708 14.0659 136.339 21.518 136.076C41.671 135.363 61.8076 135.42 80.5688 138.404C107.043 142.624 121.542 158.927 135.126 176.213C136.296 177.702 137.459 179.198 138.622 180.694C150.98 196.589 163.354 212.504 184.213 220.25C205.939 228.315 229.479 223.495 253.503 213.798C253.487 214.075 253.47 214.351 253.454 214.627C229.464 224.268 205.825 229.073 183.952 220.953C162.883 213.129 150.38 197.044 138.041 181.17L138.026 181.15C136.864 179.655 135.703 178.161 134.536 176.677C120.966 159.408 106.621 143.316 80.451 139.144C61.7634 136.172 41.6855 136.113 21.5445 136.825C14.1165 137.088 6.67621 137.456 -0.705109 137.821L-0.707672 137.821C-13.3238 138.445 -25.768 139.061 -37.6838 139.128C-55.3023 139.227 -72.9202 139.3 -90.5378 139.373H-90.5457C-125.781 139.519 -161.016 139.665 -196.251 140.018C-228.95 140.357 -261.224 144.068 -293.473 148.333C-299.713 149.158 -305.952 150.004 -312.193 150.85C-319.434 151.832 -326.677 152.814 -333.927 153.765Z" fill="black"/>
<path d="M-335.272 164.389C-335.244 164.129 -335.215 163.87 -335.187 163.61C-328.058 162.284 -320.941 160.906 -313.825 159.528L-313.824 159.528C-307.769 158.355 -301.716 157.183 -295.658 156.044C-263.239 149.944 -230.706 144.777 -197.222 145.499C-177.158 145.935 -156.657 146.136 -135.926 146.339L-135.924 146.339C-64.1193 147.041 10.4421 147.771 79.1263 158.431C104.614 162.395 119.281 177.269 133.136 192.993C134.288 194.3 135.434 195.613 136.58 196.925L136.591 196.938C149.241 211.429 161.895 225.924 182.296 232.921C204.64 240.591 228.426 235.53 252.58 225.678C252.553 225.96 252.525 226.241 252.497 226.523C228.389 236.308 204.524 241.344 182.053 233.63C161.452 226.565 148.67 211.919 136.038 197.446C134.884 196.124 133.731 194.803 132.574 193.489C118.734 177.783 104.219 163.092 79.0112 159.172C10.3861 148.521 -64.1002 147.792 -135.896 147.089C-156.636 146.887 -177.153 146.686 -197.238 146.249C-230.64 145.529 -263.108 150.683 -295.519 156.781C-301.564 157.918 -307.606 159.088 -313.653 160.259L-313.668 160.262C-320.861 161.654 -328.06 163.048 -335.272 164.389Z" fill="black"/>
<path d="M-336.247 175.252C-336.228 174.991 -336.209 174.73 -336.19 174.469C-329.064 172.824 -321.954 171.104 -314.845 169.383C-310.239 168.269 -305.635 167.155 -301.027 166.061C-269.832 158.659 -238.504 152.215 -205.971 153.213C-113.105 156.054 -14.9657 166.249 77.063 178.648C101.951 182.004 117.648 196.411 132.818 211.231C133.562 211.958 134.306 212.687 135.049 213.415C149.461 227.538 163.769 241.559 185.481 246.601C207.273 251.669 229.204 246.699 251.154 237.713C251.114 238 251.074 238.287 251.033 238.573C229.139 247.486 207.173 252.415 185.311 247.332C163.389 242.24 148.941 228.08 134.558 213.984C133.803 213.245 133.049 212.505 132.294 211.767C117.125 196.948 101.583 182.712 76.9628 179.392C-15.0522 166.995 -113.164 156.802 -205.994 153.963C-238.42 152.968 -269.665 159.39 -300.853 166.791C-305.455 167.883 -310.056 168.996 -314.659 170.11C-321.844 171.849 -329.036 173.59 -336.247 175.252Z" fill="black"/>
<path d="M-336.849 186.94C-336.841 186.68 -336.832 186.421 -336.823 186.161C-329.058 184.225 -321.319 182.171 -313.583 180.116C-309.645 179.071 -305.708 178.026 -301.769 176.996C-270.731 168.886 -239.544 161.772 -206.705 163.45C-160.452 165.803 -114.033 172.259 -67.6834 179.428C-57.6636 180.978 -47.6474 182.561 -37.6368 184.143L-37.6347 184.144C-1.33328 189.881 34.8945 195.607 70.9515 199.692C95.429 202.471 112.405 215.157 128.946 228.151C129.662 228.713 130.377 229.276 131.091 229.838C146.908 242.29 162.598 254.642 184.426 258.699C206.55 262.807 228.043 257.926 249.296 249.343C249.244 249.634 249.191 249.925 249.138 250.216C227.95 258.72 206.446 263.551 184.289 259.436C162.275 255.345 146.452 242.887 130.663 230.456C129.936 229.884 129.21 229.312 128.483 228.741C111.941 215.746 95.1133 203.19 70.8671 200.438C34.7919 196.35 -1.45758 190.621 -37.7616 184.883C-47.7704 183.301 -57.7834 181.718 -67.798 180.169C-114.143 173.001 -160.53 166.55 -206.744 164.199C-239.457 162.528 -270.546 169.613 -301.579 177.722C-305.514 178.75 -309.448 179.795 -313.384 180.84L-313.385 180.84C-321.19 182.912 -329.003 184.987 -336.849 186.94Z" fill="black"/>
<path d="M-336.996 198.679C-336.997 198.422 -336.999 198.166 -337 197.909C-329.893 196.244 -322.797 194.499 -315.702 192.753C-310.653 191.511 -305.604 190.269 -300.551 189.056C-269.165 181.521 -237.642 175.103 -205.074 176.759C-142.5 179.926 -78.9637 189.185 -16.0181 198.357C11.6194 202.384 39.143 206.395 66.4212 209.866C90.8566 212.974 109.074 225.625 126.931 238.476C127.541 238.915 128.15 239.354 128.759 239.793C146.007 252.221 163.099 264.536 185.398 268.511C206.279 272.233 226.754 268.119 247.051 260.543C246.987 260.834 246.922 261.125 246.857 261.416C226.631 268.912 206.162 272.974 185.267 269.249C162.796 265.244 145.578 252.837 128.362 240.431C127.739 239.982 127.116 239.533 126.493 239.085C108.628 226.228 90.5514 213.691 66.3266 210.61C39.0189 207.135 11.4789 203.122 -16.1671 199.093L-16.1685 199.093C-79.097 189.923 -142.575 180.673 -205.112 177.508C-237.565 175.858 -268.997 182.252 -300.376 189.785C-305.419 190.996 -310.461 192.237 -315.506 193.478L-315.509 193.478C-322.662 195.238 -329.821 196.999 -336.996 198.679Z" fill="black"/>
<path d="M-336.615 211.84C-336.628 211.588 -336.64 211.335 -336.652 211.083C-329.472 209.694 -322.297 208.245 -315.123 206.795C-308.027 205.362 -300.929 203.928 -293.827 202.553C-260.791 196.156 -227.638 191.03 -193.816 193.099C-110.005 198.229 -23.6536 207.746 59.5157 219.149C83.8174 222.478 103.106 233.959 122.026 245.819C123.114 246.501 124.201 247.185 125.288 247.868C143.109 259.072 160.833 270.216 182.424 274.914C203.514 279.496 224.296 276.276 244.926 269.5C244.853 269.787 244.78 270.074 244.706 270.361C224.144 277.062 203.369 280.232 182.265 275.647C160.541 270.92 142.712 259.71 124.914 248.519C123.819 247.83 122.723 247.142 121.627 246.455C102.706 234.594 83.5392 223.197 59.4139 219.892C-23.7428 208.491 -110.075 198.976 -193.862 193.848C-227.584 191.785 -260.66 196.895 -293.684 203.289C-300.772 204.661 -307.859 206.093 -314.949 207.525L-314.952 207.526C-322.167 208.984 -329.387 210.442 -336.615 211.84Z" fill="black"/>
<path d="M-335.587 225.668C-335.612 225.419 -335.636 225.17 -335.66 224.92C-328.232 223.857 -320.804 222.748 -313.375 221.639L-313.371 221.638C-305.396 220.448 -297.419 219.257 -289.437 218.122C-255.92 213.352 -222.333 209.555 -188.526 210.838C-109.008 213.848 -26.2338 217.705 52.7292 227.52C77.805 230.635 98.9913 241.578 119.883 252.875C121.031 253.496 122.177 254.118 123.324 254.739C143.063 265.44 162.713 276.092 185.383 280.486C204.938 284.27 224.052 282.043 242.96 276.846C242.88 277.127 242.801 277.408 242.721 277.689C223.878 282.821 204.787 285.005 185.24 281.223C162.453 276.806 142.709 266.102 122.992 255.412L122.986 255.409C121.833 254.784 120.68 254.159 119.526 253.535C98.6296 242.235 77.5563 231.359 52.6367 228.264C-26.2912 218.454 -109.037 214.597 -188.555 211.588C-222.291 210.307 -255.824 214.096 -289.331 218.864C-297.303 219.998 -305.274 221.188 -313.245 222.378L-313.247 222.379C-320.693 223.49 -328.139 224.601 -335.587 225.668Z" fill="black"/>
<path d="M-333.756 240.515C-333.793 240.266 -333.83 240.018 -333.866 239.77C-326.072 239.288 -318.273 238.8 -310.471 238.312L-310.467 238.312C-192.08 230.908 -72.868 223.452 45.3456 235.445C71.5462 238.101 94.826 248.263 117.871 258.808C119.233 259.432 120.595 260.057 121.956 260.681C143.637 270.629 165.249 280.546 189.104 284.575C206.901 287.581 224.212 286.23 241.29 282.551C241.207 282.824 241.123 283.098 241.039 283.372C224.025 286.999 206.748 288.316 188.979 285.314C165.023 281.268 143.326 271.312 121.665 261.373L121.612 261.348C120.261 260.729 118.91 260.109 117.559 259.49C94.5085 248.943 71.3323 238.833 45.2699 236.191C-72.8765 224.205 -192.014 231.656 -310.399 239.059L-310.408 239.06C-318.194 239.547 -325.977 240.034 -333.756 240.515Z" fill="black"/>
<path d="M-331.37 254.271C-331.42 254.022 -331.469 253.773 -331.517 253.523C-319.08 253.354 -306.643 253.218 -294.206 253.082H-294.205C-254.233 252.646 -214.269 252.209 -174.313 250.661C-152.179 249.803 -129.684 248.243 -107.059 246.675C-58.7045 243.322 -9.75931 239.928 37.5138 243.265C65.0286 245.208 90.6112 253.942 115.991 263.363C118.874 264.433 121.754 265.511 124.633 266.59C147.123 275.015 169.607 283.437 193.346 287.649C208.987 290.419 224.394 289.978 239.679 287.685C239.593 287.951 239.507 288.217 239.42 288.482C224.194 290.736 208.824 291.151 193.215 288.387C169.404 284.163 146.852 275.715 124.37 267.293C121.49 266.214 118.611 265.135 115.73 264.066C90.352 254.646 64.8584 245.948 37.461 244.013C-9.75983 240.68 -58.613 244.068 -106.939 247.419L-106.942 247.419C-129.579 248.989 -152.1 250.551 -174.284 251.41C-214.242 252.959 -254.233 253.396 -294.22 253.832L-294.226 253.832C-306.608 253.968 -318.99 254.103 -331.37 254.271Z" fill="black"/>
<path d="M-328.167 268.57C-328.23 268.316 -328.294 268.062 -328.357 267.808C-317.46 268.441 -306.556 269.183 -295.652 269.925L-295.647 269.925C-287.408 270.486 -279.169 271.046 -270.933 271.56C-235.899 273.745 -200.9 275.084 -166.109 271.982C-142.537 269.876 -118.636 266.242 -94.6191 262.591C-85.903 261.265 -77.1717 259.938 -68.4353 258.68C-35.6367 253.959 -2.78101 250.225 29.5312 251.317C58.4701 252.294 86.422 259.746 114.206 268.065C118.581 269.375 122.951 270.706 127.32 272.037C150.715 279.163 174.083 286.281 197.959 290.063C211.624 292.227 225.126 292.323 238.538 291.137C238.45 291.395 238.363 291.654 238.275 291.913C224.921 293.073 211.465 292.961 197.842 290.804C173.909 287.013 150.483 279.877 127.09 272.751C122.723 271.421 118.358 270.091 113.991 268.783C86.2118 260.466 58.3402 253.04 29.5059 252.067C-2.73712 250.976 -35.5387 254.702 -68.3284 259.423C-77.0514 260.678 -85.7744 262.005 -94.4858 263.329L-94.4869 263.329C-118.511 266.982 -142.446 270.621 -166.042 272.729C-200.893 275.837 -235.938 274.494 -270.98 272.309C-279.228 271.794 -287.474 271.233 -295.718 270.672C-306.541 269.936 -317.358 269.2 -328.167 268.57Z" fill="black"/>
<path d="M-324.233 282.757C-324.313 282.495 -324.393 282.232 -324.472 281.97C-313.255 283.427 -301.995 285.096 -290.721 286.767C-281.799 288.09 -272.869 289.414 -263.944 290.635C-228.165 295.53 -192.45 298.776 -157.61 293.708C-134.164 290.291 -110.659 284.362 -87.0692 278.413L-87.0676 278.412C-80.8386 276.841 -74.6037 275.268 -68.3624 273.74C-38.4971 266.428 -8.49878 260.134 21.6108 259.922C51.9865 259.71 82.3091 265.802 112.506 272.94C118.731 274.411 124.952 275.927 131.166 277.442C155.104 283.276 178.955 289.089 202.719 292.266C214.425 293.836 226.043 294.23 237.609 293.845C237.521 294.098 237.432 294.351 237.343 294.604C225.838 294.974 214.274 294.572 202.619 293.01C178.812 289.827 154.912 284.001 130.969 278.166L130.967 278.165C124.758 276.652 118.547 275.138 112.333 273.669C82.1441 266.533 51.8959 260.46 21.616 260.672C-8.40015 260.884 -38.3263 267.158 -68.184 274.469C-74.4113 275.994 -80.6361 277.564 -86.8581 279.133L-86.8648 279.135C-110.46 285.086 -134.014 291.027 -157.502 294.45C-192.452 299.534 -228.254 296.274 -264.045 291.378C-272.99 290.154 -281.933 288.828 -290.862 287.505C-302.015 285.851 -313.147 284.201 -324.233 282.757Z" fill="black"/>
<path d="M-319.576 296.775C-319.675 296.501 -319.773 296.227 -319.871 295.953C-308.551 298.18 -297.117 300.715 -285.635 303.26L-285.633 303.26C-275.079 305.6 -264.484 307.949 -253.901 310.076C-216.116 317.669 -178.455 322.443 -143.125 313.997C-123.333 309.266 -103.372 301.517 -83.2425 293.702C-77.3864 291.429 -71.5158 289.15 -65.6314 286.938C-39.5408 277.132 -13.1894 268.656 13.3165 267.933C43.8444 267.095 75.4865 271.748 107.059 277.519C115.7 279.098 124.334 280.761 132.94 282.418L132.947 282.419C155.794 286.82 178.436 291.18 200.446 293.834C212.629 295.303 224.749 295.946 236.833 296.042C236.744 296.292 236.654 296.541 236.565 296.79C224.543 296.686 212.483 296.041 200.356 294.579C178.319 291.921 155.639 287.554 132.783 283.152L132.78 283.151L132.778 283.151C124.177 281.494 115.55 279.833 106.924 278.256C75.3606 272.487 43.7827 267.847 13.3371 268.683C-13.0346 269.402 -39.2853 277.837 -65.3676 287.64C-71.2332 289.845 -77.0911 292.119 -82.9396 294.39C-103.077 302.207 -123.105 309.982 -142.951 314.726C-178.45 323.213 -216.248 318.408 -254.049 310.811C-264.667 308.677 -275.282 306.324 -285.849 303.981L-285.85 303.981C-297.168 301.472 -308.43 298.976 -319.576 296.775Z" fill="black"/>
<path d="M-314.231 310.511C-314.352 310.223 -314.472 309.935 -314.591 309.647C-302.956 312.579 -291.178 315.91 -279.339 319.257L-279.338 319.258C-268.778 322.244 -258.17 325.243 -247.574 327.986C-209.197 337.918 -170.946 344.491 -135.442 335.002C-115.054 329.553 -95.7158 319.198 -76.2964 308.8C-72.8029 306.93 -69.3067 305.058 -65.8014 303.213C-42.8341 291.124 -19.4857 280.2 5.99069 278.552C37.8296 276.483 71.5889 279.693 105.339 284.117C116.207 285.542 127.071 287.092 137.871 288.634L137.872 288.634C160.626 291.881 183.093 295.087 204.694 296.991C215.051 297.902 225.407 298.541 235.763 298.987C235.672 299.234 235.58 299.48 235.489 299.726C225.2 299.28 214.914 298.643 204.628 297.738C183.007 295.832 160.505 292.621 137.74 289.373C126.944 287.832 116.09 286.283 105.242 284.861C71.5013 280.437 37.8019 277.236 6.03934 279.3C-19.2638 280.937 -42.4879 291.789 -65.4521 303.876C-68.9471 305.716 -72.4364 307.585 -75.9261 309.453C-95.3423 319.85 -114.769 330.253 -135.248 335.726C-170.954 345.269 -209.37 338.648 -247.762 328.712C-258.398 325.959 -269.031 322.953 -279.605 319.963C-291.241 316.672 -302.808 313.402 -314.231 310.511Z" fill="black"/>
<path d="M-307.826 324.748C-307.974 324.441 -308.122 324.133 -308.27 323.824C-305.667 324.634 -303.052 325.467 -300.427 326.318C-291.949 329.066 -283.375 332 -274.744 334.954L-274.741 334.954C-263.803 338.697 -252.773 342.472 -241.732 345.939C-202.248 358.339 -162.943 366.704 -128.448 355.332C-109.191 348.983 -91.9946 337.176 -74.7422 325.33C-71.8386 323.337 -68.9335 321.342 -66.0167 319.372C-45.7933 305.714 -25.024 293.26 -0.443481 290.823C32.6108 287.556 68.2221 289.228 103.888 292.177C117.186 293.276 130.487 294.553 143.668 295.818L143.669 295.818L143.671 295.818C165.857 297.947 187.7 300.044 208.603 301.207C217.187 301.686 225.765 302.208 234.34 302.757C234.246 303.002 234.151 303.246 234.056 303.49C225.559 302.947 217.06 302.43 208.561 301.956C187.645 300.792 165.772 298.693 143.572 296.562L143.568 296.562C130.392 295.297 117.1 294.022 103.826 292.924C68.171 289.976 32.6147 288.309 -0.36969 291.57C-24.7459 293.986 -45.378 306.339 -65.597 319.994C-68.5038 321.957 -71.4024 323.947 -74.3024 325.939C-91.5493 337.782 -108.846 349.658 -128.213 356.044C-162.956 367.498 -202.469 359.056 -241.957 346.655C-252.993 343.189 -264.052 339.405 -275.009 335.656L-275.012 335.655C-283.645 332.701 -292.214 329.769 -300.658 327.031C-303.057 326.254 -305.447 325.491 -307.826 324.748Z" fill="black"/>
<path d="M-300.245 339.406C-300.429 339.073 -300.612 338.741 -300.794 338.408C-299.474 338.887 -298.15 339.372 -296.822 339.862C-288.18 343.056 -279.396 346.477 -270.529 349.931C-259.387 354.27 -248.115 358.661 -236.83 362.713C-196.319 377.262 -156.02 387.307 -122.444 374.581C-104.015 367.595 -88.7839 354.896 -73.5287 342.176L-73.5266 342.174C-71.0713 340.126 -68.6153 338.079 -66.1453 336.054C-48.3517 321.469 -29.8465 308.112 -5.68765 305.109C43.5414 298.986 98.5609 301.735 151.374 304.374C172.083 305.409 192.454 306.427 212.003 306.886C218.815 307.046 225.591 307.365 232.34 307.809C232.241 308.053 232.141 308.297 232.041 308.541C225.385 308.106 218.702 307.793 211.985 307.636C192.391 307.176 171.993 306.157 151.268 305.121L151.267 305.121C98.4784 302.483 43.5647 299.739 -5.59506 305.853C-29.5241 308.827 -47.8849 322.057 -65.6698 336.634C-68.1312 338.652 -70.5819 340.695 -73.0349 342.741C-88.2829 355.457 -103.622 368.248 -122.178 375.283C-156.04 388.116 -196.584 377.964 -237.084 363.419C-248.36 359.37 -259.662 354.968 -270.821 350.622L-270.824 350.621L-270.827 350.619C-279.697 347.165 -288.477 343.746 -297.082 340.566C-298.139 340.176 -299.193 339.789 -300.245 339.406Z" fill="black"/>
<path d="M-294.139 349.924C-294.337 349.598 -294.535 349.272 -294.732 348.945C-275.177 355.24 -256.13 362.768 -236.504 370.525C-231.923 372.335 -227.31 374.159 -222.652 375.981C-220.044 377.003 -217.398 378.057 -214.719 379.124C-200.793 384.671 -185.977 390.573 -170.959 394.139C-153.059 398.389 -134.919 399.308 -117.725 392.365C-99.7411 385.1 -86.0867 372.158 -72.4499 359.232C-70.3354 357.227 -68.2212 355.224 -66.0914 353.241C-50.2468 338.494 -33.5574 324.974 -9.46429 321.704C45.5317 314.219 106.276 314.35 164.349 314.475H164.352C181.46 314.511 198.337 314.548 214.767 314.389C219.709 314.341 224.604 314.434 229.458 314.646C229.351 314.892 229.243 315.138 229.135 315.383C224.389 315.18 219.604 315.092 214.774 315.139C198.322 315.298 181.431 315.262 164.312 315.225C106.248 315.1 45.5763 314.97 -9.36316 322.447C-33.2095 325.683 -49.7515 339.058 -65.5804 353.79C-67.7015 355.764 -69.8101 357.764 -71.9221 359.766C-85.5511 372.687 -99.3179 385.738 -117.445 393.061C-134.838 400.084 -153.152 399.138 -171.132 394.869C-186.209 391.289 -201.085 385.363 -215.01 379.816L-215.012 379.815C-217.687 378.75 -220.327 377.698 -222.926 376.68C-227.586 374.856 -232.199 373.033 -236.779 371.223C-256.134 363.573 -274.903 356.155 -294.139 349.924Z" fill="black"/>
<path d="M-284.651 364.533C-284.895 364.181 -285.138 363.828 -285.38 363.475C-268.635 369.459 -252.214 376.367 -235.305 383.481L-235.3 383.483C-230.353 385.564 -225.365 387.662 -220.314 389.76C-218.099 390.68 -215.84 391.629 -213.542 392.595C-199.588 398.458 -184.202 404.923 -168.533 408.953C-150.287 413.646 -131.711 415.022 -114.628 408.323C-96.6725 401.284 -84.0107 388.853 -71.4118 376.484L-71.4109 376.483C-69.5421 374.649 -67.6747 372.815 -65.7915 371.001C-51.2269 356.969 -35.7505 344.122 -11.5179 340.969C62.5074 331.366 141.849 327.444 216.64 324.117C219.525 323.99 222.384 323.925 225.219 323.917C225.099 324.168 224.979 324.418 224.859 324.668C222.153 324.681 219.425 324.745 216.673 324.866C141.88 328.194 62.5682 332.114 -11.4213 341.712C-35.4037 344.833 -50.732 357.534 -65.2712 371.541C-67.1458 373.347 -69.0077 375.175 -70.8737 377.008L-70.8765 377.011C-83.4681 389.375 -96.2457 401.922 -114.354 409.021C-131.646 415.802 -150.402 414.391 -168.72 409.679C-184.447 405.634 -199.889 399.145 -213.84 393.283C-216.136 392.318 -218.392 391.37 -220.602 390.453C-225.657 388.353 -230.648 386.254 -235.595 384.172L-235.597 384.172C-252.179 377.196 -268.273 370.426 -284.651 364.533Z" fill="black"/>
<path d="M-272.83 380.447C-273.137 380.061 -273.443 379.675 -273.749 379.287C-261.118 384.162 -248.568 389.485 -235.73 394.93C-230.596 397.108 -225.415 399.306 -220.165 401.501C-218.217 402.316 -216.233 403.154 -214.215 404.006C-200.1 409.964 -184.352 416.611 -168.288 420.813C-149.929 425.615 -131.207 427.208 -114.09 420.951C-96.0446 414.357 -83.4679 402.645 -70.9694 391.006C-69.1864 389.345 -67.405 387.686 -65.6096 386.044C-51.239 372.898 -35.9971 360.852 -11.9181 357.88C63.1961 348.618 140.941 340.585 216.589 335.562C217.535 335.499 218.478 335.443 219.418 335.395C219.28 335.652 219.142 335.91 219.004 336.167C218.218 336.21 217.43 336.257 216.639 336.31C141.009 341.332 63.2785 349.364 -11.8263 358.625C-35.6656 361.566 -50.7621 373.479 -65.1034 386.597C-66.8904 388.232 -68.6663 389.886 -70.4462 391.544L-70.4506 391.548C-82.942 403.183 -95.6346 415.006 -113.832 421.655C-131.155 427.987 -150.051 426.358 -168.478 421.539C-184.599 417.322 -200.4 410.652 -214.511 404.695C-216.528 403.843 -218.51 403.006 -220.454 402.193C-225.709 399.995 -230.892 397.797 -236.027 395.619C-248.463 390.345 -260.618 385.189 -272.83 380.447Z" fill="black"/>
<path d="M-257.806 397.889C-258.201 397.466 -258.594 397.041 -258.986 396.615C-251.5 399.575 -243.99 402.636 -236.389 405.734C-231.624 407.676 -226.824 409.632 -221.971 411.588C-219.77 412.474 -217.527 413.388 -215.248 414.316C-201.221 420.031 -185.809 426.31 -170.116 430.289C-151.876 434.914 -133.305 436.418 -116.142 430.339C-98.1448 423.975 -85.1046 412.702 -72.1218 401.48L-72.1201 401.478C-70.3321 399.933 -68.5453 398.388 -66.7467 396.857C-51.899 384.221 -36.2791 372.562 -12.7489 369.389C61.2007 359.428 137.419 350.949 211.9 344.845C212.688 344.78 213.473 344.721 214.257 344.667C214.105 344.929 213.953 345.19 213.8 345.451C213.188 345.495 212.575 345.542 211.961 345.593C137.494 351.696 61.2894 360.172 -12.6488 370.133C-35.9561 373.275 -51.4375 384.813 -66.2606 397.428C-68.054 398.955 -69.8383 400.497 -71.6258 402.043C-84.601 413.261 -97.752 424.631 -115.892 431.046C-133.253 437.195 -151.993 435.658 -170.301 431.016C-186.048 427.023 -201.514 420.722 -215.538 415.008C-217.815 414.08 -220.055 413.168 -222.251 412.284C-227.107 410.327 -231.908 408.37 -236.672 406.429C-243.782 403.531 -250.808 400.668 -257.806 397.889Z" fill="black"/>
<path d="M-226.907 426.671C-227.514 426.182 -228.119 425.69 -228.722 425.196C-190.458 439.52 -152.542 449.14 -119.737 438.305C-101.649 432.334 -87.9043 421.748 -74.19 411.184C-72.4304 409.829 -70.6708 408.473 -68.903 407.128C-53.3694 395.311 -37.1931 384.303 -14.2579 380.94C57.8436 370.386 131.094 360.233 203.582 352.348C205.733 352.115 207.871 351.925 209.996 351.778C209.834 352.04 209.671 352.302 209.508 352.564C207.57 352.705 205.622 352.881 203.663 353.094C131.188 360.977 57.9493 371.128 -14.1493 381.682C-36.8859 385.016 -52.9343 395.922 -68.4489 407.725C-70.2129 409.067 -71.9703 410.421 -73.73 411.777C-87.4358 422.335 -101.284 433.004 -119.502 439.017C-151.972 449.742 -189.331 440.572 -226.907 426.671Z" fill="black"/>
<path d="M-205.295 442.549C-205.945 442.116 -206.593 441.679 -207.24 441.24C-178.413 449.217 -150.286 452.668 -124.644 445.02C-106.315 439.559 -91.6109 429.852 -76.9035 420.143C-75.2522 419.053 -73.6003 417.962 -71.9437 416.878C-55.5447 406.145 -38.6552 396.012 -16.3607 392.449C9.37985 388.342 35.1212 384.031 60.8721 379.719L60.8735 379.718C104.737 372.373 148.629 365.022 192.591 358.666C197.259 357.99 201.888 357.549 206.485 357.316C206.316 357.576 206.147 357.835 205.978 358.094C201.583 358.332 197.158 358.762 192.698 359.408C148.742 365.764 104.868 373.111 61.0107 380.456L61.0011 380.458C35.2513 384.77 9.50766 389.081 -16.2426 393.19C-38.3695 396.726 -55.1458 406.78 -71.533 417.506C-73.183 418.585 -74.8291 419.672 -76.4765 420.76L-76.4934 420.771C-91.1908 430.475 -105.988 440.244 -124.429 445.738C-149.617 453.251 -177.144 450.125 -205.295 442.549Z" fill="black"/>
<path d="M-187.954 453.274C-188.555 452.93 -189.155 452.584 -189.754 452.236C-169.379 455.481 -149.462 455.763 -130.501 450.844C-111.492 445.908 -95.116 437.164 -78.6628 428.379L-78.6618 428.378C-77.6054 427.814 -76.5487 427.25 -75.491 426.687C-57.9695 417.354 -40.1714 408.253 -18.8972 404.002C-0.55368 400.332 17.7905 396.623 36.1387 392.913L36.144 392.912C84.0157 383.233 131.915 373.548 179.902 364.539C187.663 363.082 195.426 362.376 203.188 362.281C203.017 362.534 202.845 362.786 202.673 363.038C195.126 363.158 187.581 363.861 180.04 365.276C132.058 374.284 84.1664 383.968 36.2961 393.647L36.2895 393.648L36.254 393.655C17.9175 397.363 -0.415985 401.07 -18.75 404.738C-39.9051 408.964 -57.6165 418.015 -75.1384 427.349C-76.2012 427.915 -77.2633 428.482 -78.3255 429.049C-94.764 437.827 -111.213 446.611 -130.313 451.57C-148.797 456.365 -168.169 456.246 -187.954 453.274Z" fill="black"/>
<path d="M-175.974 459.76C-176.51 459.486 -177.045 459.21 -177.579 458.932C-163.853 459.652 -150.312 458.882 -137.057 455.991C-117.272 451.678 -99.1928 443.926 -81.0124 436.13L-79.7832 435.603C-61.1973 427.636 -42.4659 419.705 -21.7169 415.489C18.2916 407.364 57.9838 397.402 97.6597 387.445L97.6658 387.443C120.594 381.689 143.516 375.936 166.491 370.54C177.249 368.01 188.293 367.157 199.523 367.559C199.349 367.803 199.175 368.047 199 368.291C188.001 367.934 177.19 368.794 166.662 371.27C143.71 376.661 120.797 382.412 97.8714 388.165L97.8698 388.165C58.1799 398.126 18.4544 408.096 -21.5676 416.224C-42.2305 420.422 -60.8949 428.322 -79.4877 436.292L-80.7416 436.83C-98.9043 444.618 -117.041 452.395 -136.897 456.723C-149.695 459.515 -162.752 460.339 -175.974 459.76Z" fill="black"/>
<path d="M-167.652 463.856C-168.148 463.622 -168.643 463.386 -169.137 463.149C-162.522 462.981 -155.922 462.478 -149.341 461.58C-128.18 458.693 -107.852 451.776 -87.4722 444.57C-86.1181 444.091 -84.7637 443.611 -83.4088 443.13C-64.3842 436.386 -45.2639 429.608 -25.3779 425.872C5.92123 419.996 36.5043 410.561 67.0891 401.036L69.2993 400.348C99.1407 391.053 129.001 381.752 159.51 375.687C170.812 373.441 182.634 373.057 194.787 374.034C194.609 374.271 194.431 374.507 194.252 374.743C182.326 373.82 170.735 374.221 159.656 376.423C129.186 382.48 99.3593 391.77 69.5059 401.069L67.3121 401.752C36.7326 411.275 6.1091 420.724 -25.2395 426.61C-45.0659 430.334 -64.134 437.093 -83.1707 443.842C-84.5212 444.32 -85.8716 444.799 -87.2221 445.277C-107.597 452.482 -127.993 459.425 -149.24 462.324C-155.363 463.159 -161.502 463.653 -167.652 463.856Z" fill="black"/>
<path d="M-160.255 467.229C-160.733 467.019 -161.21 466.808 -161.687 466.596C-159.948 466.456 -158.21 466.296 -156.472 466.114C-135.203 463.882 -113.833 458.664 -92.4849 452.99C-88.5516 451.945 -84.6187 450.884 -80.6875 449.823L-80.6488 449.813L-80.6464 449.812C-63.2637 445.122 -45.9122 440.441 -28.6854 437.148C1.26218 431.421 30.3685 421.548 59.442 411.393C61.4963 410.676 63.5504 409.957 65.6047 409.238C92.6153 399.784 119.647 390.323 147.313 383.976C160.857 380.863 174.23 381.179 187.456 383.384C187.273 383.608 187.09 383.831 186.907 384.054C173.89 381.924 160.762 381.655 147.48 384.707C119.858 391.044 92.865 400.492 65.8466 409.948L65.8131 409.96C63.7721 410.674 61.7309 411.388 59.6893 412.101C30.6186 422.255 1.46414 432.146 -28.5445 437.884C-45.7405 441.172 -63.0581 445.844 -80.4388 450.533L-80.4411 450.534L-80.4669 450.541C-84.4057 451.603 -88.3477 452.667 -92.2923 453.715C-113.644 459.39 -135.063 464.621 -156.393 466.86C-157.681 466.995 -158.968 467.118 -160.255 467.229Z" fill="black"/>
<path d="M-152.292 470.589C-152.785 470.389 -153.278 470.188 -153.77 469.986C-124.39 467.035 -93.899 460.878 -64.2793 454.898C-53.3287 452.687 -42.4967 450.5 -31.8845 448.507C-4.44571 443.356 22.2478 432.757 48.9675 422.148L50.3921 421.583C51.1307 421.289 51.8694 420.996 52.6082 420.703C80.5311 409.629 108.519 398.814 137.38 394.525C150.553 392.568 164.293 392.563 178.385 393.97C178.177 394.201 177.969 394.432 177.761 394.662C163.915 393.315 150.425 393.345 137.491 395.267C108.727 399.541 80.8171 410.322 52.8847 421.4C51.6632 421.885 50.4417 422.37 49.2201 422.855C22.5201 433.456 -4.2345 444.079 -31.7461 449.245C-42.3342 451.232 -53.1497 453.416 -64.0901 455.625L-64.0945 455.626C-93.2525 461.513 -123.298 467.58 -152.292 470.589Z" fill="black"/>
<path d="M-141.096 474.856C-141.66 474.654 -142.223 474.451 -142.786 474.245C-106.723 471.244 -69.1957 466.006 -34.6986 459.972C-7.32928 455.192 19.2135 444.791 45.7811 434.379L47.9418 433.532C75.2174 422.848 102.542 412.314 130.767 408.068C142.164 406.354 154.024 406.022 166.198 406.75C165.959 406.987 165.719 407.224 165.478 407.46C153.588 406.786 142.009 407.136 130.879 408.81C102.75 413.041 75.5022 423.542 48.2154 434.231L46.0251 435.089L46.0239 435.089C19.4791 445.492 -7.12512 455.918 -34.5695 460.711C-68.5634 466.657 -105.505 471.831 -141.096 474.856Z" fill="black"/>
<path d="M-125.308 480.007C-126.064 479.784 -126.819 479.558 -127.572 479.329C-97.4461 478.403 -67.2806 476.102 -37.0206 471.585C-9.44247 467.464 17.4199 458.05 44.3077 448.627L44.309 448.627L45.6579 448.154C72.9838 438.579 100.348 429.087 128.463 425.276C134.677 424.436 141.01 423.949 147.44 423.771C147.128 424.031 146.815 424.29 146.501 424.549C140.426 424.747 134.441 425.225 128.563 426.02C100.537 429.818 73.243 439.283 45.9059 448.862L44.527 449.345C17.6607 458.76 -9.26001 468.195 -36.9098 472.327C-66.4532 476.737 -95.9034 479.036 -125.308 480.007Z" fill="black"/>
<path d="M-82.4665 489.243C-83.7014 489.072 -84.9339 488.893 -86.1638 488.706C-69.9671 487.797 -53.8167 486.472 -37.7286 484.617C-9.71899 481.385 17.9603 473.451 45.6838 465.503L45.9444 465.429C47.0982 465.098 48.2521 464.767 49.4062 464.437C70.3474 458.441 91.3222 452.558 112.468 448.826C111.875 449.188 111.28 449.549 110.684 449.908C90.2356 453.643 69.9268 459.342 49.6126 465.158C48.3651 465.515 47.1176 465.873 45.8699 466.23C18.1634 474.173 -9.57037 482.123 -37.6427 485.362C-52.5357 487.08 -67.4814 488.343 -82.4665 489.243Z" fill="black"/>
</svg>
