<svg width="540" height="349" viewBox="0 0 540 349" fill="none" xmlns="http://www.w3.org/2000/svg">
<path d="M624.272 -664.022C617.373 -665.176 610.479 -666.351 603.586 -667.526C597.728 -668.524 591.872 -669.522 586.012 -670.508C583.531 -670.925 581.05 -671.34 578.569 -671.752C571.214 -672.657 563.81 -673.408 556.362 -674C566.186 -672.482 575.992 -670.869 585.795 -669.22C591.648 -668.235 597.501 -667.238 603.356 -666.24L603.359 -666.239C616.463 -664.006 629.578 -661.771 642.734 -659.675C636.623 -661.234 630.468 -662.683 624.272 -664.022Z" fill="black"/>
<path d="M738.328 -624.841C737.087 -625.439 735.844 -626.032 734.598 -626.62C727.377 -627.506 720.148 -628.344 712.911 -629.126C675.399 -633.19 638.996 -640.976 602.617 -648.756L602.608 -648.758C596.722 -650.017 590.837 -651.276 584.949 -652.519C542.673 -661.44 500.209 -669.537 455.949 -670.923C452.856 -671.021 449.766 -671.098 446.677 -671.155C443.835 -670.778 441 -670.379 438.173 -669.957C444.078 -669.914 449.989 -669.804 455.907 -669.617C500.043 -668.235 542.41 -660.16 584.679 -651.24C590.564 -649.998 596.447 -648.74 602.334 -647.481C638.709 -639.701 675.186 -631.899 712.77 -627.827C721.301 -626.905 729.819 -625.905 738.328 -624.841Z" fill="black"/>
<path d="M793.188 -594.141C792.342 -594.685 791.493 -595.227 790.644 -595.766C765.769 -598.792 741.017 -601.932 716.472 -605.163C677.046 -610.351 639.266 -620.649 601.524 -630.938L601.522 -630.938C595.398 -632.608 589.275 -634.277 583.146 -635.924C539.262 -647.716 495.093 -658.367 448.227 -659.773C424.179 -660.494 400.431 -659.251 376.851 -656.922C374.438 -656.252 372.031 -655.565 369.632 -654.861C395.586 -657.667 421.707 -659.261 448.188 -658.467C494.89 -657.066 538.932 -646.452 582.806 -634.662C588.927 -633.017 595.046 -631.349 601.167 -629.68C638.906 -619.393 676.78 -609.068 716.302 -603.868C741.739 -600.519 767.399 -597.268 793.188 -594.141Z" fill="black"/>
<path d="M829.02 -568.896C828.4 -569.374 827.779 -569.85 827.156 -570.324C791.247 -572.642 755.592 -575.816 720.575 -580.575C677.389 -586.446 636.758 -600.454 596.109 -614.467L596.102 -614.47C590.949 -616.246 585.797 -618.022 580.638 -619.782C534.808 -635.419 488.56 -649.747 438.362 -651.023C395.719 -652.097 354.879 -644.586 314.441 -635.168C312.147 -634.198 309.863 -633.212 307.586 -632.21C350.343 -642.392 393.343 -650.85 438.329 -649.717C488.309 -648.446 534.391 -634.18 580.216 -618.546C585.373 -616.786 590.526 -615.009 595.682 -613.232C636.317 -599.223 677.076 -585.17 720.399 -579.28C756.075 -574.432 792.421 -571.227 829.02 -568.896Z" fill="black"/>
<path d="M856.573 -546.121C856.09 -546.549 855.606 -546.977 855.121 -547.404C811.059 -546.69 767.388 -548.159 725.216 -555.428C680.52 -563.119 638.727 -580.428 596.925 -597.741L596.919 -597.744C590.542 -600.385 584.166 -603.026 577.779 -605.633C529.55 -625.317 480.747 -643.046 427.089 -643.935C377.965 -644.749 332.666 -630.988 287.834 -615.443C281.544 -613.262 275.264 -611.046 268.984 -608.83C262.378 -606.499 255.772 -604.168 249.155 -601.878C247.425 -600.834 245.701 -599.78 243.985 -598.717C252.491 -601.624 260.968 -604.615 269.437 -607.604L269.44 -607.605C275.715 -609.819 281.986 -612.032 288.263 -614.208C333.082 -629.749 378.192 -643.438 427.068 -642.628C480.46 -641.744 529.066 -624.104 577.285 -604.423C583.663 -601.82 590.034 -599.181 596.408 -596.541L596.411 -596.54C638.202 -579.23 680.143 -561.858 724.994 -554.141C767.733 -546.773 811.986 -545.352 856.573 -546.121Z" fill="black"/>
<path d="M877.438 -526.571C877.04 -526.965 876.641 -527.359 876.242 -527.752C826.78 -522.221 777.595 -520.041 730.115 -529.986C684.092 -539.608 640.917 -560.407 597.691 -581.231C590.007 -584.933 582.32 -588.636 574.616 -592.277C523.616 -616.379 471.86 -637.75 414.817 -637.954C364.849 -638.139 320.464 -620.24 276.794 -600.041C270.378 -597.074 263.979 -594.057 257.58 -591.041C236.261 -580.992 214.943 -570.942 193.034 -562.715C191.97 -561.862 190.909 -561.005 189.852 -560.144C213.123 -568.638 235.674 -579.269 258.162 -589.87C264.556 -592.884 270.944 -595.896 277.343 -598.855C320.997 -619.047 365.155 -636.831 414.812 -636.647C471.542 -636.445 523.069 -615.192 574.058 -591.095C581.742 -587.464 589.414 -583.768 597.09 -580.069L597.094 -580.068C640.315 -559.245 683.655 -538.365 729.847 -528.707C777.865 -518.649 827.577 -520.949 877.438 -526.571Z" fill="black"/>
<path d="M894.154 -509.232C893.812 -509.603 893.469 -509.975 893.126 -510.345C840.277 -498.889 787.484 -491.555 735.122 -504.359C687.423 -516.023 642.473 -540.268 597.402 -564.578C588.712 -569.265 580.018 -573.955 571.299 -578.557C517.4 -607.006 462.568 -632.101 402.147 -632.342C351.458 -632.546 307.818 -610.353 265.215 -585.187C258.506 -581.224 251.823 -577.188 245.143 -573.154C214.399 -554.586 183.704 -536.047 150.69 -524.786C150.004 -524.099 149.319 -523.411 148.636 -522.72C182.759 -533.944 214.359 -553.032 245.859 -572.058L245.861 -572.06C252.531 -576.089 259.196 -580.115 265.88 -584.063C308.468 -609.219 351.839 -631.238 402.142 -631.035C462.216 -630.796 516.799 -605.846 570.688 -577.402C579.382 -572.813 588.059 -568.133 596.738 -563.451L596.741 -563.449C641.811 -539.138 686.934 -514.797 734.812 -503.09C787.658 -490.168 840.881 -497.655 893.949 -509.187C894.017 -509.202 894.086 -509.217 894.154 -509.232Z" fill="black"/>
<path d="M908.093 -493.45C907.789 -493.809 907.484 -494.168 907.179 -494.526C903.911 -493.453 900.644 -492.396 897.376 -491.361C845.854 -475.032 794.164 -463.925 740.128 -478.843C691.089 -492.389 644.378 -520.021 597.424 -547.796C587.659 -553.573 577.884 -559.355 568.075 -565.019C511.153 -597.883 453.126 -626.712 389.695 -626.619C338.196 -626.545 295.271 -600.083 253.737 -570.073C246.912 -565.142 240.126 -560.116 233.345 -555.094L233.342 -555.091C198.801 -529.51 164.406 -504.036 125.825 -491.757C123.435 -490.997 121.036 -490.292 118.631 -489.64C118.152 -489.064 117.674 -488.487 117.197 -487.909C120.217 -488.692 123.225 -489.559 126.222 -490.513C165.029 -502.864 199.633 -528.495 234.17 -554.077C240.94 -559.091 247.707 -564.104 254.503 -569.014C296.027 -599.017 338.652 -625.239 389.697 -625.313C452.746 -625.405 510.505 -596.749 567.421 -563.887C577.2 -558.241 586.955 -552.47 596.707 -546.701C643.662 -518.922 690.556 -491.181 739.78 -477.583C794.198 -462.56 846.196 -473.77 897.771 -490.115C901.214 -491.206 904.654 -492.32 908.093 -493.45Z" fill="black"/>
<path d="M920.107 -478.74C919.829 -479.093 919.55 -479.447 919.271 -479.8C913.236 -477.125 907.205 -474.499 901.167 -471.967C851.339 -451.067 801.033 -436.504 744.872 -453.548C694.686 -468.778 646.267 -499.574 597.456 -530.619L597.453 -530.621C586.676 -537.476 575.879 -544.343 565.04 -551.057C505.171 -588.143 444.032 -620.547 377.944 -620.047C325.62 -619.658 283.348 -589.081 242.83 -554.469C235.992 -548.627 229.206 -542.673 222.429 -536.726C209.102 -525.032 195.81 -513.368 182.223 -502.654C161.738 -486.502 140.645 -472.56 117.889 -464.02C109.954 -461.041 101.914 -458.809 93.7846 -457.231C93.4242 -456.721 93.0647 -456.209 92.7061 -455.697C101.355 -457.299 109.909 -459.628 118.348 -462.797C141.286 -471.405 162.502 -485.44 183.033 -501.629C196.646 -512.363 209.985 -524.068 223.329 -535.777L223.337 -535.784C230.105 -541.722 236.873 -547.661 243.68 -553.476C284.197 -588.088 326.147 -618.355 377.954 -618.741C443.629 -619.238 504.482 -587.033 564.351 -549.947C575.155 -543.254 585.928 -536.402 596.691 -529.556L596.694 -529.554C645.51 -498.503 694.118 -467.585 744.492 -452.298C801.106 -435.117 851.774 -449.832 901.673 -470.762C907.827 -473.343 913.968 -476.018 920.107 -478.74Z" fill="black"/>
<path d="M930.609 -464.915C930.35 -465.269 930.089 -465.623 929.829 -465.976C921.475 -461.336 913.142 -456.762 904.78 -452.409C856.683 -427.368 807.756 -409.675 749.169 -428.697C697.911 -445.345 647.887 -479.001 597.322 -513.02L597.317 -513.024C585.698 -520.841 574.05 -528.678 562.352 -536.331C499.814 -577.25 435.859 -612.925 367.45 -611.999C314.23 -611.275 272.588 -576.946 233.041 -538.185C226.271 -531.55 219.565 -524.787 212.871 -518.037L212.868 -518.033C199.98 -505.037 187.139 -492.088 173.979 -480.186C153.992 -462.11 133.335 -446.514 110.807 -436.947C98.8306 -431.866 86.5956 -428.766 74.1624 -427.269C73.8766 -426.798 73.5917 -426.326 73.3074 -425.853C86.199 -427.316 98.8928 -430.473 111.319 -435.745C134.042 -445.395 154.826 -461.102 174.856 -479.217C188.042 -491.142 200.93 -504.139 213.835 -517.153C220.523 -523.897 227.215 -530.645 233.956 -537.252C273.514 -576.023 314.819 -609.976 367.467 -610.693C435.438 -611.613 499.09 -576.162 561.636 -535.238C573.297 -527.609 584.92 -519.788 596.525 -511.98C647.097 -477.953 697.315 -444.165 748.765 -427.455C807.866 -408.265 857.198 -426.163 905.384 -451.25C913.809 -455.636 922.203 -460.245 930.609 -464.915Z" fill="black"/>
<path d="M939.979 -451.712C939.733 -452.071 939.486 -452.43 939.238 -452.788C938.91 -452.573 938.582 -452.357 938.254 -452.142L938.251 -452.14C928.168 -445.522 918.154 -438.949 908.077 -432.754C861.608 -404.186 813.964 -383.767 752.982 -404.475C703.582 -421.236 655.518 -451.432 609.948 -480.061C598.184 -487.452 586.586 -494.738 575.175 -501.662C564.085 -508.396 552.137 -516.188 539.56 -524.389C518.643 -538.03 495.986 -552.804 472.65 -565.735C435.259 -586.455 395.921 -602.569 358.766 -601.883C304.47 -600.881 263.481 -563.347 224.889 -521.079C218.286 -513.848 211.756 -506.48 205.24 -499.129L205.238 -499.126C192.678 -484.956 180.17 -470.843 167.298 -457.881C147.758 -438.203 127.446 -421.246 104.989 -410.874C89.8585 -403.887 74.3358 -400.42 58.5381 -399.606C58.3035 -399.159 58.0696 -398.711 57.8363 -398.263C74.0447 -399.01 89.9901 -402.508 105.538 -409.688C128.202 -420.156 148.644 -437.24 168.226 -456.961C181.122 -469.948 193.675 -484.11 206.252 -498.299C212.763 -505.645 219.28 -512.998 225.854 -520.198C264.465 -562.486 305.111 -599.586 358.79 -600.577C395.586 -601.256 434.671 -585.287 472.016 -564.593C495.329 -551.674 517.886 -536.963 538.763 -523.348C551.352 -515.137 563.331 -507.326 574.496 -500.545C585.866 -493.647 597.435 -486.378 609.181 -478.998C654.763 -450.36 703 -420.054 752.561 -403.238C814.107 -382.338 862.191 -403.01 908.762 -431.641C918.857 -437.847 928.889 -444.432 938.971 -451.05C939.307 -451.27 939.643 -451.491 939.979 -451.712Z" fill="black"/>
<path d="M948.466 -438.943C948.23 -439.31 947.994 -439.677 947.757 -440.043C946.641 -439.224 945.527 -438.404 944.414 -437.584C942.381 -436.085 940.353 -434.586 938.329 -433.089C929.093 -426.26 919.927 -419.483 910.692 -413.064C865.673 -381.772 819.194 -359.111 756.015 -380.993C705.472 -398.503 656.117 -430.424 609.565 -460.533L609.561 -460.535C597.306 -468.461 585.245 -476.262 573.408 -483.641C562.085 -490.705 549.846 -498.928 536.919 -507.613L536.917 -507.614C532.801 -510.38 528.614 -513.193 524.365 -516.03C506.782 -527.771 488.142 -539.921 469.006 -550.857C430.752 -572.716 390.422 -589.777 352.484 -588.961C296.897 -587.772 256.618 -547.788 218.974 -502.861C212.648 -495.312 206.399 -487.624 200.162 -479.953L200.16 -479.951C187.808 -464.756 175.505 -449.623 162.762 -435.746C143.594 -414.871 123.496 -396.915 100.879 -385.985C83.0073 -377.352 64.6891 -373.927 46.0833 -374.187C45.8861 -373.754 45.6895 -373.322 45.4936 -372.889C64.4678 -372.548 83.181 -375.984 101.448 -384.809C124.284 -395.845 144.515 -413.942 163.725 -434.862C176.494 -448.768 188.841 -463.955 201.21 -479.169C207.441 -486.833 213.678 -494.505 219.976 -502.022C257.642 -546.976 297.577 -586.48 352.512 -587.655C390.078 -588.463 430.146 -571.558 468.357 -549.723C487.452 -538.811 506.061 -526.681 523.639 -514.944C527.88 -512.112 532.061 -509.303 536.174 -506.539L536.177 -506.538C549.108 -497.85 561.372 -489.61 572.716 -482.532C584.509 -475.181 596.539 -467.4 608.774 -459.486L608.779 -459.483C655.344 -429.365 704.878 -397.326 755.587 -379.758C819.368 -357.668 866.308 -380.622 911.439 -411.992C920.691 -418.423 929.874 -425.213 939.111 -432.042L939.138 -432.062C941.152 -433.551 943.169 -435.042 945.19 -436.532C946.281 -437.336 947.373 -438.14 948.466 -438.943Z" fill="black"/>
<path d="M956.337 -426.315C956.11 -426.69 955.883 -427.065 955.656 -427.44C949.514 -422.679 943.449 -417.841 937.418 -413.031C929.07 -406.373 920.788 -399.767 912.459 -393.487C890.547 -376.965 868.236 -362.633 843.276 -355.226C818.335 -347.825 790.713 -347.329 758.157 -358.546C707.02 -376.173 656.785 -409.352 609.743 -440.422L609.739 -440.424C597.063 -448.796 584.62 -457.015 572.452 -464.735C560.971 -472.016 548.581 -480.486 535.502 -489.426L535.486 -489.437C531.374 -492.248 527.194 -495.105 522.952 -497.987C505.224 -510.032 486.438 -522.491 467.135 -533.701C428.548 -556.11 387.802 -573.588 349.197 -572.753C291.973 -571.491 252.478 -529.997 215.79 -483.463C209.864 -475.948 204.013 -468.302 198.171 -460.668L198.168 -460.664C185.894 -444.626 173.661 -428.641 160.862 -414.023C141.978 -392.457 121.929 -373.948 98.8466 -362.762C78.3363 -352.82 57.4493 -349.799 36.3425 -351.386C36.1736 -350.962 36.0052 -350.539 35.8373 -350.114C57.272 -348.442 78.5286 -351.461 99.417 -361.587C122.731 -372.885 142.917 -391.545 161.846 -413.163C174.672 -427.812 186.951 -443.856 199.239 -459.913C205.076 -467.54 210.916 -475.17 216.817 -482.655C253.526 -529.215 292.676 -570.199 349.225 -571.447C387.453 -572.274 427.936 -554.955 466.478 -532.571C485.74 -521.385 504.494 -508.948 522.218 -496.906C526.445 -494.034 530.615 -491.184 534.719 -488.378L534.749 -488.358L534.75 -488.357C547.833 -479.414 560.249 -470.926 571.752 -463.632C583.871 -455.942 596.283 -447.744 608.937 -439.386L608.939 -439.385C655.997 -408.303 706.42 -374.998 757.73 -357.311C790.538 -346.007 818.44 -346.494 843.648 -353.974C868.836 -361.448 891.298 -375.895 913.246 -392.444C921.638 -398.771 929.943 -405.396 938.298 -412.06C944.269 -416.823 950.266 -421.607 956.337 -426.315Z" fill="black"/>
<path d="M964.446 -412.386C964.231 -412.769 964.015 -413.152 963.799 -413.534C955.097 -406.991 946.575 -400.218 938.12 -393.498C929.697 -386.804 921.342 -380.163 912.94 -373.855C891.01 -357.389 868.69 -343.123 843.771 -335.79C818.872 -328.463 791.343 -328.047 758.972 -339.347C707.763 -357.218 657.452 -389.878 610.117 -420.605C597.202 -428.989 584.508 -437.229 572.079 -444.985C560.279 -452.352 547.51 -460.973 534.018 -470.083L534.015 -470.085L533.992 -470.1C530.179 -472.675 526.308 -475.288 522.386 -477.923C504.58 -489.883 485.713 -502.28 466.344 -513.465C427.625 -535.822 386.807 -553.391 348.352 -552.89C290.937 -552.129 251.681 -510.396 215.284 -463.532C209.41 -455.969 203.612 -448.274 197.823 -440.59L197.818 -440.584C185.641 -424.423 173.503 -408.313 160.783 -393.596C142.024 -371.892 122.066 -353.3 98.9952 -342.161C75.8895 -330.999 52.4692 -328.524 28.8837 -331.492C28.736 -331.072 28.589 -330.651 28.4424 -330.231C52.3216 -327.183 76.0929 -329.646 99.5639 -340.985C122.871 -352.238 142.968 -370.985 161.773 -392.742C174.52 -407.491 186.703 -423.661 198.895 -439.842L198.907 -439.857C204.688 -447.529 210.47 -455.204 216.316 -462.731C252.735 -509.624 291.643 -550.832 348.369 -551.584C386.453 -552.08 427.012 -534.667 465.69 -512.333C485.019 -501.172 503.856 -488.796 521.656 -476.839C525.58 -474.203 529.453 -471.588 533.271 -469.01L533.274 -469.009C546.769 -459.897 559.565 -451.257 571.386 -443.877C583.768 -436.15 596.429 -427.931 609.323 -419.561L609.324 -419.56C656.675 -388.821 707.167 -356.042 758.541 -338.113C791.164 -326.726 818.974 -327.131 844.14 -334.537C869.287 -341.937 891.759 -356.317 913.726 -372.811C922.191 -379.167 930.569 -385.827 938.998 -392.526C947.386 -399.194 955.824 -405.9 964.446 -412.386Z" fill="black"/>
<path d="M972.768 -396.949C972.566 -397.339 972.364 -397.728 972.162 -398.118C963.786 -392.397 955.571 -386.454 947.432 -380.5C945.466 -379.062 943.505 -377.624 941.547 -376.188C932.243 -369.363 923.013 -362.592 913.715 -356.187C868.714 -325.185 822.319 -302.865 759.416 -324.948C708.112 -342.956 657.95 -373.421 610.046 -402.516L610.044 -402.517C596.835 -410.539 583.798 -418.457 570.955 -425.982C558.319 -433.385 544.504 -442.232 529.859 -451.611C526.829 -453.552 523.763 -455.515 520.664 -457.493C502.599 -469.027 483.44 -481.054 463.832 -491.946C424.637 -513.72 383.554 -531.017 345.734 -530.739C289.607 -530.312 250.663 -488.999 214.591 -442.515C208.572 -434.76 202.635 -426.861 196.709 -418.979C184.845 -403.196 173.029 -387.478 160.704 -373.094C142.233 -351.536 122.689 -333.065 100.283 -322.001C74.7264 -309.379 48.7128 -307.532 22.4762 -312.015C22.3474 -311.595 22.2192 -311.175 22.0914 -310.755C48.5923 -306.201 74.9467 -308.03 100.862 -320.829C123.503 -332.009 143.184 -350.638 161.697 -372.244C174.048 -386.658 185.909 -402.437 197.789 -418.24C203.709 -426.114 209.633 -433.994 215.624 -441.715C251.722 -488.232 290.313 -529.01 345.743 -529.432C383.205 -529.708 424.035 -512.559 463.197 -490.804C482.768 -479.932 501.898 -467.924 519.961 -456.392C523.052 -454.419 526.113 -452.458 529.139 -450.52L529.145 -450.517C543.791 -441.137 557.633 -432.273 570.294 -424.854C583.094 -417.355 596.103 -409.454 609.294 -401.442L609.296 -401.441C657.216 -372.336 707.536 -341.773 758.983 -323.715C822.486 -301.421 869.344 -324.032 914.457 -355.111C923.772 -361.529 933.022 -368.313 942.327 -375.139C944.284 -376.574 946.242 -378.01 948.204 -379.446C956.299 -385.367 964.457 -391.27 972.768 -396.949Z" fill="black"/>
<path d="M980.791 -380.745C980.604 -381.14 980.416 -381.535 980.228 -381.93C970.017 -375.85 960.016 -369.45 950.109 -363.051C948.59 -362.07 947.073 -361.089 945.558 -360.109C935.453 -353.572 925.427 -347.087 915.34 -340.983C868.957 -312.915 821.448 -293.016 759.999 -313.764C708.211 -331.268 657.571 -359.291 608.655 -386.36C595.321 -393.738 582.115 -401.046 569.049 -408.051C555.548 -415.287 540.679 -424.089 524.894 -433.433C522.537 -434.829 520.159 -436.236 517.763 -437.653C499.325 -448.548 479.779 -459.95 459.844 -470.283C419.996 -490.938 378.501 -507.371 341.112 -506.888C286.26 -506.201 248.324 -465.608 213.263 -419.941C207.333 -412.216 201.486 -404.348 195.652 -396.498L195.651 -396.496C184.207 -381.096 172.812 -365.762 160.93 -351.706C143.001 -330.495 124.033 -312.285 102.272 -301.286C74.4429 -287.225 45.8433 -286.244 16.8939 -292.44C16.7828 -292.019 16.6721 -291.597 16.562 -291.175C45.7445 -284.919 74.6778 -285.88 102.862 -300.12C124.855 -311.236 143.958 -329.604 161.929 -350.863C173.836 -364.949 185.276 -380.343 196.736 -395.765C202.564 -403.607 208.398 -411.457 214.3 -419.145C249.387 -464.845 286.973 -504.903 341.129 -505.582C378.173 -506.06 419.422 -489.763 459.242 -469.123C479.142 -458.809 498.661 -447.422 517.097 -436.528C519.479 -435.121 521.842 -433.722 524.186 -432.334L524.225 -432.311C540.006 -422.969 554.903 -414.15 568.431 -406.899C581.461 -399.914 594.643 -392.62 607.961 -385.25C656.89 -358.173 707.669 -330.073 759.581 -312.526C821.583 -291.591 869.525 -311.731 916.017 -339.865C926.122 -345.98 936.166 -352.477 946.269 -359.013C947.784 -359.992 949.3 -360.973 950.818 -361.954C960.69 -368.33 970.64 -374.697 980.791 -380.745Z" fill="black"/>
<path d="M988.518 -363.615C988.346 -364.016 988.173 -364.417 988 -364.817C975.191 -358.452 962.658 -351.647 950.229 -344.899C939.343 -338.988 928.536 -333.12 917.692 -327.628C869.661 -303.305 820.8 -286.285 760.65 -305.019C708.282 -321.333 656.928 -346.532 606.868 -371.095C593.319 -377.744 579.864 -384.346 566.51 -390.712C551.964 -397.64 535.872 -406.217 518.802 -415.314L518.8 -415.315L518.627 -415.407C517.058 -416.243 515.481 -417.084 513.896 -417.928C495.008 -427.986 475.02 -438.536 454.71 -448.078C414.111 -467.153 372.13 -482.249 334.972 -481.303C281.379 -479.91 244.999 -440.334 211.473 -395.888C205.825 -388.4 200.26 -380.776 194.705 -373.166C183.743 -358.149 172.823 -343.19 161.398 -329.455C144.192 -308.772 125.904 -290.951 104.742 -280.018C74.8948 -264.599 43.7667 -264.679 12.1057 -272.702C12.0114 -272.277 11.9176 -271.851 11.8244 -271.425C43.6849 -263.359 75.141 -263.255 105.342 -278.857C126.734 -289.909 145.155 -307.887 162.403 -328.62C173.853 -342.385 184.817 -357.403 195.794 -372.441L195.796 -372.443C201.344 -380.044 206.896 -387.65 212.517 -395.101C246.064 -439.576 282.103 -478.621 335.006 -479.997C371.837 -480.934 413.579 -465.959 454.154 -446.896C474.431 -437.369 494.393 -426.833 513.282 -416.775C514.927 -415.898 516.564 -415.026 518.192 -414.158C535.255 -405.065 551.373 -396.475 565.947 -389.533C579.268 -383.182 592.7 -376.591 606.234 -369.95L606.24 -369.947C656.311 -345.378 707.786 -320.119 760.261 -303.771C820.902 -284.884 870.151 -302.088 918.283 -326.463C929.199 -331.991 940.053 -337.884 950.968 -343.81C963.346 -350.53 975.803 -357.293 988.518 -363.615Z" fill="black"/>
<path d="M995.795 -345.733C995.639 -346.14 995.482 -346.546 995.324 -346.952C981.95 -341.681 968.801 -336.02 955.744 -330.399L955.742 -330.398C944.034 -325.357 932.399 -320.348 920.741 -315.68C870.833 -295.696 820.392 -281.896 761.479 -298.157C708.379 -312.793 656.112 -334.861 604.753 -356.547L604.746 -356.55C590.988 -362.359 577.296 -368.14 563.67 -373.743C548.002 -380.185 530.635 -388.303 512.253 -396.896L509.533 -398.167C490.15 -407.226 469.693 -416.739 448.98 -425.301C407.573 -442.419 365.052 -455.779 327.941 -454.092C275.444 -451.714 241.082 -413.344 209.534 -370.42C204.387 -363.418 199.316 -356.296 194.253 -349.184L194.251 -349.181C183.768 -334.458 173.318 -319.779 162.287 -306.296C145.937 -286.311 128.377 -269.037 107.695 -258.271C75.9686 -241.749 42.4013 -243.069 8.13263 -252.942C8.05475 -252.511 7.97742 -252.08 7.90063 -251.649C42.3316 -241.751 76.2194 -240.406 108.299 -257.112C129.211 -267.998 146.905 -285.429 163.299 -305.469C174.358 -318.986 184.854 -333.728 195.352 -348.474L195.357 -348.48C200.412 -355.58 205.468 -362.681 210.587 -369.647C242.15 -412.589 276.181 -450.44 328 -452.787C364.805 -454.46 407.097 -441.202 448.48 -424.094C469.162 -415.544 489.594 -406.043 508.98 -396.984L511.711 -395.707L511.713 -395.706C530.084 -387.119 547.475 -378.989 563.173 -372.535C576.775 -366.941 590.452 -361.166 604.201 -355.361C655.57 -333.671 707.94 -311.558 761.131 -296.898C820.461 -280.522 871.233 -294.449 921.227 -314.467C932.953 -319.163 944.632 -324.19 956.366 -329.242C969.392 -334.849 982.488 -340.487 995.795 -345.733Z" fill="black"/>
<path d="M1002.46 -327.382C1002.32 -327.795 1002.18 -328.207 1002.04 -328.619C988.531 -324.682 975.173 -320.448 961.88 -316.235C949.341 -312.26 936.86 -308.304 924.369 -304.634C872.414 -289.368 820.186 -279.005 762.414 -292.515C708.49 -305.114 655.194 -323.797 602.538 -342.256C588.576 -347.151 574.66 -352.029 560.788 -356.774C543.781 -362.588 524.934 -370.092 505.054 -378.008L505.01 -378.026C485.12 -385.945 464.203 -394.273 443.096 -401.713C400.9 -416.586 357.859 -427.944 320.648 -425.368C267.893 -421.726 236.641 -384 208.031 -342.525C204.211 -336.989 200.44 -331.386 196.67 -325.786C186.297 -310.379 175.94 -294.994 164.644 -281.064C149.252 -262.083 132.168 -245.875 111.047 -236.095C76.3179 -220.007 40.8239 -222.67 5.05957 -233.892C4.99744 -233.455 4.93591 -233.017 4.87488 -232.58C40.7631 -221.353 76.5422 -218.671 111.596 -234.91C132.974 -244.808 150.207 -261.186 165.66 -280.242C176.996 -294.221 187.402 -309.678 197.785 -325.102C201.548 -330.691 205.307 -336.276 209.107 -341.784C237.724 -383.268 268.66 -420.47 320.738 -424.065C357.664 -426.621 400.488 -415.346 442.662 -400.481C463.74 -393.051 484.633 -384.733 504.526 -376.812L504.59 -376.786C524.454 -368.877 543.327 -361.362 560.365 -355.538C574.215 -350.8 588.117 -345.927 602.069 -341.036C654.734 -322.573 708.116 -303.86 762.116 -291.243C820.223 -277.654 872.717 -288.095 924.737 -303.38C937.287 -307.068 949.804 -311.035 962.364 -315.016C975.652 -319.228 988.988 -323.455 1002.46 -327.382Z" fill="black"/>
<path d="M1008.54 -308.418C1008.41 -308.837 1008.28 -309.256 1008.16 -309.675C995.319 -307.088 982.522 -304.307 969.746 -301.53C958.444 -299.074 947.158 -296.621 935.873 -294.309C884.021 -283.689 832.136 -276.04 778.548 -284.623C713.472 -295.033 649.333 -313.361 585.544 -331.59C561.824 -338.368 538.152 -345.132 514.498 -351.471C500.625 -355.182 485.675 -359.828 470.102 -364.668L467.482 -365.482C450.97 -370.612 433.795 -375.91 416.515 -380.495C381.969 -389.66 346.935 -395.992 315.853 -392.396C261.883 -386.157 232.388 -349.144 204.896 -309.418C202.322 -305.698 199.766 -301.956 197.208 -298.212L197.2 -298.199C172.4 -261.89 147.534 -225.483 105.839 -209.233C72.496 -196.224 37.743 -200.619 2.50488 -212.792C2.46021 -212.347 2.41602 -211.901 2.37244 -211.455C37.6859 -199.299 72.679 -194.893 106.314 -208.016C148.409 -224.422 173.507 -261.179 198.263 -297.436C200.83 -301.195 203.393 -304.949 205.971 -308.675C233.463 -348.401 262.665 -384.932 316.004 -391.098C346.832 -394.665 381.669 -388.388 416.18 -379.232C433.43 -374.656 450.58 -369.365 467.094 -364.234L469.72 -363.418C485.287 -358.58 500.26 -353.927 514.16 -350.209C537.767 -343.883 561.411 -337.126 585.115 -330.353C648.929 -312.117 713.182 -293.756 778.341 -283.333C832.173 -274.711 884.253 -282.403 936.136 -293.03C947.456 -295.348 958.764 -297.806 970.079 -300.265C982.88 -303.047 995.691 -305.831 1008.54 -308.418Z" fill="black"/>
<path d="M1013.67 -289.98C1013.56 -290.406 1013.45 -290.833 1013.34 -291.259C1000.87 -289.946 988.423 -288.527 975.979 -287.109C964.165 -285.763 952.356 -284.418 940.553 -283.165C887.134 -277.494 833.763 -273.708 780.001 -280.233C714.11 -288.24 648.762 -302.053 583.598 -315.827C559.547 -320.911 535.521 -325.989 511.501 -330.769C496.372 -333.775 480.137 -337.71 463.304 -341.797L462.835 -341.91C446.153 -345.961 428.892 -350.151 411.571 -353.718C376.614 -360.916 341.35 -365.587 310.005 -361.419C258.021 -354.511 230.147 -319.418 204.208 -281.881C201.828 -278.436 199.464 -274.972 197.1 -271.507C173.655 -237.142 150.148 -202.688 109.936 -186.822C75.2323 -173.13 38.3931 -178.753 0.874756 -192.519C0.847168 -192.065 0.82019 -191.611 0.793823 -191.156C38.3511 -177.428 75.4203 -171.799 110.416 -185.607C151.023 -201.629 174.758 -236.428 198.163 -270.743L198.166 -270.748C200.536 -274.223 202.903 -277.693 205.283 -281.138C231.216 -318.667 258.806 -353.297 310.178 -360.124C341.297 -364.262 376.384 -359.63 411.307 -352.438C428.606 -348.876 445.848 -344.69 462.537 -340.638L462.996 -340.527C479.823 -336.442 496.085 -332.499 511.246 -329.487C535.23 -324.715 559.234 -319.641 583.272 -314.56L583.276 -314.559C648.459 -300.781 713.891 -286.95 779.843 -278.936C833.759 -272.392 887.253 -276.193 940.691 -281.866C952.517 -283.121 964.339 -284.468 976.162 -285.815L976.164 -285.815C988.663 -287.239 1001.16 -288.664 1013.67 -289.98Z" fill="black"/>
<path d="M1018.03 -271.732C1017.94 -272.166 1017.84 -272.6 1017.74 -273.034C1006.09 -272.838 994.435 -272.606 982.782 -272.374H982.78C970.295 -272.125 957.811 -271.877 945.33 -271.672C890.641 -270.777 835.998 -270.732 781.491 -275.251C714.668 -280.776 648.111 -290.037 581.617 -299.288L581.614 -299.289C557.485 -302.646 533.365 -306.001 509.243 -309.177C493.624 -311.233 477.045 -314.102 459.96 -317.104C458.652 -317.334 457.341 -317.565 456.027 -317.796C440.187 -320.584 423.948 -323.441 407.688 -325.831C372.479 -331.007 337.115 -334 305.379 -329.334C255.42 -321.999 228.878 -288.995 204.174 -253.802C201.961 -250.65 199.763 -247.481 197.565 -244.311C175.181 -212.034 152.74 -179.675 113.926 -164.375C78.1014 -150.248 39.4833 -156.988 0.0374756 -172.108C0.0274658 -171.645 0.0181885 -171.182 0.00939941 -170.719C39.4587 -155.657 78.2931 -148.919 114.406 -163.16C153.609 -178.613 176.276 -211.308 198.621 -243.538L198.635 -243.558C200.836 -246.733 203.034 -249.903 205.244 -253.052C229.936 -288.228 256.199 -320.793 305.57 -328.042C337.11 -332.679 372.319 -329.71 407.498 -324.539C423.739 -322.151 439.961 -319.297 455.806 -316.509L459.734 -315.818C476.816 -312.815 493.422 -309.942 509.072 -307.882C533.174 -304.709 557.282 -301.355 581.404 -297.998C647.91 -288.745 714.521 -279.478 781.383 -273.949C835.957 -269.424 890.654 -269.471 945.352 -270.366C957.836 -270.57 970.32 -270.819 982.803 -271.068L982.824 -271.068C994.561 -271.302 1006.3 -271.535 1018.03 -271.732Z" fill="black"/>
<path d="M1021.67 -253.603C1021.59 -254.045 1021.51 -254.486 1021.43 -254.928C1005.92 -255.9 990.423 -256.888 974.922 -257.877C910.99 -261.955 847.057 -266.033 783.055 -268.94C714.861 -272.041 646.751 -276.793 578.638 -281.546C555.112 -283.187 531.586 -284.829 508.056 -286.402C489.468 -287.651 469.871 -289.834 449.821 -292.068C435.179 -293.699 420.296 -295.357 405.389 -296.697C370.117 -299.869 334.803 -301.251 302.603 -296.217C254.615 -288.734 228.981 -257.96 205.072 -225.241C202.975 -222.372 200.892 -219.488 198.808 -216.603C177.099 -186.552 155.345 -156.439 117.846 -141.93C80.9973 -127.651 40.9454 -135.339 0 -151.529C0.00842285 -151.057 0.0175781 -150.585 0.0272217 -150.112C40.9431 -134.001 81.1919 -126.326 118.318 -140.711C156.197 -155.368 178.176 -185.801 199.848 -215.81C201.94 -218.706 204.028 -221.598 206.128 -224.471C230.019 -257.165 255.379 -287.53 302.805 -294.926C334.842 -299.934 370.027 -298.565 405.272 -295.396C420.109 -294.062 434.974 -292.406 449.615 -290.776L449.619 -290.775C469.707 -288.538 489.373 -286.348 507.969 -285.099C531.49 -283.526 555.011 -281.885 578.533 -280.243C646.651 -275.49 714.784 -270.736 782.996 -267.635C846.996 -264.728 910.894 -260.652 974.805 -256.575L974.812 -256.575L974.822 -256.574C990.437 -255.578 1006.05 -254.582 1021.67 -253.603Z" fill="black"/>
<path d="M1024.64 -235.416C1024.58 -235.864 1024.51 -236.312 1024.45 -236.76C1011.94 -238.399 999.449 -240.092 986.955 -241.785L986.942 -241.787C976.064 -243.261 965.187 -244.735 954.306 -246.174C898.09 -253.604 841.77 -260.079 784.694 -260.67C723.276 -261.285 661.857 -261.54 600.44 -261.794H600.435L600.386 -261.794C569.694 -261.922 539.002 -262.049 508.312 -262.221C487.566 -262.337 465.933 -263.407 443.968 -264.493L443.965 -264.493C431.093 -265.13 418.107 -265.772 405.118 -266.231C369.992 -267.473 334.895 -267.373 302.195 -262.176C256.052 -254.824 230.78 -226.423 207.104 -196.309C205.065 -193.716 203.038 -191.11 201.01 -188.504C179.471 -160.815 157.904 -133.09 121.548 -119.596C83.6797 -105.546 42.6503 -113.942 0.778931 -130.835C0.806641 -130.354 0.834961 -129.872 0.864014 -129.391C42.6774 -112.596 83.878 -104.226 122.003 -118.371C158.725 -132.001 180.517 -160.022 202.023 -187.675L202.049 -187.709C204.075 -190.314 206.099 -192.916 208.132 -195.502C231.784 -225.586 256.787 -253.618 302.4 -260.885C334.972 -266.063 369.967 -266.166 405.072 -264.925C418.019 -264.467 430.987 -263.826 443.852 -263.19L443.857 -263.19C465.846 -262.103 487.536 -261.031 508.304 -260.914C539.013 -260.742 569.72 -260.615 600.427 -260.488H600.44C661.855 -260.233 723.267 -259.979 784.681 -259.364C841.673 -258.773 897.926 -252.308 954.135 -244.878C965.01 -243.441 975.884 -241.967 986.762 -240.493C999.382 -238.783 1012.01 -237.072 1024.64 -235.416Z" fill="black"/>
<path d="M1026.99 -216.908C1026.94 -217.361 1026.89 -217.813 1026.84 -218.265C1014.41 -220.576 1002.01 -222.976 989.608 -225.376L989.606 -225.377C979.052 -227.419 968.501 -229.461 957.943 -231.446C901.437 -242.071 844.735 -251.072 786.373 -249.816C751.403 -249.055 715.67 -248.706 679.537 -248.352L679.532 -248.352C554.38 -247.129 424.423 -245.858 304.709 -227.287C260.286 -220.382 234.721 -194.47 210.572 -167.079C208.565 -164.802 206.567 -162.515 204.57 -160.228L204.551 -160.206C182.503 -134.963 160.448 -109.712 124.888 -97.5233C85.9446 -84.1618 44.4861 -92.9781 2.38599 -110.14C2.43396 -109.65 2.48267 -109.159 2.5321 -108.669C44.5509 -91.6216 86.1469 -82.8499 125.312 -96.2874C161.219 -108.596 183.497 -134.109 205.514 -159.321C207.526 -161.625 209.535 -163.926 211.553 -166.215C235.675 -193.576 260.975 -219.167 304.91 -225.996C424.521 -244.551 554.347 -245.821 679.484 -247.045C715.634 -247.398 751.393 -247.748 786.401 -248.509C844.619 -249.763 901.209 -240.785 957.701 -230.162C968.236 -228.181 978.768 -226.143 989.307 -224.103L989.334 -224.098C1001.87 -221.672 1014.42 -219.244 1026.99 -216.908Z" fill="black"/>
<path d="M1028.69 -197.984C1028.65 -198.439 1028.62 -198.893 1028.59 -199.348C1016.17 -202.213 1003.78 -205.211 991.384 -208.208C983.357 -210.149 975.331 -212.09 967.3 -213.995C912.93 -226.891 858.325 -238.115 801.623 -236.377C639.761 -231.429 468.708 -213.667 308.306 -192.068C264.928 -186.221 237.567 -161.125 211.128 -135.308C209.829 -134.04 208.533 -132.771 207.238 -131.502C182.119 -106.9 157.181 -82.4752 119.337 -73.6916C81.355 -64.8637 43.1306 -73.5211 4.87183 -89.175C4.94153 -88.6752 5.01196 -88.1757 5.08301 -87.6764C43.2434 -72.1492 81.5292 -63.5628 119.633 -72.4189C157.844 -81.2877 183.026 -105.955 208.094 -130.511C209.41 -131.8 210.725 -133.088 212.041 -134.373C238.48 -160.189 265.568 -184.989 308.48 -190.773C468.859 -212.369 639.863 -230.125 801.663 -235.071C858.179 -236.803 912.637 -225.617 966.998 -212.724C975.018 -210.822 983.037 -208.882 991.06 -206.942C1003.58 -203.912 1016.12 -200.88 1028.69 -197.984Z" fill="black"/>
<path d="M1029.74 -177.623C1029.72 -178.075 1029.71 -178.528 1029.69 -178.981C1016.16 -182.353 1002.67 -185.932 989.185 -189.51C982.322 -191.332 975.46 -193.153 968.593 -194.946C914.496 -209.073 860.138 -221.466 802.902 -218.544C722.284 -214.444 641.378 -203.198 560.592 -190.709C543.128 -188.009 525.671 -185.252 508.223 -182.495L508.219 -182.495C444.947 -172.5 381.803 -162.525 318.958 -155.408C276.294 -150.567 246.706 -128.468 217.876 -105.832C216.628 -104.853 215.382 -103.873 214.137 -102.893C186.568 -81.2011 159.221 -59.6836 121.176 -52.6166C82.6156 -45.4601 45.1531 -53.9633 8.11017 -68.9149C8.20166 -68.4077 8.29395 -67.9008 8.3869 -67.394C45.3155 -52.5804 82.797 -44.1649 121.414 -51.332C159.784 -58.4594 187.364 -80.1618 214.884 -101.817C216.15 -102.814 217.416 -103.81 218.683 -104.805C247.515 -127.442 276.845 -149.315 319.105 -154.11C381.982 -161.231 445.164 -171.211 508.44 -181.207C525.885 -183.963 543.337 -186.72 560.792 -189.418C641.57 -201.905 722.421 -213.143 802.969 -217.239C859.986 -220.15 914.173 -207.807 968.263 -193.682C975.121 -191.891 981.978 -190.071 988.838 -188.25L988.84 -188.25C1002.44 -184.64 1016.06 -181.025 1029.74 -177.623Z" fill="black"/>
<path d="M1029.99 -157.174C1030 -157.621 1030 -158.067 1030 -158.514C1017.61 -161.416 1005.25 -164.456 992.879 -167.496C984.078 -169.66 975.278 -171.824 966.47 -173.937C911.766 -187.064 856.824 -198.243 800.058 -195.359C690.995 -189.842 580.254 -173.713 470.542 -157.735C422.371 -150.719 374.399 -143.732 326.854 -137.685C284.264 -132.272 252.512 -110.233 221.388 -87.8459C220.325 -87.0812 219.263 -86.3162 218.201 -85.5514C188.139 -63.9016 158.348 -42.4475 119.481 -35.5234C83.0875 -29.0396 47.3998 -36.2064 12.0233 -49.4035C12.1353 -48.8964 12.2479 -48.3895 12.3615 -47.8829C47.6147 -34.8246 83.2914 -27.7488 119.711 -34.2372C158.877 -41.2146 188.886 -62.8281 218.893 -84.4393C219.979 -85.2216 221.065 -86.0038 222.152 -86.7854C253.289 -109.182 284.796 -131.022 327.019 -136.389C374.615 -142.443 422.616 -149.434 470.802 -156.452L470.804 -156.452C580.486 -172.426 691.125 -188.54 800.124 -194.054C856.688 -196.928 911.473 -185.79 966.165 -172.667C974.955 -170.557 983.744 -168.397 992.537 -166.235L992.542 -166.233C1005.01 -163.168 1017.49 -160.1 1029.99 -157.174Z" fill="black"/>
<path d="M1029.33 -134.247C1029.35 -134.686 1029.37 -135.126 1029.39 -135.565C1016.88 -137.985 1004.37 -140.51 991.869 -143.035C979.5 -145.532 967.131 -148.03 954.751 -150.426C897.171 -161.568 839.386 -170.498 780.436 -166.893C634.358 -157.957 483.85 -141.378 338.89 -121.514C296.533 -115.715 262.913 -95.7137 229.938 -75.0537C228.04 -73.865 226.145 -72.6741 224.251 -71.4837C193.19 -51.9659 162.298 -32.554 124.666 -24.3692C87.9062 -16.3869 51.684 -21.9971 15.7268 -33.8011C15.8539 -33.3007 15.9818 -32.8004 16.1104 -32.3004C51.9496 -20.6278 88.16 -15.105 124.943 -23.0925C162.807 -31.3277 193.882 -50.8558 224.903 -70.3504C226.813 -71.5502 228.722 -72.7499 230.632 -73.9467C263.611 -94.6091 297.018 -114.463 339.067 -120.22C484.006 -140.081 634.479 -156.656 780.516 -165.589C839.292 -169.184 896.942 -160.282 954.502 -149.143C966.857 -146.752 979.208 -144.258 991.566 -141.763L991.571 -141.762C1004.15 -139.222 1016.73 -136.681 1029.33 -134.247Z" fill="black"/>
<path d="M1027.54 -110.158C1027.58 -110.592 1027.62 -111.026 1027.66 -111.46C1014.72 -113.313 1001.77 -115.244 988.823 -117.176L988.815 -117.177C974.915 -119.251 961.011 -121.325 947.1 -123.304C888.682 -131.612 830.141 -138.228 771.217 -135.992C632.62 -130.749 488.348 -124.029 350.718 -106.931C307.012 -101.506 270.085 -82.4421 233.672 -62.7616C231.672 -61.6804 229.673 -60.5975 227.675 -59.5148C193.27 -40.873 159.022 -22.3168 119.509 -14.6619C85.4245 -8.06982 52.1102 -11.9506 19.1548 -21.0035C19.2929 -20.5137 19.4316 -20.0242 19.5711 -19.5349C52.4124 -10.5949 85.6887 -6.79022 119.757 -13.3792C159.474 -21.0735 193.887 -39.7202 228.253 -58.3416L228.263 -58.3474C230.273 -59.4365 232.283 -60.5256 234.294 -61.6124C270.716 -81.2976 307.446 -100.243 350.88 -105.635C488.448 -122.725 632.671 -129.444 771.266 -134.686C830.068 -136.917 888.513 -130.316 946.916 -122.01C960.809 -120.034 974.702 -117.962 988.597 -115.889L988.6 -115.888C1001.58 -113.952 1014.56 -112.016 1027.54 -110.158Z" fill="black"/>
<path d="M1024.35 -84.2943C1024.41 -84.7266 1024.47 -85.1591 1024.54 -85.5917C1010.95 -86.4312 997.36 -87.2808 983.762 -88.1309L983.754 -88.1313C777.41 -101.029 569.629 -114.017 363.588 -93.1256C317.921 -88.4984 277.345 -70.7958 237.179 -52.4257C234.804 -51.3397 232.431 -50.2515 230.059 -49.1635C192.269 -31.8332 154.6 -14.5582 113.023 -7.53973C82.0038 -2.30219 51.8304 -4.65625 22.0646 -11.0657C22.2095 -10.5888 22.3551 -10.1121 22.5014 -9.6358C52.1565 -3.31653 82.2698 -1.02216 113.24 -6.25153C154.995 -13.2997 192.811 -30.6432 230.566 -47.9583L230.659 -48.001C233.013 -49.0809 235.368 -50.1606 237.723 -51.2376C277.899 -69.612 318.294 -87.223 363.72 -91.8258C569.644 -112.706 777.295 -99.7265 983.636 -86.8292L983.651 -86.8282C997.222 -85.98 1010.79 -85.1321 1024.35 -84.2943Z" fill="black"/>
<path d="M1020.19 -60.3295C1020.27 -60.7638 1020.36 -61.1982 1020.44 -61.6329C998.766 -61.9279 977.089 -62.1646 955.413 -62.4011H955.409C885.741 -63.1616 816.085 -63.922 746.443 -66.6197C707.864 -68.1132 668.656 -70.8303 629.223 -73.563C544.943 -79.4037 459.633 -85.3158 377.238 -79.5036C329.281 -76.1182 284.692 -60.9035 240.455 -44.4921C235.431 -42.6282 230.412 -40.7489 225.393 -38.8698C186.194 -24.1938 147.005 -9.52136 105.629 -2.18512C78.3679 2.64032 51.5139 1.87347 24.8724 -2.12097C25.0225 -1.6579 25.1732 -1.19513 25.3245 -0.732666C51.863 3.19348 78.6508 3.91718 105.858 -0.898682C147.36 -8.25726 186.666 -22.9744 225.852 -37.6461C230.872 -39.5258 235.89 -41.4047 240.91 -43.2672C285.143 -59.6775 329.578 -74.8293 377.33 -78.2003C459.634 -84.006 544.783 -78.1044 629.014 -72.2664L629.018 -72.2661C668.473 -69.5316 707.727 -66.8109 746.393 -65.3141C816.037 -62.6163 885.741 -61.8552 955.436 -61.0942L955.447 -61.094C977.029 -60.8583 998.61 -60.6227 1020.19 -60.3295Z" fill="black"/>
<path d="M1014.6 -35.4209C1014.71 -35.8633 1014.83 -36.306 1014.93 -36.7488C995.943 -35.6457 976.938 -34.3531 957.933 -33.0606L957.923 -33.06C943.564 -32.0834 929.204 -31.1068 914.848 -30.2119C853.785 -26.4049 792.784 -24.0726 732.144 -29.4767C691.059 -33.1458 649.401 -39.4761 607.54 -45.8372C592.348 -48.1458 577.13 -50.4583 561.903 -52.6491C504.736 -60.8741 447.47 -67.3792 391.151 -65.4758C340.712 -63.7744 291.993 -50.7928 243.566 -36.3005C235.942 -34.0188 228.325 -31.6999 220.71 -29.3814C179.934 -16.967 139.204 -4.56659 97.5889 2.02124C73.771 5.79071 50.2378 5.95789 26.8618 3.89124C27.0141 4.3421 27.167 4.79266 27.3205 5.24292C50.5947 7.26367 74.0482 7.0697 97.7934 3.31171C139.507 -3.29169 180.337 -15.723 221.111 -28.1376C228.721 -30.4547 236.33 -32.7711 243.941 -35.0488C292.36 -49.5386 340.939 -62.4747 391.196 -64.17C447.394 -66.0693 504.566 -59.5787 561.717 -51.3558C576.92 -49.1684 592.124 -46.858 607.308 -44.5508L607.31 -44.5504C649.183 -38.1876 690.9 -31.8483 732.028 -28.1754C792.771 -22.7621 853.854 -25.1001 914.93 -28.9078C929.305 -29.8041 943.679 -30.7816 958.048 -31.7588C976.911 -33.0416 995.765 -34.3239 1014.6 -35.4209Z" fill="black"/>
<path d="M1007.75 -10.7062C1007.89 -11.163 1008.03 -11.6202 1008.16 -12.0776C988.613 -9.53955 968.988 -6.63177 949.338 -3.7204C933.788 -1.41638 918.222 0.889832 902.666 3.01697C840.305 11.5439 778.055 17.1995 717.331 8.37115C676.466 2.4176 635.498 -7.90985 594.381 -18.2747L594.378 -18.2753C583.521 -21.0121 572.654 -23.7516 561.776 -26.4139C509.722 -39.1528 457.436 -50.116 404.956 -50.4858C352.013 -50.8556 299.162 -40.2431 246.531 -27.8088C235.679 -25.2451 224.838 -22.6042 214.007 -19.9659C172.283 -9.80219 130.712 0.324219 89.2932 5.85944C68.8899 8.59296 48.6404 9.28015 28.481 8.60864C28.6348 9.04968 28.7891 9.49048 28.9441 9.93097C48.9976 10.5762 69.1531 9.87604 89.4666 7.15442C130.961 1.60913 172.619 -8.53864 214.35 -18.7043L214.353 -18.7051C225.175 -21.3413 236.001 -23.9787 246.831 -26.5374C299.449 -38.9685 352.171 -49.548 404.947 -49.1793C457.264 -48.8107 509.424 -37.8805 561.465 -25.1448C572.319 -22.4886 583.168 -19.7536 594.013 -17.0198L594.025 -17.0168C635.15 -6.64948 676.204 3.69971 717.142 9.66394C778.058 18.5201 840.46 12.8414 902.843 4.3114C918.434 2.17963 934.021 -0.129761 949.584 -2.43561C969.023 -5.3158 988.425 -8.19037 1007.75 -10.7062Z" fill="black"/>
<path d="M999.631 13.7134C999.803 13.2362 999.974 12.7587 1000.15 12.2809C980.415 16.1609 960.485 20.5767 940.473 25.0107L940.47 25.0112C922.074 29.0872 903.608 33.1788 885.163 36.8837C819.305 50.112 753.663 58.4286 692.085 43.7144C657.588 35.4732 622.796 21.9736 587.711 8.3609C577.504 4.40063 567.272 0.430603 557.016 -3.42218C511.541 -20.5049 465.612 -35.2715 419.413 -36.53C366.204 -37.9903 311.053 -29.8846 256.025 -19.8318C240.963 -17.0804 225.913 -14.1836 210.914 -11.2966L210.903 -11.2944C171.081 -3.62933 131.616 3.96692 93.2541 8.59045C72.0194 11.149 50.8956 12.2695 29.833 12.4371C29.9885 12.8716 30.1445 13.3058 30.301 13.7398C51.2533 13.5593 72.2748 12.4343 93.4106 9.88757C131.821 5.2583 171.352 -2.35065 211.189 -10.0185L211.193 -10.0193L211.196 -10.0201C226.189 -12.9058 241.224 -15.7998 256.26 -18.5466C311.273 -28.5966 366.312 -36.6803 419.377 -35.224C465.342 -33.9719 511.096 -19.2764 556.556 -2.19916C566.78 1.6413 576.99 5.60297 587.183 9.55823C622.283 23.1771 657.189 36.7213 691.781 44.985C753.653 59.7697 819.534 51.3986 885.42 38.1646C903.926 34.4474 922.429 30.3478 940.846 26.2673L940.848 26.2668C960.574 21.8961 980.203 17.5471 999.631 13.7134Z" fill="black"/>
<path d="M990.315 37.6418C990.525 37.1405 990.734 36.6388 990.942 36.1367C970.663 41.2455 950.133 47.0474 929.5 52.8787L929.498 52.8792C911.092 58.0812 892.602 63.3066 874.134 68.0842C807.245 85.387 740.575 96.8359 678.693 80.3059C643.158 70.8141 609.452 52.7759 575.605 34.6624C569.516 31.4037 563.422 28.1426 557.312 24.9285C517.281 3.8689 476.586 -15.1613 432.182 -18.0323C376.688 -21.6363 317.847 -16.0448 259.022 -8.33667C240.08 -5.85468 221.143 -3.15375 202.319 -0.468933L202.317 -0.468628C162.658 5.18787 123.5 10.7729 85.8501 14.0891C67.7981 15.6765 49.7487 16.7907 31.6989 17.5674C31.8575 17.9965 32.0167 18.4252 32.1765 18.8538C50.1084 18.0771 68.0378 16.967 85.9648 15.3906C123.65 12.0712 162.869 6.47766 202.549 0.818359C221.364 -1.86523 240.283 -4.56354 259.191 -7.0412C317.999 -14.7471 376.736 -20.3239 432.097 -16.7285C476.199 -13.877 516.678 5.02795 556.703 26.0846C562.795 29.2893 568.877 32.5443 574.959 35.7996C608.801 53.9117 642.661 72.0338 678.355 81.5681C740.589 98.1921 807.547 86.6584 874.461 69.349C893 64.5533 911.532 59.3159 929.963 54.1071C950.245 48.375 970.404 42.6776 990.315 37.6418Z" fill="black"/>
<path d="M979.151 62.444C979.41 61.9081 979.667 61.3716 979.924 60.8347C975.387 62.2451 970.83 63.696 966.254 65.1785C951.478 69.9664 936.533 75.0775 921.49 80.2224L921.486 80.2237C902.421 86.744 883.197 93.3187 863.953 99.3593C795.133 120.961 726.626 135.532 666.502 115.722C632.938 104.661 602.966 84.0931 572.896 63.4582C567.835 59.9854 562.771 56.5107 557.688 53.0791C522.439 29.2863 486.239 7.59052 443.396 3.34558C385.784 -2.34607 323.715 0.565674 261.551 5.70288C238.373 7.61823 215.189 9.84222 192.216 12.046L192.214 12.0461L192.21 12.0465C153.542 15.7559 115.471 19.4079 79.0375 21.4341C64.0761 22.269 49.1241 23.1774 34.1784 24.1342C34.3427 24.5604 34.5074 24.9863 34.6729 25.412C49.4841 24.4646 64.2963 23.5653 79.1101 22.7386C115.565 20.7112 153.69 17.0541 192.383 13.3426L192.39 13.342C215.356 11.139 238.522 8.91693 261.658 7.00494C323.804 1.86926 385.777 -1.03387 443.267 4.64575C485.754 8.85547 521.715 30.3743 556.956 54.1618C562.022 57.5817 567.075 61.049 572.129 64.5179C602.19 85.1486 632.337 105.838 666.092 116.963C726.649 136.915 795.519 122.209 864.344 100.606C883.579 94.5681 902.855 87.9763 921.952 81.4454L921.958 81.4432C937.005 76.2976 951.94 71.19 966.657 66.4214C970.839 65.0665 975.004 63.7386 979.151 62.444Z" fill="black"/>
<path d="M965.937 87.9778C966.258 87.3992 966.577 86.8198 966.895 86.2397C964.594 87.0739 962.286 87.9189 959.972 88.7736C944.909 94.3365 929.598 100.297 914.143 106.313C894.724 113.873 875.077 121.521 855.408 128.581C784.798 153.925 714.56 171.424 656.038 149.255C623.917 137.086 597.37 114.962 570.781 92.803L570.777 92.8C566.497 89.2335 562.217 85.6661 557.912 82.1392C526.898 56.7323 494.644 33.4623 452.536 28.2318C366.732 17.5649 270.836 22.3544 178.785 26.9518C142.689 28.7546 107.184 30.5279 73.1113 31.3281C61.2384 31.6058 49.4274 32.1617 37.6644 32.9346C37.8375 33.3599 38.0111 33.785 38.1852 34.2098C49.7874 33.4529 61.435 32.9081 73.142 32.6343C107.293 31.8323 142.846 30.0566 178.969 28.2524L178.971 28.2523C270.979 23.6569 366.692 18.8765 452.375 29.5283C494.082 34.7091 526.084 57.755 557.083 83.1497C561.373 86.6642 565.644 90.2245 569.92 93.7881C596.497 115.94 623.232 138.223 655.575 150.477C714.594 172.834 785.26 155.148 855.85 129.811C875.504 122.756 895.203 115.088 914.654 107.517L914.658 107.515L914.664 107.513C930.123 101.495 945.426 95.5384 960.425 89.9991C962.267 89.319 964.104 88.645 965.937 87.9778Z" fill="black"/>
<path d="M955.295 106.302C955.64 105.734 955.985 105.165 956.329 104.595C922.245 115.562 889.046 128.676 854.84 142.189C846.855 145.343 838.816 148.519 830.697 151.694C826.151 153.474 821.539 155.31 816.87 157.169C792.597 166.832 766.773 177.113 740.597 183.326C709.398 190.73 677.782 192.331 647.814 180.236C616.468 167.58 592.669 145.033 568.9 122.516C565.215 119.024 561.53 115.533 557.818 112.08C530.201 86.3897 501.112 62.8368 459.119 57.1404C363.263 44.1021 257.389 44.3295 156.169 44.5471H156.165C126.345 44.6111 96.9299 44.6744 68.2938 44.3972C59.6788 44.314 51.1481 44.4765 42.6874 44.8464C42.8743 45.2744 43.0618 45.7022 43.2499 46.1297C51.5228 45.7763 59.862 45.6224 68.2812 45.7037C96.9556 45.9811 126.397 45.918 156.234 45.854C257.438 45.6369 363.186 45.4101 458.943 58.4351C500.506 64.0731 529.338 87.3714 556.927 113.036C560.624 116.475 564.299 119.958 567.98 123.446C591.735 145.955 615.73 168.691 647.324 181.447C677.64 193.682 709.56 192.034 740.899 184.597C767.177 178.36 793.106 168.037 817.377 158.374L817.38 158.373C822.042 156.516 826.643 154.685 831.173 152.911C839.295 149.734 847.336 146.558 855.319 143.405C889.054 130.079 921.768 117.156 955.295 106.302Z" fill="black"/>
<path d="M938.758 131.751C939.182 131.137 939.606 130.523 940.028 129.908C910.842 140.332 882.221 152.366 852.749 164.758L852.741 164.762C844.119 168.387 835.424 172.043 826.621 175.698C822.76 177.299 818.823 178.953 814.817 180.635C790.497 190.849 763.679 202.111 736.37 209.131C704.568 217.307 672.19 219.704 642.414 208.034C611.119 195.773 589.05 174.118 567.091 152.57L567.089 152.568C563.832 149.372 560.577 146.179 557.295 143.018C531.909 118.574 504.935 96.1932 462.698 90.7007C333.675 73.9721 195.385 67.141 65.0287 61.3447C59.9995 61.1228 55.0164 61.0098 50.0753 60.9958C50.2842 61.4324 50.4937 61.8687 50.7039 62.3046C55.4202 62.326 60.1747 62.4384 64.9711 62.65C195.332 68.4465 333.569 75.2758 462.53 91.9964C504.33 97.4321 531.047 119.558 556.388 143.959C559.655 147.105 562.901 150.29 566.153 153.482L566.158 153.487C588.104 175.027 610.375 196.885 641.937 209.251C672.077 221.063 704.768 218.604 736.695 210.397C764.106 203.35 791.021 192.046 815.337 181.834C819.339 180.153 823.271 178.502 827.123 176.904C835.933 173.246 844.632 169.589 853.255 165.963L853.259 165.962C882.161 153.81 910.211 142.016 938.758 131.751Z" fill="black"/>
<path d="M918.154 159.474C918.69 158.802 919.224 158.128 919.756 157.453C897.741 165.945 875.866 175.218 853.491 184.704C844.542 188.498 835.512 192.326 826.361 196.151C822.967 197.57 819.508 199.029 815.99 200.513C791.389 210.893 763.941 222.473 735.942 229.793C703.943 238.158 671.311 240.932 641.477 230.032C610.025 218.546 588.104 198.143 566.32 177.867C563.212 174.974 560.107 172.084 556.978 169.223C531.931 146.324 505.365 125.337 463.396 120.161C332.475 104.026 196.969 90.0324 65.1173 81.2814C63.4684 81.1716 61.8252 81.0747 60.1874 80.9902C60.4271 81.4395 60.6674 81.8883 60.9084 82.3367C62.2786 82.4106 63.6525 82.4933 65.0305 82.585C196.851 91.334 332.331 105.325 463.236 121.458C504.787 126.583 531.099 147.334 556.096 170.187C559.21 173.035 562.306 175.917 565.408 178.805L565.416 178.812C587.188 199.081 609.31 219.676 641.028 231.26C671.22 242.29 704.155 239.453 736.273 231.057C764.371 223.711 791.912 212.091 816.507 201.714C820.022 200.231 823.477 198.773 826.866 197.356C836.024 193.528 845.058 189.698 854.009 185.904C875.684 176.716 896.87 167.735 918.154 159.474Z" fill="black"/>
<path d="M891.969 189.859C892.656 189.121 893.342 188.38 894.026 187.638C880.978 192.796 867.888 198.128 854.639 203.525C846.335 206.907 837.968 210.315 829.509 213.722C825.673 215.266 821.764 216.858 817.792 218.475C793.343 228.43 766.481 239.368 739.129 246.3C707.337 254.356 674.968 256.976 645.054 246.386C613.685 235.3 590.957 215.664 568.328 196.113L568.325 196.11C565.209 193.418 562.095 190.727 558.96 188.061C533.081 166.047 505.856 145.738 464.844 140.21C335.953 122.857 203.108 108.088 73.2909 97.4536C71.9177 97.3409 70.5482 97.2377 69.1824 97.1437C69.4469 97.5994 69.7121 98.0546 69.9781 98.5094C71.0446 98.5858 72.1132 98.6679 73.1841 98.7557C202.976 109.388 335.798 124.154 464.669 141.505C505.293 146.98 532.277 167.079 558.113 189.056C561.238 191.715 564.348 194.402 567.464 197.094C590.079 216.637 613.001 236.444 644.618 247.618C674.878 258.331 707.54 255.653 739.45 247.566C766.898 240.61 793.853 229.634 818.297 219.681C822.266 218.064 826.169 216.475 829.998 214.934C838.461 211.525 846.83 208.117 855.132 204.735C867.524 199.687 879.77 194.699 891.969 189.859Z" fill="black"/>
<path d="M838.113 239.998C839.17 239.145 840.225 238.288 841.275 237.427C774.583 262.38 708.497 279.139 651.32 260.263C619.792 249.863 595.837 231.421 571.933 213.018C568.866 210.657 565.799 208.296 562.718 205.953C535.644 185.367 507.449 166.191 467.474 160.333C341.804 141.946 214.133 124.26 87.7882 110.525C84.039 110.118 80.313 109.788 76.6089 109.53C76.8919 109.987 77.1755 110.444 77.4599 110.901C80.8371 111.146 84.2325 111.453 87.6471 111.824C213.967 125.556 341.62 143.24 467.285 161.625C506.914 167.433 534.885 186.432 561.927 206.993C565.001 209.331 568.064 211.689 571.132 214.051C595.02 232.444 619.157 251.029 650.91 261.504C707.505 280.188 772.618 264.214 838.113 239.998Z" fill="black"/>
<path d="M800.443 267.658C801.576 266.902 802.706 266.142 803.833 265.378C753.59 279.274 704.565 285.285 659.872 271.962C627.925 262.449 602.297 245.539 576.663 228.625C573.785 226.726 570.905 224.826 568.018 222.938C539.435 204.24 509.998 186.589 471.139 180.382C426.274 173.227 381.408 165.717 336.526 158.205L336.523 158.204C260.07 145.408 183.57 132.603 106.946 121.53C98.8096 120.352 90.74 119.584 82.7287 119.179C83.0224 119.631 83.317 120.082 83.6121 120.533C91.2725 120.949 98.9854 121.698 106.758 122.823C183.371 133.895 259.843 146.695 336.284 159.489L336.301 159.492C381.182 167.004 426.052 174.514 470.933 181.672C509.5 187.832 538.74 205.347 567.302 224.031C570.178 225.912 573.047 227.805 575.918 229.7L575.948 229.72C601.565 246.624 627.355 263.642 659.498 273.214C703.399 286.301 751.378 280.856 800.443 267.658Z" fill="black"/>
<path d="M770.218 286.341C771.266 285.742 772.312 285.139 773.356 284.533C737.844 290.185 703.128 290.676 670.081 282.108C636.948 273.509 608.406 258.277 579.729 242.973L579.727 242.972C577.886 241.989 576.044 241.006 574.201 240.025C543.662 223.766 512.64 207.912 475.56 200.507C443.588 194.114 411.615 187.653 379.635 181.19L379.626 181.188C296.187 164.327 212.701 147.455 129.062 131.761C115.535 129.223 102.004 127.993 88.4747 127.828C88.7735 128.268 89.0729 128.708 89.3732 129.147C102.527 129.355 115.678 130.579 128.821 133.045C212.451 148.738 295.925 165.607 379.361 182.468L379.372 182.47L379.434 182.483C411.394 188.941 443.348 195.399 475.304 201.789C512.176 209.152 543.046 224.919 573.586 241.178C575.439 242.164 577.29 243.152 579.141 244.14C607.793 259.432 636.463 274.733 669.753 283.373C701.97 291.726 735.735 291.518 770.218 286.341Z" fill="black"/>
<path d="M749.338 297.64C750.272 297.163 751.205 296.682 752.136 296.198C728.213 297.452 704.61 296.11 681.507 291.073C647.024 283.56 615.512 270.056 583.824 256.476L581.682 255.557C549.288 241.678 516.639 227.862 480.475 220.518C410.742 206.363 341.56 189.01 272.406 171.664L272.396 171.661C232.434 161.637 192.481 151.616 152.437 142.215C133.686 137.808 114.436 136.323 94.8633 137.021C95.1661 137.447 95.4696 137.873 95.7736 138.297C114.946 137.676 133.788 139.174 152.137 143.487C192.142 152.878 232.079 162.896 272.037 172.919L272.04 172.919C341.218 190.271 410.458 207.639 480.215 221.798C516.229 229.112 548.76 242.874 581.167 256.758L583.352 257.695C615.009 271.262 646.621 284.81 681.229 292.35C703.535 297.212 726.294 298.649 749.338 297.64Z" fill="black"/>
<path d="M734.834 304.775C735.698 304.367 736.56 303.957 737.421 303.544C725.892 303.25 714.389 302.374 702.918 300.811C666.035 295.782 630.605 283.731 595.083 271.177C592.723 270.343 590.363 269.507 588.001 268.67C554.842 256.921 521.516 245.114 486.856 238.606C432.303 228.369 378.998 211.933 325.69 195.341L321.837 194.142C269.825 177.949 217.78 161.746 164.604 151.182C144.905 147.269 124.3 146.6 103.117 148.301C103.427 148.714 103.739 149.126 104.05 149.538C124.836 147.928 145.038 148.628 164.35 152.463C217.457 163.014 269.444 179.199 321.477 195.398L325.301 196.588C378.6 213.178 431.975 229.637 486.615 239.89C521.171 246.378 554.406 258.153 587.586 269.909C589.94 270.743 592.294 271.577 594.648 272.409C630.161 284.96 665.709 297.056 702.741 302.106C713.414 303.56 724.114 304.422 734.834 304.775Z" fill="black"/>
<path d="M721.941 310.651C722.774 310.285 723.606 309.918 724.436 309.548C721.406 309.305 718.376 309.026 715.347 308.709C678.277 304.82 641.029 295.731 603.82 285.847C596.965 284.025 590.11 282.177 583.258 280.329L583.191 280.311L583.186 280.31C552.889 272.14 522.646 263.985 492.621 258.248C440.423 248.272 389.692 231.073 339.018 213.383C335.438 212.133 331.857 210.881 328.277 209.628C281.199 193.16 234.083 176.678 185.864 165.621C162.256 160.199 138.948 160.749 115.896 164.59C116.214 164.979 116.533 165.368 116.852 165.756C139.54 162.047 162.422 161.578 185.571 166.895C233.715 177.935 280.763 194.392 327.855 210.865L327.914 210.885C331.471 212.13 335.029 213.374 338.587 214.617C389.256 232.305 440.071 249.534 492.375 259.531C522.347 265.258 552.531 273.397 582.825 281.566L582.829 281.567L582.874 281.579C589.739 283.43 596.609 285.283 603.485 287.109C640.699 296.995 678.032 306.108 715.21 310.009C717.454 310.243 719.698 310.457 721.941 310.651Z" fill="black"/>
<path d="M708.061 316.504C708.921 316.156 709.78 315.806 710.638 315.454C659.43 310.313 606.285 299.588 554.659 289.169C535.573 285.318 516.693 281.508 498.196 278.037C450.372 269.063 403.846 250.6 357.275 232.118L354.792 231.133C353.504 230.622 352.217 230.112 350.929 229.601C302.261 210.309 253.48 191.469 203.175 183.999C180.215 180.589 156.267 180.58 131.706 183.032C132.068 183.434 132.43 183.836 132.793 184.237C156.925 181.89 180.439 181.943 202.983 185.291C253.116 192.736 301.762 211.517 350.447 230.816C352.576 231.66 354.705 232.504 356.835 233.349C403.372 251.817 450.004 270.323 497.955 279.321C516.41 282.784 535.261 286.588 554.33 290.436L554.337 290.438C605.158 300.694 657.526 311.263 708.061 316.504Z" fill="black"/>
<path d="M688.548 323.937C689.531 323.586 690.512 323.231 691.492 322.874C628.637 317.645 563.228 308.521 503.101 298.009C455.398 289.683 409.135 271.562 362.829 253.425L359.063 251.95C311.522 233.337 263.896 214.987 214.701 207.59C194.837 204.604 174.166 204.026 152.946 205.295C153.364 205.708 153.782 206.12 154.201 206.531C174.927 205.357 195.108 205.966 214.507 208.882C263.533 216.253 311.026 234.546 358.586 253.166L362.403 254.661L362.405 254.662C408.672 272.784 455.042 290.947 502.876 299.296C562.126 309.654 626.514 318.668 688.548 323.937Z" fill="black"/>
<path d="M661.03 332.911C662.348 332.522 663.663 332.128 664.976 331.729C612.468 330.116 559.89 326.108 507.149 318.239C459.081 311.06 412.261 294.661 365.397 278.246L365.394 278.245L363.043 277.422C315.415 260.742 267.721 244.206 218.718 237.568C207.886 236.104 196.849 235.255 185.641 234.945C186.185 235.398 186.731 235.85 187.278 236.301C197.866 236.646 208.298 237.478 218.543 238.863C267.392 245.48 314.964 261.968 362.611 278.655L365.014 279.496C411.841 295.898 458.763 312.333 506.955 319.531C558.448 327.214 609.779 331.219 661.03 332.911Z" fill="black"/>
<path d="M586.359 349C588.511 348.702 590.659 348.39 592.803 348.065C564.573 346.482 536.423 344.174 508.383 340.941C459.563 335.312 411.319 321.49 362.998 307.645L362.544 307.515C360.533 306.939 358.522 306.363 356.51 305.787C320.011 295.342 283.452 285.094 246.597 278.592C247.63 279.223 248.667 279.852 249.705 280.477C285.346 286.984 320.744 296.911 356.15 307.043C358.325 307.665 360.499 308.288 362.674 308.911C410.965 322.748 459.304 336.597 508.233 342.239C534.191 345.232 560.24 347.433 586.359 349Z" fill="black"/>
</svg>
