<svg width="200" height="366" viewBox="0 0 200 366" fill="none" xmlns="http://www.w3.org/2000/svg">
<path d="M-158.219 -216.272C-154.26 -216.935 -150.305 -217.609 -146.35 -218.284C-142.99 -218.857 -139.629 -219.43 -136.267 -219.995C-134.844 -220.235 -133.421 -220.473 -131.997 -220.71C-127.777 -221.229 -123.53 -221.66 -119.256 -222C-124.893 -221.128 -130.519 -220.202 -136.143 -219.256C-139.501 -218.691 -142.859 -218.118 -146.218 -217.545L-146.22 -217.545C-153.738 -216.263 -161.263 -214.98 -168.811 -213.777C-165.305 -214.672 -161.774 -215.504 -158.219 -216.272Z" fill="black"/>
<path d="M-223.657 -193.781C-222.945 -194.124 -222.232 -194.464 -221.517 -194.802C-217.374 -195.31 -213.226 -195.791 -209.074 -196.241C-187.552 -198.573 -166.666 -203.043 -145.795 -207.509L-145.789 -207.51C-142.413 -208.233 -139.036 -208.955 -135.657 -209.669C-111.402 -214.79 -87.0389 -219.438 -61.6453 -220.234C-59.871 -220.29 -58.0978 -220.334 -56.3257 -220.367C-54.6952 -220.151 -53.0688 -219.921 -51.4468 -219.679C-54.8347 -219.655 -58.2262 -219.591 -61.6216 -219.484C-86.9438 -218.69 -111.251 -214.055 -135.503 -208.935C-138.879 -208.222 -142.255 -207.5 -145.632 -206.777C-166.502 -202.311 -187.43 -197.832 -208.993 -195.495C-213.888 -194.966 -218.775 -194.392 -223.657 -193.781Z" fill="black"/>
<path d="M-255.132 -176.158C-254.647 -176.47 -254.16 -176.781 -253.672 -177.091C-239.401 -178.827 -225.199 -180.63 -211.117 -182.485C-188.497 -185.463 -166.822 -191.374 -145.167 -197.281L-145.166 -197.281C-141.652 -198.239 -138.139 -199.197 -134.623 -200.143C-109.445 -206.912 -84.1039 -213.026 -57.2154 -213.833C-43.4176 -214.247 -29.7926 -213.533 -16.2643 -212.196C-14.8794 -211.812 -13.4986 -211.418 -12.122 -211.013C-27.0128 -212.624 -41.9999 -213.539 -57.1929 -213.083C-83.9873 -212.279 -109.256 -206.186 -134.428 -199.418C-137.94 -198.474 -141.451 -197.517 -144.963 -196.559C-166.615 -190.653 -188.344 -184.726 -211.019 -181.741C-225.614 -179.819 -240.336 -177.953 -255.132 -176.158Z" fill="black"/>
<path d="M-275.69 -161.666C-275.334 -161.94 -274.978 -162.214 -274.621 -162.486C-254.018 -163.817 -233.562 -165.638 -213.471 -168.37C-188.694 -171.741 -165.382 -179.781 -142.06 -187.826L-142.056 -187.827C-139.1 -188.847 -136.144 -189.866 -133.184 -190.877C-106.89 -199.853 -80.3557 -208.078 -51.555 -208.81C-27.0896 -209.427 -3.65781 -205.115 19.543 -199.709C20.8588 -199.152 22.1697 -198.586 23.4756 -198.011C-1.05518 -203.856 -25.7261 -208.711 -51.536 -208.061C-80.2118 -207.331 -106.651 -199.142 -132.942 -190.167C-135.901 -189.157 -138.858 -188.137 -141.815 -187.117C-165.129 -179.075 -188.514 -171.008 -213.37 -167.627C-233.839 -164.844 -254.692 -163.004 -275.69 -161.666Z" fill="black"/>
<path d="M-291.498 -148.592C-291.221 -148.838 -290.943 -149.084 -290.665 -149.329C-265.385 -148.919 -240.33 -149.762 -216.134 -153.935C-190.49 -158.35 -166.512 -168.286 -142.529 -178.224L-142.525 -178.226C-138.867 -179.742 -135.208 -181.258 -131.544 -182.754C-103.873 -194.054 -75.873 -204.231 -45.0877 -204.741C-16.9033 -205.209 9.0863 -197.309 34.8082 -188.386C38.4169 -187.134 42.0201 -185.862 45.6232 -184.59C49.4133 -183.252 53.2035 -181.914 57.0001 -180.599C57.9926 -180 58.9813 -179.395 59.9661 -178.785C55.0859 -180.453 50.2226 -182.17 45.3634 -183.886L45.3615 -183.887C41.7612 -185.158 38.1633 -186.428 34.5623 -187.677C8.84775 -196.598 -17.0335 -204.456 -45.0753 -203.991C-75.7085 -203.484 -103.595 -193.358 -131.261 -182.06C-134.92 -180.566 -138.575 -179.051 -142.232 -177.535L-142.234 -177.535C-166.211 -167.598 -190.274 -157.626 -216.006 -153.196C-240.528 -148.967 -265.917 -148.151 -291.498 -148.592Z" fill="black"/>
<path d="M-303.469 -137.37C-303.241 -137.596 -303.012 -137.822 -302.783 -138.048C-274.405 -134.873 -246.186 -133.621 -218.945 -139.33C-192.54 -144.854 -167.769 -156.793 -142.968 -168.747C-138.559 -170.872 -134.149 -172.998 -129.729 -175.087C-100.469 -188.923 -70.7745 -201.191 -38.0467 -201.308C-9.37823 -201.414 16.0873 -191.14 41.1425 -179.545C44.8232 -177.841 48.4947 -176.11 52.1662 -174.378C64.3975 -168.609 76.6286 -162.841 89.1985 -158.118C89.8091 -157.628 90.4177 -157.137 91.0244 -156.642C77.6725 -161.518 64.7345 -167.62 51.832 -173.706C48.1638 -175.436 44.4985 -177.165 40.8275 -178.864C15.7814 -190.455 -9.55374 -200.664 -38.0439 -200.558C-70.5919 -200.442 -100.155 -188.242 -129.409 -174.409C-133.817 -172.325 -138.219 -170.203 -142.624 -168.08L-142.626 -168.079C-167.423 -156.126 -192.289 -144.14 -218.791 -138.596C-246.341 -132.823 -274.863 -134.142 -303.469 -137.37Z" fill="black"/>
<path d="M-313.06 -127.416C-312.864 -127.63 -312.667 -127.843 -312.47 -128.056C-282.149 -121.479 -251.859 -117.27 -221.818 -124.619C-194.451 -131.315 -168.662 -145.232 -142.802 -159.188C-137.817 -161.878 -132.829 -164.57 -127.826 -167.212C-96.9021 -183.543 -65.4433 -197.948 -30.7773 -198.087C-1.69522 -198.204 23.3426 -185.464 47.7856 -171.018C51.6349 -168.743 55.469 -166.426 59.3018 -164.11C76.9405 -153.451 94.5515 -142.809 113.493 -136.345C113.887 -135.951 114.28 -135.556 114.671 -135.159C95.0939 -141.602 76.9634 -152.559 58.8912 -163.481L58.8896 -163.482C55.0629 -165.795 51.2388 -168.106 47.4041 -170.372C22.9697 -184.813 -1.91351 -197.453 -30.7743 -197.337C-65.2412 -197.199 -96.5573 -182.877 -127.476 -166.549C-132.464 -163.915 -137.442 -161.228 -142.421 -158.54L-142.423 -158.539C-168.281 -144.584 -194.17 -130.611 -221.639 -123.891C-251.959 -116.473 -282.495 -120.771 -312.943 -127.391C-312.982 -127.399 -313.021 -127.408 -313.06 -127.416Z" fill="black"/>
<path d="M-321.057 -118.357C-320.883 -118.563 -320.708 -118.769 -320.533 -118.975C-318.658 -118.359 -316.784 -117.752 -314.909 -117.158C-285.349 -107.785 -255.692 -101.408 -224.69 -109.972C-196.554 -117.748 -169.754 -133.61 -142.815 -149.554C-137.213 -152.87 -131.604 -156.189 -125.976 -159.44C-93.3184 -178.306 -60.0258 -194.855 -23.6331 -194.802C5.91354 -194.759 30.5417 -179.569 54.3712 -162.342C58.2867 -159.511 62.1801 -156.626 66.0704 -153.743L66.0726 -153.742C85.8899 -139.057 105.624 -124.434 127.759 -117.386C129.13 -116.949 130.506 -116.544 131.887 -116.17C132.161 -115.839 132.435 -115.508 132.709 -115.176C130.977 -115.626 129.25 -116.124 127.531 -116.671C105.266 -123.761 85.4128 -138.474 65.5971 -153.159C61.7132 -156.038 57.8307 -158.915 53.9318 -161.734C30.1078 -178.957 5.65201 -194.009 -23.6342 -194.052C-59.8079 -194.104 -92.9461 -177.655 -125.601 -158.791C-131.212 -155.55 -136.809 -152.237 -142.404 -148.925C-169.344 -132.979 -196.248 -117.054 -224.49 -109.249C-255.711 -100.625 -285.545 -107.06 -315.135 -116.443C-317.111 -117.069 -319.084 -117.709 -321.057 -118.357Z" fill="black"/>
<path d="M-327.95 -109.913C-327.791 -110.116 -327.631 -110.319 -327.471 -110.521C-324.008 -108.986 -320.548 -107.478 -317.084 -106.025C-288.496 -94.0273 -259.633 -85.668 -227.411 -95.4517C-198.618 -104.195 -170.838 -121.873 -142.833 -139.694L-142.832 -139.695C-136.648 -143.63 -130.454 -147.572 -124.235 -151.426C-89.8862 -172.714 -54.8082 -191.316 -16.8914 -191.029C13.129 -190.805 37.382 -173.253 60.6286 -153.384C64.5521 -150.031 68.4455 -146.613 72.3335 -143.199C79.9798 -136.486 87.6059 -129.791 95.4013 -123.641C107.154 -114.369 119.256 -106.366 132.312 -101.463C136.865 -99.7528 141.477 -98.4717 146.142 -97.5662C146.348 -97.273 146.555 -96.9794 146.76 -96.6855C141.798 -97.6048 136.89 -98.9421 132.049 -100.761C118.888 -105.703 106.716 -113.759 94.9367 -123.052C87.1264 -129.214 79.4732 -135.933 71.817 -142.655L71.8124 -142.659C67.9298 -146.067 64.0464 -149.477 60.1413 -152.814C36.8949 -172.683 12.8269 -190.058 -16.897 -190.279C-54.5771 -190.564 -89.4904 -172.077 -123.84 -150.788C-130.039 -146.947 -136.219 -143.013 -142.394 -139.083L-142.396 -139.082C-170.404 -121.258 -198.292 -103.51 -227.194 -94.7341C-259.675 -84.8715 -288.745 -93.3186 -317.374 -105.333C-320.905 -106.815 -324.428 -108.351 -327.95 -109.913Z" fill="black"/>
<path d="M-333.976 -101.977C-333.827 -102.18 -333.678 -102.383 -333.528 -102.586C-328.735 -99.9224 -323.954 -97.297 -319.156 -94.7977C-291.561 -80.4232 -263.491 -70.2667 -229.877 -81.1864C-200.468 -90.7428 -171.768 -110.063 -142.757 -129.591L-142.753 -129.593C-136.087 -134.081 -129.405 -138.579 -122.693 -142.973C-86.8123 -166.462 -50.1192 -186.94 -10.8702 -186.409C19.664 -185.993 43.5552 -166.287 66.2453 -144.037C70.1293 -140.228 73.9768 -136.346 77.8171 -132.471L77.8193 -132.469C85.2132 -125.009 92.5805 -117.575 100.131 -110.743C111.598 -100.367 123.45 -91.414 136.375 -85.9222C143.247 -83.0052 150.266 -81.226 157.4 -80.3664C157.564 -80.0959 157.727 -79.8251 157.89 -79.554C150.494 -80.3934 143.211 -82.2055 136.082 -85.2319C123.045 -90.7714 111.12 -99.788 99.628 -110.187C92.0627 -117.032 84.6684 -124.493 77.2643 -131.963C73.4272 -135.835 69.5876 -139.709 65.7201 -143.501C43.0245 -165.757 19.3259 -185.248 -10.8803 -185.659C-49.8774 -186.187 -86.397 -165.837 -122.282 -142.345C-128.973 -137.966 -135.641 -133.476 -142.299 -128.994C-171.314 -109.461 -200.126 -90.0653 -229.645 -80.4731C-263.554 -69.4577 -291.857 -79.7316 -319.503 -94.1325C-324.337 -96.6504 -329.153 -99.296 -333.976 -101.977Z" fill="black"/>
<path d="M-339.352 -94.3976C-339.21 -94.6038 -339.069 -94.8098 -338.927 -95.0156C-338.738 -94.8919 -338.55 -94.7682 -338.362 -94.6446L-338.36 -94.6437C-332.575 -90.8444 -326.83 -87.0712 -321.048 -83.515C-294.387 -67.1161 -267.052 -55.3945 -232.064 -67.2821C-203.722 -76.9035 -176.145 -94.2371 -150 -110.671C-143.251 -114.914 -136.597 -119.097 -130.05 -123.071C-123.687 -126.937 -116.832 -131.41 -109.616 -136.118C-97.6152 -143.948 -84.6165 -152.429 -71.2278 -159.852C-49.7748 -171.746 -27.2053 -180.996 -5.88776 -180.602C25.2634 -180.026 48.7804 -158.481 70.9224 -134.217C74.7103 -130.066 78.4569 -125.837 82.1954 -121.617L82.1968 -121.615C89.4026 -113.481 96.5792 -105.38 103.964 -97.9392C115.175 -86.6429 126.829 -76.9093 139.713 -70.9551C148.394 -66.9442 157.3 -64.9539 166.364 -64.4867C166.498 -64.23 166.633 -63.9732 166.767 -63.7161C157.467 -64.145 148.319 -66.1529 139.399 -70.2742C126.395 -76.2837 114.667 -86.0904 103.432 -97.4109C96.0327 -104.866 88.8306 -112.996 81.6151 -121.141C77.8795 -125.358 74.1403 -129.578 70.3684 -133.712C48.2161 -157.986 24.8956 -179.283 -5.90161 -179.852C-27.0133 -180.242 -49.4374 -171.075 -70.8641 -159.196C-84.2393 -151.78 -97.1811 -143.335 -109.159 -135.52C-116.382 -130.807 -123.254 -126.322 -129.66 -122.43C-136.184 -118.47 -142.822 -114.297 -149.56 -110.061C-175.713 -93.6217 -203.388 -76.2247 -231.823 -66.5719C-267.134 -54.5744 -294.722 -66.4412 -321.441 -82.8762C-327.233 -86.4387 -332.989 -90.2187 -338.773 -94.0176C-338.966 -94.1442 -339.159 -94.271 -339.352 -94.3976Z" fill="black"/>
<path d="M-344.221 -87.0681C-344.086 -87.2788 -343.95 -87.4893 -343.814 -87.6996C-343.174 -87.2292 -342.535 -86.7585 -341.896 -86.2876C-340.73 -85.4273 -339.566 -84.5667 -338.405 -83.7074C-333.106 -79.7875 -327.847 -75.8972 -322.549 -72.2126C-296.719 -54.2494 -270.053 -41.2414 -233.804 -53.8022C-204.806 -63.8536 -176.489 -82.1778 -149.781 -99.4612L-149.778 -99.4628C-142.747 -104.013 -135.827 -108.49 -129.036 -112.726C-122.539 -116.782 -115.518 -121.502 -108.101 -126.487L-108.1 -126.488C-105.738 -128.076 -103.336 -129.69 -100.899 -131.319C-90.8103 -138.059 -80.116 -145.034 -69.1366 -151.311C-47.1891 -163.859 -24.0503 -173.653 -2.28378 -173.184C29.6086 -172.502 52.7182 -149.549 74.3158 -123.759C77.945 -119.426 81.5307 -115.013 85.109 -110.609L85.1099 -110.608C92.1971 -101.886 99.2555 -93.1989 106.567 -85.2326C117.564 -73.2496 129.095 -62.9424 142.072 -56.6678C152.325 -51.712 162.835 -49.7459 173.51 -49.8952C173.623 -49.6471 173.736 -49.3988 173.848 -49.1504C162.962 -48.9544 152.225 -50.9272 141.745 -55.9926C128.643 -62.3281 117.036 -72.7163 106.014 -84.7255C98.6884 -92.7076 91.6042 -101.426 84.5079 -110.159C80.933 -114.559 77.3543 -118.963 73.7408 -123.278C52.1304 -149.083 29.2185 -171.76 -2.2999 -172.434C-23.8527 -172.898 -46.8415 -163.194 -68.7643 -150.66C-79.7202 -144.396 -90.3968 -137.433 -100.482 -130.695C-102.915 -129.07 -105.314 -127.457 -107.674 -125.871L-107.675 -125.87C-115.094 -120.883 -122.131 -116.153 -128.639 -112.09C-135.405 -107.87 -142.307 -103.403 -149.327 -98.8604L-149.33 -98.8589C-176.046 -81.5695 -204.466 -63.1779 -233.559 -53.0936C-270.152 -40.413 -297.084 -53.5895 -322.977 -71.5968C-328.285 -75.2884 -333.554 -79.1862 -338.854 -83.1064L-338.869 -83.1179C-340.025 -83.9728 -341.182 -84.8288 -342.341 -85.684C-342.967 -86.1457 -343.594 -86.6072 -344.221 -87.0681Z" fill="black"/>
<path d="M-348.737 -79.819C-348.607 -80.0345 -348.477 -80.2497 -348.346 -80.4648C-344.822 -77.7315 -341.343 -74.9546 -337.882 -72.1932C-333.093 -68.3713 -328.341 -64.5793 -323.562 -60.9743C-310.991 -51.4902 -298.19 -43.2629 -283.869 -39.0112C-269.56 -34.7628 -253.712 -34.4778 -235.033 -40.9169C-205.694 -51.0356 -176.873 -70.0815 -149.883 -87.9169L-149.881 -87.9183C-142.608 -92.7241 -135.469 -97.442 -128.488 -101.874C-121.9 -106.053 -114.792 -110.915 -107.288 -116.047L-107.279 -116.053C-104.92 -117.667 -102.521 -119.307 -100.088 -120.962C-89.9162 -127.876 -79.1383 -135.028 -68.0634 -141.463C-45.9248 -154.327 -22.547 -164.36 -0.397675 -163.88C32.4339 -163.156 55.0931 -139.336 76.1427 -112.624C79.5425 -108.31 82.8996 -103.921 86.2515 -99.5389L86.2532 -99.5367C93.2949 -90.3304 100.314 -81.1542 107.657 -72.7631C118.491 -60.383 129.994 -49.7583 143.237 -43.3371C155.005 -37.6299 166.989 -35.8954 179.098 -36.8067C179.195 -36.5636 179.292 -36.3202 179.388 -36.0767C167.09 -35.1169 154.895 -36.8499 142.91 -42.6622C129.534 -49.1478 117.952 -59.8596 107.093 -72.2692C99.7334 -80.6784 92.6886 -89.8884 85.6385 -99.1054C82.2896 -103.484 78.9392 -107.864 75.5536 -112.16C54.4919 -138.887 32.0302 -162.414 -0.41391 -163.131C-22.347 -163.605 -45.5735 -153.663 -67.6866 -140.814C-78.7377 -134.393 -89.4977 -127.254 -99.6663 -120.341C-102.092 -118.692 -104.484 -117.056 -106.839 -115.446L-106.856 -115.434L-106.857 -115.434C-114.363 -110.3 -121.487 -105.428 -128.086 -101.24C-135.039 -96.8262 -142.16 -92.1203 -149.421 -87.3222L-149.422 -87.3216C-176.42 -69.4794 -205.35 -50.3609 -234.789 -40.2079C-253.612 -33.719 -269.62 -33.9983 -284.083 -38.2922C-298.534 -42.5828 -311.422 -50.8758 -324.014 -60.3756C-328.829 -64.0076 -333.594 -67.8105 -338.387 -71.636C-341.813 -74.37 -345.254 -77.1161 -348.737 -79.819Z" fill="black"/>
<path d="M-353.389 -71.8233C-353.266 -72.0432 -353.142 -72.2628 -353.018 -72.4823C-348.025 -68.7265 -343.136 -64.8383 -338.285 -60.9807C-333.453 -57.1382 -328.659 -53.326 -323.839 -49.705C-311.256 -40.2526 -298.45 -32.0637 -284.154 -27.8542C-269.868 -23.6481 -254.073 -23.4093 -235.501 -29.8957C-206.121 -40.1546 -177.255 -58.9024 -150.097 -76.5412C-142.688 -81.3537 -135.405 -86.084 -128.274 -90.5365C-121.504 -94.7651 -114.177 -99.7142 -106.437 -104.943L-106.435 -104.945L-106.422 -104.953C-104.234 -106.431 -102.013 -107.932 -99.7627 -109.444C-89.5471 -116.31 -78.7225 -123.426 -67.6096 -129.846C-45.3949 -142.681 -21.976 -152.766 0.0866394 -152.478C33.0283 -152.041 55.5508 -128.085 76.4332 -101.183C79.8032 -96.8414 83.1297 -92.424 86.4512 -88.0133L86.4537 -88.0101C93.4402 -78.7327 100.404 -69.4851 107.702 -61.0372C118.465 -48.5778 129.916 -37.9053 143.152 -31.5112C156.409 -25.1039 169.846 -23.6828 183.378 -25.3866C183.462 -25.1454 183.547 -24.9041 183.631 -24.6627C169.931 -22.9129 156.292 -24.3273 142.826 -30.8359C129.454 -37.2955 117.923 -48.0576 107.134 -60.5469C99.8206 -69.0133 92.8307 -78.2953 85.8358 -87.5837L85.8291 -87.5925C82.5124 -91.9967 79.1947 -96.4023 75.8408 -100.723C54.9456 -127.642 32.6229 -151.296 0.0768738 -151.728C-21.7733 -152.013 -45.0435 -142.017 -67.2344 -129.197C-78.3242 -122.79 -89.1314 -115.685 -99.3444 -108.822C-101.595 -107.309 -103.818 -105.807 -106.008 -104.328L-106.01 -104.327C-113.752 -99.0963 -121.094 -94.1368 -127.876 -89.9003C-134.98 -85.4648 -142.244 -80.7468 -149.642 -75.9419L-149.643 -75.9413C-176.81 -58.2957 -205.779 -39.4796 -235.254 -29.1876C-253.971 -22.6506 -269.926 -22.8834 -284.365 -27.1348C-298.793 -31.3828 -311.686 -39.6373 -324.289 -49.1053C-329.146 -52.7539 -333.953 -56.577 -338.789 -60.423C-343.601 -64.2502 -348.442 -68.1001 -353.389 -71.8233Z" fill="black"/>
<path d="M-358.164 -62.9618C-358.048 -63.1855 -357.932 -63.4091 -357.816 -63.6325C-353.01 -60.3487 -348.297 -56.937 -343.628 -53.5194C-342.5 -52.6939 -341.375 -51.8681 -340.251 -51.0437C-334.913 -47.1259 -329.617 -43.2395 -324.283 -39.5625C-298.464 -21.7664 -271.846 -8.95346 -235.756 -21.6302C-206.321 -31.9674 -177.541 -49.4556 -150.056 -66.1572L-150.055 -66.1578C-142.477 -70.763 -134.997 -75.3083 -127.629 -79.6275C-120.379 -83.8775 -112.453 -88.956 -104.051 -94.3399C-102.312 -95.4539 -100.553 -96.581 -98.7752 -97.7166C-88.4105 -104.337 -77.4182 -111.241 -66.1683 -117.494C-43.6805 -129.993 -20.1098 -139.922 1.58917 -139.762C33.7912 -139.517 56.1347 -115.802 76.8307 -89.1185C80.2837 -84.6664 83.6902 -80.1325 87.0899 -75.6077C93.8968 -66.548 100.676 -57.5247 107.747 -49.2678C118.345 -36.893 129.558 -26.2896 142.413 -19.9383C157.076 -12.6929 172.001 -11.633 187.054 -14.2061C187.128 -13.9652 187.201 -13.7242 187.275 -13.483C172.07 -10.8689 156.95 -11.9189 142.081 -19.2659C129.091 -25.6837 117.799 -36.377 107.178 -48.78C100.092 -57.0543 93.2862 -66.1118 86.4702 -75.1836C83.0742 -79.7034 79.6753 -84.2271 76.238 -88.6589C55.5273 -115.362 33.3858 -138.77 1.58368 -139.012C-19.9096 -139.171 -43.3353 -129.326 -65.804 -116.838C-77.0324 -110.597 -88.0084 -103.704 -98.3715 -97.0845C-100.145 -95.9515 -101.901 -94.8263 -103.637 -93.7138L-103.641 -93.7117C-112.044 -88.3275 -119.985 -83.2389 -127.25 -78.9805C-134.594 -74.6754 -142.057 -70.1399 -149.625 -65.5409L-149.626 -65.5403C-177.12 -48.8327 -205.99 -31.2885 -235.507 -20.9226C-271.941 -8.12486 -298.826 -21.1044 -324.708 -38.945C-330.053 -42.629 -335.36 -46.5236 -340.699 -50.4419C-341.821 -51.2655 -342.945 -52.0902 -344.071 -52.9142C-348.715 -56.3132 -353.395 -59.7016 -358.164 -62.9618Z" fill="black"/>
<path d="M-362.767 -53.6598C-362.66 -53.8868 -362.552 -54.1136 -362.444 -54.3403C-356.585 -50.8499 -350.847 -47.1763 -345.163 -43.5028C-344.292 -42.9397 -343.422 -42.3765 -342.553 -41.814C-336.755 -38.0616 -331.002 -34.3387 -325.215 -30.8348C-298.604 -14.7229 -271.346 -3.29994 -236.091 -15.21C-206.378 -25.2584 -177.324 -41.3446 -149.259 -56.8831C-141.608 -61.1187 -134.032 -65.3136 -126.535 -69.3344C-118.789 -73.4884 -110.258 -78.5413 -101.202 -83.9051C-99.8496 -84.7062 -98.4854 -85.5142 -97.1103 -86.3272C-86.5321 -92.5814 -75.3176 -99.1269 -63.8803 -105.058C-41.0178 -116.915 -17.2105 -126.348 4.24066 -126.071C35.7112 -125.677 57.4764 -102.375 77.5923 -76.1598C80.9948 -71.7257 84.3493 -67.2092 87.6966 -62.7026L87.6972 -62.7017C94.2631 -53.8615 100.801 -45.0591 107.618 -36.9905C117.905 -24.8145 128.787 -14.3609 141.272 -8.04718C157.239 0.0242767 173.647 0.587646 190.257 -2.96951C190.32 -2.72755 190.384 -2.48547 190.447 -2.24327C173.704 1.34779 157.104 0.796555 140.934 -7.37787C128.315 -13.759 117.355 -24.3028 107.045 -36.5065C100.213 -44.5922 93.6499 -53.4291 87.0746 -62.2818C83.7308 -66.7838 80.3839 -71.2898 76.9973 -75.7032C56.8669 -101.937 35.3022 -124.932 4.23096 -125.321C-17.0226 -125.596 -40.6887 -116.241 -63.535 -104.393C-74.9522 -98.4716 -86.1511 -91.9354 -96.7286 -85.6816C-98.0949 -84.8737 -99.4509 -84.0706 -100.796 -83.274L-100.818 -83.2609C-109.872 -77.898 -118.419 -72.8357 -126.181 -68.6734C-133.657 -64.6637 -141.219 -60.4765 -148.86 -56.2457C-176.933 -40.7025 -206.067 -24.5719 -235.85 -14.4995C-271.423 -2.48213 -298.93 -14.0434 -325.604 -30.1932C-331.401 -33.7033 -337.164 -37.4328 -342.961 -41.1847C-343.83 -41.7472 -344.7 -42.3101 -345.57 -42.8729C-351.235 -46.5335 -356.943 -50.188 -362.767 -53.6598Z" fill="black"/>
<path d="M-367.2 -43.8267C-367.101 -44.0569 -367.002 -44.2869 -366.903 -44.5168C-359.554 -40.8631 -352.364 -36.9567 -345.233 -33.0827C-338.987 -29.6895 -332.786 -26.321 -326.565 -23.1687C-299.008 -9.20628 -270.974 0.564148 -236.464 -10.19C-206.418 -19.5553 -176.954 -34.0203 -148.233 -48.1206C-140.46 -51.9371 -132.74 -55.7269 -125.079 -59.3816C-116.733 -63.3586 -107.5 -68.2816 -97.7069 -73.5037L-97.7055 -73.5045L-97.6061 -73.5575C-96.7061 -74.0374 -95.8013 -74.5198 -94.8921 -75.0042C-84.0551 -80.778 -72.5873 -86.8341 -60.9347 -92.3118C-37.6413 -103.262 -13.5556 -111.927 7.76331 -111.384C38.5116 -110.584 59.3844 -87.8667 78.6194 -62.3525C81.8598 -58.0542 85.053 -53.6775 88.2398 -49.3095C94.5293 -40.6889 100.794 -32.1021 107.35 -24.2177C117.221 -12.3445 127.714 -2.11461 139.855 4.16164C156.979 13.0127 174.839 12.9666 193.004 8.36107C193.058 8.60527 193.112 8.84958 193.165 9.09401C174.886 13.7244 156.838 13.784 139.511 4.8279C127.237 -1.51654 116.668 -11.8363 106.773 -23.7382C100.203 -31.6396 93.9132 -40.2607 87.615 -48.8931L87.614 -48.8944C84.4307 -53.2575 81.2452 -57.6236 78.0205 -61.901C58.7734 -87.4312 38.0965 -109.845 7.7442 -110.635C-13.3874 -111.173 -37.3366 -102.576 -60.6157 -91.633C-72.2494 -86.1643 -83.7022 -80.1163 -94.5395 -74.3423C-95.4833 -73.8394 -96.4225 -73.3387 -97.3567 -72.8405C-107.146 -67.6205 -116.394 -62.6894 -124.756 -58.7046C-132.398 -55.059 -140.105 -51.2756 -147.87 -47.4633L-147.873 -47.4615C-176.601 -33.3576 -206.134 -18.8582 -236.241 -9.47397C-271.033 1.36798 -299.289 -8.50789 -326.904 -22.4996C-333.167 -25.6731 -339.394 -29.0558 -345.657 -32.4576C-352.758 -36.3152 -359.905 -40.1975 -367.2 -43.8267Z" fill="black"/>
<path d="M-371.376 -33.5617C-371.286 -33.7951 -371.196 -34.0283 -371.105 -34.2614C-363.432 -31.2354 -355.888 -27.986 -348.397 -24.7591L-348.395 -24.7585C-341.678 -21.8651 -335.003 -18.9898 -328.314 -16.3101C-299.68 -4.83844 -270.74 3.08318 -236.939 -6.25128C-206.474 -14.6527 -176.487 -27.3209 -147.02 -39.7691L-147.016 -39.7709C-139.123 -43.1054 -131.267 -46.4241 -123.449 -49.6407C-114.46 -53.3385 -104.496 -57.9986 -93.9491 -62.9314L-92.3888 -63.661C-81.2678 -68.8611 -69.5307 -74.3219 -57.6469 -79.2371C-33.8903 -89.063 -9.49466 -96.7326 11.7974 -95.7643C41.9172 -94.3991 61.6316 -72.3728 79.732 -47.7331C82.6849 -43.7133 85.5941 -39.6251 88.499 -35.5428L88.5004 -35.5409C94.5146 -27.0891 100.511 -18.6629 106.839 -10.9232C116.22 0.548935 126.295 10.4647 138.161 16.6453C156.363 26.1295 175.622 25.3715 195.283 19.7039C195.328 19.9513 195.372 20.1988 195.417 20.4464C175.662 26.1281 156.219 26.9002 137.814 17.3105C125.816 11.0611 115.665 1.05505 106.259 -10.4485C99.9138 -18.2079 93.8918 -26.6705 87.8685 -35.1349L87.8659 -35.1385C84.9655 -39.2144 82.0648 -43.2908 79.1276 -47.2891C61.019 -71.9399 41.4938 -93.6675 11.7634 -95.0151C-9.3526 -95.9753 -33.6171 -88.3644 -57.3602 -78.544C-69.2263 -73.6361 -80.949 -68.1823 -92.0712 -62.9816L-93.6382 -62.2488L-93.6395 -62.2482C-104.179 -57.3186 -114.158 -52.6517 -123.164 -48.9471C-130.968 -45.7361 -138.815 -42.421 -146.703 -39.0885C-176.176 -26.6376 -206.222 -13.9441 -236.74 -5.52831C-270.78 3.87216 -299.91 -4.12248 -328.593 -15.6139C-335.321 -18.3092 -342.021 -21.1951 -348.754 -24.0949C-356.227 -27.3139 -363.74 -30.55 -371.376 -33.5617Z" fill="black"/>
<path d="M-375.201 -23.0274C-375.12 -23.2643 -375.039 -23.501 -374.957 -23.7376C-367.208 -21.4777 -359.544 -19.0471 -351.917 -16.6284C-344.723 -14.347 -337.562 -12.076 -330.395 -9.9691C-300.587 -1.20583 -270.622 4.7431 -237.476 -3.01244C-206.538 -10.2448 -175.96 -20.9696 -145.749 -31.5659C-137.739 -34.3754 -129.754 -37.1759 -121.796 -39.8998C-112.038 -43.237 -101.225 -47.5449 -89.8192 -52.0888L-89.7938 -52.0988C-78.3823 -56.6451 -66.3812 -61.4257 -54.2715 -65.6964C-30.0621 -74.2343 -5.3678 -80.7539 15.9817 -79.2753C46.2495 -77.1849 64.1795 -55.5282 80.5945 -31.7203C82.7858 -28.542 84.9497 -25.3259 87.1125 -22.1115C93.0636 -13.267 99.006 -4.43544 105.487 3.56073C114.318 14.4566 124.12 23.7608 136.238 29.3748C156.163 38.6102 176.527 37.0813 197.047 30.6397C197.082 30.8906 197.117 31.1416 197.152 31.3927C176.562 37.8375 156.034 39.3772 135.922 30.0554C123.658 24.3733 113.77 14.9717 104.904 4.03297C98.4004 -3.99147 92.4299 -12.8649 86.4727 -21.7186C84.314 -24.9269 82.157 -28.1327 79.977 -31.2946C63.5581 -55.1083 45.809 -76.4636 15.9299 -78.5271C-5.25577 -79.9944 -29.8257 -73.5224 -54.0221 -64.9891C-66.1153 -60.7242 -78.1025 -55.9492 -89.5163 -51.4021L-89.5529 -51.3875C-100.95 -46.8472 -111.778 -42.5335 -121.553 -39.1902C-129.499 -36.4706 -137.475 -33.673 -145.48 -30.8653C-175.696 -20.2671 -206.323 -9.52463 -237.305 -2.28212C-270.643 5.51833 -300.761 -0.475266 -330.607 -9.24956C-337.807 -11.3662 -344.988 -13.6436 -352.195 -15.9289C-359.818 -18.3465 -367.47 -20.7729 -375.201 -23.0274Z" fill="black"/>
<path d="M-378.685 -12.1412C-378.613 -12.3818 -378.541 -12.6223 -378.468 -12.8627C-371.102 -11.3781 -363.76 -9.78151 -356.43 -8.18742C-349.946 -6.77744 -343.471 -5.36935 -336.996 -4.04248C-307.247 2.05411 -277.478 6.4447 -246.733 1.51788C-209.396 -4.45786 -172.597 -14.9789 -135.999 -25.4428C-122.39 -29.3338 -108.809 -33.2168 -95.2375 -36.8553C-87.2778 -38.9856 -78.7007 -41.6527 -69.7654 -44.4312L-68.2625 -44.8984C-58.7889 -47.8432 -48.9349 -50.8847 -39.021 -53.5163C-19.2002 -58.7776 0.899841 -62.4121 18.7326 -60.348C49.6971 -56.7665 66.6195 -35.5196 82.3927 -12.7155C83.8696 -10.5802 85.3364 -8.43164 86.8036 -6.28242L86.8083 -6.27542C101.037 14.5677 115.303 35.4666 139.226 44.7946C158.356 52.2626 178.295 49.7397 198.512 42.7517C198.538 43.0075 198.563 43.2635 198.588 43.5195C178.328 50.4975 158.251 53.0267 138.953 45.4933C114.802 36.076 100.402 14.9757 86.1986 -5.83705C84.7259 -7.99519 83.2552 -10.1502 81.7759 -12.2888C66.0027 -35.093 49.2488 -56.0634 18.6464 -59.6029C0.959015 -61.6503 -19.0283 -58.0473 -38.8286 -52.7914C-48.7253 -50.1643 -58.5653 -47.1273 -68.0399 -44.1823L-69.5468 -43.7138C-78.4777 -40.9366 -87.0684 -38.2653 -95.0434 -36.1309C-108.588 -32.4996 -122.153 -28.6212 -135.753 -24.7328C-172.366 -14.2648 -209.229 -3.72496 -246.614 2.25844C-277.499 7.20775 -307.38 2.79247 -337.147 -3.30775C-343.641 -4.6387 -350.129 -6.04951 -356.621 -7.46117C-363.966 -9.05818 -371.316 -10.6564 -378.685 -12.1412Z" fill="black"/>
<path d="M-381.631 -1.55716C-381.568 -1.80199 -381.504 -2.04671 -381.441 -2.29129C-374.29 -1.5377 -367.146 -0.723297 -360.006 0.0905914C-353.228 0.863297 -346.453 1.63564 -339.681 2.35492C-309.032 5.61018 -278.411 7.78365 -247.566 4.0378C-209.762 -0.558121 -172.27 -8.4873 -134.882 -16.3943C-121.083 -19.3127 -107.299 -22.228 -93.5179 -24.9716C-84.8377 -26.697 -75.5232 -28.9561 -65.8656 -31.302L-65.5965 -31.3674C-56.0251 -33.6924 -46.1218 -36.098 -36.1843 -38.1454C-16.1284 -42.2775 4.10391 -44.9589 22.0877 -42.566C51.9128 -38.6007 67.9057 -18.456 82.7878 3.09222C84.1532 5.06924 85.5092 7.05777 86.8655 9.04681C100.317 28.7738 113.804 48.5517 136.875 57.6594C156.786 65.5196 177.922 62.2915 199.448 54.3891C199.463 54.6498 199.479 54.9106 199.494 55.1715C177.946 63.0519 156.678 66.2834 136.599 58.357C113.302 49.1599 99.6841 29.1836 86.2561 9.48546L86.2543 9.48276C84.8944 7.48796 83.5365 5.49603 82.1707 3.51843C67.292 -18.0248 51.4628 -37.9039 21.9888 -41.8226C4.13452 -44.1982 -15.9962 -41.5389 -36.0329 -37.4108C-45.9576 -35.3661 -55.8502 -32.9631 -65.4254 -30.6371L-65.6886 -30.5732C-75.3428 -28.2281 -84.6732 -25.965 -93.3716 -24.236C-107.132 -21.4964 -120.904 -18.5838 -134.696 -15.667L-134.698 -15.6666C-172.096 -7.75732 -209.637 0.182129 -247.476 4.7823C-278.409 8.53891 -309.101 6.35713 -339.76 3.10072C-346.545 2.38005 -353.328 1.60687 -360.111 0.833618L-360.112 0.833481C-367.283 0.016037 -374.455 -0.801483 -381.631 -1.55716Z" fill="black"/>
<path d="M-384.133 8.91777C-384.078 8.66855 -384.023 8.41943 -383.968 8.17044C-377.281 8.283 -370.595 8.41623 -363.909 8.54942H-363.908C-356.745 8.69214 -349.583 8.83484 -342.422 8.95212C-311.045 9.466 -279.694 9.49216 -248.421 6.89757C-210.082 3.726 -171.896 -1.58971 -133.746 -6.90044L-133.744 -6.90067C-119.901 -8.82774 -106.062 -10.7542 -92.2223 -12.5772C-83.2613 -13.7576 -73.7491 -15.404 -63.947 -17.1277C-63.1965 -17.2597 -62.4442 -17.3922 -61.6904 -17.5249C-52.6021 -19.125 -43.2852 -20.7654 -33.9565 -22.1373C-13.7557 -25.1084 6.53369 -26.8267 24.7419 -24.1481C53.4055 -19.9375 68.6334 -0.991882 82.8073 19.2104C84.0768 21.0198 85.3378 22.8391 86.5991 24.6588C99.4414 43.1869 112.317 61.7623 134.586 70.5451C155.14 78.6546 177.296 74.7858 199.928 66.1057C199.934 66.3716 199.939 66.6375 199.944 66.9035C177.31 75.5496 155.03 79.4174 134.31 71.2428C111.818 62.3719 98.8134 43.6039 85.9933 25.1024L85.9853 25.0908C84.7224 23.2684 83.4614 21.4486 82.1933 19.6411C68.0263 -0.551331 52.9582 -19.2452 24.6328 -23.4061C6.53659 -26.0682 -13.6642 -24.3638 -33.8474 -21.3953C-43.1656 -20.0249 -52.4729 -18.3862 -61.5637 -16.7856L-63.8171 -16.3891C-73.6176 -14.6656 -83.1451 -13.0164 -92.1243 -11.8336C-105.952 -10.0121 -119.784 -8.08667 -133.624 -6.16013C-171.781 -0.84845 -209.998 4.47157 -248.359 7.645C-279.671 10.2428 -311.052 10.216 -342.434 9.70201C-349.597 9.58469 -356.759 9.442 -363.921 9.29933L-363.933 9.2991C-370.667 9.16495 -377.401 9.03081 -384.133 8.91777Z" fill="black"/>
<path d="M-386.221 19.3245C-386.175 19.071 -386.128 18.8176 -386.081 18.5643C-377.187 18.0063 -368.293 17.4387 -359.4 16.8711C-322.72 14.5301 -286.039 12.1891 -249.318 10.5205C-210.193 8.74063 -171.116 6.01254 -132.037 3.28432C-118.539 2.34203 -105.041 1.39972 -91.5415 0.49646C-80.8769 -0.22023 -69.6329 -1.47348 -58.1295 -2.75566C-49.729 -3.69199 -41.1902 -4.64372 -32.6375 -5.41319C-12.4007 -7.23387 7.86032 -8.02693 26.3347 -5.13733C53.8672 -0.84169 68.5745 16.8236 82.2918 35.6053C83.4949 37.2527 84.6903 38.9083 85.886 40.5642C98.3411 57.8143 110.822 75.1007 132.337 83.4296C153.478 91.6258 176.457 87.213 199.949 77.919C199.945 78.1902 199.939 78.4613 199.934 78.7324C176.459 87.9809 153.367 92.3869 132.066 84.129C110.333 75.7157 97.7231 58.2455 85.2889 41.0194C84.089 39.3571 82.8908 37.6971 81.6861 36.0477C67.9791 17.28 53.4288 -0.151016 26.2188 -4.39633C7.8378 -7.27133 -12.3489 -6.4855 -32.5703 -4.6662C-41.083 -3.90033 -49.6114 -2.95003 -58.0112 -2.01405L-58.0135 -2.01378C-69.5389 -0.729507 -80.8223 0.527802 -91.4912 1.24478C-104.986 2.14772 -118.481 3.08981 -131.977 4.03198C-171.058 6.76039 -210.149 9.4894 -249.284 11.2697C-286.004 12.9382 -322.665 15.278 -359.333 17.6183L-359.337 17.6186L-359.342 17.6189C-368.301 18.1907 -377.26 18.7625 -386.221 19.3245Z" fill="black"/>
<path d="M-387.927 29.7647C-387.89 29.5075 -387.852 29.2504 -387.814 28.9935C-380.64 28.0524 -373.471 27.0804 -366.304 26.1085L-366.296 26.1075C-360.055 25.2612 -353.815 24.4151 -347.571 23.5894C-315.318 19.324 -283.006 15.6072 -250.259 15.2678C-215.021 14.9146 -179.783 14.7686 -144.545 14.6226H-144.543L-144.514 14.6224C-126.905 14.5495 -109.296 14.4765 -91.688 14.3777C-79.7853 14.3109 -67.3739 13.6969 -54.7717 13.0734L-54.7699 13.0733C-47.3848 12.7079 -39.9341 12.3394 -32.482 12.0758C-12.329 11.3629 7.80759 11.42 26.5688 14.4035C53.0429 18.624 67.5423 34.9269 81.1261 52.2135C82.2961 53.7023 83.459 55.1981 84.6222 56.6941C96.9801 72.5887 109.354 88.5041 130.213 96.2502C151.939 104.315 175.479 99.4954 199.503 89.7982C199.487 90.0746 199.47 90.351 199.454 90.6273C175.464 100.268 151.825 105.073 129.952 96.9532C108.883 89.1291 96.3799 73.0436 84.0413 57.1697L84.0262 57.1503C82.8638 55.6549 81.7029 54.1614 80.5364 52.6769C66.9662 35.4075 52.6214 19.3163 26.451 15.1442C7.7634 12.1724 -12.3145 12.1129 -32.4555 12.8253C-39.8835 13.088 -47.3238 13.456 -54.7051 13.8211L-54.7077 13.8212C-67.3238 14.4453 -79.768 15.0608 -91.6838 15.1277C-109.302 15.2266 -126.92 15.2996 -144.538 15.3726H-144.546C-179.781 15.5186 -215.016 15.6646 -250.251 16.0178C-282.95 16.3566 -315.224 20.0681 -347.473 24.333C-353.713 25.1582 -359.952 26.0041 -366.193 26.8503C-373.434 27.8321 -380.677 28.8143 -387.927 29.7647Z" fill="black"/>
<path d="M-389.272 40.3889C-389.244 40.1292 -389.215 39.8696 -389.187 39.6101C-382.058 38.2838 -374.941 36.9057 -367.825 35.528L-367.824 35.5278C-361.769 34.3553 -355.716 33.1832 -349.658 32.0435C-317.239 25.9444 -284.706 20.7773 -251.222 21.4987C-231.158 21.9354 -210.657 22.136 -189.926 22.3388L-189.924 22.3388C-118.119 23.0413 -43.5579 23.7707 25.1263 34.4311C50.6136 38.3948 65.2814 53.2694 79.1363 68.9931C80.288 70.3001 81.434 71.6128 82.58 72.9255L82.591 72.9381C95.2408 87.4286 107.895 101.924 128.296 108.921C150.64 116.591 174.426 111.53 198.58 101.678C198.553 101.96 198.525 102.241 198.497 102.523C174.389 112.308 150.524 117.344 128.053 109.63C107.452 102.565 94.6701 87.9193 82.0384 73.446C80.8841 72.1236 79.7312 70.8026 78.5736 69.4889C64.7341 53.7827 50.2185 39.0924 25.0112 35.1722C-43.6139 24.521 -118.1 23.7921 -189.896 23.0895C-210.636 22.8865 -231.153 22.6857 -251.238 22.2486C-284.64 21.5289 -317.108 26.683 -349.519 32.7806C-355.564 33.9178 -361.606 35.0879 -367.653 36.2587L-367.668 36.2616C-374.861 37.6544 -382.06 39.0482 -389.272 40.3889Z" fill="black"/>
<path d="M-390.247 51.2522C-390.228 50.9911 -390.209 50.7301 -390.19 50.4692C-383.064 48.8245 -375.954 47.1038 -368.845 45.3833C-364.239 44.2689 -359.635 43.1545 -355.027 42.061C-323.832 34.6586 -292.504 28.2154 -259.971 29.2132C-167.105 32.0536 -68.9657 42.2494 23.063 54.6485C47.9506 58.0045 63.6481 72.4109 78.8177 87.2308C79.5625 87.9585 80.306 88.6871 81.0492 89.4154C95.4607 103.538 109.769 117.559 131.481 122.601C153.273 127.669 175.204 122.699 197.154 113.713C197.114 114 197.074 114.287 197.033 114.573C175.139 123.486 153.173 128.415 131.311 123.332C109.389 118.24 94.9406 104.08 80.558 89.9842C79.8033 89.2446 79.0489 88.5052 78.2935 87.7673C63.1247 72.9481 47.5831 58.7117 22.9628 55.3918C-69.0522 42.9945 -167.164 32.8022 -259.994 29.9628C-292.42 28.9684 -323.665 35.3896 -354.853 42.7908C-359.455 43.8828 -364.056 44.9961 -368.659 46.1101C-375.844 47.8491 -383.036 49.5896 -390.247 51.2522Z" fill="black"/>
<path d="M-390.849 62.9404C-390.841 62.6805 -390.832 62.4206 -390.823 62.1609C-383.058 60.2253 -375.319 58.1705 -367.583 56.1164C-363.645 55.0709 -359.708 54.0255 -355.769 52.9962C-324.731 44.8864 -293.544 37.7723 -260.705 39.4498C-214.452 41.8033 -168.033 48.2593 -121.683 55.4283C-111.664 56.9781 -101.647 58.5611 -91.6368 60.1432L-91.6347 60.1436C-55.3333 65.881 -19.1055 71.6068 16.9515 75.6925C41.429 78.4713 58.4049 91.1569 74.9461 104.151C75.6618 104.713 76.3766 105.276 77.0912 105.838C92.9083 118.29 108.598 130.642 130.426 134.699C152.55 138.807 174.043 133.926 195.296 125.343C195.244 125.634 195.191 125.925 195.138 126.216C173.95 134.72 152.446 139.551 130.289 135.436C108.275 131.345 92.4518 118.887 76.6627 106.456C75.9362 105.884 75.2097 105.312 74.4828 104.741C57.941 91.7462 41.1133 79.1903 16.8671 76.4377C-19.2081 72.35 -55.4576 66.6208 -91.7616 60.8829C-101.77 59.301 -111.783 57.7184 -121.798 56.1695C-168.143 49.0011 -214.53 42.5503 -260.744 40.1988C-293.457 38.5277 -324.546 45.6132 -355.579 53.7218C-359.514 54.7499 -363.448 55.7945 -367.384 56.8398L-367.385 56.84C-375.19 58.9124 -383.003 60.9872 -390.849 62.9404Z" fill="black"/>
<path d="M-390.996 74.6788C-390.997 74.4224 -390.999 74.166 -391 73.9094C-383.893 72.2439 -376.797 70.4985 -369.702 68.7533C-364.653 67.5112 -359.604 66.2692 -354.551 65.0561C-323.165 57.521 -291.642 51.1033 -259.074 52.7593C-196.5 55.9263 -132.964 65.1846 -70.0181 74.3569C-42.3806 78.3841 -14.857 82.3948 12.4212 85.866C36.8566 88.9736 55.0737 101.625 72.9306 114.476C73.5406 114.915 74.1501 115.354 74.7593 115.793C92.0072 128.221 109.099 140.536 131.398 144.511C152.279 148.233 172.754 144.119 193.051 136.543C192.987 136.834 192.922 137.125 192.857 137.416C172.631 144.912 152.162 148.974 131.267 145.249C108.796 141.244 91.5782 128.837 74.3625 116.431C73.7392 115.982 73.116 115.533 72.4925 115.085C54.628 102.228 36.5514 89.6908 12.3266 86.61C-14.9811 83.1351 -42.5211 79.122 -70.1671 75.0934L-70.1685 75.0932C-133.097 65.9233 -196.575 56.6734 -259.112 53.5083C-291.565 51.8582 -322.997 58.2519 -354.376 65.7854C-359.419 66.9962 -364.461 68.2365 -369.506 69.4775L-369.509 69.4783C-376.662 71.2379 -383.821 72.999 -390.996 74.6788Z" fill="black"/>
<path d="M-390.615 87.8398C-390.628 87.5877 -390.64 87.3354 -390.652 87.0831C-383.472 85.6942 -376.297 84.2447 -369.123 82.7953C-362.027 81.3616 -354.929 79.9278 -347.827 78.5526C-314.791 72.1564 -281.638 67.0301 -247.816 69.0995C-164.005 74.229 -77.6536 83.7461 5.51575 95.149C29.8174 98.4778 49.1063 109.959 68.0256 121.819C69.1142 122.501 70.2014 123.185 71.2884 123.868C89.1091 135.072 106.833 146.216 128.424 150.914C149.514 155.496 170.296 152.276 190.926 145.5C190.853 145.787 190.78 146.074 190.706 146.361C170.144 153.062 149.369 156.232 128.265 151.647C106.541 146.92 88.7121 135.71 70.9139 124.519C69.8186 123.83 68.7233 123.142 67.6273 122.455C48.7058 110.594 29.5392 99.1967 5.41388 95.892C-77.7428 84.4908 -164.075 74.9762 -247.862 69.8481C-281.584 67.7848 -314.66 72.8949 -347.684 79.2889C-354.772 80.6613 -361.859 82.093 -368.949 83.5254L-368.952 83.5261C-376.167 84.9838 -383.387 86.4424 -390.615 87.8398Z" fill="black"/>
<path d="M-389.587 101.668C-389.612 101.419 -389.636 101.17 -389.66 100.92C-382.232 99.8567 -374.804 98.748 -367.375 97.6391L-367.371 97.6384C-359.396 96.448 -351.419 95.2573 -343.437 94.1216C-309.92 89.3524 -276.333 85.5547 -242.526 86.8382C-163.008 89.8477 -80.2338 93.7053 -1.27075 103.52C23.805 106.635 44.9913 117.578 65.8829 128.875C67.0306 129.496 68.1774 130.118 69.3239 130.739C89.0634 141.44 108.713 152.092 131.383 156.486C150.938 160.27 170.052 158.043 188.96 152.846C188.88 153.127 188.801 153.408 188.721 153.689C169.878 158.821 150.787 161.005 131.24 157.223C108.453 152.806 88.7093 142.102 68.9922 131.412L68.9861 131.409C67.8329 130.784 66.6798 130.159 65.5262 129.535C44.6296 118.235 23.5563 107.359 -1.36328 104.264C-80.2912 94.4539 -163.037 90.5971 -242.555 87.5876C-276.291 86.3068 -309.824 90.0963 -343.331 94.8641C-351.303 95.9984 -359.274 97.1882 -367.245 98.3781L-367.247 98.3785C-374.693 99.4898 -382.139 100.601 -389.587 101.668Z" fill="black"/>
<path d="M-387.756 116.515C-387.793 116.266 -387.83 116.018 -387.866 115.77C-380.072 115.288 -372.273 114.8 -364.471 114.312L-364.467 114.312C-246.08 106.908 -126.868 99.4524 -8.65439 111.445C17.5462 114.101 40.826 124.263 63.8711 134.808C65.2334 135.432 66.5949 136.057 67.956 136.681C89.6372 146.629 111.249 156.546 135.104 160.575C152.901 163.581 170.212 162.23 187.29 158.551C187.207 158.824 187.123 159.098 187.039 159.372C170.025 162.999 152.748 164.316 134.979 161.314C111.023 157.268 89.3264 147.312 67.6653 137.373L67.6117 137.348C66.2609 136.729 64.9102 136.109 63.5591 135.49C40.5085 124.943 17.3323 114.833 -8.73007 112.191C-126.876 100.205 -246.014 107.656 -364.399 115.059L-364.408 115.06C-372.194 115.547 -379.977 116.034 -387.756 116.515Z" fill="black"/>
<path d="M-385.37 130.271C-385.42 130.022 -385.469 129.773 -385.517 129.523C-373.08 129.354 -360.643 129.218 -348.206 129.082H-348.205C-308.233 128.646 -268.269 128.209 -228.313 126.661C-206.179 125.803 -183.684 124.243 -161.059 122.675C-112.705 119.322 -63.7593 115.928 -16.4862 119.265C11.0286 121.208 36.6112 129.942 61.9912 139.363C64.8737 140.433 67.7536 141.511 70.6333 142.59C93.1227 151.015 115.607 159.437 139.346 163.649C154.987 166.419 170.394 165.978 185.679 163.685C185.593 163.951 185.507 164.217 185.42 164.482C170.194 166.736 154.824 167.151 139.215 164.387C115.404 160.163 92.8519 151.715 70.37 143.293C67.4897 142.214 64.6106 141.135 61.7302 140.066C36.352 130.646 10.8584 121.948 -16.539 120.013C-63.7598 116.68 -112.613 120.068 -160.939 123.419L-160.942 123.419C-183.579 124.989 -206.1 126.551 -228.284 127.41C-268.242 128.959 -308.233 129.396 -348.22 129.832L-348.226 129.832C-360.608 129.968 -372.99 130.103 -385.37 130.271Z" fill="black"/>
<path d="M-382.167 144.57C-382.23 144.316 -382.294 144.062 -382.357 143.808C-371.46 144.441 -360.556 145.183 -349.652 145.925L-349.647 145.925C-341.408 146.486 -333.169 147.046 -324.933 147.56C-289.899 149.745 -254.9 151.084 -220.109 147.982C-196.537 145.876 -172.636 142.242 -148.619 138.591C-139.903 137.265 -131.172 135.938 -122.435 134.68C-89.6367 129.959 -56.781 126.225 -24.4688 127.317C4.47009 128.294 32.422 135.746 60.2064 144.065C64.5808 145.375 68.9508 146.706 73.3199 148.037C96.7145 155.163 120.083 162.281 143.959 166.063C157.624 168.227 171.126 168.323 184.538 167.137C184.45 167.395 184.363 167.654 184.275 167.913C170.921 169.073 157.465 168.961 143.842 166.804C119.909 163.013 96.4835 155.877 73.0895 148.751C68.7234 147.421 64.3583 146.091 59.9913 144.783C32.2118 136.466 4.34024 129.04 -24.4941 128.067C-56.7371 126.976 -89.5387 130.702 -122.328 135.423C-131.051 136.678 -139.774 138.005 -148.486 139.329L-148.487 139.329C-172.511 142.982 -196.446 146.621 -220.042 148.729C-254.893 151.837 -289.938 150.494 -324.98 148.309C-333.228 147.794 -341.474 147.233 -349.718 146.672C-360.541 145.936 -371.358 145.2 -382.167 144.57Z" fill="black"/>
<path d="M-378.233 158.757C-378.313 158.495 -378.393 158.232 -378.472 157.97C-367.255 159.427 -355.995 161.096 -344.721 162.767C-335.799 164.09 -326.869 165.414 -317.944 166.635C-282.165 171.53 -246.45 174.776 -211.61 169.708C-188.164 166.291 -164.659 160.362 -141.069 154.413L-141.068 154.412C-134.839 152.841 -128.604 151.268 -122.362 149.74C-92.4971 142.428 -62.4988 136.134 -32.3892 135.922C-2.01346 135.71 28.3091 141.802 58.5056 148.94C64.7315 150.411 70.9515 151.927 77.1656 153.442C101.104 159.276 124.955 165.089 148.719 168.266C160.425 169.836 172.043 170.23 183.609 169.845C183.521 170.098 183.432 170.351 183.343 170.604C171.838 170.974 160.274 170.572 148.619 169.01C124.812 165.827 100.912 160.001 76.969 154.166L76.9671 154.165C70.7583 152.652 64.5467 151.138 58.333 149.669C28.1441 142.533 -2.10413 136.46 -32.384 136.672C-62.4001 136.884 -92.3263 143.158 -122.184 150.469C-128.411 151.994 -134.636 153.564 -140.858 155.133L-140.865 155.135C-164.46 161.086 -188.014 167.027 -211.502 170.45C-246.452 175.534 -282.254 172.274 -318.045 167.378C-326.99 166.154 -335.933 164.828 -344.862 163.505C-356.015 161.851 -367.147 160.201 -378.233 158.757Z" fill="black"/>
<path d="M-373.576 172.775C-373.675 172.501 -373.773 172.227 -373.871 171.953C-362.551 174.18 -351.117 176.715 -339.635 179.26L-339.633 179.26C-329.079 181.6 -318.484 183.949 -307.901 186.076C-270.116 193.669 -232.455 198.443 -197.125 189.997C-177.333 185.266 -157.372 177.517 -137.243 169.702C-131.386 167.429 -125.516 165.15 -119.631 162.938C-93.5408 153.132 -67.1894 144.656 -40.6835 143.933C-10.1556 143.095 21.4865 147.748 53.0585 153.519C61.6997 155.098 70.3344 156.761 78.94 158.418L78.9465 158.419C101.794 162.82 124.436 167.18 146.446 169.834C158.629 171.303 170.749 171.946 182.833 172.042C182.744 172.292 182.654 172.541 182.565 172.79C170.543 172.686 158.483 172.041 146.356 170.579C124.319 167.921 101.639 163.554 78.7827 159.152L78.7804 159.151L78.7782 159.151C70.1765 157.494 61.5501 155.833 52.9237 154.256C21.3606 148.487 -10.2173 143.847 -40.6629 144.683C-67.0346 145.402 -93.2853 153.837 -119.368 163.64C-125.233 165.845 -131.091 168.119 -136.94 170.39C-157.077 178.207 -177.105 185.982 -196.951 190.726C-232.45 199.213 -270.248 194.408 -308.049 186.811C-318.667 184.677 -329.282 182.324 -339.849 179.981L-339.85 179.981C-351.168 177.472 -362.43 174.976 -373.576 172.775Z" fill="black"/>
<path d="M-368.231 186.511C-368.352 186.223 -368.472 185.935 -368.591 185.647C-356.956 188.579 -345.178 191.91 -333.339 195.257L-333.338 195.258C-322.778 198.244 -312.17 201.243 -301.574 203.986C-263.197 213.918 -224.946 220.491 -189.442 211.002C-169.054 205.553 -149.716 195.198 -130.296 184.8C-126.803 182.93 -123.307 181.058 -119.801 179.213C-96.8341 167.124 -73.4857 156.2 -48.0093 154.552C-16.1704 152.483 17.5889 155.693 51.3391 160.117C62.2066 161.542 73.0713 163.092 83.8712 164.634L83.8724 164.634C106.626 167.881 129.093 171.087 150.694 172.991C161.051 173.902 171.407 174.541 181.763 174.987C181.672 175.234 181.58 175.48 181.489 175.726C171.2 175.28 160.914 174.643 150.628 173.738C129.007 171.832 106.505 168.621 83.7396 165.373C72.9445 163.832 62.0899 162.283 51.2416 160.861C17.5013 156.437 -16.1981 153.236 -47.9607 155.3C-73.2638 156.937 -96.4879 167.789 -119.452 179.876C-122.947 181.716 -126.436 183.585 -129.926 185.453C-149.342 195.85 -168.769 206.253 -189.248 211.726C-224.954 221.269 -263.37 214.648 -301.762 204.712C-312.398 201.959 -323.031 198.953 -333.605 195.963C-345.241 192.672 -356.808 189.402 -368.231 186.511Z" fill="black"/>
<path d="M-361.826 200.748C-361.974 200.441 -362.122 200.133 -362.27 199.824C-359.667 200.634 -357.052 201.467 -354.427 202.318C-345.949 205.066 -337.375 208 -328.744 210.954L-328.741 210.954C-317.803 214.697 -306.773 218.472 -295.732 221.939C-256.248 234.339 -216.943 242.704 -182.448 231.332C-163.191 224.983 -145.995 213.176 -128.742 201.33C-125.839 199.337 -122.934 197.342 -120.017 195.372C-99.7933 181.714 -79.024 169.26 -54.4435 166.823C-21.3892 163.556 14.2221 165.228 49.888 168.177C63.1857 169.276 76.4875 170.553 89.6681 171.818L89.6692 171.818L89.6711 171.818C111.857 173.947 133.7 176.044 154.603 177.207C163.187 177.686 171.765 178.208 180.34 178.757C180.246 179.002 180.151 179.246 180.056 179.49C171.559 178.947 163.06 178.43 154.561 177.956C133.645 176.792 111.772 174.693 89.5718 172.562L89.5679 172.562C76.3915 171.297 63.1002 170.022 49.8262 168.924C14.171 165.976 -21.3853 164.309 -54.3697 167.57C-78.7459 169.986 -99.378 182.339 -119.597 195.994C-122.504 197.957 -125.402 199.947 -128.302 201.939C-145.549 213.782 -162.846 225.658 -182.213 232.044C-216.956 243.498 -256.469 235.056 -295.957 222.655C-306.993 219.189 -318.052 215.405 -329.009 211.656L-329.012 211.655C-337.645 208.701 -346.214 205.769 -354.658 203.031C-357.057 202.254 -359.447 201.491 -361.826 200.748Z" fill="black"/>
<path d="M-354.245 215.406C-354.429 215.073 -354.612 214.741 -354.794 214.408C-353.474 214.887 -352.15 215.372 -350.822 215.862C-342.18 219.056 -333.396 222.477 -324.529 225.931C-313.387 230.27 -302.115 234.661 -290.83 238.713C-250.319 253.262 -210.02 263.307 -176.444 250.581C-158.015 243.595 -142.784 230.896 -127.529 218.176L-127.527 218.174C-125.071 216.126 -122.615 214.079 -120.145 212.054C-102.352 197.469 -83.8465 184.112 -59.6877 181.109C-10.4586 174.986 44.5609 177.735 97.3739 180.374C118.083 181.409 138.454 182.427 158.003 182.886C164.815 183.046 171.591 183.365 178.34 183.809C178.241 184.053 178.141 184.297 178.041 184.541C171.385 184.106 164.702 183.793 157.985 183.636C138.391 183.176 117.993 182.157 97.268 181.121L97.2669 181.121C44.4784 178.483 -10.4353 175.739 -59.5951 181.853C-83.5241 184.827 -101.885 198.057 -119.67 212.634C-122.131 214.652 -124.582 216.695 -127.035 218.741C-142.283 231.457 -157.622 244.248 -176.178 251.283C-210.04 264.116 -250.584 253.964 -291.084 239.419C-302.36 235.37 -313.662 230.968 -324.821 226.622L-324.824 226.621L-324.827 226.619C-333.697 223.165 -342.477 219.746 -351.082 216.566C-352.139 216.176 -353.193 215.789 -354.245 215.406Z" fill="black"/>
<path d="M-348.139 225.924C-348.337 225.598 -348.535 225.272 -348.732 224.945C-329.177 231.24 -310.13 238.768 -290.504 246.525C-285.923 248.335 -281.31 250.159 -276.652 251.981C-274.044 253.003 -271.398 254.057 -268.719 255.124C-254.793 260.671 -239.977 266.573 -224.959 270.139C-207.059 274.389 -188.919 275.308 -171.725 268.365C-153.741 261.1 -140.087 248.158 -126.45 235.232C-124.335 233.227 -122.221 231.224 -120.091 229.241C-104.247 214.494 -87.5574 200.974 -63.4643 197.704C-8.46829 190.219 52.2757 190.35 110.349 190.475H110.352C127.46 190.511 144.337 190.548 160.767 190.389C165.709 190.341 170.604 190.434 175.458 190.646C175.351 190.892 175.243 191.138 175.135 191.383C170.389 191.18 165.604 191.092 160.774 191.139C144.322 191.298 127.431 191.262 110.312 191.225C52.2476 191.1 -8.42374 190.97 -63.3632 198.447C-87.2095 201.683 -103.751 215.058 -119.58 229.79C-121.701 231.764 -123.81 233.764 -125.922 235.766C-139.551 248.687 -153.318 261.738 -171.445 269.061C-188.838 276.084 -207.152 275.138 -225.132 270.869C-240.209 267.289 -255.085 261.363 -269.01 255.816L-269.012 255.815C-271.687 254.75 -274.327 253.698 -276.926 252.68C-281.586 250.856 -286.199 249.033 -290.779 247.223C-310.134 239.573 -328.903 232.155 -348.139 225.924Z" fill="black"/>
<path d="M-338.651 240.533C-338.895 240.181 -339.138 239.828 -339.38 239.475C-322.635 245.459 -306.214 252.367 -289.305 259.481L-289.3 259.483C-284.353 261.564 -279.365 263.662 -274.314 265.76C-272.099 266.68 -269.84 267.629 -267.542 268.595C-253.588 274.458 -238.202 280.923 -222.533 284.953C-204.287 289.646 -185.711 291.022 -168.628 284.323C-150.673 277.284 -138.011 264.853 -125.412 252.484L-125.411 252.483C-123.542 250.649 -121.675 248.815 -119.792 247.001C-105.227 232.969 -89.7505 220.122 -65.5179 216.969C8.50735 207.366 87.8495 203.444 162.64 200.117C165.525 199.99 168.384 199.925 171.219 199.917C171.099 200.168 170.979 200.418 170.859 200.668C168.153 200.681 165.425 200.745 162.673 200.866C87.8803 204.194 8.56824 208.114 -65.4213 217.712C-89.4037 220.833 -104.732 233.534 -119.271 247.541C-121.146 249.347 -123.008 251.175 -124.874 253.008L-124.876 253.011C-137.468 265.375 -150.246 277.922 -168.354 285.021C-185.646 291.802 -204.402 290.391 -222.72 285.679C-238.447 281.634 -253.889 275.145 -267.84 269.283C-270.136 268.318 -272.392 267.37 -274.602 266.453C-279.657 264.353 -284.648 262.254 -289.595 260.172L-289.597 260.172C-306.179 253.196 -322.273 246.426 -338.651 240.533Z" fill="black"/>
<path d="M-326.83 256.447C-327.137 256.061 -327.443 255.675 -327.749 255.287C-315.118 260.162 -302.568 265.485 -289.73 270.93C-284.596 273.108 -279.415 275.306 -274.165 277.501C-272.217 278.316 -270.233 279.154 -268.215 280.006C-254.1 285.964 -238.352 292.611 -222.288 296.813C-203.929 301.615 -185.207 303.208 -168.09 296.951C-150.045 290.357 -137.468 278.645 -124.969 267.006C-123.186 265.345 -121.405 263.686 -119.61 262.044C-105.239 248.898 -89.9971 236.852 -65.9181 233.88C9.19608 224.618 86.9409 216.585 162.589 211.562C163.535 211.499 164.478 211.443 165.418 211.395C165.28 211.652 165.142 211.91 165.004 212.167C164.218 212.21 163.43 212.257 162.639 212.31C87.0086 217.332 9.27847 225.364 -65.8263 234.625C-89.6656 237.566 -104.762 249.479 -119.103 262.597C-120.89 264.232 -122.666 265.886 -124.446 267.544L-124.451 267.548C-136.942 279.183 -149.635 291.006 -167.832 297.655C-185.155 303.987 -204.051 302.358 -222.478 297.539C-238.599 293.322 -254.4 286.652 -268.511 280.695C-270.528 279.843 -272.51 279.006 -274.454 278.193C-279.709 275.995 -284.892 273.797 -290.027 271.619C-302.463 266.345 -314.618 261.189 -326.83 256.447Z" fill="black"/>
<path d="M-311.806 273.889C-312.201 273.466 -312.594 273.041 -312.986 272.615C-305.5 275.575 -297.99 278.636 -290.389 281.734C-285.624 283.676 -280.824 285.632 -275.971 287.588C-273.77 288.474 -271.527 289.388 -269.248 290.316C-255.221 296.031 -239.809 302.31 -224.116 306.289C-205.876 310.914 -187.305 312.418 -170.142 306.339C-152.145 299.975 -139.105 288.702 -126.122 277.48L-126.12 277.478C-124.332 275.933 -122.545 274.388 -120.747 272.857C-105.899 260.221 -90.2791 248.562 -66.7489 245.389C7.20068 235.428 83.4188 226.949 157.9 220.845C158.688 220.78 159.473 220.721 160.257 220.667C160.105 220.929 159.953 221.19 159.8 221.451C159.188 221.495 158.575 221.542 157.961 221.593C83.4944 227.696 7.2894 236.172 -66.6488 246.133C-89.9561 249.275 -105.438 260.813 -120.261 273.428C-122.054 274.955 -123.838 276.497 -125.626 278.043C-138.601 289.261 -151.752 300.631 -169.892 307.046C-187.253 313.195 -205.993 311.658 -224.301 307.016C-240.048 303.023 -255.514 296.722 -269.538 291.008C-271.815 290.08 -274.055 289.168 -276.251 288.284C-281.107 286.327 -285.908 284.37 -290.672 282.429C-297.782 279.531 -304.808 276.668 -311.806 273.889Z" fill="black"/>
<path d="M-280.907 302.671C-281.514 302.182 -282.119 301.69 -282.722 301.196C-244.458 315.52 -206.542 325.14 -173.737 314.305C-155.649 308.334 -141.904 297.748 -128.19 287.184C-126.43 285.829 -124.671 284.473 -122.903 283.128C-107.369 271.311 -91.1931 260.303 -68.2579 256.94C3.84357 246.386 77.0935 236.233 149.582 228.348C151.733 228.115 153.871 227.925 155.996 227.778C155.834 228.04 155.671 228.302 155.508 228.564C153.57 228.705 151.622 228.881 149.663 229.094C77.1885 236.977 3.94928 247.128 -68.1493 257.682C-90.8859 261.016 -106.934 271.922 -122.449 283.725C-124.213 285.067 -125.97 286.421 -127.73 287.777C-141.436 298.335 -155.284 309.004 -173.502 315.017C-205.972 325.742 -243.331 316.572 -280.907 302.671Z" fill="black"/>
<path d="M-259.295 318.549C-259.945 318.116 -260.593 317.679 -261.24 317.24C-232.413 325.217 -204.286 328.668 -178.644 321.02C-160.315 315.559 -145.611 305.852 -130.904 296.143C-129.252 295.053 -127.6 293.962 -125.944 292.878C-109.545 282.145 -92.6552 272.012 -70.3607 268.449C-44.6201 264.342 -18.8788 260.031 6.87213 255.719L6.8735 255.718C50.7373 248.373 94.6287 241.022 138.591 234.666C143.259 233.99 147.888 233.549 152.485 233.316C152.316 233.576 152.147 233.835 151.978 234.094C147.583 234.332 143.158 234.762 138.698 235.408C94.7424 241.764 50.8676 249.111 7.01074 256.456L7.00113 256.458C-18.7487 260.77 -44.4923 265.081 -70.2426 269.19C-92.3695 272.726 -109.146 282.78 -125.533 293.506C-127.183 294.585 -128.829 295.672 -130.477 296.76L-130.493 296.771C-145.191 306.475 -159.988 316.244 -178.429 321.738C-203.617 329.251 -231.144 326.125 -259.295 318.549Z" fill="black"/>
<path d="M-241.954 329.274C-242.555 328.93 -243.155 328.584 -243.754 328.236C-223.379 331.481 -203.462 331.763 -184.501 326.844C-165.492 321.908 -149.116 313.164 -132.663 304.379L-132.662 304.378C-131.605 303.814 -130.549 303.25 -129.491 302.687C-111.97 293.354 -94.1714 284.253 -72.8972 280.002C-54.5537 276.332 -36.2095 272.623 -17.8613 268.913L-17.856 268.912C30.0157 259.233 77.9149 249.548 125.902 240.539C133.663 239.082 141.426 238.376 149.188 238.281C149.017 238.534 148.845 238.786 148.673 239.038C141.126 239.158 133.581 239.861 126.04 241.276C78.0583 250.284 30.1664 259.968 -17.7039 269.647L-17.7105 269.648L-17.746 269.655C-36.0825 273.363 -54.416 277.07 -72.75 280.738C-93.9051 284.964 -111.617 294.015 -129.138 303.349C-130.201 303.915 -131.263 304.482 -132.326 305.049C-148.764 313.827 -165.213 322.611 -184.313 327.57C-202.797 332.365 -222.169 332.246 -241.954 329.274Z" fill="black"/>
<path d="M-229.974 335.76C-230.51 335.486 -231.045 335.21 -231.579 334.932C-217.853 335.652 -204.312 334.882 -191.057 331.991C-171.272 327.678 -153.193 319.926 -135.012 312.13L-133.783 311.603C-115.197 303.636 -96.4659 295.705 -75.7169 291.489C-35.7084 283.364 3.98376 273.402 43.6597 263.445L43.6658 263.443C66.5936 257.689 89.5159 251.936 112.491 246.54C123.249 244.01 134.293 243.157 145.523 243.559C145.349 243.803 145.175 244.047 145 244.291C134.001 243.934 123.19 244.794 112.662 247.27C89.7104 252.661 66.7968 258.412 43.8714 264.165L43.8698 264.165C4.17987 274.126 -35.5456 284.096 -75.5676 292.224C-96.2305 296.422 -114.895 304.322 -133.488 312.292L-134.742 312.83C-152.904 320.618 -171.041 328.395 -190.897 332.723C-203.695 335.515 -216.752 336.339 -229.974 335.76Z" fill="black"/>
<path d="M-221.652 339.856C-222.148 339.622 -222.643 339.386 -223.137 339.149C-216.522 338.981 -209.922 338.478 -203.341 337.58C-182.18 334.693 -161.852 327.776 -141.472 320.57C-140.118 320.091 -138.764 319.611 -137.409 319.13C-118.384 312.386 -99.2639 305.608 -79.3779 301.872C-48.0788 295.996 -17.4957 286.561 13.0891 277.036L15.2993 276.348C45.1407 267.053 75.0009 257.752 105.51 251.687C116.812 249.441 128.634 249.057 140.787 250.034C140.609 250.271 140.431 250.507 140.252 250.743C128.326 249.82 116.735 250.221 105.656 252.423C75.1861 258.48 45.3593 267.77 15.5059 277.069L13.3121 277.752C-17.2674 287.275 -47.8909 296.724 -79.2395 302.61C-99.0659 306.334 -118.134 313.093 -137.171 319.842C-138.521 320.32 -139.872 320.799 -141.222 321.277C-161.597 328.482 -181.993 335.425 -203.24 338.324C-209.363 339.159 -215.502 339.653 -221.652 339.856Z" fill="black"/>
<path d="M-214.255 343.229C-214.733 343.019 -215.21 342.808 -215.687 342.596C-213.948 342.456 -212.21 342.296 -210.472 342.114C-189.203 339.882 -167.833 334.664 -146.485 328.99C-142.552 327.945 -138.619 326.884 -134.688 325.823L-134.649 325.813L-134.646 325.812C-117.264 321.122 -99.9122 316.441 -82.6854 313.148C-52.7378 307.421 -23.6315 297.548 5.44199 287.393C7.49628 286.676 9.55042 285.957 11.6047 285.238C38.6153 275.784 65.6473 266.323 93.3125 259.976C106.857 256.863 120.23 257.179 133.456 259.384C133.273 259.608 133.09 259.831 132.907 260.054C119.89 257.924 106.762 257.655 93.4805 260.707C65.8582 267.044 38.865 276.492 11.8466 285.948L11.8131 285.96C9.77206 286.674 7.7309 287.388 5.6893 288.101C-23.3814 298.255 -52.5359 308.146 -82.5445 313.884C-99.7405 317.172 -117.058 321.844 -134.439 326.533L-134.441 326.534L-134.467 326.541C-138.406 327.603 -142.348 328.667 -146.292 329.715C-167.644 335.39 -189.063 340.621 -210.393 342.86C-211.681 342.995 -212.968 343.118 -214.255 343.229Z" fill="black"/>
<path d="M-206.292 346.589C-206.785 346.389 -207.278 346.188 -207.77 345.986C-178.39 343.035 -147.899 336.878 -118.279 330.898C-107.329 328.687 -96.4967 326.5 -85.8845 324.507C-58.4457 319.356 -31.7522 308.757 -5.03253 298.148L-3.60794 297.583C-2.86926 297.289 -2.13055 296.996 -1.39178 296.703C26.5311 285.629 54.5186 274.814 83.3803 270.525C96.5535 268.568 110.293 268.563 124.385 269.97C124.177 270.201 123.969 270.432 123.761 270.662C109.915 269.315 96.4246 269.345 83.4905 271.267C54.7272 275.541 26.8171 286.322 -1.1153 297.4C-2.33676 297.885 -3.55829 298.37 -4.77994 298.855C-31.4799 309.456 -58.2345 320.079 -85.7461 325.245C-96.3342 327.232 -107.15 329.416 -118.09 331.625L-118.094 331.626C-147.253 337.513 -177.298 343.58 -206.292 346.589Z" fill="black"/>
<path d="M-195.096 350.856C-195.66 350.654 -196.223 350.451 -196.786 350.245C-160.723 347.244 -123.196 342.006 -88.6986 335.972C-61.3293 331.192 -34.7865 320.791 -8.21887 310.379L-6.0582 309.532C21.2174 298.848 48.5423 288.314 76.7672 284.068C88.1644 282.354 100.024 282.022 112.198 282.75C111.959 282.987 111.719 283.224 111.478 283.46C99.5875 282.786 88.0089 283.136 76.8788 284.81C48.7504 289.041 21.5022 299.542 -5.78464 310.231L-7.97488 311.089L-7.97607 311.089C-34.5209 321.492 -61.1251 331.918 -88.5695 336.711C-122.563 342.657 -159.505 347.831 -195.096 350.856Z" fill="black"/>
<path d="M-179.308 356.007C-180.064 355.784 -180.819 355.558 -181.572 355.329C-151.446 354.403 -121.281 352.102 -91.0206 347.585C-63.4425 343.464 -36.5801 334.05 -9.69226 324.627L-9.69098 324.627L-8.34213 324.154C18.9838 314.579 46.3481 305.087 74.4627 301.276C80.6775 300.436 87.0101 299.949 93.4404 299.771C93.1279 300.031 92.8148 300.29 92.5013 300.549C86.4261 300.747 80.4412 301.225 74.5633 302.02C46.5365 305.818 19.243 315.283 -8.09415 324.862L-9.47296 325.345C-36.3393 334.76 -63.26 344.195 -90.9098 348.327C-120.453 352.737 -149.903 355.036 -179.308 356.007Z" fill="black"/>
<path d="M-136.466 365.243C-137.701 365.072 -138.934 364.893 -140.164 364.706C-123.967 363.797 -107.817 362.472 -91.7286 360.617C-63.719 357.385 -36.0397 349.451 -8.31619 341.503L-8.05563 341.429C-6.90179 341.098 -5.74786 340.767 -4.59381 340.437C16.3474 334.441 37.3222 328.558 58.4677 324.826C57.8746 325.188 57.2801 325.549 56.6843 325.908C36.2356 329.643 15.9268 335.342 -4.38736 341.158C-5.63489 341.515 -6.88245 341.873 -8.13007 342.23C-35.8366 350.173 -63.5704 358.123 -91.6427 361.362C-106.536 363.08 -121.481 364.343 -136.466 365.243Z" fill="black"/>
</svg>
