<svg width="384" height="458" viewBox="0 0 384 458" fill="none" xmlns="http://www.w3.org/2000/svg">
<path d="M426.687 -234.182C421.971 -234.971 417.259 -235.774 412.548 -236.576C408.545 -237.259 404.541 -237.941 400.536 -238.614C398.841 -238.899 397.145 -239.183 395.449 -239.464C390.422 -240.083 385.362 -240.595 380.271 -241C386.985 -239.962 393.688 -238.86 400.388 -237.734C404.389 -237.061 408.389 -236.379 412.391 -235.698L412.393 -235.697C421.349 -234.171 430.313 -232.644 439.306 -231.212C435.129 -232.277 430.922 -233.268 426.687 -234.182Z" fill="black"/>
<path d="M504.644 -207.411C503.796 -207.819 502.946 -208.224 502.094 -208.626C497.159 -209.231 492.218 -209.804 487.271 -210.339C461.632 -213.115 436.75 -218.435 411.886 -223.751L411.88 -223.753C407.857 -224.613 403.835 -225.473 399.81 -226.322C370.914 -232.418 341.89 -237.95 311.639 -238.898C309.525 -238.964 307.413 -239.017 305.301 -239.056C303.359 -238.799 301.421 -238.526 299.489 -238.237C303.525 -238.208 307.565 -238.133 311.61 -238.005C341.777 -237.061 370.734 -231.544 399.625 -225.449C403.647 -224.6 407.669 -223.74 411.692 -222.88C436.554 -217.564 461.486 -212.233 487.175 -209.451C493.005 -208.821 498.828 -208.138 504.644 -207.411Z" fill="black"/>
<path d="M542.14 -186.434C541.562 -186.805 540.982 -187.175 540.401 -187.544C523.399 -189.611 506.481 -191.757 489.705 -193.965C462.757 -197.509 436.936 -204.546 411.138 -211.576L411.137 -211.577C406.951 -212.717 402.766 -213.858 398.577 -214.983C368.583 -223.041 338.394 -230.319 306.361 -231.279C289.924 -231.771 273.692 -230.922 257.576 -229.331C255.926 -228.873 254.281 -228.404 252.641 -227.923C270.381 -229.84 288.235 -230.929 306.334 -230.386C338.255 -229.43 368.357 -222.177 398.345 -214.121C402.529 -212.997 406.711 -211.857 410.895 -210.717C436.689 -203.688 462.576 -196.633 489.589 -193.08C506.975 -190.791 524.513 -188.57 542.14 -186.434Z" fill="black"/>
<path d="M566.631 -169.184C566.207 -169.51 565.783 -169.836 565.357 -170.16C540.813 -171.744 516.443 -173.912 492.51 -177.164C462.992 -181.176 435.221 -190.747 407.437 -200.322L407.433 -200.324C403.911 -201.537 400.389 -202.751 396.864 -203.954C365.539 -214.638 333.928 -224.428 299.618 -225.3C270.472 -226.034 242.558 -220.902 214.919 -214.467C213.351 -213.804 211.79 -213.13 210.234 -212.446C239.457 -219.403 268.848 -225.182 299.595 -224.408C333.757 -223.54 365.254 -213.792 396.575 -203.109C400.099 -201.907 403.622 -200.693 407.146 -199.478C434.92 -189.906 462.778 -180.304 492.389 -176.279C516.774 -172.966 541.616 -170.777 566.631 -169.184Z" fill="black"/>
<path d="M585.463 -153.622C585.133 -153.915 584.802 -154.207 584.471 -154.499C554.355 -154.011 524.506 -155.014 495.681 -159.982C465.132 -165.237 436.567 -177.064 407.996 -188.894L407.991 -188.896C403.633 -190.7 399.275 -192.504 394.909 -194.286C361.945 -207.736 328.588 -219.85 291.914 -220.457C258.337 -221.013 227.376 -211.611 196.733 -200.989C192.434 -199.498 188.142 -197.984 183.849 -196.47C179.334 -194.878 174.819 -193.285 170.296 -191.72C169.114 -191.007 167.936 -190.287 166.763 -189.56C172.576 -191.547 178.37 -193.59 184.159 -195.632L184.161 -195.633C188.45 -197.146 192.736 -198.658 197.026 -200.145C227.66 -210.764 258.492 -220.118 291.899 -219.564C328.392 -218.96 361.614 -206.907 394.572 -193.459C398.931 -191.681 403.285 -189.877 407.642 -188.073L407.644 -188.073C436.208 -176.245 464.874 -164.375 495.53 -159.102C524.742 -154.068 554.988 -153.097 585.463 -153.622Z" fill="black"/>
<path d="M599.724 -140.264C599.452 -140.533 599.18 -140.802 598.907 -141.071C565.1 -137.292 531.482 -135.802 499.03 -142.598C467.574 -149.172 438.064 -163.384 408.519 -177.612C403.267 -180.142 398.013 -182.672 392.747 -185.16C357.889 -201.628 322.514 -216.231 283.526 -216.37C249.373 -216.497 219.036 -204.267 189.187 -190.465C184.802 -188.438 180.428 -186.376 176.055 -184.315C161.483 -177.449 146.912 -170.582 131.938 -164.961C131.21 -164.378 130.485 -163.792 129.763 -163.204C145.669 -169.007 161.082 -176.271 176.453 -183.515C180.823 -185.575 185.189 -187.633 189.562 -189.655C219.4 -203.451 249.582 -215.603 283.522 -215.477C322.297 -215.339 357.515 -200.817 392.366 -184.353C397.618 -181.871 402.862 -179.346 408.108 -176.819L408.111 -176.817C437.652 -162.59 467.275 -148.323 498.847 -141.724C531.667 -134.851 565.645 -136.422 599.724 -140.264Z" fill="black"/>
<path d="M611.15 -128.416C610.916 -128.67 610.682 -128.924 610.447 -129.177C574.326 -121.349 538.241 -116.338 502.453 -125.087C469.85 -133.057 439.128 -149.623 408.321 -166.234C402.382 -169.437 396.44 -172.641 390.48 -175.785C353.64 -195.224 316.163 -212.371 274.865 -212.536C240.22 -212.675 210.392 -197.511 181.273 -180.316C176.687 -177.608 172.12 -174.85 167.554 -172.093C146.541 -159.406 125.561 -146.739 102.996 -139.044C102.527 -138.575 102.059 -138.105 101.592 -137.633C124.915 -145.302 146.514 -158.344 168.043 -171.345L168.045 -171.346C172.604 -174.099 177.159 -176.85 181.728 -179.547C210.836 -196.736 240.48 -211.781 274.862 -211.643C315.922 -211.479 353.229 -194.431 390.063 -174.996C396.005 -171.86 401.936 -168.662 407.867 -165.464L407.87 -165.462C438.674 -148.851 469.516 -132.219 502.24 -124.22C538.36 -115.39 574.738 -120.506 611.01 -128.386C611.057 -128.396 611.103 -128.406 611.15 -128.416Z" fill="black"/>
<path d="M620.677 -117.633C620.469 -117.879 620.261 -118.123 620.052 -118.368C617.819 -117.635 615.586 -116.913 613.352 -116.205C578.137 -105.048 542.807 -97.4587 505.874 -107.652C472.356 -116.908 440.429 -135.788 408.336 -154.767C401.662 -158.714 394.981 -162.665 388.276 -166.535C349.371 -188.991 309.709 -208.689 266.355 -208.625C231.156 -208.575 201.816 -190.494 173.428 -169.988C168.763 -166.619 164.125 -163.185 159.49 -159.753L159.488 -159.751C135.879 -142.272 112.371 -124.867 86.001 -116.476C84.367 -115.957 82.7278 -115.475 81.0835 -115.03C80.7561 -114.636 80.4295 -114.242 80.1038 -113.847C82.1676 -114.382 84.2239 -114.974 86.272 -115.626C112.797 -124.065 136.448 -141.578 160.054 -159.059C164.681 -162.485 169.306 -165.91 173.951 -169.265C202.333 -189.765 231.467 -207.683 266.356 -207.733C309.45 -207.796 348.927 -188.216 387.829 -165.762C394.513 -161.904 401.181 -157.961 407.847 -154.018C439.94 -135.038 471.992 -116.082 505.636 -106.792C542.83 -96.5261 578.371 -104.186 613.622 -115.354C615.975 -116.1 618.327 -116.861 620.677 -117.633Z" fill="black"/>
<path d="M628.889 -107.582C628.698 -107.823 628.508 -108.065 628.317 -108.306C624.192 -106.479 620.07 -104.684 615.943 -102.954C581.886 -88.673 547.502 -78.7229 509.116 -90.3685C474.815 -100.775 441.721 -121.817 408.358 -143.03L408.356 -143.031C400.99 -147.715 393.611 -152.407 386.202 -156.995C345.282 -182.335 303.494 -204.477 258.323 -204.135C222.56 -203.869 193.667 -182.976 165.973 -159.326C161.299 -155.335 156.661 -151.266 152.029 -147.203C142.92 -139.212 133.835 -131.243 124.549 -123.922C110.547 -112.885 96.1301 -103.359 80.5764 -97.5237C75.153 -95.4882 69.6578 -93.9632 64.1013 -92.8854C63.855 -92.5364 63.6093 -92.187 63.3642 -91.8371C69.276 -92.9314 75.1226 -94.5231 80.8905 -96.6879C96.5684 -102.57 111.069 -112.16 125.102 -123.221C134.406 -130.556 143.524 -138.554 152.645 -146.554L152.65 -146.559C157.275 -150.617 161.902 -154.675 166.554 -158.648C194.247 -182.298 222.92 -202.979 258.33 -203.242C303.218 -203.582 344.811 -181.577 385.731 -156.236C393.116 -151.663 400.479 -146.981 407.835 -142.304L407.837 -142.302C441.203 -121.086 474.426 -99.9601 508.857 -89.5143C547.552 -77.7748 582.183 -87.8295 616.289 -102.131C620.495 -103.894 624.693 -105.722 628.889 -107.582Z" fill="black"/>
<path d="M636.067 -98.1353C635.889 -98.3772 635.712 -98.6189 635.534 -98.8604C629.824 -95.69 624.128 -92.565 618.412 -89.59C585.539 -72.48 552.098 -60.3906 512.053 -73.3884C477.019 -84.7634 442.828 -107.76 408.267 -131.005L408.263 -131.008C400.321 -136.349 392.36 -141.704 384.365 -146.933C341.62 -174.892 297.908 -199.268 251.15 -198.636C214.775 -198.141 186.313 -174.684 159.282 -148.2C154.655 -143.666 150.072 -139.045 145.497 -134.433L145.494 -134.43C136.686 -125.55 127.909 -116.702 118.914 -108.57C105.253 -96.219 91.1337 -85.5623 75.7364 -79.0255C67.5502 -75.5533 59.1877 -73.4356 50.6896 -72.4124C50.4943 -72.0904 50.2995 -71.768 50.1053 -71.4453C58.9166 -72.4445 67.5928 -74.6015 76.0857 -78.2038C91.6168 -84.7975 105.823 -95.53 119.513 -107.908C128.526 -116.056 137.335 -124.936 146.155 -133.829C150.726 -138.437 155.3 -143.048 159.908 -147.562C186.945 -174.054 215.177 -197.254 251.162 -197.743C297.619 -198.372 341.125 -174.149 383.876 -146.186C391.846 -140.973 399.79 -135.629 407.722 -130.294C442.288 -107.044 476.611 -83.957 511.777 -72.5394C552.173 -59.4276 585.891 -71.6567 618.825 -88.7983C624.584 -91.7954 630.321 -94.9444 636.067 -98.1353Z" fill="black"/>
<path d="M642.471 -89.1138C642.303 -89.3592 642.134 -89.6045 641.965 -89.8495C641.74 -89.7022 641.516 -89.555 641.292 -89.4078L641.29 -89.4068C634.398 -84.8844 627.554 -80.3931 620.666 -76.1601C588.905 -56.6404 556.34 -42.6881 514.659 -56.8379C480.895 -68.2904 448.043 -88.9228 416.896 -108.485C408.856 -113.535 400.929 -118.513 393.129 -123.244C385.549 -127.846 377.383 -133.169 368.787 -138.773C354.49 -148.094 339.004 -158.189 323.054 -167.024C297.497 -181.182 270.61 -192.193 245.214 -191.724C208.104 -191.039 180.088 -165.392 153.71 -136.511C149.198 -131.571 144.734 -126.536 140.281 -121.513L140.279 -121.511C131.695 -111.829 123.145 -102.186 114.348 -93.3294C100.992 -79.8833 87.1086 -68.2974 71.7597 -61.21C61.4178 -56.4357 50.8082 -54.0667 40.0105 -53.5106C39.8502 -53.2051 39.6903 -52.8994 39.5308 -52.5933C50.6092 -53.1038 61.5078 -55.4939 72.1344 -60.3996C87.6256 -67.5527 101.597 -79.2257 114.982 -92.7005C123.796 -101.574 132.376 -111.251 140.972 -120.946C145.422 -125.966 149.877 -130.99 154.37 -135.91C180.76 -164.804 208.542 -190.154 245.231 -190.831C270.381 -191.295 297.095 -180.384 322.621 -166.244C338.555 -157.417 353.973 -147.365 368.242 -138.062C376.847 -132.452 385.034 -127.114 392.665 -122.481C400.437 -117.767 408.344 -112.801 416.372 -107.758C447.527 -88.1902 480.497 -67.4824 514.372 -55.9927C556.438 -41.712 589.303 -55.8371 621.135 -75.3998C628.034 -79.6402 634.891 -84.1396 641.782 -88.6615C642.012 -88.8121 642.242 -88.9631 642.471 -89.1138Z" fill="black"/>
<path d="M648.272 -80.3894C648.111 -80.6402 647.949 -80.8907 647.787 -81.1411C647.024 -80.5813 646.263 -80.0209 645.502 -79.4604C644.113 -78.4364 642.727 -77.4119 641.343 -76.3892C635.031 -71.7233 628.766 -67.0926 622.454 -62.7068C591.683 -41.3251 559.915 -25.8415 516.732 -40.7928C482.187 -52.757 448.453 -74.5685 416.635 -95.141L416.632 -95.1429C408.256 -100.559 400.012 -105.889 391.922 -110.93C384.182 -115.758 375.817 -121.376 366.982 -127.311L366.98 -127.311C364.167 -129.201 361.305 -131.123 358.401 -133.062C346.383 -141.084 333.643 -149.386 320.563 -156.858C294.417 -171.794 266.852 -183.452 240.921 -182.894C202.928 -182.082 175.397 -154.762 149.668 -124.063C145.344 -118.905 141.073 -113.652 136.81 -108.41L136.809 -108.409C128.366 -98.027 119.957 -87.687 111.247 -78.2046C98.1456 -63.9411 84.4087 -51.6724 68.9501 -44.2037C56.7351 -38.3048 44.2147 -35.9646 31.4977 -36.1422C31.363 -35.8469 31.2286 -35.5514 31.0946 -35.2557C44.0634 -35.0224 56.8538 -37.3706 69.3391 -43.4C84.9478 -50.9412 98.7753 -63.3063 111.905 -77.601C120.633 -87.1022 129.072 -97.4797 137.526 -107.875C141.785 -113.112 146.048 -118.354 150.353 -123.49C176.097 -154.207 203.392 -181.199 240.94 -182.002C266.616 -182.554 294.003 -171.003 320.12 -156.083C333.171 -148.627 345.89 -140.339 357.905 -132.319C360.803 -130.385 363.661 -128.465 366.473 -126.577L366.474 -126.576C375.312 -120.639 383.695 -115.009 391.449 -110.173C399.509 -105.15 407.732 -99.8332 416.094 -94.4259L416.097 -94.4241C447.925 -73.8444 481.781 -51.9527 516.44 -39.9492C560.034 -24.8555 592.118 -40.5395 622.964 -61.9739C629.288 -66.3679 635.565 -71.0075 641.878 -75.6738L641.896 -75.6875C643.273 -76.7051 644.652 -77.724 646.033 -78.7419C646.778 -79.2915 647.525 -79.8408 648.272 -80.3894Z" fill="black"/>
<path d="M653.651 -71.7608C653.497 -72.0172 653.342 -72.2734 653.186 -72.5295C648.989 -69.276 644.843 -65.9706 640.721 -62.6838C635.015 -58.1345 629.354 -53.6208 623.661 -49.3298C608.685 -38.0407 593.435 -28.2477 576.375 -23.1869C559.328 -18.13 540.448 -17.7908 518.196 -25.4553C483.245 -37.4996 448.909 -60.1701 416.756 -81.3998L416.754 -81.4014C408.09 -87.1218 399.585 -92.7376 391.268 -98.0126C383.421 -102.988 374.952 -108.775 366.013 -114.883L366.002 -114.891C363.191 -116.812 360.334 -118.764 357.435 -120.733C345.318 -128.963 332.478 -137.476 319.285 -145.136C292.911 -160.448 265.061 -172.39 238.674 -171.82C199.562 -170.957 172.568 -142.605 147.491 -110.809C143.441 -105.674 139.442 -100.45 135.449 -95.2336L135.447 -95.2309C127.058 -84.2726 118.696 -73.35 109.948 -63.3621C97.0415 -48.6259 83.3377 -35.9793 67.5612 -28.3361C53.5425 -21.5428 39.2663 -19.4782 24.8399 -20.5629C24.7245 -20.2735 24.6094 -19.9838 24.4946 -19.6939C39.1451 -18.5515 53.6739 -20.6143 67.951 -27.5328C83.8857 -35.2526 97.6832 -48.003 110.621 -62.7742C119.388 -72.7837 127.78 -83.7465 136.179 -94.7176C140.168 -99.929 144.16 -105.143 148.193 -110.257C173.284 -142.07 200.043 -170.075 238.693 -170.927C264.822 -171.492 292.492 -159.658 318.836 -144.364C332.001 -136.721 344.819 -128.223 356.933 -119.995C359.823 -118.032 362.673 -116.084 365.478 -114.167L365.498 -114.154L365.499 -114.153C374.441 -108.042 382.928 -102.243 390.79 -97.2589C399.073 -92.0045 407.556 -86.4031 416.206 -80.6919L416.207 -80.6912C448.37 -59.4534 482.835 -36.6965 517.905 -24.6113C540.329 -16.8875 559.4 -17.22 576.629 -22.3311C593.845 -27.4382 609.198 -37.3094 624.2 -48.6171C629.935 -52.9403 635.612 -57.467 641.322 -62.0205C645.403 -65.2747 649.502 -68.5435 653.651 -71.7608Z" fill="black"/>
<path d="M659.194 -62.2434C659.047 -62.5051 658.9 -62.7666 658.752 -63.0278C652.804 -58.5572 646.979 -53.9292 641.2 -49.3374C635.444 -44.7637 629.733 -40.226 623.99 -35.9158C609.001 -24.6646 593.745 -14.9172 576.714 -9.90666C559.695 -4.90006 540.879 -4.61584 518.753 -12.3366C483.753 -24.548 449.365 -46.8635 417.012 -67.8592C408.185 -73.5876 399.509 -79.2181 391.013 -84.5178C382.948 -89.5512 374.22 -95.4422 364.999 -101.666L364.997 -101.668L364.981 -101.679C362.375 -103.438 359.729 -105.223 357.048 -107.024C344.878 -115.196 331.983 -123.667 318.744 -131.309C292.279 -146.585 264.38 -158.59 238.097 -158.248C198.854 -157.727 172.023 -129.212 147.145 -97.1903C143.131 -92.0227 139.168 -86.7646 135.211 -81.5146L135.208 -81.5107C126.885 -70.4677 118.588 -59.4602 109.895 -49.4046C97.0728 -34.5741 83.4313 -21.8706 67.6627 -14.2596C51.8701 -6.63296 35.8625 -4.94133 19.7419 -6.96943C19.6409 -6.68237 19.5404 -6.39514 19.4402 -6.10774C35.7616 -4.02501 52.0091 -5.70858 68.0514 -13.4558C83.9816 -21.1448 97.7181 -33.9549 110.571 -48.821C119.284 -58.8986 127.611 -69.947 135.944 -81.0032L135.952 -81.0137C139.903 -86.256 143.855 -91.5 147.851 -96.6429C172.743 -128.684 199.337 -156.841 238.109 -157.355C264.139 -157.694 291.861 -145.796 318.297 -130.536C331.508 -122.909 344.383 -114.453 356.55 -106.283C359.231 -104.482 361.879 -102.695 364.488 -100.934L364.49 -100.933C373.714 -94.7067 382.46 -88.8034 390.54 -83.7607C399.003 -78.4811 407.656 -72.8651 416.469 -67.1459L416.47 -67.1451C448.834 -46.1415 483.345 -23.7444 518.459 -11.4938C540.757 -3.71277 559.765 -3.98984 576.966 -9.05027C594.154 -14.1068 609.513 -23.9322 624.527 -35.2021C630.313 -39.545 636.04 -44.0956 641.801 -48.6735C647.534 -53.229 653.301 -57.8117 659.194 -62.2434Z" fill="black"/>
<path d="M664.882 -51.6955C664.744 -51.9618 664.606 -52.2279 664.468 -52.4938C658.743 -48.5852 653.128 -44.5241 647.565 -40.4561C646.222 -39.4735 644.881 -38.4906 643.543 -37.5093C637.183 -32.8459 630.875 -28.2198 624.52 -23.8431C593.762 -2.66023 562.051 12.5911 519.057 -2.49818C483.991 -14.8026 449.706 -35.619 416.963 -55.4991L416.962 -55.4998C407.934 -60.9813 399.023 -66.3917 390.245 -71.5328C381.608 -76.5916 372.166 -82.6367 362.156 -89.0451C360.085 -90.3711 357.989 -91.7127 355.872 -93.0644C343.524 -100.945 330.429 -109.163 317.027 -116.605C290.237 -131.483 262.157 -143.302 236.307 -143.112C197.945 -142.82 171.327 -114.592 146.672 -82.8301C142.558 -77.5307 138.5 -72.134 134.45 -66.7481C126.341 -55.9641 118.264 -45.2237 109.841 -35.3954C97.2157 -20.6656 83.8576 -8.04424 68.543 -0.484303C51.0752 8.13995 33.295 9.40156 15.3624 6.33883C15.2743 6.62558 15.1867 6.91246 15.0994 7.19952C33.2126 10.3111 51.2257 9.06134 68.9387 0.316089C84.4138 -7.32305 97.8657 -20.0514 110.519 -34.8148C118.961 -44.6638 127.068 -55.445 135.188 -66.2432C139.234 -71.6232 143.283 -77.0077 147.378 -82.283C172.051 -114.067 198.428 -141.931 236.314 -142.219C261.919 -142.407 289.826 -130.69 316.593 -115.825C329.969 -108.397 343.045 -100.192 355.391 -92.3121C357.504 -90.9634 359.596 -89.6241 361.664 -88.2999L361.668 -88.2974C371.678 -81.8885 381.139 -75.8315 389.793 -70.7627C398.542 -65.6384 407.434 -60.2396 416.449 -54.7654L416.451 -54.7647C449.204 -34.8775 483.597 -13.9945 518.761 -1.6559C562.165 13.5774 594.192 -1.87226 625.027 -23.1081C631.394 -27.4933 637.716 -32.129 644.076 -36.7929C645.413 -37.7733 646.752 -38.755 648.093 -39.7358C653.625 -43.7817 659.202 -47.8148 664.882 -51.6955Z" fill="black"/>
<path d="M670.366 -40.6232C670.238 -40.8934 670.11 -41.1634 669.981 -41.4333C663.002 -37.2786 656.166 -32.9059 649.395 -28.5333C648.356 -27.863 647.32 -27.1927 646.285 -26.5232C639.377 -22.0566 632.525 -17.6252 625.63 -13.4545C593.928 5.72364 561.456 19.3205 519.456 5.14389C484.059 -6.81688 449.447 -25.9643 416.013 -44.46C406.899 -49.5016 397.873 -54.4948 388.942 -59.2809C379.714 -64.2254 369.551 -70.2399 358.763 -76.6245C357.152 -77.578 355.526 -78.5398 353.888 -79.5075C341.286 -86.952 327.926 -94.7431 314.301 -101.803C287.065 -115.916 258.703 -127.145 233.148 -126.815C195.657 -126.346 169.729 -98.6089 145.764 -67.4052C141.711 -62.1273 137.715 -56.7513 133.727 -51.3869L133.726 -51.3859C125.904 -40.8633 118.116 -30.3857 109.995 -20.7817C97.7403 -6.28851 84.7759 6.15457 69.9024 13.6698C50.8814 23.2773 31.3336 23.9479 11.5469 19.7138C11.4709 20.0018 11.3953 20.29 11.3201 20.5783C31.2662 24.8527 51.0419 24.1966 70.3056 14.4665C85.338 6.87098 98.3949 -5.67937 110.678 -20.2056C118.816 -29.8301 126.635 -40.3487 134.468 -50.8861C138.452 -56.2448 142.439 -61.6084 146.473 -66.8618C170.455 -98.0879 196.145 -125.459 233.16 -125.923C258.48 -126.249 286.673 -115.114 313.89 -101.011C327.491 -93.9631 340.832 -86.183 353.433 -78.739C355.061 -77.7775 356.677 -76.8215 358.279 -75.8733L358.305 -75.8577C369.092 -69.4742 379.274 -63.4485 388.52 -58.4941C397.426 -53.7213 406.435 -48.7372 415.538 -43.7013C448.981 -25.2 483.688 -5.99969 519.17 5.98961C561.548 20.2939 594.316 6.53248 626.093 -12.6908C633 -16.8689 639.865 -21.3082 646.771 -25.774C647.806 -26.4435 648.842 -27.1136 649.88 -27.7835C656.627 -32.1407 663.427 -36.4908 670.366 -40.6232Z" fill="black"/>
<path d="M675.647 -28.9188C675.53 -29.1928 675.412 -29.4666 675.293 -29.7402C666.538 -25.3912 657.972 -20.7415 649.477 -16.1301C642.036 -12.0912 634.65 -8.08169 627.238 -4.32939C594.409 12.2901 561.013 23.92 519.9 11.1192C484.107 -0.0283478 449.007 -17.2462 414.791 -34.0299C405.53 -38.5727 396.334 -43.0837 387.207 -47.4339C377.265 -52.1678 366.266 -58.0277 354.599 -64.2436L354.597 -64.2446L354.479 -64.3076C353.407 -64.8788 352.329 -65.4531 351.246 -66.0297C338.336 -72.9023 324.674 -80.1109 310.792 -86.631C283.043 -99.6646 254.349 -109.979 228.952 -109.333C192.321 -108.381 167.456 -81.34 144.541 -50.9703C140.68 -45.8539 136.876 -40.6443 133.08 -35.445C125.587 -25.1839 118.124 -14.963 110.315 -5.57806C98.5542 8.55471 86.0547 20.7314 71.5906 28.2021C51.1903 38.7376 29.9143 38.6827 8.27418 33.2007C8.20975 33.4914 8.14562 33.7822 8.08193 34.0731C29.8584 39.5847 51.3585 39.6556 72.0008 28.9951C86.6222 21.4433 99.2128 9.15956 111.002 -5.00732C118.828 -14.4125 126.321 -24.6742 133.824 -34.9494L133.825 -34.951C137.618 -40.1444 141.413 -45.3413 145.254 -50.4328C168.183 -80.8217 192.816 -107.501 228.975 -108.441C254.149 -109.081 282.68 -98.8487 310.412 -85.8231C324.271 -79.3136 337.915 -72.1146 350.826 -65.2418C351.95 -64.6433 353.069 -64.0472 354.182 -63.4542C365.844 -57.2408 376.861 -51.3712 386.822 -46.6281C395.927 -42.2887 405.108 -37.7853 414.358 -33.2475L414.362 -33.2454C448.586 -16.4574 483.769 0.801323 519.635 11.9715C561.083 24.8768 594.744 13.1214 627.642 -3.53305C635.103 -7.31041 642.522 -11.3369 649.982 -15.3862C658.442 -19.9779 666.956 -24.599 675.647 -28.9188Z" fill="black"/>
<path d="M680.621 -16.7003C680.514 -16.9781 680.407 -17.2557 680.299 -17.5331C671.158 -13.9314 662.171 -10.0635 653.246 -6.22249L653.245 -6.22178C645.243 -2.77776 637.29 0.644688 629.322 3.83441C595.21 17.4892 560.734 26.9184 520.467 15.8075C484.173 5.80723 448.449 -9.27187 413.346 -24.0891L413.341 -24.0912C403.938 -28.0603 394.579 -32.0105 385.266 -35.8393C374.557 -40.2408 362.687 -45.7878 350.122 -51.6593L348.263 -52.5278C335.015 -58.7175 321.033 -65.2175 306.875 -71.0681C278.574 -82.764 249.511 -91.8932 224.146 -90.7406C188.264 -89.1156 164.778 -62.8975 143.215 -33.5686C139.698 -28.7839 136.232 -23.9176 132.771 -19.0585L132.77 -19.0562C125.605 -8.99595 118.462 1.0338 110.923 10.2465C99.7475 23.9019 87.7452 35.7046 73.6093 43.0615C51.9241 54.3506 28.9811 53.4484 5.55862 46.7022C5.5054 46.9966 5.45254 47.2912 5.40004 47.5859C28.9334 54.3489 52.0956 55.268 74.022 43.8532C88.3151 36.4146 100.409 24.5043 111.614 10.8116C119.173 1.57547 126.347 -8.49773 133.522 -18.5729L133.525 -18.5772C136.981 -23.4288 140.436 -28.2809 143.935 -33.0401C165.508 -62.3822 188.769 -88.2448 224.187 -89.8488C249.342 -90.9918 278.249 -81.9324 306.534 -70.2432C320.67 -64.4013 334.635 -57.9095 347.885 -51.7191L349.752 -50.8468L349.753 -50.8461C362.31 -44.9783 374.197 -39.4233 384.926 -35.0137C394.223 -31.1916 403.571 -27.2456 412.969 -23.2789C448.079 -8.45853 483.874 6.65066 520.23 16.6681C560.781 27.8575 595.484 18.3414 629.654 4.6631C637.669 1.45483 645.651 -1.98025 653.672 -5.43194C662.575 -9.26348 671.526 -13.1155 680.621 -16.7003Z" fill="black"/>
<path d="M685.179 -4.1613C685.082 -4.44324 684.985 -4.72503 684.888 -5.00666C675.656 -2.31661 666.526 0.576578 657.44 3.45558C648.87 6.17111 640.339 8.87425 631.801 11.3821C596.291 21.8131 560.593 28.8942 521.106 19.6627C484.249 11.054 447.822 -1.71185 411.832 -14.3247C402.289 -17.6689 392.777 -21.0024 383.296 -24.2447C371.672 -28.2169 358.79 -33.3446 345.202 -38.7533L345.172 -38.7652C331.577 -44.1766 317.281 -49.867 302.854 -54.9505C274.013 -65.1133 244.595 -72.8736 219.161 -71.1136C183.103 -68.6254 161.743 -42.8472 142.188 -14.5085C139.577 -10.7253 136.999 -6.89718 134.423 -3.07108C127.333 7.45659 120.254 17.9689 112.533 27.4868C102.013 40.4562 90.3363 51.5311 75.8999 58.2135C52.1629 69.2065 27.9029 67.3866 3.45821 59.7191C3.41575 60.0178 3.37365 60.3166 3.33198 60.6155C27.8614 68.2867 52.3162 70.1195 76.2755 59.0236C90.8867 52.2602 102.666 41.0694 113.228 28.0489C120.976 18.4974 128.088 7.93529 135.185 -2.60338C137.757 -6.4223 140.326 -10.2381 142.923 -14.0017C162.483 -42.3474 183.628 -67.7668 219.223 -70.223C244.462 -71.9695 273.732 -64.2659 302.557 -54.1086C316.964 -49.032 331.244 -43.3483 344.841 -37.9359L344.885 -37.9185C358.462 -32.5142 371.361 -27.3795 383.007 -23.4C392.473 -20.1628 401.975 -16.8328 411.511 -13.4908C447.507 -0.875691 483.994 11.9112 520.903 20.532C560.618 29.817 596.498 22.6827 632.053 12.2386C640.631 9.71912 649.186 7.00834 657.771 4.2881C666.853 1.41048 675.969 -1.47773 685.179 -4.1613Z" fill="black"/>
<path d="M689.329 8.79673C689.243 8.51028 689.157 8.22399 689.071 7.93785C680.296 9.70499 671.549 11.6054 662.816 13.5029C655.092 15.1812 647.378 16.8573 639.665 18.4367C604.224 25.6935 568.761 30.9196 532.134 25.0552C487.655 17.9422 443.816 5.41889 400.216 -7.03634C384.004 -11.6678 367.824 -16.2898 351.657 -20.6208C342.175 -23.1565 331.957 -26.3311 321.312 -29.6384L319.522 -30.1945C308.236 -33.6997 296.497 -37.32 284.686 -40.4524C261.074 -46.715 237.128 -51.0412 215.884 -48.5842C178.996 -44.3212 158.836 -19.0308 140.046 8.11308C138.286 10.6547 136.539 13.2122 134.791 15.7704L134.785 15.7788C117.835 40.5885 100.839 65.4646 72.3405 76.5678C49.5507 85.457 25.7972 82.454 1.71205 74.1361C1.68151 74.4406 1.65133 74.7453 1.62159 75.0501C25.7581 83.356 49.6758 86.3665 72.6651 77.3995C101.437 66.19 118.591 41.0741 135.512 16.3006C137.266 13.7317 139.018 11.1665 140.78 8.62093C159.571 -18.5231 179.53 -43.4843 215.987 -47.6974C237.058 -50.1344 260.869 -45.8457 284.457 -39.5896C296.247 -36.4626 307.969 -32.8476 319.257 -29.3421L321.052 -28.7844C331.691 -25.4787 341.925 -22.299 351.426 -19.7584C367.561 -15.4361 383.721 -10.8195 399.923 -6.19123C443.54 6.26897 487.456 18.8146 531.993 25.9367C568.786 31.8279 604.383 26.5723 639.844 19.3112C647.581 17.727 655.311 16.0477 663.044 14.3674C671.794 12.4664 680.55 10.564 689.329 8.79673Z" fill="black"/>
<path d="M692.839 21.3949C692.764 21.1035 692.688 20.8122 692.612 20.5211C684.093 21.4181 675.582 22.3875 667.077 23.3563C659.002 24.276 650.931 25.1954 642.863 26.0515C606.352 29.9263 569.873 32.5134 533.127 28.0547C488.091 22.5841 443.426 13.1459 398.886 3.73412C382.447 0.26042 366.026 -3.20968 349.609 -6.4754C339.268 -8.52922 328.171 -11.2182 316.666 -14.0106L316.346 -14.0884C304.943 -16.8559 293.145 -19.7193 281.307 -22.1564C257.414 -27.0748 233.311 -30.2665 211.887 -27.4182C176.356 -22.6983 157.304 1.28007 139.575 26.9291C137.948 29.2824 136.333 31.6494 134.717 34.0169C118.692 57.4981 102.625 81.04 75.141 91.8809C51.4209 101.237 26.2415 97.3945 0.59789 87.9882C0.579058 88.2986 0.560589 88.609 0.542557 88.9196C26.2128 98.2997 51.5494 102.146 75.4691 92.7113C103.224 81.7638 119.446 57.986 135.443 34.5391L135.445 34.5359C137.065 32.1614 138.683 29.7904 140.31 27.4365C158.035 1.79333 176.893 -21.8689 212.005 -26.5333C233.275 -29.361 257.257 -26.1957 281.127 -21.282C292.95 -18.8481 304.735 -15.9878 316.142 -13.2192L316.455 -13.1431C327.957 -10.3517 339.072 -7.65796 349.434 -5.59982C365.827 -2.33893 382.234 1.12803 398.664 4.59986L398.666 4.60041C443.219 14.0148 487.941 23.4652 533.019 28.9409C569.87 33.4124 606.433 30.8154 642.958 26.9393C651.041 26.0814 659.121 25.1611 667.202 24.2407L667.204 24.2405C675.746 23.2675 684.29 22.2944 692.839 21.3949Z" fill="black"/>
<path d="M695.819 33.8633C695.754 33.5667 695.688 33.2702 695.622 32.9738C687.657 33.1078 679.692 33.2664 671.727 33.4249H671.726C663.192 33.5948 654.659 33.7646 646.129 33.9042C608.749 34.5159 571.4 34.547 534.145 31.4587C488.472 27.6835 442.981 21.3562 397.532 15.0348L397.53 15.0345C381.038 12.7407 364.552 10.4477 348.065 8.27766C337.39 6.87272 326.058 4.91299 314.381 2.86119C313.487 2.70408 312.59 2.54643 311.692 2.38845C300.865 0.483803 289.766 -1.46872 278.653 -3.10182C254.588 -6.63825 230.417 -8.68358 208.725 -5.4952C174.578 -0.483377 156.437 22.0678 139.552 46.1147C138.039 48.2685 136.537 50.434 135.035 52.6C119.735 74.6542 104.397 96.7646 77.8681 107.219C53.3819 116.872 26.9867 112.267 0.0255791 101.935C0.0188169 102.251 0.0124183 102.568 0.00645598 102.884C26.9699 113.176 53.5129 117.78 78.1958 108.049C104.991 97.4902 120.484 75.1506 135.756 53.1281L135.766 53.1142C137.27 50.945 138.773 48.7789 140.283 46.6274C157.16 22.5922 175.111 0.340736 208.855 -4.61197C230.413 -7.78072 254.479 -5.75195 278.523 -2.21858C289.624 -0.587304 300.712 1.36322 311.541 3.26838L314.226 3.74042C325.901 5.7919 337.251 7.75493 347.948 9.16276C364.422 11.3309 380.899 13.6228 397.387 15.916C442.843 22.2385 488.371 28.571 534.071 32.3484C571.373 35.4405 608.758 35.4086 646.143 34.7968C654.676 34.6572 663.209 34.4873 671.741 34.3175L671.755 34.3172C679.778 34.1576 687.799 33.9979 695.819 33.8633Z" fill="black"/>
<path d="M698.306 46.2506C698.251 45.9488 698.196 45.6472 698.14 45.3457C687.545 44.6815 676.95 44.0058 666.354 43.3302C622.657 40.5437 578.96 37.7572 535.214 35.7711C488.604 33.6525 442.051 30.4052 395.496 27.1578C379.416 26.0362 363.337 24.9145 347.254 23.8394C334.549 22.9863 321.154 21.4946 307.45 19.9684C297.443 18.8538 287.27 17.721 277.082 16.8051C252.973 14.6379 228.836 13.6939 206.828 17.1334C174.028 22.2466 156.507 43.2737 140.166 65.6298C138.733 67.5906 137.308 69.5613 135.884 71.5324C121.046 92.0653 106.177 112.641 80.547 122.555C55.3613 132.311 27.986 127.059 -1.53382e-05 115.996C0.00572886 116.319 0.011982 116.642 0.0185988 116.964C27.9844 127.973 55.4943 133.217 80.8695 123.388C106.76 113.374 121.783 92.5786 136.595 72.0742C138.025 70.0955 139.452 68.1196 140.887 66.1563C157.217 43.817 174.55 23.0687 206.966 18.0155C228.863 14.5933 252.912 15.5287 277.002 17.6942C287.143 18.6059 297.303 19.737 307.309 20.8511L307.312 20.8514C321.042 22.3801 334.484 23.8767 347.194 24.7301C363.271 25.8049 379.347 26.9263 395.425 28.0478C441.983 31.2954 488.551 34.5438 535.174 36.6629C578.917 38.6489 622.592 41.434 666.275 44.2197L666.279 44.22L666.286 44.2204C676.959 44.901 687.632 45.5816 698.306 46.2506Z" fill="black"/>
<path d="M700.339 58.6776C700.295 58.3715 700.25 58.0655 700.205 57.7596C691.658 56.6394 683.118 55.4824 674.579 54.3256L674.57 54.3244C667.135 53.3171 659.701 52.3099 652.263 51.3272C613.84 46.2499 575.346 41.8258 536.335 41.4219C494.356 41.0014 452.376 40.8276 410.398 40.6538H410.395L410.361 40.6537C389.383 40.5668 368.405 40.48 347.429 40.3623C333.249 40.2828 318.463 39.5519 303.45 38.8098L303.448 38.8097C294.65 38.3748 285.774 37.9361 276.896 37.6223C252.888 36.7738 228.899 36.8418 206.549 40.3931C175.01 45.4168 157.737 64.8223 141.555 85.3986C140.161 87.1707 138.775 88.9512 137.39 90.7319C122.668 109.651 107.926 128.596 83.0775 137.816C57.1947 147.416 29.1513 141.679 0.532377 130.136C0.551355 130.465 0.570696 130.794 0.590547 131.123C29.1698 142.599 57.3302 148.318 83.3886 138.653C108.488 129.34 123.383 110.193 138.082 91.298L138.1 91.2749C139.484 89.4949 140.867 87.7172 142.257 85.9502C158.423 65.3943 175.512 46.2408 206.689 41.2747C228.952 37.7373 252.871 37.6665 276.865 38.5145C285.714 38.8272 294.577 39.2653 303.371 39.6998L303.374 39.7C318.403 40.4428 333.228 41.1754 347.424 41.255C368.413 41.3728 389.401 41.4596 410.389 41.5465H410.398C452.375 41.7203 494.35 41.8941 536.326 42.3146C575.279 42.7179 613.728 47.1357 652.146 52.2122C659.58 53.1944 667.012 54.2014 674.447 55.2086C683.073 56.3773 691.702 57.5463 700.339 58.6776Z" fill="black"/>
<path d="M701.942 71.3237C701.908 71.0146 701.874 70.7056 701.84 70.3967C693.347 68.8179 684.868 67.1776 676.392 65.5377L676.391 65.5375C669.177 64.1419 661.966 62.7467 654.749 61.3902C616.128 54.1303 577.372 47.9798 537.482 48.8386C513.58 49.3584 489.157 49.5971 464.46 49.8385L464.457 49.8386C378.916 50.6747 290.091 51.5429 208.267 64.2321C177.904 68.9501 160.43 86.6555 143.925 105.371C142.553 106.927 141.188 108.49 139.823 110.052L139.809 110.067C124.74 127.315 109.665 144.569 85.3605 152.898C58.7427 162.027 30.4061 156.003 1.63083 144.277C1.66362 144.612 1.69692 144.947 1.73066 145.282C30.4504 156.93 58.8809 162.924 85.6503 153.742C110.192 145.332 125.42 127.899 140.468 110.672C141.843 109.098 143.216 107.525 144.595 105.962C161.082 87.2665 178.375 69.7805 208.404 65.1143C290.158 52.436 378.894 51.5683 464.424 50.732C489.132 50.4904 513.573 50.2515 537.501 49.7311C577.293 48.8744 615.972 55.0094 654.584 62.2675C661.785 63.6211 668.983 65.0138 676.187 66.4074L676.205 66.4109C684.774 68.0688 693.349 69.7279 701.942 71.3237Z" fill="black"/>
<path d="M703.103 84.2543C703.08 83.9436 703.058 83.6329 703.035 83.3224C694.546 81.3646 686.076 79.3164 677.606 77.2686C672.12 75.942 666.634 74.6156 661.145 73.3141C623.983 64.5028 586.661 56.8335 547.905 58.0211C437.273 61.4021 320.359 73.5383 210.725 88.297C181.077 92.2916 162.376 109.44 144.305 127.08C143.417 127.946 142.532 128.813 141.646 129.68C124.478 146.49 107.432 163.18 81.5666 169.181C55.6057 175.213 29.4796 169.298 3.32988 158.602C3.3775 158.943 3.42564 159.285 3.47421 159.626C29.5567 170.235 55.7248 176.102 81.7687 170.051C107.885 163.991 125.097 147.136 142.231 130.357C143.13 129.477 144.029 128.597 144.929 127.719C163 110.079 181.514 93.1335 210.845 89.1817C320.463 74.4252 437.343 62.2932 547.933 58.9134C586.561 57.7297 623.783 65.373 660.938 74.1827C666.42 75.4825 671.901 76.8077 677.385 78.1337C685.945 80.2036 694.513 82.2754 703.103 84.2543Z" fill="black"/>
<path d="M703.821 98.167C703.811 97.8575 703.8 97.5482 703.79 97.239C694.538 94.9351 685.319 92.4893 676.103 90.0443C671.412 88.7998 666.722 87.5555 662.029 86.3302C625.054 76.6772 587.9 68.2091 548.78 70.2059C493.677 73.0072 438.378 80.6919 383.162 89.2252C371.226 91.0699 359.293 92.9542 347.368 94.8375L347.365 94.8379C304.119 101.667 260.961 108.483 218.006 113.346C188.846 116.654 168.622 131.753 148.917 147.22C148.064 147.889 147.213 148.559 146.361 149.229C127.518 164.05 108.827 178.753 82.8231 183.582C56.4674 188.472 30.8619 182.661 5.54328 172.445C5.60581 172.792 5.66886 173.138 5.73241 173.484C30.9729 183.606 56.5913 189.357 82.9862 184.459C109.212 179.589 128.062 164.76 146.872 149.964C147.737 149.283 148.603 148.602 149.469 147.922C169.175 132.455 189.222 117.509 218.107 114.233C261.083 109.367 304.267 102.548 347.516 95.7179C359.44 93.8349 371.368 91.9512 383.299 90.1074C438.51 81.5749 493.771 73.8964 548.825 71.0974C587.796 69.1083 624.833 77.5422 661.803 87.194C666.49 88.4177 671.177 89.6611 675.866 90.9053L675.868 90.9056C685.165 93.3724 694.473 95.842 703.821 98.167Z" fill="black"/>
<path d="M703.995 112.139C703.997 111.834 703.999 111.529 704 111.223C695.533 109.241 687.08 107.163 678.628 105.086C672.613 103.608 666.597 102.129 660.578 100.685C623.188 91.7161 585.635 84.0771 546.836 86.0483C472.291 89.818 396.601 100.838 321.613 111.756C288.689 116.55 255.9 121.324 223.403 125.455C194.293 129.154 172.591 144.213 151.318 159.51C150.591 160.032 149.865 160.555 149.139 161.078C128.592 175.871 108.23 190.53 81.665 195.261C56.7899 199.691 32.3976 194.794 8.21783 185.777C8.29439 186.124 8.37139 186.47 8.44898 186.816C32.5444 195.739 56.9293 200.573 81.8217 196.14C108.591 191.372 129.103 176.604 149.612 161.838C150.355 161.303 151.097 160.769 151.84 160.235C173.122 144.931 194.657 130.008 223.516 126.341C256.047 122.205 288.856 117.428 321.791 112.633L321.792 112.632C396.759 101.718 472.38 90.7073 546.881 86.9399C585.542 84.9757 622.988 92.5862 660.369 101.553C666.377 102.995 672.384 104.471 678.394 105.948L678.398 105.949C686.919 108.044 695.448 110.14 703.995 112.139Z" fill="black"/>
<path d="M703.541 127.805C703.556 127.505 703.571 127.205 703.586 126.904C695.031 125.251 686.485 123.526 677.938 121.8C669.484 120.094 661.029 118.387 652.567 116.75C613.212 109.137 573.716 103.035 533.425 105.498C433.58 111.604 330.709 122.932 231.629 136.505C202.679 140.467 179.7 154.134 157.161 168.251C155.864 169.063 154.569 169.877 153.274 170.69C132.044 184.026 110.93 197.29 85.2084 202.883C60.0834 208.337 35.3258 204.503 10.7492 196.438C10.8361 196.78 10.9235 197.122 11.0114 197.463C35.5073 205.439 60.2569 209.213 85.3982 203.755C111.278 198.128 132.517 184.785 153.72 171.464C155.025 170.645 156.33 169.825 157.636 169.007C180.177 154.889 203.01 141.323 231.751 137.39C330.816 123.819 433.664 112.493 533.479 106.389C573.652 103.933 613.055 110.016 652.398 117.627C660.842 119.26 669.284 120.964 677.73 122.669L677.734 122.67C686.33 124.405 694.93 126.142 703.541 127.805Z" fill="black"/>
<path d="M702.317 144.264C702.346 143.968 702.375 143.672 702.403 143.375C693.554 142.109 684.706 140.789 675.855 139.469L675.85 139.468C666.35 138.051 656.847 136.634 647.338 135.282C607.41 129.605 567.397 125.085 527.123 126.613C432.393 130.195 333.783 134.787 239.714 146.469C209.841 150.176 184.602 163.202 159.714 176.65C158.347 177.388 156.98 178.128 155.615 178.868C132.099 191.606 108.691 204.285 81.6836 209.516C58.3872 214.02 35.6171 211.368 13.0923 205.182C13.1866 205.517 13.2814 205.852 13.3768 206.186C35.8236 212.294 58.5678 214.894 81.8534 210.392C109 205.134 132.521 192.394 156.01 179.67L156.017 179.666C157.391 178.922 158.765 178.178 160.139 177.435C185.033 163.984 210.138 151.039 239.824 147.355C333.852 135.678 432.427 131.087 527.157 127.505C567.347 125.98 607.294 130.491 647.212 136.166C656.709 137.516 666.204 138.932 675.701 140.349L675.704 140.349C684.573 141.672 693.444 142.995 702.317 144.264Z" fill="black"/>
<path d="M700.136 161.937C700.18 161.641 700.223 161.346 700.267 161.05C690.981 160.477 681.691 159.896 672.396 159.315L672.391 159.315C531.356 150.502 389.339 141.627 248.51 155.902C217.297 159.064 189.564 171.16 162.11 183.712C160.488 184.454 158.866 185.198 157.244 185.941C131.415 197.783 105.669 209.586 77.2505 214.382C56.0492 217.961 35.4258 216.352 15.0811 211.973C15.1801 212.299 15.2796 212.624 15.3796 212.95C35.6487 217.268 56.231 218.835 77.3992 215.262C105.938 210.446 131.786 198.596 157.591 186.765L157.654 186.735C159.264 185.998 160.873 185.26 162.482 184.524C189.942 171.969 217.552 159.936 248.601 156.791C389.349 142.524 531.278 151.392 672.31 160.205L672.321 160.205C681.597 160.785 690.868 161.364 700.136 161.937Z" fill="black"/>
<path d="M697.293 178.312C697.352 178.015 697.41 177.718 697.468 177.421C682.652 177.219 667.835 177.058 653.02 176.896H653.018C605.4 176.376 557.79 175.857 510.19 174.014C483.822 172.993 457.023 171.137 430.071 169.269C372.466 165.278 314.157 161.239 257.84 165.21C225.062 167.523 194.585 177.919 164.35 189.133C160.916 190.407 157.485 191.691 154.055 192.975C127.263 203.002 100.477 213.028 72.1972 218.041C53.5641 221.338 35.2095 220.814 17.0002 218.085C17.1027 218.401 17.2058 218.717 17.3091 219.033C35.4481 221.716 53.7575 222.21 72.3531 218.92C100.72 213.892 127.586 203.836 154.368 193.811C157.8 192.526 161.23 191.243 164.661 189.97C194.894 178.757 225.265 168.404 257.903 166.101C314.158 162.134 372.357 166.166 429.928 170.155L429.931 170.155C456.898 172.024 483.728 173.883 510.156 174.906C557.757 176.749 605.4 177.269 653.036 177.789L653.043 177.789C667.794 177.95 682.545 178.111 697.293 178.312Z" fill="black"/>
<path d="M693.477 195.331C693.553 195.029 693.628 194.726 693.703 194.424C680.722 195.178 667.733 196.061 654.742 196.944L654.736 196.944C644.921 197.612 635.106 198.279 625.294 198.89C583.558 201.492 541.864 203.085 500.417 199.393C472.336 196.886 443.862 192.56 415.251 188.214C404.867 186.637 394.466 185.056 384.058 183.559C344.985 177.939 305.844 173.495 267.35 174.795C232.875 175.958 199.576 184.828 166.476 194.73C161.265 196.289 156.059 197.874 150.854 199.458C122.984 207.94 95.1455 216.413 66.7016 220.915C50.4221 223.49 34.3373 223.605 18.3599 222.193C18.464 222.501 18.5685 222.808 18.6734 223.116C34.5812 224.497 50.6116 224.364 66.8413 221.797C95.3523 217.285 123.259 208.79 151.129 200.308C156.33 198.725 161.53 197.142 166.733 195.585C199.826 185.685 233.03 176.846 267.38 175.687C305.792 174.39 344.868 178.825 383.931 184.443C394.322 185.938 404.714 187.516 415.092 189.093L415.093 189.093C443.713 193.441 472.227 197.772 500.337 200.282C541.855 203.981 583.605 202.383 625.35 199.781C635.175 199.169 645 198.501 654.821 197.833C667.714 196.957 680.601 196.081 693.477 195.331Z" fill="black"/>
<path d="M688.791 212.218C688.886 211.906 688.981 211.594 689.075 211.281C675.712 213.016 662.298 215.002 648.868 216.992C638.239 218.566 627.6 220.142 616.968 221.595C574.344 227.422 531.797 231.286 490.292 225.254C462.361 221.186 434.36 214.129 406.257 207.047L406.255 207.047C398.834 205.176 391.406 203.305 383.971 201.486C348.392 192.781 312.655 185.29 276.786 185.038C240.599 184.785 204.476 192.036 168.503 200.532C161.086 202.284 153.676 204.089 146.273 205.891C117.755 212.836 89.3413 219.755 61.0315 223.537C47.0859 225.405 33.2455 225.875 19.4666 225.416C19.5718 225.717 19.6772 226.018 19.7832 226.319C33.4896 226.76 47.2658 226.282 61.15 224.422C89.5112 220.633 117.984 213.699 146.507 206.753L146.509 206.753C153.906 204.952 161.306 203.149 168.708 201.401C204.672 192.907 240.707 185.678 276.78 185.93C312.538 186.182 348.189 193.651 383.759 202.353C391.177 204.168 398.593 206.036 406.005 207.904L406.013 207.906C434.122 214.99 462.182 222.062 490.163 226.137C531.799 232.188 574.451 228.308 617.089 222.48C627.745 221.023 638.399 219.445 649.036 217.87C662.323 215.902 675.584 213.937 688.791 212.218Z" fill="black"/>
<path d="M683.243 228.904C683.36 228.578 683.478 228.252 683.594 227.925C670.109 230.576 656.487 233.593 642.809 236.623L642.807 236.623C630.233 239.409 617.612 242.204 605.004 244.736C559.991 253.774 515.125 259.457 473.037 249.403C449.458 243.772 425.678 234.548 401.698 225.247C394.721 222.541 387.728 219.828 380.718 217.195C349.636 205.523 318.243 195.433 286.667 194.573C250.299 193.576 212.604 199.114 174.992 205.983C164.697 207.863 154.411 209.842 144.159 211.815L144.151 211.816C116.933 217.054 89.9592 222.244 63.7387 225.403C49.2249 227.152 34.7869 227.917 20.3907 228.032C20.497 228.329 20.6036 228.625 20.7106 228.922C35.0314 228.799 49.3995 228.03 63.8457 226.29C90.0988 223.127 117.118 217.928 144.346 212.688L144.349 212.688L144.352 212.687C154.599 210.715 164.876 208.738 175.152 206.861C212.753 199.994 250.372 194.471 286.642 195.466C318.059 196.321 349.331 206.362 380.403 218.031C387.391 220.655 394.37 223.362 401.337 226.065C425.327 235.37 449.186 244.625 472.829 250.271C515.118 260.373 560.148 254.654 605.18 245.611C617.829 243.071 630.476 240.27 643.063 237.482L643.065 237.481C656.548 234.495 669.964 231.523 683.243 228.904Z" fill="black"/>
<path d="M676.876 245.254C677.019 244.911 677.162 244.568 677.304 244.225C663.443 247.716 649.412 251.68 635.309 255.665L635.308 255.665C622.727 259.22 610.089 262.79 597.466 266.055C551.748 277.877 506.179 285.7 463.883 274.406C439.595 267.92 416.557 255.595 393.423 243.218C389.261 240.991 385.096 238.763 380.92 236.567C353.559 222.177 325.744 209.174 295.394 207.213C257.464 204.75 217.247 208.571 177.04 213.837C164.093 215.533 151.15 217.379 138.284 219.213L138.283 219.214C111.176 223.079 84.4117 226.895 58.6781 229.161C46.3397 230.245 34.003 231.007 21.666 231.537C21.7744 231.83 21.8833 232.123 21.9925 232.416C34.2489 231.886 46.5035 231.127 58.7565 230.05C84.5144 227.782 111.32 223.96 138.441 220.093C151.301 218.259 164.232 216.416 177.156 214.723C217.351 209.457 257.497 205.647 295.336 208.103C325.48 210.052 353.147 222.969 380.504 237.357C384.668 239.547 388.825 241.771 392.982 243.995C416.112 256.371 439.256 268.753 463.653 275.268C506.189 286.627 551.955 278.746 597.69 266.919C610.361 263.642 623.028 260.063 635.625 256.504C649.488 252.588 663.267 248.695 676.876 245.254Z" fill="black"/>
<path d="M669.245 262.201C669.422 261.835 669.598 261.468 669.773 261.101C666.672 262.065 663.557 263.056 660.43 264.069C650.33 267.341 640.116 270.833 629.834 274.348L629.831 274.349C616.8 278.805 603.661 283.297 590.507 287.424C543.47 302.185 496.645 312.141 455.551 298.605C432.61 291.047 412.124 276.993 391.571 262.894C388.112 260.521 384.651 258.147 381.177 255.802C357.084 239.545 332.342 224.72 303.059 221.82C263.681 217.931 221.258 219.92 178.769 223.43C162.927 224.739 147.081 226.259 131.378 227.765L131.377 227.765L131.375 227.765C104.945 230.299 78.9235 232.795 54.0218 234.179C43.7957 234.75 33.5761 235.37 23.3608 236.024C23.473 236.315 23.5857 236.606 23.6987 236.897C33.8221 236.25 43.9462 235.636 54.0714 235.071C78.9881 233.685 105.046 231.187 131.493 228.651L131.498 228.65C147.195 227.145 163.029 225.627 178.842 224.32C221.318 220.811 263.677 218.827 302.971 222.708C332.011 225.585 356.59 240.288 380.677 256.542C384.14 258.878 387.593 261.248 391.047 263.618C411.594 277.714 432.199 291.852 455.271 299.453C496.661 313.086 543.733 303.037 590.775 288.276C603.922 284.151 617.097 279.647 630.149 275.184L630.154 275.183C640.438 271.667 650.646 268.177 660.706 264.918C663.564 263.993 666.41 263.085 669.245 262.201Z" fill="black"/>
<path d="M660.213 279.648C660.432 279.252 660.651 278.856 660.868 278.46C659.295 279.03 657.718 279.607 656.136 280.191C645.841 283.992 635.376 288.065 624.812 292.176C611.54 297.341 598.111 302.567 584.668 307.391C536.406 324.708 488.398 336.665 448.399 321.518C426.444 313.202 408.299 298.085 390.126 282.945L390.123 282.943C387.198 280.506 384.272 278.068 381.33 275.658C360.132 258.298 338.087 242.398 309.306 238.824C250.66 231.536 185.115 234.808 122.198 237.95C97.5272 239.181 73.2599 240.393 49.9712 240.94C41.8561 241.129 33.7834 241.509 25.7435 242.037C25.8618 242.328 25.9804 242.619 26.0994 242.909C34.0294 242.392 41.9905 242.019 49.9922 241.832C73.3341 241.284 97.6343 240.071 122.325 238.838L122.326 238.838C185.213 235.698 250.632 232.432 309.196 239.71C337.703 243.25 359.576 258.997 380.763 276.349C383.696 278.75 386.615 281.183 389.538 283.618C407.702 298.753 425.976 313.979 448.082 322.352C488.421 337.628 536.722 325.544 584.969 308.231C598.403 303.411 611.867 298.172 625.161 292.998L625.164 292.997L625.168 292.995C635.735 288.884 646.194 284.814 656.446 281.029C657.705 280.564 658.961 280.103 660.213 279.648Z" fill="black"/>
<path d="M652.939 292.168C653.176 291.78 653.411 291.391 653.646 291.002C630.35 298.495 607.659 307.456 584.279 316.689C578.822 318.844 573.327 321.014 567.777 323.184C564.67 324.4 561.518 325.655 558.326 326.925C541.736 333.528 524.086 340.553 506.195 344.797C484.87 349.856 463.261 350.95 442.778 342.686C421.353 334.038 405.086 318.633 388.841 303.247C386.322 300.861 383.803 298.476 381.266 296.116C362.39 278.562 342.508 262.469 313.806 258.577C248.289 249.668 175.924 249.823 106.741 249.972H106.738C86.3564 250.016 66.2511 250.059 46.6784 249.87C40.7902 249.813 34.9595 249.924 29.1767 250.177C29.3044 250.469 29.4325 250.761 29.5611 251.053C35.2156 250.812 40.9154 250.707 46.6699 250.762C66.2687 250.952 86.392 250.909 106.785 250.865C175.958 250.717 248.236 250.562 313.685 259.462C342.093 263.314 361.8 279.233 380.657 296.77C383.184 299.12 385.696 301.499 388.212 303.882C404.448 319.262 420.849 334.798 442.443 343.514C463.164 351.874 484.981 350.748 506.401 345.666C524.362 341.405 542.084 334.351 558.673 327.748L558.675 327.747C561.862 326.479 565.007 325.227 568.103 324.015C573.654 321.845 579.15 319.675 584.606 317.52C607.664 308.414 630.024 299.585 652.939 292.168Z" fill="black"/>
<path d="M641.636 309.557C641.927 309.138 642.216 308.718 642.505 308.298C622.556 315.42 602.994 323.643 582.85 332.11L582.844 332.113C576.951 334.59 571.008 337.088 564.992 339.585C562.353 340.68 559.661 341.81 556.924 342.959C540.301 349.938 521.971 357.633 503.305 362.43C481.569 368.016 459.439 369.654 439.087 361.68C417.697 353.302 402.613 338.506 387.604 323.782L387.603 323.781C385.377 321.597 383.152 319.415 380.908 317.256C363.558 300.554 345.12 285.261 316.252 281.508C228.066 270.078 133.545 265.41 44.4469 261.45C41.0094 261.298 37.6035 261.221 34.2262 261.211C34.369 261.51 34.5122 261.808 34.6558 262.105C37.8794 262.12 41.1291 262.197 44.4074 262.341C133.508 266.302 227.993 270.969 316.137 282.393C344.707 286.108 362.968 301.226 380.289 317.899C382.522 320.048 384.74 322.225 386.963 324.406L386.966 324.409C401.967 339.127 417.189 354.062 438.761 362.512C459.361 370.582 481.705 368.903 503.528 363.295C522.263 358.48 540.659 350.756 557.279 343.778C560.014 342.63 562.702 341.502 565.334 340.41C571.356 337.91 577.302 335.411 583.196 332.934L583.198 332.933C602.953 324.63 622.125 316.571 641.636 309.557Z" fill="black"/>
<path d="M627.554 328.5C627.92 328.04 628.285 327.58 628.649 327.119C613.601 332.921 598.65 339.258 583.357 345.739C577.24 348.331 571.068 350.947 564.814 353.561C562.494 354.53 560.13 355.527 557.725 356.541C540.911 363.634 522.15 371.546 503.013 376.547C481.141 382.263 458.838 384.159 438.446 376.711C416.949 368.863 401.966 354.922 387.077 341.067C384.953 339.091 382.831 337.116 380.692 335.161C363.572 319.514 345.414 305.175 316.729 301.638C227.245 290.613 134.627 281.051 44.5074 275.072C43.3803 274.997 42.2572 274.931 41.1378 274.873C41.3017 275.18 41.4659 275.487 41.6306 275.793C42.5671 275.844 43.5062 275.9 44.448 275.963C134.547 281.941 227.147 291.501 316.62 302.524C345.019 306.026 363.004 320.205 380.089 335.82C382.218 337.766 384.333 339.735 386.454 341.708L386.459 341.713C401.34 355.563 416.461 369.635 438.14 377.55C458.776 385.087 481.287 383.148 503.239 377.411C522.444 372.392 541.268 364.452 558.078 357.362C560.481 356.348 562.843 355.352 565.159 354.384C571.419 351.768 577.593 349.151 583.711 346.559C598.525 340.281 613.006 334.144 627.554 328.5Z" fill="black"/>
<path d="M609.656 349.261C610.126 348.757 610.595 348.251 611.062 347.744C602.144 351.268 593.197 354.911 584.142 358.599C578.466 360.91 572.747 363.239 566.965 365.567C564.343 366.622 561.672 367.709 558.957 368.814C542.246 375.617 523.886 383.09 505.191 387.826C483.461 393.331 461.337 395.122 440.891 387.886C419.451 380.311 403.916 366.893 388.45 353.535L388.448 353.533C386.318 351.693 384.189 349.855 382.046 348.033C364.358 332.991 345.75 319.114 317.719 315.337C229.622 303.48 138.823 293.388 50.094 286.122C49.1554 286.045 48.2193 285.975 47.2858 285.91C47.4666 286.222 47.6479 286.533 47.8297 286.844C48.5586 286.896 49.289 286.952 50.021 287.012C138.733 294.277 229.516 304.366 317.599 316.222C345.365 319.963 363.808 333.696 381.467 348.713C383.604 350.529 385.729 352.366 387.859 354.205C403.316 367.558 418.983 381.092 440.593 388.727C461.276 396.047 483.6 394.217 505.41 388.692C524.171 383.939 542.595 376.439 559.302 369.638C562.015 368.534 564.683 367.448 567.299 366.395C573.084 364.066 578.804 361.737 584.479 359.426C592.949 355.977 601.319 352.569 609.656 349.261Z" fill="black"/>
<path d="M572.846 383.521C573.569 382.938 574.289 382.352 575.008 381.764C529.423 398.814 484.254 410.265 445.174 397.368C423.625 390.261 407.251 377.66 390.914 365.086C388.817 363.473 386.721 361.859 384.615 360.258C366.11 346.192 346.839 333.09 319.516 329.086C233.622 316.523 146.359 304.439 60.0028 295.054C57.4402 294.776 54.8936 294.55 52.3619 294.374C52.5553 294.686 52.7491 294.999 52.9435 295.31C55.2518 295.478 57.5725 295.688 59.9064 295.941C146.245 305.324 233.496 317.407 319.387 329.97C346.473 333.938 365.592 346.92 384.074 360.969C386.176 362.566 388.269 364.178 390.366 365.791C406.693 378.359 423.191 391.058 444.894 398.215C483.576 410.982 528.081 400.067 572.846 383.521Z" fill="black"/>
<path d="M547.099 402.42C547.873 401.904 548.646 401.385 549.416 400.862C515.075 410.357 481.567 414.465 451.019 405.361C429.184 398.861 411.667 387.307 394.146 375.75C392.179 374.452 390.211 373.154 388.238 371.864C368.701 359.088 348.581 347.027 322.021 342.786C291.357 337.897 260.691 332.766 230.014 327.633L230.012 327.632C177.757 318.889 125.469 310.14 73.097 302.573C67.5359 301.769 62.0203 301.244 56.5446 300.967C56.7454 301.276 56.9467 301.584 57.1484 301.892C62.3843 302.176 67.656 302.688 72.9689 303.457C125.333 311.022 177.602 319.768 229.848 328.51L229.86 328.512C260.536 333.645 291.204 338.777 321.881 343.667C348.24 347.877 368.226 359.844 387.748 372.611C389.714 373.896 391.675 375.19 393.637 376.484L393.658 376.498C411.167 388.048 428.794 399.676 450.764 406.216C480.77 415.159 513.563 411.438 547.099 402.42Z" fill="black"/>
<path d="M526.44 415.186C527.157 414.777 527.872 414.365 528.585 413.951C504.313 417.813 480.585 418.148 457.997 412.294C435.351 406.418 415.843 396.011 396.242 385.553L396.241 385.553C394.982 384.881 393.724 384.21 392.463 383.539C371.59 372.43 350.387 361.597 325.043 356.537C303.19 352.169 281.337 347.754 259.479 343.338L259.472 343.337C202.443 331.816 145.38 320.288 88.2134 309.564C78.9677 307.83 69.7189 306.989 60.472 306.877C60.6763 307.177 60.8809 307.478 61.0861 307.778C70.0769 307.92 79.0655 308.757 88.0485 310.442C145.209 321.164 202.263 332.69 259.291 344.211L259.299 344.213L259.341 344.221C281.186 348.634 303.026 353.047 324.868 357.413C350.07 362.444 371.17 373.217 392.043 384.327C393.31 385.001 394.575 385.676 395.84 386.351C415.423 396.799 435.02 407.255 457.773 413.158C479.793 418.865 502.871 418.724 526.44 415.186Z" fill="black"/>
<path d="M512.169 422.907C512.807 422.58 513.445 422.252 514.081 421.921C497.73 422.778 481.597 421.861 465.807 418.42C442.238 413.286 420.7 404.059 399.041 394.779L397.577 394.152C375.435 384.669 353.121 375.228 328.402 370.21C280.74 360.538 233.455 348.681 186.188 336.829L186.181 336.827C158.867 329.978 131.56 323.13 104.19 316.707C91.374 313.696 78.2165 312.681 64.8386 313.158C65.0456 313.449 65.253 313.74 65.4608 314.03C78.5649 313.606 91.4436 314.629 103.985 317.576C131.328 323.993 158.625 330.838 185.936 337.686L185.938 337.687C233.221 349.543 280.546 361.41 328.224 371.085C352.84 376.082 375.075 385.486 397.225 394.973L398.719 395.613C420.356 404.883 441.963 414.14 465.617 419.292C480.863 422.614 496.418 423.596 512.169 422.907Z" fill="black"/>
<path d="M502.256 427.782C502.846 427.503 503.435 427.223 504.024 426.941C496.144 426.74 488.281 426.141 480.441 425.073C455.232 421.637 431.015 413.403 406.737 404.825C405.124 404.255 403.51 403.684 401.896 403.112C379.232 395.084 356.454 387.016 332.764 382.57C295.477 375.575 259.043 364.344 222.607 353.007L219.974 352.188C184.424 341.124 148.852 330.052 112.506 322.834C99.0419 320.161 84.9582 319.703 70.4799 320.866C70.6922 321.148 70.9048 321.429 71.1179 321.711C85.3248 320.611 99.1331 321.089 112.332 323.709C148.631 330.919 184.164 341.978 219.728 353.046L222.342 353.86C258.771 365.195 295.253 376.441 332.599 383.447C356.218 387.88 378.934 395.926 401.612 403.959C403.221 404.528 404.83 405.098 406.439 405.667C430.712 414.243 455.009 422.507 480.32 425.958C487.615 426.952 494.928 427.541 502.256 427.782Z" fill="black"/>
<path d="M493.443 431.797C494.013 431.547 494.581 431.296 495.149 431.043C493.078 430.877 491.007 430.687 488.936 430.47C463.599 427.812 438.14 421.602 412.708 414.848C408.023 413.604 403.337 412.341 398.654 411.078L398.608 411.066L398.605 411.065C377.897 405.483 357.226 399.911 336.704 395.991C301.027 389.174 266.353 377.423 231.717 365.335C229.27 364.481 226.823 363.625 224.376 362.77C192.198 351.517 159.995 340.255 127.037 332.7C110.901 328.995 94.9703 329.371 79.2142 331.996C79.4317 332.262 79.6496 332.527 79.8678 332.793C95.3746 330.258 111.015 329.937 126.837 333.57C159.743 341.114 191.9 352.359 224.088 363.615L224.127 363.629C226.559 364.479 228.991 365.329 231.423 366.178C266.055 378.264 300.787 390.037 336.536 396.868C357.022 400.78 377.652 406.342 398.358 411.923L398.361 411.924L398.391 411.932C403.084 413.197 407.78 414.463 412.479 415.711C437.915 422.466 463.431 428.693 488.843 431.358C490.376 431.518 491.91 431.664 493.443 431.797Z" fill="black"/>
<path d="M483.957 435.796C484.544 435.558 485.131 435.319 485.717 435.079C450.717 431.566 414.393 424.238 379.107 417.119C366.061 414.487 353.157 411.884 340.515 409.512C307.827 403.38 276.027 390.765 244.196 378.137L242.499 377.463C241.619 377.114 240.739 376.765 239.858 376.417C206.594 363.235 173.252 350.362 138.869 345.257C123.176 342.927 106.808 342.921 90.0204 344.596C90.2676 344.871 90.5152 345.146 90.7633 345.42C107.258 343.816 123.329 343.853 138.738 346.14C173.004 351.227 206.253 364.06 239.529 377.246C240.984 377.823 242.439 378.4 243.895 378.978C275.703 391.597 307.575 404.241 340.35 410.39C352.964 412.756 365.848 415.355 378.882 417.984L378.887 417.986C413.623 424.993 449.416 432.215 483.957 435.796Z" fill="black"/>
<path d="M470.619 440.875C471.291 440.635 471.962 440.393 472.632 440.148C429.67 436.576 384.964 430.341 343.867 423.159C311.262 417.47 279.642 405.088 247.992 392.695L245.418 391.687C212.924 378.969 180.372 366.431 146.747 361.377C133.17 359.336 119.042 358.942 104.538 359.809C104.824 360.091 105.109 360.372 105.396 360.653C119.561 359.851 133.355 360.267 146.614 362.26C180.124 367.296 212.585 379.795 245.092 392.518L247.701 393.54L247.702 393.541C279.325 405.923 311.019 418.333 343.714 424.038C384.211 431.116 428.219 437.275 470.619 440.875Z" fill="black"/>
<path d="M451.811 447.006C452.711 446.741 453.61 446.472 454.508 446.199C418.619 445.097 382.682 442.358 346.634 436.982C313.78 432.076 281.778 420.871 249.747 409.655L249.745 409.654L248.138 409.092C215.585 397.695 182.986 386.396 149.493 381.86C142.089 380.86 134.545 380.28 126.885 380.068C127.257 380.378 127.63 380.687 128.003 380.995C135.241 381.23 142.371 381.799 149.373 382.745C182.761 387.266 215.276 398.532 247.843 409.934L249.486 410.509C281.491 421.716 313.562 432.946 346.502 437.865C381.697 443.114 416.781 445.851 451.811 447.006Z" fill="black"/>
<path d="M400.773 458C402.245 457.796 403.713 457.583 405.178 457.361C385.883 456.28 366.643 454.702 347.477 452.494C314.109 448.647 281.135 439.203 248.107 429.743L247.797 429.654C246.423 429.26 245.048 428.867 243.673 428.473C218.726 421.336 193.738 414.334 168.548 409.891C169.254 410.323 169.962 410.752 170.672 411.179C195.033 415.625 219.227 422.408 243.427 429.331C244.913 429.757 246.399 430.182 247.886 430.608C280.893 440.062 313.932 449.525 347.375 453.381C365.117 455.425 382.922 456.929 400.773 458Z" fill="black"/>
</svg>
