<svg width="540" height="415" viewBox="0 0 540 415" fill="none" xmlns="http://www.w3.org/2000/svg">
<path d="M-84.2723 1013.02C-77.3728 1014.18 -70.479 1015.35 -63.5858 1016.53C-57.7285 1017.52 -51.8715 1018.52 -46.0119 1019.51C-43.5313 1019.93 -41.0504 1020.34 -38.5688 1020.75C-31.2135 1021.66 -23.8103 1022.41 -16.3624 1023C-26.1858 1021.48 -35.9919 1019.87 -45.7949 1018.22C-51.6484 1017.24 -57.501 1016.24 -63.3557 1015.24L-63.3587 1015.24C-76.463 1013.01 -89.5776 1010.77 -102.734 1008.67C-96.6231 1010.23 -90.4684 1011.68 -84.2723 1013.02Z" fill="black"/>
<path d="M-198.328 973.841C-197.087 974.439 -195.844 975.032 -194.598 975.62C-187.377 976.506 -180.148 977.344 -172.911 978.126C-135.399 982.19 -98.9958 989.976 -62.6173 997.756L-62.608 997.758C-56.7224 999.017 -50.8375 1000.28 -44.9486 1001.52C-2.67291 1010.44 39.7914 1018.54 84.0515 1019.92C87.144 1020.02 90.2345 1020.1 93.3232 1020.15C96.1652 1019.78 98.9998 1019.38 101.827 1018.96C95.9219 1018.91 90.0108 1018.8 84.0927 1018.62C39.9573 1017.23 -2.40955 1009.16 -44.6786 1000.24C-50.5638 998.998 -56.4473 997.74 -62.3336 996.481C-98.7086 988.701 -135.186 980.899 -172.77 976.827C-181.301 975.905 -189.819 974.905 -198.328 973.841Z" fill="black"/>
<path d="M-253.188 943.141C-252.342 943.685 -251.493 944.227 -250.644 944.766C-225.769 947.792 -201.017 950.932 -176.472 954.163C-137.046 959.351 -99.2664 969.649 -61.5236 979.938L-61.5217 979.938C-55.3978 981.608 -49.2747 983.277 -43.1458 984.924C0.738068 996.716 44.907 1007.37 91.7726 1008.77C115.821 1009.49 139.569 1008.25 163.149 1005.92C165.562 1005.25 167.969 1004.56 170.368 1003.86C144.414 1006.67 118.293 1008.26 91.8118 1007.47C45.1103 1006.07 1.06827 995.452 -42.8064 983.662C-48.9275 982.017 -55.0457 980.349 -61.1675 978.68C-98.9058 968.393 -136.78 958.068 -176.302 952.868C-201.739 949.519 -227.399 946.268 -253.188 943.141Z" fill="black"/>
<path d="M-289.02 917.896C-288.4 918.374 -287.779 918.85 -287.156 919.324C-251.247 921.642 -215.592 924.816 -180.575 929.575C-137.389 935.446 -96.7578 949.454 -56.1086 963.467L-56.1019 963.47C-50.9494 965.246 -45.7967 967.022 -40.6384 968.782C5.19211 984.419 51.44 998.747 101.638 1000.02C144.281 1001.1 185.121 993.586 225.559 984.168C227.853 983.198 230.137 982.212 232.414 981.21C189.657 991.392 146.657 999.85 101.671 998.717C51.6907 997.446 5.60898 983.18 -40.2161 967.546C-45.3727 965.786 -50.5263 964.009 -55.6819 962.232C-96.317 948.223 -137.076 934.17 -180.399 928.28C-216.075 923.432 -252.421 920.227 -289.02 917.896Z" fill="black"/>
<path d="M-316.573 895.121C-316.09 895.549 -315.606 895.977 -315.121 896.404C-271.059 895.69 -227.388 897.159 -185.216 904.428C-140.52 912.119 -98.7267 929.428 -56.9254 946.741L-56.9186 946.744C-50.5424 949.385 -44.1661 952.026 -37.7792 954.633C10.4498 974.317 59.2531 992.046 112.911 992.935C162.035 993.749 207.334 979.988 252.166 964.443C258.456 962.262 264.736 960.046 271.016 957.83C277.622 955.499 284.228 953.168 290.845 950.878C292.575 949.834 294.299 948.78 296.015 947.717C287.509 950.624 279.032 953.615 270.563 956.604L270.56 956.605C264.285 958.819 258.014 961.032 251.737 963.208C206.918 978.749 161.808 992.438 112.932 991.628C59.5398 990.744 10.9343 973.104 -37.285 953.423C-43.6625 950.82 -50.0337 948.181 -56.4083 945.541L-56.411 945.54C-98.202 928.23 -140.143 910.858 -184.994 903.141C-227.733 895.773 -271.986 894.352 -316.573 895.121Z" fill="black"/>
<path d="M-337.438 875.571C-337.04 875.965 -336.641 876.359 -336.242 876.752C-286.78 871.221 -237.595 869.041 -190.115 878.986C-144.092 888.608 -100.917 909.407 -57.6909 930.231C-50.0067 933.933 -42.3202 937.636 -34.6164 941.277C16.3839 965.379 68.1395 986.75 125.183 986.954C175.151 987.139 219.536 969.24 263.206 949.041C269.622 946.074 276.021 943.057 282.42 940.041C303.739 929.992 325.057 919.942 346.966 911.715C348.03 910.862 349.091 910.005 350.148 909.144C326.877 917.638 304.326 928.269 281.838 938.87C275.444 941.884 269.056 944.896 262.657 947.855C219.003 968.047 174.845 985.831 125.188 985.647C68.4579 985.445 16.9314 964.192 -34.0576 940.095C-41.7416 936.464 -49.4141 932.768 -57.0904 929.069L-57.0943 929.068C-100.315 908.245 -143.655 887.365 -189.847 877.707C-237.865 867.649 -287.577 869.949 -337.438 875.571Z" fill="black"/>
<path d="M-354.154 858.232C-353.812 858.603 -353.469 858.975 -353.126 859.345C-300.277 847.889 -247.484 840.555 -195.122 853.359C-147.423 865.023 -102.473 889.268 -57.4018 913.578C-48.7122 918.265 -40.0181 922.955 -31.2988 927.557C22.6003 956.006 77.4317 981.101 137.853 981.342C188.542 981.546 232.182 959.353 274.785 934.187C281.494 930.224 288.177 926.188 294.857 922.154C325.601 903.586 356.296 885.047 389.31 873.786C389.996 873.099 390.681 872.411 391.364 871.72C357.241 882.944 325.641 902.032 294.141 921.058L294.139 921.06C287.469 925.089 280.804 929.115 274.12 933.063C231.532 958.219 188.161 980.238 137.858 980.035C77.7839 979.796 23.2012 954.846 -30.6884 926.402C-39.3824 921.813 -48.0591 917.133 -56.7379 912.451L-56.7414 912.449C-101.811 888.138 -146.934 863.797 -194.812 852.09C-247.658 839.168 -300.881 846.655 -353.949 858.187C-354.017 858.202 -354.086 858.217 -354.154 858.232Z" fill="black"/>
<path d="M-368.093 842.45C-367.789 842.809 -367.484 843.168 -367.179 843.526C-363.911 842.453 -360.644 841.396 -357.376 840.361C-305.854 824.032 -254.164 812.925 -200.128 827.843C-151.089 841.389 -104.378 869.021 -57.424 896.796C-47.6591 902.573 -37.8837 908.355 -28.0747 914.019C28.8466 946.883 86.8741 975.712 150.305 975.619C201.804 975.545 244.729 949.083 286.263 919.073C293.088 914.142 299.874 909.116 306.655 904.094L306.658 904.091C341.199 878.51 375.594 853.036 414.175 840.757C416.565 839.997 418.964 839.292 421.369 838.64C421.848 838.064 422.326 837.487 422.803 836.909C419.783 837.692 416.775 838.559 413.778 839.513C374.971 851.864 340.367 877.495 305.83 903.077C299.06 908.091 292.293 913.104 285.497 918.014C243.973 948.017 201.348 974.239 150.303 974.313C87.254 974.405 29.4955 945.749 -27.4208 912.887C-37.2 907.241 -46.955 901.47 -56.7074 895.701C-103.662 867.922 -150.556 840.181 -199.78 826.583C-254.198 811.56 -306.196 822.77 -357.771 839.115C-361.214 840.206 -364.654 841.32 -368.093 842.45Z" fill="black"/>
<path d="M-380.107 827.74C-379.829 828.093 -379.55 828.447 -379.271 828.8C-373.236 826.125 -367.205 823.499 -361.167 820.967C-311.339 800.067 -261.033 785.504 -204.872 802.548C-154.686 817.778 -106.267 848.574 -57.4562 879.619L-57.4533 879.621C-46.6757 886.476 -35.8791 893.343 -25.04 900.057C34.8287 937.143 95.9682 969.547 162.056 969.047C214.38 968.658 256.652 938.081 297.17 903.469C304.008 897.627 310.794 891.673 317.571 885.726C330.898 874.032 344.19 862.368 357.777 851.654C378.262 835.502 399.355 821.56 422.111 813.02C430.046 810.041 438.086 807.809 446.215 806.231C446.576 805.721 446.935 805.209 447.294 804.697C438.645 806.299 430.091 808.628 421.652 811.797C398.714 820.405 377.498 834.44 356.967 850.629C343.354 861.363 330.015 873.068 316.671 884.777L316.663 884.784C309.895 890.722 303.127 896.661 296.32 902.476C255.803 937.088 213.853 967.355 162.046 967.741C96.371 968.238 35.5185 936.033 -24.3514 898.947C-35.1555 892.254 -45.9282 885.402 -56.6908 878.556L-56.694 878.554C-105.51 847.503 -154.118 816.585 -204.492 801.298C-261.106 784.117 -311.774 798.832 -361.673 819.762C-367.827 822.343 -373.968 825.018 -380.107 827.74Z" fill="black"/>
<path d="M-390.609 813.915C-390.35 814.269 -390.089 814.623 -389.829 814.976C-381.475 810.336 -373.142 805.762 -364.78 801.409C-316.683 776.368 -267.756 758.675 -209.169 777.697C-157.911 794.345 -107.887 828.001 -57.3225 862.02L-57.3166 862.024C-45.6975 869.841 -34.05 877.678 -22.3524 885.331C40.1865 926.25 104.141 961.925 172.55 960.999C225.77 960.275 267.412 925.946 306.959 887.185C313.729 880.55 320.435 873.787 327.129 867.037L327.132 867.033C340.02 854.037 352.861 841.088 366.021 829.186C386.008 811.11 406.665 795.514 429.193 785.947C441.169 780.866 453.404 777.766 465.838 776.269C466.123 775.798 466.408 775.326 466.693 774.853C453.801 776.316 441.107 779.473 428.681 784.745C405.958 794.395 385.174 810.102 365.144 828.217C351.958 840.142 339.07 853.139 326.165 866.153C319.477 872.897 312.785 879.645 306.044 886.252C266.486 925.023 225.181 958.976 172.533 959.693C104.562 960.613 40.9102 925.162 -21.6364 884.238C-33.2973 876.609 -44.9204 868.788 -56.5247 860.98C-107.097 826.953 -157.315 793.165 -208.765 776.455C-267.866 757.265 -317.198 775.163 -365.384 800.25C-373.809 804.636 -382.203 809.245 -390.609 813.915Z" fill="black"/>
<path d="M-399.979 800.712C-399.733 801.071 -399.486 801.43 -399.238 801.788C-398.91 801.573 -398.582 801.357 -398.254 801.142L-398.251 801.14C-388.168 794.522 -378.154 787.949 -368.077 781.754C-321.608 753.186 -273.964 732.767 -212.982 753.475C-163.582 770.236 -115.518 800.432 -69.9475 829.061C-58.1838 836.452 -46.5858 843.738 -35.1747 850.662C-24.0852 857.396 -12.1368 865.188 0.440186 873.389C21.3574 887.03 44.0135 901.804 67.3496 914.735C104.741 935.455 144.079 951.569 181.234 950.883C235.53 949.881 276.519 912.347 315.111 870.079C321.714 862.848 328.244 855.48 334.76 848.129L334.762 848.126C347.322 833.956 359.83 819.843 372.702 806.881C392.242 787.203 412.554 770.246 435.011 759.874C450.142 752.887 465.664 749.42 481.462 748.606C481.696 748.159 481.93 747.711 482.164 747.263C465.955 748.01 450.01 751.508 434.462 758.688C411.798 769.156 391.356 786.24 371.774 805.961C358.878 818.948 346.325 833.11 333.748 847.299C327.237 854.645 320.72 861.998 314.146 869.198C275.535 911.486 234.889 948.586 181.21 949.577C144.414 950.256 105.329 934.287 67.9835 913.593C44.671 900.674 22.114 885.963 1.23651 872.348C-11.3525 864.137 -23.3308 856.326 -34.4958 849.545C-45.866 842.647 -57.4353 835.378 -69.1807 827.998C-114.763 799.36 -163 769.054 -212.561 752.238C-274.107 731.338 -322.191 752.01 -368.762 780.641C-378.857 786.847 -388.889 793.432 -398.971 800.05C-399.307 800.27 -399.643 800.491 -399.979 800.712Z" fill="black"/>
<path d="M-408.466 787.943C-408.23 788.31 -407.994 788.677 -407.757 789.043C-406.641 788.224 -405.527 787.404 -404.414 786.584C-402.381 785.085 -400.353 783.586 -398.329 782.089C-389.093 775.26 -379.927 768.483 -370.692 762.064C-325.673 730.772 -279.194 708.111 -216.015 729.993C-165.472 747.503 -116.117 779.424 -69.5648 809.533L-69.5606 809.535C-57.3057 817.461 -45.245 825.262 -33.4083 832.641C-22.0846 839.705 -9.84573 847.928 3.08081 856.613L3.08273 856.614C7.19937 859.38 11.3858 862.193 15.6346 865.03C33.2181 876.771 51.8578 888.921 70.9944 899.857C109.248 921.716 149.578 938.777 187.516 937.961C243.103 936.772 283.382 896.788 321.026 851.861C327.352 844.312 333.601 836.624 339.838 828.953L339.84 828.951C352.192 813.756 364.495 798.623 377.238 784.746C396.406 763.871 416.504 745.915 439.121 734.985C456.993 726.352 475.311 722.927 493.917 723.187C494.114 722.754 494.31 722.322 494.506 721.889C475.532 721.548 456.819 724.984 438.552 733.809C415.716 744.845 395.485 762.942 376.275 783.862C363.506 797.768 351.159 812.955 338.79 828.169C332.559 835.833 326.322 843.505 320.024 851.022C282.358 895.976 242.423 935.48 187.488 936.655C149.922 937.463 109.854 920.558 71.6433 898.723C52.5477 887.811 33.9388 875.681 16.3608 863.944C12.1205 861.112 7.93936 858.303 3.82568 855.539L3.8233 855.538C-9.10767 846.85 -21.3722 838.61 -32.7161 831.532C-44.5089 824.181 -56.5393 816.4 -68.7744 808.486L-68.7786 808.483C-115.344 778.365 -164.878 746.326 -215.587 728.758C-279.368 706.668 -326.308 729.622 -371.439 760.992C-380.691 767.423 -389.874 774.213 -399.111 781.042L-399.138 781.062C-401.152 782.551 -403.169 784.042 -405.19 785.532C-406.281 786.336 -407.373 787.14 -408.466 787.943Z" fill="black"/>
<path d="M-416.337 775.315C-416.11 775.69 -415.883 776.065 -415.656 776.44C-409.514 771.679 -403.449 766.841 -397.418 762.031C-389.07 755.373 -380.788 748.767 -372.459 742.487C-350.547 725.965 -328.236 711.633 -303.276 704.226C-278.335 696.825 -250.713 696.329 -218.157 707.546C-167.02 725.173 -116.785 758.352 -69.7426 789.422L-69.739 789.424C-57.0634 797.796 -44.6196 806.015 -32.4524 813.735C-20.9707 821.016 -8.58051 829.486 4.49765 838.426L4.5141 838.437C8.6261 841.248 12.8063 844.105 17.0475 846.987C34.7764 859.032 53.5618 871.491 72.8649 882.701C111.452 905.11 152.198 922.588 190.803 921.753C248.027 920.491 287.522 878.997 324.21 832.463C330.136 824.948 335.987 817.302 341.829 809.668L341.832 809.664C354.106 793.626 366.339 777.641 379.138 763.023C398.022 741.457 418.071 722.948 441.153 711.762C461.664 701.82 482.551 698.799 503.657 700.386C503.826 699.962 503.995 699.539 504.163 699.114C482.728 697.442 461.471 700.461 440.583 710.587C417.269 721.885 397.083 740.545 378.154 762.163C365.328 776.812 353.049 792.856 340.761 808.913C334.924 816.54 329.084 824.17 323.183 831.655C286.474 878.215 247.324 919.199 190.775 920.447C152.547 921.274 112.064 903.955 73.5216 881.571C54.2601 870.385 35.506 857.948 17.7824 845.906C13.5547 843.034 9.38483 840.184 5.28052 837.378L5.25146 837.358L5.24988 837.357C-7.83307 828.414 -20.2494 819.926 -31.7519 812.632C-43.8714 804.942 -56.2827 796.744 -68.9373 788.386L-68.9389 788.385C-115.997 757.303 -166.42 723.998 -217.73 706.311C-250.538 695.007 -278.44 695.494 -303.648 702.974C-328.836 710.448 -351.298 724.895 -373.246 741.444C-381.638 747.771 -389.943 754.396 -398.298 761.06C-404.269 765.823 -410.266 770.607 -416.337 775.315Z" fill="black"/>
<path d="M-424.446 761.386C-424.231 761.769 -424.015 762.152 -423.799 762.534C-415.097 755.991 -406.575 749.218 -398.12 742.498C-389.697 735.804 -381.342 729.163 -372.94 722.855C-351.01 706.389 -328.69 692.123 -303.771 684.79C-278.872 677.463 -251.343 677.047 -218.972 688.347C-167.763 706.218 -117.452 738.878 -70.117 769.605C-57.2023 777.989 -44.5082 786.229 -32.0789 793.985C-20.2792 801.352 -7.50998 809.973 5.98151 819.083L5.98502 819.085L6.00784 819.1C9.82098 821.675 13.6917 824.288 17.6144 826.923C35.4197 838.883 54.2866 851.28 73.656 862.465C112.375 884.822 153.193 902.391 191.648 901.89C249.063 901.129 288.319 859.396 324.716 812.532C330.59 804.969 336.388 797.274 342.177 789.59L342.182 789.584C354.359 773.423 366.497 757.313 379.217 742.596C397.976 720.892 417.934 702.3 441.005 691.161C464.11 679.999 487.531 677.524 511.116 680.492C511.264 680.072 511.411 679.651 511.558 679.231C487.678 676.183 463.907 678.646 440.436 689.985C417.129 701.238 397.032 719.985 378.227 741.742C365.48 756.491 353.297 772.661 341.105 788.842L341.093 788.857C335.312 796.529 329.53 804.204 323.684 811.731C287.265 858.624 248.357 899.832 191.631 900.584C153.547 901.08 112.988 883.667 74.3099 861.333C54.9808 850.172 36.1442 837.796 18.3435 825.839C14.4202 823.203 10.5466 820.588 6.72894 818.01L6.72641 818.009C-6.76886 808.897 -19.5647 800.257 -31.3864 792.877C-43.7684 785.15 -56.4291 776.931 -69.3227 768.561L-69.3243 768.56C-116.675 737.821 -167.167 705.042 -218.541 687.113C-251.164 675.726 -278.974 676.131 -304.14 683.537C-329.287 690.937 -351.759 705.317 -373.726 721.811C-382.191 728.167 -390.569 734.827 -398.998 741.526C-407.386 748.194 -415.824 754.9 -424.446 761.386Z" fill="black"/>
<path d="M-432.768 745.949C-432.566 746.339 -432.364 746.728 -432.162 747.118C-423.786 741.397 -415.571 735.454 -407.432 729.5C-405.466 728.062 -403.505 726.624 -401.547 725.188C-392.243 718.363 -383.013 711.592 -373.715 705.187C-328.714 674.185 -282.319 651.865 -219.416 673.948C-168.112 691.956 -117.95 722.421 -70.0455 751.516L-70.0438 751.517C-56.8349 759.539 -43.7976 767.457 -30.955 774.982C-18.3186 782.385 -4.50409 791.232 10.1409 800.611C13.1712 802.552 16.2372 804.515 19.3355 806.493C37.4008 818.027 56.5599 830.054 76.168 840.946C115.363 862.72 156.446 880.017 194.266 879.739C250.393 879.312 289.337 837.999 325.409 791.515C331.428 783.76 337.365 775.861 343.291 767.979C355.155 752.196 366.971 736.478 379.296 722.094C397.767 700.536 417.311 682.065 439.717 671.001C465.274 658.379 491.287 656.532 517.524 661.015C517.653 660.595 517.781 660.175 517.909 659.755C491.408 655.201 465.053 657.03 439.138 669.829C416.497 681.009 396.816 699.638 378.303 721.244C365.952 735.658 354.091 751.437 342.211 767.24C336.291 775.114 330.367 782.994 324.376 790.715C288.278 837.232 249.687 878.01 194.257 878.432C156.795 878.708 115.965 861.559 76.803 839.804C57.2324 828.932 38.1017 816.924 20.0392 805.392C16.9477 803.419 13.8871 801.458 10.8609 799.52L10.8551 799.517C-3.79065 790.137 -17.6326 781.273 -30.2939 773.854C-43.0945 766.355 -56.1033 758.454 -69.294 750.442L-69.2958 750.441C-117.216 721.336 -167.536 690.773 -218.983 672.715C-282.486 650.421 -329.344 673.032 -374.457 704.111C-383.772 710.529 -393.022 717.313 -402.327 724.139C-404.284 725.574 -406.242 727.01 -408.204 728.446C-416.299 734.367 -424.457 740.27 -432.768 745.949Z" fill="black"/>
<path d="M-440.791 729.745C-440.604 730.14 -440.416 730.535 -440.228 730.93C-430.017 724.85 -420.016 718.45 -410.109 712.051C-408.59 711.07 -407.073 710.089 -405.558 709.109C-395.453 702.572 -385.427 696.087 -375.34 689.983C-328.957 661.915 -281.448 642.016 -219.999 662.764C-168.211 680.268 -117.571 708.291 -68.6548 735.36C-55.321 742.738 -42.1152 750.046 -29.0491 757.051C-15.548 764.287 -0.678558 773.089 15.1056 782.433C17.463 783.829 19.8408 785.236 22.2374 786.653C40.6748 797.548 60.2212 808.95 80.1559 819.283C120.004 839.938 161.499 856.371 198.888 855.888C253.74 855.201 291.676 814.608 326.737 768.941C332.667 761.216 338.514 753.348 344.348 745.498L344.349 745.496C355.793 730.096 367.188 714.762 379.07 700.706C396.999 679.495 415.967 661.285 437.728 650.286C465.557 636.225 494.157 635.244 523.106 641.44C523.217 641.019 523.328 640.597 523.438 640.175C494.255 633.919 465.322 634.88 437.138 649.12C415.145 660.236 396.042 678.604 378.071 699.863C366.164 713.949 354.724 729.343 343.264 744.765C337.436 752.607 331.602 760.457 325.7 768.145C290.613 813.845 253.027 853.903 198.871 854.582C161.827 855.06 120.578 838.763 80.7577 818.123C60.858 807.809 41.3389 796.422 22.9028 785.528C20.5213 784.121 18.1578 782.722 15.8138 781.334L15.7752 781.311C-0.00634766 771.969 -14.9032 763.15 -28.4314 755.899C-41.4612 748.914 -54.6425 741.62 -67.9608 734.25C-116.89 707.173 -167.669 679.073 -219.581 661.526C-281.583 640.591 -329.525 660.731 -376.017 688.865C-386.122 694.98 -396.166 701.477 -406.269 708.013C-407.784 708.992 -409.3 709.973 -410.818 710.954C-420.69 717.33 -430.64 723.697 -440.791 729.745Z" fill="black"/>
<path d="M-448.518 712.615C-448.346 713.016 -448.173 713.417 -448 713.817C-435.191 707.452 -422.658 700.647 -410.229 693.899C-399.343 687.988 -388.536 682.12 -377.692 676.628C-329.661 652.305 -280.8 635.285 -220.65 654.019C-168.282 670.333 -116.928 695.532 -66.8682 720.095C-53.3187 726.744 -39.8642 733.346 -26.51 739.712C-11.9642 746.64 4.12781 755.217 21.1975 764.314L21.2001 764.315L21.3733 764.407C22.942 765.243 24.5189 766.084 26.1036 766.928C44.9921 776.986 64.98 787.536 85.2899 797.078C125.889 816.153 167.87 831.249 205.028 830.303C258.621 828.91 295.001 789.334 328.527 744.888C334.175 737.4 339.74 729.776 345.295 722.166C356.257 707.149 367.177 692.19 378.602 678.455C395.808 657.772 414.096 639.951 435.258 629.018C465.105 613.599 496.233 613.679 527.894 621.702C527.989 621.277 528.082 620.851 528.176 620.425C496.315 612.359 464.859 612.255 434.658 627.857C413.266 638.909 394.845 656.887 377.597 677.62C366.147 691.385 355.183 706.403 344.206 721.441L344.204 721.443C338.656 729.044 333.104 736.65 327.483 744.101C293.936 788.576 257.897 827.621 204.994 828.997C168.163 829.934 126.421 814.959 85.8461 795.896C65.569 786.369 45.6072 775.833 26.7183 765.775C25.0732 764.898 23.4363 764.026 21.808 763.158C4.74524 754.065 -11.3732 745.475 -25.9475 738.533C-39.2683 732.182 -52.6999 725.591 -66.2341 718.95L-66.2404 718.947C-116.311 694.378 -167.786 669.119 -220.261 652.771C-280.902 633.884 -330.151 651.088 -378.283 675.463C-389.199 680.991 -400.053 686.884 -410.968 692.81C-423.346 699.53 -435.803 706.293 -448.518 712.615Z" fill="black"/>
<path d="M-455.795 694.733C-455.639 695.14 -455.482 695.546 -455.324 695.952C-441.95 690.681 -428.801 685.02 -415.744 679.399L-415.742 679.398C-404.034 674.357 -392.399 669.348 -380.741 664.68C-330.833 644.696 -280.392 630.896 -221.479 647.157C-168.379 661.793 -116.112 683.861 -64.753 705.547L-64.7457 705.55C-50.9882 711.359 -37.296 717.14 -23.6701 722.743C-8.00171 729.185 9.36484 737.303 27.7473 745.896L30.4667 747.167C49.8502 756.226 70.3074 765.739 91.0204 774.301C132.427 791.419 174.948 804.779 212.059 803.092C264.556 800.714 298.918 762.344 330.466 719.42C335.613 712.418 340.684 705.296 345.747 698.184L345.749 698.181C356.232 683.458 366.682 668.779 377.713 655.296C394.063 635.311 411.623 618.037 432.305 607.271C464.031 590.749 497.599 592.069 531.867 601.942C531.945 601.511 532.023 601.08 532.099 600.649C497.668 590.751 463.781 589.406 431.701 606.112C410.789 616.998 393.095 634.429 376.701 654.469C365.642 667.986 355.146 682.728 344.648 697.474L344.643 697.48C339.588 704.58 334.532 711.681 329.413 718.647C297.85 761.589 263.819 799.44 212 801.787C175.195 803.46 132.903 790.202 91.5201 773.094C70.838 764.544 50.4059 755.043 31.0204 745.984L28.2891 744.707L28.2869 744.706C9.91632 736.119 -7.47546 727.989 -23.1729 721.535C-36.7749 715.941 -50.4522 710.166 -64.2012 704.361C-115.57 682.671 -167.94 660.558 -221.131 645.898C-280.461 629.522 -331.233 643.449 -381.227 663.467C-392.953 668.163 -404.632 673.19 -416.366 678.242C-429.392 683.849 -442.488 689.487 -455.795 694.733Z" fill="black"/>
<path d="M-462.463 676.382C-462.322 676.795 -462.18 677.207 -462.038 677.619C-448.531 673.682 -435.173 669.448 -421.88 665.235C-409.341 661.26 -396.86 657.304 -384.369 653.634C-332.414 638.368 -280.186 628.005 -222.414 641.515C-168.49 654.114 -115.194 672.797 -62.5376 691.256C-48.5764 696.151 -34.6596 701.029 -20.7883 705.774C-3.78113 711.588 15.066 719.092 34.9456 727.008L34.9897 727.026C54.8796 734.945 75.7969 743.273 96.9036 750.713C139.1 765.586 182.141 776.944 219.352 774.368C272.107 770.726 303.359 733 331.969 691.525C335.789 685.989 339.56 680.386 343.33 674.786C353.703 659.379 364.06 643.994 375.356 630.064C390.748 611.083 407.832 594.875 428.953 585.095C463.682 569.007 499.176 571.67 534.94 582.892C535.003 582.455 535.064 582.017 535.125 581.58C499.237 570.353 463.458 567.671 428.404 583.91C407.026 593.808 389.793 610.186 374.34 629.242C363.004 643.221 352.598 658.678 342.215 674.102C338.452 679.691 334.693 685.276 330.893 690.784C302.276 732.268 271.34 769.47 219.262 773.065C182.336 775.621 139.512 764.346 97.3384 749.481C76.2605 742.051 55.3672 733.733 35.4735 725.812L35.4097 725.786C15.5458 717.877 -3.327 710.362 -20.3652 704.538C-34.2147 699.8 -48.1166 694.927 -62.0688 690.036C-114.734 671.573 -168.116 652.86 -222.116 640.243C-280.223 626.654 -332.717 637.095 -384.737 652.38C-397.287 656.068 -409.804 660.035 -422.364 664.016C-435.652 668.228 -448.988 672.455 -462.463 676.382Z" fill="black"/>
<path d="M-468.535 657.418C-468.41 657.837 -468.284 658.256 -468.158 658.675C-455.319 656.088 -442.522 653.307 -429.746 650.53C-418.444 648.074 -407.158 645.621 -395.873 643.309C-344.021 632.689 -292.136 625.04 -238.548 633.623C-173.472 644.033 -109.333 662.361 -45.5439 680.59C-21.8239 687.368 1.84778 694.132 25.5016 700.471C39.3751 704.182 54.3246 708.828 69.8985 713.668L72.5179 714.482C89.03 719.612 106.205 724.91 123.485 729.495C158.031 738.66 193.065 744.992 224.147 741.396C278.117 735.157 307.612 698.144 335.104 658.418C337.678 654.698 340.234 650.956 342.792 647.212L342.8 647.199C367.6 610.89 392.466 574.483 434.161 558.233C467.504 545.224 502.257 549.619 537.495 561.792C537.54 561.347 537.584 560.901 537.628 560.455C502.314 548.299 467.321 543.893 433.686 557.016C391.591 573.422 366.493 610.179 341.737 646.436C339.17 650.195 336.607 653.949 334.029 657.675C306.537 697.401 277.335 733.932 223.996 740.098C193.168 743.665 158.331 737.388 123.82 728.232C106.57 723.656 89.4198 718.365 72.9059 713.234L70.2795 712.418C54.7133 707.58 39.7401 702.927 25.8399 699.209C2.23294 692.883 -21.4106 686.126 -45.1145 679.353C-108.929 661.117 -173.182 642.756 -238.341 632.333C-292.173 623.711 -344.253 631.403 -396.136 642.03C-407.456 644.348 -418.764 646.806 -430.079 649.265C-442.88 652.047 -455.691 654.831 -468.535 657.418Z" fill="black"/>
<path d="M-473.671 638.98C-473.56 639.406 -473.45 639.833 -473.338 640.259C-460.875 638.946 -448.423 637.527 -435.979 636.109C-424.165 634.763 -412.356 633.418 -400.553 632.165C-347.134 626.494 -293.763 622.708 -240.001 629.233C-174.11 637.24 -108.762 651.053 -43.5976 664.827C-19.5467 669.911 4.47934 674.989 28.4988 679.769C43.628 682.775 59.8629 686.71 76.6956 690.797L77.1646 690.91C93.8471 694.961 111.108 699.151 128.429 702.718C163.386 709.916 198.65 714.587 229.995 710.419C281.979 703.511 309.853 668.418 335.792 630.881C338.172 627.436 340.536 623.972 342.9 620.507C366.345 586.142 389.852 551.688 430.064 535.822C464.768 522.13 501.607 527.753 539.125 541.519C539.153 541.065 539.18 540.611 539.206 540.156C501.649 526.428 464.58 520.799 429.584 534.607C388.977 550.629 365.242 585.428 341.837 619.743L341.834 619.748C339.464 623.223 337.097 626.693 334.717 630.138C308.784 667.667 281.194 702.297 229.822 709.124C198.703 713.262 163.616 708.63 128.693 701.438C111.394 697.876 94.152 693.69 77.4628 689.638L77.0042 689.527C60.1772 685.442 43.9148 681.499 28.7537 678.487C4.76978 673.715 -19.2344 668.641 -43.2724 663.56L-43.2762 663.559C-108.459 649.781 -173.891 635.95 -239.843 627.936C-293.759 621.392 -347.253 625.193 -400.691 630.866C-412.517 632.121 -424.339 633.468 -436.162 634.815L-436.164 634.815C-448.663 636.239 -461.163 637.664 -473.671 638.98Z" fill="black"/>
<path d="M-478.031 620.732C-477.935 621.166 -477.839 621.6 -477.743 622.034C-466.089 621.838 -454.435 621.606 -442.782 621.374H-442.78C-430.295 621.125 -417.811 620.877 -405.33 620.672C-350.641 619.777 -295.998 619.732 -241.491 624.251C-174.668 629.776 -108.111 639.037 -41.6165 648.288L-41.6137 648.289C-17.4851 651.646 6.63519 655.001 30.757 658.177C46.3756 660.233 62.955 663.102 80.0396 666.104C81.3478 666.334 82.6589 666.565 83.9728 666.796C99.8134 669.584 116.052 672.441 132.312 674.831C167.521 680.007 202.885 683 234.621 678.334C284.58 670.999 311.122 637.995 335.826 602.802C338.039 599.65 340.237 596.481 342.435 593.311C364.819 561.034 387.26 528.675 426.074 513.375C461.899 499.248 500.517 505.988 539.963 521.108C539.973 520.645 539.982 520.182 539.991 519.719C500.541 504.657 461.707 497.919 425.594 512.16C386.391 527.613 363.724 560.308 341.379 592.538L341.365 592.558C339.164 595.733 336.966 598.903 334.756 602.052C310.064 637.228 283.801 669.793 234.43 677.042C202.89 681.679 167.681 678.71 132.502 673.539C116.261 671.151 100.039 668.297 84.1936 665.509L80.2661 664.818C63.1841 661.815 46.5782 658.942 30.9277 656.882C6.82635 653.709 -17.2818 650.355 -41.4037 646.998C-107.91 637.745 -174.521 628.478 -241.383 622.949C-295.957 618.424 -350.654 618.471 -405.352 619.366C-417.836 619.57 -430.32 619.819 -442.803 620.068L-442.824 620.068C-454.561 620.302 -466.297 620.535 -478.031 620.732Z" fill="black"/>
<path d="M-481.67 602.603C-481.589 603.045 -481.508 603.486 -481.427 603.928C-465.925 604.9 -450.423 605.888 -434.922 606.877C-370.99 610.955 -307.057 615.033 -243.055 617.94C-174.861 621.041 -106.751 625.793 -38.6376 630.546C-15.1121 632.187 8.41388 633.829 31.9437 635.402C50.5316 636.651 70.1293 638.834 90.1793 641.068C104.821 642.699 119.704 644.357 134.611 645.697C169.883 648.869 205.197 650.251 237.397 645.217C285.385 637.734 311.019 606.96 334.928 574.241C337.025 571.372 339.108 568.488 341.192 565.603C362.901 535.552 384.655 505.439 422.154 490.93C459.003 476.651 499.055 484.339 540 500.529C539.992 500.057 539.982 499.585 539.973 499.112C499.057 483.001 458.808 475.326 421.682 489.711C383.803 504.368 361.824 534.801 340.152 564.81C338.06 567.706 335.972 570.598 333.872 573.471C309.981 606.165 284.621 636.53 237.195 643.926C205.158 648.934 169.973 647.565 134.728 644.396C119.891 643.062 105.026 641.406 90.3854 639.776L90.3815 639.775C70.2933 637.538 50.6268 635.348 32.0313 634.099C8.50967 632.526 -15.0109 630.885 -38.5333 629.243C-106.651 624.49 -174.784 619.736 -242.996 616.635C-306.996 613.728 -370.894 609.652 -434.805 605.575L-434.812 605.575L-434.822 605.574C-450.437 604.578 -466.052 603.582 -481.67 602.603Z" fill="black"/>
<path d="M-484.644 584.416C-484.579 584.864 -484.513 585.312 -484.447 585.76C-471.943 587.399 -459.449 589.092 -446.955 590.785L-446.942 590.787C-436.064 592.261 -425.187 593.735 -414.306 595.174C-358.09 602.604 -301.77 609.079 -244.694 609.67C-183.276 610.285 -121.857 610.54 -60.4401 610.794H-60.4355L-60.3857 610.794C-29.6936 610.922 0.997864 611.049 31.6883 611.221C52.4341 611.337 74.0668 612.407 96.0319 613.493L96.035 613.493C108.907 614.13 121.893 614.772 134.882 615.231C170.008 616.473 205.105 616.373 237.805 611.176C283.948 603.824 309.22 575.423 332.896 545.309C334.935 542.716 336.962 540.11 338.99 537.504C360.529 509.815 382.096 482.09 418.452 468.596C456.32 454.546 497.35 462.942 539.221 479.835C539.193 479.354 539.165 478.872 539.136 478.391C497.323 461.596 456.122 453.226 417.997 467.371C381.275 481.001 359.483 509.022 337.977 536.675L337.951 536.709C335.925 539.314 333.901 541.916 331.868 544.502C308.216 574.586 283.213 602.618 237.6 609.885C205.028 615.063 170.033 615.166 134.928 613.925C121.981 613.467 109.013 612.826 96.1479 612.19L96.1434 612.19C74.1541 611.103 52.4642 610.031 31.6956 609.914C0.987335 609.742 -29.72 609.615 -60.4267 609.488H-60.4404C-121.855 609.233 -183.267 608.979 -244.681 608.364C-301.673 607.773 -357.926 601.308 -414.135 593.878C-425.01 592.441 -435.884 590.967 -446.762 589.493C-459.382 587.783 -472.007 586.072 -484.644 584.416Z" fill="black"/>
<path d="M-486.988 565.908C-486.939 566.361 -486.89 566.813 -486.84 567.265C-474.414 569.576 -462.009 571.976 -449.608 574.376L-449.606 574.377C-439.052 576.419 -428.501 578.461 -417.943 580.446C-361.437 591.071 -304.735 600.072 -246.373 598.816C-211.403 598.055 -175.67 597.706 -139.537 597.352L-139.532 597.352C-14.3804 596.129 115.577 594.858 235.291 576.287C279.714 569.382 305.279 543.47 329.428 516.079C331.435 513.802 333.433 511.515 335.43 509.228L335.449 509.206C357.497 483.963 379.552 458.712 415.112 446.523C454.055 433.162 495.514 441.978 537.614 459.14C537.566 458.65 537.517 458.159 537.468 457.669C495.449 440.622 453.853 431.85 414.688 445.287C378.781 457.596 356.503 483.109 334.486 508.321C332.474 510.625 330.465 512.926 328.447 515.215C304.325 542.576 279.025 568.167 235.09 574.996C115.479 593.551 -14.3471 594.821 -139.484 596.045C-175.634 596.398 -211.393 596.748 -246.401 597.509C-304.619 598.763 -361.209 589.785 -417.701 579.162C-428.236 577.181 -438.768 575.143 -449.307 573.103L-449.334 573.098C-461.871 570.672 -474.417 568.244 -486.988 565.908Z" fill="black"/>
<path d="M-488.687 546.984C-488.654 547.439 -488.621 547.893 -488.588 548.348C-476.169 551.213 -463.775 554.211 -451.384 557.208C-443.357 559.149 -435.331 561.09 -427.3 562.995C-372.93 575.891 -318.325 587.115 -261.623 585.377C-99.7607 580.429 71.2924 562.667 231.694 541.068C275.072 535.221 302.433 510.125 328.872 484.308C330.171 483.04 331.467 481.771 332.762 480.502C357.881 455.9 382.819 431.475 420.663 422.692C458.645 413.864 496.869 422.521 535.128 438.175C535.058 437.675 534.988 437.176 534.917 436.676C496.757 421.149 458.471 412.563 420.367 421.419C382.156 430.288 356.974 454.955 331.906 479.511C330.59 480.8 329.275 482.088 327.959 483.373C301.52 509.189 274.432 533.989 231.52 539.773C71.1415 561.369 -99.8628 579.125 -261.663 584.071C-318.179 585.803 -372.637 574.617 -426.998 561.724C-435.018 559.822 -443.037 557.882 -451.06 555.942C-463.585 552.912 -476.12 549.88 -488.687 546.984Z" fill="black"/>
<path d="M-489.738 526.623C-489.723 527.075 -489.708 527.528 -489.692 527.981C-476.157 531.353 -462.669 534.932 -449.185 538.51C-442.322 540.332 -435.46 542.153 -428.593 543.946C-374.496 558.073 -320.138 570.466 -262.902 567.544C-182.284 563.444 -101.378 552.198 -20.5925 539.709C-3.12842 537.009 14.3294 534.252 31.7775 531.495L31.7811 531.495C95.053 521.5 158.197 511.525 221.042 504.408C263.706 499.567 293.294 477.468 322.124 454.832C323.372 453.853 324.618 452.873 325.863 451.893C353.432 430.201 380.779 408.684 418.824 401.617C457.384 394.46 494.847 402.963 531.89 417.915C531.798 417.408 531.706 416.901 531.613 416.394C494.685 401.58 457.203 393.165 418.586 400.332C380.216 407.459 352.636 429.162 325.116 450.817C323.85 451.814 322.584 452.81 321.317 453.805C292.485 476.442 263.155 498.315 220.895 503.11C158.018 510.231 94.8364 520.211 31.56 530.207C14.1151 532.963 -3.33719 535.72 -20.7923 538.418C-101.57 550.905 -182.421 562.143 -262.969 566.239C-319.986 569.15 -374.173 556.807 -428.263 542.682C-435.121 540.891 -441.978 539.071 -448.838 537.25L-448.84 537.25C-462.443 533.64 -476.062 530.025 -489.738 526.623Z" fill="black"/>
<path d="M-489.992 506.174C-489.995 506.621 -489.998 507.067 -490 507.514C-477.612 510.416 -465.245 513.456 -452.879 516.496C-444.078 518.66 -435.278 520.824 -426.47 522.937C-371.766 536.064 -316.824 547.243 -260.058 544.359C-150.995 538.842 -40.2536 522.713 69.4581 506.735C117.629 499.719 165.601 492.732 213.146 486.685C255.736 481.272 287.488 459.233 318.612 436.846C319.675 436.081 320.737 435.316 321.799 434.551C351.861 412.902 381.652 391.448 420.519 384.523C456.912 378.04 492.6 385.206 527.977 398.404C527.865 397.896 527.752 397.39 527.639 396.883C492.385 383.825 456.709 376.749 420.289 383.237C381.123 390.215 351.114 411.828 321.107 433.439C320.021 434.222 318.935 435.004 317.848 435.785C286.711 458.182 255.204 480.022 212.981 485.389C165.385 491.443 117.384 498.434 69.1982 505.452L69.1958 505.452C-40.4859 521.426 -151.125 537.54 -260.124 543.054C-316.688 545.928 -371.473 534.79 -426.165 521.667C-434.955 519.557 -443.744 517.397 -452.537 515.235L-452.542 515.233C-465.01 512.168 -477.488 509.1 -489.992 506.174Z" fill="black"/>
<path d="M-489.329 483.247C-489.351 483.686 -489.373 484.126 -489.394 484.565C-476.878 486.985 -464.374 489.51 -451.869 492.035C-439.5 494.532 -427.131 497.03 -414.751 499.426C-357.171 510.568 -299.386 519.498 -240.436 515.893C-94.3578 506.957 56.1497 490.378 201.11 470.514C243.467 464.715 277.087 444.714 310.062 424.054C311.96 422.865 313.855 421.674 315.749 420.484C346.81 400.966 377.702 381.554 415.334 373.369C452.094 365.387 488.316 370.997 524.273 382.801C524.146 382.301 524.018 381.8 523.89 381.3C488.05 369.628 451.84 364.105 415.057 372.092C377.193 380.328 346.118 399.856 315.097 419.35C313.187 420.55 311.278 421.75 309.368 422.947C276.389 443.609 242.982 463.463 200.933 469.22C55.9941 489.081 -94.4794 505.656 -240.516 514.589C-299.292 518.184 -356.942 509.282 -414.502 498.143C-426.857 495.752 -439.208 493.258 -451.566 490.763L-451.571 490.762C-464.147 488.222 -476.73 485.681 -489.329 483.247Z" fill="black"/>
<path d="M-487.538 459.158C-487.58 459.592 -487.622 460.026 -487.664 460.46C-474.717 462.313 -461.771 464.244 -448.823 466.176L-448.815 466.177C-434.915 468.251 -421.011 470.325 -407.1 472.304C-348.682 480.612 -290.141 487.228 -231.217 484.992C-92.6203 479.749 51.6524 473.029 189.282 455.931C232.988 450.506 269.915 431.442 306.328 411.762C308.328 410.68 310.327 409.597 312.325 408.515C346.73 389.873 380.978 371.317 420.491 363.662C454.576 357.07 487.89 360.951 520.845 370.004C520.707 369.514 520.568 369.024 520.429 368.535C487.588 359.595 454.311 355.79 420.243 362.379C380.526 370.074 346.113 388.72 311.747 407.342L311.737 407.347C309.727 408.437 307.717 409.526 305.706 410.612C269.284 430.298 232.554 449.243 189.12 454.635C51.5524 471.725 -92.6706 478.444 -231.266 483.686C-290.068 485.917 -348.513 479.316 -406.916 471.01C-420.809 469.034 -434.702 466.962 -448.597 464.889L-448.6 464.888C-461.577 462.952 -474.556 461.016 -487.538 459.158Z" fill="black"/>
<path d="M-484.346 433.294C-484.411 433.727 -484.475 434.159 -484.538 434.592C-470.953 435.431 -457.36 436.281 -443.762 437.131L-443.754 437.131C-237.41 450.029 -29.6289 463.017 176.412 442.126C222.079 437.498 262.655 419.796 302.821 401.426C305.196 400.34 307.569 399.252 309.941 398.163C347.731 380.833 385.4 363.558 426.977 356.54C457.996 351.302 488.17 353.656 517.935 360.066C517.791 359.589 517.645 359.112 517.499 358.636C487.844 352.317 457.73 350.022 426.76 355.252C385.005 362.3 347.189 379.643 309.434 396.958L309.341 397.001C306.987 398.081 304.632 399.161 302.277 400.238C262.101 418.612 221.706 436.223 176.28 440.826C-29.6438 461.706 -237.295 448.727 -443.636 435.829L-443.651 435.828C-457.222 434.98 -470.787 434.132 -484.346 433.294Z" fill="black"/>
<path d="M-480.187 409.33C-480.273 409.764 -480.359 410.198 -480.444 410.633C-458.766 410.928 -437.089 411.165 -415.413 411.401H-415.409C-345.741 412.162 -276.085 412.922 -206.443 415.62C-167.864 417.113 -128.656 419.83 -89.2232 422.563C-4.94266 428.404 80.3668 434.316 162.762 428.504C210.719 425.118 255.308 409.904 299.545 393.492C304.569 391.628 309.588 389.749 314.607 387.87C353.806 373.194 392.995 358.521 434.371 351.185C461.632 346.36 488.486 347.127 515.128 351.121C514.978 350.658 514.827 350.195 514.676 349.733C488.137 345.807 461.349 345.083 434.142 349.899C392.64 357.257 353.334 371.974 314.148 386.646C309.128 388.526 304.11 390.405 299.09 392.267C254.857 408.677 210.422 423.829 162.67 427.2C80.3659 433.006 -4.78314 427.104 -89.0138 421.266L-89.0178 421.266C-128.473 418.532 -167.727 415.811 -206.393 414.314C-276.037 411.616 -345.741 410.855 -415.436 410.094L-415.447 410.094C-437.029 409.858 -458.61 409.623 -480.187 409.33Z" fill="black"/>
<path d="M-474.604 384.421C-474.715 384.863 -474.825 385.306 -474.935 385.749C-455.943 384.646 -436.938 383.353 -417.933 382.061L-417.923 382.06C-403.564 381.083 -389.204 380.107 -374.848 379.212C-313.785 375.405 -252.784 373.073 -192.144 378.477C-151.059 382.146 -109.401 388.476 -67.5403 394.837C-52.3485 397.146 -37.1302 399.458 -21.903 401.649C35.2636 409.874 92.5297 416.379 148.849 414.476C199.288 412.774 248.007 399.793 296.434 385.301C304.058 383.019 311.675 380.7 319.29 378.381C360.066 365.967 400.796 353.567 442.411 346.979C466.229 343.209 489.762 343.042 513.138 345.109C512.986 344.658 512.833 344.207 512.68 343.757C489.405 341.736 465.952 341.93 442.207 345.688C400.493 352.292 359.663 364.723 318.889 377.138C311.279 379.455 303.67 381.771 296.059 384.049C247.64 398.539 199.061 411.475 148.804 413.17C92.6062 415.069 35.4344 408.579 -21.7167 400.356C-36.9204 398.168 -52.1244 395.858 -67.308 393.551L-67.3099 393.55C-109.183 387.188 -150.9 380.848 -192.028 377.175C-252.771 371.762 -313.854 374.1 -374.93 377.908C-389.305 378.804 -403.679 379.782 -418.048 380.759C-436.911 382.042 -455.765 383.324 -474.604 384.421Z" fill="black"/>
<path d="M-467.748 359.706C-467.887 360.163 -468.026 360.62 -468.164 361.078C-448.613 358.54 -428.988 355.632 -409.338 352.72C-393.788 350.416 -378.222 348.11 -362.666 345.983C-300.305 337.456 -238.055 331.801 -177.331 340.629C-136.466 346.582 -95.4977 356.91 -54.3811 367.275L-54.3783 367.275C-43.5215 370.012 -32.6542 372.752 -21.7759 375.414C30.2781 388.153 82.5638 399.116 135.044 399.486C187.987 399.856 240.838 389.243 293.469 376.809C304.321 374.245 315.162 371.604 325.993 368.966C367.717 358.802 409.288 348.676 450.707 343.141C471.11 340.407 491.36 339.72 511.519 340.391C511.365 339.95 511.211 339.51 511.056 339.069C491.002 338.424 470.847 339.124 450.533 341.846C409.039 347.391 367.381 357.539 325.65 367.704L325.647 367.705C314.825 370.341 303.999 372.979 293.169 375.537C240.551 387.969 187.829 398.548 135.053 398.179C82.7358 397.811 30.5758 386.88 -21.465 374.145C-32.3188 371.489 -43.1684 368.754 -54.0132 366.02L-54.0249 366.017C-95.1503 355.649 -136.204 345.3 -177.142 339.336C-238.058 330.48 -300.46 336.159 -362.843 344.689C-378.434 346.82 -394.021 349.13 -409.584 351.436C-429.023 354.316 -448.425 357.19 -467.748 359.706Z" fill="black"/>
<path d="M-459.631 335.287C-459.803 335.764 -459.974 336.241 -460.145 336.719C-440.415 332.839 -420.485 328.423 -400.473 323.989L-400.47 323.989C-382.074 319.913 -363.608 315.821 -345.163 312.116C-279.305 298.888 -213.663 290.571 -152.085 305.286C-117.588 313.527 -82.7956 327.026 -47.7113 340.639C-37.5044 344.599 -27.2722 348.569 -17.016 352.422C28.4589 369.505 74.3882 384.272 120.587 385.53C173.796 386.99 228.947 378.885 283.975 368.832C299.037 366.08 314.087 363.184 329.086 360.297L329.097 360.294C368.919 352.629 408.384 345.033 446.746 340.41C467.981 337.851 489.104 336.731 510.167 336.563C510.012 336.128 509.855 335.694 509.699 335.26C488.747 335.441 467.725 336.566 446.589 339.112C408.179 343.742 368.648 351.351 328.811 359.018L328.807 359.019L328.804 359.02C313.811 361.906 298.776 364.8 283.74 367.547C228.727 377.597 173.688 385.68 120.623 384.224C74.6581 382.972 28.9042 368.276 -16.5561 351.199C-26.7796 347.359 -36.9897 343.397 -47.1834 339.442C-82.2826 325.823 -117.189 312.279 -151.781 304.015C-213.653 289.23 -279.534 297.601 -345.42 310.835C-363.926 314.553 -382.429 318.652 -400.846 322.733L-400.848 322.733C-420.574 327.104 -440.203 331.453 -459.631 335.287Z" fill="black"/>
<path d="M-450.315 311.358C-450.525 311.859 -450.734 312.361 -450.942 312.863C-430.663 307.755 -410.133 301.953 -389.5 296.121L-389.498 296.121C-371.092 290.919 -352.602 285.693 -334.134 280.916C-267.245 263.613 -200.575 252.164 -138.693 268.694C-103.158 278.186 -69.4518 296.224 -35.6046 314.338C-29.5155 317.596 -23.4218 320.857 -17.3122 324.072C22.7189 345.131 63.4142 364.161 107.818 367.032C163.312 370.636 222.153 365.045 280.978 357.337C299.92 354.855 318.857 352.154 337.681 349.469L337.683 349.469C377.342 343.812 416.5 338.227 454.15 334.911C472.202 333.323 490.251 332.209 508.301 331.433C508.143 331.004 507.983 330.575 507.823 330.146C489.892 330.923 471.962 332.033 454.035 333.609C416.35 336.929 377.131 342.522 337.451 348.182C318.636 350.865 299.717 353.564 280.809 356.041C222.001 363.747 163.264 369.324 107.903 365.729C63.801 362.877 23.3223 343.972 -16.7033 322.915C-22.795 319.711 -28.8768 316.456 -34.9592 313.2C-68.8008 295.088 -102.661 276.966 -138.355 267.432C-200.589 250.808 -267.547 262.342 -334.461 279.651C-353 284.447 -371.532 289.684 -389.963 294.893C-410.245 300.625 -430.404 306.322 -450.315 311.358Z" fill="black"/>
<path d="M-439.151 286.556C-439.41 287.092 -439.667 287.628 -439.924 288.165C-435.387 286.755 -430.83 285.304 -426.254 283.821C-411.478 279.034 -396.533 273.923 -381.49 268.778L-381.486 268.776C-362.421 262.256 -343.197 255.681 -323.953 249.641C-255.133 228.039 -186.626 213.468 -126.502 233.278C-92.9385 244.339 -62.9658 264.907 -32.8956 285.542C-27.8348 289.015 -22.7713 292.489 -17.6875 295.921C17.5611 319.714 53.761 341.409 96.6039 345.654C154.216 351.346 216.285 348.434 278.449 343.297C301.627 341.382 324.811 339.158 347.784 336.954L347.786 336.954L347.79 336.953C386.458 333.244 424.529 329.592 460.962 327.566C475.924 326.731 490.876 325.823 505.822 324.866C505.657 324.44 505.493 324.014 505.327 323.588C490.516 324.535 475.704 325.435 460.89 326.261C424.435 328.289 386.31 331.946 347.617 335.657L347.61 335.658C324.644 337.861 301.478 340.083 278.342 341.995C216.196 347.131 154.223 350.034 96.7325 344.354C54.2457 340.145 18.2849 318.626 -16.9559 294.838C-22.0224 291.418 -27.0746 287.951 -32.1292 284.482C-62.1897 263.851 -92.3367 243.162 -126.092 232.037C-186.649 212.085 -255.519 226.791 -324.344 248.394C-343.579 254.432 -362.855 261.024 -381.952 267.555L-381.958 267.557C-397.005 272.702 -411.94 277.81 -426.657 282.579C-430.839 283.933 -435.004 285.261 -439.151 286.556Z" fill="black"/>
<path d="M-425.937 261.022C-426.258 261.601 -426.577 262.18 -426.895 262.76C-424.594 261.926 -422.286 261.081 -419.972 260.226C-404.909 254.663 -389.598 248.703 -374.143 242.687C-354.724 235.127 -335.077 227.479 -315.408 220.419C-244.798 195.075 -174.56 177.576 -116.038 199.745C-83.9171 211.914 -57.3698 234.038 -30.7806 256.197L-30.7769 256.2C-26.4973 259.766 -22.2167 263.334 -17.9116 266.861C13.1019 292.268 45.3557 315.538 87.4635 320.768C173.268 331.435 269.164 326.646 361.215 322.048C397.311 320.245 432.816 318.472 466.889 317.672C478.762 317.394 490.573 316.838 502.336 316.065C502.162 315.64 501.989 315.215 501.815 314.79C490.213 315.547 478.565 316.092 466.858 316.366C432.707 317.168 397.154 318.943 361.031 320.748L361.029 320.748C269.021 325.343 173.308 330.123 87.6249 319.472C45.9177 314.291 13.9156 291.245 -17.0829 265.85C-21.373 262.336 -25.6444 258.776 -29.92 255.212C-56.4965 233.06 -83.2318 210.777 -115.575 198.523C-174.594 176.166 -245.26 193.852 -315.85 219.189C-335.504 226.244 -355.203 233.912 -374.654 241.483L-374.658 241.485L-374.664 241.487C-390.123 247.505 -405.426 253.462 -420.425 259.001C-422.267 259.681 -424.104 260.355 -425.937 261.022Z" fill="black"/>
<path d="M-415.295 242.698C-415.64 243.266 -415.985 243.835 -416.329 244.405C-382.245 233.438 -349.046 220.324 -314.84 206.811C-306.855 203.657 -298.816 200.481 -290.697 197.306C-286.151 195.526 -281.539 193.69 -276.87 191.831C-252.597 182.168 -226.773 171.887 -200.597 165.674C-169.398 158.27 -137.782 156.669 -107.814 168.764C-76.4676 181.42 -52.6686 203.967 -28.9002 226.484C-25.2147 229.976 -21.5298 233.467 -17.8177 236.92C9.79877 262.61 38.8877 286.163 80.881 291.86C176.737 304.898 282.611 304.67 383.831 304.453H383.835C413.655 304.389 443.07 304.326 471.706 304.603C480.321 304.686 488.852 304.523 497.313 304.154C497.126 303.726 496.938 303.298 496.75 302.87C488.477 303.224 480.138 303.378 471.719 303.296C443.044 303.019 413.603 303.082 383.766 303.146C282.562 303.363 176.814 303.59 81.0573 290.565C39.494 284.927 10.6621 261.629 -16.9271 235.964C-20.624 232.525 -24.2993 229.042 -27.9803 225.554C-51.735 203.045 -75.7302 180.309 -107.324 167.553C-137.64 155.318 -169.56 156.966 -200.899 164.403C-227.177 170.64 -253.106 180.963 -277.377 190.626L-277.38 190.627C-282.042 192.484 -286.643 194.315 -291.173 196.089C-299.295 199.266 -307.336 202.442 -315.319 205.595C-349.054 218.921 -381.768 231.844 -415.295 242.698Z" fill="black"/>
<path d="M-398.758 217.249C-399.182 217.863 -399.606 218.477 -400.028 219.092C-370.842 208.668 -342.221 196.634 -312.749 184.242L-312.741 184.238C-304.119 180.613 -295.424 176.957 -286.621 173.302C-282.76 171.701 -278.823 170.047 -274.817 168.365C-250.497 158.151 -223.679 146.889 -196.37 139.869C-164.568 131.693 -132.19 129.296 -102.414 140.966C-71.1193 153.227 -49.0503 174.882 -27.0909 196.43L-27.0894 196.432C-23.8321 199.628 -20.5773 202.821 -17.295 205.982C8.09058 230.426 35.0652 252.807 77.3016 258.299C206.325 275.028 344.615 281.859 474.971 287.655C480.001 287.877 484.984 287.99 489.925 288.004C489.716 287.568 489.506 287.131 489.296 286.695C484.58 286.674 479.825 286.562 475.029 286.35C344.668 280.554 206.431 273.724 77.47 257.004C35.6697 251.568 8.95319 229.442 -16.3881 205.041C-19.6554 201.895 -22.9006 198.71 -26.153 195.518L-26.1579 195.513C-48.1045 173.973 -70.3754 152.115 -101.937 139.749C-132.077 127.937 -164.768 130.396 -196.695 138.603C-224.106 145.65 -251.021 156.954 -275.337 167.166C-279.339 168.847 -283.271 170.498 -287.123 172.096C-295.933 175.754 -304.632 179.411 -313.255 183.037L-313.259 183.038C-342.161 195.19 -370.211 206.984 -398.758 217.249Z" fill="black"/>
<path d="M-378.154 189.526C-378.69 190.198 -379.224 190.872 -379.756 191.547C-357.741 183.055 -335.866 173.782 -313.491 164.296C-304.542 160.502 -295.512 156.674 -286.361 152.849C-282.967 151.43 -279.508 149.971 -275.99 148.487C-251.389 138.107 -223.941 126.527 -195.942 119.207C-163.943 110.842 -131.311 108.068 -101.477 118.968C-70.0249 130.454 -48.1041 150.857 -26.3198 171.133C-23.2121 174.026 -20.1073 176.916 -16.9779 179.777C8.06937 202.676 34.6354 223.663 76.6041 228.839C207.525 244.974 343.031 258.968 474.883 267.719C476.532 267.828 478.175 267.925 479.813 268.01C479.573 267.561 479.333 267.112 479.092 266.663C477.721 266.589 476.347 266.507 474.97 266.415C343.149 257.666 207.669 243.675 76.7641 227.542C35.2131 222.417 8.90063 201.666 -16.0956 178.813C-19.2104 175.965 -22.3056 173.083 -25.4079 170.195L-25.4156 170.188C-47.1876 149.919 -69.3102 129.324 -101.028 117.74C-131.22 106.71 -164.155 109.547 -196.273 117.943C-224.371 125.289 -251.912 136.909 -276.507 147.286C-280.022 148.769 -283.477 150.227 -286.866 151.644C-296.024 155.472 -305.058 159.302 -314.009 163.096C-335.684 172.284 -356.87 181.265 -378.154 189.526Z" fill="black"/>
<path d="M-351.969 159.141C-352.656 159.879 -353.342 160.62 -354.026 161.362C-340.978 156.204 -327.888 150.872 -314.639 145.475C-306.335 142.093 -297.968 138.685 -289.509 135.278C-285.673 133.734 -281.764 132.142 -277.792 130.525C-253.343 120.57 -226.481 109.632 -199.129 102.7C-167.337 94.6437 -134.968 92.0236 -105.054 102.614C-73.6854 113.7 -50.957 133.336 -28.3284 152.887L-28.3254 152.89C-25.2091 155.582 -22.0946 158.273 -18.9598 160.939C6.91916 182.953 34.144 203.262 75.1561 208.79C204.047 226.143 336.892 240.912 466.709 251.546C468.082 251.659 469.452 251.762 470.818 251.856C470.553 251.401 470.288 250.945 470.022 250.491C468.955 250.414 467.887 250.332 466.816 250.244C337.024 239.612 204.202 224.846 75.3306 207.495C34.707 202.02 7.72345 181.921 -18.1125 159.944C-21.2385 157.285 -24.3483 154.598 -27.4639 151.906C-50.0792 132.363 -73.0009 112.556 -104.618 101.382C-134.878 90.6694 -167.54 93.3474 -199.45 101.434C-226.898 108.39 -253.853 119.366 -278.297 129.319C-282.266 130.936 -286.169 132.525 -289.998 134.066C-298.461 137.475 -306.83 140.883 -315.132 144.265C-327.524 149.313 -339.77 154.301 -351.969 159.141Z" fill="black"/>
<path d="M-298.113 109.002C-299.17 109.855 -300.225 110.712 -301.275 111.573C-234.583 86.6197 -168.497 69.8608 -111.32 88.7365C-79.7923 99.137 -55.8366 117.579 -31.9332 135.982C-28.8663 138.343 -25.7994 140.704 -22.7183 143.047C4.35626 163.633 32.5508 182.809 72.5259 188.667C198.196 207.054 325.867 224.74 452.212 238.475C455.961 238.882 459.687 239.212 463.391 239.47C463.108 239.013 462.824 238.556 462.54 238.099C459.163 237.854 455.768 237.547 452.353 237.176C326.033 223.444 198.38 205.76 72.7153 187.375C33.0862 181.567 5.11465 162.568 -21.9268 142.007C-25.0013 139.669 -28.0644 137.311 -31.1315 134.949C-55.0201 116.556 -79.157 97.9708 -110.91 87.4959C-167.505 68.8125 -232.618 84.7862 -298.113 109.002Z" fill="black"/>
<path d="M-260.443 81.3419C-261.576 82.0975 -262.706 82.8575 -263.833 83.6219C-213.59 69.7264 -164.565 63.7149 -119.872 77.0385C-87.9249 86.5513 -62.2971 103.461 -36.6628 120.375C-33.7845 122.274 -30.9053 124.174 -28.018 126.062C0.564819 144.76 30.0024 162.411 68.8608 168.618C113.726 175.773 158.592 183.283 203.474 190.795L203.477 190.796C279.93 203.592 356.43 216.397 433.054 227.47C441.19 228.648 449.26 229.416 457.271 229.821C456.978 229.369 456.683 228.918 456.388 228.467C448.727 228.051 441.015 227.302 433.242 226.177C356.629 215.105 280.157 202.305 203.716 189.511L203.699 189.508C158.818 181.996 113.948 174.486 69.0667 167.328C30.5004 161.168 1.25998 143.653 -27.3022 124.969C-30.1779 123.088 -33.0471 121.195 -35.9185 119.3L-35.948 119.28C-61.5648 102.376 -87.355 85.3577 -119.498 75.7864C-163.399 62.6993 -211.378 68.1443 -260.443 81.3419Z" fill="black"/>
<path d="M-230.218 62.6594C-231.266 63.2584 -232.312 63.8608 -233.356 64.4669C-197.844 58.8148 -163.128 58.3239 -130.081 66.8917C-96.9482 75.4906 -68.4063 90.7228 -39.7292 106.027L-39.7274 106.028C-37.8862 107.011 -36.0444 107.994 -34.2008 108.975C-3.66162 125.234 27.3598 141.088 64.4399 148.493C96.4118 154.886 128.385 161.347 160.365 167.81L160.374 167.812C243.813 184.673 327.299 201.545 410.938 217.239C424.465 219.777 437.996 221.007 451.525 221.172C451.227 220.732 450.927 220.292 450.627 219.853C437.473 219.645 424.322 218.421 411.179 215.955C327.549 200.262 244.075 183.393 160.639 166.532L160.628 166.53L160.566 166.517C128.606 160.059 96.6518 153.601 64.6964 147.211C27.824 139.848 -3.0463 124.081 -33.5862 107.822C-35.4386 106.836 -37.2899 105.848 -39.1412 104.86C-67.7929 89.5682 -96.4633 74.2667 -129.753 65.6271C-161.97 57.2742 -195.735 57.4817 -230.218 62.6594Z" fill="black"/>
<path d="M-209.338 51.3596C-210.272 51.8375 -211.205 52.3184 -212.136 52.8019C-188.213 51.5477 -164.61 52.8904 -141.507 57.9266C-107.024 65.4395 -75.5121 78.9442 -43.8243 92.5245L-41.6819 93.4425C-9.28751 107.322 23.3606 121.138 59.5253 128.482C129.258 142.637 198.44 159.99 267.594 177.336L267.604 177.339C307.566 187.363 347.519 197.384 387.563 206.785C406.314 211.192 425.564 212.677 445.137 211.979C444.834 211.553 444.53 211.127 444.226 210.703C425.054 211.324 406.212 209.826 387.863 205.513C347.858 196.122 307.921 186.104 267.963 176.081L267.96 176.081C198.782 158.729 129.542 141.361 59.7855 127.202C23.7708 119.888 -8.76044 106.126 -41.1668 92.2416L-43.3524 91.3051C-75.0092 77.738 -106.621 64.19 -141.229 56.6501C-163.535 51.7876 -186.294 50.3513 -209.338 51.3596Z" fill="black"/>
<path d="M-194.834 44.2245C-195.698 44.6326 -196.56 45.0432 -197.421 45.4559C-185.892 45.7495 -174.389 46.6259 -162.918 48.189C-126.035 53.2183 -90.6045 65.2686 -55.0835 77.8226C-52.7233 78.6567 -50.3627 79.4931 -48.0013 80.3298C-14.8421 92.0787 18.4838 103.886 53.1442 110.394C107.697 120.631 161.002 137.067 214.31 153.659L218.163 154.858C270.175 171.051 322.22 187.254 375.396 197.818C395.095 201.731 415.7 202.4 436.883 200.699C436.573 200.286 436.261 199.874 435.95 199.462C415.164 201.072 394.962 200.372 375.65 196.537C322.543 185.986 270.556 169.801 218.523 153.602L214.699 152.412C161.4 135.822 108.025 119.363 53.3854 109.11C18.8289 102.622 -14.4059 90.8466 -47.5862 79.0906C-49.9401 78.2567 -52.2938 77.4227 -54.6476 76.5908C-90.1608 64.0396 -125.709 51.9442 -162.741 46.8944C-173.414 45.4399 -184.114 44.5778 -194.834 44.2245Z" fill="black"/>
<path d="M-181.941 38.3489C-182.774 38.7147 -183.606 39.0825 -184.436 39.4525C-181.406 39.6948 -178.376 39.9737 -175.347 40.2906C-138.277 44.1801 -101.029 53.2689 -63.8205 63.1533C-56.9648 64.9745 -50.11 66.8229 -43.2581 68.6705L-43.1906 68.6887L-43.1865 68.6897C-12.8891 76.8596 17.3539 85.0149 47.3795 90.752C99.5768 100.728 150.308 117.927 200.982 135.617C204.562 136.867 208.143 138.119 211.723 139.372C258.801 155.84 305.917 172.322 354.136 183.379C377.744 188.801 401.052 188.251 424.104 184.41C423.786 184.021 423.467 183.632 423.148 183.244C400.46 186.953 377.578 187.422 354.429 182.105C306.285 171.065 259.237 154.608 212.145 138.135L212.086 138.115C208.529 136.87 204.971 135.626 201.413 134.383C150.744 116.695 99.9288 99.4656 47.625 89.4686C17.6531 83.7419 -12.5308 75.6028 -42.8246 67.434L-42.8286 67.433L-42.8736 67.4209C-49.7387 65.5698 -56.6095 63.717 -63.4847 61.8907C-100.699 52.0045 -138.032 42.892 -175.21 38.9913C-177.454 38.7567 -179.698 38.5427 -181.941 38.3489Z" fill="black"/>
<path d="M-168.061 32.4958C-168.921 32.8436 -169.78 33.1937 -170.638 33.546C-119.43 38.687 -66.2852 49.4119 -14.6593 59.8305C4.42719 63.6823 23.3068 67.4924 41.8035 70.9626C89.6282 79.9373 136.154 98.4003 182.725 116.882L185.208 117.867C186.496 118.378 187.783 118.888 189.071 119.399C237.739 138.691 286.52 157.531 336.825 165.001C359.785 168.411 383.733 168.42 408.294 165.968C407.932 165.566 407.57 165.164 407.207 164.763C383.075 167.11 359.561 167.057 337.017 163.709C286.884 156.264 238.238 137.483 189.553 118.184C187.424 117.34 185.295 116.496 183.165 115.651C136.628 97.1826 89.9963 78.6769 42.0447 69.6786C23.5901 66.216 4.7392 62.4118 -14.3296 58.5635L-14.3371 58.562C-65.1584 48.3057 -117.526 37.7372 -168.061 32.4958Z" fill="black"/>
<path d="M-148.548 25.0627C-149.531 25.4143 -150.512 25.7687 -151.492 26.1262C-88.6372 31.3547 -23.2284 40.4794 36.8987 50.9909C84.6022 59.3172 130.865 77.4376 177.171 95.5752L180.937 97.05C228.478 115.663 276.104 134.013 325.299 141.41C345.163 144.396 365.834 144.974 387.054 143.705C386.636 143.292 386.218 142.88 385.799 142.469C365.073 143.643 344.892 143.034 325.493 140.118C276.467 132.747 228.974 114.454 181.414 95.8336L177.597 94.3385L177.595 94.3375C131.328 76.2155 84.9581 58.053 37.1236 49.704C-22.1263 39.3458 -86.5139 30.3315 -148.548 25.0627Z" fill="black"/>
<path d="M-121.03 16.0894C-122.348 16.478 -123.663 16.8719 -124.976 17.2708C-72.4677 18.8841 -19.8904 22.8922 32.8514 30.761C80.919 37.9401 127.739 54.3392 174.603 70.754L174.606 70.7549L176.957 71.5784C224.585 88.2582 272.279 104.794 321.282 111.432C332.114 112.896 343.151 113.745 354.359 114.055C353.815 113.602 353.269 113.15 352.722 112.699C342.134 112.354 331.702 111.522 321.457 110.137C272.608 103.52 225.036 87.032 177.389 70.3455L174.986 69.5038C128.159 53.1018 81.2371 36.6665 33.0447 29.4687C-18.4484 21.7863 -69.7787 17.7806 -121.03 16.0894Z" fill="black"/>
<path d="M-46.3588 0C-48.5112 0.298401 -50.6593 0.609985 -52.8031 0.934814C-24.5729 2.51782 3.5766 4.82648 31.6174 8.05865C80.4371 13.688 128.681 27.5104 177.002 41.3549L177.456 41.485C179.467 42.0612 181.478 42.6373 183.49 43.213C219.989 53.6579 256.548 63.906 293.403 70.4084C292.37 69.7766 291.333 69.1481 290.295 68.5233C254.654 62.0159 219.256 52.0892 183.85 41.957C181.675 41.3348 179.501 40.7117 177.326 40.0886C129.035 26.2524 80.6961 12.4028 31.7672 6.76062C5.8093 3.76849 -20.2403 1.56726 -46.3588 0Z" fill="black"/>
</svg>
