<svg width="261" height="404" viewBox="0 0 261 404" fill="none" xmlns="http://www.w3.org/2000/svg">
<path d="M624.272 -609.022C617.373 -610.176 610.479 -611.351 603.586 -612.526C597.728 -613.524 591.872 -614.522 586.012 -615.508C583.531 -615.925 581.05 -616.34 578.569 -616.752C571.214 -617.657 563.81 -618.408 556.362 -619C566.186 -617.482 575.992 -615.869 585.795 -614.22C591.648 -613.235 597.501 -612.238 603.356 -611.24L603.359 -611.239C616.463 -609.006 629.578 -606.771 642.734 -604.675C636.623 -606.234 630.468 -607.683 624.272 -609.022Z" fill="black"/>
<path d="M738.328 -569.841C737.087 -570.439 735.844 -571.032 734.598 -571.62C727.377 -572.506 720.148 -573.344 712.911 -574.126C675.399 -578.19 638.996 -585.976 602.617 -593.756L602.608 -593.758C596.722 -595.017 590.837 -596.276 584.949 -597.519C542.673 -606.44 500.209 -614.537 455.949 -615.923C452.856 -616.021 449.765 -616.098 446.677 -616.155C443.835 -615.778 441 -615.379 438.173 -614.957C444.078 -614.914 449.989 -614.804 455.907 -614.617C500.043 -613.235 542.41 -605.16 584.679 -596.24C590.564 -594.998 596.447 -593.74 602.334 -592.481C638.709 -584.701 675.186 -576.899 712.77 -572.827C721.301 -571.905 729.819 -570.905 738.328 -569.841Z" fill="black"/>
<path d="M793.188 -539.141C792.342 -539.685 791.493 -540.227 790.644 -540.766C765.769 -543.792 741.017 -546.932 716.472 -550.163C677.046 -555.351 639.266 -565.649 601.524 -575.938L601.522 -575.938C595.398 -577.608 589.275 -579.277 583.146 -580.924C539.262 -592.716 495.093 -603.367 448.227 -604.773C424.179 -605.494 400.431 -604.251 376.851 -601.922C374.438 -601.252 372.031 -600.565 369.632 -599.861C395.586 -602.667 421.707 -604.261 448.188 -603.467C494.89 -602.066 538.932 -591.452 582.806 -579.662C588.927 -578.017 595.046 -576.349 601.167 -574.68C638.906 -564.393 676.78 -554.068 716.302 -548.868C741.739 -545.519 767.399 -542.268 793.188 -539.141Z" fill="black"/>
<path d="M829.02 -513.896C828.4 -514.374 827.779 -514.85 827.156 -515.324C791.246 -517.642 755.592 -520.816 720.575 -525.575C677.389 -531.446 636.758 -545.454 596.109 -559.467L596.102 -559.47C590.949 -561.246 585.797 -563.022 580.638 -564.782C534.808 -580.419 488.56 -594.747 438.362 -596.023C395.719 -597.097 354.879 -589.586 314.441 -580.168C312.147 -579.198 309.863 -578.212 307.586 -577.21C350.343 -587.392 393.343 -595.85 438.329 -594.717C488.309 -593.446 534.391 -579.18 580.216 -563.546C585.373 -561.786 590.526 -560.009 595.682 -558.232C636.317 -544.223 677.076 -530.17 720.399 -524.28C756.075 -519.432 792.421 -516.227 829.02 -513.896Z" fill="black"/>
<path d="M856.573 -491.121C856.09 -491.549 855.606 -491.977 855.121 -492.404C811.059 -491.69 767.388 -493.159 725.216 -500.428C680.52 -508.119 638.727 -525.428 596.925 -542.741L596.919 -542.744C590.542 -545.385 584.166 -548.026 577.779 -550.633C529.55 -570.317 480.747 -588.046 427.089 -588.935C377.965 -589.749 332.666 -575.988 287.834 -560.443C281.544 -558.262 275.264 -556.046 268.984 -553.83C262.378 -551.499 255.772 -549.168 249.155 -546.878C247.425 -545.834 245.701 -544.78 243.985 -543.717C252.491 -546.624 260.968 -549.615 269.437 -552.604L269.44 -552.605C275.715 -554.819 281.986 -557.032 288.263 -559.208C333.082 -574.749 378.192 -588.438 427.068 -587.628C480.46 -586.744 529.066 -569.104 577.285 -549.423C583.663 -546.82 590.034 -544.181 596.408 -541.541L596.411 -541.54C638.202 -524.23 680.143 -506.858 724.994 -499.141C767.733 -491.773 811.986 -490.352 856.573 -491.121Z" fill="black"/>
<path d="M877.438 -471.571C877.04 -471.965 876.641 -472.359 876.242 -472.752C826.78 -467.221 777.595 -465.041 730.115 -474.986C684.092 -484.608 640.917 -505.407 597.691 -526.231C590.007 -529.933 582.32 -533.636 574.616 -537.277C523.616 -561.379 471.86 -582.75 414.817 -582.954C364.849 -583.139 320.464 -565.24 276.794 -545.041C270.378 -542.074 263.979 -539.057 257.58 -536.041C236.261 -525.992 214.943 -515.942 193.034 -507.715C191.97 -506.862 190.909 -506.005 189.852 -505.144C213.123 -513.638 235.674 -524.269 258.162 -534.87C264.556 -537.884 270.944 -540.896 277.343 -543.855C320.997 -564.047 365.155 -581.831 414.812 -581.647C471.542 -581.445 523.069 -560.192 574.058 -536.095C581.742 -532.464 589.414 -528.768 597.09 -525.069L597.094 -525.068C640.315 -504.245 683.655 -483.365 729.847 -473.707C777.865 -463.649 827.577 -465.949 877.438 -471.571Z" fill="black"/>
<path d="M894.154 -454.232C893.812 -454.603 893.469 -454.975 893.126 -455.345C840.277 -443.889 787.484 -436.555 735.122 -449.359C687.423 -461.023 642.473 -485.268 597.402 -509.578C588.712 -514.265 580.018 -518.955 571.299 -523.557C517.4 -552.006 462.568 -577.101 402.147 -577.342C351.458 -577.546 307.818 -555.353 265.215 -530.187C258.506 -526.224 251.823 -522.188 245.143 -518.154C214.399 -499.586 183.704 -481.047 150.69 -469.786C150.004 -469.099 149.319 -468.411 148.636 -467.72C182.759 -478.944 214.359 -498.032 245.858 -517.058L245.861 -517.06C252.531 -521.089 259.196 -525.115 265.88 -529.063C308.468 -554.219 351.839 -576.238 402.142 -576.035C462.216 -575.796 516.799 -550.846 570.688 -522.402C579.382 -517.813 588.059 -513.133 596.738 -508.451L596.741 -508.449C641.811 -484.138 686.934 -459.797 734.812 -448.09C787.658 -435.168 840.881 -442.655 893.949 -454.187C894.017 -454.202 894.086 -454.217 894.154 -454.232Z" fill="black"/>
<path d="M908.093 -438.45C907.789 -438.809 907.484 -439.168 907.179 -439.526C903.911 -438.453 900.644 -437.396 897.376 -436.361C845.854 -420.032 794.164 -408.925 740.128 -423.843C691.089 -437.389 644.378 -465.021 597.424 -492.796C587.659 -498.573 577.884 -504.355 568.075 -510.019C511.153 -542.883 453.126 -571.712 389.695 -571.619C338.196 -571.545 295.271 -545.083 253.737 -515.073C246.912 -510.142 240.126 -505.116 233.345 -500.094L233.342 -500.091C198.801 -474.51 164.406 -449.036 125.825 -436.757C123.435 -435.997 121.036 -435.292 118.631 -434.64C118.152 -434.064 117.674 -433.487 117.197 -432.909C120.217 -433.692 123.225 -434.559 126.222 -435.513C165.03 -447.864 199.633 -473.495 234.17 -499.077C240.94 -504.091 247.707 -509.104 254.503 -514.014C296.027 -544.017 338.652 -570.239 389.697 -570.313C452.746 -570.405 510.505 -541.749 567.421 -508.887C577.2 -503.241 586.955 -497.47 596.707 -491.701C643.662 -463.922 690.556 -436.181 739.78 -422.583C794.198 -407.56 846.196 -418.77 897.771 -435.115C901.214 -436.206 904.654 -437.32 908.093 -438.45Z" fill="black"/>
<path d="M920.107 -423.74C919.829 -424.093 919.55 -424.447 919.271 -424.8C913.236 -422.125 907.205 -419.499 901.167 -416.967C851.339 -396.067 801.033 -381.504 744.872 -398.548C694.686 -413.778 646.267 -444.574 597.456 -475.619L597.453 -475.621C586.676 -482.476 575.879 -489.343 565.04 -496.057C505.171 -533.143 444.032 -565.547 377.944 -565.047C325.62 -564.658 283.348 -534.081 242.83 -499.469C235.992 -493.627 229.206 -487.673 222.429 -481.726C209.102 -470.032 195.81 -458.368 182.223 -447.654C161.738 -431.502 140.645 -417.56 117.889 -409.02C109.954 -406.041 101.914 -403.809 93.7846 -402.231C93.4242 -401.721 93.0647 -401.209 92.7061 -400.697C101.355 -402.299 109.909 -404.628 118.348 -407.797C141.286 -416.405 162.502 -430.44 183.033 -446.629C196.646 -457.363 209.985 -469.068 223.329 -480.777L223.337 -480.784C230.105 -486.722 236.873 -492.661 243.68 -498.476C284.197 -533.088 326.147 -563.355 377.954 -563.741C443.629 -564.238 504.481 -532.033 564.351 -494.947C575.155 -488.254 585.928 -481.402 596.691 -474.556L596.694 -474.554C645.51 -443.503 694.118 -412.585 744.492 -397.298C801.106 -380.117 851.774 -394.832 901.673 -415.762C907.827 -418.343 913.968 -421.018 920.107 -423.74Z" fill="black"/>
<path d="M930.609 -409.915C930.35 -410.269 930.089 -410.623 929.829 -410.976C921.475 -406.336 913.142 -401.762 904.78 -397.409C856.683 -372.368 807.756 -354.675 749.169 -373.697C697.911 -390.345 647.887 -424.001 597.322 -458.02L597.317 -458.024C585.698 -465.841 574.05 -473.678 562.352 -481.331C499.814 -522.25 435.859 -557.925 367.45 -556.999C314.23 -556.275 272.588 -521.946 233.041 -483.185C226.271 -476.55 219.565 -469.787 212.871 -463.037L212.868 -463.033C199.98 -450.037 187.139 -437.088 173.979 -425.186C153.992 -407.11 133.335 -391.514 110.807 -381.947C98.8306 -376.866 86.5956 -373.766 74.1624 -372.269C73.8766 -371.797 73.5917 -371.326 73.3074 -370.853C86.1991 -372.316 98.8928 -375.473 111.319 -380.745C134.042 -390.395 154.826 -406.102 174.856 -424.217C188.042 -436.142 200.93 -449.139 213.835 -462.153C220.523 -468.897 227.215 -475.645 233.956 -482.252C273.514 -521.023 314.819 -554.976 367.467 -555.693C435.438 -556.613 499.09 -521.162 561.636 -480.238C573.297 -472.609 584.92 -464.788 596.525 -456.98C647.097 -422.953 697.315 -389.165 748.765 -372.455C807.866 -353.265 857.198 -371.163 905.384 -396.25C913.809 -400.636 922.203 -405.245 930.609 -409.915Z" fill="black"/>
<path d="M939.979 -396.712C939.733 -397.071 939.486 -397.43 939.238 -397.788C938.91 -397.573 938.582 -397.357 938.254 -397.142L938.251 -397.14C928.168 -390.522 918.154 -383.949 908.077 -377.754C861.608 -349.186 813.964 -328.767 752.982 -349.475C703.582 -366.236 655.518 -396.432 609.948 -425.061C598.184 -432.452 586.586 -439.738 575.175 -446.662C564.085 -453.396 552.137 -461.188 539.56 -469.389C518.643 -483.03 495.986 -497.804 472.65 -510.735C435.259 -531.455 395.921 -547.569 358.766 -546.883C304.47 -545.881 263.481 -508.347 224.889 -466.079C218.286 -458.848 211.756 -451.48 205.24 -444.129L205.238 -444.126C192.678 -429.956 180.17 -415.843 167.298 -402.881C147.758 -383.203 127.446 -366.246 104.989 -355.874C89.8585 -348.887 74.3358 -345.42 58.5381 -344.606C58.3035 -344.159 58.0696 -343.711 57.8363 -343.263C74.0447 -344.01 89.9901 -347.508 105.538 -354.688C128.202 -365.156 148.644 -382.24 168.226 -401.961C181.122 -414.948 193.675 -429.11 206.252 -443.299C212.763 -450.645 219.28 -457.998 225.854 -465.198C264.465 -507.486 305.111 -544.586 358.79 -545.577C395.586 -546.256 434.671 -530.287 472.017 -509.593C495.329 -496.674 517.886 -481.963 538.763 -468.348C551.352 -460.137 563.331 -452.326 574.496 -445.545C585.866 -438.647 597.435 -431.378 609.181 -423.998C654.763 -395.36 703 -365.054 752.561 -348.238C814.107 -327.338 862.191 -348.01 908.762 -376.641C918.857 -382.847 928.889 -389.432 938.971 -396.05C939.307 -396.27 939.643 -396.491 939.979 -396.712Z" fill="black"/>
<path d="M948.466 -383.943C948.23 -384.31 947.994 -384.677 947.757 -385.043C946.641 -384.224 945.527 -383.404 944.414 -382.584C942.381 -381.085 940.353 -379.586 938.329 -378.089C929.093 -371.26 919.927 -364.483 910.692 -358.064C865.673 -326.772 819.194 -304.111 756.015 -325.993C705.472 -343.503 656.117 -375.424 609.565 -405.533L609.561 -405.535C597.306 -413.461 585.245 -421.262 573.408 -428.641C562.085 -435.705 549.846 -443.928 536.919 -452.613L536.917 -452.614C532.801 -455.38 528.614 -458.193 524.365 -461.03C506.782 -472.771 488.142 -484.921 469.006 -495.857C430.752 -517.716 390.422 -534.777 352.484 -533.961C296.897 -532.772 256.618 -492.788 218.974 -447.861C212.648 -440.312 206.399 -432.624 200.162 -424.953L200.16 -424.951C187.808 -409.756 175.505 -394.623 162.762 -380.746C143.594 -359.871 123.496 -341.915 100.879 -330.985C83.0073 -322.352 64.6891 -318.927 46.0833 -319.187C45.8861 -318.754 45.6895 -318.322 45.4936 -317.889C64.4678 -317.548 83.181 -320.984 101.448 -329.809C124.284 -340.845 144.515 -358.942 163.725 -379.862C176.494 -393.768 188.841 -408.955 201.21 -424.169C207.441 -431.833 213.678 -439.505 219.976 -447.022C257.642 -491.976 297.577 -531.48 352.512 -532.655C390.078 -533.463 430.146 -516.558 468.357 -494.723C487.452 -483.811 506.061 -471.681 523.639 -459.944C527.88 -457.112 532.061 -454.303 536.174 -451.539L536.177 -451.538C549.108 -442.85 561.372 -434.61 572.716 -427.532C584.509 -420.181 596.539 -412.4 608.774 -404.486L608.779 -404.483C655.344 -374.365 704.878 -342.326 755.587 -324.758C819.368 -302.668 866.308 -325.622 911.439 -356.992C920.691 -363.423 929.874 -370.213 939.111 -377.042L939.138 -377.062C941.152 -378.551 943.169 -380.042 945.19 -381.532C946.281 -382.336 947.373 -383.14 948.466 -383.943Z" fill="black"/>
<path d="M956.337 -371.315C956.11 -371.69 955.883 -372.065 955.656 -372.44C949.514 -367.679 943.449 -362.841 937.418 -358.031C929.07 -351.373 920.788 -344.767 912.459 -338.487C890.547 -321.965 868.236 -307.633 843.276 -300.226C818.335 -292.825 790.713 -292.329 758.157 -303.546C707.02 -321.173 656.785 -354.352 609.743 -385.422L609.739 -385.424C597.063 -393.796 584.62 -402.015 572.452 -409.735C560.971 -417.016 548.58 -425.486 535.502 -434.426L535.486 -434.437C531.374 -437.248 527.194 -440.105 522.952 -442.987C505.224 -455.032 486.438 -467.491 467.135 -478.701C428.548 -501.11 387.802 -518.588 349.197 -517.753C291.973 -516.491 252.478 -474.997 215.79 -428.463C209.864 -420.948 204.013 -413.302 198.171 -405.668L198.168 -405.664C185.894 -389.626 173.661 -373.641 160.862 -359.024C141.978 -337.457 121.929 -318.948 98.8466 -307.762C78.3363 -297.82 57.4493 -294.799 36.3425 -296.386C36.1736 -295.962 36.0052 -295.539 35.8373 -295.114C57.272 -293.442 78.5286 -296.461 99.417 -306.587C122.731 -317.885 142.917 -336.545 161.846 -358.163C174.672 -372.812 186.951 -388.856 199.239 -404.913C205.076 -412.54 210.916 -420.17 216.817 -427.655C253.526 -474.215 292.676 -515.199 349.225 -516.447C387.453 -517.274 427.936 -499.955 466.478 -477.571C485.74 -466.385 504.494 -453.948 522.218 -441.906C526.445 -439.034 530.615 -436.184 534.719 -433.378L534.749 -433.358L534.75 -433.357C547.833 -424.414 560.249 -415.926 571.752 -408.632C583.871 -400.942 596.283 -392.744 608.937 -384.386L608.939 -384.385C655.997 -353.303 706.42 -319.998 757.73 -302.311C790.538 -291.007 818.44 -291.494 843.648 -298.974C868.836 -306.448 891.298 -320.895 913.246 -337.444C921.638 -343.771 929.943 -350.396 938.298 -357.06C944.269 -361.823 950.266 -366.607 956.337 -371.315Z" fill="black"/>
<path d="M964.446 -357.386C964.231 -357.769 964.015 -358.152 963.799 -358.534C955.097 -351.991 946.575 -345.218 938.12 -338.498C929.697 -331.804 921.342 -325.163 912.94 -318.855C891.01 -302.389 868.69 -288.123 843.771 -280.79C818.872 -273.463 791.343 -273.047 758.972 -284.347C707.763 -302.218 657.452 -334.878 610.117 -365.605C597.202 -373.989 584.508 -382.229 572.079 -389.985C560.279 -397.352 547.51 -405.973 534.018 -415.083L534.015 -415.085L533.992 -415.1C530.179 -417.675 526.308 -420.288 522.386 -422.923C504.58 -434.883 485.713 -447.28 466.344 -458.465C427.625 -480.822 386.807 -498.391 348.352 -497.89C290.937 -497.129 251.681 -455.396 215.284 -408.532C209.41 -400.969 203.612 -393.274 197.823 -385.59L197.818 -385.584C185.641 -369.423 173.503 -353.313 160.783 -338.596C142.024 -316.892 122.066 -298.3 98.9952 -287.161C75.8895 -275.999 52.4692 -273.524 28.8837 -276.492C28.736 -276.072 28.589 -275.651 28.4424 -275.231C52.3216 -272.183 76.0929 -274.646 99.5639 -285.985C122.871 -297.238 142.968 -315.985 161.773 -337.742C174.52 -352.491 186.703 -368.661 198.895 -384.842L198.907 -384.857C204.688 -392.529 210.47 -400.204 216.316 -407.731C252.735 -454.624 291.643 -495.832 348.369 -496.584C386.453 -497.08 427.012 -479.667 465.69 -457.333C485.019 -446.172 503.856 -433.796 521.656 -421.839C525.58 -419.203 529.453 -416.588 533.271 -414.01L533.274 -414.009C546.769 -404.897 559.565 -396.257 571.386 -388.877C583.768 -381.15 596.429 -372.931 609.323 -364.561L609.324 -364.56C656.675 -333.821 707.167 -301.042 758.541 -283.113C791.164 -271.726 818.974 -272.131 844.14 -279.537C869.287 -286.937 891.759 -301.317 913.726 -317.811C922.191 -324.167 930.569 -330.827 938.998 -337.526C947.386 -344.194 955.824 -350.9 964.446 -357.386Z" fill="black"/>
<path d="M972.768 -341.949C972.566 -342.339 972.364 -342.728 972.162 -343.118C963.786 -337.397 955.571 -331.454 947.432 -325.5C945.466 -324.062 943.505 -322.624 941.547 -321.188C932.243 -314.363 923.013 -307.592 913.715 -301.187C868.714 -270.185 822.319 -247.865 759.416 -269.948C708.112 -287.956 657.95 -318.421 610.046 -347.516L610.044 -347.517C596.835 -355.539 583.798 -363.457 570.955 -370.982C558.319 -378.385 544.504 -387.232 529.859 -396.611C526.829 -398.552 523.763 -400.515 520.664 -402.493C502.599 -414.027 483.44 -426.054 463.832 -436.946C424.637 -458.72 383.554 -476.017 345.734 -475.739C289.607 -475.312 250.663 -433.999 214.591 -387.515C208.572 -379.76 202.635 -371.861 196.709 -363.979C184.845 -348.196 173.029 -332.478 160.704 -318.094C142.233 -296.536 122.689 -278.065 100.283 -267.001C74.7264 -254.379 48.7128 -252.532 22.4762 -257.015C22.3474 -256.595 22.2192 -256.175 22.0914 -255.755C48.5923 -251.201 74.9467 -253.03 100.862 -265.829C123.503 -277.009 143.184 -295.638 161.697 -317.244C174.048 -331.658 185.909 -347.437 197.789 -363.24C203.709 -371.114 209.633 -378.994 215.624 -386.715C251.722 -433.232 290.313 -474.01 345.743 -474.432C383.205 -474.708 424.035 -457.559 463.197 -435.804C482.768 -424.932 501.898 -412.924 519.961 -401.392C523.052 -399.419 526.113 -397.458 529.139 -395.52L529.145 -395.517C543.791 -386.137 557.633 -377.273 570.294 -369.854C583.094 -362.355 596.103 -354.454 609.294 -346.442L609.296 -346.441C657.216 -317.336 707.536 -286.773 758.983 -268.715C822.486 -246.421 869.344 -269.032 914.457 -300.111C923.772 -306.529 933.022 -313.313 942.327 -320.139C944.284 -321.574 946.242 -323.01 948.204 -324.446C956.299 -330.367 964.457 -336.27 972.768 -341.949Z" fill="black"/>
<path d="M980.791 -325.745C980.604 -326.14 980.416 -326.535 980.228 -326.93C970.017 -320.85 960.016 -314.45 950.109 -308.051C948.59 -307.07 947.073 -306.089 945.558 -305.109C935.453 -298.572 925.427 -292.087 915.34 -285.983C868.957 -257.915 821.448 -238.016 759.999 -258.764C708.211 -276.268 657.571 -304.291 608.655 -331.36C595.321 -338.738 582.115 -346.046 569.049 -353.051C555.548 -360.287 540.679 -369.089 524.894 -378.433C522.537 -379.829 520.159 -381.236 517.763 -382.653C499.325 -393.548 479.779 -404.95 459.844 -415.283C419.996 -435.938 378.501 -452.371 341.112 -451.888C286.26 -451.201 248.324 -410.608 213.263 -364.941C207.333 -357.216 201.486 -349.348 195.652 -341.498L195.651 -341.496C184.207 -326.096 172.812 -310.762 160.93 -296.706C143.001 -275.495 124.033 -257.285 102.272 -246.286C74.4429 -232.225 45.8433 -231.244 16.8939 -237.44C16.7828 -237.019 16.6721 -236.597 16.562 -236.175C45.7445 -229.919 74.6778 -230.88 102.862 -245.12C124.855 -256.236 143.958 -274.604 161.929 -295.863C173.836 -309.949 185.276 -325.343 196.736 -340.765C202.564 -348.607 208.398 -356.457 214.3 -364.145C249.387 -409.845 286.973 -449.903 341.129 -450.582C378.173 -451.06 419.422 -434.763 459.242 -414.123C479.142 -403.809 498.661 -392.422 517.097 -381.528C519.479 -380.121 521.842 -378.722 524.186 -377.334L524.225 -377.311C540.006 -367.969 554.903 -359.15 568.431 -351.899C581.461 -344.914 594.643 -337.62 607.961 -330.25C656.89 -303.173 707.669 -275.073 759.581 -257.526C821.583 -236.591 869.525 -256.731 916.017 -284.865C926.122 -290.98 936.166 -297.477 946.269 -304.013C947.784 -304.992 949.3 -305.973 950.818 -306.954C960.69 -313.33 970.64 -319.697 980.791 -325.745Z" fill="black"/>
<path d="M988.518 -308.615C988.346 -309.016 988.173 -309.417 988 -309.817C975.191 -303.452 962.658 -296.647 950.229 -289.899C939.343 -283.988 928.536 -278.12 917.692 -272.628C869.661 -248.305 820.8 -231.285 760.65 -250.019C708.282 -266.333 656.928 -291.532 606.868 -316.095C593.319 -322.744 579.864 -329.346 566.51 -335.712C551.964 -342.64 535.872 -351.217 518.802 -360.314L518.8 -360.315L518.627 -360.407C517.058 -361.243 515.481 -362.084 513.896 -362.928C495.008 -372.986 475.02 -383.536 454.71 -393.078C414.111 -412.153 372.13 -427.249 334.972 -426.303C281.379 -424.91 244.999 -385.334 211.473 -340.888C205.825 -333.4 200.26 -325.776 194.705 -318.166C183.743 -303.149 172.824 -288.19 161.398 -274.455C144.192 -253.772 125.904 -235.951 104.742 -225.018C74.8948 -209.599 43.7667 -209.679 12.1057 -217.702C12.0114 -217.277 11.9176 -216.851 11.8244 -216.425C43.6849 -208.359 75.141 -208.255 105.342 -223.857C126.734 -234.909 145.155 -252.887 162.403 -273.62C173.853 -287.385 184.817 -302.403 195.794 -317.441L195.796 -317.443C201.344 -325.044 206.896 -332.65 212.517 -340.101C246.064 -384.576 282.103 -423.621 335.006 -424.997C371.837 -425.934 413.579 -410.959 454.154 -391.896C474.431 -382.369 494.393 -371.833 513.282 -361.774C514.927 -360.899 516.564 -360.026 518.192 -359.158C535.255 -350.065 551.373 -341.475 565.947 -334.533C579.268 -328.182 592.7 -321.591 606.234 -314.95L606.24 -314.947C656.311 -290.378 707.786 -265.119 760.261 -248.771C820.902 -229.884 870.151 -247.088 918.283 -271.463C929.199 -276.991 940.053 -282.884 950.968 -288.81C963.346 -295.53 975.803 -302.293 988.518 -308.615Z" fill="black"/>
<path d="M995.795 -290.733C995.639 -291.14 995.482 -291.546 995.324 -291.952C981.95 -286.681 968.801 -281.02 955.744 -275.399L955.742 -275.398C944.034 -270.357 932.399 -265.348 920.741 -260.68C870.833 -240.696 820.392 -226.896 761.479 -243.157C708.379 -257.793 656.112 -279.861 604.753 -301.547L604.746 -301.55C590.988 -307.359 577.296 -313.14 563.67 -318.743C548.002 -325.185 530.635 -333.303 512.253 -341.896L509.533 -343.167C490.15 -352.226 469.693 -361.739 448.98 -370.301C407.573 -387.419 365.052 -400.779 327.941 -399.092C275.444 -396.714 241.082 -358.344 209.534 -315.42C204.387 -308.418 199.316 -301.296 194.253 -294.184L194.251 -294.181C183.768 -279.458 173.318 -264.779 162.287 -251.296C145.937 -231.311 128.377 -214.037 107.695 -203.271C75.9685 -186.749 42.4013 -188.069 8.13264 -197.942C8.05477 -197.511 7.97743 -197.08 7.90062 -196.649C42.3316 -186.751 76.2194 -185.406 108.299 -202.112C129.211 -212.998 146.905 -230.429 163.299 -250.469C174.358 -263.986 184.854 -278.728 195.352 -293.474L195.357 -293.48C200.412 -300.58 205.468 -307.681 210.587 -314.647C242.15 -357.589 276.181 -395.44 328 -397.787C364.805 -399.46 407.097 -386.202 448.48 -369.094C469.162 -360.544 489.594 -351.043 508.98 -341.984L511.711 -340.707L511.713 -340.706C530.084 -332.119 547.475 -323.989 563.173 -317.535C576.775 -311.941 590.452 -306.166 604.201 -300.361C655.57 -278.671 707.94 -256.558 761.131 -241.898C820.461 -225.522 871.233 -239.449 921.227 -259.467C932.953 -264.163 944.632 -269.19 956.366 -274.242C969.392 -279.849 982.488 -285.487 995.795 -290.733Z" fill="black"/>
<path d="M1002.46 -272.382C1002.32 -272.795 1002.18 -273.207 1002.04 -273.619C988.531 -269.682 975.173 -265.448 961.88 -261.235C949.341 -257.26 936.86 -253.304 924.369 -249.634C872.414 -234.368 820.186 -224.005 762.414 -237.515C708.49 -250.114 655.194 -268.797 602.538 -287.256C588.576 -292.151 574.66 -297.029 560.788 -301.774C543.781 -307.588 524.934 -315.092 505.054 -323.008L505.01 -323.026C485.12 -330.945 464.203 -339.273 443.096 -346.713C400.9 -361.586 357.859 -372.944 320.648 -370.368C267.892 -366.726 236.641 -329 208.031 -287.525C204.211 -281.989 200.44 -276.386 196.67 -270.786C186.297 -255.379 175.94 -239.994 164.644 -226.064C149.252 -207.083 132.168 -190.875 111.047 -181.095C76.3179 -165.007 40.8238 -167.67 5.05959 -178.892C4.99747 -178.455 4.93587 -178.017 4.87491 -177.58C40.7631 -166.353 76.5421 -163.671 111.596 -179.91C132.974 -189.808 150.207 -206.186 165.66 -225.242C176.996 -239.221 187.402 -254.678 197.785 -270.102C201.548 -275.691 205.307 -281.276 209.107 -286.784C237.724 -328.268 268.66 -365.47 320.738 -369.065C357.664 -371.621 400.488 -360.346 442.662 -345.481C463.74 -338.051 484.633 -329.733 504.526 -321.812L504.59 -321.786C524.454 -313.877 543.327 -306.362 560.365 -300.538C574.215 -295.8 588.117 -290.927 602.069 -286.036C654.734 -267.573 708.116 -248.86 762.116 -236.243C820.223 -222.654 872.717 -233.095 924.737 -248.38C937.287 -252.068 949.804 -256.035 962.364 -260.016C975.652 -264.228 988.988 -268.455 1002.46 -272.382Z" fill="black"/>
<path d="M1008.54 -253.418C1008.41 -253.837 1008.28 -254.256 1008.16 -254.675C995.319 -252.088 982.522 -249.307 969.746 -246.53C958.444 -244.074 947.158 -241.621 935.873 -239.309C884.021 -228.689 832.136 -221.04 778.548 -229.623C713.472 -240.033 649.333 -258.361 585.544 -276.59C561.824 -283.368 538.152 -290.132 514.498 -296.471C500.625 -300.182 485.675 -304.828 470.102 -309.668L467.482 -310.482C450.97 -315.612 433.795 -320.91 416.515 -325.495C381.969 -334.66 346.935 -340.992 315.853 -337.396C261.883 -331.157 232.388 -294.144 204.896 -254.418C202.322 -250.699 199.766 -246.956 197.208 -243.212L197.2 -243.199C172.4 -206.89 147.534 -170.483 105.839 -154.233C72.496 -141.224 37.743 -145.619 2.50484 -157.792C2.46016 -157.347 2.41601 -156.901 2.3725 -156.455C37.6859 -144.299 72.679 -139.893 106.314 -153.016C148.409 -169.422 173.507 -206.179 198.263 -242.436C200.83 -246.195 203.393 -249.949 205.971 -253.675C233.463 -293.401 262.665 -329.932 316.004 -336.098C346.832 -339.665 381.669 -333.388 416.18 -324.232C433.43 -319.656 450.58 -314.365 467.094 -309.235L469.72 -308.418C485.287 -303.58 500.26 -298.927 514.16 -295.209C537.767 -288.883 561.411 -282.126 585.115 -275.353C648.929 -257.117 713.182 -238.756 778.341 -228.333C832.173 -219.711 884.253 -227.403 936.136 -238.03C947.456 -240.348 958.764 -242.806 970.079 -245.265C982.88 -248.047 995.691 -250.831 1008.54 -253.418Z" fill="black"/>
<path d="M1013.67 -234.98C1013.56 -235.406 1013.45 -235.833 1013.34 -236.259C1000.87 -234.946 988.423 -233.527 975.979 -232.109C964.165 -230.763 952.356 -229.418 940.553 -228.165C887.134 -222.494 833.763 -218.708 780.001 -225.233C714.11 -233.24 648.762 -247.053 583.598 -260.827C559.547 -265.911 535.521 -270.989 511.501 -275.769C496.372 -278.775 480.137 -282.71 463.304 -286.797L462.835 -286.91C446.153 -290.961 428.892 -295.151 411.571 -298.718C376.614 -305.916 341.35 -310.587 310.005 -306.419C258.021 -299.511 230.147 -264.418 204.208 -226.881C201.828 -223.436 199.464 -219.972 197.1 -216.507C173.655 -182.142 150.148 -147.688 109.936 -131.822C75.2323 -118.13 38.3931 -123.753 0.874749 -137.519C0.847196 -137.065 0.820175 -136.611 0.793792 -136.156C38.3511 -122.428 75.4204 -116.799 110.416 -130.607C151.023 -146.629 174.758 -181.428 198.163 -215.743L198.166 -215.748C200.536 -219.223 202.903 -222.693 205.283 -226.138C231.216 -263.667 258.806 -298.297 310.178 -305.124C341.297 -309.262 376.384 -304.63 411.307 -297.438C428.606 -293.876 445.848 -289.69 462.537 -285.638L462.996 -285.527C479.823 -281.442 496.085 -277.499 511.246 -274.487C535.23 -269.715 559.234 -264.641 583.272 -259.56L583.276 -259.559C648.459 -245.781 713.891 -231.95 779.843 -223.936C833.759 -217.392 887.253 -221.193 940.691 -226.866C952.517 -228.121 964.339 -229.468 976.162 -230.815L976.164 -230.815C988.663 -232.239 1001.16 -233.664 1013.67 -234.98Z" fill="black"/>
<path d="M1018.03 -216.732C1017.94 -217.166 1017.84 -217.6 1017.74 -218.034C1006.09 -217.838 994.435 -217.606 982.782 -217.374H982.78C970.295 -217.125 957.811 -216.877 945.33 -216.672C890.641 -215.777 835.998 -215.732 781.491 -220.251C714.668 -225.776 648.111 -235.037 581.617 -244.288L581.614 -244.289C557.485 -247.646 533.365 -251.001 509.243 -254.177C493.624 -256.233 477.045 -259.102 459.96 -262.104C458.652 -262.334 457.341 -262.565 456.027 -262.796C440.187 -265.584 423.948 -268.441 407.688 -270.831C372.479 -276.007 337.115 -279 305.379 -274.334C255.42 -266.999 228.878 -233.995 204.174 -198.802C201.961 -195.65 199.763 -192.481 197.565 -189.311C175.181 -157.034 152.74 -124.675 113.926 -109.375C78.1014 -95.2479 39.4833 -101.988 0.0374181 -117.109C0.0275246 -116.645 0.018163 -116.182 0.00943973 -115.719C39.4588 -100.657 78.2931 -93.919 114.406 -108.16C153.609 -123.613 176.276 -156.308 198.621 -188.538L198.635 -188.558C200.836 -191.733 203.034 -194.903 205.244 -198.052C229.936 -233.228 256.199 -265.793 305.569 -273.042C337.11 -277.679 372.319 -274.71 407.498 -269.539C423.739 -267.151 439.962 -264.297 455.806 -261.509L459.734 -260.818C476.816 -257.815 493.422 -254.942 509.072 -252.882C533.174 -249.709 557.282 -246.355 581.404 -242.998C647.91 -233.745 714.521 -224.478 781.383 -218.949C835.957 -214.424 890.654 -214.471 945.352 -215.366C957.836 -215.57 970.32 -215.819 982.803 -216.067L982.824 -216.068C994.561 -216.302 1006.3 -216.535 1018.03 -216.732Z" fill="black"/>
<path d="M1021.67 -198.603C1021.59 -199.045 1021.51 -199.486 1021.43 -199.928C1005.92 -200.9 990.423 -201.888 974.922 -202.877C910.99 -206.955 847.057 -211.033 783.055 -213.94C714.861 -217.041 646.751 -221.793 578.638 -226.546C555.112 -228.187 531.586 -229.829 508.056 -231.402C489.468 -232.651 469.871 -234.834 449.821 -237.068C435.179 -238.699 420.296 -240.357 405.389 -241.697C370.117 -244.869 334.803 -246.251 302.603 -241.217C254.615 -233.734 228.981 -202.96 205.072 -170.241C202.975 -167.372 200.892 -164.488 198.808 -161.603C177.099 -131.552 155.345 -101.439 117.846 -86.9297C80.9973 -72.6515 40.9454 -80.3389 -2.82447e-05 -96.5294C0.00837591 -96.0569 0.0175247 -95.5846 0.0272055 -95.1124C40.9431 -79.0011 81.1919 -71.3256 118.318 -85.7113C156.197 -100.368 178.176 -130.801 199.848 -160.81C201.94 -163.706 204.028 -166.598 206.128 -169.471C230.019 -202.165 255.379 -232.53 302.805 -239.926C334.842 -244.934 370.027 -243.565 405.272 -240.396C420.109 -239.062 434.974 -237.406 449.615 -235.776L449.619 -235.775C469.707 -233.538 489.373 -231.348 507.969 -230.099C531.49 -228.526 555.011 -226.885 578.533 -225.243C646.651 -220.49 714.784 -215.736 782.996 -212.635C846.996 -209.728 910.894 -205.652 974.805 -201.575L974.812 -201.575L974.822 -201.574C990.437 -200.578 1006.05 -199.582 1021.67 -198.603Z" fill="black"/>
<path d="M1024.64 -180.416C1024.58 -180.864 1024.51 -181.312 1024.45 -181.76C1011.94 -183.399 999.449 -185.092 986.955 -186.785L986.942 -186.787C976.064 -188.261 965.187 -189.735 954.306 -191.174C898.09 -198.604 841.77 -205.079 784.694 -205.67C723.276 -206.285 661.857 -206.54 600.44 -206.794H600.435L600.386 -206.794C569.694 -206.922 539.002 -207.049 508.312 -207.221C487.566 -207.337 465.933 -208.407 443.968 -209.493L443.965 -209.493C431.093 -210.13 418.107 -210.772 405.118 -211.231C369.992 -212.473 334.895 -212.373 302.195 -207.176C256.052 -199.824 230.78 -171.423 207.104 -141.309C205.065 -138.716 203.038 -136.11 201.011 -133.504C179.471 -105.815 157.904 -78.0897 121.548 -64.5958C83.6797 -50.5459 42.6503 -58.9424 0.778899 -75.8354C0.806664 -75.3537 0.834962 -74.8723 0.864004 -74.3911C42.6773 -57.5961 83.878 -49.2259 122.003 -63.371C158.725 -77.0009 180.517 -105.022 202.023 -132.675L202.049 -132.709C204.075 -135.314 206.099 -137.916 208.132 -140.502C231.784 -170.586 256.787 -198.618 302.4 -205.885C334.972 -211.063 369.967 -211.166 405.072 -209.925C418.019 -209.467 430.987 -208.826 443.852 -208.19L443.857 -208.19C465.846 -207.103 487.536 -206.031 508.304 -205.914C539.013 -205.742 569.72 -205.615 600.427 -205.488H600.44C661.855 -205.233 723.267 -204.979 784.681 -204.364C841.673 -203.773 897.926 -197.308 954.135 -189.878C965.01 -188.441 975.884 -186.967 986.762 -185.493C999.382 -183.783 1012.01 -182.072 1024.64 -180.416Z" fill="black"/>
<path d="M1026.99 -161.908C1026.94 -162.361 1026.89 -162.813 1026.84 -163.265C1014.41 -165.575 1002.01 -167.976 989.608 -170.376L989.606 -170.377C979.052 -172.419 968.501 -174.461 957.943 -176.446C901.437 -187.071 844.735 -196.072 786.373 -194.816C751.403 -194.055 715.67 -193.706 679.537 -193.352L679.532 -193.352C554.38 -192.129 424.423 -190.858 304.709 -172.287C260.286 -165.382 234.721 -139.47 210.572 -112.079C208.565 -109.802 206.567 -107.515 204.57 -105.228L204.551 -105.206C182.503 -79.9632 160.448 -54.7125 124.888 -42.5232C85.9446 -29.1618 44.4861 -37.9781 2.38601 -55.1403C2.43399 -54.6496 2.48271 -54.1591 2.53207 -53.6688C44.5509 -36.6216 86.1468 -27.8499 125.312 -41.2874C161.219 -53.5956 183.497 -79.1085 205.514 -104.321C207.526 -106.625 209.535 -108.926 211.553 -111.215C235.675 -138.576 260.975 -164.167 304.91 -170.996C424.521 -189.551 554.347 -190.821 679.484 -192.045C715.634 -192.398 751.393 -192.748 786.401 -193.509C844.619 -194.763 901.209 -185.785 957.701 -175.162C968.236 -173.181 978.768 -171.143 989.307 -169.103L989.334 -169.098C1001.87 -166.672 1014.42 -164.244 1026.99 -161.908Z" fill="black"/>
<path d="M1028.69 -142.984C1028.65 -143.439 1028.62 -143.893 1028.59 -144.348C1016.17 -147.213 1003.78 -150.211 991.384 -153.208C983.357 -155.149 975.331 -157.09 967.3 -158.995C912.93 -171.891 858.325 -183.115 801.623 -181.377C639.761 -176.429 468.708 -158.667 308.306 -137.068C264.928 -131.221 237.567 -106.125 211.128 -80.3078C209.829 -79.0402 208.533 -77.7709 207.238 -76.5022C182.119 -51.9004 157.181 -27.4751 119.337 -18.6916C81.355 -9.86368 43.1306 -18.5211 4.87183 -34.175C4.94151 -33.6753 5.01193 -33.1757 5.083 -32.6764C43.2434 -17.1492 81.5292 -8.56279 119.633 -17.419C157.844 -26.2877 183.026 -50.9553 208.094 -75.5113C209.41 -76.7997 210.725 -78.0878 212.041 -79.3733C238.48 -105.189 265.568 -129.989 308.48 -135.773C468.859 -157.369 639.863 -175.125 801.663 -180.071C858.179 -181.803 912.637 -170.617 966.998 -157.724C975.018 -155.822 983.037 -153.882 991.06 -151.942C1003.58 -148.912 1016.12 -145.88 1028.69 -142.984Z" fill="black"/>
<path d="M1029.74 -122.623C1029.72 -123.075 1029.71 -123.528 1029.69 -123.981C1016.16 -127.352 1002.67 -130.932 989.185 -134.51C982.322 -136.332 975.46 -138.153 968.593 -139.946C914.496 -154.073 860.138 -166.466 802.902 -163.544C722.284 -159.444 641.378 -148.198 560.592 -135.709C543.128 -133.009 525.671 -130.252 508.223 -127.495L508.219 -127.495C444.947 -117.5 381.803 -107.525 318.958 -100.408C276.294 -95.5671 246.706 -73.4685 217.876 -50.8324C216.628 -49.853 215.382 -48.8726 214.137 -47.8926C186.568 -26.2011 159.221 -4.6836 121.176 2.38344C82.6156 9.5399 45.1531 1.03672 8.11019 -13.9149C8.20168 -13.4077 8.29392 -12.9008 8.38689 -12.3941C45.3155 2.41964 82.797 10.8352 121.414 3.66796C159.784 -3.45942 187.364 -25.1618 214.884 -46.8174C216.15 -47.8138 217.416 -48.8102 218.683 -49.805C247.515 -72.4418 276.845 -94.3147 319.105 -99.1098C381.982 -106.231 445.164 -116.211 508.44 -126.207C525.885 -128.963 543.337 -131.72 560.792 -134.418C641.57 -146.905 722.421 -158.143 802.969 -162.239C859.986 -165.15 914.173 -152.807 968.263 -138.682C975.121 -136.891 981.978 -135.071 988.838 -133.25L988.84 -133.25C1002.44 -129.64 1016.06 -126.025 1029.74 -122.623Z" fill="black"/>
<path d="M1029.99 -102.174C1030 -102.621 1030 -103.067 1030 -103.514C1017.61 -106.416 1005.25 -109.456 992.879 -112.496C984.078 -114.66 975.278 -116.824 966.47 -118.937C911.766 -132.064 856.824 -143.243 800.058 -140.359C690.995 -134.842 580.254 -118.713 470.542 -102.735C422.371 -95.7191 374.399 -88.7324 326.854 -82.6854C284.264 -77.2718 252.512 -55.233 221.388 -32.8459C220.325 -32.0812 219.263 -31.3162 218.201 -30.5514C188.139 -8.90159 158.348 12.5525 119.481 19.4766C83.0875 25.9605 47.3998 18.7936 12.0232 5.59649C12.1353 6.10361 12.2479 6.61047 12.3614 7.11706C47.6147 20.1754 83.2914 27.2512 119.711 20.7628C158.877 13.7854 188.886 -7.82808 218.893 -29.4392C219.979 -30.2215 221.065 -31.0038 222.152 -31.7854C253.289 -54.182 284.796 -76.0224 327.019 -81.3893C374.615 -87.4427 422.616 -94.4337 470.802 -101.452L470.804 -101.452C580.486 -117.426 691.125 -133.54 800.124 -139.054C856.688 -141.928 911.473 -130.79 966.165 -117.667C974.955 -115.557 983.744 -113.397 992.537 -111.235L992.542 -111.233C1005.01 -108.168 1017.49 -105.1 1029.99 -102.174Z" fill="black"/>
<path d="M1029.33 -79.2468C1029.35 -79.6861 1029.37 -80.1255 1029.39 -80.5651C1016.88 -82.9847 1004.37 -85.5097 991.869 -88.0346C979.5 -90.5322 967.131 -93.0299 954.751 -95.4256C897.171 -106.568 839.386 -115.498 780.436 -111.893C634.358 -102.957 483.85 -86.3784 338.89 -66.514C296.533 -60.715 262.913 -40.7137 229.938 -20.0537C228.04 -18.865 226.145 -17.6741 224.251 -16.4837C193.19 3.03404 162.298 22.446 124.666 30.6308C87.9062 38.6131 51.684 33.0029 15.7268 21.1988C15.8539 21.6994 15.9818 22.1996 16.1104 22.6996C51.9496 34.3722 88.16 39.895 124.943 31.9075C162.807 23.6723 193.882 4.14424 224.903 -15.3504C226.813 -16.5502 228.722 -17.7499 230.632 -18.9467C263.611 -39.6091 297.018 -59.4627 339.067 -65.2196C484.006 -85.0809 634.479 -101.656 780.516 -110.589C839.292 -114.184 896.942 -105.282 954.502 -94.1429C966.857 -91.7522 979.208 -89.2581 991.566 -86.7627L991.571 -86.7616C1004.15 -84.2221 1016.73 -81.6812 1029.33 -79.2468Z" fill="black"/>
<path d="M1027.54 -55.158C1027.58 -55.5918 1027.62 -56.0258 1027.66 -56.4599C1014.72 -58.313 1001.77 -60.2444 988.823 -62.1762L988.815 -62.1773C974.915 -64.251 961.011 -66.3253 947.1 -68.3038C888.682 -76.6118 830.141 -83.2277 771.217 -80.9918C632.62 -75.7492 488.348 -69.029 350.718 -51.9313C307.012 -46.5057 270.085 -27.4421 233.672 -7.76162C231.672 -6.68045 229.673 -5.59747 227.675 -4.51476C193.27 14.1269 159.022 32.6832 119.509 40.3381C85.4245 46.9302 52.1102 43.0494 19.1549 33.9964C19.2929 34.4863 19.4317 34.9759 19.5711 35.4652C52.4123 44.4051 85.6887 48.2098 119.757 41.6208C159.474 33.9264 193.887 15.2798 228.253 -3.34161L228.263 -3.34735C230.273 -4.4365 232.283 -5.52559 234.294 -6.6124C270.716 -26.2976 307.446 -45.2429 350.88 -50.6348C488.448 -67.7248 632.671 -74.4436 771.266 -79.6862C830.068 -81.9175 888.513 -75.3161 946.916 -67.0103C960.809 -65.0343 974.702 -62.9616 988.597 -60.8887L988.6 -60.8881C1001.58 -58.9521 1014.56 -57.0159 1027.54 -55.158Z" fill="black"/>
<path d="M1024.35 -29.2943C1024.41 -29.7266 1024.47 -30.1591 1024.54 -30.5917C1010.95 -31.4312 997.36 -32.2808 983.762 -33.1309L983.754 -33.1313C777.41 -46.0294 569.629 -59.0174 363.588 -38.1256C317.921 -33.4984 277.345 -15.7957 237.179 2.57435C234.804 3.66025 232.431 4.74849 230.059 5.83652C192.269 23.1668 154.6 40.4418 113.023 47.4602C82.0038 52.6978 51.8304 50.3437 22.0646 43.9343C22.2095 44.4112 22.3551 44.8879 22.5014 45.3642C52.1565 51.6835 82.2698 53.9778 113.24 48.7485C154.995 41.7003 192.811 24.3567 230.566 7.04172L230.659 6.99898C233.013 5.91914 235.368 4.8394 237.723 3.76238C277.899 -14.612 318.294 -32.223 363.72 -36.8258C569.644 -57.7056 777.295 -44.7265 983.636 -31.8292L983.651 -31.8283C997.222 -30.98 1010.79 -30.1321 1024.35 -29.2943Z" fill="black"/>
<path d="M1020.19 -5.32953C1020.27 -5.76382 1020.36 -6.19826 1020.44 -6.63292C998.766 -6.92792 977.089 -7.16455 955.413 -7.40113H955.409C885.741 -8.16162 816.085 -8.92201 746.443 -11.6197C707.864 -13.1132 668.656 -15.8302 629.223 -18.563C544.943 -24.4037 459.633 -30.3158 377.238 -24.5036C329.281 -21.1182 284.692 -5.90353 240.455 10.5079C235.431 12.3718 230.412 14.2511 225.393 16.1303C186.194 30.8061 147.005 45.4787 105.629 52.8149C78.3679 57.6403 51.5138 56.8735 24.8724 52.879C25.0224 53.3421 25.1732 53.8049 25.3245 54.2673C51.863 58.1935 78.6508 58.9172 105.858 54.1013C147.36 46.7428 186.666 32.0256 225.851 17.3539C230.872 15.4742 235.89 13.5953 240.91 11.7328C285.143 -4.67749 329.578 -19.8294 377.33 -23.2003C459.634 -29.006 544.783 -23.1044 629.014 -17.2664L629.018 -17.2661C668.473 -14.5315 707.727 -11.8109 746.393 -10.3141C816.037 -7.61633 885.741 -6.8552 955.436 -6.09417L955.447 -6.09401C977.029 -5.85834 998.61 -5.62267 1020.19 -5.32953Z" fill="black"/>
<path d="M1014.6 19.5791C1014.71 19.1367 1014.83 18.6941 1014.93 18.2512C995.943 19.3543 976.938 20.6468 957.933 21.9394L957.923 21.94C943.564 22.9166 929.204 23.8932 914.848 24.7881C853.785 28.5951 792.784 30.9274 732.144 25.5232C691.059 21.8542 649.401 15.5239 607.54 9.16281C592.348 6.85427 577.13 4.54174 561.903 2.3509C504.736 -5.87408 447.47 -12.3791 391.152 -10.4757C340.712 -8.77437 291.993 4.20719 243.566 18.6995C235.942 20.9812 228.325 23.3001 220.71 25.6186C179.934 38.033 139.204 50.4334 97.5889 57.0213C73.771 60.7907 50.2378 60.9579 26.8618 58.8913C27.0141 59.3421 27.167 59.7926 27.3205 60.2429C50.5947 62.2637 74.0482 62.0697 97.7934 58.3117C139.507 51.7083 180.337 39.277 221.111 26.8624C228.721 24.5454 236.33 22.229 243.941 19.9511C292.36 5.46141 340.939 -7.4747 391.196 -9.16996C447.394 -11.0693 504.566 -4.57866 561.717 3.64414C576.92 5.83163 592.124 8.14198 607.308 10.4492L607.31 10.4496C649.183 16.8125 690.9 23.1518 732.028 26.8246C792.771 32.2379 853.854 29.8999 914.93 26.0921C929.305 25.1959 943.679 24.2184 958.048 23.2412C976.911 21.9584 995.765 20.6761 1014.6 19.5791Z" fill="black"/>
<path d="M1007.75 44.2938C1007.89 43.837 1008.03 43.3798 1008.16 42.9224C988.613 45.4605 968.988 48.3682 949.338 51.2796C933.788 53.5836 918.222 55.8898 902.666 58.0169C840.305 66.5439 778.055 72.1995 717.331 63.3711C676.466 57.4176 635.498 47.0901 594.381 36.7253L594.378 36.7247C583.521 33.9878 572.654 31.2483 561.776 28.5861C509.722 15.8472 457.436 4.88395 404.956 4.51415C352.013 4.1444 299.162 14.7569 246.531 27.1912C235.679 29.7549 224.838 32.3958 214.007 35.0341C172.283 45.1978 130.712 55.3242 89.2932 60.8595C68.8899 63.593 48.6405 64.2802 28.481 63.6087C28.6348 64.0497 28.7891 64.4905 28.9441 64.931C48.9976 65.5762 69.1531 64.876 89.4666 62.1544C130.961 56.6091 172.619 46.4614 214.35 36.2957L214.353 36.2949C225.175 33.6587 236.001 31.0213 246.831 28.4627C299.449 16.0315 352.171 5.45205 404.947 5.82068C457.264 6.18931 509.424 17.1195 561.465 29.8552C572.319 32.5114 583.168 35.2464 594.013 37.9802L594.025 37.9832C635.15 48.3505 676.204 58.6997 717.142 64.6639C778.058 73.5201 840.46 67.8414 902.843 59.3114C918.434 57.1796 934.021 54.8702 949.584 52.5644C969.023 49.6842 988.425 46.8096 1007.75 44.2938Z" fill="black"/>
<path d="M999.631 68.7134C999.803 68.2362 999.974 67.7587 1000.15 67.2809C980.415 71.1609 960.485 75.5767 940.473 80.0107L940.47 80.0112C922.074 84.0872 903.608 88.1788 885.163 91.8837C819.305 105.112 753.663 113.429 692.085 98.7144C657.588 90.4732 622.796 76.9736 587.711 63.3609C577.504 59.4006 567.272 55.4306 557.016 51.5778C511.541 34.4951 465.612 19.7284 419.413 18.47C366.204 17.0097 311.053 25.1153 256.025 35.1682C240.963 37.9196 225.913 40.8164 210.914 43.7034L210.903 43.7056C171.081 51.3707 131.616 58.9669 93.2541 63.5904C72.0194 66.149 50.8956 67.2695 29.833 67.4371C29.9884 67.8716 30.1445 68.3058 30.301 68.7398C51.2533 68.5592 72.2749 67.4343 93.4107 64.8876C131.821 60.2583 171.352 52.6494 211.189 44.9815L211.193 44.9807L211.196 44.9799C226.189 42.0942 241.224 39.2002 256.26 36.4534C311.273 26.4034 366.312 18.3197 419.377 19.776C465.342 21.0281 511.096 35.7235 556.556 52.8008C566.78 56.6413 576.99 60.6029 587.183 64.5583C622.283 78.1771 657.189 91.7213 691.781 99.9851C753.653 114.77 819.534 106.399 885.42 93.1646C903.926 89.4474 922.429 85.3478 940.846 81.2673L940.848 81.2668C960.574 76.8961 980.203 72.547 999.631 68.7134Z" fill="black"/>
<path d="M990.315 92.6418C990.525 92.1405 990.734 91.6388 990.942 91.1367C970.663 96.2455 950.133 102.047 929.5 107.879L929.498 107.879C911.092 113.081 892.602 118.307 874.134 123.084C807.245 140.387 740.575 151.836 678.693 135.306C643.158 125.814 609.452 107.776 575.605 89.6623C569.516 86.4037 563.422 83.1426 557.312 79.9285C517.281 58.8689 476.586 39.8388 432.182 36.9677C376.688 33.3637 317.847 38.9552 259.022 46.6633C240.08 49.1453 221.143 51.8462 202.319 54.5311L202.317 54.5314C162.658 60.1878 123.5 65.7729 85.8501 69.0891C67.7981 70.6765 49.7487 71.7907 31.6989 72.5674C31.8575 72.9965 32.0167 73.4252 32.1765 73.8538C50.1084 73.0772 68.0378 71.967 85.9648 70.3906C123.65 67.0712 162.869 61.4776 202.549 55.8183C221.364 53.1348 240.283 50.4365 259.191 47.9588C317.999 40.2529 376.736 34.6761 432.097 38.2715C476.199 41.123 516.678 60.0279 556.703 81.0846C562.795 84.2893 568.877 87.5443 574.959 90.7995C608.801 108.912 642.661 127.034 678.355 136.568C740.589 153.192 807.547 141.658 874.461 124.349C893 119.553 911.532 114.316 929.963 109.107C950.245 103.375 970.404 97.6776 990.315 92.6418Z" fill="black"/>
<path d="M979.151 117.444C979.41 116.908 979.667 116.372 979.924 115.835C975.387 117.245 970.83 118.696 966.254 120.179C951.478 124.966 936.533 130.077 921.49 135.222L921.486 135.224C902.421 141.744 883.197 148.319 863.953 154.359C795.133 175.961 726.626 190.532 666.502 170.722C632.938 159.661 602.966 139.093 572.896 118.458C567.835 114.985 562.771 111.511 557.688 108.079C522.439 84.2863 486.239 62.5905 443.396 58.3456C385.784 52.6539 323.715 55.5657 261.551 60.7029C238.373 62.6182 215.189 64.8423 192.216 67.046L192.214 67.0462L192.21 67.0465C153.542 70.7559 115.471 74.4079 79.0375 76.4341C64.0761 77.269 49.1241 78.1774 34.1784 79.1342C34.3426 79.5604 34.5074 79.9863 34.6729 80.412C49.4841 79.4646 64.2963 78.5653 79.1101 77.7386C115.565 75.7112 153.69 72.0542 192.383 68.3426L192.39 68.342C215.356 66.1391 238.522 63.9169 261.658 62.005C323.804 56.8693 385.777 53.9662 443.267 59.6457C485.754 63.8554 521.715 85.3743 556.956 109.162C562.022 112.582 567.075 116.049 572.129 119.518C602.19 140.149 632.337 160.838 666.092 171.963C726.649 191.915 795.519 177.209 864.344 155.606C883.579 149.568 902.855 142.976 921.952 136.445L921.958 136.443C937.005 131.298 951.94 126.19 966.657 121.421C970.839 120.067 975.004 118.739 979.151 117.444Z" fill="black"/>
<path d="M965.937 142.978C966.258 142.399 966.577 141.82 966.895 141.24C964.594 142.074 962.286 142.919 959.972 143.774C944.909 149.337 929.598 155.297 914.143 161.313C894.724 168.873 875.077 176.521 855.408 183.581C784.798 208.925 714.56 226.424 656.038 204.255C623.917 192.086 597.37 169.962 570.781 147.803L570.777 147.8C566.497 144.234 562.217 140.666 557.912 137.139C526.898 111.732 494.644 88.4623 452.536 83.2317C366.732 72.5649 270.836 77.3544 178.785 81.9519C142.689 83.7547 107.184 85.5279 73.1113 86.3281C61.2384 86.6058 49.4274 87.1618 37.6644 87.9346C37.8375 88.3599 38.0111 88.785 38.1853 89.2098C49.7874 88.4529 61.435 87.9081 73.142 87.6343C107.293 86.8323 142.846 85.0566 178.969 83.2524L178.971 83.2523C270.979 78.6569 366.692 73.8765 452.375 84.5283C494.082 89.7091 526.084 112.755 557.083 138.15C561.373 141.664 565.644 145.224 569.92 148.788C596.497 170.94 623.232 193.223 655.575 205.477C714.594 227.834 785.26 210.148 855.85 184.811C875.504 177.756 895.203 170.088 914.654 162.517L914.658 162.515L914.664 162.513C930.123 156.495 945.426 150.538 960.425 144.999C962.267 144.319 964.104 143.645 965.937 142.978Z" fill="black"/>
<path d="M955.295 161.302C955.64 160.734 955.985 160.165 956.329 159.595C922.245 170.562 889.046 183.676 854.84 197.189C846.855 200.343 838.816 203.519 830.697 206.694C826.151 208.474 821.539 210.31 816.87 212.169C792.597 221.832 766.773 232.113 740.597 238.325C709.398 245.73 677.782 247.33 647.814 235.236C616.468 222.58 592.669 200.033 568.9 177.516C565.215 174.024 561.53 170.533 557.818 167.08C530.201 141.39 501.112 117.837 459.119 112.14C363.263 99.1021 257.389 99.3296 156.169 99.5471H156.165C126.345 99.6112 96.9299 99.6744 68.2937 99.3972C59.6788 99.314 51.1481 99.4765 42.6874 99.8464C42.8744 100.274 43.0618 100.702 43.2499 101.13C51.5228 100.776 59.862 100.622 68.2812 100.704C96.9556 100.981 126.397 100.918 156.234 100.854C257.438 100.637 363.186 100.41 458.943 113.435C500.506 119.073 529.338 142.371 556.927 168.036C560.624 171.475 564.299 174.958 567.98 178.446C591.735 200.955 615.73 223.691 647.324 236.447C677.64 248.682 709.56 247.034 740.899 239.597C767.177 233.36 793.106 223.037 817.377 213.374L817.38 213.373C822.042 211.516 826.643 209.685 831.173 207.911C839.295 204.734 847.336 201.558 855.319 198.405C889.054 185.079 921.768 172.156 955.295 161.302Z" fill="black"/>
<path d="M938.758 186.751C939.182 186.137 939.606 185.523 940.028 184.908C910.842 195.332 882.221 207.366 852.749 219.758L852.741 219.762C844.119 223.387 835.424 227.043 826.621 230.698C822.76 232.299 818.823 233.953 814.817 235.635C790.497 245.849 763.679 257.111 736.37 264.131C704.568 272.307 672.19 274.704 642.414 263.034C611.119 250.773 589.05 229.118 567.091 207.57L567.089 207.568C563.832 204.372 560.577 201.179 557.295 198.018C531.909 173.574 504.935 151.193 462.698 145.701C333.675 128.972 195.385 122.141 65.0288 116.345C59.9995 116.123 55.0164 116.01 50.0752 115.996C50.2842 116.432 50.4936 116.869 50.7038 117.305C55.4202 117.326 60.1747 117.438 64.9711 117.65C195.332 123.446 333.569 130.276 462.53 146.996C504.33 152.432 531.047 174.558 556.388 198.959C559.655 202.105 562.901 205.29 566.153 208.482L566.158 208.487C588.104 230.027 610.375 251.885 641.937 264.251C672.077 276.063 704.768 273.605 736.695 265.397C764.106 258.35 791.021 247.046 815.337 236.834C819.339 235.153 823.271 233.502 827.123 231.904C835.933 228.246 844.632 224.589 853.255 220.963L853.259 220.962C882.161 208.81 910.211 197.016 938.758 186.751Z" fill="black"/>
<path d="M918.154 214.474C918.69 213.802 919.224 213.128 919.756 212.453C897.741 220.945 875.866 230.218 853.491 239.704C844.542 243.498 835.512 247.326 826.361 251.151C822.967 252.57 819.508 254.029 815.99 255.513C791.389 265.893 763.941 277.473 735.942 284.793C703.943 293.158 671.311 295.932 641.477 285.032C610.025 273.546 588.104 253.143 566.32 232.867C563.212 229.974 560.107 227.084 556.978 224.223C531.931 201.324 505.365 180.337 463.396 175.161C332.475 159.026 196.969 145.032 65.1173 136.281C63.4684 136.172 61.8252 136.075 60.1875 135.99C60.4271 136.439 60.6674 136.888 60.9084 137.337C62.2786 137.411 63.6525 137.493 65.0305 137.585C196.851 146.334 332.331 160.325 463.236 176.458C504.787 181.583 531.099 202.334 556.096 225.187C559.21 228.035 562.306 230.917 565.408 233.805L565.416 233.812C587.188 254.081 609.31 274.676 641.028 286.26C671.22 297.29 704.155 294.453 736.273 286.057C764.371 278.711 791.912 267.091 816.506 256.714C820.022 255.231 823.477 253.773 826.866 252.356C836.024 248.528 845.058 244.698 854.009 240.904C875.684 231.716 896.87 222.735 918.154 214.474Z" fill="black"/>
<path d="M891.969 244.859C892.656 244.121 893.342 243.38 894.026 242.638C880.978 247.796 867.888 253.128 854.639 258.525C846.335 261.907 837.968 265.315 829.509 268.722C825.673 270.266 821.764 271.858 817.792 273.475C793.343 283.43 766.481 294.368 739.129 301.3C707.337 309.356 674.968 311.976 645.054 301.386C613.685 290.3 590.957 270.664 568.328 251.113L568.325 251.11C565.209 248.418 562.095 245.727 558.96 243.061C533.081 221.047 505.856 200.738 464.844 195.21C335.953 177.857 203.108 163.088 73.2909 152.454C71.9177 152.341 70.5482 152.238 69.1823 152.144C69.4469 152.599 69.7121 153.055 69.9781 153.509C71.0446 153.586 72.1132 153.668 73.1841 153.756C202.976 164.388 335.798 179.154 464.669 196.505C505.293 201.98 532.277 222.079 558.113 244.056C561.238 246.715 564.348 249.402 567.464 252.094C590.079 271.637 613.001 291.444 644.618 302.618C674.878 313.331 707.54 310.653 739.45 302.566C766.898 295.61 793.853 284.634 818.297 274.681C822.266 273.064 826.169 271.475 829.998 269.934C838.461 266.525 846.83 263.117 855.132 259.735C867.524 254.687 879.77 249.699 891.969 244.859Z" fill="black"/>
<path d="M838.113 294.998C839.17 294.145 840.224 293.288 841.275 292.427C774.583 317.38 708.497 334.139 651.32 315.263C619.792 304.863 595.837 286.421 571.933 268.018C568.866 265.657 565.799 263.296 562.718 260.953C535.644 240.367 507.449 221.191 467.474 215.333C341.804 196.946 214.133 179.26 87.7882 165.525C84.039 165.118 80.3131 164.788 76.609 164.53C76.8919 164.987 77.1755 165.444 77.4599 165.901C80.8371 166.146 84.2325 166.453 87.6471 166.824C213.967 180.556 341.62 198.24 467.285 216.625C506.914 222.433 534.885 241.432 561.927 261.993C565.001 264.331 568.064 266.689 571.132 269.051C595.02 287.444 619.157 306.029 650.91 316.504C707.505 335.188 772.618 319.214 838.113 294.998Z" fill="black"/>
<path d="M800.443 322.658C801.576 321.902 802.706 321.142 803.833 320.378C753.59 334.274 704.565 340.285 659.872 326.962C627.925 317.449 602.297 300.539 576.663 283.625C573.785 281.726 570.905 279.826 568.018 277.938C539.435 259.24 509.998 241.589 471.139 235.382C426.274 228.227 381.408 220.717 336.526 213.205L336.523 213.204C260.07 200.408 183.57 187.603 106.946 176.53C98.8097 175.352 90.74 174.584 82.7287 174.179C83.0224 174.631 83.317 175.082 83.6121 175.533C91.2725 175.949 98.9854 176.698 106.758 177.823C183.371 188.895 259.843 201.695 336.284 214.489L336.301 214.492C381.182 222.004 426.052 229.514 470.933 236.672C509.5 242.832 538.74 260.347 567.302 279.031C570.178 280.912 573.047 282.805 575.918 284.7L575.948 284.72C601.565 301.624 627.355 318.642 659.498 328.214C703.399 341.301 751.378 335.856 800.443 322.658Z" fill="black"/>
<path d="M770.218 341.341C771.266 340.742 772.312 340.139 773.356 339.533C737.844 345.185 703.128 345.676 670.081 337.108C636.948 328.509 608.406 313.277 579.729 297.973L579.727 297.972C577.886 296.989 576.044 296.006 574.201 295.025C543.662 278.766 512.64 262.912 475.56 255.507C443.588 249.114 411.615 242.653 379.635 236.19L379.626 236.188C296.187 219.327 212.701 202.455 129.062 186.761C115.535 184.223 102.004 182.993 88.4747 182.828C88.7735 183.268 89.073 183.708 89.3732 184.147C102.527 184.355 115.678 185.579 128.821 188.045C212.451 203.738 295.925 220.607 379.361 237.468L379.372 237.47L379.434 237.483C411.394 243.941 443.348 250.399 475.304 256.789C512.176 264.152 543.046 279.919 573.586 296.178C575.439 297.164 577.29 298.152 579.141 299.14C607.793 314.432 636.463 329.733 669.753 338.373C701.97 346.726 735.735 346.518 770.218 341.341Z" fill="black"/>
<path d="M749.338 352.64C750.272 352.163 751.205 351.682 752.136 351.198C728.213 352.452 704.61 351.11 681.507 346.073C647.024 338.56 615.512 325.056 583.824 311.476L581.682 310.557C549.288 296.678 516.639 282.862 480.475 275.518C410.742 261.363 341.56 244.01 272.406 226.664L272.396 226.661C232.434 216.637 192.481 206.616 152.437 197.215C133.686 192.808 114.436 191.323 94.8633 192.021C95.1661 192.447 95.4696 192.873 95.7736 193.297C114.946 192.676 133.788 194.174 152.137 198.487C192.142 207.878 232.079 217.896 272.037 227.919L272.04 227.919C341.218 245.271 410.458 262.639 480.215 276.798C516.229 284.112 548.76 297.874 581.167 311.758L583.352 312.695C615.009 326.262 646.621 339.81 681.229 347.35C703.535 352.212 726.294 353.649 749.338 352.64Z" fill="black"/>
<path d="M734.834 359.775C735.698 359.367 736.56 358.957 737.421 358.544C725.892 358.251 714.389 357.374 702.918 355.811C666.035 350.782 630.605 338.731 595.084 326.177C592.723 325.343 590.363 324.507 588.001 323.67C554.842 311.921 521.516 300.114 486.856 293.606C432.303 283.369 378.998 266.933 325.69 250.341L321.837 249.142C269.825 232.949 217.78 216.746 164.604 206.182C144.905 202.269 124.3 201.6 103.117 203.301C103.427 203.714 103.739 204.126 104.05 204.538C124.836 202.928 145.038 203.628 164.35 207.463C217.457 218.014 269.444 234.199 321.477 250.398L325.301 251.588C378.6 268.178 431.975 284.637 486.615 294.89C521.171 301.378 554.406 313.153 587.586 324.909C589.94 325.743 592.294 326.577 594.648 327.409C630.161 339.96 665.709 352.056 702.741 357.106C713.414 358.56 724.114 359.422 734.834 359.775Z" fill="black"/>
<path d="M721.941 365.651C722.774 365.285 723.606 364.918 724.436 364.548C721.406 364.305 718.376 364.026 715.347 363.709C678.277 359.82 641.029 350.731 603.82 340.847C596.965 339.025 590.11 337.177 583.258 335.329L583.191 335.311L583.186 335.31C552.889 327.14 522.646 318.985 492.621 313.248C440.423 303.272 389.692 286.073 339.018 268.383C335.438 267.133 331.857 265.881 328.277 264.628C281.199 248.16 234.083 231.678 185.864 220.621C162.256 215.199 138.948 215.749 115.896 219.59C116.214 219.979 116.533 220.368 116.852 220.756C139.54 217.047 162.423 216.578 185.571 221.895C233.715 232.935 280.763 249.392 327.855 265.865L327.914 265.886C331.471 267.13 335.029 268.374 338.587 269.617C389.256 287.305 440.071 304.534 492.375 314.531C522.347 320.258 552.531 328.397 582.825 336.566L582.829 336.567L582.874 336.579C589.739 338.43 596.609 340.283 603.485 342.109C640.699 351.995 678.032 361.108 715.21 365.009C717.454 365.243 719.698 365.457 721.941 365.651Z" fill="black"/>
<path d="M708.061 371.504C708.921 371.156 709.78 370.806 710.638 370.454C659.43 365.313 606.285 354.588 554.659 344.169C535.573 340.318 516.693 336.508 498.196 333.037C450.372 324.063 403.846 305.6 357.275 287.118L354.792 286.133C353.504 285.622 352.217 285.112 350.929 284.601C302.261 265.309 253.48 246.469 203.175 238.999C180.215 235.589 156.267 235.58 131.706 238.032C132.068 238.434 132.43 238.836 132.793 239.237C156.926 236.89 180.439 236.943 202.983 240.291C253.116 247.736 301.762 266.517 350.447 285.816C352.576 286.66 354.705 287.504 356.835 288.349C403.372 306.817 450.004 325.323 497.955 334.321C516.41 337.784 535.261 341.588 554.33 345.436L554.337 345.438C605.158 355.694 657.526 366.263 708.061 371.504Z" fill="black"/>
<path d="M688.548 378.937C689.531 378.586 690.512 378.231 691.492 377.874C628.637 372.645 563.228 363.521 503.101 353.009C455.398 344.683 409.135 326.562 362.829 308.425L359.063 306.95C311.522 288.337 263.896 269.987 214.701 262.59C194.837 259.604 174.166 259.026 152.946 260.295C153.364 260.708 153.782 261.119 154.201 261.531C174.927 260.357 195.108 260.966 214.507 263.882C263.533 271.253 311.026 289.546 358.586 308.166L362.403 309.661L362.405 309.662C408.672 327.784 455.042 345.947 502.876 354.296C562.126 364.654 626.514 373.668 688.548 378.937Z" fill="black"/>
<path d="M661.03 387.911C662.348 387.522 663.663 387.128 664.976 386.729C612.468 385.116 559.89 381.108 507.149 373.239C459.081 366.06 412.261 349.661 365.397 333.246L365.394 333.245L363.043 332.422C315.415 315.742 267.721 299.206 218.718 292.568C207.886 291.104 196.848 290.255 185.641 289.945C186.185 290.398 186.731 290.85 187.278 291.301C197.866 291.646 208.298 292.478 218.543 293.863C267.392 300.48 314.964 316.968 362.611 333.655L365.014 334.496C411.841 350.898 458.763 367.333 506.955 374.531C558.448 382.214 609.779 386.219 661.03 387.911Z" fill="black"/>
<path d="M586.359 404C588.511 403.702 590.659 403.39 592.803 403.065C564.573 401.482 536.423 399.174 508.383 395.941C459.563 390.312 411.319 376.49 362.998 362.645L362.544 362.515C360.533 361.939 358.522 361.363 356.51 360.787C320.011 350.342 283.452 340.094 246.597 333.592C247.63 334.223 248.667 334.852 249.705 335.477C285.346 341.984 320.744 351.911 356.15 362.043C358.325 362.665 360.499 363.288 362.674 363.911C410.965 377.748 459.304 391.597 508.233 397.239C534.191 400.231 560.24 402.433 586.359 404Z" fill="black"/>
</svg>
