<svg width="214" height="356" viewBox="0 0 214 356" fill="none" xmlns="http://www.w3.org/2000/svg">
<path d="M-410.272 1013.02C-403.373 1014.18 -396.479 1015.35 -389.586 1016.53C-383.728 1017.52 -377.872 1018.52 -372.012 1019.51C-369.531 1019.93 -367.05 1020.34 -364.569 1020.75C-357.214 1021.66 -349.81 1022.41 -342.362 1023C-352.186 1021.48 -361.992 1019.87 -371.795 1018.22C-377.648 1017.24 -383.501 1016.24 -389.356 1015.24L-389.359 1015.24C-402.463 1013.01 -415.578 1010.77 -428.734 1008.67C-422.623 1010.23 -416.468 1011.68 -410.272 1013.02Z" fill="black"/>
<path d="M-524.328 973.841C-523.087 974.439 -521.844 975.032 -520.598 975.62C-513.377 976.506 -506.148 977.344 -498.911 978.126C-461.399 982.19 -424.996 989.976 -388.617 997.756L-388.608 997.758C-382.722 999.017 -376.837 1000.28 -370.949 1001.52C-328.673 1010.44 -286.209 1018.54 -241.949 1019.92C-238.856 1020.02 -235.765 1020.1 -232.677 1020.15C-229.835 1019.78 -227 1019.38 -224.173 1018.96C-230.078 1018.91 -235.989 1018.8 -241.907 1018.62C-286.043 1017.23 -328.41 1009.16 -370.679 1000.24C-376.564 998.998 -382.447 997.74 -388.334 996.481C-424.709 988.701 -461.186 980.899 -498.77 976.827C-507.301 975.905 -515.819 974.905 -524.328 973.841Z" fill="black"/>
<path d="M-579.188 943.141C-578.342 943.685 -577.493 944.227 -576.644 944.766C-551.769 947.792 -527.017 950.932 -502.472 954.163C-463.046 959.351 -425.266 969.649 -387.524 979.938L-387.522 979.938C-381.398 981.608 -375.275 983.277 -369.146 984.924C-325.262 996.716 -281.093 1007.37 -234.227 1008.77C-210.179 1009.49 -186.431 1008.25 -162.851 1005.92C-160.438 1005.25 -158.031 1004.56 -155.632 1003.86C-181.586 1006.67 -207.707 1008.26 -234.188 1007.47C-280.89 1006.07 -324.932 995.452 -368.806 983.662C-374.927 982.017 -381.046 980.349 -387.167 978.68C-424.906 968.393 -462.78 958.068 -502.302 952.868C-527.739 949.519 -553.399 946.268 -579.188 943.141Z" fill="black"/>
<path d="M-615.02 917.896C-614.4 918.374 -613.779 918.85 -613.156 919.324C-577.246 921.642 -541.592 924.816 -506.575 929.575C-463.389 935.446 -422.758 949.454 -382.109 963.467L-382.102 963.47C-376.949 965.246 -371.797 967.022 -366.638 968.782C-320.808 984.419 -274.56 998.747 -224.362 1000.02C-181.719 1001.1 -140.879 993.586 -100.441 984.168C-98.1474 983.198 -95.8626 982.212 -93.5864 981.21C-136.343 991.392 -179.343 999.85 -224.329 998.717C-274.309 997.446 -320.391 983.18 -366.216 967.546C-371.373 965.786 -376.526 964.009 -381.682 962.232C-422.317 948.223 -463.076 934.17 -506.399 928.28C-542.075 923.432 -578.421 920.227 -615.02 917.896Z" fill="black"/>
<path d="M-642.573 895.121C-642.09 895.549 -641.606 895.977 -641.121 896.404C-597.059 895.69 -553.388 897.159 -511.216 904.428C-466.52 912.119 -424.727 929.428 -382.925 946.741L-382.919 946.744C-376.542 949.385 -370.166 952.026 -363.779 954.633C-315.55 974.317 -266.747 992.046 -213.089 992.935C-163.965 993.749 -118.666 979.988 -73.8342 964.443C-67.5443 962.262 -61.2642 960.046 -54.9841 957.83C-48.378 955.499 -41.7719 953.168 -35.1546 950.878C-33.4247 949.834 -31.7015 948.78 -29.985 947.717C-38.491 950.624 -46.9676 953.615 -55.4369 956.604L-55.4403 956.605C-61.7153 958.819 -67.9864 961.032 -74.2627 963.208C-119.082 978.749 -164.192 992.438 -213.068 991.628C-266.46 990.744 -315.066 973.104 -363.285 953.423C-369.663 950.82 -376.034 948.181 -382.408 945.541L-382.411 945.54C-424.202 928.23 -466.143 910.858 -510.994 903.141C-553.733 895.773 -597.986 894.352 -642.573 895.121Z" fill="black"/>
<path d="M-663.438 875.571C-663.04 875.965 -662.641 876.359 -662.242 876.752C-612.78 871.221 -563.595 869.041 -516.115 878.986C-470.092 888.608 -426.917 909.407 -383.691 930.231C-376.007 933.933 -368.32 937.636 -360.616 941.277C-309.616 965.379 -257.86 986.75 -200.817 986.954C-150.849 987.139 -106.464 969.24 -62.7938 949.041C-56.3784 946.074 -49.9791 943.057 -43.58 940.041C-22.2613 929.992 -0.942903 919.942 20.9658 911.715C22.0301 910.862 23.0909 910.005 24.1482 909.144C0.876596 917.638 -21.6739 928.269 -44.1624 938.87C-50.5559 941.884 -56.9443 944.896 -63.3429 947.855C-106.997 968.047 -151.155 985.831 -200.812 985.647C-257.542 985.445 -309.069 964.192 -360.058 940.095C-367.742 936.464 -375.414 932.768 -383.09 929.069L-383.094 929.068C-426.315 908.245 -469.655 887.365 -515.847 877.707C-563.865 867.649 -613.577 869.949 -663.438 875.571Z" fill="black"/>
<path d="M-680.154 858.232C-679.812 858.603 -679.469 858.975 -679.126 859.345C-626.277 847.889 -573.484 840.555 -521.122 853.359C-473.423 865.023 -428.473 889.268 -383.402 913.578C-374.712 918.265 -366.018 922.955 -357.299 927.557C-303.4 956.006 -248.568 981.101 -188.147 981.342C-137.458 981.546 -93.8182 959.353 -51.215 934.187C-44.5058 930.224 -37.8232 926.188 -31.1429 922.154C-0.399399 903.586 30.296 885.047 63.3098 873.786C63.9964 873.099 64.6812 872.411 65.3639 871.72C31.2412 882.944 -0.3594 902.032 -31.8585 921.058L-31.8612 921.06C-38.5311 925.089 -45.1964 929.115 -51.8801 933.063C-94.4681 958.219 -137.839 980.238 -188.142 980.035C-248.216 979.796 -302.799 954.846 -356.688 926.402C-365.382 921.813 -374.059 917.133 -382.738 912.451L-382.741 912.449C-427.811 888.138 -472.934 863.797 -520.812 852.09C-573.658 839.168 -626.881 846.655 -679.949 858.187C-680.017 858.202 -680.086 858.217 -680.154 858.232Z" fill="black"/>
<path d="M-694.093 842.45C-693.789 842.809 -693.484 843.168 -693.179 843.526C-689.911 842.453 -686.644 841.396 -683.376 840.361C-631.854 824.032 -580.164 812.925 -526.128 827.843C-477.089 841.389 -430.378 869.021 -383.424 896.796C-373.659 902.573 -363.884 908.355 -354.075 914.019C-297.153 946.883 -239.126 975.712 -175.695 975.619C-124.196 975.545 -81.2705 949.083 -39.7368 919.073C-32.9122 914.142 -26.126 909.116 -19.3455 904.094L-19.3416 904.091C15.1991 878.51 49.594 853.036 88.1747 840.757C90.5653 839.997 92.9636 839.292 95.3693 838.64C95.8483 838.064 96.3261 837.487 96.8027 836.909C93.7832 837.692 90.7747 838.559 87.7781 839.513C48.9705 851.864 14.3674 877.495 -20.1703 903.077C-26.9398 908.091 -33.7069 913.104 -40.5026 918.014C-82.0267 948.017 -124.652 974.239 -175.697 974.313C-238.746 974.405 -296.505 945.749 -353.421 912.887C-363.2 907.241 -372.955 901.47 -382.707 895.701C-429.662 867.922 -476.556 840.181 -525.78 826.583C-580.198 811.56 -632.196 822.77 -683.771 839.115C-687.214 840.206 -690.654 841.32 -694.093 842.45Z" fill="black"/>
<path d="M-706.107 827.74C-705.829 828.093 -705.55 828.447 -705.271 828.8C-699.236 826.125 -693.205 823.499 -687.167 820.967C-637.339 800.067 -587.033 785.504 -530.872 802.548C-480.686 817.778 -432.267 848.574 -383.456 879.619L-383.453 879.621C-372.676 886.476 -361.879 893.343 -351.04 900.057C-291.171 937.143 -230.032 969.547 -163.944 969.047C-111.62 968.658 -69.3481 938.081 -28.8303 903.469C-21.9918 897.627 -15.2058 891.673 -8.42909 885.726C4.89809 874.032 18.19 862.368 31.777 851.654C52.2616 835.502 73.3551 821.56 96.1112 813.02C104.046 810.041 112.086 807.809 120.215 806.231C120.576 805.721 120.935 805.209 121.294 804.697C112.645 806.299 104.091 808.628 95.6516 811.797C72.7138 820.405 51.4981 834.44 30.9674 850.629C17.3543 861.363 4.01502 873.068 -9.3294 884.777L-9.33738 884.784C-16.1046 890.722 -22.8732 896.661 -29.6796 902.476C-70.1972 937.088 -112.147 967.355 -163.954 967.741C-229.629 968.238 -290.481 936.033 -350.351 898.947C-361.155 892.254 -371.928 885.402 -382.691 878.556L-382.694 878.554C-431.51 847.503 -480.118 816.585 -530.492 801.298C-587.106 784.117 -637.774 798.832 -687.673 819.762C-693.827 822.343 -699.968 825.018 -706.107 827.74Z" fill="black"/>
<path d="M-716.609 813.915C-716.35 814.269 -716.089 814.623 -715.829 814.976C-707.475 810.336 -699.142 805.762 -690.78 801.409C-642.683 776.368 -593.756 758.675 -535.169 777.697C-483.911 794.345 -433.887 828.001 -383.322 862.02L-383.317 862.024C-371.698 869.841 -360.05 877.678 -348.352 885.331C-285.814 926.25 -221.859 961.925 -153.45 960.999C-100.23 960.275 -58.5884 925.946 -19.0407 887.185C-12.271 880.55 -5.56498 873.787 1.12856 867.037L1.13239 867.033C14.0196 854.037 26.8605 841.088 40.0211 829.186C60.0077 811.11 80.6651 795.514 103.193 785.947C115.169 780.866 127.404 777.766 139.838 776.269C140.123 775.797 140.408 775.326 140.693 774.853C127.801 776.316 115.107 779.473 102.681 784.745C79.9583 794.395 59.1742 810.102 39.144 828.217C25.9581 840.142 13.07 853.139 0.164956 866.153C-6.52284 872.897 -13.2152 879.645 -19.956 886.252C-59.5135 925.023 -100.819 958.976 -153.467 959.693C-221.438 960.613 -285.09 925.162 -347.636 884.238C-359.297 876.609 -370.92 868.788 -382.525 860.98C-433.097 826.953 -483.315 793.165 -534.765 776.455C-593.866 757.265 -643.198 775.163 -691.384 800.25C-699.809 804.636 -708.203 809.245 -716.609 813.915Z" fill="black"/>
<path d="M-725.979 800.712C-725.733 801.071 -725.486 801.43 -725.238 801.788C-724.91 801.573 -724.582 801.357 -724.254 801.142L-724.251 801.14C-714.168 794.522 -704.154 787.949 -694.077 781.754C-647.608 753.186 -599.964 732.767 -538.982 753.475C-489.582 770.236 -441.518 800.432 -395.948 829.061C-384.184 836.452 -372.586 843.738 -361.175 850.662C-350.085 857.396 -338.137 865.188 -325.56 873.389C-304.643 887.03 -281.986 901.804 -258.65 914.735C-221.259 935.455 -181.921 951.569 -144.766 950.883C-90.4704 949.881 -49.4812 912.347 -10.8886 870.079C-4.28643 862.848 2.24365 855.48 8.7598 848.129L8.76219 848.126C21.3216 833.956 33.8301 819.843 46.7015 806.881C66.2423 787.203 86.5542 770.246 109.011 759.874C124.142 752.887 139.664 749.42 155.462 748.606C155.696 748.159 155.93 747.711 156.164 747.263C139.955 748.01 124.01 751.508 108.462 758.688C85.7977 769.156 65.3562 786.24 45.7737 805.961C32.8777 818.948 20.3246 833.11 7.74827 847.299C1.23728 854.645 -5.27998 861.998 -11.8543 869.198C-50.4648 911.486 -91.1114 948.586 -144.79 949.577C-181.586 950.256 -220.671 934.287 -258.017 913.593C-281.329 900.674 -303.886 885.963 -324.763 872.348C-337.352 864.137 -349.331 856.326 -360.496 849.545C-371.866 842.647 -383.435 835.378 -395.181 827.998C-440.763 799.36 -489 769.054 -538.561 752.238C-600.107 731.338 -648.191 752.01 -694.762 780.641C-704.857 786.847 -714.889 793.432 -724.971 800.05C-725.307 800.27 -725.643 800.491 -725.979 800.712Z" fill="black"/>
<path d="M-734.466 787.943C-734.23 788.31 -733.994 788.677 -733.757 789.043C-732.641 788.224 -731.527 787.404 -730.414 786.584C-728.381 785.085 -726.353 783.586 -724.329 782.089C-715.093 775.26 -705.927 768.483 -696.692 762.064C-651.673 730.772 -605.194 708.111 -542.015 729.993C-491.472 747.503 -442.117 779.424 -395.565 809.533L-395.561 809.535C-383.306 817.461 -371.245 825.262 -359.408 832.641C-348.085 839.705 -335.846 847.928 -322.919 856.613L-322.917 856.614C-318.801 859.38 -314.614 862.193 -310.365 865.03C-292.782 876.771 -274.142 888.921 -255.006 899.857C-216.752 921.716 -176.422 938.777 -138.484 937.961C-82.8969 936.772 -42.6178 896.788 -4.97403 851.861C1.35154 844.312 7.60114 836.624 13.838 828.953L13.8396 828.951C26.1922 813.756 38.4947 798.623 51.2378 784.746C70.4063 763.871 90.5043 745.915 113.121 734.985C130.993 726.352 149.311 722.927 167.917 723.187C168.114 722.754 168.31 722.322 168.506 721.889C149.532 721.548 130.819 724.984 112.552 733.809C89.7155 744.845 69.485 762.942 50.2747 783.862C37.5063 797.768 25.1589 812.955 12.7903 828.169C6.55935 835.833 0.321975 843.505 -5.97625 851.022C-43.6423 895.976 -83.5768 935.48 -138.512 936.655C-176.078 937.463 -216.146 920.558 -254.357 898.723C-273.452 887.811 -292.061 875.681 -309.639 863.944C-313.88 861.112 -318.061 858.303 -322.174 855.539L-322.177 855.538C-335.108 846.85 -347.372 838.61 -358.716 831.532C-370.509 824.181 -382.539 816.4 -394.774 808.486L-394.779 808.483C-441.344 778.365 -490.878 746.326 -541.587 728.758C-605.368 706.668 -652.308 729.622 -697.439 760.992C-706.691 767.423 -715.874 774.213 -725.111 781.042L-725.138 781.062C-727.152 782.551 -729.169 784.042 -731.19 785.532C-732.281 786.336 -733.373 787.14 -734.466 787.943Z" fill="black"/>
<path d="M-742.337 775.315C-742.11 775.69 -741.883 776.065 -741.656 776.44C-735.514 771.679 -729.449 766.841 -723.418 762.031C-715.07 755.373 -706.788 748.767 -698.459 742.487C-676.547 725.965 -654.236 711.633 -629.276 704.226C-604.335 696.825 -576.713 696.329 -544.157 707.546C-493.02 725.173 -442.785 758.352 -395.743 789.422L-395.739 789.424C-383.063 797.796 -370.62 806.015 -358.452 813.735C-346.971 821.016 -334.58 829.486 -321.502 838.426L-321.486 838.437C-317.374 841.248 -313.194 844.105 -308.952 846.987C-291.224 859.032 -272.438 871.491 -253.135 882.701C-214.548 905.11 -173.802 922.588 -135.197 921.753C-77.9725 920.491 -38.4784 878.997 -1.78981 832.463C4.13581 824.948 9.98707 817.302 15.8293 809.668L15.8323 809.664C28.1057 793.626 40.3392 777.641 53.1382 763.024C72.0217 741.457 92.0713 722.948 115.153 711.762C135.664 701.82 156.551 698.799 177.657 700.386C177.826 699.962 177.995 699.539 178.163 699.114C156.728 697.442 135.471 700.461 114.583 710.587C91.2695 721.885 71.0828 740.545 52.1544 762.163C39.3278 776.812 27.049 792.856 14.7609 808.913C8.92395 816.54 3.08439 824.17 -2.8166 831.655C-39.5263 878.215 -78.6762 919.199 -135.225 920.447C-173.453 921.274 -213.936 903.955 -252.478 881.571C-271.74 870.385 -290.494 857.948 -308.218 845.906C-312.445 843.034 -316.615 840.184 -320.719 837.378L-320.749 837.358L-320.75 837.357C-333.833 828.414 -346.249 819.926 -357.752 812.632C-369.871 804.942 -382.283 796.744 -394.937 788.386L-394.939 788.385C-441.997 757.303 -492.42 723.998 -543.73 706.311C-576.538 695.007 -604.44 695.494 -629.648 702.974C-654.836 710.448 -677.298 724.895 -699.246 741.444C-707.638 747.771 -715.943 754.396 -724.298 761.06C-730.269 765.823 -736.266 770.607 -742.337 775.315Z" fill="black"/>
<path d="M-750.446 761.386C-750.231 761.769 -750.015 762.152 -749.799 762.534C-741.097 755.991 -732.575 749.218 -724.12 742.498C-715.697 735.804 -707.342 729.163 -698.94 722.855C-677.01 706.389 -654.69 692.123 -629.771 684.79C-604.872 677.463 -577.343 677.047 -544.972 688.347C-493.763 706.218 -443.452 738.878 -396.117 769.605C-383.202 777.989 -370.508 786.229 -358.079 793.985C-346.279 801.352 -333.51 809.973 -320.018 819.083L-320.015 819.085L-319.992 819.1C-316.179 821.675 -312.308 824.288 -308.386 826.923C-290.58 838.883 -271.713 851.28 -252.344 862.465C-213.625 884.822 -172.807 902.391 -134.352 901.89C-76.9365 901.129 -37.6807 859.396 -1.28354 812.532C4.59017 804.969 10.3882 797.274 16.1775 789.59L16.1818 789.584C28.359 773.423 40.497 757.313 53.2166 742.596C71.9759 720.892 91.9343 702.3 115.005 691.161C138.111 679.999 161.531 677.524 185.116 680.492C185.264 680.072 185.411 679.651 185.558 679.231C161.678 676.183 137.907 678.646 114.436 689.985C91.1293 701.238 71.0318 719.985 52.2273 741.742C39.4798 756.491 27.2965 772.661 15.1048 788.842L15.0931 788.857C9.31229 796.529 3.52965 804.204 -2.31608 811.731C-38.7354 858.624 -77.643 899.832 -134.369 900.584C-172.453 901.08 -213.012 883.667 -251.69 861.333C-271.019 850.172 -289.856 837.796 -307.656 825.839C-311.58 823.203 -315.453 820.588 -319.271 818.01L-319.274 818.009C-332.769 808.897 -345.565 800.257 -357.386 792.877C-369.768 785.15 -382.429 776.931 -395.323 768.561L-395.324 768.56C-442.675 737.821 -493.167 705.042 -544.541 687.113C-577.164 675.726 -604.974 676.131 -630.14 683.537C-655.287 690.937 -677.759 705.317 -699.726 721.811C-708.191 728.167 -716.569 734.827 -724.998 741.526C-733.386 748.194 -741.824 754.9 -750.446 761.386Z" fill="black"/>
<path d="M-758.768 745.949C-758.566 746.339 -758.364 746.728 -758.162 747.118C-749.786 741.397 -741.571 735.454 -733.432 729.5C-731.466 728.062 -729.505 726.624 -727.547 725.188C-718.243 718.363 -709.013 711.592 -699.715 705.187C-654.714 674.185 -608.319 651.865 -545.416 673.948C-494.112 691.956 -443.95 722.421 -396.046 751.516L-396.044 751.517C-382.835 759.539 -369.798 767.457 -356.955 774.982C-344.319 782.385 -330.504 791.232 -315.859 800.611C-312.829 802.552 -309.763 804.515 -306.664 806.493C-288.599 818.027 -269.44 830.054 -249.832 840.946C-210.637 862.72 -169.554 880.017 -131.734 879.739C-75.6068 879.312 -36.663 837.999 -0.59078 791.515C5.42777 783.76 11.3651 775.861 17.2906 767.979C29.1547 752.196 40.9711 736.478 53.2956 722.094C71.7668 700.536 91.3106 682.065 113.717 671.001C139.274 658.379 165.287 656.532 191.524 661.015C191.653 660.595 191.781 660.175 191.909 659.755C165.408 655.201 139.053 657.03 113.138 669.829C90.4969 681.009 70.8158 699.638 52.3027 721.244C39.952 735.658 28.0906 751.437 16.2105 767.24C10.2914 775.114 4.36735 782.994 -1.62375 790.715C-37.7216 837.232 -76.3133 878.01 -131.743 878.432C-169.205 878.708 -210.035 861.559 -249.197 839.804C-268.768 828.932 -287.898 816.924 -305.961 805.392C-309.052 803.419 -312.113 801.458 -315.139 799.52L-315.145 799.517C-329.791 790.137 -343.633 781.273 -356.294 773.854C-369.094 766.355 -382.103 758.454 -395.294 750.442L-395.296 750.441C-443.216 721.336 -493.536 690.773 -544.983 672.715C-608.486 650.421 -655.344 673.032 -700.457 704.111C-709.772 710.529 -719.022 717.313 -728.327 724.139C-730.284 725.574 -732.242 727.01 -734.204 728.446C-742.299 734.367 -750.457 740.27 -758.768 745.949Z" fill="black"/>
<path d="M-766.791 729.745C-766.604 730.14 -766.416 730.535 -766.228 730.93C-756.017 724.85 -746.016 718.45 -736.109 712.051C-734.59 711.07 -733.073 710.089 -731.558 709.109C-721.453 702.572 -711.427 696.087 -701.34 689.983C-654.957 661.915 -607.448 642.016 -545.999 662.764C-494.211 680.268 -443.571 708.291 -394.655 735.36C-381.321 742.738 -368.115 750.046 -355.049 757.051C-341.548 764.287 -326.679 773.089 -310.894 782.433C-308.537 783.829 -306.159 785.236 -303.763 786.653C-285.325 797.548 -265.779 808.95 -245.844 819.283C-205.996 839.938 -164.501 856.371 -127.112 855.888C-72.2602 855.201 -34.3244 814.608 0.736758 768.941C6.66711 761.216 12.514 753.348 18.348 745.498L18.3492 745.496C29.7932 730.096 41.1884 714.762 53.0696 700.706C70.9993 679.495 89.967 661.285 111.728 650.286C139.557 636.225 168.157 635.244 197.106 641.44C197.217 641.019 197.328 640.597 197.438 640.175C168.255 633.919 139.322 634.88 111.138 649.12C89.1447 660.236 70.0416 678.604 52.071 699.863C40.1645 713.949 28.7244 729.343 17.264 744.765C11.4359 752.607 5.60244 760.457 -0.300358 768.145C-35.3867 813.845 -72.9731 853.903 -127.129 854.582C-164.173 855.06 -205.422 838.763 -245.242 818.123C-265.142 807.809 -284.661 796.422 -303.097 785.528C-305.479 784.121 -307.842 782.722 -310.186 781.334L-310.225 781.311C-326.006 771.969 -340.903 763.15 -354.431 755.899C-367.461 748.914 -380.643 741.62 -393.961 734.25C-442.89 707.173 -493.669 679.073 -545.581 661.526C-607.583 640.591 -655.525 660.731 -702.017 688.865C-712.122 694.98 -722.166 701.477 -732.269 708.013C-733.784 708.992 -735.3 709.973 -736.818 710.954C-746.69 717.33 -756.64 723.697 -766.791 729.745Z" fill="black"/>
<path d="M-774.518 712.615C-774.346 713.016 -774.173 713.417 -774 713.817C-761.191 707.452 -748.658 700.647 -736.229 693.899C-725.343 687.988 -714.536 682.12 -703.692 676.628C-655.661 652.305 -606.8 635.285 -546.65 654.019C-494.282 670.333 -442.928 695.532 -392.868 720.095C-379.319 726.744 -365.864 733.346 -352.51 739.712C-337.964 746.64 -321.872 755.217 -304.802 764.314L-304.8 764.315L-304.627 764.407C-303.058 765.243 -301.481 766.084 -299.896 766.928C-281.008 776.986 -261.02 787.536 -240.71 797.078C-200.111 816.153 -158.13 831.249 -120.972 830.303C-67.3792 828.91 -30.9988 789.334 2.52684 744.888C8.17486 737.4 13.7404 729.776 19.2949 722.166C30.2572 707.149 41.1765 692.19 52.6023 678.455C69.8085 657.772 88.0961 639.951 109.258 629.018C139.105 613.599 170.233 613.679 201.894 621.702C201.989 621.277 202.082 620.851 202.176 620.425C170.315 612.359 138.859 612.255 108.658 627.857C87.2659 638.909 68.8449 656.887 51.5972 677.62C40.1467 691.385 29.1834 706.403 18.2058 721.441L18.2042 721.443C12.6558 729.044 7.1036 736.65 1.48303 744.101C-32.0638 788.576 -68.1027 827.621 -121.006 828.997C-157.837 829.934 -199.579 814.959 -240.154 795.896C-260.431 786.369 -280.393 775.833 -299.282 765.774C-300.927 764.899 -302.564 764.026 -304.192 763.158C-321.255 754.065 -337.373 745.475 -351.947 738.533C-365.268 732.182 -378.7 725.591 -392.234 718.95L-392.24 718.947C-442.311 694.378 -493.786 669.119 -546.261 652.771C-606.902 633.884 -656.151 651.088 -704.283 675.463C-715.199 680.991 -726.053 686.884 -736.968 692.81C-749.346 699.53 -761.803 706.293 -774.518 712.615Z" fill="black"/>
<path d="M-781.795 694.733C-781.639 695.14 -781.482 695.546 -781.324 695.952C-767.95 690.681 -754.801 685.02 -741.744 679.399L-741.742 679.398C-730.034 674.357 -718.399 669.348 -706.741 664.68C-656.833 644.696 -606.392 630.896 -547.479 647.157C-494.379 661.793 -442.112 683.861 -390.753 705.547L-390.746 705.55C-376.988 711.359 -363.296 717.14 -349.67 722.743C-334.002 729.185 -316.635 737.303 -298.253 745.896L-295.533 747.167C-276.15 756.226 -255.693 765.739 -234.98 774.301C-193.573 791.419 -151.052 804.779 -113.941 803.092C-61.4435 800.714 -27.0821 762.344 4.46618 719.42C9.61293 712.418 14.6835 705.296 19.7466 698.184L19.749 698.181C30.2315 683.458 40.6822 668.779 51.7127 655.296C68.0626 635.311 85.6228 618.037 106.305 607.271C138.031 590.749 171.599 592.069 205.867 601.942C205.945 601.511 206.023 601.08 206.099 600.649C171.668 590.751 137.781 589.406 105.701 606.112C84.789 616.998 67.0952 634.429 50.7007 654.469C39.6423 667.986 29.146 682.728 18.6477 697.474L18.6432 697.48C13.5879 704.58 8.53204 711.681 3.41268 718.647C-28.1498 761.589 -62.1814 799.44 -114 801.787C-150.805 803.46 -193.097 790.202 -234.48 773.094C-255.162 764.544 -275.594 755.043 -294.98 745.984L-297.711 744.707L-297.713 744.706C-316.084 736.119 -333.475 727.989 -349.173 721.535C-362.775 715.941 -376.452 710.166 -390.201 704.361C-441.57 682.671 -493.94 660.558 -547.131 645.898C-606.461 629.522 -657.233 643.449 -707.227 663.467C-718.953 668.163 -730.632 673.19 -742.366 678.242C-755.392 683.849 -768.488 689.487 -781.795 694.733Z" fill="black"/>
<path d="M-788.463 676.382C-788.322 676.795 -788.18 677.207 -788.038 677.619C-774.531 673.682 -761.173 669.448 -747.88 665.235C-735.341 661.26 -722.86 657.304 -710.369 653.634C-658.414 638.368 -606.186 628.005 -548.414 641.515C-494.49 654.114 -441.194 672.797 -388.538 691.256C-374.576 696.151 -360.66 701.029 -346.788 705.774C-329.781 711.588 -310.934 719.092 -291.054 727.008L-291.01 727.026C-271.12 734.945 -250.203 743.273 -229.096 750.713C-186.9 765.586 -143.859 776.944 -106.648 774.368C-53.8925 770.726 -22.6412 733 5.96936 691.525C9.78878 685.989 13.5604 680.386 17.3301 674.786C27.7025 659.379 38.0598 643.994 49.3559 630.064C64.7483 611.083 81.8318 594.875 102.953 585.095C137.682 569.007 173.176 571.67 208.94 582.892C209.003 582.455 209.064 582.017 209.125 581.58C173.237 570.353 137.458 567.671 102.404 583.91C81.0265 593.808 63.7934 610.186 48.3403 629.242C37.0043 643.221 26.598 658.678 16.2149 674.102C12.4524 679.691 8.69283 685.276 4.8932 690.784C-23.7243 732.268 -54.6602 769.47 -106.738 773.065C-143.664 775.621 -186.488 764.346 -228.662 749.481C-249.74 742.051 -270.633 733.733 -290.526 725.812L-290.59 725.786C-310.454 717.877 -329.327 710.362 -346.365 704.538C-360.215 699.8 -374.117 694.927 -388.069 690.036C-440.734 671.573 -494.116 652.86 -548.116 640.243C-606.223 626.654 -658.717 637.095 -710.737 652.38C-723.287 656.068 -735.804 660.035 -748.364 664.016C-761.652 668.228 -774.988 672.455 -788.463 676.382Z" fill="black"/>
<path d="M-794.535 657.418C-794.41 657.837 -794.284 658.256 -794.158 658.675C-781.319 656.088 -768.522 653.307 -755.746 650.53C-744.444 648.074 -733.158 645.621 -721.873 643.309C-670.021 632.689 -618.136 625.04 -564.548 633.623C-499.472 644.033 -435.333 662.361 -371.544 680.59C-347.824 687.368 -324.152 694.132 -300.498 700.471C-286.625 704.182 -271.675 708.828 -256.102 713.668L-253.482 714.482C-236.97 719.612 -219.795 724.91 -202.515 729.495C-167.969 738.66 -132.935 744.992 -101.853 741.396C-47.8834 735.157 -18.3883 698.144 9.10368 658.418C11.6779 654.699 14.2344 650.956 16.7916 647.212L16.7999 647.199C41.5996 610.89 66.4657 574.483 108.161 558.233C141.504 545.224 176.257 549.619 211.495 561.792C211.54 561.347 211.584 560.901 211.628 560.455C176.314 548.299 141.321 543.893 107.686 557.016C65.5915 573.422 40.4933 610.179 15.7372 646.436C13.1702 650.195 10.6069 653.949 8.02859 657.675C-19.4634 697.401 -48.6648 733.932 -102.004 740.098C-132.832 743.665 -167.669 737.388 -202.18 728.232C-219.43 723.656 -236.58 718.365 -253.094 713.235L-255.72 712.418C-271.287 707.58 -286.26 702.927 -300.16 699.209C-323.767 692.883 -347.411 686.126 -371.115 679.353C-434.929 661.117 -499.182 642.756 -564.341 632.333C-618.173 623.711 -670.253 631.403 -722.136 642.03C-733.456 644.348 -744.764 646.806 -756.079 649.265C-768.88 652.047 -781.691 654.831 -794.535 657.418Z" fill="black"/>
<path d="M-799.671 638.98C-799.56 639.406 -799.45 639.833 -799.338 640.259C-786.875 638.946 -774.423 637.527 -761.979 636.109C-750.165 634.763 -738.356 633.418 -726.553 632.165C-673.134 626.494 -619.763 622.708 -566.001 629.233C-500.11 637.24 -434.762 651.053 -369.598 664.827C-345.547 669.911 -321.521 674.989 -297.501 679.769C-282.372 682.775 -266.137 686.71 -249.304 690.797L-248.835 690.91C-232.153 694.961 -214.892 699.151 -197.571 702.718C-162.614 709.916 -127.35 714.587 -96.0054 710.419C-44.0215 703.511 -16.1467 668.418 9.79229 630.881C12.1722 627.436 14.5355 623.972 16.8995 620.507C40.3454 586.142 63.852 551.688 104.064 535.822C138.768 522.13 175.607 527.753 213.125 541.519C213.153 541.065 213.18 540.611 213.206 540.156C175.649 526.428 138.58 520.799 103.584 534.607C62.9769 550.629 39.2418 585.428 15.8374 619.743L15.8342 619.748C13.4641 623.223 11.0973 626.693 8.71666 630.138C-17.2163 667.667 -44.8058 702.297 -96.1778 709.124C-127.297 713.262 -162.384 708.63 -197.307 701.438C-214.606 697.876 -231.848 693.69 -248.537 689.638L-248.996 689.527C-265.823 685.442 -282.085 681.499 -297.246 678.487C-321.23 673.715 -345.234 668.641 -369.272 663.56L-369.276 663.559C-434.459 649.781 -499.891 635.95 -565.843 627.936C-619.759 621.392 -673.253 625.193 -726.691 630.866C-738.517 632.121 -750.339 633.468 -762.162 634.815L-762.164 634.815C-774.663 636.239 -787.163 637.664 -799.671 638.98Z" fill="black"/>
<path d="M-804.031 620.732C-803.935 621.166 -803.839 621.6 -803.743 622.034C-792.089 621.838 -780.435 621.606 -768.782 621.374H-768.78C-756.295 621.125 -743.811 620.877 -731.33 620.672C-676.641 619.777 -621.998 619.732 -567.491 624.251C-500.668 629.776 -434.111 639.037 -367.617 648.288L-367.614 648.289C-343.485 651.646 -319.365 655.001 -295.243 658.177C-279.624 660.233 -263.045 663.102 -245.96 666.104C-244.652 666.334 -243.341 666.565 -242.027 666.796C-226.187 669.584 -209.948 672.441 -193.688 674.831C-158.479 680.007 -123.115 683 -91.3794 678.334C-41.4199 670.999 -14.8783 637.995 9.82622 602.802C12.039 599.65 14.2368 596.481 16.4352 593.311C38.8189 561.034 61.2596 528.675 100.074 513.375C135.899 499.248 174.517 505.988 213.963 521.109C213.972 520.645 213.982 520.182 213.991 519.719C174.541 504.657 135.707 497.919 99.5941 512.16C60.3909 527.613 37.7242 560.308 15.3794 592.538L15.3653 592.558C13.1643 595.733 10.9664 598.903 8.75613 602.052C-15.9364 637.228 -42.1995 669.793 -91.5695 677.042C-123.11 681.679 -158.319 678.71 -193.498 673.539C-209.739 671.151 -225.962 668.297 -241.806 665.509L-245.734 664.818C-262.816 661.815 -279.422 658.942 -295.072 656.882C-319.174 653.709 -343.282 650.355 -367.404 646.998C-433.91 637.745 -500.521 628.478 -567.383 622.949C-621.957 618.424 -676.654 618.471 -731.352 619.366C-743.836 619.57 -756.32 619.819 -768.803 620.067L-768.824 620.068C-780.561 620.302 -792.297 620.535 -804.031 620.732Z" fill="black"/>
<path d="M-807.67 602.603C-807.589 603.045 -807.508 603.486 -807.427 603.928C-791.925 604.9 -776.423 605.888 -760.922 606.877C-696.99 610.955 -633.057 615.033 -569.055 617.94C-500.861 621.041 -432.751 625.793 -364.638 630.546C-341.112 632.187 -317.586 633.829 -294.056 635.402C-275.468 636.651 -255.871 638.834 -235.821 641.068C-221.179 642.699 -206.296 644.357 -191.389 645.697C-156.117 648.869 -120.803 650.251 -88.6031 645.217C-40.615 637.734 -14.9809 606.96 8.92772 574.241C11.0247 571.372 13.1083 568.488 15.1923 565.603C36.901 535.552 58.6554 505.439 96.1543 490.93C133.003 476.652 173.055 484.339 214 500.529C213.992 500.057 213.982 499.585 213.973 499.112C173.057 483.001 132.808 475.326 95.6824 489.711C57.8033 504.368 35.8238 534.801 14.1516 564.81C12.0602 567.706 9.97175 570.598 7.8721 573.471C-16.0187 606.165 -41.3792 636.53 -88.8052 643.926C-120.842 648.934 -156.027 647.565 -191.272 644.396C-206.109 643.062 -220.974 641.406 -235.615 639.776L-235.619 639.775C-255.707 637.538 -275.373 635.348 -293.969 634.099C-317.49 632.526 -341.011 630.885 -364.533 629.243C-432.651 624.49 -500.784 619.736 -568.996 616.635C-632.996 613.728 -696.894 609.652 -760.805 605.575L-760.812 605.575L-760.822 605.574C-776.437 604.578 -792.052 603.582 -807.67 602.603Z" fill="black"/>
<path d="M-810.644 584.416C-810.579 584.864 -810.513 585.312 -810.447 585.76C-797.943 587.399 -785.449 589.092 -772.955 590.785L-772.942 590.787C-762.064 592.261 -751.187 593.735 -740.306 595.174C-684.09 602.604 -627.77 609.079 -570.694 609.67C-509.276 610.285 -447.857 610.54 -386.44 610.794H-386.435L-386.386 610.794C-355.694 610.922 -325.002 611.049 -294.312 611.221C-273.566 611.337 -251.933 612.407 -229.968 613.493L-229.965 613.493C-217.093 614.13 -204.107 614.772 -191.118 615.231C-155.992 616.473 -120.895 616.373 -88.1951 611.176C-42.0519 603.824 -16.7799 575.423 6.89605 545.309C8.93517 542.716 10.9622 540.11 12.9895 537.504C34.5288 509.815 56.0964 482.09 92.4519 468.596C130.32 454.546 171.35 462.942 213.221 479.835C213.193 479.354 213.165 478.872 213.136 478.391C171.323 461.596 130.122 453.226 91.9968 467.371C55.275 481.001 33.4826 509.022 11.977 536.675L11.9507 536.709C9.92473 539.314 7.90135 541.916 5.86819 544.502C-17.7842 574.586 -42.7866 602.618 -88.4004 609.885C-120.972 615.063 -155.967 615.166 -191.072 613.925C-204.019 613.467 -216.987 612.826 -229.852 612.19L-229.857 612.19C-251.846 611.103 -273.536 610.031 -294.304 609.914C-325.013 609.742 -355.72 609.615 -386.427 609.488H-386.44C-447.855 609.233 -509.267 608.979 -570.681 608.364C-627.673 607.773 -683.926 601.308 -740.135 593.878C-751.01 592.441 -761.884 590.967 -772.762 589.493C-785.382 587.783 -798.007 586.072 -810.644 584.416Z" fill="black"/>
<path d="M-812.988 565.908C-812.939 566.361 -812.89 566.813 -812.84 567.265C-800.414 569.575 -788.009 571.976 -775.608 574.376L-775.606 574.377C-765.052 576.419 -754.501 578.461 -743.943 580.446C-687.437 591.071 -630.735 600.072 -572.373 598.816C-537.403 598.055 -501.67 597.706 -465.537 597.352L-465.532 597.352C-340.38 596.129 -210.423 594.858 -90.7094 576.287C-46.2861 569.382 -20.7206 543.47 3.4279 516.079C5.43527 513.802 7.43264 511.515 9.43006 509.228L9.44921 509.206C31.4974 483.963 53.5523 458.712 89.1118 446.523C128.055 433.162 169.514 441.978 211.614 459.14C211.566 458.65 211.517 458.159 211.468 457.669C169.449 440.622 127.853 431.85 88.6878 445.287C52.7814 457.596 30.5027 483.109 8.48603 508.321C6.47424 510.625 4.46469 512.926 2.44716 515.215C-21.6746 542.576 -46.9746 568.167 -90.9099 574.996C-210.521 593.551 -340.347 594.821 -465.484 596.045C-501.634 596.398 -537.393 596.748 -572.401 597.509C-630.619 598.763 -687.209 589.785 -743.701 579.162C-754.236 577.181 -764.768 575.143 -775.307 573.103L-775.334 573.098C-787.871 570.672 -800.417 568.244 -812.988 565.908Z" fill="black"/>
<path d="M-814.687 546.984C-814.654 547.439 -814.621 547.893 -814.588 548.348C-802.169 551.213 -789.775 554.211 -777.384 557.208C-769.357 559.149 -761.331 561.09 -753.3 562.995C-698.93 575.891 -644.325 587.115 -587.623 585.377C-425.761 580.429 -254.708 562.667 -94.3056 541.068C-50.9276 535.221 -23.5674 510.125 2.87248 484.308C4.17065 483.04 5.4666 481.771 6.76201 480.502C31.8806 455.9 56.8192 431.475 94.6625 422.692C132.645 413.864 170.869 422.521 209.128 438.175C209.058 437.675 208.988 437.176 208.917 436.676C170.757 421.149 132.471 412.563 94.3668 421.419C56.1563 430.288 30.9741 454.955 5.90574 479.511C4.59044 480.8 3.27545 482.088 1.95898 483.373C-24.4796 509.189 -51.568 533.989 -94.4801 539.773C-254.859 561.369 -425.863 579.125 -587.663 584.071C-644.179 585.803 -698.637 574.617 -752.998 561.724C-761.018 559.822 -769.037 557.882 -777.06 555.942C-789.585 552.912 -802.12 549.88 -814.687 546.984Z" fill="black"/>
<path d="M-815.738 526.623C-815.723 527.075 -815.708 527.528 -815.692 527.981C-802.157 531.352 -788.669 534.932 -775.185 538.51C-768.322 540.332 -761.46 542.153 -754.593 543.946C-700.496 558.073 -646.138 570.466 -588.902 567.544C-508.284 563.444 -427.378 552.198 -346.592 539.709C-329.128 537.009 -311.671 534.252 -294.223 531.495L-294.219 531.495C-230.947 521.5 -167.803 511.525 -104.958 504.408C-62.2944 499.567 -32.7061 477.468 -3.87553 454.832C-2.6281 453.853 -1.38215 452.873 -0.136636 451.893C27.4318 430.201 54.7791 408.684 92.8242 401.617C131.384 394.46 168.847 402.963 205.89 417.915C205.798 417.408 205.706 416.901 205.613 416.394C168.685 401.58 131.203 393.165 92.5855 400.332C54.2155 407.459 26.6362 429.162 -0.883542 450.817C-2.1498 451.814 -3.41596 452.81 -4.68307 453.805C-33.5147 476.442 -62.8447 498.315 -105.105 503.11C-167.982 510.231 -231.164 520.211 -294.44 530.207C-311.885 532.963 -329.337 535.72 -346.792 538.418C-427.57 550.905 -508.421 562.143 -588.969 566.239C-645.986 569.15 -700.173 556.807 -754.263 542.682C-761.121 540.891 -767.978 539.071 -774.838 537.25L-774.84 537.25C-788.443 533.64 -802.062 530.025 -815.738 526.623Z" fill="black"/>
<path d="M-815.992 506.174C-815.995 506.621 -815.998 507.067 -816 507.514C-803.612 510.416 -791.245 513.456 -778.879 516.496C-770.078 518.66 -761.278 520.824 -752.47 522.937C-697.766 536.064 -642.824 547.243 -586.058 544.359C-476.995 538.842 -366.254 522.713 -256.542 506.735C-208.371 499.719 -160.399 492.732 -112.854 486.685C-70.2639 481.272 -38.5123 459.233 -7.38836 436.846C-6.32529 436.081 -5.26296 435.316 -4.20106 434.551C25.8614 412.902 55.6521 391.448 94.5186 384.523C130.913 378.04 166.6 385.206 201.977 398.404C201.865 397.896 201.752 397.39 201.639 396.883C166.385 383.825 130.709 376.749 94.2892 383.237C55.1233 390.215 25.1136 411.828 -4.89275 433.439C-5.97901 434.222 -7.06528 435.004 -8.15197 435.785C-39.2891 458.182 -70.7959 480.022 -113.019 485.389C-160.615 491.443 -208.616 498.434 -256.802 505.452L-256.804 505.452C-366.486 521.426 -477.125 537.54 -586.124 543.054C-642.688 545.928 -697.473 534.79 -752.165 521.667C-760.955 519.557 -769.744 517.397 -778.537 515.235L-778.542 515.233C-791.01 512.168 -803.488 509.1 -815.992 506.174Z" fill="black"/>
<path d="M-815.329 483.247C-815.351 483.686 -815.373 484.126 -815.394 484.565C-802.878 486.985 -790.374 489.51 -777.869 492.035C-765.5 494.532 -753.131 497.03 -740.751 499.426C-683.171 510.568 -625.386 519.498 -566.436 515.893C-420.358 506.957 -269.85 490.378 -124.89 470.514C-82.5329 464.715 -48.9132 444.714 -15.9376 424.054C-14.0403 422.865 -12.1452 421.674 -10.2508 420.484C20.81 400.966 51.7025 381.554 89.3343 373.369C126.094 365.387 162.316 370.997 198.273 382.801C198.146 382.301 198.018 381.8 197.89 381.3C162.05 369.628 125.84 364.105 89.0566 372.092C51.1927 380.328 20.118 399.856 -10.9034 419.35C-12.8125 420.55 -14.7216 421.75 -16.6319 422.947C-49.6113 443.609 -83.0178 463.463 -125.067 469.22C-270.006 489.081 -420.479 505.656 -566.516 514.589C-625.292 518.184 -682.942 509.282 -740.502 498.143C-752.857 495.752 -765.208 493.258 -777.566 490.763L-777.571 490.762C-790.147 488.222 -802.73 485.681 -815.329 483.247Z" fill="black"/>
<path d="M-813.538 459.158C-813.58 459.592 -813.622 460.026 -813.664 460.46C-800.717 462.313 -787.771 464.244 -774.823 466.176L-774.815 466.177C-760.915 468.251 -747.011 470.325 -733.1 472.304C-674.682 480.612 -616.141 487.228 -557.217 484.992C-418.62 479.749 -274.348 473.029 -136.718 455.931C-93.0123 450.506 -56.0854 431.442 -19.6723 411.762C-17.6719 410.68 -15.673 409.597 -13.6748 408.515C20.7305 389.873 54.9783 371.317 94.4913 363.662C128.576 357.07 161.89 360.951 194.845 370.004C194.707 369.514 194.568 369.024 194.429 368.535C161.588 359.595 128.311 355.79 94.2428 362.379C54.5259 370.074 20.1131 388.72 -14.2528 407.342L-14.2635 407.347C-16.2735 408.437 -18.2833 409.526 -20.2941 410.612C-56.7159 430.298 -93.4458 449.243 -136.88 454.635C-274.448 471.725 -418.671 478.444 -557.266 483.686C-616.068 485.917 -674.513 479.316 -732.916 471.01C-746.809 469.034 -760.702 466.962 -774.597 464.889L-774.6 464.888C-787.577 462.952 -800.556 461.016 -813.538 459.158Z" fill="black"/>
<path d="M-810.346 433.294C-810.411 433.727 -810.475 434.159 -810.538 434.592C-796.953 435.431 -783.36 436.281 -769.762 437.131L-769.754 437.131C-563.41 450.029 -355.629 463.017 -149.588 442.126C-103.921 437.498 -63.3454 419.796 -23.1787 401.426C-20.8043 400.34 -18.4313 399.252 -16.0589 398.163C21.7306 380.833 59.3997 363.558 100.977 356.54C131.996 351.302 162.17 353.656 191.935 360.066C191.791 359.589 191.645 359.112 191.499 358.636C161.844 352.317 131.73 350.022 100.76 355.252C59.0055 362.3 21.1887 379.643 -16.5657 396.958L-16.659 397.001C-19.0135 398.081 -21.3677 399.161 -23.7226 400.238C-63.8987 418.612 -104.294 436.223 -149.72 440.826C-355.644 461.706 -563.295 448.726 -769.636 435.829L-769.651 435.828C-783.222 434.98 -796.787 434.132 -810.346 433.294Z" fill="black"/>
<path d="M-806.187 409.33C-806.273 409.764 -806.359 410.198 -806.444 410.633C-784.766 410.928 -763.089 411.165 -741.413 411.401H-741.409C-671.741 412.162 -602.085 412.922 -532.443 415.62C-493.864 417.113 -454.656 419.83 -415.223 422.563C-330.943 428.404 -245.633 434.316 -163.238 428.504C-115.281 425.118 -70.6917 409.904 -26.4553 393.492C-21.4312 391.628 -16.4118 389.749 -11.3926 387.87C27.8056 373.194 66.9947 358.521 108.371 351.185C135.632 346.36 162.486 347.127 189.128 351.121C188.978 350.658 188.827 350.195 188.676 349.733C162.137 345.807 135.349 345.083 108.142 349.899C66.6403 357.257 27.3336 371.974 -11.8515 386.646C-16.8717 388.526 -21.8898 390.405 -26.9103 392.267C-71.1435 408.677 -115.578 423.829 -163.33 427.2C-245.634 433.006 -330.783 427.104 -415.014 421.266L-415.018 421.266C-454.473 418.532 -493.727 415.811 -532.393 414.314C-602.037 411.616 -671.741 410.855 -741.436 410.094L-741.447 410.094C-763.029 409.858 -784.61 409.623 -806.187 409.33Z" fill="black"/>
<path d="M-800.604 384.421C-800.715 384.863 -800.825 385.306 -800.935 385.749C-781.943 384.646 -762.938 383.353 -743.933 382.061L-743.923 382.06C-729.564 381.083 -715.204 380.107 -700.848 379.212C-639.785 375.405 -578.784 373.073 -518.144 378.477C-477.059 382.146 -435.401 388.476 -393.54 394.837C-378.348 397.146 -363.13 399.458 -347.903 401.649C-290.736 409.874 -233.47 416.379 -177.152 414.476C-126.712 412.774 -77.9932 399.793 -29.5662 385.301C-21.9417 383.019 -14.325 380.7 -6.70986 378.381C34.0659 365.967 74.7956 353.567 116.411 346.979C140.229 343.209 163.762 343.042 187.138 345.109C186.986 344.658 186.833 344.207 186.68 343.757C163.405 341.736 139.952 341.93 116.207 345.688C74.4931 352.292 33.6633 364.723 -7.11145 377.138C-14.7215 379.455 -22.3296 381.771 -29.9411 384.049C-78.3595 398.539 -126.939 411.475 -177.196 413.17C-233.394 415.069 -290.566 408.579 -347.717 400.356C-362.92 398.168 -378.124 395.858 -393.308 393.551L-393.31 393.55C-435.183 387.188 -476.9 380.848 -518.028 377.175C-578.771 371.762 -639.854 374.1 -700.93 377.908C-715.305 378.804 -729.679 379.782 -744.048 380.759C-762.911 382.042 -781.765 383.324 -800.604 384.421Z" fill="black"/>
<path d="M-793.748 359.706C-793.887 360.163 -794.026 360.62 -794.164 361.078C-774.613 358.54 -754.988 355.632 -735.338 352.72C-719.788 350.416 -704.222 348.11 -688.666 345.983C-626.305 337.456 -564.055 331.801 -503.331 340.629C-462.466 346.582 -421.498 356.91 -380.381 367.275L-380.378 367.275C-369.521 370.012 -358.654 372.752 -347.776 375.414C-295.722 388.153 -243.436 399.116 -190.956 399.486C-138.013 399.856 -85.1618 389.243 -32.5307 376.809C-21.6791 374.245 -10.8379 371.604 -0.00695699 368.966C41.7167 358.802 83.2875 348.676 124.707 343.141C145.11 340.407 165.36 339.72 185.519 340.391C185.365 339.95 185.211 339.51 185.056 339.069C165.002 338.424 144.847 339.124 124.533 341.846C83.039 347.391 41.3814 357.539 -0.349719 367.704L-0.35291 367.705C-11.1746 370.341 -22.0013 372.979 -32.8314 375.537C-85.4494 387.968 -138.171 398.548 -190.947 398.179C-243.264 397.811 -295.424 386.881 -347.465 374.145C-358.319 371.489 -369.168 368.754 -380.013 366.02L-380.025 366.017C-421.15 355.649 -462.204 345.3 -503.142 339.336C-564.058 330.48 -626.46 336.159 -688.843 344.689C-704.434 346.82 -720.021 349.13 -735.584 351.436C-755.023 354.316 -774.425 357.19 -793.748 359.706Z" fill="black"/>
<path d="M-785.631 335.287C-785.803 335.764 -785.974 336.241 -786.145 336.719C-766.415 332.839 -746.485 328.423 -726.473 323.989L-726.47 323.989C-708.074 319.913 -689.608 315.821 -671.163 312.116C-605.305 298.888 -539.663 290.571 -478.085 305.286C-443.588 313.527 -408.796 327.026 -373.711 340.639C-363.504 344.599 -353.272 348.569 -343.016 352.422C-297.541 369.505 -251.612 384.272 -205.413 385.53C-152.204 386.99 -97.0534 378.885 -42.0246 368.832C-26.9634 366.08 -11.9134 363.184 3.08572 360.297L3.09705 360.294C42.9191 352.629 82.3836 345.033 120.746 340.41C141.981 337.851 163.104 336.731 184.167 336.563C184.012 336.128 183.855 335.694 183.699 335.26C162.747 335.441 141.725 336.566 120.589 339.112C82.1794 343.742 42.6484 351.351 2.81147 359.018L2.80748 359.019L2.80365 359.02C-12.1886 361.906 -27.2242 364.8 -42.2596 367.547C-97.2728 377.597 -152.312 385.68 -205.377 384.224C-251.342 382.972 -297.096 368.276 -342.556 351.199C-352.78 347.359 -362.99 343.397 -373.183 339.442C-408.283 325.823 -443.189 312.279 -477.781 304.015C-539.653 289.23 -605.534 297.601 -671.42 310.835C-689.926 314.553 -708.429 318.652 -726.846 322.733L-726.848 322.733C-746.574 327.104 -766.203 331.453 -785.631 335.287Z" fill="black"/>
<path d="M-776.315 311.358C-776.525 311.859 -776.734 312.361 -776.942 312.863C-756.663 307.755 -736.133 301.953 -715.5 296.121L-715.498 296.121C-697.092 290.919 -678.602 285.693 -660.134 280.916C-593.245 263.613 -526.575 252.164 -464.693 268.694C-429.158 278.186 -395.452 296.224 -361.605 314.338C-355.516 317.596 -349.422 320.857 -343.312 324.072C-303.281 345.131 -262.586 364.161 -218.182 367.032C-162.688 370.636 -103.847 365.045 -45.0215 357.337C-26.0798 354.855 -7.14326 352.154 11.6806 349.469L11.6826 349.469C51.3417 343.812 90.4999 338.227 128.15 334.911C146.202 333.324 164.251 332.209 182.301 331.433C182.143 331.004 181.983 330.575 181.823 330.146C163.892 330.923 145.962 332.033 128.035 333.609C90.3497 336.929 51.1307 342.522 11.4512 348.182C-7.36421 350.865 -26.2832 353.564 -45.1914 356.041C-103.999 363.747 -162.736 369.324 -218.097 365.729C-262.199 362.877 -302.678 343.972 -342.703 322.915C-348.795 319.711 -354.877 316.456 -360.959 313.2C-394.801 295.088 -428.661 276.966 -464.355 267.432C-526.589 250.808 -593.547 262.342 -660.461 279.651C-679 284.447 -697.532 289.684 -715.963 294.893C-736.245 300.625 -756.404 306.322 -776.315 311.358Z" fill="black"/>
<path d="M-765.151 286.556C-765.41 287.092 -765.667 287.628 -765.924 288.165C-761.387 286.755 -756.83 285.304 -752.254 283.821C-737.478 279.034 -722.533 273.923 -707.49 268.778L-707.486 268.776C-688.421 262.256 -669.197 255.681 -649.953 249.641C-581.133 228.039 -512.626 213.468 -452.502 233.278C-418.938 244.339 -388.966 264.907 -358.896 285.542C-353.835 289.015 -348.771 292.489 -343.688 295.921C-308.439 319.714 -272.239 341.409 -229.396 345.654C-171.784 351.346 -109.715 348.434 -47.5507 343.297C-24.3734 341.382 -1.18896 339.158 21.7844 336.954L21.7863 336.954L21.7896 336.954C60.4584 333.244 98.5295 329.592 134.962 327.566C149.924 326.731 164.876 325.823 179.822 324.866C179.657 324.44 179.493 324.014 179.327 323.588C164.516 324.535 149.704 325.435 134.89 326.261C98.435 328.289 60.31 331.946 21.6165 335.657L21.6096 335.658C-1.3562 337.861 -24.5224 340.083 -47.6584 341.995C-109.804 347.131 -171.777 350.034 -229.267 344.354C-271.754 340.145 -307.715 318.626 -342.956 294.838C-348.022 291.418 -353.075 287.951 -358.129 284.482C-388.19 263.851 -418.337 243.162 -452.092 232.037C-512.649 212.085 -581.519 226.791 -650.344 248.394C-669.579 254.432 -688.855 261.024 -707.952 267.555L-707.958 267.557C-723.005 272.702 -737.94 277.81 -752.657 282.579C-756.839 283.933 -761.004 285.261 -765.151 286.556Z" fill="black"/>
<path d="M-751.937 261.022C-752.258 261.601 -752.577 262.18 -752.895 262.76C-750.594 261.926 -748.286 261.081 -745.972 260.226C-730.909 254.663 -715.598 248.703 -700.143 242.687C-680.724 235.127 -661.077 227.479 -641.408 220.419C-570.798 195.075 -500.56 177.576 -442.038 199.745C-409.917 211.914 -383.37 234.038 -356.781 256.197L-356.777 256.2C-352.497 259.766 -348.217 263.334 -343.912 266.861C-312.898 292.268 -280.644 315.538 -238.536 320.768C-152.732 331.435 -56.8356 326.646 35.2153 322.048C71.3111 320.245 106.816 318.472 140.889 317.672C152.762 317.394 164.573 316.838 176.336 316.065C176.162 315.64 175.989 315.215 175.815 314.79C164.213 315.547 152.565 316.092 140.858 316.366C106.707 317.168 71.1543 318.943 35.0307 320.748L35.0288 320.748C-56.9794 325.343 -152.692 330.123 -238.375 319.472C-280.082 314.291 -312.084 291.245 -343.083 265.85C-347.373 262.336 -351.644 258.776 -355.92 255.212C-382.497 233.06 -409.232 210.777 -441.575 198.523C-500.594 176.166 -571.26 193.852 -641.85 219.189C-661.504 226.244 -681.203 233.912 -700.654 241.483L-700.658 241.485L-700.664 241.487C-716.123 247.505 -731.426 253.462 -746.425 259.001C-748.267 259.681 -750.104 260.355 -751.937 261.022Z" fill="black"/>
<path d="M-741.295 242.698C-741.64 243.266 -741.985 243.835 -742.329 244.405C-708.245 233.438 -675.046 220.324 -640.84 206.811C-632.855 203.657 -624.816 200.481 -616.697 197.306C-612.151 195.526 -607.539 193.69 -602.87 191.831C-578.597 182.168 -552.773 171.887 -526.597 165.675C-495.398 158.27 -463.782 156.67 -433.814 168.764C-402.468 181.42 -378.669 203.967 -354.9 226.484C-351.215 229.976 -347.53 233.467 -343.818 236.92C-316.201 262.61 -287.112 286.163 -245.119 291.86C-149.263 304.898 -43.389 304.67 57.8309 304.453H57.8353C87.6547 304.389 117.07 304.326 145.706 304.603C154.321 304.686 162.852 304.524 171.313 304.154C171.126 303.726 170.938 303.298 170.75 302.87C162.477 303.224 154.138 303.378 145.719 303.296C117.044 303.019 87.6026 303.082 57.7661 303.146C-43.438 303.363 -149.186 303.59 -244.943 290.565C-286.506 284.927 -315.338 261.629 -342.927 235.964C-346.624 232.525 -350.299 229.042 -353.98 225.554C-377.735 203.045 -401.73 180.309 -433.324 167.553C-463.64 155.318 -495.56 156.966 -526.899 164.403C-553.177 170.64 -579.106 180.963 -603.377 190.626L-603.38 190.627C-608.042 192.484 -612.643 194.315 -617.173 196.089C-625.295 199.266 -633.336 202.442 -641.319 205.595C-675.054 218.921 -707.768 231.844 -741.295 242.698Z" fill="black"/>
<path d="M-724.758 217.249C-725.182 217.863 -725.606 218.477 -726.028 219.092C-696.842 208.668 -668.221 196.634 -638.749 184.242L-638.741 184.238C-630.119 180.613 -621.424 176.957 -612.621 173.302C-608.76 171.701 -604.823 170.047 -600.817 168.365C-576.497 158.151 -549.679 146.889 -522.37 139.869C-490.568 131.693 -458.19 129.296 -428.414 140.966C-397.119 153.227 -375.05 174.882 -353.091 196.43L-353.089 196.432C-349.832 199.628 -346.577 202.821 -343.295 205.982C-317.909 230.426 -290.935 252.807 -248.698 258.299C-119.675 275.028 18.6146 281.859 148.971 287.655C154.001 287.877 158.984 287.99 163.925 288.004C163.716 287.568 163.506 287.131 163.296 286.695C158.58 286.674 153.825 286.562 149.029 286.35C18.6683 280.554 -119.569 273.724 -248.53 257.004C-290.33 251.568 -317.047 229.442 -342.388 205.041C-345.655 201.895 -348.901 198.71 -352.153 195.518L-352.158 195.513C-374.104 173.973 -396.375 152.115 -427.937 139.749C-458.077 127.937 -490.768 130.395 -522.695 138.603C-550.106 145.65 -577.021 156.954 -601.337 167.166C-605.339 168.847 -609.271 170.498 -613.123 172.096C-621.933 175.754 -630.632 179.411 -639.255 183.037L-639.259 183.038C-668.161 195.19 -696.211 206.984 -724.758 217.249Z" fill="black"/>
<path d="M-704.154 189.526C-704.69 190.198 -705.224 190.872 -705.756 191.547C-683.741 183.055 -661.866 173.782 -639.491 164.296C-630.542 160.502 -621.512 156.674 -612.361 152.849C-608.967 151.43 -605.508 149.971 -601.99 148.487C-577.389 138.107 -549.941 126.527 -521.942 119.207C-489.943 110.842 -457.311 108.068 -427.477 118.968C-396.025 130.454 -374.104 150.857 -352.32 171.133C-349.212 174.026 -346.107 176.916 -342.978 179.777C-317.931 202.676 -291.365 223.663 -249.396 228.839C-118.475 244.974 17.0309 258.968 148.883 267.719C150.532 267.828 152.175 267.925 153.813 268.01C153.573 267.561 153.333 267.112 153.092 266.663C151.721 266.589 150.347 266.507 148.97 266.415C17.149 257.666 -118.331 243.675 -249.236 227.542C-290.787 222.417 -317.099 201.666 -342.096 178.813C-345.21 175.965 -348.306 173.083 -351.408 170.195L-351.416 170.188C-373.188 149.919 -395.31 129.324 -427.028 117.74C-457.22 106.71 -490.155 109.547 -522.273 117.943C-550.371 125.289 -577.912 136.909 -602.506 147.286C-606.022 148.769 -609.477 150.227 -612.866 151.644C-622.024 155.472 -631.058 159.302 -640.009 163.096C-661.684 172.284 -682.87 181.265 -704.154 189.526Z" fill="black"/>
<path d="M-677.969 159.141C-678.656 159.879 -679.342 160.62 -680.026 161.362C-666.978 156.204 -653.888 150.872 -640.639 145.475C-632.335 142.093 -623.968 138.685 -615.509 135.278C-611.673 133.734 -607.764 132.142 -603.792 130.525C-579.343 120.57 -552.481 109.632 -525.129 102.7C-493.337 94.6438 -460.968 92.0236 -431.054 102.614C-399.685 113.7 -376.957 133.336 -354.328 152.887L-354.325 152.89C-351.209 155.582 -348.095 158.273 -344.96 160.939C-319.081 182.953 -291.856 203.262 -250.844 208.79C-121.953 226.143 10.892 240.912 140.709 251.546C142.082 251.659 143.452 251.762 144.818 251.856C144.553 251.401 144.288 250.945 144.022 250.491C142.955 250.414 141.887 250.332 140.816 250.244C11.0239 239.612 -121.798 224.846 -250.669 207.495C-291.293 202.02 -318.277 181.921 -344.113 159.944C-347.238 157.285 -350.348 154.598 -353.464 151.906C-376.079 132.363 -399.001 112.556 -430.618 101.382C-460.878 90.6694 -493.54 93.3473 -525.45 101.434C-552.898 108.39 -579.853 119.366 -604.297 129.319C-608.266 130.936 -612.169 132.525 -615.998 134.066C-624.461 137.475 -632.83 140.883 -641.132 144.265C-653.524 149.313 -665.77 154.301 -677.969 159.141Z" fill="black"/>
<path d="M-624.113 109.002C-625.17 109.855 -626.224 110.712 -627.275 111.573C-560.583 86.6197 -494.497 69.8608 -437.32 88.7365C-405.792 99.137 -381.837 117.579 -357.933 135.982C-354.866 138.343 -351.799 140.704 -348.718 143.047C-321.644 163.633 -293.449 182.809 -253.474 188.667C-127.804 207.054 -0.132647 224.74 126.212 238.475C129.961 238.882 133.687 239.212 137.391 239.47C137.108 239.013 136.824 238.556 136.54 238.099C133.163 237.854 129.768 237.547 126.353 237.176C0.032883 223.444 -127.62 205.76 -253.285 187.375C-292.914 181.567 -320.885 162.568 -347.927 142.007C-351.001 139.669 -354.064 137.311 -357.132 134.949C-381.02 116.556 -405.157 97.9708 -436.91 87.4959C-493.505 68.8125 -558.618 84.7862 -624.113 109.002Z" fill="black"/>
<path d="M-586.443 81.3419C-587.576 82.0976 -588.706 82.8576 -589.833 83.6219C-539.59 69.7265 -490.565 63.7149 -445.872 77.0385C-413.925 86.5513 -388.297 103.461 -362.663 120.375C-359.785 122.274 -356.905 124.174 -354.018 126.062C-325.435 144.76 -295.998 162.411 -257.139 168.618C-212.274 175.773 -167.408 183.283 -122.526 190.795L-122.523 190.796C-46.0703 203.592 30.4304 216.397 107.054 227.47C115.19 228.648 123.26 229.416 131.271 229.821C130.978 229.369 130.683 228.918 130.388 228.467C122.727 228.051 115.015 227.302 107.242 226.177C30.6287 215.105 -45.8434 202.305 -122.284 189.511L-122.301 189.508C-167.182 181.996 -212.052 174.486 -256.933 167.328C-295.5 161.168 -324.74 143.653 -353.302 124.969C-356.178 123.088 -359.047 121.195 -361.918 119.3L-361.948 119.28C-387.565 102.376 -413.355 85.3577 -445.498 75.7864C-489.399 62.6993 -537.378 68.1443 -586.443 81.3419Z" fill="black"/>
<path d="M-556.218 62.6594C-557.266 63.2584 -558.312 63.8608 -559.356 64.4669C-523.844 58.8148 -489.128 58.3239 -456.081 66.8917C-422.948 75.4906 -394.406 90.7228 -365.729 106.027L-365.727 106.028C-363.886 107.011 -362.044 107.994 -360.201 108.975C-329.662 125.234 -298.64 141.088 -261.56 148.493C-229.588 154.886 -197.615 161.347 -165.635 167.81L-165.626 167.812C-82.1874 184.673 1.29898 201.545 84.9377 217.239C98.4649 219.777 111.996 221.007 125.525 221.172C125.227 220.732 124.927 220.292 124.627 219.853C111.473 219.645 98.3218 218.421 85.179 215.955C1.54898 200.262 -81.9246 183.393 -165.361 166.532L-165.372 166.53L-165.434 166.517C-197.394 160.059 -229.348 153.601 -261.304 147.211C-298.176 139.848 -329.046 124.081 -359.586 107.822C-361.439 106.836 -363.29 105.848 -365.141 104.86C-393.793 89.5682 -422.463 74.2667 -455.753 65.6271C-487.97 57.2742 -521.735 57.4817 -556.218 62.6594Z" fill="black"/>
<path d="M-535.338 51.3596C-536.272 51.8375 -537.205 52.3184 -538.136 52.8019C-514.213 51.5476 -490.61 52.8904 -467.507 57.9267C-433.024 65.4395 -401.512 78.9441 -369.824 92.5245L-367.682 93.4425C-335.288 107.322 -302.639 121.138 -266.475 128.482C-196.742 142.637 -127.56 159.99 -58.4064 177.336L-58.3957 177.339C-18.4335 187.363 21.5191 197.384 61.5632 206.785C80.3136 211.192 99.5639 212.677 119.137 211.979C118.834 211.553 118.53 211.127 118.226 210.703C99.0543 211.324 80.2118 209.826 61.8625 205.513C21.858 196.122 -18.0793 186.104 -58.0373 176.081L-58.0402 176.081C-127.218 158.729 -196.458 141.361 -266.215 127.202C-302.229 119.888 -334.76 106.126 -367.167 92.2417L-369.352 91.3051C-401.009 77.738 -432.621 64.19 -467.229 56.6501C-489.535 51.7876 -512.294 50.3513 -535.338 51.3596Z" fill="black"/>
<path d="M-520.834 44.2246C-521.698 44.6327 -522.56 45.0432 -523.421 45.4559C-511.892 45.7495 -500.389 46.6258 -488.918 48.189C-452.035 53.2183 -416.605 65.2685 -381.084 77.8226C-378.723 78.6568 -376.363 79.4931 -374.001 80.3298C-340.842 92.0787 -307.516 103.886 -272.856 110.394C-218.303 120.631 -164.998 137.067 -111.69 153.659L-107.837 154.858C-55.825 171.051 -3.77989 187.254 49.3955 197.818C69.0949 201.731 89.7003 202.4 110.883 200.699C110.573 200.286 110.261 199.874 109.95 199.462C89.164 201.072 68.9616 200.372 49.6502 196.537C-3.45713 185.986 -55.4441 169.801 -107.477 153.602L-111.301 152.412C-164.6 135.822 -217.975 119.363 -272.615 109.11C-307.171 102.622 -340.406 90.8466 -373.586 79.0907C-375.94 78.2566 -378.294 77.4227 -380.648 76.5908C-416.161 64.0395 -451.709 51.9442 -488.741 46.8944C-499.414 45.4399 -510.114 44.5778 -520.834 44.2246Z" fill="black"/>
<path d="M-507.941 38.3489C-508.774 38.7147 -509.606 39.0825 -510.436 39.4525C-507.406 39.6948 -504.376 39.9737 -501.347 40.2906C-464.277 44.18 -427.029 53.2688 -389.82 63.1533C-382.965 64.9746 -376.11 66.8229 -369.258 68.6705L-369.191 68.6887L-369.186 68.6897C-338.889 76.8596 -308.646 85.0149 -278.621 90.7519C-226.423 100.728 -175.692 117.927 -125.018 135.617C-121.438 136.867 -117.857 138.119 -114.277 139.372C-67.1986 155.84 -20.0829 172.322 28.1364 183.379C51.7442 188.801 75.052 188.251 98.1042 184.41C97.786 184.021 97.4673 183.632 97.1479 183.244C74.4604 186.953 51.5775 187.422 28.4292 182.105C-19.7153 171.065 -66.7633 154.608 -113.855 138.135L-113.914 138.114C-117.471 136.87 -121.029 135.626 -124.587 134.383C-175.256 116.695 -226.071 99.4656 -278.375 89.4686C-308.347 83.7419 -338.531 75.6028 -368.825 67.434L-368.829 67.433L-368.874 67.4209C-375.739 65.5698 -382.609 63.717 -389.485 61.8907C-426.699 52.0045 -464.032 42.892 -501.21 38.9913C-503.454 38.7567 -505.698 38.5426 -507.941 38.3489Z" fill="black"/>
<path d="M-494.061 32.4958C-494.921 32.8436 -495.78 33.1937 -496.638 33.546C-445.43 38.6869 -392.285 49.4119 -340.659 59.8305C-321.573 63.6823 -302.693 67.4923 -284.196 70.9626C-236.372 79.9372 -189.846 98.4004 -143.275 116.882L-140.792 117.867C-139.504 118.378 -138.217 118.888 -136.929 119.399C-88.2608 138.691 -39.4797 157.531 10.8249 165.001C33.7852 168.411 57.7327 168.42 82.294 165.968C81.9323 165.566 81.5701 165.164 81.2071 164.763C57.0745 167.11 33.5606 167.057 11.0171 163.709C-39.1161 156.264 -87.7624 137.483 -136.447 118.184C-138.576 117.34 -140.705 116.496 -142.835 115.651C-189.372 97.1826 -236.004 78.677 -283.955 69.6786C-302.41 66.216 -321.261 62.4118 -340.33 58.5635L-340.337 58.562C-391.158 48.3057 -443.526 37.7372 -494.061 32.4958Z" fill="black"/>
<path d="M-474.548 25.0627C-475.531 25.4143 -476.512 25.7687 -477.492 26.1261C-414.637 31.3547 -349.228 40.4794 -289.101 50.9909C-241.398 59.3172 -195.135 77.4376 -148.829 95.5752L-145.063 97.05C-97.5223 115.663 -49.8962 134.013 -0.70131 141.41C19.1634 144.396 39.8337 144.974 61.0536 143.705C60.636 143.292 60.2177 142.881 59.7987 142.469C39.0735 143.643 18.8924 143.034 -0.506845 140.118C-49.5334 132.747 -97.0259 114.454 -144.586 95.8336L-148.403 94.3385L-148.405 94.3376C-194.672 76.2155 -241.042 58.053 -288.876 49.704C-348.126 39.3458 -412.514 30.3315 -474.548 25.0627Z" fill="black"/>
<path d="M-447.03 16.0893C-448.348 16.4781 -449.663 16.8719 -450.976 17.2708C-398.468 18.8841 -345.89 22.8921 -293.149 30.761C-245.081 37.9401 -198.261 54.3392 -151.397 70.754L-151.394 70.7549L-149.043 71.5784C-101.415 88.2582 -53.7205 104.794 -4.71807 111.432C6.11403 112.896 17.1515 113.745 28.3592 114.055C27.8146 113.602 27.269 113.15 26.7224 112.699C16.1337 112.354 5.70218 111.522 -4.54275 110.137C-53.3922 103.52 -100.964 87.032 -148.611 70.3455L-151.014 69.5038C-197.841 53.1018 -244.763 36.6665 -292.955 29.4687C-344.448 21.7863 -395.779 17.7806 -447.03 16.0893Z" fill="black"/>
<path d="M-372.359 2.40851e-05C-374.511 0.298374 -376.659 0.610014 -378.803 0.934839C-350.573 2.51782 -322.423 4.82646 -294.383 8.05866C-245.563 13.6881 -197.319 27.5104 -148.998 41.3548L-148.544 41.485C-146.533 42.0612 -144.522 42.6373 -142.51 43.213C-106.011 53.6579 -69.4524 63.906 -32.5967 70.4084C-33.6304 69.7765 -34.6665 69.1482 -35.705 68.5233C-71.3463 62.0159 -106.744 52.0892 -142.15 41.957C-144.325 41.3348 -146.499 40.7117 -148.674 40.0886C-196.965 26.2525 -245.304 12.4028 -294.233 6.76063C-320.191 3.76852 -346.24 1.56726 -372.359 2.40851e-05Z" fill="black"/>
</svg>
