<svg width="250" height="445" viewBox="0 0 250 445" fill="none" xmlns="http://www.w3.org/2000/svg">
<path d="M624.272 -568.022C617.373 -569.176 610.479 -570.351 603.586 -571.526C597.728 -572.524 591.872 -573.522 586.012 -574.508C583.531 -574.925 581.05 -575.34 578.569 -575.752C571.214 -576.657 563.81 -577.408 556.362 -578C566.186 -576.482 575.992 -574.869 585.795 -573.22C591.648 -572.235 597.501 -571.238 603.356 -570.24L603.359 -570.239C616.463 -568.006 629.578 -565.771 642.734 -563.675C636.623 -565.234 630.468 -566.683 624.272 -568.022Z" fill="black"/>
<path d="M738.328 -528.841C737.087 -529.439 735.844 -530.032 734.598 -530.62C727.377 -531.506 720.148 -532.344 712.911 -533.126C675.399 -537.19 638.996 -544.976 602.617 -552.756L602.608 -552.758C596.722 -554.017 590.837 -555.276 584.949 -556.519C542.673 -565.44 500.209 -573.537 455.949 -574.923C452.856 -575.021 449.766 -575.098 446.677 -575.155C443.835 -574.778 441 -574.379 438.173 -573.957C444.078 -573.914 449.989 -573.804 455.907 -573.617C500.043 -572.235 542.41 -564.16 584.679 -555.24C590.564 -553.998 596.447 -552.74 602.334 -551.481C638.709 -543.701 675.186 -535.899 712.77 -531.827C721.301 -530.905 729.819 -529.905 738.328 -528.841Z" fill="black"/>
<path d="M793.188 -498.141C792.342 -498.685 791.493 -499.227 790.644 -499.766C765.769 -502.792 741.017 -505.932 716.472 -509.163C677.046 -514.351 639.266 -524.649 601.524 -534.938L601.522 -534.938C595.398 -536.608 589.275 -538.277 583.146 -539.924C539.262 -551.716 495.093 -562.367 448.227 -563.773C424.179 -564.494 400.431 -563.251 376.851 -560.922C374.438 -560.252 372.031 -559.565 369.632 -558.861C395.586 -561.667 421.707 -563.261 448.188 -562.467C494.89 -561.066 538.932 -550.452 582.806 -538.662C588.927 -537.017 595.046 -535.349 601.167 -533.68C638.906 -523.393 676.78 -513.068 716.302 -507.868C741.739 -504.519 767.399 -501.268 793.188 -498.141Z" fill="black"/>
<path d="M829.02 -472.896C828.4 -473.374 827.779 -473.85 827.156 -474.324C791.247 -476.642 755.592 -479.816 720.575 -484.575C677.389 -490.446 636.758 -504.454 596.109 -518.467L596.102 -518.47C590.949 -520.246 585.797 -522.022 580.638 -523.782C534.808 -539.419 488.56 -553.747 438.362 -555.023C395.719 -556.097 354.879 -548.586 314.441 -539.168C312.147 -538.198 309.863 -537.212 307.586 -536.21C350.343 -546.392 393.343 -554.85 438.329 -553.717C488.309 -552.446 534.391 -538.18 580.216 -522.546C585.373 -520.786 590.526 -519.009 595.682 -517.232C636.317 -503.223 677.076 -489.17 720.399 -483.28C756.075 -478.432 792.421 -475.227 829.02 -472.896Z" fill="black"/>
<path d="M856.573 -450.121C856.09 -450.549 855.606 -450.977 855.121 -451.404C811.059 -450.69 767.388 -452.159 725.216 -459.428C680.52 -467.119 638.727 -484.428 596.925 -501.741L596.919 -501.744C590.542 -504.385 584.166 -507.026 577.779 -509.633C529.55 -529.317 480.747 -547.046 427.089 -547.935C377.965 -548.749 332.666 -534.988 287.834 -519.443C281.544 -517.262 275.264 -515.046 268.984 -512.83C262.378 -510.499 255.772 -508.168 249.155 -505.878C247.425 -504.834 245.701 -503.78 243.985 -502.717C252.491 -505.624 260.968 -508.615 269.437 -511.604L269.44 -511.605C275.715 -513.819 281.986 -516.032 288.263 -518.208C333.082 -533.749 378.192 -547.438 427.068 -546.628C480.46 -545.744 529.066 -528.104 577.285 -508.423C583.663 -505.82 590.034 -503.181 596.408 -500.541L596.411 -500.54C638.202 -483.23 680.143 -465.858 724.994 -458.141C767.733 -450.773 811.986 -449.352 856.573 -450.121Z" fill="black"/>
<path d="M877.438 -430.571C877.04 -430.965 876.641 -431.359 876.242 -431.752C826.78 -426.221 777.595 -424.041 730.115 -433.986C684.092 -443.608 640.917 -464.407 597.691 -485.231C590.007 -488.933 582.32 -492.636 574.616 -496.277C523.616 -520.379 471.86 -541.75 414.817 -541.954C364.849 -542.139 320.464 -524.24 276.794 -504.041C270.378 -501.074 263.979 -498.057 257.58 -495.041C236.261 -484.992 214.943 -474.942 193.034 -466.715C191.97 -465.862 190.909 -465.005 189.852 -464.144C213.123 -472.638 235.674 -483.269 258.162 -493.87C264.556 -496.884 270.944 -499.896 277.343 -502.855C320.997 -523.047 365.155 -540.831 414.812 -540.647C471.542 -540.445 523.069 -519.192 574.058 -495.095C581.742 -491.464 589.414 -487.768 597.09 -484.069L597.094 -484.068C640.315 -463.245 683.655 -442.365 729.847 -432.707C777.865 -422.649 827.577 -424.949 877.438 -430.571Z" fill="black"/>
<path d="M894.154 -413.232C893.812 -413.603 893.469 -413.975 893.126 -414.345C840.277 -402.889 787.484 -395.555 735.122 -408.359C687.423 -420.023 642.473 -444.268 597.402 -468.578C588.712 -473.265 580.018 -477.955 571.299 -482.557C517.4 -511.006 462.568 -536.101 402.147 -536.342C351.458 -536.546 307.818 -514.353 265.215 -489.187C258.506 -485.224 251.823 -481.188 245.143 -477.154C214.399 -458.586 183.704 -440.047 150.69 -428.786C150.004 -428.099 149.319 -427.411 148.636 -426.72C182.759 -437.944 214.359 -457.032 245.859 -476.058L245.861 -476.06C252.531 -480.089 259.196 -484.115 265.88 -488.063C308.468 -513.219 351.839 -535.238 402.142 -535.035C462.216 -534.796 516.799 -509.846 570.688 -481.402C579.382 -476.813 588.059 -472.133 596.738 -467.451L596.741 -467.449C641.811 -443.138 686.934 -418.797 734.812 -407.09C787.658 -394.168 840.881 -401.655 893.949 -413.187C894.017 -413.202 894.086 -413.217 894.154 -413.232Z" fill="black"/>
<path d="M908.093 -397.45C907.789 -397.809 907.484 -398.168 907.179 -398.526C903.911 -397.453 900.644 -396.396 897.376 -395.361C845.854 -379.032 794.164 -367.925 740.128 -382.843C691.089 -396.389 644.378 -424.021 597.424 -451.796C587.659 -457.573 577.884 -463.355 568.075 -469.019C511.153 -501.883 453.126 -530.712 389.695 -530.619C338.196 -530.545 295.271 -504.083 253.737 -474.073C246.912 -469.142 240.126 -464.116 233.345 -459.094L233.342 -459.091C198.801 -433.51 164.406 -408.036 125.825 -395.757C123.435 -394.997 121.036 -394.292 118.631 -393.64C118.152 -393.064 117.674 -392.487 117.197 -391.909C120.217 -392.692 123.225 -393.559 126.222 -394.513C165.029 -406.864 199.633 -432.495 234.17 -458.077C240.94 -463.091 247.707 -468.104 254.503 -473.014C296.027 -503.017 338.652 -529.239 389.697 -529.313C452.746 -529.405 510.505 -500.749 567.421 -467.887C577.2 -462.241 586.955 -456.47 596.707 -450.701C643.662 -422.922 690.556 -395.181 739.78 -381.583C794.198 -366.56 846.196 -377.77 897.771 -394.115C901.214 -395.206 904.654 -396.32 908.093 -397.45Z" fill="black"/>
<path d="M920.107 -382.74C919.829 -383.093 919.55 -383.447 919.271 -383.8C913.236 -381.125 907.205 -378.499 901.167 -375.967C851.339 -355.067 801.033 -340.504 744.872 -357.548C694.686 -372.778 646.267 -403.574 597.456 -434.619L597.453 -434.621C586.676 -441.476 575.879 -448.343 565.04 -455.057C505.171 -492.143 444.032 -524.547 377.944 -524.047C325.62 -523.658 283.348 -493.081 242.83 -458.469C235.992 -452.627 229.206 -446.673 222.429 -440.726C209.102 -429.032 195.81 -417.368 182.223 -406.654C161.738 -390.502 140.645 -376.56 117.889 -368.02C109.954 -365.041 101.914 -362.809 93.7846 -361.231C93.4242 -360.721 93.0647 -360.209 92.7061 -359.697C101.355 -361.299 109.909 -363.628 118.348 -366.797C141.286 -375.405 162.502 -389.44 183.033 -405.629C196.646 -416.363 209.985 -428.068 223.329 -439.777L223.337 -439.784C230.105 -445.722 236.873 -451.661 243.68 -457.476C284.197 -492.088 326.147 -522.355 377.954 -522.741C443.629 -523.238 504.482 -491.033 564.351 -453.947C575.155 -447.254 585.928 -440.402 596.691 -433.556L596.694 -433.554C645.51 -402.503 694.118 -371.585 744.492 -356.298C801.106 -339.117 851.774 -353.832 901.673 -374.762C907.827 -377.343 913.968 -380.018 920.107 -382.74Z" fill="black"/>
<path d="M930.609 -368.915C930.35 -369.269 930.089 -369.623 929.829 -369.976C921.475 -365.336 913.142 -360.762 904.78 -356.409C856.683 -331.368 807.756 -313.675 749.169 -332.697C697.911 -349.345 647.887 -383.001 597.322 -417.02L597.317 -417.024C585.698 -424.841 574.05 -432.678 562.352 -440.331C499.814 -481.25 435.859 -516.925 367.45 -515.999C314.23 -515.275 272.588 -480.946 233.041 -442.185C226.271 -435.55 219.565 -428.787 212.871 -422.037L212.868 -422.033C199.98 -409.037 187.139 -396.088 173.979 -384.186C153.992 -366.11 133.335 -350.514 110.807 -340.947C98.8306 -335.866 86.5956 -332.766 74.1624 -331.269C73.8766 -330.798 73.5917 -330.326 73.3074 -329.853C86.199 -331.316 98.8928 -334.473 111.319 -339.745C134.042 -349.395 154.826 -365.102 174.856 -383.217C188.042 -395.142 200.93 -408.139 213.835 -421.153C220.523 -427.897 227.215 -434.645 233.956 -441.252C273.514 -480.023 314.819 -513.976 367.467 -514.693C435.438 -515.613 499.09 -480.162 561.636 -439.238C573.297 -431.609 584.92 -423.788 596.525 -415.98C647.097 -381.953 697.315 -348.165 748.765 -331.455C807.866 -312.265 857.198 -330.163 905.384 -355.25C913.809 -359.636 922.203 -364.245 930.609 -368.915Z" fill="black"/>
<path d="M939.979 -355.712C939.733 -356.071 939.486 -356.43 939.238 -356.788C938.91 -356.573 938.582 -356.357 938.254 -356.142L938.251 -356.14C928.168 -349.522 918.154 -342.949 908.077 -336.754C861.608 -308.186 813.964 -287.767 752.982 -308.475C703.582 -325.236 655.518 -355.432 609.948 -384.061C598.184 -391.452 586.586 -398.738 575.175 -405.662C564.085 -412.396 552.137 -420.188 539.56 -428.389C518.643 -442.03 495.986 -456.804 472.65 -469.735C435.259 -490.455 395.921 -506.569 358.766 -505.883C304.47 -504.881 263.481 -467.347 224.889 -425.079C218.286 -417.848 211.756 -410.48 205.24 -403.129L205.238 -403.126C192.678 -388.956 180.17 -374.843 167.298 -361.881C147.758 -342.203 127.446 -325.246 104.989 -314.874C89.8585 -307.887 74.3358 -304.42 58.5381 -303.606C58.3035 -303.159 58.0696 -302.711 57.8363 -302.263C74.0447 -303.01 89.9901 -306.508 105.538 -313.688C128.202 -324.156 148.644 -341.24 168.226 -360.961C181.122 -373.948 193.675 -388.11 206.252 -402.299C212.763 -409.645 219.28 -416.998 225.854 -424.198C264.465 -466.486 305.111 -503.586 358.79 -504.577C395.586 -505.256 434.671 -489.287 472.016 -468.593C495.329 -455.674 517.886 -440.963 538.763 -427.348C551.352 -419.137 563.331 -411.326 574.496 -404.545C585.866 -397.647 597.435 -390.378 609.181 -382.998C654.763 -354.36 703 -324.054 752.561 -307.238C814.107 -286.338 862.191 -307.01 908.762 -335.641C918.857 -341.847 928.889 -348.432 938.971 -355.05C939.307 -355.27 939.643 -355.491 939.979 -355.712Z" fill="black"/>
<path d="M948.466 -342.943C948.23 -343.31 947.994 -343.677 947.757 -344.043C946.641 -343.224 945.527 -342.404 944.414 -341.584C942.381 -340.085 940.353 -338.586 938.329 -337.089C929.093 -330.26 919.927 -323.483 910.692 -317.064C865.673 -285.772 819.194 -263.111 756.015 -284.993C705.472 -302.503 656.117 -334.424 609.565 -364.533L609.561 -364.535C597.306 -372.461 585.245 -380.262 573.408 -387.641C562.085 -394.705 549.846 -402.928 536.919 -411.613L536.917 -411.614C532.801 -414.38 528.614 -417.193 524.365 -420.03C506.782 -431.771 488.142 -443.921 469.006 -454.857C430.752 -476.716 390.422 -493.777 352.484 -492.961C296.897 -491.772 256.618 -451.788 218.974 -406.861C212.648 -399.312 206.399 -391.624 200.162 -383.953L200.16 -383.951C187.808 -368.756 175.505 -353.623 162.762 -339.746C143.594 -318.871 123.496 -300.915 100.879 -289.985C83.0073 -281.352 64.6891 -277.927 46.0833 -278.187C45.8861 -277.754 45.6895 -277.322 45.4936 -276.889C64.4678 -276.548 83.181 -279.984 101.448 -288.809C124.284 -299.845 144.515 -317.942 163.725 -338.862C176.494 -352.768 188.841 -367.955 201.21 -383.169C207.441 -390.833 213.678 -398.505 219.976 -406.022C257.642 -450.976 297.577 -490.48 352.512 -491.655C390.078 -492.463 430.146 -475.558 468.357 -453.723C487.452 -442.811 506.061 -430.681 523.639 -418.944C527.88 -416.112 532.061 -413.303 536.174 -410.539L536.177 -410.538C549.108 -401.85 561.372 -393.61 572.716 -386.532C584.509 -379.181 596.539 -371.4 608.774 -363.486L608.779 -363.483C655.344 -333.365 704.878 -301.326 755.587 -283.758C819.368 -261.668 866.308 -284.622 911.439 -315.992C920.691 -322.423 929.874 -329.213 939.111 -336.042L939.138 -336.062C941.152 -337.551 943.169 -339.042 945.19 -340.532C946.281 -341.336 947.373 -342.14 948.466 -342.943Z" fill="black"/>
<path d="M956.337 -330.315C956.11 -330.69 955.883 -331.065 955.656 -331.44C949.514 -326.679 943.449 -321.841 937.418 -317.031C929.07 -310.373 920.788 -303.767 912.459 -297.487C890.547 -280.965 868.236 -266.633 843.276 -259.226C818.335 -251.825 790.713 -251.329 758.157 -262.546C707.02 -280.173 656.785 -313.352 609.743 -344.422L609.739 -344.424C597.063 -352.796 584.62 -361.015 572.452 -368.735C560.971 -376.016 548.581 -384.486 535.502 -393.426L535.486 -393.437C531.374 -396.248 527.194 -399.105 522.952 -401.987C505.224 -414.032 486.438 -426.491 467.135 -437.701C428.548 -460.11 387.802 -477.588 349.197 -476.753C291.973 -475.491 252.478 -433.997 215.79 -387.463C209.864 -379.948 204.013 -372.302 198.171 -364.668L198.168 -364.664C185.894 -348.626 173.661 -332.641 160.862 -318.023C141.978 -296.457 121.929 -277.948 98.8466 -266.762C78.3363 -256.82 57.4493 -253.799 36.3425 -255.386C36.1736 -254.962 36.0052 -254.539 35.8373 -254.114C57.272 -252.442 78.5286 -255.461 99.417 -265.587C122.731 -276.885 142.917 -295.545 161.846 -317.163C174.672 -331.812 186.951 -347.856 199.239 -363.913C205.076 -371.54 210.916 -379.17 216.817 -386.655C253.526 -433.215 292.676 -474.199 349.225 -475.447C387.453 -476.274 427.936 -458.955 466.478 -436.571C485.74 -425.385 504.494 -412.948 522.218 -400.906C526.445 -398.034 530.615 -395.184 534.719 -392.378L534.749 -392.358L534.75 -392.357C547.833 -383.414 560.249 -374.926 571.752 -367.632C583.871 -359.942 596.283 -351.744 608.937 -343.386L608.939 -343.385C655.997 -312.303 706.42 -278.998 757.73 -261.311C790.538 -250.007 818.44 -250.494 843.648 -257.974C868.836 -265.448 891.298 -279.895 913.246 -296.444C921.638 -302.771 929.943 -309.396 938.298 -316.06C944.269 -320.823 950.266 -325.607 956.337 -330.315Z" fill="black"/>
<path d="M964.446 -316.386C964.231 -316.769 964.015 -317.152 963.799 -317.534C955.097 -310.991 946.575 -304.218 938.12 -297.498C929.697 -290.804 921.342 -284.163 912.94 -277.855C891.01 -261.389 868.69 -247.123 843.771 -239.79C818.872 -232.463 791.343 -232.047 758.972 -243.347C707.763 -261.218 657.452 -293.878 610.117 -324.605C597.202 -332.989 584.508 -341.229 572.079 -348.985C560.279 -356.352 547.51 -364.973 534.018 -374.083L534.015 -374.085L533.992 -374.1C530.179 -376.675 526.308 -379.288 522.386 -381.923C504.58 -393.883 485.713 -406.28 466.344 -417.465C427.625 -439.822 386.807 -457.391 348.352 -456.89C290.937 -456.129 251.681 -414.396 215.284 -367.532C209.41 -359.969 203.612 -352.274 197.823 -344.59L197.818 -344.584C185.641 -328.423 173.503 -312.313 160.783 -297.596C142.024 -275.892 122.066 -257.3 98.9952 -246.161C75.8895 -234.999 52.4692 -232.524 28.8837 -235.492C28.736 -235.072 28.589 -234.651 28.4424 -234.231C52.3216 -231.183 76.0929 -233.646 99.5639 -244.985C122.871 -256.238 142.968 -274.985 161.773 -296.742C174.52 -311.491 186.703 -327.661 198.895 -343.842L198.907 -343.857C204.688 -351.529 210.47 -359.204 216.316 -366.731C252.735 -413.624 291.643 -454.832 348.369 -455.584C386.453 -456.08 427.012 -438.667 465.69 -416.333C485.019 -405.172 503.856 -392.796 521.656 -380.839C525.58 -378.203 529.453 -375.588 533.271 -373.01L533.274 -373.009C546.769 -363.897 559.565 -355.257 571.386 -347.877C583.768 -340.15 596.429 -331.931 609.323 -323.561L609.324 -323.56C656.675 -292.821 707.167 -260.042 758.541 -242.113C791.164 -230.726 818.974 -231.131 844.14 -238.537C869.287 -245.937 891.759 -260.317 913.726 -276.811C922.191 -283.167 930.569 -289.827 938.998 -296.526C947.386 -303.194 955.824 -309.9 964.446 -316.386Z" fill="black"/>
<path d="M972.768 -300.949C972.566 -301.339 972.364 -301.728 972.162 -302.118C963.786 -296.397 955.571 -290.454 947.432 -284.5C945.466 -283.062 943.505 -281.624 941.547 -280.188C932.243 -273.363 923.013 -266.592 913.715 -260.187C868.714 -229.185 822.319 -206.865 759.416 -228.948C708.112 -246.956 657.95 -277.421 610.046 -306.516L610.044 -306.517C596.835 -314.539 583.798 -322.457 570.955 -329.982C558.319 -337.385 544.504 -346.232 529.859 -355.611C526.829 -357.552 523.763 -359.515 520.664 -361.493C502.599 -373.027 483.44 -385.054 463.832 -395.946C424.637 -417.72 383.554 -435.017 345.734 -434.739C289.607 -434.312 250.663 -392.999 214.591 -346.515C208.572 -338.76 202.635 -330.861 196.709 -322.979C184.845 -307.196 173.029 -291.478 160.704 -277.094C142.233 -255.536 122.689 -237.065 100.283 -226.001C74.7264 -213.379 48.7128 -211.532 22.4762 -216.015C22.3474 -215.595 22.2192 -215.175 22.0914 -214.755C48.5923 -210.201 74.9467 -212.03 100.862 -224.829C123.503 -236.009 143.184 -254.638 161.697 -276.244C174.048 -290.658 185.909 -306.437 197.789 -322.24C203.709 -330.114 209.633 -337.994 215.624 -345.715C251.722 -392.232 290.313 -433.01 345.743 -433.432C383.205 -433.708 424.035 -416.559 463.197 -394.804C482.768 -383.932 501.898 -371.924 519.961 -360.392C523.052 -358.419 526.113 -356.458 529.139 -354.52L529.145 -354.517C543.791 -345.137 557.633 -336.273 570.294 -328.854C583.094 -321.355 596.103 -313.454 609.294 -305.442L609.296 -305.441C657.216 -276.336 707.536 -245.773 758.983 -227.715C822.486 -205.421 869.344 -228.032 914.457 -259.111C923.772 -265.529 933.022 -272.313 942.327 -279.139C944.284 -280.574 946.242 -282.01 948.204 -283.446C956.299 -289.367 964.457 -295.27 972.768 -300.949Z" fill="black"/>
<path d="M980.791 -284.745C980.604 -285.14 980.416 -285.535 980.228 -285.93C970.017 -279.85 960.016 -273.45 950.109 -267.051C948.59 -266.07 947.073 -265.089 945.558 -264.109C935.453 -257.572 925.427 -251.087 915.34 -244.983C868.957 -216.915 821.448 -197.016 759.999 -217.764C708.211 -235.268 657.571 -263.291 608.655 -290.36C595.321 -297.738 582.115 -305.046 569.049 -312.051C555.548 -319.287 540.679 -328.089 524.894 -337.433C522.537 -338.829 520.159 -340.236 517.763 -341.653C499.325 -352.548 479.779 -363.95 459.844 -374.283C419.996 -394.938 378.501 -411.371 341.112 -410.888C286.26 -410.201 248.324 -369.608 213.263 -323.941C207.333 -316.216 201.486 -308.348 195.652 -300.498L195.651 -300.496C184.207 -285.096 172.812 -269.762 160.93 -255.706C143.001 -234.495 124.033 -216.285 102.272 -205.286C74.4429 -191.225 45.8433 -190.244 16.8939 -196.44C16.7828 -196.019 16.6721 -195.597 16.562 -195.175C45.7445 -188.919 74.6778 -189.88 102.862 -204.12C124.855 -215.236 143.958 -233.604 161.929 -254.863C173.836 -268.949 185.276 -284.343 196.736 -299.765C202.564 -307.607 208.398 -315.457 214.3 -323.145C249.387 -368.845 286.973 -408.903 341.129 -409.582C378.173 -410.06 419.422 -393.763 459.242 -373.123C479.142 -362.809 498.661 -351.422 517.097 -340.528C519.479 -339.121 521.842 -337.722 524.186 -336.334L524.225 -336.311C540.006 -326.969 554.903 -318.15 568.431 -310.899C581.461 -303.914 594.643 -296.62 607.961 -289.25C656.89 -262.173 707.669 -234.073 759.581 -216.526C821.583 -195.591 869.525 -215.731 916.017 -243.865C926.122 -249.98 936.166 -256.477 946.269 -263.013C947.784 -263.992 949.3 -264.973 950.818 -265.954C960.69 -272.33 970.64 -278.697 980.791 -284.745Z" fill="black"/>
<path d="M988.518 -267.615C988.346 -268.016 988.173 -268.417 988 -268.817C975.191 -262.452 962.658 -255.647 950.229 -248.899C939.343 -242.988 928.536 -237.12 917.692 -231.628C869.661 -207.305 820.8 -190.285 760.65 -209.019C708.282 -225.333 656.928 -250.532 606.868 -275.095C593.319 -281.744 579.864 -288.346 566.51 -294.712C551.964 -301.64 535.872 -310.217 518.802 -319.314L518.8 -319.315L518.627 -319.407C517.058 -320.243 515.481 -321.084 513.896 -321.928C495.008 -331.986 475.02 -342.536 454.71 -352.078C414.111 -371.153 372.13 -386.249 334.972 -385.303C281.379 -383.91 244.999 -344.334 211.473 -299.888C205.825 -292.4 200.26 -284.776 194.705 -277.166C183.743 -262.149 172.823 -247.19 161.398 -233.455C144.192 -212.772 125.904 -194.951 104.742 -184.018C74.8948 -168.599 43.7667 -168.679 12.1057 -176.702C12.0114 -176.277 11.9176 -175.851 11.8244 -175.425C43.6849 -167.359 75.141 -167.255 105.342 -182.857C126.734 -193.909 145.155 -211.887 162.403 -232.62C173.853 -246.385 184.817 -261.403 195.794 -276.441L195.796 -276.443C201.344 -284.044 206.896 -291.65 212.517 -299.101C246.064 -343.576 282.103 -382.621 335.006 -383.997C371.837 -384.934 413.579 -369.959 454.154 -350.896C474.431 -341.369 494.393 -330.833 513.282 -320.775C514.927 -319.898 516.564 -319.026 518.192 -318.158C535.255 -309.065 551.373 -300.475 565.947 -293.533C579.268 -287.182 592.7 -280.591 606.234 -273.95L606.24 -273.947C656.311 -249.378 707.786 -224.119 760.261 -207.771C820.902 -188.884 870.151 -206.088 918.283 -230.463C929.199 -235.991 940.053 -241.884 950.968 -247.81C963.346 -254.53 975.803 -261.293 988.518 -267.615Z" fill="black"/>
<path d="M995.795 -249.733C995.639 -250.14 995.482 -250.546 995.324 -250.952C981.95 -245.681 968.801 -240.02 955.744 -234.399L955.742 -234.398C944.034 -229.357 932.399 -224.348 920.741 -219.68C870.833 -199.696 820.392 -185.896 761.479 -202.157C708.379 -216.793 656.112 -238.861 604.753 -260.547L604.746 -260.55C590.988 -266.359 577.296 -272.14 563.67 -277.743C548.002 -284.185 530.635 -292.303 512.253 -300.896L509.533 -302.167C490.15 -311.226 469.693 -320.739 448.98 -329.301C407.573 -346.419 365.052 -359.779 327.941 -358.092C275.444 -355.714 241.082 -317.344 209.534 -274.42C204.387 -267.418 199.316 -260.296 194.253 -253.184L194.251 -253.181C183.768 -238.458 173.318 -223.779 162.287 -210.296C145.937 -190.311 128.377 -173.037 107.695 -162.271C75.9686 -145.749 42.4013 -147.069 8.13263 -156.942C8.05475 -156.511 7.97742 -156.08 7.90063 -155.649C42.3316 -145.751 76.2194 -144.406 108.299 -161.112C129.211 -171.998 146.905 -189.429 163.299 -209.469C174.358 -222.986 184.854 -237.728 195.352 -252.474L195.357 -252.48C200.412 -259.58 205.468 -266.681 210.587 -273.647C242.15 -316.589 276.181 -354.44 328 -356.787C364.805 -358.46 407.097 -345.202 448.48 -328.094C469.162 -319.544 489.594 -310.043 508.98 -300.984L511.711 -299.707L511.713 -299.706C530.084 -291.119 547.475 -282.989 563.173 -276.535C576.775 -270.941 590.452 -265.166 604.201 -259.361C655.57 -237.671 707.94 -215.558 761.131 -200.898C820.461 -184.522 871.233 -198.449 921.227 -218.467C932.953 -223.163 944.632 -228.19 956.366 -233.242C969.392 -238.849 982.488 -244.487 995.795 -249.733Z" fill="black"/>
<path d="M1002.46 -231.382C1002.32 -231.795 1002.18 -232.207 1002.04 -232.619C988.531 -228.682 975.173 -224.448 961.88 -220.235C949.341 -216.26 936.86 -212.304 924.369 -208.634C872.414 -193.368 820.186 -183.005 762.414 -196.515C708.49 -209.114 655.194 -227.797 602.538 -246.256C588.576 -251.151 574.66 -256.029 560.788 -260.774C543.781 -266.588 524.934 -274.092 505.054 -282.008L505.01 -282.026C485.12 -289.945 464.203 -298.273 443.096 -305.713C400.9 -320.586 357.859 -331.944 320.648 -329.368C267.893 -325.726 236.641 -288 208.031 -246.525C204.211 -240.989 200.44 -235.386 196.67 -229.786C186.297 -214.379 175.94 -198.994 164.644 -185.064C149.252 -166.083 132.168 -149.875 111.047 -140.095C76.3179 -124.007 40.8239 -126.67 5.05957 -137.892C4.99744 -137.455 4.93591 -137.017 4.87488 -136.58C40.7631 -125.353 76.5422 -122.671 111.596 -138.91C132.974 -148.808 150.207 -165.186 165.66 -184.242C176.996 -198.221 187.402 -213.678 197.785 -229.102C201.548 -234.691 205.307 -240.276 209.107 -245.784C237.724 -287.268 268.66 -324.47 320.738 -328.065C357.664 -330.621 400.488 -319.346 442.662 -304.481C463.74 -297.051 484.633 -288.733 504.526 -280.812L504.59 -280.786C524.454 -272.877 543.327 -265.362 560.365 -259.538C574.215 -254.8 588.117 -249.927 602.069 -245.036C654.734 -226.573 708.116 -207.86 762.116 -195.243C820.223 -181.654 872.717 -192.095 924.737 -207.38C937.287 -211.068 949.804 -215.035 962.364 -219.016C975.652 -223.228 988.988 -227.455 1002.46 -231.382Z" fill="black"/>
<path d="M1008.54 -212.418C1008.41 -212.837 1008.28 -213.256 1008.16 -213.675C995.319 -211.088 982.522 -208.307 969.746 -205.53C958.444 -203.074 947.158 -200.621 935.873 -198.309C884.021 -187.689 832.136 -180.04 778.548 -188.623C713.472 -199.033 649.333 -217.361 585.544 -235.59C561.824 -242.368 538.152 -249.132 514.498 -255.471C500.625 -259.182 485.675 -263.828 470.102 -268.668L467.482 -269.482C450.97 -274.612 433.795 -279.91 416.515 -284.495C381.969 -293.66 346.935 -299.992 315.853 -296.396C261.883 -290.157 232.388 -253.144 204.896 -213.418C202.322 -209.698 199.766 -205.956 197.208 -202.212L197.2 -202.199C172.4 -165.89 147.534 -129.483 105.839 -113.233C72.496 -100.224 37.743 -104.619 2.50488 -116.792C2.46021 -116.347 2.41602 -115.901 2.37244 -115.455C37.6859 -103.299 72.679 -98.8928 106.314 -112.016C148.409 -128.422 173.507 -165.179 198.263 -201.436C200.83 -205.195 203.393 -208.949 205.971 -212.675C233.463 -252.401 262.665 -288.932 316.004 -295.098C346.832 -298.665 381.669 -292.388 416.18 -283.232C433.43 -278.656 450.58 -273.365 467.094 -268.234L469.72 -267.418C485.287 -262.58 500.26 -257.927 514.16 -254.209C537.767 -247.883 561.411 -241.126 585.115 -234.353C648.929 -216.117 713.182 -197.756 778.341 -187.333C832.173 -178.711 884.253 -186.403 936.136 -197.03C947.456 -199.348 958.764 -201.806 970.079 -204.265C982.88 -207.047 995.691 -209.831 1008.54 -212.418Z" fill="black"/>
<path d="M1013.67 -193.98C1013.56 -194.406 1013.45 -194.833 1013.34 -195.259C1000.87 -193.946 988.423 -192.527 975.979 -191.109C964.165 -189.763 952.356 -188.418 940.553 -187.165C887.134 -181.494 833.763 -177.708 780.001 -184.233C714.11 -192.24 648.762 -206.053 583.598 -219.827C559.547 -224.911 535.521 -229.989 511.501 -234.769C496.372 -237.775 480.137 -241.71 463.304 -245.797L462.835 -245.91C446.153 -249.961 428.892 -254.151 411.571 -257.718C376.614 -264.916 341.35 -269.587 310.005 -265.419C258.021 -258.511 230.147 -223.418 204.208 -185.881C201.828 -182.436 199.464 -178.972 197.1 -175.507C173.655 -141.142 150.148 -106.688 109.936 -90.8224C75.2323 -77.1296 38.3931 -82.7531 0.874756 -96.5194C0.847168 -96.0652 0.82019 -95.6108 0.793823 -95.1563C38.3511 -81.4283 75.4203 -75.7991 110.416 -89.6071C151.023 -105.629 174.758 -140.428 198.163 -174.743L198.166 -174.748C200.536 -178.223 202.903 -181.693 205.283 -185.138C231.216 -222.667 258.806 -257.297 310.178 -264.124C341.297 -268.262 376.384 -263.63 411.307 -256.438C428.606 -252.876 445.848 -248.69 462.537 -244.638L462.996 -244.527C479.823 -240.442 496.085 -236.499 511.246 -233.487C535.23 -228.715 559.234 -223.641 583.272 -218.56L583.276 -218.559C648.459 -204.781 713.891 -190.95 779.843 -182.936C833.759 -176.392 887.253 -180.193 940.691 -185.866C952.517 -187.121 964.339 -188.468 976.162 -189.815L976.164 -189.815C988.663 -191.239 1001.16 -192.664 1013.67 -193.98Z" fill="black"/>
<path d="M1018.03 -175.732C1017.94 -176.166 1017.84 -176.6 1017.74 -177.034C1006.09 -176.838 994.435 -176.606 982.782 -176.374H982.78C970.295 -176.125 957.811 -175.877 945.33 -175.672C890.641 -174.777 835.998 -174.732 781.491 -179.251C714.668 -184.776 648.111 -194.037 581.617 -203.288L581.614 -203.289C557.485 -206.646 533.365 -210.001 509.243 -213.177C493.624 -215.233 477.045 -218.102 459.96 -221.104C458.652 -221.334 457.341 -221.565 456.027 -221.796C440.187 -224.584 423.948 -227.441 407.688 -229.831C372.479 -235.007 337.115 -238 305.379 -233.334C255.42 -225.999 228.878 -192.995 204.174 -157.802C201.961 -154.65 199.763 -151.481 197.565 -148.311C175.181 -116.034 152.74 -83.675 113.926 -68.375C78.1014 -54.2479 39.4833 -60.9875 0.0374756 -76.1085C0.0274658 -75.6454 0.0181885 -75.1822 0.00939941 -74.7188C39.4587 -59.6569 78.2931 -52.9191 114.406 -67.1595C153.609 -82.613 176.276 -115.308 198.621 -147.538L198.635 -147.558C200.836 -150.733 203.034 -153.903 205.244 -157.052C229.936 -192.228 256.199 -224.793 305.57 -232.042C337.11 -236.679 372.319 -233.71 407.498 -228.539C423.739 -226.151 439.961 -223.297 455.806 -220.509L459.734 -219.818C476.816 -216.815 493.422 -213.942 509.072 -211.882C533.174 -208.709 557.282 -205.355 581.404 -201.998C647.91 -192.745 714.521 -183.478 781.383 -177.949C835.957 -173.424 890.654 -173.471 945.352 -174.366C957.836 -174.57 970.32 -174.819 982.803 -175.068L982.824 -175.068C994.561 -175.302 1006.3 -175.535 1018.03 -175.732Z" fill="black"/>
<path d="M1021.67 -157.603C1021.59 -158.045 1021.51 -158.486 1021.43 -158.928C1005.92 -159.9 990.423 -160.888 974.922 -161.877C910.99 -165.955 847.057 -170.033 783.055 -172.94C714.861 -176.041 646.751 -180.793 578.638 -185.546C555.112 -187.187 531.586 -188.829 508.056 -190.402C489.468 -191.651 469.871 -193.834 449.821 -196.068C435.179 -197.699 420.296 -199.357 405.389 -200.697C370.117 -203.869 334.803 -205.251 302.603 -200.217C254.615 -192.734 228.981 -161.96 205.072 -129.241C202.975 -126.372 200.892 -123.488 198.808 -120.603C177.099 -90.5525 155.345 -60.4388 117.846 -45.9297C80.9973 -31.6515 40.9454 -39.3389 0 -55.5294C0.00842285 -55.0569 0.0175781 -54.5846 0.0272217 -54.1124C40.9431 -38.0011 81.1919 -30.3256 118.318 -44.7113C156.197 -59.3676 178.176 -89.8013 199.848 -119.81C201.94 -122.706 204.028 -125.598 206.128 -128.471C230.019 -161.165 255.379 -191.53 302.805 -198.926C334.842 -203.934 370.027 -202.565 405.272 -199.396C420.109 -198.062 434.974 -196.406 449.615 -194.776L449.619 -194.775C469.707 -192.538 489.373 -190.348 507.969 -189.099C531.49 -187.526 555.011 -185.885 578.533 -184.243C646.651 -179.49 714.784 -174.736 782.996 -171.635C846.996 -168.728 910.894 -164.652 974.805 -160.575L974.812 -160.575L974.822 -160.574C990.437 -159.578 1006.05 -158.582 1021.67 -157.603Z" fill="black"/>
<path d="M1024.64 -139.416C1024.58 -139.864 1024.51 -140.312 1024.45 -140.76C1011.94 -142.399 999.449 -144.092 986.955 -145.785L986.942 -145.787C976.064 -147.261 965.187 -148.735 954.306 -150.174C898.09 -157.604 841.77 -164.079 784.694 -164.67C723.276 -165.285 661.857 -165.54 600.44 -165.794H600.435L600.386 -165.794C569.694 -165.922 539.002 -166.049 508.312 -166.221C487.566 -166.337 465.933 -167.407 443.968 -168.493L443.965 -168.493C431.093 -169.13 418.107 -169.772 405.118 -170.231C369.992 -171.473 334.895 -171.373 302.195 -166.176C256.052 -158.824 230.78 -130.423 207.104 -100.309C205.065 -97.7159 203.038 -95.11 201.01 -92.504C179.471 -64.8149 157.904 -37.0897 121.548 -23.5958C83.6797 -9.54596 42.6503 -17.9424 0.778931 -34.8354C0.806641 -34.3538 0.834961 -33.8723 0.864014 -33.3911C42.6774 -16.5961 83.878 -8.22589 122.003 -22.371C158.725 -36.0009 180.517 -64.0224 202.023 -91.6754L202.049 -91.7092C204.075 -94.3143 206.099 -96.916 208.132 -99.5021C231.784 -129.586 256.787 -157.618 302.4 -164.885C334.972 -170.063 369.967 -170.166 405.072 -168.925C418.019 -168.467 430.987 -167.826 443.852 -167.19L443.857 -167.19C465.846 -166.103 487.536 -165.031 508.304 -164.914C539.013 -164.742 569.72 -164.615 600.427 -164.488H600.44C661.855 -164.233 723.267 -163.979 784.681 -163.364C841.673 -162.773 897.926 -156.308 954.135 -148.878C965.01 -147.441 975.884 -145.967 986.762 -144.493C999.382 -142.783 1012.01 -141.072 1024.64 -139.416Z" fill="black"/>
<path d="M1026.99 -120.908C1026.94 -121.361 1026.89 -121.813 1026.84 -122.265C1014.41 -124.576 1002.01 -126.976 989.608 -129.376L989.606 -129.377C979.052 -131.419 968.501 -133.461 957.943 -135.446C901.437 -146.071 844.735 -155.072 786.373 -153.816C751.403 -153.055 715.67 -152.706 679.537 -152.352L679.532 -152.352C554.38 -151.129 424.423 -149.858 304.709 -131.287C260.286 -124.382 234.721 -98.4699 210.572 -71.0787C208.565 -68.8018 206.567 -66.515 204.57 -64.2283L204.551 -64.2062C182.503 -38.9632 160.448 -13.7125 124.888 -1.52325C85.9446 11.8382 44.4861 3.02185 2.38599 -14.1403C2.43396 -13.6497 2.48267 -13.1591 2.5321 -12.6688C44.5509 4.37842 86.1469 13.1501 125.312 -0.287415C161.219 -12.5956 183.497 -38.1085 205.514 -63.3215C207.526 -65.6252 209.535 -67.9265 211.553 -70.2149C235.675 -97.5757 260.975 -123.167 304.91 -129.996C424.521 -148.551 554.347 -149.821 679.484 -151.045C715.634 -151.398 751.393 -151.748 786.401 -152.509C844.619 -153.763 901.209 -144.785 957.701 -134.162C968.236 -132.181 978.768 -130.143 989.307 -128.103L989.334 -128.098C1001.87 -125.672 1014.42 -123.244 1026.99 -120.908Z" fill="black"/>
<path d="M1028.69 -101.984C1028.65 -102.439 1028.62 -102.893 1028.59 -103.348C1016.17 -106.213 1003.78 -109.211 991.384 -112.208C983.357 -114.149 975.331 -116.09 967.3 -117.995C912.93 -130.891 858.325 -142.115 801.623 -140.377C639.761 -135.429 468.708 -117.667 308.306 -96.0675C264.928 -90.2213 237.567 -65.1246 211.128 -39.3078C209.829 -38.0402 208.533 -36.7709 207.238 -35.5021C182.119 -10.9005 157.181 13.5248 119.337 22.3084C81.355 31.1363 43.1306 22.4789 4.87183 6.82495C4.94153 7.32477 5.01196 7.82434 5.08301 8.32361C43.2434 23.8508 81.5292 32.4372 119.633 23.5811C157.844 14.7123 183.026 -9.95532 208.094 -34.5113C209.41 -35.7997 210.725 -37.0878 212.041 -38.3733C238.48 -64.1888 265.568 -88.9892 308.48 -94.7727C468.859 -116.369 639.863 -134.125 801.663 -139.071C858.179 -140.803 912.637 -129.617 966.998 -116.724C975.018 -114.822 983.037 -112.882 991.06 -110.942C1003.58 -107.912 1016.12 -104.88 1028.69 -101.984Z" fill="black"/>
<path d="M1029.74 -81.6226C1029.72 -82.0754 1029.71 -82.5281 1029.69 -82.9807C1016.16 -86.3525 1002.67 -89.9319 989.185 -93.5103C982.322 -95.3316 975.46 -97.1527 968.593 -98.9459C914.496 -113.073 860.138 -125.466 802.902 -122.544C722.284 -118.444 641.378 -107.198 560.592 -94.709C543.128 -92.0093 525.671 -89.2516 508.223 -86.4954L508.219 -86.4948C444.947 -76.4999 381.803 -66.5254 318.958 -59.408C276.294 -54.5671 246.706 -32.4684 217.876 -9.83246C216.628 -8.85303 215.382 -7.87262 214.137 -6.89264C186.568 14.7989 159.221 36.3164 121.176 43.3834C82.6156 50.5399 45.1531 42.0367 8.11017 27.0851C8.20166 27.5923 8.29395 28.0992 8.3869 28.606C45.3155 43.4196 82.797 51.8351 121.414 44.668C159.784 37.5406 187.364 15.8382 214.884 -5.81738C216.15 -6.81378 217.416 -7.81018 218.683 -8.80499C247.515 -31.4418 276.845 -53.3147 319.105 -58.1098C381.982 -65.2308 445.164 -75.2113 508.44 -85.2069C525.885 -87.9626 543.337 -90.7195 560.792 -93.4179C641.57 -105.905 722.421 -117.143 802.969 -121.239C859.986 -124.15 914.173 -111.807 968.263 -97.6818C975.121 -95.8908 981.978 -94.071 988.838 -92.2502L988.84 -92.2498C1002.44 -88.6396 1016.06 -85.0252 1029.74 -81.6226Z" fill="black"/>
<path d="M1029.99 -61.1739C1030 -61.6205 1030 -62.0673 1030 -62.5142C1017.61 -65.4156 1005.25 -68.4561 992.879 -71.4964C984.078 -73.6601 975.278 -75.8237 966.47 -77.937C911.766 -91.0635 856.824 -102.243 800.058 -99.3585C690.995 -93.8416 580.254 -77.7132 470.542 -61.7347C422.371 -54.7191 374.399 -47.7324 326.854 -41.6854C284.264 -36.2718 252.512 -14.233 221.388 8.15411C220.325 8.91876 219.263 9.68378 218.201 10.4486C188.139 32.0984 158.348 53.5525 119.481 60.4766C83.0875 66.9604 47.3998 59.7936 12.0233 46.5965C12.1353 47.1036 12.2479 47.6105 12.3615 48.1171C47.6147 61.1754 83.2914 68.2512 119.711 61.7628C158.877 54.7854 188.886 33.1719 218.893 11.5607C219.979 10.7784 221.065 9.99615 222.152 9.2146C253.289 -13.182 284.796 -35.0223 327.019 -40.3893C374.615 -46.4427 422.616 -53.4337 470.802 -60.4516L470.804 -60.452C580.486 -76.4263 691.125 -92.5399 800.124 -98.0537C856.688 -100.928 911.473 -89.7902 966.165 -76.6666C974.955 -74.5574 983.744 -72.3966 992.537 -70.2347L992.542 -70.2333C1005.01 -67.1681 1017.49 -64.1002 1029.99 -61.1739Z" fill="black"/>
<path d="M1029.33 -38.2468C1029.35 -38.6862 1029.37 -39.1255 1029.39 -39.5651C1016.88 -41.9847 1004.37 -44.5097 991.869 -47.0346C979.5 -49.5322 967.131 -52.03 954.751 -54.4256C897.171 -65.568 839.386 -74.4983 780.436 -70.8933C634.358 -61.9574 483.85 -45.3784 338.89 -25.514C296.533 -19.715 262.913 0.286255 229.938 20.9463C228.04 22.135 226.145 23.3259 224.251 24.5163C193.19 44.0341 162.298 63.446 124.666 71.6308C87.9062 79.6131 51.684 74.0029 15.7268 62.1989C15.8539 62.6993 15.9818 63.1996 16.1104 63.6996C51.9496 75.3722 88.16 80.895 124.943 72.9075C162.807 64.6723 193.882 45.1442 224.903 25.6496C226.813 24.4498 228.722 23.2501 230.632 22.0533C263.611 1.39093 297.018 -18.4627 339.067 -24.2196C484.006 -44.0809 634.479 -60.6559 780.516 -69.5892C839.292 -73.1836 896.942 -64.2816 954.502 -53.1429C966.857 -50.7523 979.208 -48.2581 991.566 -45.7628L991.571 -45.7616C1004.15 -43.2222 1016.73 -40.6812 1029.33 -38.2468Z" fill="black"/>
<path d="M1027.54 -14.158C1027.58 -14.5918 1027.62 -15.0258 1027.66 -15.46C1014.72 -17.313 1001.77 -19.2444 988.823 -21.1762L988.815 -21.1773C974.915 -23.251 961.011 -25.3253 947.1 -27.3038C888.682 -35.6118 830.141 -42.2277 771.217 -39.9918C632.62 -34.7491 488.348 -28.0289 350.718 -10.9313C307.012 -5.50568 270.085 13.5579 233.672 33.2384C231.672 34.3196 229.673 35.4025 227.675 36.4852C193.27 55.127 159.022 73.6832 119.509 81.3381C85.4245 87.9302 52.1102 84.0494 19.1548 74.9965C19.2929 75.4863 19.4316 75.9758 19.5711 76.4651C52.4124 85.4051 85.6887 89.2098 119.757 82.6208C159.474 74.9265 193.887 56.2798 228.253 37.6584L228.263 37.6526C230.273 36.5635 232.283 35.4744 234.294 34.3876C270.716 14.7024 307.446 -4.24292 350.88 -9.63477C488.448 -26.7248 632.671 -33.4436 771.266 -38.6862C830.068 -40.9175 888.513 -34.3161 946.916 -26.0103C960.809 -24.0343 974.702 -21.9616 988.597 -19.8887L988.6 -19.8881C1001.58 -17.9521 1014.56 -16.0159 1027.54 -14.158Z" fill="black"/>
<path d="M1024.35 11.7057C1024.41 11.2734 1024.47 10.8409 1024.54 10.4083C1010.95 9.56879 997.36 8.71918 983.762 7.86914L983.754 7.86865C777.41 -5.02942 569.629 -18.0174 363.588 2.87439C317.921 7.50159 277.345 25.2042 237.179 43.5743C234.804 44.6603 232.431 45.7485 230.059 46.8365C192.269 64.1668 154.6 81.4418 113.023 88.4603C82.0038 93.6978 51.8304 91.3438 22.0646 84.9343C22.2095 85.4112 22.3551 85.8879 22.5014 86.3642C52.1565 92.6835 82.2698 94.9778 113.24 89.7485C154.995 82.7003 192.811 65.3568 230.566 48.0417L230.659 47.999C233.013 46.9191 235.368 45.8394 237.723 44.7624C277.899 26.388 318.294 8.77698 363.72 4.17419C569.644 -16.7056 777.295 -3.7265 983.636 9.17078L983.651 9.17175C997.222 10.02 1010.79 10.8679 1024.35 11.7057Z" fill="black"/>
<path d="M1020.19 35.6705C1020.27 35.2362 1020.36 34.8018 1020.44 34.3671C998.766 34.0721 977.089 33.8354 955.413 33.5989H955.409C885.741 32.8384 816.085 32.078 746.443 29.3803C707.864 27.8868 668.656 25.1697 629.223 22.437C544.943 16.5963 459.633 10.6842 377.238 16.4964C329.281 19.8818 284.692 35.0965 240.455 51.5079C235.431 53.3718 230.412 55.2511 225.393 57.1302C186.194 71.8062 147.005 86.4786 105.629 93.8149C78.3679 98.6403 51.5139 97.8735 24.8724 93.879C25.0225 94.3421 25.1732 94.8049 25.3245 95.2673C51.863 99.1935 78.6508 99.9172 105.858 95.1013C147.36 87.7427 186.666 73.0256 225.852 58.3539C230.872 56.4742 235.89 54.5953 240.91 52.7328C285.143 36.3225 329.578 21.1707 377.33 17.7997C459.634 11.994 544.783 17.8956 629.014 23.7336L629.018 23.7339C668.473 26.4684 707.727 29.1891 746.393 30.6859C816.037 33.3837 885.741 34.1448 955.436 34.9058L955.447 34.906C977.029 35.1417 998.61 35.3773 1020.19 35.6705Z" fill="black"/>
<path d="M1014.6 60.5791C1014.71 60.1367 1014.83 59.694 1014.93 59.2512C995.943 60.3543 976.938 61.6469 957.933 62.9394L957.923 62.94C943.564 63.9166 929.204 64.8932 914.848 65.7881C853.785 69.5951 792.784 71.9274 732.144 66.5233C691.059 62.8542 649.401 56.5239 607.54 50.1628C592.348 47.8542 577.13 45.5417 561.903 43.3509C504.736 35.1259 447.47 28.6208 391.151 30.5242C340.712 32.2256 291.993 45.2072 243.566 59.6995C235.942 61.9812 228.325 64.3001 220.71 66.6186C179.934 79.033 139.204 91.4334 97.5889 98.0212C73.771 101.791 50.2378 101.958 26.8618 99.8912C27.0141 100.342 27.167 100.793 27.3205 101.243C50.5947 103.264 74.0482 103.07 97.7934 99.3117C139.507 92.7083 180.337 80.277 221.111 67.8624C228.721 65.5453 236.33 63.2289 243.941 60.9512C292.36 46.4614 340.939 33.5253 391.196 31.83C447.394 29.9307 504.566 36.4213 561.717 44.6442C576.92 46.8316 592.124 49.142 607.308 51.4492L607.31 51.4496C649.183 57.8124 690.9 64.1517 732.028 67.8246C792.771 73.2379 853.854 70.8999 914.93 67.0922C929.305 66.1959 943.679 65.2184 958.048 64.2412C976.911 62.9584 995.765 61.6761 1014.6 60.5791Z" fill="black"/>
<path d="M1007.75 85.2938C1007.89 84.837 1008.03 84.3798 1008.16 83.9224C988.613 86.4604 968.988 89.3682 949.338 92.2796C933.788 94.5836 918.222 96.8898 902.666 99.017C840.305 107.544 778.055 113.199 717.331 104.371C676.466 98.4176 635.498 88.0901 594.381 77.7253L594.378 77.7247C583.521 74.9879 572.654 72.2484 561.776 69.5861C509.722 56.8472 457.436 45.884 404.956 45.5142C352.013 45.1444 299.162 55.7569 246.531 68.1912C235.679 70.7549 224.838 73.3958 214.007 76.0341C172.283 86.1978 130.712 96.3242 89.2932 101.859C68.8899 104.593 48.6404 105.28 28.481 104.609C28.6348 105.05 28.7891 105.49 28.9441 105.931C48.9976 106.576 69.1531 105.876 89.4666 103.154C130.961 97.6091 172.619 87.4614 214.35 77.2957L214.353 77.2949C225.175 74.6587 236.001 72.0213 246.831 69.4626C299.449 57.0315 352.171 46.452 404.947 46.8207C457.264 47.1893 509.424 58.1195 561.465 70.8552C572.319 73.5114 583.168 76.2464 594.013 78.9802L594.025 78.9832C635.15 89.3505 676.204 99.6997 717.142 105.664C778.058 114.52 840.46 108.841 902.843 100.311C918.434 98.1796 934.021 95.8702 949.584 93.5644C969.023 90.6842 988.425 87.8096 1007.75 85.2938Z" fill="black"/>
<path d="M999.631 109.713C999.803 109.236 999.974 108.759 1000.15 108.281C980.415 112.161 960.485 116.577 940.473 121.011L940.47 121.011C922.074 125.087 903.608 129.179 885.163 132.884C819.305 146.112 753.663 154.429 692.085 139.714C657.588 131.473 622.796 117.974 587.711 104.361C577.504 100.401 567.272 96.4306 557.016 92.5778C511.541 75.4951 465.612 60.7285 419.413 59.47C366.204 58.0097 311.053 66.1154 256.025 76.1682C240.963 78.9196 225.913 81.8164 210.914 84.7034L210.903 84.7056C171.081 92.3707 131.616 99.9669 93.2541 104.59C72.0194 107.149 50.8956 108.269 29.833 108.437C29.9885 108.872 30.1445 109.306 30.301 109.74C51.2533 109.559 72.2748 108.434 93.4106 105.888C131.821 101.258 171.352 93.6494 211.189 85.9815L211.193 85.9807L211.196 85.9799C226.189 83.0942 241.224 80.2002 256.26 77.4534C311.273 67.4034 366.312 59.3197 419.377 60.776C465.342 62.0281 511.096 76.7236 556.556 93.8008C566.78 97.6413 576.99 101.603 587.183 105.558C622.283 119.177 657.189 132.721 691.781 140.985C753.653 155.77 819.534 147.399 885.42 134.165C903.926 130.447 922.429 126.348 940.846 122.267L940.848 122.267C960.574 117.896 980.203 113.547 999.631 109.713Z" fill="black"/>
<path d="M990.315 133.642C990.525 133.141 990.734 132.639 990.942 132.137C970.663 137.245 950.133 143.047 929.5 148.879L929.498 148.879C911.092 154.081 892.602 159.307 874.134 164.084C807.245 181.387 740.575 192.836 678.693 176.306C643.158 166.814 609.452 148.776 575.605 130.662C569.516 127.404 563.422 124.143 557.312 120.928C517.281 99.8689 476.586 80.8387 432.182 77.9677C376.688 74.3637 317.847 79.9552 259.022 87.6633C240.08 90.1453 221.143 92.8463 202.319 95.5311L202.317 95.5314C162.658 101.188 123.5 106.773 85.8501 110.089C67.7981 111.677 49.7487 112.791 31.6989 113.567C31.8575 113.996 32.0167 114.425 32.1765 114.854C50.1084 114.077 68.0378 112.967 85.9648 111.391C123.65 108.071 162.869 102.478 202.549 96.8184C221.364 94.1348 240.283 91.4365 259.191 88.9588C317.999 81.2529 376.736 75.6761 432.097 79.2715C476.199 82.123 516.678 101.028 556.703 122.085C562.795 125.289 568.877 128.544 574.959 131.8C608.801 149.912 642.661 168.034 678.355 177.568C740.589 194.192 807.547 182.658 874.461 165.349C893 160.553 911.532 155.316 929.963 150.107C950.245 144.375 970.404 138.678 990.315 133.642Z" fill="black"/>
<path d="M979.151 158.444C979.41 157.908 979.667 157.372 979.924 156.835C975.387 158.245 970.83 159.696 966.254 161.179C951.478 165.966 936.533 171.077 921.49 176.222L921.486 176.224C902.421 182.744 883.197 189.319 863.953 195.359C795.133 216.961 726.626 231.532 666.502 211.722C632.938 200.661 602.966 180.093 572.896 159.458C567.835 155.985 562.771 152.511 557.688 149.079C522.439 125.286 486.239 103.591 443.396 99.3456C385.784 93.6539 323.715 96.5657 261.551 101.703C238.373 103.618 215.189 105.842 192.216 108.046L192.214 108.046L192.21 108.047C153.542 111.756 115.471 115.408 79.0375 117.434C64.0761 118.269 49.1241 119.177 34.1784 120.134C34.3427 120.56 34.5074 120.986 34.6729 121.412C49.4841 120.465 64.2963 119.565 79.1101 118.739C115.565 116.711 153.69 113.054 192.383 109.343L192.39 109.342C215.356 107.139 238.522 104.917 261.658 103.005C323.804 97.8693 385.777 94.9661 443.267 100.646C485.754 104.855 521.715 126.374 556.956 150.162C562.022 153.582 567.075 157.049 572.129 160.518C602.19 181.149 632.337 201.838 666.092 212.963C726.649 232.915 795.519 218.209 864.344 196.606C883.579 190.568 902.855 183.976 921.952 177.445L921.958 177.443C937.005 172.298 951.94 167.19 966.657 162.421C970.839 161.067 975.004 159.739 979.151 158.444Z" fill="black"/>
<path d="M965.937 183.978C966.258 183.399 966.577 182.82 966.895 182.24C964.594 183.074 962.286 183.919 959.972 184.774C944.909 190.337 929.598 196.297 914.143 202.313C894.724 209.873 875.077 217.521 855.408 224.581C784.798 249.925 714.56 267.424 656.038 245.255C623.917 233.086 597.37 210.962 570.781 188.803L570.777 188.8C566.497 185.234 562.217 181.666 557.912 178.139C526.898 152.732 494.644 129.462 452.536 124.232C366.732 113.565 270.836 118.354 178.785 122.952C142.689 124.755 107.184 126.528 73.1113 127.328C61.2384 127.606 49.4274 128.162 37.6644 128.935C37.8375 129.36 38.0111 129.785 38.1852 130.21C49.7874 129.453 61.435 128.908 73.142 128.634C107.293 127.832 142.846 126.057 178.969 124.252L178.971 124.252C270.979 119.657 366.692 114.877 452.375 125.528C494.082 130.709 526.084 153.755 557.083 179.15C561.373 182.664 565.644 186.224 569.92 189.788C596.497 211.94 623.232 234.223 655.575 246.477C714.594 268.834 785.26 251.148 855.85 225.811C875.504 218.756 895.203 211.088 914.654 203.517L914.658 203.515L914.664 203.513C930.123 197.495 945.426 191.538 960.425 185.999C962.267 185.319 964.104 184.645 965.937 183.978Z" fill="black"/>
<path d="M955.295 202.302C955.64 201.734 955.985 201.165 956.329 200.595C922.245 211.562 889.046 224.676 854.84 238.189C846.855 241.343 838.816 244.519 830.697 247.694C826.151 249.474 821.539 251.31 816.87 253.169C792.597 262.832 766.773 273.113 740.597 279.326C709.398 286.73 677.782 288.331 647.814 276.236C616.468 263.58 592.669 241.033 568.9 218.516C565.215 215.024 561.53 211.533 557.818 208.08C530.201 182.39 501.112 158.837 459.119 153.14C363.263 140.102 257.389 140.33 156.169 140.547H156.165C126.345 140.611 96.9299 140.674 68.2938 140.397C59.6788 140.314 51.1481 140.477 42.6874 140.846C42.8743 141.274 43.0618 141.702 43.2499 142.13C51.5228 141.776 59.862 141.622 68.2812 141.704C96.9556 141.981 126.397 141.918 156.234 141.854C257.438 141.637 363.186 141.41 458.943 154.435C500.506 160.073 529.338 183.371 556.927 209.036C560.624 212.475 564.299 215.958 567.98 219.446C591.735 241.955 615.73 264.691 647.324 277.447C677.64 289.682 709.56 288.034 740.899 280.597C767.177 274.36 793.106 264.037 817.377 254.374L817.38 254.373C822.042 252.516 826.643 250.685 831.173 248.911C839.295 245.734 847.336 242.558 855.319 239.405C889.054 226.079 921.768 213.156 955.295 202.302Z" fill="black"/>
<path d="M938.758 227.751C939.182 227.137 939.606 226.523 940.028 225.908C910.842 236.332 882.221 248.366 852.749 260.758L852.741 260.762C844.119 264.387 835.424 268.043 826.621 271.698C822.76 273.299 818.823 274.953 814.817 276.635C790.497 286.849 763.679 298.111 736.37 305.131C704.568 313.307 672.19 315.704 642.414 304.034C611.119 291.773 589.05 270.118 567.091 248.57L567.089 248.568C563.832 245.372 560.577 242.179 557.295 239.018C531.909 214.574 504.935 192.193 462.698 186.701C333.675 169.972 195.385 163.141 65.0287 157.345C59.9995 157.123 55.0164 157.01 50.0753 156.996C50.2842 157.432 50.4937 157.869 50.7039 158.305C55.4202 158.326 60.1747 158.438 64.9711 158.65C195.332 164.446 333.569 171.276 462.53 187.996C504.33 193.432 531.047 215.558 556.388 239.959C559.655 243.105 562.901 246.29 566.153 249.482L566.158 249.487C588.104 271.027 610.375 292.885 641.937 305.251C672.077 317.063 704.768 314.604 736.695 306.397C764.106 299.35 791.021 288.046 815.337 277.834C819.339 276.153 823.271 274.502 827.123 272.904C835.933 269.246 844.632 265.589 853.255 261.963L853.259 261.962C882.161 249.81 910.211 238.016 938.758 227.751Z" fill="black"/>
<path d="M918.154 255.474C918.69 254.802 919.224 254.128 919.756 253.453C897.741 261.945 875.866 271.218 853.491 280.704C844.542 284.498 835.512 288.326 826.361 292.151C822.967 293.57 819.508 295.029 815.99 296.513C791.389 306.893 763.941 318.473 735.942 325.793C703.943 334.158 671.311 336.932 641.477 326.032C610.025 314.546 588.104 294.143 566.32 273.867C563.212 270.974 560.107 268.084 556.978 265.223C531.931 242.324 505.365 221.337 463.396 216.161C332.475 200.026 196.969 186.032 65.1173 177.281C63.4684 177.172 61.8252 177.075 60.1874 176.99C60.4271 177.439 60.6674 177.888 60.9084 178.337C62.2786 178.411 63.6525 178.493 65.0305 178.585C196.851 187.334 332.331 201.325 463.236 217.458C504.787 222.583 531.099 243.334 556.096 266.187C559.21 269.035 562.306 271.917 565.408 274.805L565.416 274.812C587.188 295.081 609.31 315.676 641.028 327.26C671.22 338.29 704.155 335.453 736.273 327.057C764.371 319.711 791.912 308.091 816.507 297.714C820.022 296.231 823.477 294.773 826.866 293.356C836.024 289.528 845.058 285.698 854.009 281.904C875.684 272.716 896.87 263.735 918.154 255.474Z" fill="black"/>
<path d="M891.969 285.859C892.656 285.121 893.342 284.38 894.026 283.638C880.978 288.796 867.888 294.128 854.639 299.525C846.335 302.907 837.968 306.315 829.509 309.722C825.673 311.266 821.764 312.858 817.792 314.475C793.343 324.43 766.481 335.368 739.129 342.3C707.337 350.356 674.968 352.976 645.054 342.386C613.685 331.3 590.957 311.664 568.328 292.113L568.325 292.11C565.209 289.418 562.095 286.727 558.96 284.061C533.081 262.047 505.856 241.738 464.844 236.21C335.953 218.857 203.108 204.088 73.2909 193.454C71.9177 193.341 70.5482 193.238 69.1824 193.144C69.4469 193.599 69.7121 194.055 69.9781 194.509C71.0446 194.586 72.1132 194.668 73.1841 194.756C202.976 205.388 335.798 220.154 464.669 237.505C505.293 242.98 532.277 263.079 558.113 285.056C561.238 287.715 564.348 290.402 567.464 293.094C590.079 312.637 613.001 332.444 644.618 343.618C674.878 354.331 707.54 351.653 739.45 343.566C766.898 336.61 793.853 325.634 818.297 315.681C822.266 314.064 826.169 312.475 829.998 310.934C838.461 307.525 846.83 304.117 855.132 300.735C867.524 295.687 879.77 290.699 891.969 285.859Z" fill="black"/>
<path d="M838.113 335.998C839.17 335.145 840.225 334.288 841.275 333.427C774.583 358.38 708.497 375.139 651.32 356.263C619.792 345.863 595.837 327.421 571.933 309.018C568.866 306.657 565.799 304.296 562.718 301.953C535.644 281.367 507.449 262.191 467.474 256.333C341.804 237.946 214.133 220.26 87.7882 206.525C84.039 206.118 80.313 205.788 76.6089 205.53C76.8919 205.987 77.1755 206.444 77.4599 206.901C80.8371 207.146 84.2325 207.453 87.6471 207.824C213.967 221.556 341.62 239.24 467.285 257.625C506.914 263.433 534.885 282.432 561.927 302.993C565.001 305.331 568.064 307.689 571.132 310.051C595.02 328.444 619.157 347.029 650.91 357.504C707.505 376.188 772.618 360.214 838.113 335.998Z" fill="black"/>
<path d="M800.443 363.658C801.576 362.902 802.706 362.142 803.833 361.378C753.59 375.274 704.565 381.285 659.872 367.962C627.925 358.449 602.297 341.539 576.663 324.625C573.785 322.726 570.905 320.826 568.018 318.938C539.435 300.24 509.998 282.589 471.139 276.382C426.274 269.227 381.408 261.717 336.526 254.205L336.523 254.204C260.07 241.408 183.57 228.603 106.946 217.53C98.8096 216.352 90.74 215.584 82.7287 215.179C83.0224 215.631 83.317 216.082 83.6121 216.533C91.2725 216.949 98.9854 217.698 106.758 218.823C183.371 229.895 259.843 242.695 336.284 255.489L336.301 255.492C381.182 263.004 426.052 270.514 470.933 277.672C509.5 283.832 538.74 301.347 567.302 320.031C570.178 321.912 573.047 323.805 575.918 325.7L575.948 325.72C601.565 342.624 627.355 359.642 659.498 369.214C703.399 382.301 751.378 376.856 800.443 363.658Z" fill="black"/>
<path d="M770.218 382.341C771.266 381.742 772.312 381.139 773.356 380.533C737.844 386.185 703.128 386.676 670.081 378.108C636.948 369.509 608.406 354.277 579.729 338.973L579.727 338.972C577.886 337.989 576.044 337.006 574.201 336.025C543.662 319.766 512.64 303.912 475.56 296.507C443.588 290.114 411.615 283.653 379.635 277.19L379.626 277.188C296.187 260.327 212.701 243.455 129.062 227.761C115.535 225.223 102.004 223.993 88.4747 223.828C88.7735 224.268 89.0729 224.708 89.3732 225.147C102.527 225.355 115.678 226.579 128.821 229.045C212.451 244.738 295.925 261.607 379.361 278.468L379.372 278.47L379.434 278.483C411.394 284.941 443.348 291.399 475.304 297.789C512.176 305.152 543.046 320.919 573.586 337.178C575.439 338.164 577.29 339.152 579.141 340.14C607.793 355.432 636.463 370.733 669.753 379.373C701.97 387.726 735.735 387.518 770.218 382.341Z" fill="black"/>
<path d="M749.338 393.64C750.272 393.163 751.205 392.682 752.136 392.198C728.213 393.452 704.61 392.11 681.507 387.073C647.024 379.56 615.512 366.056 583.824 352.476L581.682 351.557C549.288 337.678 516.639 323.862 480.475 316.518C410.742 302.363 341.56 285.01 272.406 267.664L272.396 267.661C232.434 257.637 192.481 247.616 152.437 238.215C133.686 233.808 114.436 232.323 94.8633 233.021C95.1661 233.447 95.4696 233.873 95.7736 234.297C114.946 233.676 133.788 235.174 152.137 239.487C192.142 248.878 232.079 258.896 272.037 268.919L272.04 268.919C341.218 286.271 410.458 303.639 480.215 317.798C516.229 325.112 548.76 338.874 581.167 352.758L583.352 353.695C615.009 367.262 646.621 380.81 681.229 388.35C703.535 393.212 726.294 394.649 749.338 393.64Z" fill="black"/>
<path d="M734.834 400.775C735.698 400.367 736.56 399.957 737.421 399.544C725.892 399.25 714.389 398.374 702.918 396.811C666.035 391.782 630.605 379.731 595.083 367.177C592.723 366.343 590.363 365.507 588.001 364.67C554.842 352.921 521.516 341.114 486.856 334.606C432.303 324.369 378.998 307.933 325.69 291.341L321.837 290.142C269.825 273.949 217.78 257.746 164.604 247.182C144.905 243.269 124.3 242.6 103.117 244.301C103.427 244.714 103.739 245.126 104.05 245.538C124.836 243.928 145.038 244.628 164.35 248.463C217.457 259.014 269.444 275.199 321.477 291.398L325.301 292.588C378.6 309.178 431.975 325.637 486.615 335.89C521.171 342.378 554.406 354.153 587.586 365.909C589.94 366.743 592.294 367.577 594.648 368.409C630.161 380.96 665.709 393.056 702.741 398.106C713.414 399.56 724.114 400.422 734.834 400.775Z" fill="black"/>
<path d="M721.941 406.651C722.774 406.285 723.606 405.918 724.436 405.548C721.406 405.305 718.376 405.026 715.347 404.709C678.277 400.82 641.029 391.731 603.82 381.847C596.965 380.025 590.11 378.177 583.258 376.329L583.191 376.311L583.186 376.31C552.889 368.14 522.646 359.985 492.621 354.248C440.423 344.272 389.692 327.073 339.018 309.383C335.438 308.133 331.857 306.881 328.277 305.628C281.199 289.16 234.083 272.678 185.864 261.621C162.256 256.199 138.948 256.749 115.896 260.59C116.214 260.979 116.533 261.368 116.852 261.756C139.54 258.047 162.422 257.578 185.571 262.895C233.715 273.935 280.763 290.392 327.855 306.865L327.914 306.885C331.471 308.13 335.029 309.374 338.587 310.617C389.256 328.305 440.071 345.534 492.375 355.531C522.347 361.258 552.531 369.397 582.825 377.566L582.829 377.567L582.874 377.579C589.739 379.43 596.609 381.283 603.485 383.109C640.699 392.995 678.032 402.108 715.21 406.009C717.454 406.243 719.698 406.457 721.941 406.651Z" fill="black"/>
<path d="M708.061 412.504C708.921 412.156 709.78 411.806 710.638 411.454C659.43 406.313 606.285 395.588 554.659 385.169C535.573 381.318 516.693 377.508 498.196 374.037C450.372 365.063 403.846 346.6 357.275 328.118L354.792 327.133C353.504 326.622 352.217 326.112 350.929 325.601C302.261 306.309 253.48 287.469 203.175 279.999C180.215 276.589 156.267 276.58 131.706 279.032C132.068 279.434 132.43 279.836 132.793 280.237C156.925 277.89 180.439 277.943 202.983 281.291C253.116 288.736 301.762 307.517 350.447 326.816C352.576 327.66 354.705 328.504 356.835 329.349C403.372 347.817 450.004 366.323 497.955 375.321C516.41 378.784 535.261 382.588 554.33 386.436L554.337 386.438C605.158 396.694 657.526 407.263 708.061 412.504Z" fill="black"/>
<path d="M688.548 419.937C689.531 419.586 690.512 419.231 691.492 418.874C628.637 413.645 563.228 404.521 503.101 394.009C455.398 385.683 409.135 367.562 362.829 349.425L359.063 347.95C311.522 329.337 263.896 310.987 214.701 303.59C194.837 300.604 174.166 300.026 152.946 301.295C153.364 301.708 153.782 302.12 154.201 302.531C174.927 301.357 195.108 301.966 214.507 304.882C263.533 312.253 311.026 330.546 358.586 349.166L362.403 350.661L362.405 350.662C408.672 368.784 455.042 386.947 502.876 395.296C562.126 405.654 626.514 414.668 688.548 419.937Z" fill="black"/>
<path d="M661.03 428.911C662.348 428.522 663.663 428.128 664.976 427.729C612.468 426.116 559.89 422.108 507.149 414.239C459.081 407.06 412.261 390.661 365.397 374.246L365.394 374.245L363.043 373.422C315.415 356.742 267.721 340.206 218.718 333.568C207.886 332.104 196.849 331.255 185.641 330.945C186.185 331.398 186.731 331.85 187.278 332.301C197.866 332.646 208.298 333.478 218.543 334.863C267.392 341.48 314.964 357.968 362.611 374.655L365.014 375.496C411.841 391.898 458.763 408.333 506.955 415.531C558.448 423.214 609.779 427.219 661.03 428.911Z" fill="black"/>
<path d="M586.359 445C588.511 444.702 590.659 444.39 592.803 444.065C564.573 442.482 536.423 440.174 508.383 436.941C459.563 431.312 411.319 417.49 362.998 403.645L362.544 403.515C360.533 402.939 358.522 402.363 356.51 401.787C320.011 391.342 283.452 381.094 246.597 374.592C247.63 375.223 248.667 375.852 249.705 376.477C285.346 382.984 320.744 392.911 356.15 403.043C358.325 403.665 360.499 404.288 362.674 404.911C410.965 418.748 459.304 432.597 508.233 438.239C534.191 441.232 560.24 443.433 586.359 445Z" fill="black"/>
</svg>
