<svg width="332" height="442" viewBox="0 0 332 442" fill="none" xmlns="http://www.w3.org/2000/svg">
<path d="M405.728 432.022C412.627 433.176 419.521 434.351 426.414 435.526C432.272 436.524 438.128 437.522 443.988 438.508C446.469 438.925 448.95 439.34 451.431 439.752C458.786 440.657 466.19 441.408 473.638 442C463.814 440.482 454.008 438.869 444.205 437.22C438.352 436.235 432.499 435.238 426.644 434.24L426.641 434.239C413.537 432.006 400.422 429.771 387.266 427.675C393.377 429.234 399.532 430.683 405.728 432.022Z" fill="black"/>
<path d="M291.672 392.841C292.913 393.439 294.156 394.032 295.402 394.62C302.623 395.506 309.852 396.344 317.089 397.126C354.601 401.19 391.004 408.976 427.383 416.756L427.392 416.758C433.278 418.017 439.163 419.276 445.051 420.519C487.327 429.44 529.791 437.537 574.051 438.923C577.144 439.021 580.235 439.098 583.323 439.155C586.165 438.778 589 438.379 591.827 437.957C585.922 437.914 580.011 437.804 574.093 437.617C529.957 436.235 487.59 428.16 445.321 419.24C439.436 417.998 433.553 416.74 427.666 415.481C391.291 407.701 354.814 399.899 317.23 395.827C308.699 394.905 300.181 393.905 291.672 392.841Z" fill="black"/>
<path d="M236.812 362.141C237.658 362.685 238.507 363.227 239.356 363.766C264.231 366.792 288.983 369.932 313.528 373.163C352.954 378.351 390.734 388.649 428.476 398.938L428.478 398.938C434.602 400.608 440.725 402.277 446.854 403.924C490.738 415.716 534.907 426.367 581.773 427.773C605.821 428.494 629.569 427.251 653.149 424.922C655.562 424.252 657.969 423.565 660.368 422.861C634.414 425.667 608.293 427.261 581.812 426.467C535.11 425.066 491.068 414.452 447.194 402.662C441.073 401.017 434.954 399.349 428.833 397.68C391.094 387.393 353.22 377.068 313.698 371.868C288.261 368.519 262.601 365.268 236.812 362.141Z" fill="black"/>
<path d="M200.98 336.896C201.6 337.374 202.221 337.85 202.844 338.324C238.754 340.642 274.408 343.816 309.425 348.575C352.611 354.446 393.242 368.454 433.891 382.467L433.898 382.47C439.051 384.246 444.203 386.022 449.362 387.782C495.192 403.419 541.44 417.747 591.638 419.023C634.281 420.097 675.121 412.586 715.559 403.168C717.853 402.198 720.137 401.212 722.414 400.21C679.657 410.392 636.657 418.85 591.671 417.717C541.691 416.446 495.609 402.18 449.784 386.546C444.627 384.786 439.474 383.009 434.318 381.232C393.683 367.223 352.924 353.17 309.601 347.28C273.925 342.432 237.579 339.227 200.98 336.896Z" fill="black"/>
<path d="M173.427 314.121C173.91 314.549 174.394 314.977 174.879 315.404C218.941 314.69 262.612 316.159 304.784 323.428C349.48 331.119 391.273 348.428 433.075 365.741L433.081 365.744C439.458 368.385 445.834 371.026 452.221 373.633C500.45 393.317 549.253 411.046 602.911 411.935C652.035 412.749 697.334 398.988 742.166 383.443C748.456 381.262 754.736 379.046 761.016 376.83C767.622 374.499 774.228 372.168 780.845 369.878C782.575 368.834 784.299 367.78 786.015 366.717C777.509 369.624 769.032 372.615 760.563 375.604L760.56 375.605C754.285 377.819 748.014 380.032 741.737 382.208C696.918 397.749 651.808 411.438 602.932 410.628C549.54 409.744 500.934 392.104 452.715 372.423C446.337 369.82 439.966 367.181 433.592 364.541L433.589 364.54C391.798 347.23 349.857 329.858 305.006 322.141C262.267 314.773 218.014 313.352 173.427 314.121Z" fill="black"/>
<path d="M152.562 294.571C152.96 294.965 153.359 295.359 153.758 295.752C203.22 290.221 252.405 288.041 299.885 297.986C345.908 307.608 389.083 328.407 432.309 349.231C439.993 352.933 447.68 356.636 455.384 360.277C506.384 384.379 558.14 405.75 615.183 405.954C665.151 406.139 709.536 388.24 753.206 368.041C759.622 365.074 766.021 362.057 772.42 359.041C793.739 348.992 815.057 338.942 836.966 330.715C838.03 329.862 839.091 329.005 840.148 328.144C816.877 336.638 794.326 347.269 771.838 357.87C765.444 360.884 759.056 363.896 752.657 366.855C709.003 387.047 664.845 404.831 615.188 404.647C558.458 404.445 506.931 383.192 455.942 359.095C448.258 355.464 440.586 351.768 432.91 348.069L432.906 348.068C389.685 327.245 346.345 306.365 300.153 296.707C252.135 286.649 202.423 288.949 152.562 294.571Z" fill="black"/>
<path d="M135.846 277.232C136.188 277.603 136.531 277.975 136.874 278.345C189.723 266.889 242.516 259.555 294.878 272.359C342.577 284.023 387.527 308.268 432.598 332.578C441.288 337.265 449.982 341.955 458.701 346.557C512.6 375.006 567.432 400.101 627.853 400.342C678.542 400.546 722.182 378.353 764.785 353.187C771.494 349.224 778.177 345.188 784.857 341.154C815.601 322.586 846.296 304.047 879.31 292.786C879.996 292.099 880.681 291.411 881.364 290.72C847.241 301.944 815.641 321.032 784.142 340.058L784.139 340.06C777.469 344.089 770.804 348.115 764.12 352.063C721.532 377.219 678.161 399.238 627.858 399.035C567.784 398.796 513.201 373.846 459.312 345.402C450.618 340.813 441.941 336.133 433.262 331.451L433.259 331.449C388.189 307.138 343.066 282.797 295.188 271.09C242.342 258.168 189.119 265.655 136.051 277.187C135.983 277.202 135.914 277.217 135.846 277.232Z" fill="black"/>
<path d="M121.907 261.45C122.211 261.809 122.516 262.168 122.821 262.526C126.089 261.453 129.356 260.396 132.624 259.361C184.146 243.032 235.836 231.925 289.872 246.843C338.911 260.389 385.622 288.021 432.576 315.796C442.341 321.573 452.116 327.355 461.925 333.019C518.847 365.883 576.874 394.712 640.305 394.619C691.804 394.545 734.729 368.083 776.263 338.073C783.088 333.142 789.874 328.116 796.655 323.094L796.658 323.091C831.199 297.51 865.594 272.036 904.175 259.757C906.565 258.997 908.964 258.292 911.369 257.64C911.848 257.064 912.326 256.487 912.803 255.909C909.783 256.692 906.775 257.559 903.778 258.513C864.97 270.864 830.367 296.495 795.83 322.077C789.06 327.091 782.293 332.104 775.497 337.014C733.973 367.017 691.348 393.239 640.303 393.313C577.254 393.405 519.495 364.749 462.579 331.887C452.8 326.241 443.045 320.47 433.293 314.701C386.338 286.922 339.444 259.181 290.22 245.583C235.802 230.56 183.804 241.77 132.229 258.115C128.786 259.206 125.346 260.32 121.907 261.45Z" fill="black"/>
<path d="M109.893 246.74C110.171 247.093 110.45 247.447 110.729 247.8C116.764 245.125 122.795 242.499 128.833 239.967C178.661 219.067 228.967 204.504 285.128 221.548C335.314 236.778 383.733 267.574 432.544 298.619L432.547 298.621C443.324 305.476 454.121 312.343 464.96 319.057C524.829 356.143 585.968 388.547 652.056 388.047C704.38 387.658 746.652 357.081 787.17 322.469C794.008 316.627 800.794 310.673 807.571 304.726C820.898 293.032 834.19 281.368 847.777 270.654C868.262 254.502 889.355 240.56 912.111 232.02C920.046 229.041 928.086 226.809 936.215 225.231C936.576 224.721 936.935 224.209 937.294 223.697C928.645 225.299 920.091 227.628 911.652 230.797C888.714 239.405 867.498 253.44 846.967 269.629C833.354 280.363 820.015 292.068 806.671 303.777L806.663 303.784C799.895 309.722 793.127 315.661 786.32 321.476C745.803 356.088 703.853 386.355 652.046 386.741C586.371 387.238 525.519 355.033 465.649 317.947C454.845 311.254 444.072 304.402 433.309 297.556L433.306 297.554C384.49 266.503 335.882 235.585 285.508 220.298C228.894 203.117 178.226 217.832 128.327 238.762C122.173 241.343 116.032 244.018 109.893 246.74Z" fill="black"/>
<path d="M99.3906 232.915C99.6504 233.269 99.9105 233.623 100.171 233.976C108.525 229.336 116.858 224.762 125.22 220.409C173.317 195.368 222.244 177.675 280.831 196.697C332.089 213.345 382.113 247.001 432.678 281.02L432.683 281.024C444.302 288.841 455.95 296.678 467.648 304.331C530.186 345.25 594.141 380.925 662.55 379.999C715.77 379.275 757.412 344.946 796.959 306.185C803.729 299.55 810.435 292.787 817.129 286.037L817.132 286.033C830.02 273.037 842.861 260.088 856.021 248.186C876.008 230.11 896.665 214.514 919.193 204.947C931.169 199.866 943.404 196.766 955.838 195.269C956.123 194.797 956.408 194.326 956.693 193.853C943.801 195.316 931.107 198.473 918.681 203.745C895.958 213.395 875.174 229.102 855.144 247.217C841.958 259.142 829.07 272.139 816.165 285.153C809.477 291.897 802.785 298.645 796.044 305.252C756.486 344.023 715.181 377.976 662.533 378.693C594.562 379.613 530.91 344.162 468.364 303.238C456.703 295.609 445.08 287.788 433.475 279.98C382.903 245.953 332.685 212.165 281.235 195.455C222.134 176.265 172.802 194.163 124.616 219.25C116.191 223.636 107.797 228.245 99.3906 232.915Z" fill="black"/>
<path d="M90.0206 219.712C90.2672 220.071 90.5142 220.43 90.7617 220.788C91.09 220.573 91.4183 220.357 91.7465 220.142L91.7487 220.14C101.832 213.522 111.846 206.949 121.923 200.754C168.392 172.186 216.036 151.767 277.018 172.475C326.418 189.236 374.482 219.432 420.052 248.061C431.816 255.452 443.414 262.738 454.825 269.662C465.915 276.396 477.863 284.188 490.44 292.389C511.357 306.03 534.014 320.804 557.35 333.735C594.741 354.455 634.079 370.569 671.234 369.883C725.53 368.881 766.519 331.347 805.111 289.079C811.714 281.848 818.244 274.48 824.76 267.129L824.762 267.126C837.322 252.956 849.83 238.843 862.702 225.881C882.242 206.203 902.554 189.246 925.011 178.874C940.142 171.887 955.664 168.42 971.462 167.606C971.696 167.159 971.93 166.711 972.164 166.263C955.955 167.01 940.01 170.508 924.462 177.688C901.798 188.156 881.356 205.24 861.774 224.961C848.878 237.948 836.325 252.11 823.748 266.299C817.237 273.645 810.72 280.998 804.146 288.198C765.535 330.486 724.889 367.586 671.21 368.577C634.414 369.256 595.329 353.287 557.983 332.593C534.671 319.674 512.114 304.963 491.237 291.348C478.648 283.137 466.669 275.326 455.504 268.545C444.134 261.647 432.565 254.378 420.819 246.998C375.237 218.36 327 188.054 277.439 171.238C215.893 150.338 167.809 171.01 121.238 199.641C111.143 205.847 101.111 212.432 91.0291 219.05C90.6932 219.27 90.3567 219.491 90.0206 219.712Z" fill="black"/>
<path d="M81.5336 206.943C81.7697 207.31 82.0063 207.677 82.2434 208.043C83.3592 207.224 84.4733 206.404 85.586 205.584C87.6187 204.085 89.6466 202.586 91.671 201.089C100.907 194.26 110.073 187.483 119.308 181.064C164.327 149.772 210.806 127.111 273.985 148.993C324.528 166.503 373.883 198.424 420.435 228.533L420.439 228.535C432.694 236.461 444.755 244.262 456.592 251.641C467.915 258.705 480.154 266.928 493.081 275.613L493.083 275.614C497.199 278.38 501.386 281.193 505.635 284.03C523.218 295.771 541.858 307.921 560.994 318.857C599.248 340.716 639.578 357.777 677.516 356.961C733.103 355.772 773.382 315.788 811.026 270.861C817.352 263.312 823.601 255.624 829.838 247.953L829.84 247.951C842.192 232.756 854.495 217.623 867.238 203.746C886.406 182.871 906.504 164.915 929.121 153.985C946.993 145.352 965.311 141.927 983.917 142.187C984.114 141.754 984.31 141.322 984.506 140.889C965.532 140.548 946.819 143.984 928.552 152.809C905.716 163.845 885.485 181.942 866.275 202.862C853.506 216.768 841.159 231.955 828.79 247.169C822.559 254.833 816.322 262.505 810.024 270.022C772.358 314.976 732.423 354.48 677.488 355.655C639.922 356.463 599.854 339.558 561.643 317.723C542.548 306.811 523.939 294.681 506.361 282.944C502.12 280.112 497.939 277.303 493.826 274.539L493.823 274.538C480.892 265.85 468.628 257.61 457.284 250.532C445.491 243.181 433.461 235.4 421.226 227.486L421.221 227.483C374.656 197.365 325.122 165.326 274.413 147.758C210.632 125.668 163.692 148.622 118.561 179.992C109.309 186.423 100.126 193.213 90.889 200.042L90.862 200.062C88.8476 201.551 86.8307 203.042 84.81 204.532C83.7191 205.336 82.627 206.14 81.5336 206.943Z" fill="black"/>
<path d="M73.6634 194.315C73.8898 194.69 74.1167 195.065 74.344 195.44C80.4856 190.679 86.5508 185.841 92.5819 181.031C100.93 174.373 109.212 167.767 117.541 161.487C139.453 144.965 161.764 130.633 186.724 123.226C211.665 115.825 239.287 115.329 271.843 126.546C322.98 144.173 373.215 177.352 420.257 208.422L420.261 208.424C432.937 216.796 445.38 225.015 457.548 232.735C469.029 240.016 481.42 248.486 494.498 257.426L494.514 257.437C498.626 260.248 502.806 263.105 507.048 265.987C524.776 278.032 543.562 290.491 562.865 301.701C601.452 324.11 642.198 341.588 680.803 340.753C738.027 339.491 777.522 297.997 814.21 251.463C820.136 243.948 825.987 236.302 831.829 228.668L831.832 228.664C844.106 212.626 856.339 196.641 869.138 182.024C888.022 160.457 908.071 141.948 931.153 130.762C951.664 120.82 972.551 117.799 993.657 119.386C993.826 118.962 993.995 118.539 994.163 118.114C972.728 116.442 951.471 119.461 930.583 129.587C907.269 140.885 887.083 159.545 868.154 181.163C855.328 195.812 843.049 211.856 830.761 227.913C824.924 235.54 819.084 243.17 813.183 250.655C776.474 297.215 737.324 338.199 680.775 339.447C642.547 340.274 602.064 322.955 563.522 300.571C544.26 289.385 525.506 276.948 507.782 264.906C503.555 262.034 499.385 259.184 495.281 256.378L495.251 256.358L495.25 256.357C482.167 247.414 469.751 238.926 458.248 231.632C446.129 223.942 433.717 215.744 421.063 207.386L421.061 207.385C374.003 176.303 323.58 142.998 272.27 125.311C239.462 114.007 211.56 114.494 186.352 121.974C161.164 129.448 138.702 143.895 116.754 160.444C108.362 166.771 100.057 173.396 91.7022 180.06C85.7314 184.823 79.7341 189.607 73.6634 194.315Z" fill="black"/>
<path d="M65.5544 180.386C65.7694 180.769 65.9849 181.152 66.2008 181.534C74.903 174.991 83.4252 168.218 91.8804 161.498C100.303 154.804 108.658 148.163 117.06 141.855C138.99 125.389 161.31 111.123 186.229 103.79C211.128 96.4632 238.657 96.0472 271.028 107.347C322.237 125.218 372.548 157.878 419.883 188.605C432.798 196.989 445.492 205.229 457.921 212.985C469.721 220.352 482.49 228.973 495.982 238.083L495.985 238.085L496.008 238.1C499.821 240.675 503.692 243.288 507.614 245.923C525.42 257.883 544.287 270.28 563.656 281.465C602.375 303.822 643.193 321.391 681.648 320.89C739.063 320.129 778.319 278.396 814.716 231.532C820.59 223.969 826.388 216.274 832.177 208.59L832.182 208.584C844.359 192.423 856.497 176.313 869.217 161.596C887.976 139.892 907.934 121.3 931.005 110.161C954.111 98.9993 977.531 96.5236 1001.12 99.4917C1001.26 99.0716 1001.41 98.6513 1001.56 98.2306C977.678 95.1825 953.907 97.6465 930.436 108.985C907.129 120.238 887.032 138.985 868.227 160.742C855.48 175.491 843.297 191.661 831.105 207.842L831.093 207.857C825.312 215.529 819.53 223.204 813.684 230.731C777.265 277.624 738.357 318.832 681.631 319.584C643.547 320.08 602.988 302.667 564.31 280.333C544.981 269.172 526.144 256.796 508.344 244.839C504.42 242.203 500.547 239.588 496.729 237.01L496.726 237.009C483.231 227.897 470.435 219.257 458.614 211.877C446.232 204.15 433.571 195.931 420.677 187.561L420.676 187.56C373.325 156.821 322.833 124.042 271.459 106.113C238.836 94.7256 211.026 95.1311 185.86 102.537C160.713 109.937 138.241 124.317 116.274 140.811C107.809 147.167 99.4306 153.827 91.0017 160.526C82.614 167.194 74.1763 173.9 65.5544 180.386Z" fill="black"/>
<path d="M57.2319 164.949C57.4335 165.339 57.6356 165.728 57.8382 166.118C66.2145 160.397 74.4295 154.454 82.5678 148.5C84.5335 147.062 86.4947 145.624 88.4526 144.188C97.7572 137.363 106.987 130.592 116.285 124.187C161.286 93.1851 207.681 70.8646 270.584 92.948C321.888 110.956 372.05 141.421 419.954 170.516L419.956 170.517C433.165 178.539 446.202 186.457 459.045 193.982C471.681 201.385 485.496 210.232 500.141 219.611C503.171 221.552 506.237 223.515 509.336 225.493C527.401 237.027 546.56 249.054 566.168 259.946C605.363 281.72 646.446 299.017 684.266 298.739C740.393 298.312 779.337 256.999 815.409 210.515C821.428 202.76 827.365 194.861 833.291 186.979C845.155 171.196 856.971 155.478 869.296 141.094C887.767 119.536 907.311 101.065 929.717 90.0006C955.274 77.3789 981.287 75.5325 1007.52 80.0149C1007.65 79.5952 1007.78 79.1753 1007.91 78.7552C981.408 74.2013 955.053 76.0304 929.138 88.8292C906.497 100.009 886.816 118.638 868.303 140.244C855.952 154.658 844.091 170.437 832.211 186.24C826.291 194.114 820.367 201.994 814.376 209.715C778.278 256.232 739.687 297.01 684.257 297.432C646.795 297.708 605.965 280.559 566.803 258.804C547.232 247.932 528.102 235.924 510.039 224.392C506.948 222.419 503.887 220.458 500.861 218.52L500.855 218.517C486.209 209.137 472.367 200.273 459.706 192.854C446.906 185.355 433.897 177.454 420.706 169.442L420.704 169.441C372.784 140.336 322.464 109.773 271.017 91.7153C207.514 69.4211 160.656 92.0319 115.543 123.111C106.228 129.529 96.9782 136.313 87.6726 143.139C85.7165 144.574 83.7579 146.01 81.7957 147.446C73.7014 153.367 65.5432 159.27 57.2319 164.949Z" fill="black"/>
<path d="M49.2087 148.745C49.3959 149.14 49.5836 149.535 49.7717 149.93C59.9834 143.85 69.9842 137.45 79.8914 131.051C81.4103 130.07 82.9268 129.089 84.4417 128.109C94.5472 121.572 104.573 115.087 114.66 108.983C161.043 80.9152 208.552 61.0159 270.001 81.7637C321.789 99.2685 372.429 127.291 421.345 154.36C434.679 161.738 447.885 169.046 460.951 176.051C474.452 183.287 489.321 192.089 505.106 201.433C507.463 202.829 509.841 204.236 512.237 205.653C530.675 216.548 550.221 227.95 570.156 238.283C610.004 258.938 651.499 275.371 688.888 274.888C743.74 274.201 781.676 233.608 816.737 187.941C822.667 180.216 828.514 172.348 834.348 164.498L834.349 164.496C845.793 149.096 857.188 133.762 869.07 119.706C886.999 98.4952 905.967 80.2845 927.728 69.2858C955.557 55.225 984.157 54.2436 1013.11 60.4403C1013.22 60.0188 1013.33 59.5971 1013.44 59.1752C984.255 52.9194 955.322 53.8797 927.138 68.1198C905.145 79.236 886.042 97.6037 868.071 118.863C856.164 132.949 844.724 148.343 833.264 163.765C827.436 171.607 821.602 179.457 815.7 187.145C780.613 232.845 743.027 272.903 688.871 273.582C651.827 274.06 610.578 257.763 570.758 237.123C550.858 226.809 531.339 215.422 512.903 204.528C510.521 203.121 508.158 201.722 505.814 200.334L505.775 200.311C489.994 190.969 475.097 182.15 461.569 174.899C448.539 167.914 435.357 160.62 422.039 153.25C373.11 126.173 322.331 98.0725 270.419 80.5259C208.417 59.5913 160.475 79.7314 113.983 107.865C103.878 113.98 93.8345 120.477 83.7306 127.013C82.2158 127.992 80.6997 128.973 79.1819 129.954C69.3096 136.33 59.3604 142.697 49.2087 148.745Z" fill="black"/>
<path d="M41.482 131.615C41.6541 132.016 41.8267 132.417 41.9998 132.817C54.8091 126.452 67.3416 119.647 79.7708 112.899C90.657 106.988 101.464 101.12 112.308 95.628C160.339 71.305 209.2 54.2845 269.35 73.0187C321.718 89.3333 373.072 114.532 423.132 139.095C436.681 145.744 450.136 152.346 463.49 158.712C478.036 165.64 494.128 174.217 511.198 183.314L511.2 183.315L511.373 183.407C512.942 184.243 514.519 185.084 516.104 185.928C534.992 195.986 554.98 206.536 575.29 216.078C615.889 235.153 657.87 250.249 695.028 249.303C748.621 247.91 785.001 208.334 818.527 163.888C824.175 156.4 829.74 148.776 835.295 141.166C846.257 126.149 857.176 111.19 868.602 97.4554C885.808 76.7719 904.096 58.951 925.258 48.0176C955.105 32.5986 986.233 32.6789 1017.89 40.702C1017.99 40.2766 1018.08 39.851 1018.18 39.4252C986.315 31.3589 954.859 31.2551 924.658 46.8569C903.266 57.9092 884.845 75.8867 867.597 96.6202C856.147 110.385 845.183 125.403 834.206 140.441L834.204 140.443C828.656 148.044 823.104 155.65 817.483 163.101C783.936 207.576 747.897 246.621 694.994 247.997C658.163 248.934 616.421 233.959 575.846 214.896C555.569 205.369 535.607 194.833 516.718 184.774C515.073 183.899 513.436 183.026 511.808 182.158C494.745 173.065 478.627 164.475 464.053 157.533C450.732 151.182 437.3 144.591 423.766 137.95L423.76 137.947C373.689 113.378 322.214 88.1191 269.739 71.7713C209.098 52.8842 159.849 70.0884 111.717 94.4625C100.801 99.9908 89.9467 105.884 79.0316 111.81C66.654 118.53 54.1972 125.293 41.482 131.615Z" fill="black"/>
<path d="M34.2045 113.733C34.3611 114.14 34.5181 114.546 34.6757 114.952C48.0503 109.681 61.1988 104.02 74.2561 98.3986L74.2585 98.3975C85.9662 93.3572 97.6006 88.3483 109.259 83.6801C159.167 63.696 209.608 49.8963 268.521 66.1573C321.621 80.7929 373.888 102.861 425.247 124.547L425.254 124.55C439.012 130.359 452.704 136.14 466.33 141.743C481.998 148.185 499.365 156.303 517.747 164.896L520.467 166.167C539.85 175.226 560.307 184.739 581.02 193.301C622.427 210.419 664.948 223.779 702.059 222.092C754.556 219.714 788.918 181.344 820.466 138.42C825.613 131.418 830.684 124.296 835.747 117.184L835.749 117.181C846.232 102.458 856.682 87.7789 867.713 74.296C884.063 54.311 901.623 37.0374 922.305 26.2705C954.031 9.74873 987.599 11.0691 1021.87 20.9423C1021.95 20.5114 1022.02 20.0803 1022.1 19.649C987.668 9.75115 953.781 8.40613 921.701 25.1118C900.789 35.9984 883.095 53.4294 866.701 73.4689C855.642 86.9861 845.146 101.728 834.648 116.474L834.643 116.48C829.588 123.58 824.532 130.681 819.413 137.647C787.85 180.589 753.819 218.44 702 220.787C665.195 222.46 622.903 209.202 581.52 192.094C560.838 183.544 540.406 174.043 521.02 164.984L518.289 163.707L518.287 163.706C499.916 155.119 482.525 146.989 466.827 140.535C453.225 134.941 439.548 129.166 425.799 123.361C374.43 101.671 322.06 79.5585 268.869 64.8978C209.539 48.5218 158.767 62.4488 108.773 82.4673C97.0466 87.1627 85.3684 92.19 73.6337 97.2416C60.6077 102.849 47.5122 108.487 34.2045 113.733Z" fill="black"/>
<path d="M27.5369 95.382C27.678 95.7946 27.8195 96.207 27.9616 96.6192C41.4687 92.6823 54.8274 88.448 68.1205 84.2345C80.6589 80.2603 93.14 76.3042 105.631 72.6339C157.586 57.3679 209.814 47.0046 267.586 60.5151C321.51 73.1141 374.806 91.7972 427.462 110.256C441.424 115.151 455.34 120.029 469.212 124.774C486.219 130.588 505.066 138.092 524.946 146.008L524.99 146.026C544.88 153.945 565.797 162.273 586.904 169.713C629.1 184.586 672.141 195.944 709.352 193.368C762.108 189.726 793.359 152 821.969 110.525C825.789 104.989 829.56 99.386 833.33 93.7864C843.703 78.379 854.06 62.994 865.356 49.0644C880.748 30.0834 897.832 13.8751 918.953 4.09521C953.682 -11.9932 989.176 -9.32978 1024.94 1.8918C1025 1.4547 1025.06 1.01741 1025.13 0.579929C989.237 -10.6471 953.458 -13.3293 918.404 2.90968C897.026 12.8081 879.793 29.186 864.34 48.2417C853.004 62.2206 842.598 77.6784 832.215 93.1019C828.452 98.691 824.693 104.276 820.893 109.784C792.276 151.268 761.34 188.47 709.262 192.065C672.336 194.621 629.512 183.346 587.338 168.481C566.26 161.051 545.367 152.733 525.474 144.812L525.41 144.786C505.546 136.877 486.673 129.362 469.635 123.538C455.785 118.8 441.883 113.927 427.931 109.036C375.266 90.5734 321.884 71.8596 267.884 59.2428C209.777 45.6542 157.283 56.0952 105.263 71.3804C92.7135 75.0677 80.1964 79.035 67.6357 83.0161C54.3482 87.2276 41.0119 91.4545 27.5369 95.382Z" fill="black"/>
<path d="M21.4646 76.4177C21.5898 76.8369 21.7156 77.2559 21.8419 77.6747C34.6807 75.0884 47.4776 72.3071 60.2544 69.5301C71.5556 67.0739 82.8416 64.6209 94.1267 62.3095C145.979 51.689 197.864 44.0404 251.452 52.6231C316.528 63.0331 380.667 81.3612 444.456 99.5897C468.176 106.368 491.848 113.132 515.502 119.471C529.375 123.182 544.325 127.828 559.898 132.668L562.518 133.482C579.03 138.612 596.205 143.91 613.485 148.495C648.031 157.66 683.065 163.992 714.147 160.396C768.117 154.157 797.612 117.144 825.104 77.4182C827.678 73.6985 830.234 69.9555 832.792 66.2115L832.8 66.1993C857.6 29.8898 882.466 -6.51683 924.161 -22.7666C957.504 -35.7762 992.257 -31.3812 1027.5 -19.2078C1027.54 -19.6535 1027.58 -20.0993 1027.63 -20.5454C992.314 -32.7013 957.321 -37.1072 923.686 -23.9838C881.591 -7.57844 856.493 29.1791 831.737 65.4357C829.17 69.1952 826.607 72.9494 824.029 76.675C796.537 116.401 767.335 152.932 713.996 159.098C683.168 162.665 648.331 156.388 613.82 147.232C596.57 142.656 579.42 137.365 562.906 132.235L560.28 131.418C544.713 126.58 529.74 121.927 515.84 118.209C492.233 111.883 468.589 105.126 444.885 98.3528C381.071 80.1171 316.818 61.7563 251.659 51.333C197.827 42.7111 145.747 50.4027 93.8642 61.0295C82.5444 63.3481 71.236 65.8058 59.9208 68.2649C47.1199 71.047 34.3091 73.8312 21.4646 76.4177Z" fill="black"/>
<path d="M16.3293 57.9799C16.4396 58.4064 16.5503 58.8327 16.6616 59.2588C29.1252 57.946 41.577 56.5273 54.0211 55.1095C65.8353 53.7634 77.6439 52.418 89.4474 51.1649C142.866 45.4941 196.237 41.7079 249.999 48.2333C315.89 56.2396 381.238 70.0525 446.402 83.8269C470.453 88.9107 494.479 93.9893 518.499 98.7687C533.628 101.775 549.863 105.71 566.696 109.797L567.165 109.91C583.847 113.961 601.108 118.151 618.429 121.718C653.386 128.916 688.65 133.587 719.995 129.419C771.979 122.511 799.853 87.4184 825.792 49.8805C828.172 46.4365 830.536 42.9724 832.9 39.5074C856.345 5.14226 879.852 -29.3117 920.064 -45.1776C954.768 -58.8704 991.607 -53.2469 1029.13 -39.4806C1029.15 -39.9348 1029.18 -40.3891 1029.21 -40.8437C991.649 -54.5717 954.58 -60.2009 919.584 -46.3929C878.977 -30.3711 855.242 4.42828 831.837 38.7433L831.834 38.748C829.464 42.223 827.097 45.693 824.717 49.138C798.784 86.6673 771.194 121.297 719.822 128.124C688.703 132.262 653.616 127.63 618.693 120.438C601.394 116.876 584.152 112.69 567.463 108.638L567.004 108.527C550.177 104.442 533.915 100.499 518.754 97.4873C494.77 92.7149 470.766 87.641 446.728 82.5599L446.724 82.5591C381.541 68.7809 316.109 54.95 250.157 46.9363C196.241 40.3922 142.747 44.1929 89.3093 49.8657C77.4831 51.1212 65.661 52.4681 53.8377 53.8151L53.8358 53.8153C41.3371 55.2394 28.837 56.6635 16.3293 57.9799Z" fill="black"/>
<path d="M11.9694 39.7322C12.0648 40.1663 12.1607 40.6003 12.2571 41.0341C23.9109 40.838 35.5649 40.6059 47.2179 40.3739H47.2197C59.705 40.1253 72.1889 39.8767 84.6698 39.6724C139.359 38.7771 194.002 38.7316 248.509 43.2515C315.332 48.7765 381.889 58.0366 448.383 67.2881L448.386 67.2885C472.515 70.6456 496.635 74.0015 520.757 77.1773C536.376 79.2335 552.955 82.1016 570.04 85.1044C571.348 85.3344 572.659 85.5651 573.973 85.7963C589.813 88.5838 606.052 91.4414 622.312 93.8314C657.521 99.0071 692.885 102 724.621 97.3342C774.58 89.9993 801.122 56.9952 825.826 21.8021C828.039 18.65 830.237 15.4808 832.435 12.3108C854.819 -19.966 877.26 -52.325 916.074 -67.625C951.899 -81.7521 990.517 -75.0124 1029.96 -59.8915C1029.97 -60.3546 1029.98 -60.8178 1029.99 -61.2812C990.541 -76.3431 951.707 -83.081 915.594 -68.8405C876.391 -53.387 853.724 -20.6924 831.379 11.5378L831.365 11.5582C829.164 14.7329 826.966 17.903 824.756 21.0517C800.064 56.2277 773.801 88.7932 724.431 96.0416C692.89 100.679 657.681 97.7099 622.502 92.5388C606.261 90.1514 590.038 87.2968 574.194 84.5085L570.266 83.8177C553.184 80.8153 536.578 77.9424 520.928 75.882C496.826 72.7088 472.718 69.3546 448.596 65.9985C382.09 56.7453 315.479 47.4776 248.617 41.9494C194.043 37.4239 139.346 37.4706 84.6484 38.366C72.1638 38.5704 59.6799 38.819 47.1974 39.0675L47.1761 39.0679C35.4392 39.3016 23.7033 39.5353 11.9694 39.7322Z" fill="black"/>
<path d="M8.33021 21.6032C8.4106 22.0448 8.49155 22.4863 8.57307 22.9276C24.0753 23.8997 39.5766 24.8884 55.078 25.8772C119.01 29.9553 182.943 34.0335 246.945 36.9402C315.139 40.0408 383.249 44.7932 451.362 49.5459C474.888 51.1874 498.414 52.8289 521.944 54.4024C540.532 55.6509 560.129 57.8342 580.179 60.0678C594.821 61.6989 609.704 63.3568 624.611 64.6973C659.883 67.869 695.197 69.2505 727.397 64.2167C775.385 56.7336 801.019 25.96 824.928 -6.75861C827.025 -9.62834 829.108 -12.5125 831.192 -15.3972C852.901 -45.4475 874.655 -75.5611 912.154 -90.0703C949.003 -104.348 989.055 -96.6611 1030 -80.4706C1029.99 -80.9431 1029.98 -81.4154 1029.97 -81.8876C989.057 -97.9989 948.808 -105.674 911.682 -91.2887C873.803 -76.6325 851.824 -46.1987 830.152 -16.1901C828.06 -13.2943 825.972 -10.4025 823.872 -7.52921C799.981 25.1649 774.621 55.5304 727.195 62.9259C695.158 67.9342 659.973 66.5653 624.728 63.396C609.891 62.0618 595.026 60.4064 580.385 58.7759L580.381 58.7754C560.293 56.5381 540.627 54.3478 522.031 53.0988C498.51 51.5259 474.989 49.8847 451.467 48.2434C383.349 43.4904 315.216 38.7364 247.004 35.635C183.004 32.7284 119.106 28.6523 55.1945 24.5755L55.188 24.5751L55.1779 24.5744C39.5633 23.5784 23.948 22.5823 8.33021 21.6032Z" fill="black"/>
<path d="M5.35624 3.41598C5.42127 3.86401 5.48688 4.31188 5.55306 4.75954C18.0568 6.399 30.5515 8.09226 43.0449 9.78534L43.0579 9.78709C53.9358 11.2612 64.8128 12.7353 75.6941 14.1736C131.91 21.6042 188.23 28.079 245.306 28.6702C306.724 29.2855 368.143 29.5398 429.56 29.7942H429.565L429.614 29.7944C460.306 29.9216 490.998 30.0486 521.688 30.2209C542.434 30.3372 564.067 31.4068 586.032 32.4929L586.035 32.4931C598.907 33.1296 611.893 33.7717 624.882 34.2308C660.008 35.4726 695.105 35.3732 727.805 30.1758C773.948 22.8235 799.22 -5.5768 822.896 -35.6906C824.935 -38.2842 826.962 -40.8899 828.989 -43.496C850.529 -71.185 872.096 -98.9103 908.452 -112.404C946.32 -126.454 987.35 -118.058 1029.22 -101.165C1029.19 -101.646 1029.17 -102.128 1029.14 -102.609C987.323 -119.404 946.122 -127.774 907.997 -113.629C871.275 -99.9991 849.483 -71.9776 827.977 -44.3246L827.951 -44.2908C825.925 -41.6857 823.901 -39.0839 821.868 -36.4979C798.216 -6.41401 773.213 21.6175 727.6 28.8855C695.028 34.0625 660.033 34.1662 624.928 32.9251C611.981 32.4674 599.013 31.8264 586.148 31.1904L586.143 31.1901C564.154 30.1031 542.464 29.0308 521.696 28.9143C490.987 28.742 460.28 28.6149 429.573 28.4877H429.56C368.145 28.2333 306.733 27.979 245.319 27.3637C188.327 26.7734 132.074 20.3079 75.8655 12.8783C64.9899 11.4408 54.1156 9.9671 43.2379 8.49295C30.6176 6.78265 17.9927 5.07174 5.35624 3.41598Z" fill="black"/>
<path d="M3.01171 -15.0918C3.06072 -14.6394 3.11031 -14.1872 3.16049 -13.7351C15.5858 -11.4245 27.9909 -9.02383 40.3924 -6.62379L40.3944 -6.62347C50.9479 -4.58106 61.4988 -2.53919 72.0574 -0.553821C128.563 10.0711 185.265 19.0725 243.627 17.8156C278.597 17.0549 314.33 16.7055 350.463 16.3522L350.468 16.3522C475.62 15.1285 605.577 13.8579 725.291 -4.71301C769.714 -11.618 795.279 -37.5301 819.428 -64.9213C821.435 -67.1983 823.433 -69.4849 825.43 -71.7717L825.449 -71.7938C847.497 -97.0368 869.552 -122.288 905.112 -134.477C944.055 -147.838 985.514 -139.022 1027.61 -121.86C1027.57 -122.35 1027.52 -122.841 1027.47 -123.331C985.449 -140.378 943.853 -149.15 904.688 -135.713C868.781 -123.404 846.503 -97.8915 824.486 -72.6785C822.474 -70.3748 820.465 -68.0735 818.447 -65.7851C794.325 -38.4243 769.025 -12.8333 725.09 -6.00413C605.479 12.5508 475.653 13.8206 350.516 15.0445C314.366 15.3981 278.607 15.7479 243.599 16.5094C185.381 17.7632 128.791 8.78455 72.2991 -1.83786C61.7641 -3.81882 51.2318 -5.85713 40.6929 -7.89672L40.6664 -7.90183C28.1293 -10.3282 15.5829 -12.7562 3.01171 -15.0918Z" fill="black"/>
<path d="M1.31309 -34.016C1.34551 -33.5612 1.37852 -33.1065 1.41213 -32.652C13.8313 -29.7868 26.2246 -26.7893 38.6158 -23.7922C46.6427 -21.8508 54.6686 -19.9096 62.7001 -18.0047C117.07 -5.10929 171.675 6.11492 228.377 4.37682C390.239 -0.571365 561.292 -18.3328 721.694 -39.9325C765.072 -45.7787 792.433 -70.8754 818.872 -96.6922C820.171 -97.9598 821.467 -99.2291 822.762 -100.498C847.881 -125.1 872.819 -149.525 910.663 -158.308C948.645 -167.136 986.869 -158.479 1025.13 -142.825C1025.06 -143.325 1024.99 -143.824 1024.92 -144.324C986.757 -159.851 948.471 -168.437 910.367 -159.581C872.156 -150.712 846.974 -126.045 821.906 -101.489C820.59 -100.2 819.275 -98.9122 817.959 -97.6267C791.52 -71.8112 764.432 -47.0108 721.52 -41.2273C561.141 -19.6308 390.137 -1.8754 228.337 3.07093C171.821 4.80329 117.363 -6.38281 63.002 -19.2759C54.9816 -21.1782 46.9629 -23.1177 38.94 -25.0583C26.4155 -28.0877 13.8802 -31.1197 1.31309 -34.016Z" fill="black"/>
<path d="M0.262438 -54.3774C0.276927 -53.9246 0.292 -53.4719 0.307659 -53.0194C13.843 -49.6475 27.3312 -46.0681 40.815 -42.4897C47.6782 -40.6684 54.5403 -38.8473 61.407 -37.0541C115.504 -22.9266 169.862 -10.5335 227.098 -13.4558C307.716 -17.5557 388.622 -28.8023 469.408 -41.2909C486.872 -43.9907 504.329 -46.7484 521.777 -49.5046L521.781 -49.5052C585.053 -59.5001 648.197 -69.4746 711.042 -76.592C753.706 -81.4329 783.294 -103.532 812.124 -126.168C813.372 -127.147 814.618 -128.127 815.863 -129.107C843.432 -150.799 870.779 -172.316 908.824 -179.383C947.384 -186.54 984.847 -178.037 1021.89 -163.085C1021.8 -163.592 1021.71 -164.099 1021.61 -164.606C984.685 -179.42 947.203 -187.835 908.586 -180.668C870.216 -173.541 842.636 -151.838 815.116 -130.183C813.85 -129.186 812.584 -128.19 811.317 -127.195C782.485 -104.558 753.155 -82.6853 710.895 -77.8902C648.018 -70.7692 584.836 -60.7887 521.56 -50.7931C504.115 -48.0374 486.663 -45.2805 469.208 -42.5821C388.43 -30.0945 307.579 -18.8569 227.031 -14.7606C170.014 -11.8495 115.827 -24.1927 61.7374 -38.3182C54.8793 -40.1092 48.0224 -41.929 41.1616 -43.7498L41.1598 -43.7503C27.5567 -47.3604 13.9379 -50.9748 0.262438 -54.3774Z" fill="black"/>
<path d="M0.00770977 -74.8261C0.00457051 -74.3795 0.00200036 -73.9327 0 -73.4858C12.3879 -70.5843 24.7549 -67.5439 37.1211 -64.5036C45.922 -62.3399 54.7224 -60.1763 63.5297 -58.063C118.234 -44.9365 173.176 -33.7566 229.942 -36.6415C339.005 -42.1585 449.746 -58.2868 559.458 -74.2653C607.629 -81.2809 655.601 -88.2676 703.146 -94.3146C745.736 -99.7282 777.488 -121.767 808.612 -144.154C809.675 -144.919 810.737 -145.684 811.799 -146.449C841.861 -168.098 871.652 -189.552 910.519 -196.477C946.913 -202.96 982.6 -195.794 1017.98 -182.596C1017.86 -183.104 1017.75 -183.61 1017.64 -184.117C982.385 -197.175 946.709 -204.251 910.289 -197.763C871.123 -190.785 841.114 -169.172 811.107 -147.561C810.021 -146.778 808.935 -145.996 807.848 -145.215C776.711 -122.818 745.204 -100.978 702.981 -95.6107C655.385 -89.5573 607.384 -82.5663 559.198 -75.5484L559.196 -75.5479C449.514 -59.5737 338.875 -43.46 229.876 -37.9463C173.312 -35.0717 118.527 -46.2098 63.8349 -59.3334C55.0447 -61.4426 46.2564 -63.6034 37.4634 -65.7652L37.4576 -65.7667C24.9901 -68.8319 12.5118 -71.8998 0.00770977 -74.8261Z" fill="black"/>
<path d="M0.671489 -97.7532C0.649102 -97.3139 0.627266 -96.8745 0.60598 -96.4349C13.1217 -94.0153 25.6262 -91.4903 38.1306 -88.9654C50.4996 -86.4678 62.8695 -83.9701 75.2493 -81.5744C132.829 -70.432 190.614 -61.5017 249.564 -65.1067C395.642 -74.0426 546.15 -90.6216 691.11 -110.486C733.467 -116.285 767.087 -136.286 800.062 -156.946C801.96 -158.135 803.855 -159.326 805.749 -160.516C836.81 -180.034 867.702 -199.446 905.334 -207.631C942.094 -215.613 978.316 -210.003 1014.27 -198.199C1014.15 -198.699 1014.02 -199.2 1013.89 -199.7C978.05 -211.372 941.84 -216.895 905.057 -208.908C867.193 -200.672 836.118 -181.144 805.097 -161.65C803.187 -160.45 801.278 -159.25 799.368 -158.053C766.389 -137.391 732.982 -117.537 690.933 -111.78C545.994 -91.9191 395.521 -75.3441 249.484 -66.4108C190.708 -62.8164 133.058 -71.7184 75.4977 -82.8571C63.1435 -85.2478 50.792 -87.7419 38.4343 -90.2373L38.4289 -90.2384C25.8528 -92.7779 13.2697 -95.3188 0.671489 -97.7532Z" fill="black"/>
<path d="M2.46198 -121.842C2.41954 -121.408 2.37764 -120.974 2.33628 -120.54C15.283 -118.687 28.2287 -116.756 41.1775 -114.824L41.1851 -114.823C55.0851 -112.749 68.9885 -110.675 82.9002 -108.696C141.318 -100.388 199.859 -93.7723 258.783 -96.0082C397.38 -101.251 541.652 -107.971 679.282 -125.069C722.988 -130.494 759.915 -149.558 796.328 -169.238C798.328 -170.32 800.327 -171.403 802.325 -172.485C836.73 -191.127 870.978 -209.683 910.491 -217.338C944.576 -223.93 977.89 -220.049 1010.85 -210.996C1010.71 -211.486 1010.57 -211.976 1010.43 -212.465C977.588 -221.405 944.311 -225.21 910.243 -218.621C870.526 -210.926 836.113 -192.28 801.747 -173.658L801.737 -173.653C799.727 -172.563 797.717 -171.474 795.706 -170.388C759.284 -150.702 722.554 -131.757 679.12 -126.365C541.552 -109.275 397.329 -102.556 258.734 -97.3138C199.932 -95.0825 141.487 -101.684 83.0844 -109.99C69.1906 -111.966 55.2979 -114.038 41.4034 -116.111L41.3997 -116.112C28.4227 -118.048 15.4443 -119.984 2.46198 -121.842Z" fill="black"/>
<path d="M5.6539 -147.706C5.5894 -147.273 5.52544 -146.841 5.46201 -146.408C19.0472 -145.569 32.6396 -144.719 46.2383 -143.869L46.2461 -143.869C252.59 -130.971 460.371 -117.983 666.412 -138.874C712.079 -143.502 752.655 -161.204 792.821 -179.574C795.196 -180.66 797.569 -181.748 799.941 -182.837C837.731 -200.167 875.4 -217.442 916.977 -224.46C947.996 -229.698 978.17 -227.344 1007.94 -220.934C1007.79 -221.411 1007.64 -221.888 1007.5 -222.364C977.844 -228.683 947.73 -230.978 916.76 -225.748C875.005 -218.7 837.189 -201.357 799.434 -184.042L799.341 -183.999C796.987 -182.919 794.632 -181.839 792.277 -180.762C752.101 -162.388 711.706 -144.777 666.28 -140.174C460.356 -119.294 252.705 -132.274 46.3643 -145.171L46.3486 -145.172C32.7777 -146.02 19.2126 -146.868 5.6539 -147.706Z" fill="black"/>
<path d="M9.81253 -171.67C9.72651 -171.236 9.64103 -170.802 9.5561 -170.367C31.2343 -170.072 52.9114 -169.835 74.5874 -169.599H74.5906C144.259 -168.838 213.915 -168.078 283.557 -165.38C322.136 -163.887 361.344 -161.17 400.777 -158.437C485.057 -152.596 570.367 -146.684 652.762 -152.496C700.719 -155.882 745.308 -171.096 789.545 -187.508C794.569 -189.372 799.588 -191.251 804.607 -193.13C843.806 -207.806 882.995 -222.479 924.371 -229.815C951.632 -234.64 978.486 -233.873 1005.13 -229.879C1004.98 -230.342 1004.83 -230.805 1004.68 -231.267C978.137 -235.193 951.349 -235.917 924.142 -231.101C882.64 -223.743 843.334 -209.026 804.149 -194.354C799.128 -192.474 794.11 -190.595 789.09 -188.733C744.857 -172.323 700.422 -157.171 652.67 -153.8C570.366 -147.994 485.217 -153.896 400.986 -159.734L400.982 -159.734C361.527 -162.468 322.273 -165.189 283.607 -166.686C213.963 -169.384 144.259 -170.145 74.564 -170.906L74.5531 -170.906C52.9713 -171.142 31.3905 -171.377 9.81253 -171.67Z" fill="black"/>
<path d="M15.3959 -196.579C15.2851 -196.137 15.1748 -195.694 15.0651 -195.251C34.0572 -196.354 53.0618 -197.647 72.0673 -198.939L72.0768 -198.94C86.4362 -199.917 100.796 -200.893 115.152 -201.788C176.215 -205.595 237.216 -207.927 297.856 -202.523C338.941 -198.854 380.599 -192.524 422.46 -186.163C437.652 -183.854 452.87 -181.542 468.097 -179.351C525.264 -171.126 582.53 -164.621 638.848 -166.524C689.288 -168.226 738.007 -181.207 786.434 -195.699C794.058 -197.981 801.675 -200.3 809.29 -202.619C850.066 -215.033 890.796 -227.433 932.411 -234.021C956.229 -237.791 979.762 -237.958 1003.14 -235.891C1002.99 -236.342 1002.83 -236.793 1002.68 -237.243C979.405 -239.264 955.952 -239.07 932.207 -235.312C890.493 -228.708 849.663 -216.277 808.889 -203.862C801.279 -201.545 793.67 -199.229 786.059 -196.951C737.64 -182.461 689.061 -169.525 638.804 -167.83C582.606 -165.931 525.434 -172.421 468.283 -180.644C453.08 -182.832 437.876 -185.142 422.692 -187.449L422.69 -187.45C380.817 -193.812 339.1 -200.152 297.972 -203.825C237.229 -209.238 176.146 -206.9 115.07 -203.092C100.695 -202.196 86.3213 -201.218 71.9524 -200.241C53.0893 -198.958 34.2346 -197.676 15.3959 -196.579Z" fill="black"/>
<path d="M22.2518 -221.294C22.1126 -220.837 21.974 -220.38 21.8361 -219.922C41.3871 -222.46 61.0123 -225.368 80.6621 -228.28C96.2122 -230.584 111.778 -232.89 127.334 -235.017C189.695 -243.544 251.945 -249.199 312.669 -240.371C353.534 -234.418 394.502 -224.09 435.619 -213.725L435.622 -213.725C446.479 -210.988 457.346 -208.248 468.224 -205.586C520.278 -192.847 572.564 -181.884 625.044 -181.514C677.987 -181.144 730.838 -191.757 783.469 -204.191C794.321 -206.755 805.162 -209.396 815.993 -212.034C857.717 -222.198 899.288 -232.324 940.707 -237.859C961.11 -240.593 981.36 -241.28 1001.52 -240.609C1001.37 -241.05 1001.21 -241.49 1001.06 -241.931C981.002 -242.576 960.847 -241.876 940.533 -239.154C899.039 -233.609 857.381 -223.461 815.65 -213.296L815.647 -213.295C804.825 -210.659 793.999 -208.021 783.169 -205.463C730.551 -193.032 677.829 -182.452 625.053 -182.821C572.736 -183.189 520.576 -194.119 468.535 -206.855C457.681 -209.511 446.832 -212.246 435.987 -214.98L435.975 -214.983C394.85 -225.351 353.796 -235.7 312.858 -241.664C251.942 -250.52 189.54 -244.841 127.157 -236.311C111.566 -234.18 95.9793 -231.87 80.4164 -229.564C60.9768 -226.684 41.575 -223.81 22.2518 -221.294Z" fill="black"/>
<path d="M30.3692 -245.713C30.1971 -245.236 30.0257 -244.759 29.855 -244.281C49.5853 -248.161 69.515 -252.577 89.5272 -257.011L89.5297 -257.011C107.926 -261.087 126.392 -265.179 144.837 -268.884C210.695 -282.112 276.337 -290.429 337.915 -275.714C372.412 -267.473 407.204 -253.974 442.289 -240.361C452.496 -236.401 462.728 -232.431 472.984 -228.578C518.459 -211.495 564.388 -196.728 610.587 -195.47C663.796 -194.01 718.947 -202.115 773.975 -212.168C789.037 -214.92 804.087 -217.816 819.086 -220.703L819.097 -220.706C858.919 -228.371 898.384 -235.967 936.746 -240.59C957.981 -243.149 979.104 -244.269 1000.17 -244.437C1000.01 -244.872 999.855 -245.306 999.699 -245.74C978.747 -245.559 957.725 -244.434 936.589 -241.888C898.179 -237.258 858.648 -229.649 818.811 -221.982L818.807 -221.981L818.804 -221.98C803.811 -219.094 788.776 -216.2 773.74 -213.453C718.727 -203.403 663.688 -195.32 610.623 -196.776C564.658 -198.028 518.904 -212.724 473.444 -229.801C463.22 -233.641 453.01 -237.603 442.817 -241.558C407.717 -255.177 372.811 -268.721 338.219 -276.985C276.347 -291.77 210.466 -283.399 144.58 -270.165C126.074 -266.447 107.571 -262.348 89.1545 -258.267L89.1521 -258.267C69.4255 -253.896 49.7969 -249.547 30.3692 -245.713Z" fill="black"/>
<path d="M39.6847 -269.642C39.4749 -269.141 39.2659 -268.639 39.0577 -268.137C59.3375 -273.245 79.8667 -279.047 100.5 -284.879L100.502 -284.879C118.908 -290.081 137.398 -295.307 155.866 -300.084C222.755 -317.387 289.425 -328.836 351.307 -312.306C386.842 -302.814 420.548 -284.776 454.395 -266.662C460.484 -263.404 466.578 -260.143 472.688 -256.928C512.719 -235.869 553.414 -216.839 597.818 -213.968C653.312 -210.364 712.153 -215.955 770.978 -223.663C789.92 -226.145 808.857 -228.846 827.681 -231.531L827.683 -231.531C867.342 -237.188 906.5 -242.773 944.15 -246.089C962.202 -247.676 980.251 -248.791 998.301 -249.567C998.143 -249.996 997.983 -250.425 997.823 -250.854C979.892 -250.077 961.962 -248.967 944.035 -247.391C906.35 -244.071 867.131 -238.478 827.451 -232.818C808.636 -230.135 789.717 -227.436 770.809 -224.959C712.001 -217.253 653.264 -211.676 597.903 -215.271C553.801 -218.123 513.322 -237.028 473.297 -258.085C467.205 -261.289 461.123 -264.544 455.041 -267.8C421.199 -285.912 387.339 -304.034 351.645 -313.568C289.411 -330.192 222.453 -318.658 155.539 -301.349C137 -296.553 118.468 -291.316 100.037 -286.107C79.7552 -280.375 59.5958 -274.678 39.6847 -269.642Z" fill="black"/>
<path d="M50.8489 -294.444C50.5903 -293.908 50.3327 -293.372 50.0759 -292.835C54.6129 -294.245 59.1704 -295.696 63.7458 -297.179C78.5224 -301.966 93.4668 -307.077 108.51 -312.222L108.514 -312.224C127.579 -318.744 146.803 -325.319 166.047 -331.359C234.867 -352.961 303.374 -367.532 363.498 -347.722C397.062 -336.661 427.034 -316.093 457.104 -295.458C462.165 -291.985 467.229 -288.511 472.312 -285.079C507.561 -261.286 543.761 -239.591 586.604 -235.346C644.216 -229.654 706.285 -232.566 768.449 -237.703C791.627 -239.618 814.811 -241.842 837.784 -244.046L837.786 -244.046L837.79 -244.046C876.458 -247.756 914.529 -251.408 950.962 -253.434C965.924 -254.269 980.876 -255.177 995.822 -256.134C995.657 -256.56 995.493 -256.986 995.327 -257.412C980.516 -256.465 965.704 -255.565 950.89 -254.739C914.435 -252.711 876.31 -249.054 837.617 -245.343L837.61 -245.342C814.644 -243.139 791.478 -240.917 768.342 -239.005C706.196 -233.869 644.223 -230.966 586.733 -236.646C544.246 -240.855 508.285 -262.374 473.044 -286.162C467.978 -289.582 462.925 -293.049 457.871 -296.518C427.81 -317.149 397.663 -337.838 363.908 -348.963C303.351 -368.915 234.481 -354.209 165.656 -332.606C146.421 -326.568 127.145 -319.976 108.048 -313.445L108.042 -313.443C92.9953 -308.298 78.0599 -303.19 63.3427 -298.421C59.1613 -297.067 54.9961 -295.739 50.8489 -294.444Z" fill="black"/>
<path d="M64.0628 -319.978C63.7425 -319.399 63.4232 -318.82 63.1051 -318.24C65.4061 -319.074 67.7139 -319.919 70.028 -320.774C85.0912 -326.337 100.402 -332.297 115.857 -338.313C135.276 -345.873 154.923 -353.521 174.592 -360.581C245.202 -385.925 315.44 -403.424 373.962 -381.255C406.083 -369.086 432.63 -346.962 459.219 -324.803L459.223 -324.8C463.503 -321.234 467.783 -317.666 472.088 -314.139C503.102 -288.732 535.356 -265.462 577.464 -260.232C663.268 -249.565 759.164 -254.354 851.215 -258.952C887.311 -260.755 922.816 -262.528 956.889 -263.328C968.762 -263.606 980.573 -264.162 992.336 -264.935C992.162 -265.36 991.989 -265.785 991.815 -266.21C980.213 -265.453 968.565 -264.908 956.858 -264.634C922.707 -263.832 887.154 -262.057 851.031 -260.252L851.029 -260.252C759.021 -255.657 663.308 -250.877 577.625 -261.528C535.918 -266.709 503.916 -289.755 472.917 -315.15C468.627 -318.664 464.356 -322.224 460.08 -325.788C433.503 -347.94 406.768 -370.223 374.425 -382.477C315.406 -404.834 244.74 -387.148 174.15 -361.811C154.496 -354.756 134.797 -347.088 115.346 -339.517L115.342 -339.515L115.336 -339.513C99.8766 -333.495 84.5738 -327.538 69.5749 -321.999C67.7332 -321.319 65.8957 -320.645 64.0628 -319.978Z" fill="black"/>
<path d="M74.7053 -338.302C74.3595 -337.734 74.0148 -337.165 73.6711 -336.595C107.755 -347.562 140.954 -360.676 175.16 -374.189C183.145 -377.343 191.184 -380.519 199.303 -383.694C203.849 -385.474 208.461 -387.31 213.13 -389.169C237.403 -398.832 263.227 -409.113 289.403 -415.325C320.602 -422.73 352.218 -424.33 382.186 -412.236C413.532 -399.58 437.331 -377.033 461.1 -354.516C464.785 -351.024 468.47 -347.533 472.182 -344.08C499.799 -318.39 528.888 -294.837 570.881 -289.14C666.737 -276.102 772.611 -276.33 873.831 -276.547H873.835C903.655 -276.611 933.07 -276.674 961.706 -276.397C970.321 -276.314 978.852 -276.476 987.313 -276.846C987.126 -277.274 986.938 -277.702 986.75 -278.13C978.477 -277.776 970.138 -277.622 961.719 -277.704C933.044 -277.981 903.603 -277.918 873.766 -277.854C772.562 -277.637 666.814 -277.41 571.057 -290.435C529.494 -296.073 500.662 -319.371 473.073 -345.036C469.376 -348.475 465.701 -351.958 462.02 -355.446C438.265 -377.955 414.27 -400.691 382.676 -413.447C352.36 -425.682 320.44 -424.034 289.101 -416.597C262.823 -410.36 236.894 -400.037 212.623 -390.374L212.62 -390.373C207.958 -388.516 203.357 -386.685 198.827 -384.911C190.705 -381.734 182.664 -378.558 174.681 -375.405C140.946 -362.079 108.232 -349.156 74.7053 -338.302Z" fill="black"/>
<path d="M91.2424 -363.751C90.8175 -363.137 90.394 -362.523 89.9718 -361.908C119.158 -372.332 147.779 -384.366 177.251 -396.758L177.259 -396.762C185.881 -400.387 194.576 -404.043 203.379 -407.698C207.24 -409.299 211.177 -410.953 215.183 -412.635C239.503 -422.849 266.321 -434.111 293.63 -441.131C325.432 -449.307 357.81 -451.704 387.586 -440.034C418.881 -427.773 440.95 -406.118 462.909 -384.57L462.911 -384.568C466.168 -381.372 469.423 -378.179 472.705 -375.018C498.091 -350.574 525.065 -328.193 567.302 -322.701C696.325 -305.972 834.615 -299.141 964.971 -293.345C970.001 -293.123 974.984 -293.01 979.925 -292.996C979.716 -293.432 979.506 -293.869 979.296 -294.305C974.58 -294.326 969.825 -294.438 965.029 -294.65C834.668 -300.446 696.431 -307.276 567.47 -323.996C525.67 -329.432 498.953 -351.558 473.612 -375.959C470.345 -379.105 467.099 -382.29 463.847 -385.482L463.842 -385.487C441.896 -407.027 419.625 -428.885 388.063 -441.251C357.923 -453.063 325.232 -450.605 293.305 -442.397C265.894 -435.35 238.979 -424.046 214.663 -413.834C210.661 -412.153 206.729 -410.502 202.877 -408.904C194.067 -405.246 185.368 -401.589 176.745 -397.963L176.741 -397.962C147.839 -385.81 119.789 -374.016 91.2424 -363.751Z" fill="black"/>
<path d="M111.846 -391.474C111.31 -390.802 110.776 -390.128 110.244 -389.453C132.259 -397.945 154.134 -407.218 176.509 -416.704C185.458 -420.498 194.488 -424.326 203.639 -428.151C207.033 -429.57 210.492 -431.029 214.01 -432.513C238.611 -442.893 266.059 -454.473 294.058 -461.793C326.057 -470.158 358.689 -472.932 388.523 -462.032C419.975 -450.546 441.896 -430.143 463.68 -409.867C466.788 -406.974 469.893 -404.084 473.022 -401.223C498.069 -378.324 524.635 -357.337 566.604 -352.161C697.525 -336.026 833.031 -322.032 964.883 -313.281C966.532 -313.172 968.175 -313.075 969.813 -312.99C969.573 -313.439 969.333 -313.888 969.092 -314.337C967.721 -314.411 966.347 -314.493 964.97 -314.585C833.149 -323.334 697.669 -337.325 566.764 -353.458C525.213 -358.583 498.901 -379.334 473.904 -402.187C470.79 -405.035 467.694 -407.917 464.592 -410.805L464.584 -410.812C442.812 -431.081 420.69 -451.676 388.972 -463.26C358.78 -474.29 325.845 -471.453 293.727 -463.057C265.629 -455.711 238.088 -444.091 213.494 -433.714C209.978 -432.231 206.523 -430.773 203.134 -429.356C193.976 -425.528 184.942 -421.698 175.991 -417.904C154.316 -408.716 133.13 -399.735 111.846 -391.474Z" fill="black"/>
<path d="M138.031 -421.859C137.344 -421.121 136.658 -420.38 135.974 -419.638C149.022 -424.796 162.112 -430.128 175.361 -435.525C183.665 -438.907 192.032 -442.315 200.491 -445.722C204.327 -447.266 208.236 -448.858 212.208 -450.475C236.657 -460.43 263.519 -471.368 290.871 -478.3C322.663 -486.356 355.032 -488.976 384.946 -478.386C416.315 -467.3 439.043 -447.664 461.672 -428.113L461.675 -428.11C464.791 -425.418 467.905 -422.727 471.04 -420.061C496.919 -398.047 524.144 -377.738 565.156 -372.21C694.047 -354.857 826.892 -340.088 956.709 -329.454C958.082 -329.341 959.452 -329.238 960.818 -329.144C960.553 -329.599 960.288 -330.055 960.022 -330.509C958.955 -330.586 957.887 -330.668 956.816 -330.756C827.024 -341.388 694.202 -356.154 565.331 -373.505C524.707 -378.98 497.723 -399.079 471.887 -421.056C468.762 -423.715 465.652 -426.402 462.536 -429.094C439.921 -448.637 416.999 -468.444 385.382 -479.618C355.122 -490.331 322.46 -487.653 290.55 -479.566C263.102 -472.61 236.147 -461.634 211.703 -451.681C207.734 -450.064 203.831 -448.475 200.002 -446.934C191.539 -443.525 183.17 -440.117 174.868 -436.735C162.476 -431.687 150.23 -426.699 138.031 -421.859Z" fill="black"/>
<path d="M191.887 -471.998C190.83 -471.145 189.776 -470.288 188.725 -469.427C255.417 -494.38 321.503 -511.139 378.68 -492.263C410.208 -481.863 434.163 -463.421 458.067 -445.018C461.134 -442.657 464.201 -440.296 467.282 -437.953C494.356 -417.367 522.551 -398.191 562.526 -392.333C688.196 -373.946 815.867 -356.26 942.212 -342.525C945.961 -342.118 949.687 -341.788 953.391 -341.53C953.108 -341.987 952.824 -342.444 952.54 -342.901C949.163 -343.146 945.768 -343.453 942.353 -343.824C816.033 -357.556 688.38 -375.24 562.715 -393.625C523.086 -399.433 495.115 -418.432 468.073 -438.993C464.999 -441.331 461.936 -443.689 458.868 -446.051C434.98 -464.444 410.843 -483.029 379.09 -493.504C322.495 -512.188 257.382 -496.214 191.887 -471.998Z" fill="black"/>
<path d="M229.557 -499.658C228.424 -498.902 227.294 -498.142 226.167 -497.378C276.41 -511.274 325.435 -517.285 370.128 -503.962C402.075 -494.449 427.703 -477.539 453.337 -460.625C456.215 -458.726 459.095 -456.826 461.982 -454.938C490.565 -436.24 520.002 -418.589 558.861 -412.382C603.726 -405.227 648.592 -397.717 693.474 -390.205L693.477 -390.204C769.93 -377.408 846.43 -364.603 923.054 -353.53C931.19 -352.352 939.26 -351.584 947.271 -351.179C946.978 -351.631 946.683 -352.082 946.388 -352.533C938.727 -352.949 931.015 -353.698 923.242 -354.823C846.629 -365.895 770.157 -378.695 693.716 -391.489L693.699 -391.492C648.818 -399.004 603.948 -406.514 559.067 -413.672C520.5 -419.832 491.26 -437.347 462.698 -456.031C459.822 -457.912 456.953 -459.805 454.082 -461.7L454.052 -461.72C428.435 -478.624 402.645 -495.642 370.502 -505.214C326.601 -518.301 278.622 -512.856 229.557 -499.658Z" fill="black"/>
<path d="M259.782 -518.341C258.734 -517.742 257.688 -517.139 256.644 -516.533C292.156 -522.185 326.872 -522.676 359.919 -514.108C393.052 -505.509 421.594 -490.277 450.271 -474.973L450.273 -474.972C452.114 -473.989 453.956 -473.006 455.799 -472.025C486.338 -455.766 517.36 -439.912 554.44 -432.507C586.412 -426.114 618.385 -419.653 650.365 -413.19L650.374 -413.188C733.813 -396.327 817.299 -379.455 900.938 -363.761C914.465 -361.223 927.996 -359.993 941.525 -359.828C941.227 -360.268 940.927 -360.708 940.627 -361.147C927.473 -361.355 914.322 -362.579 901.179 -365.045C817.549 -380.738 734.075 -397.607 650.639 -414.468L650.628 -414.47L650.566 -414.483C618.606 -420.941 586.652 -427.399 554.696 -433.789C517.824 -441.152 486.954 -456.919 456.414 -473.178C454.561 -474.164 452.71 -475.152 450.859 -476.14C422.207 -491.432 393.537 -506.733 360.247 -515.373C328.03 -523.726 294.265 -523.518 259.782 -518.341Z" fill="black"/>
<path d="M280.662 -529.64C279.728 -529.163 278.795 -528.682 277.864 -528.198C301.787 -529.452 325.39 -528.11 348.493 -523.073C382.976 -515.56 414.488 -502.056 446.176 -488.476L448.318 -487.557C480.712 -473.678 513.361 -459.862 549.525 -452.518C619.258 -438.363 688.44 -421.01 757.594 -403.664L757.604 -403.661C797.566 -393.637 837.519 -383.616 877.563 -374.215C896.314 -369.808 915.564 -368.323 935.137 -369.021C934.834 -369.447 934.53 -369.873 934.226 -370.297C915.054 -369.676 896.212 -371.174 877.863 -375.487C837.858 -384.878 797.921 -394.896 757.963 -404.919L757.96 -404.919C688.782 -422.271 619.542 -439.639 549.785 -453.798C513.771 -461.112 481.24 -474.874 448.833 -488.758L446.648 -489.695C414.991 -503.262 383.379 -516.81 348.771 -524.35C326.465 -529.212 303.706 -530.649 280.662 -529.64Z" fill="black"/>
<path d="M295.166 -536.775C294.302 -536.367 293.44 -535.957 292.579 -535.544C304.108 -535.251 315.611 -534.374 327.082 -532.811C363.965 -527.782 399.395 -515.731 434.916 -503.177C437.277 -502.343 439.637 -501.507 441.999 -500.67C475.158 -488.921 508.484 -477.114 543.144 -470.606C597.697 -460.369 651.002 -443.933 704.31 -427.341L708.163 -426.142C760.175 -409.949 812.22 -393.746 865.396 -383.182C885.095 -379.269 905.7 -378.6 926.883 -380.301C926.573 -380.714 926.261 -381.126 925.95 -381.538C905.164 -379.928 884.962 -380.628 865.65 -384.463C812.543 -395.014 760.556 -411.199 708.523 -427.398L704.699 -428.588C651.4 -445.178 598.025 -461.637 543.385 -471.89C508.829 -478.378 475.594 -490.153 442.414 -501.909C440.06 -502.743 437.706 -503.577 435.352 -504.409C399.839 -516.96 364.291 -529.056 327.259 -534.106C316.586 -535.56 305.886 -536.422 295.166 -536.775Z" fill="black"/>
<path d="M308.059 -542.651C307.226 -542.285 306.394 -541.918 305.564 -541.548C308.594 -541.305 311.624 -541.026 314.653 -540.709C351.723 -536.82 388.971 -527.731 426.18 -517.847C433.035 -516.025 439.89 -514.177 446.742 -512.329L446.809 -512.311L446.814 -512.31C477.111 -504.14 507.354 -495.985 537.379 -490.248C589.577 -480.272 640.308 -463.073 690.982 -445.383C694.562 -444.133 698.143 -442.881 701.723 -441.628C748.801 -425.16 795.917 -408.678 844.136 -397.621C867.744 -392.199 891.052 -392.749 914.104 -396.59C913.786 -396.979 913.467 -397.368 913.148 -397.756C890.46 -394.047 867.577 -393.578 844.429 -398.895C796.285 -409.935 749.237 -426.392 702.145 -442.865L702.086 -442.886C698.529 -444.13 694.971 -445.374 691.413 -446.617C640.744 -464.305 589.929 -481.534 537.625 -491.531C507.653 -497.258 477.469 -505.397 447.175 -513.566L447.171 -513.567L447.126 -513.579C440.261 -515.43 433.391 -517.283 426.515 -519.109C389.301 -528.995 351.968 -538.108 314.79 -542.009C312.546 -542.243 310.302 -542.457 308.059 -542.651Z" fill="black"/>
<path d="M321.939 -548.504C321.079 -548.156 320.22 -547.806 319.362 -547.454C370.57 -542.313 423.715 -531.588 475.341 -521.169C494.427 -517.318 513.307 -513.508 531.804 -510.037C579.628 -501.063 626.154 -482.6 672.725 -464.118L675.208 -463.133C676.496 -462.622 677.783 -462.112 679.071 -461.601C727.739 -442.309 776.52 -423.469 826.825 -415.999C849.785 -412.589 873.733 -412.58 898.294 -415.032C897.932 -415.434 897.57 -415.836 897.207 -416.237C873.074 -413.89 849.561 -413.943 827.017 -417.291C776.884 -424.736 728.238 -443.517 679.553 -462.816C677.424 -463.66 675.295 -464.504 673.165 -465.349C626.628 -483.817 579.996 -502.323 532.045 -511.321C513.59 -514.784 494.739 -518.588 475.67 -522.436L475.663 -522.438C424.842 -532.694 372.474 -543.263 321.939 -548.504Z" fill="black"/>
<path d="M341.452 -555.937C340.469 -555.586 339.488 -555.231 338.508 -554.874C401.363 -549.645 466.772 -540.521 526.899 -530.009C574.602 -521.683 620.865 -503.562 667.171 -485.425L670.937 -483.95C718.478 -465.337 766.104 -446.987 815.299 -439.59C835.163 -436.604 855.834 -436.026 877.054 -437.295C876.636 -437.708 876.218 -438.119 875.799 -438.531C855.073 -437.357 834.892 -437.966 815.493 -440.882C766.467 -448.253 718.974 -466.546 671.414 -485.166L667.597 -486.661L667.595 -486.662C621.328 -504.784 574.958 -522.947 527.124 -531.296C467.874 -541.654 403.486 -550.668 341.452 -555.937Z" fill="black"/>
<path d="M368.97 -564.911C367.652 -564.522 366.337 -564.128 365.024 -563.729C417.532 -562.116 470.11 -558.108 522.851 -550.239C570.919 -543.06 617.739 -526.661 664.603 -510.246L664.606 -510.245L666.957 -509.422C714.585 -492.742 762.279 -476.206 811.282 -469.568C822.114 -468.104 833.152 -467.255 844.359 -466.945C843.815 -467.398 843.269 -467.85 842.722 -468.301C832.134 -468.646 821.702 -469.478 811.457 -470.863C762.608 -477.48 715.036 -493.968 667.389 -510.655L664.986 -511.496C618.159 -527.898 571.237 -544.333 523.045 -551.531C471.552 -559.214 420.221 -563.219 368.97 -564.911Z" fill="black"/>
<path d="M443.641 -581C441.489 -580.702 439.341 -580.39 437.197 -580.065C465.427 -578.482 493.577 -576.174 521.617 -572.941C570.437 -567.312 618.681 -553.49 667.002 -539.645L667.456 -539.515C669.467 -538.939 671.478 -538.363 673.49 -537.787C709.989 -527.342 746.548 -517.094 783.403 -510.592C782.37 -511.223 781.333 -511.852 780.295 -512.477C744.654 -518.984 709.256 -528.911 673.85 -539.043C671.675 -539.665 669.501 -540.288 667.326 -540.911C619.035 -554.748 570.696 -568.597 521.767 -574.239C495.809 -577.231 469.76 -579.433 443.641 -581Z" fill="black"/>
</svg>
