<svg width="166" height="215" viewBox="0 0 166 215" fill="none" xmlns="http://www.w3.org/2000/svg">
<path d="M176.978 -71.1811C175.022 -71.5073 173.068 -71.8392 171.114 -72.1711C169.453 -72.4531 167.793 -72.7351 166.132 -73.0135C165.428 -73.1314 164.725 -73.2486 164.021 -73.3649C161.936 -73.6207 159.837 -73.8327 157.726 -74C160.511 -73.571 163.291 -73.1154 166.07 -72.6495C167.729 -72.3714 169.389 -72.0896 171.048 -71.8077L171.049 -71.8076C174.764 -71.1767 178.482 -70.5452 182.212 -69.953C180.48 -70.3934 178.735 -70.803 176.978 -71.1811Z" fill="black"/>
<path d="M209.312 -60.1125C208.961 -60.2814 208.608 -60.4488 208.255 -60.615C206.208 -60.8652 204.159 -61.102 202.107 -61.3231C191.472 -62.471 181.152 -64.6706 170.839 -66.8686L170.836 -66.8692C169.168 -67.2248 167.5 -67.5804 165.83 -67.9314C153.845 -70.4518 141.807 -72.7391 129.259 -73.1307C128.382 -73.1583 127.506 -73.18 126.631 -73.1962C125.825 -73.0899 125.021 -72.977 124.22 -72.8577C125.894 -72.8458 127.57 -72.8147 129.247 -72.7618C141.76 -72.3713 153.77 -70.0902 165.754 -67.5703C167.422 -67.2194 169.09 -66.8639 170.759 -66.5083C181.071 -64.3104 191.412 -62.1063 202.067 -60.9561C204.485 -60.6955 206.9 -60.4132 209.312 -60.1125Z" fill="black"/>
<path d="M224.865 -51.4396C224.625 -51.5933 224.385 -51.7464 224.144 -51.8987C217.092 -52.7535 210.075 -53.6405 203.116 -54.5534C191.939 -56.0189 181.229 -58.9282 170.529 -61.8348L170.528 -61.8349C168.792 -62.3065 167.057 -62.7781 165.319 -63.2433C152.878 -66.5747 140.356 -69.5838 127.07 -69.9808C120.253 -70.1844 113.52 -69.8334 106.836 -69.1754C106.151 -68.9861 105.469 -68.7921 104.789 -68.5932C112.147 -69.386 119.552 -69.8361 127.059 -69.6119C140.299 -69.2162 152.785 -66.2176 165.223 -62.8869C166.958 -62.4222 168.693 -61.951 170.428 -61.4796C181.127 -58.5733 191.864 -55.6565 203.068 -54.1875C210.279 -53.2414 217.554 -52.323 224.865 -51.4396Z" fill="black"/>
<path d="M235.023 -44.3079C234.847 -44.4428 234.671 -44.5772 234.495 -44.7113C224.315 -45.3662 214.207 -46.2627 204.28 -47.6071C192.036 -49.2659 180.518 -53.223 168.994 -57.1818L168.992 -57.1825C167.531 -57.6843 166.071 -58.1861 164.608 -58.6833C151.615 -63.1006 138.504 -67.1484 124.273 -67.509C112.185 -67.8123 100.606 -65.6904 89.1424 -63.0298C88.4923 -62.7559 87.8445 -62.4774 87.1992 -62.1943C99.3204 -65.0707 111.511 -67.46 124.264 -67.1401C138.433 -66.781 151.497 -62.7508 164.488 -58.334C165.95 -57.837 167.411 -57.335 168.873 -56.8329C180.393 -52.8752 191.948 -48.9054 204.23 -47.2414C214.344 -45.8717 224.647 -44.9663 235.023 -44.3079Z" fill="black"/>
<path d="M242.834 -37.8739C242.697 -37.9949 242.56 -38.1157 242.423 -38.2362C229.931 -38.0346 217.551 -38.4495 205.595 -40.5032C192.924 -42.6758 181.076 -47.5658 169.225 -52.4567L169.224 -52.4575C167.416 -53.2036 165.608 -53.9496 163.798 -54.686C150.125 -60.2471 136.289 -65.2555 121.078 -65.5064C107.151 -65.7365 94.3093 -61.849 81.5996 -57.4574C79.8165 -56.8413 78.0361 -56.2153 76.2557 -55.5893C74.3829 -54.9308 72.5101 -54.2723 70.6341 -53.6253C70.1437 -53.3305 69.6552 -53.0328 69.1685 -52.7324C71.58 -53.5536 73.983 -54.3986 76.3841 -55.2429L76.385 -55.2432C78.164 -55.8687 79.9418 -56.4939 81.7211 -57.1087C94.4272 -61.4991 107.216 -65.3663 121.072 -65.1374C136.208 -64.8877 149.988 -59.9042 163.658 -54.3443C165.465 -53.609 167.272 -52.8635 169.079 -52.1176L169.08 -52.1173C180.927 -47.2272 192.817 -42.3196 205.532 -40.1395C217.649 -38.0581 230.194 -37.6565 242.834 -37.8739Z" fill="black"/>
<path d="M248.749 -32.351C248.637 -32.4623 248.523 -32.5735 248.41 -32.6845C234.388 -31.1221 220.444 -30.5062 206.984 -33.3158C193.937 -36.034 181.697 -41.9098 169.442 -47.7926C167.264 -48.8383 165.085 -49.8844 162.901 -50.9129C148.443 -57.7218 133.77 -63.7593 117.599 -63.8168C103.433 -63.8691 90.85 -58.8127 78.4697 -53.1065C76.651 -52.2682 74.8368 -51.416 73.0227 -50.5638C66.9789 -47.7249 60.9353 -44.886 54.7243 -42.5617C54.4225 -42.3208 54.1218 -42.0787 53.8221 -41.8355C60.4194 -44.2349 66.8124 -47.2381 73.1878 -50.2331C75.0003 -51.0846 76.8114 -51.9354 78.6254 -52.7715C91.0011 -58.4756 103.52 -63.4997 117.597 -63.4477C133.68 -63.3905 148.287 -57.3866 162.743 -50.5792C164.921 -49.5534 167.096 -48.5091 169.272 -47.4644L169.273 -47.4638C181.526 -41.5815 193.813 -35.6828 206.908 -32.9545C220.521 -30.1131 234.614 -30.7626 248.749 -32.351Z" fill="black"/>
<path d="M253.488 -27.4525C253.391 -27.5576 253.294 -27.6624 253.197 -27.7672C238.215 -24.5307 223.248 -22.4589 208.404 -26.076C194.881 -29.3711 182.138 -36.2203 169.361 -43.0881C166.897 -44.4122 164.432 -45.737 161.96 -47.0372C146.68 -55.0741 131.136 -62.1635 114.007 -62.2314C99.6367 -62.289 87.265 -56.0195 75.1872 -48.9102C73.2852 -47.7907 71.3907 -46.6505 69.4968 -45.5107C60.7812 -40.2652 52.0792 -35.0279 42.7199 -31.8466C42.5253 -31.6527 42.3312 -31.4582 42.1376 -31.2631C51.8112 -34.4339 60.7699 -39.8262 69.6997 -45.2012L69.7005 -45.2016C71.5913 -46.3398 73.4809 -47.4771 75.3757 -48.5925C87.4492 -55.6992 99.7445 -61.9195 114.005 -61.8624C131.036 -61.7948 146.51 -54.7463 161.787 -46.7108C164.252 -45.4144 166.712 -44.0922 169.172 -42.7697L169.173 -42.7691C181.95 -35.9011 194.742 -29.0248 208.316 -25.7175C223.297 -22.067 238.386 -24.1821 253.43 -27.44C253.45 -27.4442 253.469 -27.4483 253.488 -27.4525Z" fill="black"/>
<path d="M257.44 -22.9943C257.354 -23.0957 257.267 -23.197 257.181 -23.2981C256.254 -22.9951 255.328 -22.6965 254.402 -22.404C239.795 -17.7911 225.142 -14.6532 209.823 -18.8676C195.92 -22.6944 182.678 -30.5005 169.367 -38.3471C166.599 -39.979 163.827 -41.6126 161.046 -43.2125C144.91 -52.4969 128.459 -60.641 110.477 -60.6148C95.877 -60.5939 83.7078 -53.1182 71.9331 -44.6403C69.9984 -43.2473 68.0746 -41.8274 66.1523 -40.4088L66.1512 -40.408C56.3591 -33.1812 46.6083 -25.9849 35.6709 -22.516C34.9931 -22.3012 34.3132 -22.102 33.6312 -21.918C33.4954 -21.7552 33.36 -21.5921 33.2249 -21.4287C34.0809 -21.6502 34.9338 -21.895 35.7833 -22.1643C46.7851 -25.6536 56.5949 -32.8944 66.3862 -40.1215C68.3053 -41.538 70.2237 -42.954 72.1503 -44.3412C83.9221 -52.8171 96.0063 -60.225 110.477 -60.2457C128.351 -60.2717 144.726 -52.1764 160.861 -42.8929C163.633 -41.2979 166.399 -39.6675 169.164 -38.0377C182.475 -30.1902 195.769 -22.3531 209.724 -18.5118C225.151 -14.2676 239.892 -17.4345 254.514 -22.0521C255.49 -22.3604 256.465 -22.675 257.44 -22.9943Z" fill="black"/>
<path d="M260.846 -18.8385C260.767 -18.9384 260.688 -19.0382 260.609 -19.1379C258.898 -18.3824 257.188 -17.6405 255.477 -16.9251C241.351 -11.0207 227.089 -6.9069 211.168 -11.7218C196.94 -16.0244 183.214 -24.7243 169.376 -33.4946L169.375 -33.4951C166.32 -35.4316 163.259 -37.3715 160.186 -39.2683C143.214 -49.7451 125.881 -58.8995 107.145 -58.7583C92.3117 -58.6482 80.3278 -50.0103 68.8412 -40.2322C66.9025 -38.5818 64.9787 -36.8997 63.0576 -35.2198C59.2794 -31.9161 55.5112 -28.6211 51.6593 -25.5945C45.8521 -21.0313 39.8721 -17.0928 33.4209 -14.68C31.1714 -13.8385 28.8922 -13.208 26.5875 -12.7623C26.4853 -12.6181 26.3834 -12.4736 26.2817 -12.3289C28.7338 -12.7813 31.1588 -13.4395 33.5512 -14.3345C40.0539 -16.7665 46.0685 -20.7312 51.8889 -25.3047C55.7481 -28.3371 59.5297 -31.6438 63.3128 -34.9517L63.3151 -34.9537C65.2336 -36.6312 67.1524 -38.309 69.082 -39.9516C80.5685 -49.7296 92.461 -58.2802 107.148 -58.3892C125.767 -58.5295 143.018 -49.4316 159.991 -38.9546C163.054 -37.0639 166.108 -35.1282 169.159 -33.1942L169.16 -33.1936C182.999 -24.4218 196.779 -15.6874 211.06 -11.3686C227.11 -6.51489 241.474 -10.672 255.62 -16.5848C257.365 -17.314 259.106 -18.0697 260.846 -18.8385Z" fill="black"/>
<path d="M263.823 -14.9329C263.75 -15.0329 263.676 -15.1329 263.602 -15.2327C261.234 -13.9219 258.871 -12.6299 256.501 -11.3999C242.865 -4.32578 228.995 0.672554 212.386 -4.70136C197.854 -9.40434 183.673 -18.9122 169.338 -28.5228L169.336 -28.5239C166.042 -30.7323 162.74 -32.9461 159.424 -35.1083C141.695 -46.6678 123.564 -56.7461 104.17 -56.4845C89.0827 -56.2801 77.2775 -46.582 66.0659 -35.6319C64.1467 -33.7575 62.2456 -31.847 60.348 -29.9401L60.3469 -29.939C56.6935 -26.2676 53.0531 -22.6094 49.3222 -19.247C43.6561 -14.1406 37.7998 -9.73464 31.4134 -7.03201C28.018 -5.59643 24.5494 -4.72086 21.0247 -4.29783C20.9437 -4.16469 20.8629 -4.03141 20.7823 -3.89799C24.437 -4.31111 28.0356 -5.2029 31.5583 -6.69228C38.0002 -9.41841 43.8924 -13.8558 49.5708 -18.9733C53.309 -22.3422 56.9627 -26.0138 60.6212 -29.6902C62.5172 -31.5954 64.4144 -33.502 66.3254 -35.3684C77.5398 -46.3211 89.2497 -55.9132 104.175 -56.1155C123.444 -56.3754 141.49 -46.3604 159.221 -34.7995C162.527 -32.6441 165.822 -30.4348 169.112 -28.229C183.449 -18.6163 197.685 -9.07093 212.271 -4.35033C229.026 1.07072 243.012 -3.9854 256.672 -11.0725C259.06 -12.3117 261.44 -13.6136 263.823 -14.9329Z" fill="black"/>
<path d="M266.48 -11.203C266.41 -11.3045 266.34 -11.4058 266.27 -11.5071C266.176 -11.4463 266.083 -11.3854 265.99 -11.3245L265.99 -11.3241C263.131 -9.45435 260.292 -7.59742 257.436 -5.84733C244.262 2.22308 230.755 7.9916 213.467 2.1414C199.462 -2.5936 185.836 -11.124 172.917 -19.2118C169.582 -21.2997 166.294 -23.3581 163.059 -25.314C159.915 -27.2165 156.528 -29.4177 152.963 -31.7346C147.033 -35.588 140.61 -39.7618 133.994 -43.4149C123.394 -49.2684 112.242 -53.8207 101.708 -53.6268C86.3159 -53.3436 74.6956 -42.7402 63.7548 -30.7994C61.8831 -28.7567 60.0319 -26.6753 58.1846 -24.5984L58.1839 -24.5977C54.6234 -20.5946 51.0773 -16.6078 47.4283 -12.9459C41.8886 -7.38667 36.1303 -2.59647 29.7639 0.333794C25.4745 2.30769 21.0738 3.28715 16.5953 3.51708C16.5288 3.64339 16.4625 3.7698 16.3963 3.89632C20.9913 3.68525 25.5117 2.6971 29.9194 0.668846C36.3447 -2.28858 42.1398 -7.11478 47.6913 -12.6859C51.3473 -16.3548 54.906 -20.3557 58.4714 -24.3641C60.3172 -26.4393 62.1648 -28.5165 64.0286 -30.5506C74.9745 -42.497 86.4976 -52.9777 101.715 -53.2577C112.147 -53.4498 123.227 -48.9384 133.814 -43.0921C140.423 -39.4427 146.818 -35.2868 152.737 -31.4403C156.306 -29.1209 159.702 -26.9141 162.867 -24.9986C166.09 -23.0497 169.37 -20.9963 172.7 -18.9116C185.622 -10.8211 199.297 -2.25955 213.347 2.49088C230.795 8.3952 244.427 2.5552 257.63 -5.53294C260.492 -7.28616 263.336 -9.14641 266.194 -11.016C266.289 -11.0783 266.384 -11.1407 266.48 -11.203Z" fill="black"/>
<path d="M268.886 -7.59592C268.819 -7.69959 268.752 -7.80318 268.684 -7.90668C268.368 -7.67522 268.052 -7.44354 267.737 -7.21179C267.161 -6.78844 266.586 -6.36488 266.012 -5.94203C263.393 -4.01292 260.795 -2.09839 258.177 -0.285065C245.414 8.55516 232.237 14.9568 214.327 8.77524C199.998 3.82864 186.006 -5.18925 172.809 -13.6949L172.807 -13.6957C169.333 -15.9349 165.914 -18.1385 162.558 -20.223C159.348 -22.2188 155.879 -24.5418 152.214 -26.9953L152.213 -26.9957C151.046 -27.7771 149.86 -28.5717 148.655 -29.3731C143.67 -32.69 138.386 -36.1225 132.961 -39.2117C122.116 -45.3871 110.683 -50.2068 99.9275 -49.9762C84.1688 -49.6405 72.7499 -38.3449 62.0781 -25.6528C60.2848 -23.5201 58.5131 -21.3484 56.745 -19.1812L56.7445 -19.1806C53.2426 -14.8881 49.7549 -10.6131 46.1423 -6.69262C40.7081 -0.795395 35.0104 4.27708 28.5986 7.365C23.5322 9.80389 18.3391 10.7714 13.0644 10.698C13.0085 10.8201 12.9528 10.9423 12.8972 11.0645C18.2763 11.161 23.5814 10.1901 28.7599 7.69729C35.234 4.57939 40.9693 -0.532951 46.4153 -6.44305C50.0351 -10.3713 53.5355 -14.6618 57.042 -18.9598C58.8084 -21.125 60.5767 -23.2923 62.3622 -25.4158C73.0404 -38.1154 84.3616 -49.2754 99.9354 -49.6072C110.585 -49.8356 121.944 -45.0597 132.777 -38.8913C138.19 -35.8087 143.466 -32.3821 148.449 -29.0662C149.651 -28.2663 150.837 -27.4728 152.003 -26.692L152.003 -26.6915C155.669 -24.2372 159.146 -21.9093 162.362 -19.9099C165.705 -17.8332 169.116 -15.6349 172.585 -13.3993L172.586 -13.3985C185.787 -4.88988 199.83 4.16118 214.205 9.12399C232.287 15.3645 245.594 8.87994 258.388 0.0179596C261.011 -1.79875 263.615 -3.71698 266.233 -5.64625L266.241 -5.6519C266.812 -6.07264 267.384 -6.49391 267.957 -6.91476C268.266 -7.14198 268.576 -7.36908 268.886 -7.59592Z" fill="black"/>
<path d="M271.117 -4.02844C271.053 -4.13445 270.988 -4.24038 270.924 -4.34622C269.183 -3.0011 267.463 -1.63448 265.753 -0.275551C263.387 1.60535 261.039 3.47153 258.678 5.24561C252.466 9.91306 246.141 13.962 239.065 16.0543C231.994 18.1451 224.163 18.2853 214.934 15.1165C200.437 10.1368 186.195 0.763725 172.859 -8.01365L172.858 -8.01432C169.265 -10.3794 165.737 -12.7012 162.287 -14.8822C159.032 -16.9391 155.52 -19.3318 151.812 -21.8573L151.808 -21.8605C150.642 -22.6546 149.457 -23.4618 148.254 -24.2759C143.228 -27.6787 137.903 -31.1982 132.431 -34.3652C121.491 -40.6959 109.94 -45.6334 98.9955 -45.3976C82.7728 -45.0409 71.5764 -33.3187 61.1754 -20.1729C59.4955 -18.0497 57.8367 -15.8898 56.1804 -13.7332L56.1796 -13.7321C52.7001 -9.20141 49.232 -4.68549 45.6035 -0.556007C40.2502 5.53663 34.5662 10.7654 28.0225 13.9254C22.2079 16.7341 16.2866 17.5877 10.3029 17.1392C10.255 17.2589 10.2073 17.3787 10.1597 17.4985C16.2363 17.9708 22.2625 17.118 28.1842 14.2576C34.7935 11.0658 40.5163 5.79418 45.8824 -0.312927C49.5187 -4.45135 52.9997 -8.98388 56.4833 -13.5199C58.1381 -15.6745 59.7935 -17.8301 61.4665 -19.9445C71.8735 -33.0978 82.9723 -44.6761 99.0035 -45.0286C109.841 -45.2621 121.318 -40.3694 132.244 -34.046C137.705 -30.8859 143.022 -27.3724 148.046 -23.9706C149.245 -23.1592 150.427 -22.354 151.59 -21.5614L151.599 -21.5557L151.599 -21.5554C155.308 -19.029 158.828 -16.6312 162.089 -14.5706C165.525 -12.3982 169.043 -10.0823 172.631 -7.72098L172.631 -7.72069C185.972 1.06004 200.267 10.4688 214.813 15.4654C224.114 18.6588 232.024 18.5213 239.17 16.4082C246.311 14.2967 252.679 10.2154 258.901 5.54027C261.28 3.75285 263.634 1.88133 266.003 -0.00131226C267.696 -1.34678 269.396 -2.69823 271.117 -4.02844Z" fill="black"/>
<path d="M273.416 -0.0934982C273.355 -0.201683 273.294 -0.309792 273.232 -0.417801C270.765 1.43056 268.349 3.34402 265.952 5.24247C263.565 7.13348 261.196 9.00958 258.814 10.7916C252.597 15.4434 246.269 19.4734 239.205 21.545C232.146 23.615 224.342 23.7325 215.165 20.5404C200.647 15.4916 186.384 6.26529 172.965 -2.41532C169.304 -4.78371 165.705 -7.11162 162.182 -9.3028C158.836 -11.3838 155.216 -13.8194 151.392 -16.3928L151.391 -16.3935L151.384 -16.3979C150.303 -17.1252 149.206 -17.8634 148.094 -18.6078C143.046 -21.9866 137.697 -25.4887 132.206 -28.6484C121.23 -34.9645 109.658 -39.9277 98.7562 -39.7862C82.4791 -39.5711 71.3503 -27.7816 61.0318 -14.5422C59.3667 -12.4057 57.7229 -10.2317 56.0817 -8.0611L56.0805 -8.05952C52.6283 -3.49379 49.1873 1.05723 45.5813 5.2147C40.2631 11.3463 34.605 16.5986 28.0647 19.7453C21.5143 22.8985 14.8748 23.5979 8.18839 22.7594C8.14651 22.8781 8.10483 22.9969 8.06329 23.1157C14.8329 23.9768 21.572 23.2807 28.2259 20.0777C34.8333 16.8987 40.5308 11.6023 45.8618 5.45598C49.4756 1.28941 52.9295 -3.27853 56.3858 -7.84966L56.3891 -7.854C58.028 -10.0214 59.6673 -12.1895 61.3246 -14.3159C71.6493 -27.5633 82.6794 -39.2046 98.761 -39.4171C109.558 -39.5573 121.056 -34.6381 132.021 -28.3288C137.501 -25.1757 142.841 -21.6794 147.887 -18.3015C148.999 -17.557 150.097 -16.8181 151.18 -16.09L151.18 -16.0895C155.006 -13.5154 158.634 -11.0747 161.985 -8.98975C165.496 -6.80691 169.085 -4.48501 172.74 -2.1204L172.74 -2.12008C186.164 6.56383 200.478 15.8238 215.043 20.8888C224.291 24.1059 232.175 23.9913 239.31 21.8991C246.439 19.8085 252.809 15.7462 259.037 11.0867C261.437 9.29112 263.812 7.40968 266.201 5.51697C268.579 3.63348 270.971 1.7388 273.416 -0.0934982Z" fill="black"/>
<path d="M275.775 4.26752C275.718 4.15742 275.661 4.0474 275.603 3.93745C273.229 5.55349 270.9 7.23254 268.592 8.91441C268.035 9.32066 267.479 9.72705 266.924 10.1328C264.286 12.0608 261.67 13.9735 259.034 15.783C246.276 24.5411 233.123 30.8467 215.291 24.608C200.746 19.5208 186.526 10.9143 172.945 2.69495L172.944 2.69466C169.2 0.428314 165.504 -1.80859 161.863 -3.93417C158.281 -6.02571 154.364 -8.52502 150.212 -11.1746C149.353 -11.7228 148.484 -12.2775 147.606 -12.8363C142.484 -16.0946 137.053 -19.4922 131.494 -22.5693C120.382 -28.7204 108.736 -33.607 98.0138 -33.5284C82.1021 -33.4077 71.0618 -21.7368 60.8354 -8.605C59.1292 -6.41399 57.446 -4.18272 55.7662 -1.95592C52.4027 2.50266 49.0529 6.94329 45.5589 11.0068C40.3224 17.0968 34.7818 22.315 28.4297 25.4407C21.1846 29.0064 13.8098 29.528 6.37189 28.2617C6.33536 28.3802 6.29904 28.4989 6.26282 28.6175C13.7757 29.904 21.247 29.3873 28.5939 25.7716C35.0125 22.6132 40.592 17.3507 45.8404 11.2468C49.3418 7.17477 52.7044 2.71729 56.0724 -1.74718C57.7504 -3.97155 59.4298 -6.19777 61.1283 -8.37879C71.3619 -21.52 82.3024 -33.0401 98.0165 -33.1593C108.637 -33.2371 120.212 -28.3925 131.314 -22.2467C136.862 -19.1754 142.286 -15.7831 147.406 -12.5253C148.283 -11.9677 149.15 -11.414 150.008 -10.8665L150.01 -10.8654C154.162 -8.21572 158.086 -5.71143 161.676 -3.61575C165.304 -1.49712 168.992 0.73497 172.732 2.99828L172.732 2.99859C186.318 11.2209 200.583 19.8549 215.168 24.9563C233.171 31.2544 246.455 24.8668 259.244 16.0869C261.885 14.2739 264.507 12.3572 267.145 10.429C267.7 10.0236 268.255 9.61776 268.811 9.21225C271.106 7.53948 273.419 5.87198 275.775 4.26752Z" fill="black"/>
<path d="M278.05 8.84534C277.997 8.73362 277.943 8.62199 277.89 8.51041C274.995 10.2282 272.16 12.036 269.351 13.8439C268.921 14.121 268.491 14.3982 268.061 14.675C265.196 16.5217 262.354 18.3538 259.494 20.0782C246.345 28.0073 232.877 33.6289 215.456 27.7676C200.774 22.8225 186.418 14.906 172.551 7.25903C168.771 5.17458 165.027 3.11015 161.323 1.13138C157.495 -0.912941 153.28 -3.39963 148.805 -6.0393C148.137 -6.43354 147.463 -6.83118 146.783 -7.23128C141.556 -10.3092 136.015 -13.5304 130.364 -16.4495C119.067 -22.2845 107.303 -26.9268 96.7036 -26.7906C81.1534 -26.5964 70.3988 -15.1287 60.4591 -2.22762C58.7779 -0.0454788 57.1203 2.17723 55.4664 4.3951L55.4661 4.39553C52.2217 8.74606 48.9913 13.078 45.623 17.0488C40.54 23.0409 35.1628 28.1855 28.9936 31.2927C21.1042 35.2649 12.9963 35.5421 4.78934 33.7915C4.75784 33.9106 4.72647 34.0298 4.69525 34.149C12.9684 35.9162 21.1708 35.6449 29.1608 31.6221C35.3959 28.4817 40.8115 23.2928 45.9061 17.287C49.2815 13.3077 52.5247 8.95885 55.7737 4.60218C57.4259 2.38663 59.0797 0.16906 60.7531 -2.00293C70.6999 -14.9133 81.3555 -26.2298 96.7084 -26.4215C107.21 -26.5565 118.904 -21.9527 130.193 -16.1218C135.834 -13.2079 141.368 -9.99127 146.595 -6.91356C147.27 -6.51601 147.94 -6.12074 148.604 -5.72875L148.615 -5.72228C153.089 -3.08303 157.312 -0.591736 161.148 1.45665C164.841 3.42995 168.578 5.49062 172.354 7.57272C186.225 15.222 200.621 23.1604 215.337 28.1173C232.915 34.0314 246.506 28.3418 259.686 20.3939C262.551 18.6665 265.398 16.8311 268.263 14.9847C268.692 14.7079 269.122 14.4308 269.552 14.1539C272.351 12.3524 275.172 10.5539 278.05 8.84534Z" fill="black"/>
<path d="M280.24 13.6845C280.191 13.5712 280.142 13.458 280.093 13.3449C276.462 15.143 272.909 17.0654 269.385 18.972C266.299 20.6418 263.235 22.2996 260.161 23.8509C246.545 30.7222 232.693 35.5306 215.641 30.2381C200.794 25.6292 186.236 18.5105 172.044 11.5713C168.203 9.69312 164.389 7.82806 160.603 6.02946C156.479 4.07225 151.917 1.64949 147.078 -0.920471L147.077 -0.920853L147.028 -0.946922C146.583 -1.1831 146.136 -1.42052 145.687 -1.65891C140.332 -4.50038 134.666 -7.48077 128.908 -10.1765C117.398 -15.5652 105.497 -19.8298 94.963 -19.5626C79.7697 -19.169 69.456 -7.98891 59.9516 4.56738C58.3504 6.68272 56.7726 8.83662 55.1979 10.9863C52.0902 15.2287 48.9946 19.4545 45.7555 23.3347C40.8776 29.1778 35.6931 34.2123 29.6938 37.301C21.2323 41.6569 12.4077 41.6342 3.43192 39.3677C3.40518 39.4878 3.37857 39.6081 3.35217 39.7284C12.3845 42.0071 21.3021 42.0364 29.864 37.6289C35.9285 34.5066 41.1508 29.4279 46.0404 23.5706C49.2866 19.6821 52.3946 15.4394 55.5067 11.1911L55.5072 11.1905C57.0801 9.04328 58.6541 6.89464 60.2475 4.78957C69.7579 -7.77463 79.9748 -18.8051 94.9725 -19.1937C105.414 -19.4585 117.248 -15.2279 128.75 -9.84246C134.499 -7.15112 140.158 -4.17471 145.513 -1.33317C145.979 -1.08569 146.443 -0.839241 146.905 -0.594086C151.742 1.97484 156.312 4.40159 160.443 6.36263C164.22 8.15675 168.028 10.0187 171.864 11.8948L171.866 11.8957C186.061 18.8367 200.654 25.9722 215.53 30.5905C232.722 35.9262 246.684 31.0659 260.329 24.1802C263.424 22.6184 266.501 20.9537 269.595 19.2795C273.104 17.3811 276.635 15.4705 280.24 13.6845Z" fill="black"/>
<path d="M282.303 18.7362C282.259 18.6214 282.214 18.5066 282.17 18.3919C278.378 19.881 274.65 21.4802 270.949 23.0682L270.948 23.0685C267.629 24.4925 264.331 25.9075 261.026 27.2262C246.877 32.8718 232.577 36.7703 215.876 32.1765C200.822 28.0419 186.005 21.8075 171.445 15.6813L171.442 15.6805C167.542 14.0395 163.661 12.4062 159.798 10.8232C155.356 9.00346 150.432 6.71007 145.221 4.28251L144.45 3.92341C138.955 1.36429 133.156 -1.3231 127.284 -3.74205C115.545 -8.57769 103.491 -12.3521 92.9697 -11.8756C78.0869 -11.2037 68.3456 -0.36393 59.4018 11.762C57.9427 13.7403 56.5053 15.7522 55.0699 17.7612L55.0692 17.7622C52.0975 21.9216 49.1348 26.0683 46.0076 29.8773C41.3726 35.5231 36.3943 40.4029 30.5311 43.4446C21.5367 48.112 12.0206 47.739 2.30557 44.9498C2.28348 45.0716 2.26157 45.1934 2.23978 45.3152C12.0008 48.1114 21.6078 48.4913 30.7023 43.7719C36.6307 40.6964 41.6468 35.7722 46.2945 30.1109C49.4296 26.2923 52.4052 22.1275 55.3814 17.962L55.3827 17.9602C56.8159 15.9543 58.2492 13.9482 59.7005 11.9806C68.6483 -0.150879 78.2961 -10.8437 92.9865 -11.5069C103.42 -11.9794 115.41 -8.23387 127.142 -3.40097C133.005 -0.985641 138.798 1.69838 144.293 4.25776L145.068 4.61842L145.068 4.61871C150.276 7.04472 155.207 9.34145 159.657 11.1646C163.513 12.7448 167.39 14.3763 171.288 16.0163C185.851 22.1438 200.698 28.3906 215.777 32.5323C232.597 37.1585 246.99 33.2241 261.163 27.5689C264.488 26.2424 267.798 24.8222 271.125 23.3951C274.818 21.811 278.531 20.2184 282.303 18.7362Z" fill="black"/>
<path d="M284.193 23.9204C284.153 23.8039 284.113 23.6874 284.073 23.5709C280.244 24.6831 276.457 25.8793 272.688 27.0696C269.134 28.1924 265.595 29.31 262.054 30.3468C247.325 34.6595 232.519 37.5872 216.141 33.7704C200.853 30.2112 185.744 24.9332 170.816 19.7184C166.859 18.3358 162.913 16.9575 158.981 15.617C154.159 13.9747 148.816 11.8547 143.18 9.61847L143.168 9.61351C137.529 7.37619 131.599 5.02351 125.616 2.92175C113.653 -1.28004 101.451 -4.48853 90.9021 -3.76085C75.9462 -2.73212 67.0866 7.92585 58.9757 19.6424C57.8929 21.2066 56.8236 22.7893 55.755 24.3712C52.8144 28.7238 49.8782 33.0701 46.6758 37.0053C42.3121 42.3674 37.469 46.9463 31.4812 49.7092C21.6357 54.2542 11.5734 53.5018 1.43436 50.3316C1.41675 50.4551 1.39929 50.5787 1.38202 50.7022C11.5562 53.8739 21.6993 54.6317 31.637 50.0441C37.6973 47.2478 42.5829 42.621 46.9637 37.2377C50.1774 33.2886 53.1275 28.9217 56.0711 24.5646C57.1378 22.9856 58.2036 21.408 59.2808 19.8519C67.3937 8.13247 76.1639 -2.37711 90.9277 -3.39263C101.396 -4.11472 113.537 -0.929672 125.492 3.26984C131.468 5.36873 137.391 7.71864 143.031 9.95641L143.049 9.96359C148.68 12.198 154.031 14.3209 158.861 15.9662C162.787 17.3047 166.728 18.6814 170.684 20.0632C185.614 25.2789 200.748 30.5656 216.056 34.1298C232.529 37.9687 247.411 35.019 262.159 30.701C265.716 29.6593 269.265 28.5385 272.826 27.4138C276.593 26.2241 280.373 25.03 284.193 23.9204Z" fill="black"/>
<path d="M285.915 29.2779C285.879 29.1595 285.844 29.0411 285.808 28.9228C282.168 29.6534 278.54 30.4392 274.918 31.2237C271.714 31.9176 268.515 32.6105 265.316 33.2635C250.616 36.2638 235.906 38.4246 220.715 35.9999C202.266 33.0591 184.083 27.8813 165.999 22.7318C159.274 20.8169 152.564 18.9059 145.858 17.1153C141.925 16.0669 137.687 14.7544 133.271 13.387L132.529 13.1571C127.848 11.7079 122.979 10.211 118.08 8.91595C108.286 6.32669 98.3544 4.53802 89.5428 5.55387C74.2427 7.31641 65.881 17.7727 58.0871 28.9953C57.3573 30.0461 56.6326 31.1035 55.9076 32.1612L55.9053 32.1646C48.8747 42.4221 41.8253 52.7071 30.0049 57.2977C20.5523 60.9729 10.7 59.7314 0.710114 56.2923C0.697449 56.4182 0.684937 56.5442 0.672577 56.6702C10.6838 60.1043 20.6042 61.349 30.1395 57.6416C42.0731 53.007 49.1883 42.6229 56.2065 32.3803C56.9343 31.3183 57.661 30.2577 58.3919 29.2052C66.1857 17.9826 74.4642 7.66245 89.5855 5.92052C98.3251 4.91296 108.201 6.68611 117.985 9.27271C122.875 10.5655 127.737 12.0602 132.419 13.5095L133.163 13.7401C137.576 15.1068 141.821 16.4214 145.762 17.4718C152.454 19.2589 159.157 21.1676 165.877 23.0812C183.968 28.2328 202.184 33.4198 220.656 36.3644C235.917 38.8001 250.681 36.6272 265.39 33.6251C268.599 32.9701 271.805 32.2758 275.013 31.5811C278.642 30.7951 282.274 30.0086 285.915 29.2779Z" fill="black"/>
<path d="M287.371 34.4866C287.339 34.3661 287.308 34.2457 287.277 34.1253C283.743 34.4962 280.213 34.897 276.685 35.2975C273.336 35.6778 269.988 36.0579 266.642 36.4119C251.498 38.0139 236.368 39.0835 221.126 37.2401C202.447 34.9783 183.921 31.0761 165.447 27.1848C158.629 25.7486 151.818 24.3139 145.008 22.9637C140.719 22.1145 136.117 21.0028 131.345 19.8483L131.212 19.8161C126.482 18.6719 121.589 17.488 116.678 16.4804C106.768 14.4469 96.7712 13.1273 87.885 14.3049C73.1478 16.2564 65.2455 26.1702 57.8919 36.7747C57.2172 37.7477 56.5472 38.7263 55.877 39.7051C49.2302 49.4134 42.5662 59.1467 31.1664 63.6289C21.328 67.4971 10.8843 65.9085 0.247986 62.0194C0.240173 62.1478 0.232513 62.2761 0.225037 62.4045C10.8723 66.2827 21.3813 67.873 31.3025 63.9722C42.8143 59.446 49.5431 49.6151 56.1781 39.921L56.179 39.9197C56.851 38.938 57.5219 37.9577 58.1968 36.9845C65.5487 26.3824 73.3702 16.5993 87.9339 14.6708C96.7561 13.5017 106.703 14.8104 116.604 16.8419C121.508 17.8482 126.396 19.0308 131.127 20.1755L131.257 20.2069C136.027 21.361 140.638 22.4747 144.936 23.3257C151.735 24.6739 158.54 26.1073 165.355 27.5427L165.356 27.5429C183.835 31.4353 202.385 35.3426 221.082 37.6065C236.367 39.4552 251.532 38.3815 266.681 36.7789C270.034 36.4242 273.385 36.0437 276.737 35.6632L276.738 35.6631C280.281 35.2608 283.825 34.8585 287.371 34.4866Z" fill="black"/>
<path d="M288.607 39.6416C288.58 39.519 288.553 39.3964 288.525 39.2739C285.221 39.3293 281.918 39.3948 278.614 39.4604H278.613C275.074 39.5306 271.535 39.6008 267.997 39.6585C252.492 39.9114 237.001 39.9243 221.549 38.6474C202.605 37.0866 183.736 34.4706 164.885 31.857L164.885 31.8569C158.044 30.9085 151.206 29.9605 144.368 29.0633C139.94 28.4824 135.24 27.6722 130.397 26.8239C130.026 26.7589 129.654 26.6937 129.281 26.6284C124.791 25.8409 120.187 25.0337 115.578 24.3585C105.596 22.8963 95.5706 22.0507 86.5736 23.3689C72.4103 25.4411 64.8859 34.7648 57.8823 44.7069C57.255 45.5974 56.6319 46.4927 56.0087 47.3883C49.663 56.5065 43.3012 65.648 32.2975 69.9703C22.1414 73.9612 11.1933 72.0573 0.0106201 67.7856C0.0078125 67.9164 0.00515747 68.0473 0.00268555 68.1782C11.1864 72.4332 22.1957 74.3367 32.4335 70.3137C43.5474 65.948 49.9733 56.7117 56.308 47.6066L56.312 47.6009C56.936 46.704 57.5591 45.8084 58.1856 44.9189C65.1859 34.9816 72.6313 25.7818 86.6275 23.7341C95.5692 22.424 105.551 23.2628 115.524 24.7236C120.128 25.3981 124.727 26.2045 129.219 26.9922L130.332 27.1874C135.175 28.0356 139.883 28.8472 144.32 29.4292C151.152 30.3257 157.987 31.2732 164.825 32.2214C183.679 34.8354 202.563 37.4535 221.518 39.0153C236.99 40.2937 252.496 40.2805 268.003 40.0276C271.542 39.9698 275.081 39.8996 278.62 39.8294L278.626 39.8293C281.953 39.7633 285.28 39.6973 288.607 39.6416Z" fill="black"/>
<path d="M289.638 44.7631C289.616 44.6384 289.593 44.5136 289.57 44.389C285.175 44.1144 280.78 43.835 276.386 43.5557C258.261 42.4036 240.137 41.2515 221.992 40.4304C202.66 39.5545 183.351 38.2119 164.041 36.8692C157.372 36.4055 150.702 35.9418 144.032 35.4973C138.762 35.1446 133.206 34.5278 127.522 33.8968C123.371 33.436 119.152 32.9676 114.926 32.5889C104.926 31.6929 94.9151 31.3026 85.7865 32.7247C72.1821 34.8387 64.915 43.5323 58.137 52.7754C57.5425 53.5861 56.9518 54.4009 56.361 55.2158C50.2067 63.7051 44.0394 72.2123 33.4087 76.3112C22.9623 80.3448 11.6078 78.1731 0 73.5992C0.00238037 73.7327 0.00497437 73.8661 0.00772095 73.9995C11.6072 78.551 23.0175 80.7193 33.5425 76.6554C44.281 72.5149 50.5121 63.9173 56.6561 55.4398C57.2489 54.6217 57.841 53.8048 58.4363 52.9931C65.2092 43.757 72.3988 35.1786 85.8438 33.0894C94.9262 31.6745 104.901 32.0612 114.893 32.9566C119.099 33.3335 123.313 33.8011 127.464 34.2618L127.465 34.2619C133.16 34.8939 138.735 35.5127 144.007 35.8655C150.675 36.3099 157.343 36.7735 164.011 37.2372C183.322 38.5799 202.638 39.923 221.975 40.7991C240.119 41.6202 258.234 42.7717 276.353 43.9235L276.354 43.9236L276.357 43.9237C280.784 44.2051 285.211 44.4865 289.638 44.7631Z" fill="black"/>
<path d="M290.482 49.9011C290.463 49.7745 290.444 49.648 290.426 49.5215C286.881 49.0583 283.339 48.58 279.797 48.1017L279.793 48.1012C276.709 47.6848 273.626 47.2683 270.541 46.862C254.604 44.7628 238.638 42.9337 222.457 42.7667C205.045 42.5929 187.633 42.521 170.222 42.4492H170.221L170.206 42.4491C161.505 42.4132 152.804 42.3773 144.104 42.3286C138.223 42.2957 132.09 41.9936 125.863 41.6868L125.862 41.6867C122.213 41.5069 118.531 41.3255 114.849 41.1958C104.891 40.845 94.9411 40.8731 85.6709 42.3413C72.5895 44.4184 65.425 52.4415 58.713 60.9488C58.1349 61.6815 57.5602 62.4176 56.9855 63.1538C50.8792 70.976 44.7649 78.8085 34.4583 82.6206C23.7228 86.5897 12.0912 84.2176 0.220825 79.4453C0.228699 79.5814 0.236694 79.7174 0.244934 79.8534C12.0988 84.598 23.779 86.9626 34.5873 82.9666C44.9978 79.1161 51.1758 71.1999 57.2725 63.3879L57.28 63.3783C57.8544 62.6424 58.428 61.9074 59.0044 61.1768C65.7097 52.6781 72.7977 44.7591 85.729 42.7059C94.963 41.2433 104.884 41.2141 114.836 41.5647C118.506 41.694 122.183 41.8751 125.83 42.0547L125.831 42.0548C132.065 42.3619 138.214 42.6648 144.102 42.6977C152.807 42.7464 161.513 42.7823 170.218 42.8182H170.222C187.633 42.8901 205.043 42.962 222.453 43.1358C238.61 43.3025 254.558 45.1291 270.493 47.2279C273.576 47.634 276.658 48.0504 279.742 48.4668C283.32 48.95 286.899 49.4333 290.482 49.9011Z" fill="black"/>
<path d="M291.146 55.1296C291.132 55.0018 291.118 54.874 291.104 54.7463C287.581 54.0935 284.065 53.4153 280.549 52.7373L280.548 52.7372C277.557 52.1602 274.565 51.5834 271.572 51.0225C255.553 48.021 239.478 45.4781 222.933 45.8331C213.019 46.048 202.889 46.1467 192.645 46.2465L192.644 46.2466C157.164 46.5922 120.322 46.9512 86.3836 52.1975C73.7898 54.1482 66.5422 61.4684 59.6962 69.2065C59.1271 69.8497 58.5609 70.4957 57.9946 71.1418L57.9892 71.148C51.7386 78.2792 45.4861 85.4126 35.4052 88.8561C24.3649 92.6307 12.6116 90.1401 0.676422 85.2917C0.690033 85.4304 0.703827 85.5689 0.717834 85.7074C12.63 90.5233 24.4222 93.0014 35.5254 89.2052C45.7047 85.7281 52.0206 78.5207 58.2622 71.3979C58.8326 70.7471 59.4022 70.097 59.9742 69.4505C66.8126 61.721 73.985 54.4915 86.4405 52.5623C120.35 47.3204 157.155 46.9617 192.63 46.616C202.879 46.5161 213.016 46.4173 222.941 46.2021C239.445 45.8479 255.488 48.3844 271.504 51.3853C274.49 51.9449 277.476 52.5207 280.464 53.0969L280.471 53.0984C284.025 53.7838 287.582 54.4697 291.146 55.1296Z" fill="black"/>
<path d="M291.628 60.4757C291.619 60.3472 291.609 60.2188 291.6 60.0904C288.079 59.2809 284.565 58.4341 281.053 57.5874C278.777 57.039 276.502 56.4906 274.225 55.9525C258.811 52.3095 243.331 49.1386 227.256 49.6296C181.369 51.0275 132.876 56.0451 87.4031 62.1471C75.1057 63.7987 67.3492 70.8886 59.8536 78.1819C59.4856 78.54 59.1182 78.8985 58.751 79.257C51.63 86.207 44.56 93.1072 33.8316 95.5886C23.0638 98.0825 12.2273 95.6367 1.38113 91.2145C1.40091 91.3557 1.42087 91.4968 1.44101 91.6379C12.2593 96.0243 23.1131 98.45 33.9154 95.9481C44.7479 93.4427 51.887 86.474 58.9937 79.5369C59.3666 79.1729 59.7394 78.809 60.1126 78.4459C67.6078 71.1529 75.2872 64.1467 87.4526 62.5129C132.919 56.4118 181.398 51.3959 227.267 49.9985C243.29 49.5091 258.728 52.6692 274.139 56.3116C276.413 56.849 278.686 57.3969 280.961 57.9451C284.511 58.8009 288.065 59.6575 291.628 60.4757Z" fill="black"/>
<path d="M291.926 66.2278C291.921 66.0999 291.917 65.972 291.913 65.8442C288.076 64.8916 284.252 63.8804 280.429 62.8695C278.483 62.355 276.538 61.8405 274.591 61.334C259.255 57.3429 243.845 53.8418 227.619 54.6674C204.764 55.8256 181.827 59.0028 158.925 62.5309C153.974 63.2936 149.025 64.0726 144.079 64.8513L144.078 64.8514C126.14 67.675 108.239 70.4928 90.4229 72.5035C78.3281 73.8711 69.94 80.114 61.7666 86.5087C61.413 86.7854 61.0598 87.0624 60.7067 87.3392C52.8912 93.4671 45.1383 99.5459 34.3528 101.542C23.4211 103.564 12.8007 101.162 2.29919 96.938C2.32513 97.0813 2.35129 97.2245 2.37766 97.3677C12.8467 101.553 23.4725 103.93 34.4204 101.905C45.2981 99.8917 53.1167 93.7607 60.9184 87.643C61.2774 87.3615 61.6364 87.08 61.9956 86.799C70.1692 80.404 78.4841 74.2249 90.4647 72.8703C108.29 70.8586 126.202 68.039 144.14 65.2153C149.086 64.4368 154.033 63.6579 158.982 62.8956C181.882 59.3679 204.803 56.1932 227.638 55.036C243.802 54.2136 259.164 57.7006 274.498 61.6911C276.442 62.197 278.386 62.7111 280.331 63.2255L280.331 63.2256C284.188 64.2455 288.049 65.2666 291.926 66.2278Z" fill="black"/>
<path d="M291.998 72.0046C291.999 71.8785 291.999 71.7523 292 71.626C288.488 70.8063 284.982 69.9474 281.476 69.0885C278.981 68.4773 276.486 67.866 273.99 67.269C258.481 63.5607 242.905 60.4024 226.813 61.2174C195.894 62.776 164.499 67.3323 133.396 71.8462C119.74 73.8281 106.14 75.8019 92.6614 77.5102C80.5874 79.0396 71.586 85.2656 62.7625 91.59C62.4612 91.806 62.16 92.0221 61.8589 92.2382C53.3364 98.3543 44.8909 104.415 33.8724 106.371C23.5549 108.203 13.4376 106.178 3.40854 102.45C3.44028 102.593 3.47223 102.736 3.50439 102.88C13.4985 106.569 23.6127 108.568 33.9374 106.735C45.0408 104.763 53.5484 98.6576 62.055 92.5524C62.363 92.3314 62.6709 92.1104 62.979 91.8896C71.8062 85.5625 80.7383 79.3925 92.7082 77.8763C106.202 76.1662 119.81 74.1913 133.47 72.2087L133.471 72.2086C164.565 67.6958 195.93 63.1436 226.831 61.586C242.867 60.7739 258.398 63.9205 273.903 67.6279C276.395 68.2238 278.887 68.8342 281.379 69.4449L281.381 69.4453C284.915 70.3113 288.453 71.1779 291.998 72.0046Z" fill="black"/>
<path d="M291.81 78.4816C291.816 78.3575 291.822 78.2334 291.828 78.1092C288.28 77.4256 284.735 76.7123 281.19 75.999C277.684 75.2934 274.177 74.5878 270.667 73.911C254.344 70.7633 237.962 68.2405 221.25 69.2589C179.837 71.7833 137.169 76.4669 96.0736 82.0786C84.0656 83.7169 74.5346 89.3673 65.1862 95.2038C64.6483 95.5396 64.1111 95.876 63.574 96.2123C54.7684 101.726 46.0106 107.21 35.3421 109.522C24.921 111.777 14.6522 110.192 4.45847 106.858C4.49451 106.999 4.53076 107.14 4.56723 107.282C14.7274 110.579 24.9929 112.139 35.4208 109.883C46.1551 107.556 54.9646 102.04 63.759 96.5325C64.3003 96.1935 64.8415 95.8546 65.383 95.5165C74.7325 89.6794 84.2031 84.0706 96.1239 82.4443C137.213 76.8335 179.872 72.151 221.273 69.6273C237.935 68.6119 254.279 71.1267 270.597 74.2734C274.099 74.9488 277.601 75.6534 281.104 76.3583L281.106 76.3586C284.671 77.076 288.238 77.7939 291.81 78.4816Z" fill="black"/>
<path d="M291.302 85.2868C291.314 85.1642 291.326 85.0416 291.338 84.9189C287.667 84.3954 283.997 83.8498 280.326 83.3041L280.324 83.3038C276.384 82.7179 272.442 82.132 268.498 81.573C251.937 79.226 235.341 77.357 218.636 77.9886C179.345 79.4697 138.444 81.3682 99.4269 86.1983C87.0365 87.731 76.5679 93.1165 66.2449 98.6763C65.6778 98.9818 65.1112 99.2877 64.5447 99.5936C54.791 104.86 45.0819 110.102 33.8801 112.265C24.2174 114.127 14.773 113.031 5.4303 110.473C5.46945 110.611 5.50879 110.75 5.54831 110.888C14.8586 113.414 24.2924 114.488 33.9506 112.627C45.2101 110.453 54.966 105.186 64.7086 99.925L64.7116 99.9234C65.2814 99.6157 65.8512 99.308 66.4212 99.001C76.7466 93.4399 87.1594 88.0878 99.4726 86.5646C138.473 81.7366 179.359 79.8385 218.65 78.3575C235.32 77.7271 251.889 79.592 268.446 81.9385C272.385 82.4967 276.323 83.0822 280.262 83.6678L280.263 83.668C283.942 84.2149 287.622 84.7619 291.302 85.2868Z" fill="black"/>
<path d="M290.397 92.5933C290.415 92.4712 290.434 92.349 290.452 92.2268C286.6 91.9896 282.747 91.7496 278.892 91.5095L278.889 91.5093C220.392 87.8656 161.487 84.1965 103.075 90.0984C90.1291 91.4056 78.6261 96.4067 67.239 101.596C66.5659 101.903 65.8931 102.21 65.2206 102.518C54.5075 107.414 43.8284 112.294 32.0414 114.277C23.2477 115.756 14.6937 115.091 6.25522 113.281C6.2963 113.415 6.33759 113.55 6.37903 113.685C14.7861 115.47 23.3231 116.118 32.1031 114.641C43.9402 112.649 54.6611 107.75 65.3643 102.858L65.3907 102.846C66.0582 102.541 66.7256 102.236 67.3932 101.932C78.7829 96.7411 90.2348 91.7659 103.113 90.4656C161.491 84.567 220.359 88.2337 278.856 91.8772L278.86 91.8775C282.708 92.1171 286.553 92.3566 290.397 92.5933Z" fill="black"/>
<path d="M289.218 99.3634C289.243 99.2407 289.267 99.118 289.291 98.9952C283.145 98.9119 277 98.845 270.855 98.7782H270.854C251.103 98.5633 231.356 98.3485 211.613 97.5864C200.676 97.1645 189.561 96.3969 178.382 95.6249C154.489 93.9749 130.304 92.3047 106.945 93.9467C93.3496 94.9031 80.7087 99.2012 68.1679 103.838C66.7436 104.364 65.3206 104.895 63.8977 105.426C52.7852 109.572 41.6753 113.717 29.9454 115.789C22.2169 117.153 14.6039 116.936 7.05121 115.807C7.09375 115.938 7.13647 116.069 7.17935 116.2C14.7029 117.309 22.2971 117.513 30.0101 116.153C41.7758 114.074 52.919 109.916 64.0278 105.772C65.451 105.241 66.8736 104.71 68.2969 104.184C80.8368 99.5476 93.4337 95.2672 106.971 94.3149C130.304 92.6747 154.443 94.342 178.322 95.9912L178.323 95.9913C189.509 96.7638 200.637 97.5324 211.599 97.9552C231.343 98.7174 251.103 98.9324 270.861 99.1474L270.865 99.1474C276.983 99.214 283.101 99.2806 289.218 99.3634Z" fill="black"/>
<path d="M287.635 106.4C287.667 106.275 287.698 106.15 287.729 106.025C282.345 106.337 276.957 106.702 271.569 107.067L271.567 107.067C267.496 107.343 263.425 107.619 259.355 107.872C242.044 108.947 224.75 109.606 207.559 108.079C195.912 107.043 184.102 105.255 172.235 103.458C167.928 102.805 163.614 102.152 159.297 101.533C143.09 99.2096 126.856 97.3719 110.89 97.9096C96.5903 98.3902 82.7787 102.058 69.0498 106.152C66.8883 106.796 64.729 107.451 62.5702 108.106C51.0104 111.613 39.4638 115.117 27.666 116.978C20.9137 118.043 14.2422 118.09 7.61517 117.506C7.65839 117.633 7.70172 117.761 7.74524 117.888C14.3434 118.459 20.9923 118.404 27.7239 117.342C39.5495 115.477 51.1246 111.965 62.684 108.458C64.8414 107.803 66.9983 107.149 69.1561 106.505C82.8825 102.412 96.6544 98.7574 110.902 98.2785C126.834 97.7419 143.042 99.5755 159.244 101.898C163.554 102.516 167.864 103.169 172.169 103.821L172.169 103.821C184.04 105.619 195.867 107.409 207.526 108.447C224.747 109.976 242.063 109.316 259.378 108.24C263.453 107.987 267.528 107.711 271.602 107.435C276.949 107.072 282.295 106.71 287.635 106.4Z" fill="black"/>
<path d="M285.692 113.382C285.731 113.253 285.77 113.124 285.81 112.995C280.267 113.712 274.703 114.533 269.133 115.356C264.724 116.007 260.312 116.658 255.901 117.259C238.222 119.668 220.575 121.266 203.36 118.772C191.775 117.09 180.16 114.172 168.504 111.244L168.503 111.244C165.425 110.471 162.345 109.697 159.261 108.945C144.504 105.346 129.681 102.249 114.803 102.144C99.7939 102.04 84.8109 105.038 69.8902 108.551C66.8139 109.275 63.7404 110.021 60.6699 110.766C48.8415 113.637 37.0564 116.498 25.3142 118.062C19.5299 118.834 13.7893 119.028 8.07422 118.839C8.11783 118.963 8.16156 119.088 8.20551 119.212C13.8906 119.394 19.6046 119.197 25.3633 118.428C37.1268 116.861 48.9365 113.994 60.7671 111.123L60.768 111.122C63.8359 110.378 66.9052 109.633 69.9755 108.91C84.8925 105.398 99.8387 102.409 114.801 102.513C129.632 102.618 144.419 105.705 159.173 109.303C162.25 110.054 165.325 110.826 168.4 111.599L168.403 111.599C180.062 114.528 191.701 117.452 203.306 119.137C220.576 121.639 238.266 120.034 255.952 117.625C260.371 117.022 264.79 116.37 269.202 115.719C274.713 114.905 280.214 114.093 285.692 113.382Z" fill="black"/>
<path d="M283.39 120.281C283.439 120.146 283.488 120.011 283.536 119.876C277.943 120.972 272.293 122.22 266.619 123.472L266.619 123.472C261.403 124.624 256.168 125.78 250.939 126.826C232.269 130.563 213.66 132.913 196.203 128.756C186.423 126.428 176.56 122.614 166.613 118.769C163.72 117.65 160.819 116.528 157.911 115.44C145.019 110.614 131.999 106.442 118.902 106.087C103.817 105.674 88.1821 107.964 72.5817 110.804C68.312 111.581 64.0453 112.4 59.7932 113.215L59.79 113.216C48.5006 115.381 37.3126 117.527 26.4371 118.833C20.4172 119.556 14.4287 119.873 8.45752 119.92C8.50159 120.043 8.54584 120.166 8.59018 120.288C14.5301 120.237 20.4896 119.919 26.4815 119.2C37.3705 117.892 48.5773 115.743 59.8709 113.576L59.8721 113.576L59.8731 113.576C64.1234 112.761 68.3859 111.943 72.6484 111.167C88.2443 108.328 103.848 106.044 118.891 106.456C131.922 106.81 144.893 110.961 157.781 115.785C160.679 116.87 163.574 117.99 166.464 119.107C176.414 122.954 186.31 126.781 196.117 129.115C213.657 133.292 232.334 130.927 251.012 127.188C256.259 126.138 261.504 124.98 266.725 123.827L266.726 123.827C272.318 122.592 277.883 121.364 283.39 120.281Z" fill="black"/>
<path d="M280.75 127.041C280.809 126.899 280.868 126.757 280.927 126.615C275.178 128.059 269.358 129.698 263.509 131.345L263.508 131.345C258.29 132.815 253.048 134.291 247.813 135.641C228.85 140.529 209.949 143.763 192.406 139.093C182.332 136.412 172.777 131.316 163.181 126.199C161.455 125.278 159.727 124.357 157.995 123.449C146.647 117.5 135.11 112.124 122.521 111.312C106.789 110.294 90.108 111.874 73.4314 114.052C68.0615 114.753 62.693 115.516 57.3566 116.274L57.356 116.274C46.1128 117.872 35.0117 119.45 24.3381 120.387C19.2204 120.835 14.1035 121.15 8.98648 121.369C9.03143 121.491 9.0766 121.612 9.12189 121.733C14.2055 121.513 19.2884 121.2 24.3706 120.755C35.0543 119.817 46.1727 118.237 57.4216 116.638C62.7557 115.88 68.1191 115.117 73.4795 114.417C90.1513 112.241 106.803 110.665 122.497 111.681C135 112.486 146.476 117.827 157.823 123.776C159.55 124.681 161.274 125.6 162.998 126.52C172.592 131.637 182.191 136.756 192.31 139.45C209.953 144.146 228.936 140.888 247.906 135.998C253.161 134.643 258.415 133.164 263.64 131.692C269.39 130.073 275.105 128.463 280.75 127.041Z" fill="black"/>
<path d="M277.585 134.047C277.658 133.896 277.731 133.744 277.804 133.593C276.518 133.991 275.225 134.401 273.928 134.82C269.739 136.172 265.503 137.616 261.238 139.07L261.237 139.07C255.832 140.912 250.382 142.769 244.926 144.476C225.416 150.578 205.995 154.695 188.95 149.098C179.435 145.974 170.938 140.163 162.413 134.334C160.978 133.353 159.543 132.371 158.102 131.402C148.109 124.68 137.846 118.551 125.701 117.352C109.368 115.744 91.7716 116.566 74.1484 118.018C67.5777 118.559 61.005 119.187 54.4922 119.81L54.4917 119.81L54.4907 119.81C43.5283 120.858 32.7353 121.889 22.4068 122.462C18.1653 122.698 13.9264 122.954 9.68942 123.225C9.73596 123.345 9.78268 123.465 9.82959 123.586C14.0285 123.318 18.2277 123.064 22.4273 122.83C32.7621 122.258 43.5704 121.224 54.5398 120.176L54.5417 120.176C61.0524 119.553 67.6199 118.926 74.1789 118.386C91.7969 116.935 109.366 116.115 125.664 117.719C137.709 118.908 147.904 124.987 157.894 131.707C159.331 132.674 160.763 133.653 162.196 134.633C170.718 140.461 179.264 146.306 188.834 149.449C206.001 155.086 225.526 150.931 245.037 144.828C250.49 143.122 255.955 141.26 261.369 139.415L261.371 139.415C265.636 137.961 269.87 136.518 274.043 135.171C275.228 134.788 276.409 134.413 277.585 134.047Z" fill="black"/>
<path d="M273.839 141.261C273.929 141.097 274.02 140.933 274.11 140.77C273.458 141.005 272.803 141.244 272.147 141.485C267.877 143.057 263.537 144.741 259.155 146.44C253.65 148.576 248.08 150.737 242.504 152.731C222.486 159.891 202.574 164.834 185.984 158.572C176.877 155.134 169.351 148.884 161.814 142.624L161.812 142.623C160.599 141.615 159.386 140.608 158.165 139.611C149.373 132.434 140.229 125.86 128.292 124.382C103.967 121.369 76.7806 122.722 50.6846 124.021C40.4516 124.53 30.3862 125.031 20.7267 125.257C17.3608 125.335 14.0124 125.492 10.6777 125.711C10.7267 125.831 10.776 125.951 10.8253 126.071C14.1145 125.857 17.4165 125.703 20.7354 125.626C30.417 125.399 40.496 124.898 50.7369 124.388L50.7375 124.388C76.8213 123.09 103.955 121.739 128.246 124.748C140.07 126.212 149.142 132.723 157.93 139.897C159.146 140.89 160.357 141.895 161.57 142.902C169.104 149.16 176.683 155.455 185.852 158.917C202.584 165.233 222.617 160.236 242.629 153.078C248.201 151.086 253.786 148.919 259.3 146.78L259.301 146.78L259.303 146.779C263.685 145.079 268.024 143.396 272.276 141.832C272.798 141.639 273.319 141.449 273.839 141.261Z" fill="black"/>
<path d="M270.821 146.437C270.919 146.277 271.017 146.116 271.115 145.955C261.452 149.053 252.04 152.758 242.343 156.575C240.079 157.466 237.8 158.364 235.499 159.261C234.21 159.763 232.902 160.282 231.579 160.807C224.697 163.537 217.376 166.442 209.956 168.197C201.111 170.288 192.148 170.74 183.652 167.324C174.766 163.748 168.019 157.379 161.28 151.018C160.236 150.031 159.191 149.045 158.139 148.07C150.309 140.812 142.063 134.158 130.158 132.549C102.983 128.866 72.9685 128.93 44.2732 128.991H44.2719C35.8183 129.009 27.4792 129.027 19.3609 128.949C16.9187 128.925 14.5002 128.971 12.1017 129.076C12.1547 129.197 12.2078 129.318 12.2611 129.438C14.6064 129.339 16.9706 129.295 19.3574 129.318C27.4865 129.396 35.833 129.379 44.2916 129.361C72.9824 129.299 102.961 129.235 130.108 132.915C141.891 134.507 150.065 141.089 157.886 148.34C158.934 149.311 159.976 150.295 161.02 151.28C167.754 157.639 174.557 164.062 183.513 167.666C192.108 171.122 201.157 170.657 210.041 168.556C217.491 166.794 224.842 163.878 231.722 161.148L231.723 161.147C233.045 160.623 234.349 160.105 235.634 159.604C237.936 158.707 240.216 157.81 242.479 156.919C252.043 153.154 261.317 149.504 270.821 146.437Z" fill="black"/>
<path d="M266.133 153.627C266.254 153.453 266.374 153.28 266.493 153.106C258.219 156.051 250.105 159.45 241.75 162.951L241.748 162.952C239.304 163.976 236.839 165.009 234.343 166.042C233.249 166.494 232.132 166.961 230.997 167.437C224.102 170.322 216.499 173.503 208.757 175.487C199.742 177.796 190.563 178.473 182.121 175.177C173.249 171.713 166.993 165.595 160.768 159.508L160.767 159.508C159.844 158.605 158.921 157.702 157.99 156.81C150.794 149.904 143.147 143.581 131.173 142.03C94.5954 137.304 55.3908 135.374 18.4353 133.737C17.0096 133.674 15.5969 133.642 14.1961 133.638C14.2553 133.761 14.3147 133.885 14.3743 134.008C15.7113 134.014 17.0592 134.046 18.419 134.105C55.3756 135.743 94.5653 137.672 131.125 142.396C142.975 143.931 150.549 150.182 157.733 157.075C158.66 157.964 159.58 158.864 160.502 159.766L160.503 159.767C166.725 165.852 173.038 172.027 181.986 175.521C190.531 178.857 199.798 178.163 208.85 175.844C216.62 173.854 224.251 170.66 231.144 167.775C232.279 167.3 233.393 166.834 234.485 166.383C236.983 165.349 239.449 164.316 241.894 163.292L241.895 163.291C250.088 159.858 258.041 156.527 266.133 153.627Z" fill="black"/>
<path d="M260.292 161.458C260.444 161.268 260.595 161.078 260.746 160.887C254.505 163.286 248.304 165.906 241.961 168.586C239.423 169.658 236.864 170.739 234.269 171.82C233.307 172.221 232.326 172.633 231.329 173.052C224.355 175.984 216.574 179.256 208.636 181.324C199.564 183.687 190.313 184.471 181.855 181.391C172.939 178.146 166.725 172.382 160.549 166.654C159.668 165.837 158.788 165.021 157.901 164.213C150.8 157.743 143.268 151.815 131.37 150.353C94.2551 145.794 55.8398 141.841 18.4604 139.369C17.993 139.338 17.5271 139.31 17.0628 139.287C17.1308 139.413 17.1989 139.54 17.2672 139.667C17.6557 139.688 18.0452 139.711 18.4358 139.737C55.8063 142.209 94.2143 146.161 131.325 150.719C143.105 152.167 150.564 158.029 157.65 164.485C158.533 165.29 159.411 166.104 160.29 166.919L160.293 166.921C166.465 172.647 172.736 178.466 181.728 181.738C190.288 184.854 199.625 184.053 208.73 181.681C216.696 179.606 224.503 176.323 231.476 173.391C232.472 172.972 233.452 172.56 234.412 172.16C237.009 171.079 239.57 169.997 242.107 168.925C248.252 166.329 254.258 163.792 260.292 161.458Z" fill="black"/>
<path d="M252.869 170.042C253.064 169.834 253.258 169.625 253.452 169.415C249.753 170.872 246.042 172.378 242.286 173.903C239.932 174.858 237.56 175.821 235.162 176.784C234.074 177.22 232.966 177.669 231.84 178.126C224.909 180.939 217.294 184.029 209.539 185.987C200.527 188.263 191.35 189.003 182.87 186.011C173.977 182.88 167.533 177.332 161.118 171.809L161.117 171.808C160.234 171.048 159.351 170.288 158.462 169.534C151.126 163.315 143.408 157.578 131.781 156.016C95.241 151.114 57.5801 146.942 20.7776 143.938C20.3883 143.906 20.0001 143.877 19.6129 143.85C19.6879 143.979 19.7631 144.107 19.8384 144.236C20.1408 144.257 20.4437 144.281 20.7473 144.305C57.5427 147.309 95.1972 151.481 131.732 156.382C143.248 157.929 150.898 163.607 158.222 169.815C159.108 170.567 159.99 171.326 160.873 172.086C167.285 177.607 173.783 183.203 182.746 186.359C191.325 189.386 200.584 188.629 209.63 186.345C217.412 184.38 225.053 181.279 231.983 178.467C233.108 178.01 234.215 177.561 235.3 177.126C237.7 176.163 240.072 175.2 242.426 174.245C245.939 172.819 249.411 171.41 252.869 170.042Z" fill="black"/>
<path d="M237.601 184.207C237.901 183.966 238.2 183.724 238.497 183.48C219.59 190.53 200.855 195.264 184.646 189.932C175.708 186.994 168.917 181.784 162.14 176.585C161.271 175.918 160.401 175.251 159.528 174.589C151.852 168.773 143.859 163.356 132.527 161.701C96.8998 156.507 60.7056 151.51 24.8875 147.63C23.8246 147.515 22.7684 147.422 21.7183 147.349C21.7985 147.478 21.8789 147.607 21.9595 147.736C22.9169 147.806 23.8795 147.892 24.8475 147.997C60.6586 151.877 96.8476 156.872 132.473 162.066C143.708 163.707 151.637 169.074 159.304 174.883C160.175 175.543 161.043 176.209 161.913 176.877C168.685 182.073 175.528 187.323 184.53 190.282C200.574 195.56 219.034 191.048 237.601 184.207Z" fill="black"/>
<path d="M226.922 192.021C227.243 191.807 227.563 191.593 227.883 191.377C213.639 195.302 199.741 197 187.07 193.236C178.014 190.549 170.748 185.772 163.481 180.994C162.665 180.457 161.849 179.921 161.03 179.387C152.927 174.105 144.582 169.118 133.566 167.365C120.847 165.344 108.127 163.222 95.4034 161.1L95.4027 161.1C73.7287 157.485 52.0411 153.867 30.3187 150.739C28.0121 150.406 25.7243 150.19 23.4532 150.075C23.5364 150.203 23.62 150.33 23.7036 150.458C25.8753 150.575 28.0619 150.787 30.2655 151.104C51.9849 154.232 73.6643 157.848 95.3349 161.463L95.3396 161.464C108.063 163.586 120.784 165.707 133.507 167.729C144.441 169.47 152.73 174.418 160.827 179.696C161.643 180.227 162.456 180.762 163.27 181.297L163.278 181.303C170.541 186.078 177.852 190.886 186.965 193.59C199.41 197.287 213.012 195.749 226.922 192.021Z" fill="black"/>
<path d="M218.353 197.299C218.65 197.129 218.947 196.959 219.243 196.788C209.175 198.385 199.333 198.523 189.965 196.103C180.572 193.674 172.48 189.371 164.35 185.047L164.35 185.047C163.828 184.769 163.306 184.491 162.783 184.214C154.125 179.621 145.331 175.142 134.819 173.05C125.755 171.244 116.691 169.419 107.625 167.593L107.622 167.593C83.9677 162.829 60.2997 158.063 36.5885 153.63C32.7536 152.913 28.9175 152.565 25.0822 152.518C25.1669 152.643 25.2517 152.767 25.3369 152.891C29.066 152.95 32.7942 153.296 36.5201 153.992C60.2288 158.425 83.8932 163.191 107.547 167.954L107.55 167.955L107.568 167.958C116.628 169.783 125.687 171.607 134.746 173.412C145.199 175.493 153.951 179.947 162.609 184.54C163.134 184.819 163.659 185.098 164.184 185.377C172.306 189.697 180.434 194.02 189.872 196.46C199.005 198.82 208.577 198.761 218.353 197.299Z" fill="black"/>
<path d="M212.434 200.491C212.699 200.356 212.963 200.22 213.227 200.083C206.445 200.438 199.753 200.058 193.204 198.636C183.428 196.513 174.495 192.698 165.511 188.862L164.904 188.602C155.72 184.681 146.465 180.778 136.212 178.703C116.443 174.705 96.8306 169.802 77.2259 164.902L77.2229 164.901C65.8938 162.07 54.5674 159.238 43.2151 156.583C37.8994 155.338 32.4421 154.918 26.8933 155.116C26.9791 155.236 27.0652 155.356 27.1514 155.476C32.5865 155.3 37.9283 155.724 43.1302 156.942C54.4713 159.595 65.7934 162.425 77.1213 165.257L77.1221 165.257C96.7337 170.159 116.363 175.065 136.138 179.065C146.348 181.131 155.571 185.019 164.758 188.941L165.378 189.206C174.352 193.039 183.314 196.866 193.125 198.996C199.449 200.37 205.901 200.776 212.434 200.491Z" fill="black"/>
<path d="M208.322 202.506C208.567 202.391 208.811 202.275 209.055 202.159C205.787 202.076 202.526 201.828 199.274 201.386C188.818 199.966 178.773 196.561 168.703 193.015C168.034 192.779 167.365 192.543 166.696 192.307C157.295 188.988 147.847 185.652 138.021 183.814C122.556 180.922 107.444 176.278 92.3314 171.591L91.2393 171.252C76.4941 166.678 61.7395 162.1 46.6646 159.116C41.0799 158.011 35.2383 157.822 29.2331 158.302C29.3212 158.419 29.4094 158.535 29.4978 158.651C35.3904 158.197 41.1177 158.394 46.5924 159.478C61.648 162.459 76.3861 167.031 91.1372 171.607L92.2212 171.943C107.331 176.63 122.463 181.28 137.953 184.176C147.749 186.009 157.171 189.336 166.578 192.657C167.245 192.892 167.912 193.128 168.58 193.363C178.648 196.909 188.725 200.326 199.224 201.752C202.25 202.163 205.283 202.407 208.322 202.506Z" fill="black"/>
<path d="M204.667 204.166C204.903 204.063 205.139 203.959 205.374 203.855C204.515 203.786 203.656 203.707 202.797 203.618C192.288 202.519 181.729 199.951 171.18 197.159C169.237 196.645 167.293 196.122 165.351 195.6L165.332 195.595L165.331 195.595C156.741 193.287 148.168 190.983 139.656 189.362C124.858 186.544 110.476 181.685 96.11 176.688C95.095 176.335 94.08 175.981 93.0649 175.627C79.7184 170.975 66.3614 166.319 52.6914 163.195C45.9987 161.663 39.3911 161.819 32.8559 162.904C32.9461 163.014 33.0365 163.124 33.127 163.233C39.5588 162.185 46.046 162.053 52.6084 163.555C66.2572 166.674 79.595 171.323 92.9454 175.977L92.9619 175.982C93.9704 176.334 94.979 176.685 95.9878 177.036C110.352 182.033 124.758 186.901 139.586 189.725C148.083 191.343 156.64 193.642 165.228 195.95L165.229 195.95L165.242 195.953C167.188 196.476 169.136 197 171.085 197.516C181.635 200.309 192.219 202.883 202.759 203.985C203.395 204.051 204.031 204.112 204.667 204.166Z" fill="black"/>
<path d="M200.732 205.82C200.976 205.722 201.219 205.623 201.462 205.523C186.945 204.071 171.879 201.041 157.243 198.098C151.832 197.01 146.48 195.933 141.236 194.953C127.678 192.418 114.488 187.202 101.286 181.981L100.582 181.702C100.217 181.558 99.8518 181.414 99.4867 181.27C85.6895 175.819 71.8603 170.497 57.5992 168.387C51.09 167.423 44.301 167.421 37.338 168.114C37.4405 168.227 37.5432 168.341 37.6461 168.454C44.4876 167.791 51.1537 167.806 57.5447 168.752C71.7572 170.855 85.5482 176.161 99.3501 181.613C99.9537 181.851 100.557 182.09 101.161 182.328C114.354 187.546 127.574 192.774 141.168 195.316C146.4 196.294 151.744 197.369 157.15 198.456L157.152 198.456C171.559 201.354 186.406 204.339 200.732 205.82Z" fill="black"/>
<path d="M195.2 207.92C195.479 207.82 195.757 207.72 196.035 207.619C178.216 206.142 159.673 203.564 142.627 200.595C129.103 198.243 115.988 193.124 102.86 188L101.792 187.583C88.3151 182.325 74.8133 177.141 60.8668 175.051C55.2352 174.208 49.3753 174.045 43.3595 174.403C43.478 174.52 43.5965 174.636 43.7153 174.752C49.5908 174.421 55.312 174.593 60.8116 175.416C74.7104 177.499 88.1743 182.666 101.657 187.927L102.74 188.349L102.74 188.349C115.856 193.469 129.002 198.6 142.563 200.959C159.36 203.885 177.614 206.431 195.2 207.92Z" fill="black"/>
<path d="M187.399 210.455C187.772 210.345 188.145 210.234 188.517 210.121C173.632 209.665 158.726 208.533 143.774 206.31C130.147 204.282 116.874 199.649 103.588 195.012L103.588 195.012L102.921 194.779C89.4187 190.067 75.8975 185.395 62.0055 183.52C58.9347 183.107 55.8056 182.867 52.6283 182.779C52.7827 182.907 52.9373 183.035 53.0923 183.162C56.0941 183.26 59.0514 183.495 61.9558 183.886C75.8044 185.755 89.2906 190.413 102.799 195.127L103.48 195.365C116.755 199.999 130.057 204.642 143.719 206.675C158.317 208.845 172.869 209.977 187.399 210.455Z" fill="black"/>
<path d="M166.23 215C166.84 214.916 167.449 214.828 168.057 214.736C160.054 214.289 152.073 213.637 144.124 212.723C130.284 211.133 116.607 207.228 102.908 203.317L102.779 203.28C102.209 203.118 101.639 202.955 101.069 202.792C90.7214 199.842 80.3574 196.946 69.909 195.109C70.202 195.288 70.4958 195.465 70.7902 195.642C80.8943 197.48 90.9292 200.285 100.967 203.147C101.583 203.323 102.2 203.499 102.816 203.675C116.507 207.584 130.21 211.496 144.082 213.09C151.44 213.935 158.825 214.557 166.23 215Z" fill="black"/>
</svg>
