<svg width="560" height="165" viewBox="0 0 560 165" fill="none" xmlns="http://www.w3.org/2000/svg">
<path d="M624.272 -848.022C617.373 -849.176 610.479 -850.351 603.586 -851.526C597.728 -852.524 591.872 -853.522 586.012 -854.508C583.531 -854.925 581.05 -855.34 578.569 -855.752C571.214 -856.657 563.81 -857.408 556.362 -858C566.186 -856.482 575.992 -854.869 585.795 -853.22C591.648 -852.235 597.501 -851.238 603.356 -850.24L603.359 -850.239C616.463 -848.006 629.578 -845.771 642.734 -843.675C636.623 -845.234 630.468 -846.683 624.272 -848.022Z" fill="black"/>
<path d="M738.328 -808.841C737.087 -809.439 735.844 -810.032 734.598 -810.62C727.377 -811.506 720.148 -812.344 712.911 -813.126C675.399 -817.19 638.996 -824.976 602.617 -832.756L602.608 -832.758C596.722 -834.017 590.837 -835.276 584.949 -836.519C542.673 -845.44 500.209 -853.537 455.949 -854.923C452.856 -855.021 449.765 -855.098 446.677 -855.155C443.835 -854.778 441 -854.379 438.173 -853.957C444.078 -853.914 449.989 -853.804 455.907 -853.617C500.043 -852.235 542.41 -844.16 584.679 -835.24C590.564 -833.998 596.447 -832.74 602.334 -831.481C638.709 -823.701 675.186 -815.899 712.77 -811.827C721.301 -810.905 729.819 -809.905 738.328 -808.841Z" fill="black"/>
<path d="M793.188 -778.141C792.342 -778.685 791.493 -779.227 790.644 -779.766C765.769 -782.792 741.017 -785.932 716.472 -789.163C677.046 -794.351 639.266 -804.649 601.524 -814.938L601.522 -814.938C595.398 -816.608 589.275 -818.277 583.146 -819.924C539.262 -831.716 495.093 -842.367 448.227 -843.773C424.179 -844.494 400.431 -843.251 376.851 -840.922C374.438 -840.252 372.031 -839.565 369.632 -838.861C395.586 -841.667 421.707 -843.261 448.188 -842.467C494.89 -841.066 538.932 -830.452 582.806 -818.662C588.927 -817.017 595.046 -815.349 601.167 -813.68C638.906 -803.393 676.78 -793.068 716.302 -787.868C741.739 -784.519 767.399 -781.268 793.188 -778.141Z" fill="black"/>
<path d="M829.02 -752.896C828.4 -753.374 827.779 -753.85 827.156 -754.324C791.246 -756.642 755.592 -759.816 720.575 -764.575C677.389 -770.446 636.758 -784.454 596.109 -798.467L596.102 -798.47C590.949 -800.246 585.797 -802.022 580.638 -803.782C534.808 -819.419 488.56 -833.747 438.362 -835.023C395.719 -836.097 354.879 -828.586 314.441 -819.168C312.147 -818.198 309.863 -817.212 307.586 -816.21C350.343 -826.392 393.343 -834.85 438.329 -833.717C488.309 -832.446 534.391 -818.18 580.216 -802.546C585.373 -800.786 590.526 -799.009 595.682 -797.232C636.317 -783.223 677.076 -769.17 720.399 -763.28C756.075 -758.432 792.421 -755.227 829.02 -752.896Z" fill="black"/>
<path d="M856.573 -730.121C856.09 -730.549 855.606 -730.977 855.121 -731.404C811.059 -730.69 767.388 -732.159 725.216 -739.428C680.52 -747.119 638.727 -764.428 596.925 -781.741L596.919 -781.744C590.542 -784.385 584.166 -787.026 577.779 -789.633C529.55 -809.317 480.747 -827.046 427.089 -827.935C377.965 -828.749 332.666 -814.988 287.834 -799.443C281.544 -797.262 275.264 -795.046 268.984 -792.83C262.378 -790.499 255.772 -788.168 249.155 -785.878C247.425 -784.834 245.701 -783.78 243.985 -782.717C252.491 -785.624 260.968 -788.615 269.437 -791.604L269.44 -791.605C275.715 -793.819 281.986 -796.032 288.263 -798.208C333.082 -813.749 378.192 -827.438 427.068 -826.628C480.46 -825.744 529.066 -808.104 577.285 -788.423C583.663 -785.82 590.034 -783.181 596.408 -780.541L596.411 -780.54C638.202 -763.23 680.143 -745.858 724.994 -738.141C767.733 -730.773 811.986 -729.352 856.573 -730.121Z" fill="black"/>
<path d="M877.438 -710.571C877.04 -710.965 876.641 -711.359 876.242 -711.752C826.78 -706.221 777.595 -704.041 730.115 -713.986C684.092 -723.608 640.917 -744.407 597.691 -765.231C590.007 -768.933 582.32 -772.636 574.616 -776.277C523.616 -800.379 471.86 -821.75 414.817 -821.954C364.849 -822.139 320.464 -804.24 276.794 -784.041C270.378 -781.074 263.979 -778.057 257.58 -775.041C236.261 -764.992 214.943 -754.942 193.034 -746.715C191.97 -745.862 190.909 -745.005 189.852 -744.144C213.123 -752.638 235.674 -763.269 258.162 -773.87C264.556 -776.884 270.944 -779.896 277.343 -782.855C320.997 -803.047 365.155 -820.831 414.812 -820.647C471.542 -820.445 523.069 -799.192 574.058 -775.095C581.742 -771.464 589.414 -767.768 597.09 -764.069L597.094 -764.068C640.315 -743.245 683.655 -722.365 729.847 -712.707C777.865 -702.649 827.577 -704.949 877.438 -710.571Z" fill="black"/>
<path d="M894.154 -693.232C893.812 -693.603 893.469 -693.975 893.126 -694.345C840.277 -682.889 787.484 -675.555 735.122 -688.359C687.423 -700.023 642.473 -724.268 597.402 -748.578C588.712 -753.265 580.018 -757.955 571.299 -762.557C517.4 -791.006 462.568 -816.101 402.147 -816.342C351.458 -816.546 307.818 -794.353 265.215 -769.187C258.506 -765.224 251.823 -761.188 245.143 -757.154C214.399 -738.586 183.704 -720.047 150.69 -708.786C150.004 -708.099 149.319 -707.411 148.636 -706.72C182.759 -717.944 214.359 -737.032 245.858 -756.058L245.861 -756.06C252.531 -760.089 259.196 -764.115 265.88 -768.063C308.468 -793.219 351.839 -815.238 402.142 -815.035C462.216 -814.796 516.799 -789.846 570.688 -761.402C579.382 -756.813 588.059 -752.133 596.738 -747.451L596.741 -747.449C641.811 -723.138 686.934 -698.797 734.812 -687.09C787.658 -674.168 840.881 -681.655 893.949 -693.187C894.017 -693.202 894.086 -693.217 894.154 -693.232Z" fill="black"/>
<path d="M908.093 -677.45C907.789 -677.809 907.484 -678.168 907.179 -678.526C903.911 -677.453 900.644 -676.396 897.376 -675.361C845.854 -659.032 794.164 -647.925 740.128 -662.843C691.089 -676.389 644.378 -704.021 597.424 -731.796C587.659 -737.573 577.884 -743.355 568.075 -749.019C511.153 -781.883 453.126 -810.712 389.695 -810.619C338.196 -810.545 295.271 -784.083 253.737 -754.073C246.912 -749.142 240.126 -744.116 233.345 -739.094L233.342 -739.091C198.801 -713.51 164.406 -688.036 125.825 -675.757C123.435 -674.997 121.036 -674.292 118.631 -673.64C118.152 -673.064 117.674 -672.487 117.197 -671.909C120.217 -672.692 123.225 -673.559 126.222 -674.513C165.03 -686.864 199.633 -712.495 234.17 -738.077C240.94 -743.091 247.707 -748.104 254.503 -753.014C296.027 -783.017 338.652 -809.239 389.697 -809.313C452.746 -809.405 510.505 -780.749 567.421 -747.887C577.2 -742.241 586.955 -736.47 596.707 -730.701C643.662 -702.922 690.556 -675.181 739.78 -661.583C794.198 -646.56 846.196 -657.77 897.771 -674.115C901.214 -675.206 904.654 -676.32 908.093 -677.45Z" fill="black"/>
<path d="M920.107 -662.74C919.829 -663.093 919.55 -663.447 919.271 -663.8C913.236 -661.125 907.205 -658.499 901.167 -655.967C851.339 -635.067 801.033 -620.504 744.872 -637.548C694.686 -652.778 646.267 -683.574 597.456 -714.619L597.453 -714.621C586.676 -721.476 575.879 -728.343 565.04 -735.057C505.171 -772.143 444.032 -804.547 377.944 -804.047C325.62 -803.658 283.348 -773.081 242.83 -738.469C235.992 -732.627 229.206 -726.673 222.429 -720.726C209.102 -709.032 195.81 -697.368 182.223 -686.654C161.738 -670.502 140.645 -656.56 117.889 -648.02C109.954 -645.041 101.914 -642.809 93.7846 -641.231C93.4242 -640.721 93.0647 -640.209 92.7061 -639.697C101.355 -641.299 109.909 -643.628 118.348 -646.797C141.286 -655.405 162.502 -669.44 183.033 -685.629C196.646 -696.363 209.985 -708.068 223.329 -719.777L223.337 -719.784C230.105 -725.722 236.873 -731.661 243.68 -737.476C284.197 -772.088 326.147 -802.355 377.954 -802.741C443.629 -803.238 504.481 -771.033 564.351 -733.947C575.155 -727.254 585.928 -720.402 596.691 -713.556L596.694 -713.554C645.51 -682.503 694.118 -651.585 744.492 -636.298C801.106 -619.117 851.774 -633.832 901.673 -654.762C907.827 -657.343 913.968 -660.018 920.107 -662.74Z" fill="black"/>
<path d="M930.609 -648.915C930.35 -649.269 930.089 -649.623 929.829 -649.976C921.475 -645.336 913.142 -640.762 904.78 -636.409C856.683 -611.368 807.756 -593.675 749.169 -612.697C697.911 -629.345 647.887 -663.001 597.322 -697.02L597.317 -697.024C585.698 -704.841 574.05 -712.678 562.352 -720.331C499.814 -761.25 435.859 -796.925 367.45 -795.999C314.23 -795.275 272.588 -760.946 233.041 -722.185C226.271 -715.55 219.565 -708.787 212.871 -702.037L212.868 -702.033C199.98 -689.037 187.139 -676.088 173.979 -664.186C153.992 -646.11 133.335 -630.514 110.807 -620.947C98.8306 -615.866 86.5956 -612.766 74.1624 -611.269C73.8766 -610.797 73.5917 -610.326 73.3074 -609.853C86.1991 -611.316 98.8928 -614.473 111.319 -619.745C134.042 -629.395 154.826 -645.102 174.856 -663.217C188.042 -675.142 200.93 -688.139 213.835 -701.153C220.523 -707.897 227.215 -714.645 233.956 -721.252C273.514 -760.023 314.819 -793.976 367.467 -794.693C435.438 -795.613 499.09 -760.162 561.636 -719.238C573.297 -711.609 584.92 -703.788 596.525 -695.98C647.097 -661.953 697.315 -628.165 748.765 -611.455C807.866 -592.265 857.198 -610.163 905.384 -635.25C913.809 -639.636 922.203 -644.245 930.609 -648.915Z" fill="black"/>
<path d="M939.979 -635.712C939.733 -636.071 939.486 -636.43 939.238 -636.788C938.91 -636.573 938.582 -636.357 938.254 -636.142L938.251 -636.14C928.168 -629.522 918.154 -622.949 908.077 -616.754C861.608 -588.186 813.964 -567.767 752.982 -588.475C703.582 -605.236 655.518 -635.432 609.948 -664.061C598.184 -671.452 586.586 -678.738 575.175 -685.662C564.085 -692.396 552.137 -700.188 539.56 -708.389C518.643 -722.03 495.986 -736.804 472.65 -749.735C435.259 -770.455 395.921 -786.569 358.766 -785.883C304.47 -784.881 263.481 -747.347 224.889 -705.079C218.286 -697.848 211.756 -690.48 205.24 -683.129L205.238 -683.126C192.678 -668.956 180.17 -654.843 167.298 -641.881C147.758 -622.203 127.446 -605.246 104.989 -594.874C89.8585 -587.887 74.3358 -584.42 58.5381 -583.606C58.3035 -583.159 58.0696 -582.711 57.8363 -582.263C74.0447 -583.01 89.9901 -586.508 105.538 -593.688C128.202 -604.156 148.644 -621.24 168.226 -640.961C181.122 -653.948 193.675 -668.11 206.252 -682.299C212.763 -689.645 219.28 -696.998 225.854 -704.198C264.465 -746.486 305.111 -783.586 358.79 -784.577C395.586 -785.256 434.671 -769.287 472.017 -748.593C495.329 -735.674 517.886 -720.963 538.763 -707.348C551.352 -699.137 563.331 -691.326 574.496 -684.545C585.866 -677.647 597.435 -670.378 609.181 -662.998C654.763 -634.36 703 -604.054 752.561 -587.238C814.107 -566.338 862.191 -587.01 908.762 -615.641C918.857 -621.847 928.889 -628.432 938.971 -635.05C939.307 -635.27 939.643 -635.491 939.979 -635.712Z" fill="black"/>
<path d="M948.466 -622.943C948.23 -623.31 947.994 -623.677 947.757 -624.043C946.641 -623.224 945.527 -622.404 944.414 -621.584C942.381 -620.085 940.353 -618.586 938.329 -617.089C929.093 -610.26 919.927 -603.483 910.692 -597.064C865.673 -565.772 819.194 -543.111 756.015 -564.993C705.472 -582.503 656.117 -614.424 609.565 -644.533L609.561 -644.535C597.306 -652.461 585.245 -660.262 573.408 -667.641C562.085 -674.705 549.846 -682.928 536.919 -691.613L536.917 -691.614C532.801 -694.38 528.614 -697.193 524.365 -700.03C506.782 -711.771 488.142 -723.921 469.006 -734.857C430.752 -756.716 390.422 -773.777 352.484 -772.961C296.897 -771.772 256.618 -731.788 218.974 -686.861C212.648 -679.312 206.399 -671.624 200.162 -663.953L200.16 -663.951C187.808 -648.756 175.505 -633.623 162.762 -619.746C143.594 -598.871 123.496 -580.915 100.879 -569.985C83.0073 -561.352 64.6891 -557.927 46.0833 -558.187C45.8861 -557.754 45.6895 -557.322 45.4936 -556.889C64.4678 -556.548 83.181 -559.984 101.448 -568.809C124.284 -579.845 144.515 -597.942 163.725 -618.862C176.494 -632.768 188.841 -647.955 201.21 -663.169C207.441 -670.833 213.678 -678.505 219.976 -686.022C257.642 -730.976 297.577 -770.48 352.512 -771.655C390.078 -772.463 430.146 -755.558 468.357 -733.723C487.452 -722.811 506.061 -710.681 523.639 -698.944C527.88 -696.112 532.061 -693.303 536.174 -690.539L536.177 -690.538C549.108 -681.85 561.372 -673.61 572.716 -666.532C584.509 -659.181 596.539 -651.4 608.774 -643.486L608.779 -643.483C655.344 -613.365 704.878 -581.326 755.587 -563.758C819.368 -541.668 866.308 -564.622 911.439 -595.992C920.691 -602.423 929.874 -609.213 939.111 -616.042L939.138 -616.062C941.152 -617.551 943.169 -619.042 945.19 -620.532C946.281 -621.336 947.373 -622.14 948.466 -622.943Z" fill="black"/>
<path d="M956.337 -610.315C956.11 -610.69 955.883 -611.065 955.656 -611.44C949.514 -606.679 943.449 -601.841 937.418 -597.031C929.07 -590.373 920.788 -583.767 912.459 -577.487C890.547 -560.965 868.236 -546.633 843.276 -539.226C818.335 -531.825 790.713 -531.329 758.157 -542.546C707.02 -560.173 656.785 -593.352 609.743 -624.422L609.739 -624.424C597.063 -632.796 584.62 -641.015 572.452 -648.735C560.971 -656.016 548.58 -664.486 535.502 -673.426L535.486 -673.437C531.374 -676.248 527.194 -679.105 522.952 -681.987C505.224 -694.032 486.438 -706.491 467.135 -717.701C428.548 -740.11 387.802 -757.588 349.197 -756.753C291.973 -755.491 252.478 -713.997 215.79 -667.463C209.864 -659.948 204.013 -652.302 198.171 -644.668L198.168 -644.664C185.894 -628.626 173.661 -612.641 160.862 -598.024C141.978 -576.457 121.929 -557.948 98.8466 -546.762C78.3363 -536.82 57.4493 -533.799 36.3425 -535.386C36.1736 -534.962 36.0052 -534.539 35.8373 -534.114C57.272 -532.442 78.5286 -535.461 99.417 -545.587C122.731 -556.885 142.917 -575.545 161.846 -597.163C174.672 -611.812 186.951 -627.856 199.239 -643.913C205.076 -651.54 210.916 -659.17 216.817 -666.655C253.526 -713.215 292.676 -754.199 349.225 -755.447C387.453 -756.274 427.936 -738.955 466.478 -716.571C485.74 -705.385 504.494 -692.948 522.218 -680.906C526.445 -678.034 530.615 -675.184 534.719 -672.378L534.749 -672.358L534.75 -672.357C547.833 -663.414 560.249 -654.926 571.752 -647.632C583.871 -639.942 596.283 -631.744 608.937 -623.386L608.939 -623.385C655.997 -592.303 706.42 -558.998 757.73 -541.311C790.538 -530.007 818.44 -530.494 843.648 -537.974C868.836 -545.448 891.298 -559.895 913.246 -576.444C921.638 -582.771 929.943 -589.396 938.298 -596.06C944.269 -600.823 950.266 -605.607 956.337 -610.315Z" fill="black"/>
<path d="M964.446 -596.386C964.231 -596.769 964.015 -597.152 963.799 -597.534C955.097 -590.991 946.575 -584.218 938.12 -577.498C929.697 -570.804 921.342 -564.163 912.94 -557.855C891.01 -541.389 868.69 -527.123 843.771 -519.79C818.872 -512.463 791.343 -512.047 758.972 -523.347C707.763 -541.218 657.452 -573.878 610.117 -604.605C597.202 -612.989 584.508 -621.229 572.079 -628.985C560.279 -636.352 547.51 -644.973 534.018 -654.083L534.015 -654.085L533.992 -654.1C530.179 -656.675 526.308 -659.288 522.386 -661.923C504.58 -673.883 485.713 -686.28 466.344 -697.465C427.625 -719.822 386.807 -737.391 348.352 -736.89C290.937 -736.129 251.681 -694.396 215.284 -647.532C209.41 -639.969 203.612 -632.274 197.823 -624.59L197.818 -624.584C185.641 -608.423 173.503 -592.313 160.783 -577.596C142.024 -555.892 122.066 -537.3 98.9952 -526.161C75.8895 -514.999 52.4692 -512.524 28.8837 -515.492C28.736 -515.072 28.589 -514.651 28.4424 -514.231C52.3216 -511.183 76.0929 -513.646 99.5639 -524.985C122.871 -536.238 142.968 -554.985 161.773 -576.742C174.52 -591.491 186.703 -607.661 198.895 -623.842L198.907 -623.857C204.688 -631.529 210.47 -639.204 216.316 -646.731C252.735 -693.624 291.643 -734.832 348.369 -735.584C386.453 -736.08 427.012 -718.667 465.69 -696.333C485.019 -685.172 503.856 -672.796 521.656 -660.839C525.58 -658.203 529.453 -655.588 533.271 -653.01L533.274 -653.009C546.769 -643.897 559.565 -635.257 571.386 -627.877C583.768 -620.15 596.429 -611.931 609.323 -603.561L609.324 -603.56C656.675 -572.821 707.167 -540.042 758.541 -522.113C791.164 -510.726 818.974 -511.131 844.14 -518.537C869.287 -525.937 891.759 -540.317 913.726 -556.811C922.191 -563.167 930.569 -569.827 938.998 -576.526C947.386 -583.194 955.824 -589.9 964.446 -596.386Z" fill="black"/>
<path d="M972.768 -580.949C972.566 -581.339 972.364 -581.728 972.162 -582.118C963.786 -576.397 955.571 -570.454 947.432 -564.5C945.466 -563.062 943.505 -561.624 941.547 -560.188C932.243 -553.363 923.013 -546.592 913.715 -540.187C868.714 -509.185 822.319 -486.865 759.416 -508.948C708.112 -526.956 657.95 -557.421 610.046 -586.516L610.044 -586.517C596.835 -594.539 583.798 -602.457 570.955 -609.982C558.319 -617.385 544.504 -626.232 529.859 -635.611C526.829 -637.552 523.763 -639.515 520.664 -641.493C502.599 -653.027 483.44 -665.054 463.832 -675.946C424.637 -697.72 383.554 -715.017 345.734 -714.739C289.607 -714.312 250.663 -672.999 214.591 -626.515C208.572 -618.76 202.635 -610.861 196.709 -602.979C184.845 -587.196 173.029 -571.478 160.704 -557.094C142.233 -535.536 122.689 -517.065 100.283 -506.001C74.7264 -493.379 48.7128 -491.532 22.4762 -496.015C22.3474 -495.595 22.2192 -495.175 22.0914 -494.755C48.5923 -490.201 74.9467 -492.03 100.862 -504.829C123.503 -516.009 143.184 -534.638 161.697 -556.244C174.048 -570.658 185.909 -586.437 197.789 -602.24C203.709 -610.114 209.633 -617.994 215.624 -625.715C251.722 -672.232 290.313 -713.01 345.743 -713.432C383.205 -713.708 424.035 -696.559 463.197 -674.804C482.768 -663.932 501.898 -651.924 519.961 -640.392C523.052 -638.419 526.113 -636.458 529.139 -634.52L529.145 -634.517C543.791 -625.137 557.633 -616.273 570.294 -608.854C583.094 -601.355 596.103 -593.454 609.294 -585.442L609.296 -585.441C657.216 -556.336 707.536 -525.773 758.983 -507.715C822.486 -485.421 869.344 -508.032 914.457 -539.111C923.772 -545.529 933.022 -552.313 942.327 -559.139C944.284 -560.574 946.242 -562.01 948.204 -563.446C956.299 -569.367 964.457 -575.27 972.768 -580.949Z" fill="black"/>
<path d="M980.791 -564.745C980.604 -565.14 980.416 -565.535 980.228 -565.93C970.017 -559.85 960.016 -553.45 950.109 -547.051C948.59 -546.07 947.073 -545.089 945.558 -544.109C935.453 -537.572 925.427 -531.087 915.34 -524.983C868.957 -496.915 821.448 -477.016 759.999 -497.764C708.211 -515.268 657.571 -543.291 608.655 -570.36C595.321 -577.738 582.115 -585.046 569.049 -592.051C555.548 -599.287 540.679 -608.089 524.894 -617.433C522.537 -618.829 520.159 -620.236 517.763 -621.653C499.325 -632.548 479.779 -643.95 459.844 -654.283C419.996 -674.938 378.501 -691.371 341.112 -690.888C286.26 -690.201 248.324 -649.608 213.263 -603.941C207.333 -596.216 201.486 -588.348 195.652 -580.498L195.651 -580.496C184.207 -565.096 172.812 -549.762 160.93 -535.706C143.001 -514.495 124.033 -496.285 102.272 -485.286C74.4429 -471.225 45.8433 -470.244 16.8939 -476.44C16.7828 -476.019 16.6721 -475.597 16.562 -475.175C45.7445 -468.919 74.6778 -469.88 102.862 -484.12C124.855 -495.236 143.958 -513.604 161.929 -534.863C173.836 -548.949 185.276 -564.343 196.736 -579.765C202.564 -587.607 208.398 -595.457 214.3 -603.145C249.387 -648.845 286.973 -688.903 341.129 -689.582C378.173 -690.06 419.422 -673.763 459.242 -653.123C479.142 -642.809 498.661 -631.422 517.097 -620.528C519.479 -619.121 521.842 -617.722 524.186 -616.334L524.225 -616.311C540.006 -606.969 554.903 -598.15 568.431 -590.899C581.461 -583.914 594.643 -576.62 607.961 -569.25C656.89 -542.173 707.669 -514.073 759.581 -496.526C821.583 -475.591 869.525 -495.731 916.017 -523.865C926.122 -529.98 936.166 -536.477 946.269 -543.013C947.784 -543.992 949.3 -544.973 950.818 -545.954C960.69 -552.33 970.64 -558.697 980.791 -564.745Z" fill="black"/>
<path d="M988.518 -547.615C988.346 -548.016 988.173 -548.417 988 -548.817C975.191 -542.452 962.658 -535.647 950.229 -528.899C939.343 -522.988 928.536 -517.12 917.692 -511.628C869.661 -487.305 820.8 -470.285 760.65 -489.019C708.282 -505.333 656.928 -530.532 606.868 -555.095C593.319 -561.744 579.864 -568.346 566.51 -574.712C551.964 -581.64 535.872 -590.217 518.802 -599.314L518.8 -599.315L518.627 -599.407C517.058 -600.243 515.481 -601.084 513.896 -601.928C495.008 -611.986 475.02 -622.536 454.71 -632.078C414.111 -651.153 372.13 -666.249 334.972 -665.303C281.379 -663.91 244.999 -624.334 211.473 -579.888C205.825 -572.4 200.26 -564.776 194.705 -557.166C183.743 -542.149 172.824 -527.19 161.398 -513.455C144.192 -492.772 125.904 -474.951 104.742 -464.018C74.8948 -448.599 43.7667 -448.679 12.1057 -456.702C12.0114 -456.277 11.9176 -455.851 11.8244 -455.425C43.6849 -447.359 75.141 -447.255 105.342 -462.857C126.734 -473.909 145.155 -491.887 162.403 -512.62C173.853 -526.385 184.817 -541.403 195.794 -556.441L195.796 -556.443C201.344 -564.044 206.896 -571.65 212.517 -579.101C246.064 -623.576 282.103 -662.621 335.006 -663.997C371.837 -664.934 413.579 -649.959 454.154 -630.896C474.431 -621.369 494.393 -610.833 513.282 -600.774C514.927 -599.899 516.564 -599.026 518.192 -598.158C535.255 -589.065 551.373 -580.475 565.947 -573.533C579.268 -567.182 592.7 -560.591 606.234 -553.95L606.24 -553.947C656.311 -529.378 707.786 -504.119 760.261 -487.771C820.902 -468.884 870.151 -486.088 918.283 -510.463C929.199 -515.991 940.053 -521.884 950.968 -527.81C963.346 -534.53 975.803 -541.293 988.518 -547.615Z" fill="black"/>
<path d="M995.795 -529.733C995.639 -530.14 995.482 -530.546 995.324 -530.952C981.95 -525.681 968.801 -520.02 955.744 -514.399L955.742 -514.398C944.034 -509.357 932.399 -504.348 920.741 -499.68C870.833 -479.696 820.392 -465.896 761.479 -482.157C708.379 -496.793 656.112 -518.861 604.753 -540.547L604.746 -540.55C590.988 -546.359 577.296 -552.14 563.67 -557.743C548.002 -564.185 530.635 -572.303 512.253 -580.896L509.533 -582.167C490.15 -591.226 469.693 -600.739 448.98 -609.301C407.573 -626.419 365.052 -639.779 327.941 -638.092C275.444 -635.714 241.082 -597.344 209.534 -554.42C204.387 -547.418 199.316 -540.296 194.253 -533.184L194.251 -533.181C183.768 -518.458 173.318 -503.779 162.287 -490.296C145.937 -470.311 128.377 -453.037 107.695 -442.271C75.9685 -425.749 42.4013 -427.069 8.13264 -436.942C8.05477 -436.511 7.97743 -436.08 7.90062 -435.649C42.3316 -425.751 76.2194 -424.406 108.299 -441.112C129.211 -451.998 146.905 -469.429 163.299 -489.469C174.358 -502.986 184.854 -517.728 195.352 -532.474L195.357 -532.48C200.412 -539.58 205.468 -546.681 210.587 -553.647C242.15 -596.589 276.181 -634.44 328 -636.787C364.805 -638.46 407.097 -625.202 448.48 -608.094C469.162 -599.544 489.594 -590.043 508.98 -580.984L511.711 -579.707L511.713 -579.706C530.084 -571.119 547.475 -562.989 563.173 -556.535C576.775 -550.941 590.452 -545.166 604.201 -539.361C655.57 -517.671 707.94 -495.558 761.131 -480.898C820.461 -464.522 871.233 -478.449 921.227 -498.467C932.953 -503.163 944.632 -508.19 956.366 -513.242C969.392 -518.849 982.488 -524.487 995.795 -529.733Z" fill="black"/>
<path d="M1002.46 -511.382C1002.32 -511.795 1002.18 -512.207 1002.04 -512.619C988.531 -508.682 975.173 -504.448 961.88 -500.235C949.341 -496.26 936.86 -492.304 924.369 -488.634C872.414 -473.368 820.186 -463.005 762.414 -476.515C708.49 -489.114 655.194 -507.797 602.538 -526.256C588.576 -531.151 574.66 -536.029 560.788 -540.774C543.781 -546.588 524.934 -554.092 505.054 -562.008L505.01 -562.026C485.12 -569.945 464.203 -578.273 443.096 -585.713C400.9 -600.586 357.859 -611.944 320.648 -609.368C267.892 -605.726 236.641 -568 208.031 -526.525C204.211 -520.989 200.44 -515.386 196.67 -509.786C186.297 -494.379 175.94 -478.994 164.644 -465.064C149.252 -446.083 132.168 -429.875 111.047 -420.095C76.3179 -404.007 40.8238 -406.67 5.05959 -417.892C4.99747 -417.455 4.93587 -417.017 4.87491 -416.58C40.7631 -405.353 76.5421 -402.671 111.596 -418.91C132.974 -428.808 150.207 -445.186 165.66 -464.242C176.996 -478.221 187.402 -493.678 197.785 -509.102C201.548 -514.691 205.307 -520.276 209.107 -525.784C237.724 -567.268 268.66 -604.47 320.738 -608.065C357.664 -610.621 400.488 -599.346 442.662 -584.481C463.74 -577.051 484.633 -568.733 504.526 -560.812L504.59 -560.786C524.454 -552.877 543.327 -545.362 560.365 -539.538C574.215 -534.8 588.117 -529.927 602.069 -525.036C654.734 -506.573 708.116 -487.86 762.116 -475.243C820.223 -461.654 872.717 -472.095 924.737 -487.38C937.287 -491.068 949.804 -495.035 962.364 -499.016C975.652 -503.228 988.988 -507.455 1002.46 -511.382Z" fill="black"/>
<path d="M1008.54 -492.418C1008.41 -492.837 1008.28 -493.256 1008.16 -493.675C995.319 -491.088 982.522 -488.307 969.746 -485.53C958.444 -483.074 947.158 -480.621 935.873 -478.309C884.021 -467.689 832.136 -460.04 778.548 -468.623C713.472 -479.033 649.333 -497.361 585.544 -515.59C561.824 -522.368 538.152 -529.132 514.498 -535.471C500.625 -539.182 485.675 -543.828 470.102 -548.668L467.482 -549.482C450.97 -554.612 433.795 -559.91 416.515 -564.495C381.969 -573.66 346.935 -579.992 315.853 -576.396C261.883 -570.157 232.388 -533.144 204.896 -493.418C202.322 -489.699 199.766 -485.956 197.208 -482.212L197.2 -482.199C172.4 -445.89 147.534 -409.483 105.839 -393.233C72.496 -380.224 37.743 -384.619 2.50484 -396.792C2.46016 -396.347 2.41601 -395.901 2.3725 -395.455C37.6859 -383.299 72.679 -378.893 106.314 -392.016C148.409 -408.422 173.507 -445.179 198.263 -481.436C200.83 -485.195 203.393 -488.949 205.971 -492.675C233.463 -532.401 262.665 -568.932 316.004 -575.098C346.832 -578.665 381.669 -572.388 416.18 -563.232C433.43 -558.656 450.58 -553.365 467.094 -548.235L469.72 -547.418C485.287 -542.58 500.26 -537.927 514.16 -534.209C537.767 -527.883 561.411 -521.126 585.115 -514.353C648.929 -496.117 713.182 -477.756 778.341 -467.333C832.173 -458.711 884.253 -466.403 936.136 -477.03C947.456 -479.348 958.764 -481.806 970.079 -484.265C982.88 -487.047 995.691 -489.831 1008.54 -492.418Z" fill="black"/>
<path d="M1013.67 -473.98C1013.56 -474.406 1013.45 -474.833 1013.34 -475.259C1000.87 -473.946 988.423 -472.527 975.979 -471.109C964.165 -469.763 952.356 -468.418 940.553 -467.165C887.134 -461.494 833.763 -457.708 780.001 -464.233C714.11 -472.24 648.762 -486.053 583.598 -499.827C559.547 -504.911 535.521 -509.989 511.501 -514.769C496.372 -517.775 480.137 -521.71 463.304 -525.797L462.835 -525.91C446.153 -529.961 428.892 -534.151 411.571 -537.718C376.614 -544.916 341.35 -549.587 310.005 -545.419C258.021 -538.511 230.147 -503.418 204.208 -465.881C201.828 -462.436 199.464 -458.972 197.1 -455.507C173.655 -421.142 150.148 -386.688 109.936 -370.822C75.2323 -357.13 38.3931 -362.753 0.874749 -376.519C0.847196 -376.065 0.820175 -375.611 0.793792 -375.156C38.3511 -361.428 75.4204 -355.799 110.416 -369.607C151.023 -385.629 174.758 -420.428 198.163 -454.743L198.166 -454.748C200.536 -458.223 202.903 -461.693 205.283 -465.138C231.216 -502.667 258.806 -537.297 310.178 -544.124C341.297 -548.262 376.384 -543.63 411.307 -536.438C428.606 -532.876 445.848 -528.69 462.537 -524.638L462.996 -524.527C479.823 -520.442 496.085 -516.499 511.246 -513.487C535.23 -508.715 559.234 -503.641 583.272 -498.56L583.276 -498.559C648.459 -484.781 713.891 -470.95 779.843 -462.936C833.759 -456.392 887.253 -460.193 940.691 -465.866C952.517 -467.121 964.339 -468.468 976.162 -469.815L976.164 -469.815C988.663 -471.239 1001.16 -472.664 1013.67 -473.98Z" fill="black"/>
<path d="M1018.03 -455.732C1017.94 -456.166 1017.84 -456.6 1017.74 -457.034C1006.09 -456.838 994.435 -456.606 982.782 -456.374H982.78C970.295 -456.125 957.811 -455.877 945.33 -455.672C890.641 -454.777 835.998 -454.732 781.491 -459.251C714.668 -464.776 648.111 -474.037 581.617 -483.288L581.614 -483.289C557.485 -486.646 533.365 -490.001 509.243 -493.177C493.624 -495.233 477.045 -498.102 459.96 -501.104C458.652 -501.334 457.341 -501.565 456.027 -501.796C440.187 -504.584 423.948 -507.441 407.688 -509.831C372.479 -515.007 337.115 -518 305.379 -513.334C255.42 -505.999 228.878 -472.995 204.174 -437.802C201.961 -434.65 199.763 -431.481 197.565 -428.311C175.181 -396.034 152.74 -363.675 113.926 -348.375C78.1014 -334.248 39.4833 -340.988 0.0374181 -356.109C0.0275246 -355.645 0.018163 -355.182 0.00943973 -354.719C39.4588 -339.657 78.2931 -332.919 114.406 -347.16C153.609 -362.613 176.276 -395.308 198.621 -427.538L198.635 -427.558C200.836 -430.733 203.034 -433.903 205.244 -437.052C229.936 -472.228 256.199 -504.793 305.569 -512.042C337.11 -516.679 372.319 -513.71 407.498 -508.539C423.739 -506.151 439.962 -503.297 455.806 -500.509L459.734 -499.818C476.816 -496.815 493.422 -493.942 509.072 -491.882C533.174 -488.709 557.282 -485.355 581.404 -481.998C647.91 -472.745 714.521 -463.478 781.383 -457.949C835.957 -453.424 890.654 -453.471 945.352 -454.366C957.836 -454.57 970.32 -454.819 982.803 -455.067L982.824 -455.068C994.561 -455.302 1006.3 -455.535 1018.03 -455.732Z" fill="black"/>
<path d="M1021.67 -437.603C1021.59 -438.045 1021.51 -438.486 1021.43 -438.928C1005.92 -439.9 990.423 -440.888 974.922 -441.877C910.99 -445.955 847.057 -450.033 783.055 -452.94C714.861 -456.041 646.751 -460.793 578.638 -465.546C555.112 -467.187 531.586 -468.829 508.056 -470.402C489.468 -471.651 469.871 -473.834 449.821 -476.068C435.179 -477.699 420.296 -479.357 405.389 -480.697C370.117 -483.869 334.803 -485.251 302.603 -480.217C254.615 -472.734 228.981 -441.96 205.072 -409.241C202.975 -406.372 200.892 -403.488 198.808 -400.603C177.099 -370.552 155.345 -340.439 117.846 -325.93C80.9973 -311.652 40.9454 -319.339 -2.82447e-05 -335.529C0.00837591 -335.057 0.0175247 -334.585 0.0272055 -334.112C40.9431 -318.001 81.1919 -310.326 118.318 -324.711C156.197 -339.368 178.176 -369.801 199.848 -399.81C201.94 -402.706 204.028 -405.598 206.128 -408.471C230.019 -441.165 255.379 -471.53 302.805 -478.926C334.842 -483.934 370.027 -482.565 405.272 -479.396C420.109 -478.062 434.974 -476.406 449.615 -474.776L449.619 -474.775C469.707 -472.538 489.373 -470.348 507.969 -469.099C531.49 -467.526 555.011 -465.885 578.533 -464.243C646.651 -459.49 714.784 -454.736 782.996 -451.635C846.996 -448.728 910.894 -444.652 974.805 -440.575L974.812 -440.575L974.822 -440.574C990.437 -439.578 1006.05 -438.582 1021.67 -437.603Z" fill="black"/>
<path d="M1024.64 -419.416C1024.58 -419.864 1024.51 -420.312 1024.45 -420.76C1011.94 -422.399 999.449 -424.092 986.955 -425.785L986.942 -425.787C976.064 -427.261 965.187 -428.735 954.306 -430.174C898.09 -437.604 841.77 -444.079 784.694 -444.67C723.276 -445.285 661.857 -445.54 600.44 -445.794H600.435L600.386 -445.794C569.694 -445.922 539.002 -446.049 508.312 -446.221C487.566 -446.337 465.933 -447.407 443.968 -448.493L443.965 -448.493C431.093 -449.13 418.107 -449.772 405.118 -450.231C369.992 -451.473 334.895 -451.373 302.195 -446.176C256.052 -438.824 230.78 -410.423 207.104 -380.309C205.065 -377.716 203.038 -375.11 201.011 -372.504C179.471 -344.815 157.904 -317.09 121.548 -303.596C83.6797 -289.546 42.6503 -297.942 0.778899 -314.835C0.806664 -314.354 0.834962 -313.872 0.864004 -313.391C42.6773 -296.596 83.878 -288.226 122.003 -302.371C158.725 -316.001 180.517 -344.022 202.023 -371.675L202.049 -371.709C204.075 -374.314 206.099 -376.916 208.132 -379.502C231.784 -409.586 256.787 -437.618 302.4 -444.885C334.972 -450.063 369.967 -450.166 405.072 -448.925C418.019 -448.467 430.987 -447.826 443.852 -447.19L443.857 -447.19C465.846 -446.103 487.536 -445.031 508.304 -444.914C539.013 -444.742 569.72 -444.615 600.427 -444.488H600.44C661.855 -444.233 723.267 -443.979 784.681 -443.364C841.673 -442.773 897.926 -436.308 954.135 -428.878C965.01 -427.441 975.884 -425.967 986.762 -424.493C999.382 -422.783 1012.01 -421.072 1024.64 -419.416Z" fill="black"/>
<path d="M1026.99 -400.908C1026.94 -401.361 1026.89 -401.813 1026.84 -402.265C1014.41 -404.575 1002.01 -406.976 989.608 -409.376L989.606 -409.377C979.052 -411.419 968.501 -413.461 957.943 -415.446C901.437 -426.071 844.735 -435.072 786.373 -433.816C751.403 -433.055 715.67 -432.706 679.537 -432.352L679.532 -432.352C554.38 -431.129 424.423 -429.858 304.709 -411.287C260.286 -404.382 234.721 -378.47 210.572 -351.079C208.565 -348.802 206.567 -346.515 204.57 -344.228L204.551 -344.206C182.503 -318.963 160.448 -293.712 124.888 -281.523C85.9446 -268.162 44.4861 -276.978 2.38601 -294.14C2.43399 -293.65 2.48271 -293.159 2.53207 -292.669C44.5509 -275.622 86.1468 -266.85 125.312 -280.287C161.219 -292.596 183.497 -318.109 205.514 -343.321C207.526 -345.625 209.535 -347.926 211.553 -350.215C235.675 -377.576 260.975 -403.167 304.91 -409.996C424.521 -428.551 554.347 -429.821 679.484 -431.045C715.634 -431.398 751.393 -431.748 786.401 -432.509C844.619 -433.763 901.209 -424.785 957.701 -414.162C968.236 -412.181 978.768 -410.143 989.307 -408.103L989.334 -408.098C1001.87 -405.672 1014.42 -403.244 1026.99 -400.908Z" fill="black"/>
<path d="M1028.69 -381.984C1028.65 -382.439 1028.62 -382.893 1028.59 -383.348C1016.17 -386.213 1003.78 -389.211 991.384 -392.208C983.357 -394.149 975.331 -396.09 967.3 -397.995C912.93 -410.891 858.325 -422.115 801.623 -420.377C639.761 -415.429 468.708 -397.667 308.306 -376.068C264.928 -370.221 237.567 -345.125 211.128 -319.308C209.829 -318.04 208.533 -316.771 207.238 -315.502C182.119 -290.9 157.181 -266.475 119.337 -257.692C81.355 -248.864 43.1306 -257.521 4.87183 -273.175C4.94151 -272.675 5.01193 -272.176 5.083 -271.676C43.2434 -256.149 81.5292 -247.563 119.633 -256.419C157.844 -265.288 183.026 -289.955 208.094 -314.511C209.41 -315.8 210.725 -317.088 212.041 -318.373C238.48 -344.189 265.568 -368.989 308.48 -374.773C468.859 -396.369 639.863 -414.125 801.663 -419.071C858.179 -420.803 912.637 -409.617 966.998 -396.724C975.018 -394.822 983.037 -392.882 991.06 -390.942C1003.58 -387.912 1016.12 -384.88 1028.69 -381.984Z" fill="black"/>
<path d="M1029.74 -361.623C1029.72 -362.075 1029.71 -362.528 1029.69 -362.981C1016.16 -366.352 1002.67 -369.932 989.185 -373.51C982.322 -375.332 975.46 -377.153 968.593 -378.946C914.496 -393.073 860.138 -405.466 802.902 -402.544C722.284 -398.444 641.378 -387.198 560.592 -374.709C543.128 -372.009 525.671 -369.252 508.223 -366.495L508.219 -366.495C444.947 -356.5 381.803 -346.525 318.958 -339.408C276.294 -334.567 246.706 -312.468 217.876 -289.832C216.628 -288.853 215.382 -287.873 214.137 -286.893C186.568 -265.201 159.221 -243.684 121.176 -236.617C82.6156 -229.46 45.1531 -237.963 8.11019 -252.915C8.20168 -252.408 8.29392 -251.901 8.38689 -251.394C45.3155 -236.58 82.797 -228.165 121.414 -235.332C159.784 -242.459 187.364 -264.162 214.884 -285.817C216.15 -286.814 217.416 -287.81 218.683 -288.805C247.515 -311.442 276.845 -333.315 319.105 -338.11C381.982 -345.231 445.164 -355.211 508.44 -365.207C525.885 -367.963 543.337 -370.72 560.792 -373.418C641.57 -385.905 722.421 -397.143 802.969 -401.239C859.986 -404.15 914.173 -391.807 968.263 -377.682C975.121 -375.891 981.978 -374.071 988.838 -372.25L988.84 -372.25C1002.44 -368.64 1016.06 -365.025 1029.74 -361.623Z" fill="black"/>
<path d="M1029.99 -341.174C1030 -341.621 1030 -342.067 1030 -342.514C1017.61 -345.416 1005.25 -348.456 992.879 -351.496C984.078 -353.66 975.278 -355.824 966.47 -357.937C911.766 -371.064 856.824 -382.243 800.058 -379.359C690.995 -373.842 580.254 -357.713 470.542 -341.735C422.371 -334.719 374.399 -327.732 326.854 -321.685C284.264 -316.272 252.512 -294.233 221.388 -271.846C220.325 -271.081 219.263 -270.316 218.201 -269.551C188.139 -247.902 158.348 -226.448 119.481 -219.523C83.0875 -213.04 47.3998 -220.206 12.0232 -233.404C12.1353 -232.896 12.2479 -232.39 12.3614 -231.883C47.6147 -218.825 83.2914 -211.749 119.711 -218.237C158.877 -225.215 188.886 -246.828 218.893 -268.439C219.979 -269.222 221.065 -270.004 222.152 -270.785C253.289 -293.182 284.796 -315.022 327.019 -320.389C374.615 -326.443 422.616 -333.434 470.802 -340.452L470.804 -340.452C580.486 -356.426 691.125 -372.54 800.124 -378.054C856.688 -380.928 911.473 -369.79 966.165 -356.667C974.955 -354.557 983.744 -352.397 992.537 -350.235L992.542 -350.233C1005.01 -347.168 1017.49 -344.1 1029.99 -341.174Z" fill="black"/>
<path d="M1029.33 -318.247C1029.35 -318.686 1029.37 -319.126 1029.39 -319.565C1016.88 -321.985 1004.37 -324.51 991.869 -327.035C979.5 -329.532 967.131 -332.03 954.751 -334.426C897.171 -345.568 839.386 -354.498 780.436 -350.893C634.358 -341.957 483.85 -325.378 338.89 -305.514C296.533 -299.715 262.913 -279.714 229.938 -259.054C228.04 -257.865 226.145 -256.674 224.251 -255.484C193.19 -235.966 162.298 -216.554 124.666 -208.369C87.9062 -200.387 51.684 -205.997 15.7268 -217.801C15.8539 -217.301 15.9818 -216.8 16.1104 -216.3C51.9496 -204.628 88.16 -199.105 124.943 -207.092C162.807 -215.328 193.882 -234.856 224.903 -254.35C226.813 -255.55 228.722 -256.75 230.632 -257.947C263.611 -278.609 297.018 -298.463 339.067 -304.22C484.006 -324.081 634.479 -340.656 780.516 -349.589C839.292 -353.184 896.942 -344.282 954.502 -333.143C966.857 -330.752 979.208 -328.258 991.566 -325.763L991.571 -325.762C1004.15 -323.222 1016.73 -320.681 1029.33 -318.247Z" fill="black"/>
<path d="M1027.54 -294.158C1027.58 -294.592 1027.62 -295.026 1027.66 -295.46C1014.72 -297.313 1001.77 -299.244 988.823 -301.176L988.815 -301.177C974.915 -303.251 961.011 -305.325 947.1 -307.304C888.682 -315.612 830.141 -322.228 771.217 -319.992C632.62 -314.749 488.348 -308.029 350.718 -290.931C307.012 -285.506 270.085 -266.442 233.672 -246.762C231.672 -245.68 229.673 -244.597 227.675 -243.515C193.27 -224.873 159.022 -206.317 119.509 -198.662C85.4245 -192.07 52.1102 -195.951 19.1549 -205.004C19.2929 -204.514 19.4317 -204.024 19.5711 -203.535C52.4123 -194.595 85.6887 -190.79 119.757 -197.379C159.474 -205.074 193.887 -223.72 228.253 -242.342L228.263 -242.347C230.273 -243.437 232.283 -244.526 234.294 -245.612C270.716 -265.298 307.446 -284.243 350.88 -289.635C488.448 -306.725 632.671 -313.444 771.266 -318.686C830.068 -320.917 888.513 -314.316 946.916 -306.01C960.809 -304.034 974.702 -301.962 988.597 -299.889L988.6 -299.888C1001.58 -297.952 1014.56 -296.016 1027.54 -294.158Z" fill="black"/>
<path d="M1024.35 -268.294C1024.41 -268.727 1024.47 -269.159 1024.54 -269.592C1010.95 -270.431 997.36 -271.281 983.762 -272.131L983.754 -272.131C777.41 -285.029 569.629 -298.017 363.588 -277.126C317.921 -272.498 277.345 -254.796 237.179 -236.426C234.804 -235.34 232.431 -234.252 230.059 -233.163C192.269 -215.833 154.6 -198.558 113.023 -191.54C82.0038 -186.302 51.8304 -188.656 22.0646 -195.066C22.2095 -194.589 22.3551 -194.112 22.5014 -193.636C52.1565 -187.317 82.2698 -185.022 113.24 -190.252C154.995 -197.3 192.811 -214.643 230.566 -231.958L230.659 -232.001C233.013 -233.081 235.368 -234.161 237.723 -235.238C277.899 -253.612 318.294 -271.223 363.72 -275.826C569.644 -296.706 777.295 -283.726 983.636 -270.829L983.651 -270.828C997.222 -269.98 1010.79 -269.132 1024.35 -268.294Z" fill="black"/>
<path d="M1020.19 -244.33C1020.27 -244.764 1020.36 -245.198 1020.44 -245.633C998.766 -245.928 977.089 -246.165 955.413 -246.401H955.409C885.741 -247.162 816.085 -247.922 746.443 -250.62C707.864 -252.113 668.656 -254.83 629.223 -257.563C544.943 -263.404 459.633 -269.316 377.238 -263.504C329.281 -260.118 284.692 -244.904 240.455 -228.492C235.431 -226.628 230.412 -224.749 225.393 -222.87C186.194 -208.194 147.005 -193.521 105.629 -186.185C78.3679 -181.36 51.5138 -182.127 24.8724 -186.121C25.0224 -185.658 25.1732 -185.195 25.3245 -184.733C51.863 -180.807 78.6508 -180.083 105.858 -184.899C147.36 -192.257 186.666 -206.974 225.851 -221.646C230.872 -223.526 235.89 -225.405 240.91 -227.267C285.143 -243.677 329.578 -258.829 377.33 -262.2C459.634 -268.006 544.783 -262.104 629.014 -256.266L629.018 -256.266C668.473 -253.532 707.727 -250.811 746.393 -249.314C816.037 -246.616 885.741 -245.855 955.436 -245.094L955.447 -245.094C977.029 -244.858 998.61 -244.623 1020.19 -244.33Z" fill="black"/>
<path d="M1014.6 -219.421C1014.71 -219.863 1014.83 -220.306 1014.93 -220.749C995.943 -219.646 976.938 -218.353 957.933 -217.061L957.923 -217.06C943.564 -216.083 929.204 -215.107 914.848 -214.212C853.785 -210.405 792.784 -208.073 732.144 -213.477C691.059 -217.146 649.401 -223.476 607.54 -229.837C592.348 -232.146 577.13 -234.458 561.903 -236.649C504.736 -244.874 447.47 -251.379 391.152 -249.476C340.712 -247.774 291.993 -234.793 243.566 -220.301C235.942 -218.019 228.325 -215.7 220.71 -213.381C179.934 -200.967 139.204 -188.567 97.5889 -181.979C73.771 -178.209 50.2378 -178.042 26.8618 -180.109C27.0141 -179.658 27.167 -179.207 27.3205 -178.757C50.5947 -176.736 74.0482 -176.93 97.7934 -180.688C139.507 -187.292 180.337 -199.723 221.111 -212.138C228.721 -214.455 236.33 -216.771 243.941 -219.049C292.36 -233.539 340.939 -246.475 391.196 -248.17C447.394 -250.069 504.566 -243.579 561.717 -235.356C576.92 -233.168 592.124 -230.858 607.308 -228.551L607.31 -228.55C649.183 -222.188 690.9 -215.848 732.028 -212.175C792.771 -206.762 853.854 -209.1 914.93 -212.908C929.305 -213.804 943.679 -214.782 958.048 -215.759C976.911 -217.042 995.765 -218.324 1014.6 -219.421Z" fill="black"/>
<path d="M1007.75 -194.706C1007.89 -195.163 1008.03 -195.62 1008.16 -196.078C988.613 -193.54 968.988 -190.632 949.338 -187.72C933.788 -185.416 918.222 -183.11 902.666 -180.983C840.305 -172.456 778.055 -166.801 717.331 -175.629C676.466 -181.582 635.498 -191.91 594.381 -202.275L594.378 -202.275C583.521 -205.012 572.654 -207.752 561.776 -210.414C509.722 -223.153 457.436 -234.116 404.956 -234.486C352.013 -234.856 299.162 -224.243 246.531 -211.809C235.679 -209.245 224.838 -206.604 214.007 -203.966C172.283 -193.802 130.712 -183.676 89.2932 -178.141C68.8899 -175.407 48.6405 -174.72 28.481 -175.391C28.6348 -174.95 28.7891 -174.51 28.9441 -174.069C48.9976 -173.424 69.1531 -174.124 89.4666 -176.846C130.961 -182.391 172.619 -192.539 214.35 -202.704L214.353 -202.705C225.175 -205.341 236.001 -207.979 246.831 -210.537C299.449 -222.968 352.171 -233.548 404.947 -233.179C457.264 -232.811 509.424 -221.881 561.465 -209.145C572.319 -206.489 583.168 -203.754 594.013 -201.02L594.025 -201.017C635.15 -190.649 676.204 -180.3 717.142 -174.336C778.058 -165.48 840.46 -171.159 902.843 -179.689C918.434 -181.82 934.021 -184.13 949.584 -186.436C969.023 -189.316 988.425 -192.19 1007.75 -194.706Z" fill="black"/>
<path d="M999.631 -170.287C999.803 -170.764 999.974 -171.241 1000.15 -171.719C980.415 -167.839 960.485 -163.423 940.473 -158.989L940.47 -158.989C922.074 -154.913 903.608 -150.821 885.163 -147.116C819.305 -133.888 753.663 -125.571 692.085 -140.286C657.588 -148.527 622.796 -162.026 587.711 -175.639C577.504 -179.599 567.272 -183.569 557.016 -187.422C511.541 -204.505 465.612 -219.272 419.413 -220.53C366.204 -221.99 311.053 -213.885 256.025 -203.832C240.963 -201.08 225.913 -198.184 210.914 -195.297L210.903 -195.294C171.081 -187.629 131.616 -180.033 93.2541 -175.41C72.0194 -172.851 50.8956 -171.731 29.833 -171.563C29.9884 -171.128 30.1445 -170.694 30.301 -170.26C51.2533 -170.441 72.2749 -171.566 93.4107 -174.112C131.821 -178.742 171.352 -186.351 211.189 -194.018L211.193 -194.019L211.196 -194.02C226.189 -196.906 241.224 -199.8 256.26 -202.547C311.273 -212.597 366.312 -220.68 419.377 -219.224C465.342 -217.972 511.096 -203.276 556.556 -186.199C566.78 -182.359 576.99 -178.397 587.183 -174.442C622.283 -160.823 657.189 -147.279 691.781 -139.015C753.653 -124.23 819.534 -132.601 885.42 -145.835C903.926 -149.553 922.429 -153.652 940.846 -157.733L940.848 -157.733C960.574 -162.104 980.203 -166.453 999.631 -170.287Z" fill="black"/>
<path d="M990.315 -146.358C990.525 -146.859 990.734 -147.361 990.942 -147.863C970.663 -142.755 950.133 -136.953 929.5 -131.121L929.498 -131.121C911.092 -125.919 892.602 -120.693 874.134 -115.916C807.245 -98.613 740.575 -87.1641 678.693 -103.694C643.158 -113.186 609.452 -131.224 575.605 -149.338C569.516 -152.596 563.422 -155.857 557.312 -159.072C517.281 -180.131 476.586 -199.161 432.182 -202.032C376.688 -205.636 317.847 -200.045 259.022 -192.337C240.08 -189.855 221.143 -187.154 202.319 -184.469L202.317 -184.469C162.658 -178.812 123.5 -173.227 85.8501 -169.911C67.7981 -168.324 49.7487 -167.209 31.6989 -166.433C31.8575 -166.004 32.0167 -165.575 32.1765 -165.146C50.1084 -165.923 68.0378 -167.033 85.9648 -168.609C123.65 -171.929 162.869 -177.522 202.549 -183.182C221.364 -185.865 240.283 -188.564 259.191 -191.041C317.999 -198.747 376.736 -204.324 432.097 -200.729C476.199 -197.877 516.678 -178.972 556.703 -157.915C562.795 -154.711 568.877 -151.456 574.959 -148.2C608.801 -130.088 642.661 -111.966 678.355 -102.432C740.589 -85.8079 807.547 -97.3416 874.461 -114.651C893 -119.447 911.532 -124.684 929.963 -129.893C950.245 -135.625 970.404 -141.322 990.315 -146.358Z" fill="black"/>
<path d="M979.151 -121.556C979.41 -122.092 979.667 -122.628 979.924 -123.165C975.387 -121.755 970.83 -120.304 966.254 -118.821C951.478 -114.034 936.533 -108.923 921.49 -103.778L921.486 -103.776C902.421 -97.256 883.197 -90.6813 863.953 -84.6408C795.133 -63.039 726.626 -48.4678 666.502 -68.2779C632.938 -79.3389 602.966 -99.9069 572.896 -120.542C567.835 -124.015 562.771 -127.489 557.688 -130.921C522.439 -154.714 486.239 -176.409 443.396 -180.654C385.784 -186.346 323.715 -183.434 261.551 -178.297C238.373 -176.382 215.189 -174.158 192.216 -171.954L192.214 -171.954L192.21 -171.954C153.542 -168.244 115.471 -164.592 79.0375 -162.566C64.0761 -161.731 49.1241 -160.823 34.1784 -159.866C34.3426 -159.44 34.5074 -159.014 34.6729 -158.588C49.4841 -159.535 64.2963 -160.435 79.1101 -161.261C115.565 -163.289 153.69 -166.946 192.383 -170.657L192.39 -170.658C215.356 -172.861 238.522 -175.083 261.658 -176.995C323.804 -182.131 385.777 -185.034 443.267 -179.354C485.754 -175.145 521.715 -153.626 556.956 -129.838C562.022 -126.418 567.075 -122.951 572.129 -119.482C602.19 -98.8514 632.337 -78.1615 666.092 -67.0371C726.649 -47.0845 795.519 -61.7907 864.344 -83.3943C883.579 -89.4319 902.855 -96.0238 921.952 -102.555L921.958 -102.557C937.005 -107.702 951.94 -112.81 966.657 -117.579C970.839 -118.933 975.004 -120.261 979.151 -121.556Z" fill="black"/>
<path d="M965.937 -96.0222C966.258 -96.6009 966.577 -97.1802 966.895 -97.7603C964.594 -96.9261 962.286 -96.081 959.972 -95.2264C944.909 -89.6634 929.598 -83.7031 914.143 -77.6867C894.724 -70.1272 875.077 -62.479 855.408 -55.4191C784.798 -30.0747 714.56 -12.5763 656.038 -34.7447C623.917 -46.9144 597.37 -69.0382 570.781 -91.197L570.777 -91.2C566.497 -94.7665 562.217 -98.3339 557.912 -101.861C526.898 -127.268 494.644 -150.538 452.536 -155.768C366.732 -166.435 270.836 -161.646 178.785 -157.048C142.689 -155.245 107.184 -153.472 73.1113 -152.672C61.2384 -152.394 49.4274 -151.838 37.6644 -151.065C37.8375 -150.64 38.0111 -150.215 38.1853 -149.79C49.7874 -150.547 61.435 -151.092 73.142 -151.366C107.293 -152.168 142.846 -153.943 178.969 -155.748L178.971 -155.748C270.979 -160.343 366.692 -165.123 452.375 -154.472C494.082 -149.291 526.084 -126.245 557.083 -100.85C561.373 -97.3358 565.644 -93.7755 569.92 -90.2119C596.497 -68.0604 623.232 -45.7769 655.575 -33.523C714.594 -11.1662 785.26 -28.8523 855.85 -54.1895C875.504 -61.2438 895.203 -68.9117 914.654 -76.4832L914.658 -76.4848L914.664 -76.4873C930.123 -82.5049 945.426 -88.4616 960.425 -94.0009C962.267 -94.681 964.104 -95.355 965.937 -96.0222Z" fill="black"/>
<path d="M955.295 -77.6982C955.64 -78.2663 955.985 -78.8352 956.329 -79.4047C922.245 -68.4385 889.046 -55.3241 854.84 -41.8115C846.855 -38.6572 838.816 -35.4813 830.697 -32.3059C826.151 -30.526 821.539 -28.6898 816.87 -26.8309C792.597 -17.1675 766.773 -6.88663 740.597 -0.674502C709.398 6.72975 677.782 8.33048 647.814 -3.76432C616.468 -16.4203 592.669 -38.9668 568.9 -61.4843C565.215 -64.9759 561.53 -68.4668 557.818 -71.92C530.201 -97.6103 501.112 -121.163 459.119 -126.86C363.263 -139.898 257.389 -139.67 156.169 -139.453H156.165C126.345 -139.389 96.9299 -139.326 68.2937 -139.603C59.6788 -139.686 51.1481 -139.524 42.6874 -139.154C42.8744 -138.726 43.0618 -138.298 43.2499 -137.87C51.5228 -138.224 59.862 -138.378 68.2812 -138.296C96.9556 -138.019 126.397 -138.082 156.234 -138.146C257.438 -138.363 363.186 -138.59 458.943 -125.565C500.506 -119.927 529.338 -96.6286 556.927 -70.9636C560.624 -67.5245 564.299 -64.042 567.98 -60.5541C591.735 -38.0454 615.73 -15.309 647.324 -2.55296C677.64 9.68236 709.56 8.03415 740.899 0.596727C767.177 -5.6397 793.106 -15.9629 817.377 -25.6264L817.38 -25.6273C822.042 -27.4836 826.643 -29.3154 831.173 -31.0892C839.295 -34.2659 847.336 -37.4419 855.319 -40.5954C889.054 -53.9215 921.768 -66.8439 955.295 -77.6982Z" fill="black"/>
<path d="M938.758 -52.2491C939.182 -52.8626 939.606 -53.477 940.028 -54.0924C910.842 -43.6682 882.221 -31.6338 852.749 -19.2419L852.741 -19.2384C844.119 -15.6131 835.424 -11.9573 826.621 -8.30225C822.76 -6.70067 818.823 -5.04698 814.817 -3.36481C790.497 6.84894 763.679 18.111 736.37 25.1314C704.568 33.3068 672.19 35.7037 642.414 24.0345C611.119 11.7728 589.05 -9.88241 567.091 -31.4301L567.089 -31.4315C563.832 -34.6277 560.577 -37.8215 557.295 -40.982C531.909 -65.4258 504.935 -87.8068 462.698 -93.2992C333.675 -110.028 195.385 -116.859 65.0288 -122.655C59.9995 -122.877 55.0164 -122.99 50.0752 -123.004C50.2842 -122.568 50.4936 -122.131 50.7038 -121.695C55.4202 -121.674 60.1747 -121.562 64.9711 -121.35C195.332 -115.554 333.569 -108.724 462.53 -92.0036C504.33 -86.5679 531.047 -64.4421 556.388 -40.041C559.655 -36.8949 562.901 -33.7099 566.153 -30.5179L566.158 -30.513C588.104 -8.97338 610.375 12.8845 641.937 25.2508C672.077 37.0626 704.768 34.6045 736.695 26.3968C764.106 19.3504 791.021 8.04627 815.337 -2.16572C819.339 -3.84657 823.271 -5.4978 827.123 -7.09567C835.933 -10.7539 844.632 -14.4112 853.255 -18.0367L853.259 -18.0383C882.161 -30.1902 910.211 -41.984 938.758 -52.2491Z" fill="black"/>
<path d="M918.154 -24.5261C918.69 -25.1985 919.224 -25.8721 919.756 -26.5472C897.741 -18.0551 875.866 -8.78162 853.491 0.703691C844.542 4.49776 835.512 8.3257 826.361 12.1511C822.967 13.57 819.508 15.0294 815.99 16.5134C791.389 26.8929 763.941 38.473 735.942 45.7926C703.943 54.1579 671.311 56.9323 641.477 46.0324C610.025 34.5459 588.104 14.1429 566.32 -6.13321C563.212 -9.02569 560.107 -11.9156 556.978 -14.7766C531.931 -37.6764 505.365 -58.6625 463.396 -63.8386C332.475 -79.9735 196.969 -93.9676 65.1173 -102.719C63.4684 -102.828 61.8252 -102.925 60.1875 -103.01C60.4271 -102.561 60.6674 -102.112 60.9084 -101.663C62.2786 -101.589 63.6525 -101.507 65.0305 -101.415C196.851 -92.666 332.331 -78.6748 463.236 -62.5419C504.787 -57.4174 531.099 -36.6657 556.096 -13.8126C559.21 -10.9648 562.306 -8.08338 565.408 -5.19531L565.416 -5.18813C587.188 15.0808 609.31 35.6759 641.028 47.2596C671.22 58.2902 704.155 55.4527 736.273 47.0566C764.371 39.7111 791.912 28.091 816.506 17.714C820.022 16.2307 823.477 14.7728 826.866 13.3564C836.024 9.5276 845.058 5.69807 854.009 1.90384C875.684 -7.28429 896.87 -16.2652 918.154 -24.5261Z" fill="black"/>
<path d="M891.969 5.85884C892.656 5.12056 893.342 4.38027 894.026 3.63801C880.978 8.79587 867.888 14.1276 854.639 19.5246C846.335 22.9071 837.968 26.3151 829.509 29.7221C825.673 31.2663 821.764 32.8577 817.792 34.4752C793.343 44.4304 766.481 55.3679 739.129 62.2996C707.337 70.3562 674.968 72.9764 645.054 62.3864C613.685 51.3002 590.957 31.6635 568.328 12.1129L568.325 12.1104C565.209 9.41798 562.095 6.7272 558.96 4.06066C533.081 -17.9525 505.856 -38.2624 464.844 -43.7896C335.953 -61.1432 203.108 -75.9125 73.2909 -86.5464C71.9177 -86.659 70.5482 -86.7623 69.1823 -86.8563C69.4469 -86.4007 69.7121 -85.9454 69.9781 -85.4906C71.0446 -85.4142 72.1132 -85.3321 73.1841 -85.2443C202.976 -74.6124 335.798 -59.8457 464.669 -42.4948C505.293 -37.0199 532.277 -16.9211 558.113 5.05565C561.238 7.71464 564.348 10.4019 567.464 13.0942C590.079 32.6366 613.001 52.4439 644.618 63.6181C674.878 74.3306 707.54 71.6527 739.45 63.5661C766.898 56.6102 793.853 45.6341 818.297 35.6806C822.266 34.0642 826.169 32.4749 829.998 30.934C838.461 27.5252 846.83 24.1166 855.132 20.7347C867.524 15.6873 879.77 10.6993 891.969 5.85884Z" fill="black"/>
<path d="M838.113 55.998C839.17 55.1452 840.224 54.2882 841.275 53.4273C774.583 78.3803 708.497 95.1392 651.32 76.2635C619.792 65.863 595.837 47.4206 571.933 29.0184C568.866 26.6572 565.799 24.2961 562.718 21.9533C535.644 1.36727 507.449 -17.8088 467.474 -23.6675C341.804 -42.0539 214.133 -59.7398 87.7882 -73.4753C84.039 -73.8821 80.3131 -74.2122 76.609 -74.4699C76.8919 -74.0126 77.1755 -73.5558 77.4599 -73.0995C80.8371 -72.8536 84.2325 -72.547 87.6471 -72.1764C213.967 -58.4436 341.62 -40.7604 467.285 -22.3748C506.914 -16.5668 534.885 2.43223 561.927 22.9932C565.001 25.331 568.064 27.6894 571.132 30.051C595.02 48.4445 619.157 67.0292 650.91 77.5041C707.505 96.1875 772.618 80.2138 838.113 55.998Z" fill="black"/>
<path d="M800.443 83.6581C801.576 82.9024 802.706 82.1424 803.833 81.3781C753.59 95.2735 704.565 101.285 659.872 87.9615C627.925 78.4487 602.297 61.5392 576.663 44.6252C573.785 42.7261 570.905 40.8264 568.018 38.9376C539.435 20.2403 509.998 2.5889 471.139 -3.61845C426.274 -10.7734 381.408 -18.2829 336.526 -25.7953L336.523 -25.7957C260.07 -38.5922 183.57 -51.3967 106.946 -62.47C98.8097 -63.6478 90.74 -64.4156 82.7287 -64.8212C83.0224 -64.3692 83.317 -63.9177 83.6121 -63.4666C91.2725 -63.0514 98.9854 -62.3022 106.758 -61.177C183.371 -50.1051 259.843 -37.3054 336.284 -24.511L336.301 -24.5081C381.182 -16.9961 426.052 -9.48587 470.933 -2.32829C509.5 3.83248 538.74 21.347 567.302 40.0309C570.178 41.912 573.047 43.8053 575.918 45.7001L575.948 45.7195C601.565 62.6237 627.355 79.6423 659.498 89.2136C703.399 102.301 751.378 96.8557 800.443 83.6581Z" fill="black"/>
<path d="M770.218 102.341C771.266 101.742 772.312 101.139 773.356 100.533C737.844 106.185 703.128 106.676 670.081 98.1083C636.948 89.5094 608.406 74.2772 579.729 58.9728L579.727 58.9718C577.886 57.9892 576.044 57.0062 574.201 56.0247C543.662 39.7663 512.64 23.9121 475.56 16.5073C443.588 10.1143 411.615 3.653 379.635 -2.80973L379.626 -2.81165C296.187 -19.6734 212.701 -36.5447 129.062 -52.2387C115.535 -54.7768 102.004 -56.0069 88.4747 -56.172C88.7735 -55.7318 89.073 -55.2922 89.3732 -54.853C102.527 -54.6454 115.678 -53.4206 128.821 -50.9546C212.451 -35.2623 295.925 -18.3935 379.361 -1.53223L379.372 -1.52984L379.434 -1.5174C411.394 4.94125 443.348 11.3988 475.304 17.7886C512.176 25.1517 543.046 40.9191 573.586 57.1779C575.439 58.1641 577.29 59.1522 579.141 60.1403C607.793 75.4318 636.463 90.7333 669.753 99.3729C701.97 107.726 735.735 107.518 770.218 102.341Z" fill="black"/>
<path d="M749.338 113.64C750.272 113.163 751.205 112.682 752.136 112.198C728.213 113.452 704.61 112.11 681.507 107.073C647.024 99.5605 615.512 86.0559 583.824 72.4755L581.682 71.5575C549.288 57.6782 516.639 43.8616 480.475 36.5178C410.742 22.3632 341.56 5.01004 272.406 -12.3361L272.396 -12.3388C232.434 -22.3628 192.481 -32.3843 152.437 -41.7848C133.686 -46.1922 114.436 -47.6775 94.8633 -46.9786C95.1661 -46.5527 95.4696 -46.1274 95.7736 -45.7026C114.946 -46.3241 133.788 -44.8261 152.137 -40.513C192.142 -31.1218 232.079 -21.1042 272.037 -11.0814L272.04 -11.0806C341.218 6.27138 410.458 23.6389 480.215 37.7982C516.229 45.1115 548.76 58.8739 581.167 72.7583L583.352 73.6949C615.009 87.262 646.621 100.81 681.229 108.35C703.535 113.212 726.294 114.649 749.338 113.64Z" fill="black"/>
<path d="M734.834 120.775C735.698 120.367 736.56 119.957 737.421 119.544C725.892 119.251 714.389 118.374 702.918 116.811C666.035 111.782 630.605 99.7315 595.084 87.1774C592.723 86.3432 590.363 85.5069 588.001 84.6702C554.842 72.9213 521.516 61.1137 486.856 54.6064C432.303 44.3692 378.998 27.9332 325.69 11.341L321.837 10.1417C269.825 -6.05091 217.78 -22.2537 164.604 -32.8182C144.905 -36.7305 124.3 -37.3999 103.117 -35.6988C103.427 -35.2861 103.739 -34.874 104.05 -34.4623C124.836 -36.0717 145.038 -35.372 164.35 -31.5368C217.457 -20.9857 269.444 -4.801 321.477 11.3981L325.301 12.5884C378.6 29.1777 431.975 45.6371 486.615 55.8904C521.171 62.3782 554.406 74.1534 587.586 85.9093C589.94 86.7434 592.294 87.5773 594.648 88.4092C630.161 100.96 665.709 113.056 702.741 118.106C713.414 119.56 724.114 120.422 734.834 120.775Z" fill="black"/>
<path d="M721.941 126.651C722.774 126.285 723.606 125.918 724.436 125.548C721.406 125.305 718.376 125.026 715.347 124.709C678.277 120.82 641.029 111.731 603.82 101.847C596.965 100.025 590.11 98.1771 583.258 96.3295L583.191 96.3113L583.186 96.3103C552.889 88.1404 522.646 79.9851 492.621 74.2481C440.423 64.2715 389.692 47.0733 339.018 29.3833C335.438 28.1333 331.857 26.8809 328.277 25.6284C281.199 9.15993 234.083 -7.32161 185.864 -18.3786C162.256 -23.8012 138.948 -23.251 115.896 -19.41C116.214 -19.0207 116.533 -18.6319 116.852 -18.2436C139.54 -21.9529 162.423 -22.4223 185.571 -17.1053C233.715 -6.06548 280.763 10.3921 327.855 26.8651L327.914 26.8855C331.471 28.1299 335.029 29.3744 338.587 30.6167C389.256 48.305 440.071 65.5344 492.375 75.5314C522.347 81.2581 552.531 89.3972 582.825 97.566L582.829 97.567L582.874 97.5791C589.739 99.4302 596.609 101.283 603.485 103.109C640.699 112.995 678.032 122.108 715.21 126.009C717.454 126.243 719.698 126.457 721.941 126.651Z" fill="black"/>
<path d="M708.061 132.504C708.921 132.156 709.78 131.806 710.638 131.454C659.43 126.313 606.285 115.588 554.659 105.169C535.573 101.318 516.693 97.5077 498.196 94.0374C450.372 85.0628 403.846 66.5996 357.275 48.1184L354.792 47.1331C353.504 46.6223 352.217 46.1115 350.929 45.6011C302.261 26.3091 253.48 7.46914 203.175 -0.00140758C180.215 -3.41127 156.267 -3.41983 131.706 -0.968333C132.068 -0.565944 132.43 -0.164086 132.793 0.237134C156.926 -2.11006 180.439 -2.057 202.983 1.29098C253.116 8.73601 301.762 27.5171 350.447 46.8156C352.576 47.6595 354.705 48.5044 356.835 49.3494C403.372 67.8174 450.004 86.323 497.955 95.3214C516.41 98.784 535.261 102.588 554.33 106.436L554.337 106.438C605.158 116.694 657.526 127.263 708.061 132.504Z" fill="black"/>
<path d="M688.548 139.937C689.531 139.586 690.512 139.231 691.492 138.874C628.637 133.645 563.228 124.521 503.101 114.009C455.398 105.683 409.135 87.5624 362.829 69.4248L359.063 67.95C311.522 49.3369 263.896 30.9867 214.701 23.59C194.837 20.604 174.166 20.0264 152.946 21.2951C153.364 21.7076 153.782 22.1195 154.201 22.5305C174.927 21.3573 195.108 21.966 214.507 24.8821C263.533 32.2533 311.026 50.5459 358.586 69.1664L362.403 70.6615L362.405 70.6624C408.672 88.7845 455.042 106.947 502.876 115.296C562.126 125.654 626.514 134.668 688.548 139.937Z" fill="black"/>
<path d="M661.03 148.911C662.348 148.522 663.663 148.128 664.976 147.729C612.468 146.116 559.89 142.108 507.149 134.239C459.081 127.06 412.261 110.661 365.397 94.246L365.394 94.2451L363.043 93.4216C315.415 76.7418 267.721 60.2055 218.718 53.5682C207.886 52.1043 196.848 51.255 185.641 50.945C186.185 51.3982 186.731 51.8503 187.278 52.3013C197.866 52.6459 208.298 53.4783 218.543 54.8629C267.392 61.4795 314.964 77.968 362.611 94.6545L365.014 95.4962C411.841 111.898 458.763 128.333 506.955 135.531C558.448 143.214 609.779 147.219 661.03 148.911Z" fill="black"/>
<path d="M586.359 165C588.511 164.702 590.659 164.39 592.803 164.065C564.573 162.482 536.423 160.174 508.383 156.941C459.563 151.312 411.319 137.49 362.998 123.645L362.544 123.515C360.533 122.939 358.522 122.363 356.51 121.787C320.011 111.342 283.452 101.094 246.597 94.5916C247.63 95.2235 248.667 95.8518 249.705 96.4767C285.346 102.984 320.744 112.911 356.15 123.043C358.325 123.665 360.499 124.288 362.674 124.911C410.965 138.748 459.304 152.597 508.233 158.239C534.191 161.231 560.24 163.433 586.359 165Z" fill="black"/>
</svg>
