<svg width="285" height="280" viewBox="0 0 285 280" fill="none" xmlns="http://www.w3.org/2000/svg">
<path d="M119.164 4.06738C116.344 3.59673 113.526 3.11782 110.708 2.63895C108.314 2.23204 105.92 1.82516 103.525 1.4234C102.511 1.25332 101.497 1.08417 100.483 0.916318C97.4766 0.547246 94.4506 0.241348 91.4064 0C95.4216 0.61897 99.4297 1.27645 103.437 1.94859C105.829 2.34993 108.221 2.75652 110.614 3.16325L110.616 3.16346C115.972 4.07382 121.332 4.98491 126.71 5.83942C124.212 5.20392 121.696 4.61294 119.164 4.06738Z" fill="black"/>
<path d="M165.783 20.0384C165.276 19.7947 164.767 19.553 164.258 19.3133C161.306 18.9522 158.352 18.6106 155.394 18.2916C140.061 16.6352 125.182 13.4615 110.313 10.2899L110.309 10.2891C107.903 9.776 105.498 9.26293 103.091 8.75636C85.811 5.11976 68.4542 1.81941 50.3634 1.25426C49.0994 1.21443 47.8362 1.18312 46.5737 1.15984C45.4121 1.31322 44.2535 1.47603 43.0979 1.64821C45.5115 1.66539 47.9276 1.71035 50.3466 1.78657C68.3864 2.35012 85.7033 5.64142 102.98 9.27745C105.386 9.7837 107.791 10.2967 110.197 10.8099C125.064 13.9812 139.974 17.1615 155.336 18.8211C158.823 19.1971 162.305 19.6045 165.783 20.0384Z" fill="black"/>
<path d="M188.206 32.5525C187.86 32.3307 187.513 32.1099 187.166 31.8901C176.999 30.6568 166.882 29.3768 156.849 28.0596C140.734 25.945 125.292 21.7471 109.865 17.5533L109.865 17.5531C107.362 16.8726 104.859 16.1922 102.354 15.5209C84.4168 10.714 66.3633 6.37222 47.2075 5.79934C37.3778 5.50552 27.6712 6.01208 18.0334 6.96146C17.0468 7.23452 16.0631 7.51456 15.0824 7.80153C25.6908 6.65762 36.3678 6.00814 47.1915 6.33167C66.2802 6.90255 84.2818 11.2293 102.215 16.0352C104.717 16.7057 107.218 17.3855 109.72 18.0658C125.145 22.2593 140.626 26.468 156.78 28.5876C167.177 29.9528 177.665 31.2778 188.206 32.5525Z" fill="black"/>
<path d="M202.852 42.8429C202.598 42.6483 202.344 42.4543 202.09 42.2608C187.412 41.3159 172.839 40.0223 158.526 38.0825C140.874 35.689 124.267 29.9793 107.652 24.267L107.649 24.2661C105.543 23.542 103.437 22.8179 101.329 22.1006C82.5962 15.7268 63.693 9.88619 43.175 9.36586C25.7455 8.92823 9.0524 11.9899 -7.47615 15.8289C-8.41352 16.2242 -9.34743 16.6261 -10.2778 17.0345C7.19826 12.8841 24.7741 9.43658 43.1615 9.89827C63.5905 10.4163 82.4259 16.2315 101.156 22.6046C103.264 23.3217 105.37 24.046 107.478 24.7705C124.087 30.4811 140.747 36.2091 158.454 38.6102C173.037 40.5865 187.892 41.8929 202.852 42.8429Z" fill="black"/>
<path d="M214.114 52.1266C213.916 51.952 213.718 51.7777 213.52 51.6038C195.511 51.8948 177.661 51.2961 160.423 48.3327C142.154 45.1979 125.072 38.1421 107.986 31.0849L107.983 31.0838C105.377 30.0073 102.771 28.9308 100.16 27.8682C80.4472 19.8442 60.4995 12.6175 38.5676 12.2554C18.4887 11.9235 -0.0266652 17.5327 -18.3513 23.8694C-20.9222 24.7585 -23.4891 25.6617 -26.056 26.5649C-28.7562 27.5151 -31.4563 28.4652 -34.1611 29.3988C-34.8682 29.8242 -35.5725 30.2537 -36.2741 30.6872C-32.7974 29.5022 -29.3327 28.283 -25.8709 27.0648L-25.8695 27.0643C-23.3047 26.1617 -20.7415 25.2597 -18.1761 24.3726C0.143285 18.0377 18.5814 12.4577 38.5588 12.7879C60.3823 13.1482 80.2492 20.3389 99.9583 28.3613C102.565 29.4223 105.169 30.498 107.775 31.5743L107.776 31.5748C124.857 38.6306 142 45.7118 160.332 48.8575C177.802 51.8608 195.889 52.4403 214.114 52.1266Z" fill="black"/>
<path d="M222.642 60.0956C222.479 59.935 222.316 59.7745 222.153 59.6144C201.936 61.8689 181.832 62.7575 162.425 58.7035C143.614 54.7814 125.967 46.3031 108.299 37.8149C105.158 36.3059 102.016 34.7965 98.8675 33.3125C78.0217 23.4879 56.8672 14.7764 33.5515 14.6934C13.1277 14.6179 -5.01425 21.9139 -22.8639 30.1474C-25.4861 31.357 -28.1017 32.5866 -30.7173 33.8162C-39.4311 37.9125 -48.1447 42.0088 -57.0996 45.3625C-57.5346 45.7101 -57.9682 46.0594 -58.4004 46.4104C-48.8884 42.9483 -39.6711 38.6149 -30.4792 34.2934C-27.866 33.0648 -25.2548 31.8371 -22.6395 30.6308C-4.79632 22.4002 13.2527 15.151 33.5495 15.226C56.7371 15.3085 77.7979 23.9715 98.6391 33.794C101.78 35.2742 104.916 36.781 108.053 38.2884L108.055 38.2892C125.721 46.7769 143.436 55.2882 162.316 59.2248C181.943 63.3247 202.262 62.3875 222.642 60.0956Z" fill="black"/>
<path d="M229.474 67.1636C229.335 67.0121 229.195 66.8608 229.054 66.7096C207.453 71.3795 185.874 74.3689 164.472 69.1498C144.976 64.3954 126.603 54.5126 108.181 44.6029C104.629 42.6924 101.075 40.7808 97.5115 38.9049C75.4809 27.3083 53.0692 17.079 28.3727 16.9809C7.65423 16.8978 -10.1831 25.9442 -27.5966 36.2022C-30.3389 37.8176 -33.0703 39.4628 -35.8008 41.1075C-48.3668 48.6762 -60.9132 56.2331 -74.4072 60.8234C-74.6879 61.1032 -74.9677 61.3839 -75.2468 61.6653C-61.2996 57.0902 -48.3832 49.3096 -35.5083 41.554L-35.5072 41.5533C-32.781 39.9111 -30.0566 38.27 -27.3247 36.6607C-9.9174 26.4063 7.80975 17.431 28.3705 17.5135C52.9252 17.611 75.2352 27.7813 97.262 39.3758C100.816 41.2463 104.362 43.1542 107.909 45.0625L107.911 45.0633C126.332 54.9732 144.776 64.8949 164.345 69.6671C185.945 74.9345 207.7 71.8826 229.391 67.1818C229.419 67.1757 229.447 67.1697 229.474 67.1636Z" fill="black"/>
<path d="M235.172 73.5964C235.048 73.4502 234.923 73.304 234.798 73.1581C233.463 73.5953 232.127 74.0261 230.792 74.4482C209.733 81.1042 188.605 85.6319 166.518 79.5509C146.474 74.0291 127.382 62.7657 108.19 51.4438C104.199 49.0892 100.203 46.732 96.1936 44.4235C72.9278 31.027 49.2097 19.2758 23.2831 19.3135C2.23365 19.3438 -15.3118 30.1305 -32.2882 42.3633C-35.0776 44.3733 -37.8514 46.422 -40.6229 48.469L-40.6244 48.4702C-54.7426 58.8978 -68.801 69.2813 -84.5704 74.2866C-85.5476 74.5966 -86.5278 74.884 -87.5111 75.1495C-87.7069 75.3844 -87.9022 75.6197 -88.097 75.8554C-86.8628 75.5359 -85.6331 75.1826 -84.4083 74.794C-68.5462 69.7594 -54.4026 59.3116 -40.2857 48.8835C-37.5188 46.8396 -34.7528 44.7964 -31.9752 42.7949C-15.0027 30.5649 2.41997 19.8761 23.2839 19.8461C49.0545 19.8086 72.6625 31.4893 95.9264 44.8846C99.9235 47.1861 103.911 49.5385 107.897 51.8903C127.089 63.2134 146.256 74.5217 166.376 80.0642C188.619 86.1883 209.872 81.6187 230.953 74.9559C232.36 74.5112 233.766 74.0572 235.172 73.5964Z" fill="black"/>
<path d="M240.083 79.5929C239.969 79.4488 239.855 79.3047 239.741 79.1608C237.274 80.251 234.809 81.3215 232.341 82.3538C211.975 90.8732 191.413 96.8091 168.457 89.8617C147.945 83.6534 128.154 71.1003 108.203 58.4455L108.202 58.4448C103.797 55.6506 99.3836 52.8514 94.9532 50.1146C70.4826 34.9976 45.4926 21.7886 18.4802 21.9924C-2.90673 22.1512 -20.1849 34.615 -36.7461 48.7238C-39.5412 51.1051 -42.3149 53.5323 -45.0848 55.9563C-50.5321 60.7232 -55.965 65.4775 -61.5186 69.8447C-69.8914 76.4289 -78.5131 82.1118 -87.8144 85.5932C-91.0576 86.8075 -94.3439 87.7172 -97.6667 88.3602C-97.814 88.5684 -97.9609 88.7769 -98.1075 88.9856C-94.5722 88.3328 -91.0759 87.3832 -87.6265 86.0917C-78.251 82.5826 -69.5793 76.8619 -61.1876 70.2628C-55.6235 65.8872 -50.1712 61.1161 -44.7168 56.3431L-44.7136 56.3402C-41.9475 53.9197 -39.1809 51.4987 -36.3989 49.1287C-19.8378 35.0199 -2.69152 22.6822 18.4842 22.525C45.328 22.3224 70.2007 35.45 94.6718 50.5672C99.0878 53.2953 103.491 56.0884 107.89 58.8789L107.891 58.8798C127.844 71.5367 147.712 84.1397 168.302 90.3713C191.443 97.3747 212.152 91.3764 232.548 82.8448C235.063 81.7926 237.573 80.7022 240.083 79.5929Z" fill="black"/>
<path d="M244.375 85.2283C244.269 85.084 244.163 84.9398 244.056 84.7957C240.642 86.6871 237.236 88.5514 233.818 90.3261C214.159 100.533 194.161 107.746 170.214 99.9915C149.263 93.2055 128.816 79.4866 108.148 65.6193L108.146 65.6177C103.397 62.4312 98.636 59.2369 93.8547 56.1171C68.2927 39.4378 42.1521 24.8957 14.1906 25.2732C-7.56233 25.5682 -24.5828 39.5617 -40.7475 55.3616C-43.5145 58.0662 -46.2555 60.8228 -48.9914 63.5743L-48.9929 63.5759C-54.2604 68.8734 -59.509 74.1518 -64.8882 79.0035C-73.0575 86.3715 -81.501 92.7289 -90.7088 96.6286C-95.6042 98.7 -100.605 99.9633 -105.687 100.574C-105.804 100.766 -105.92 100.958 -106.036 101.151C-100.767 100.555 -95.5787 99.2678 -90.4999 97.1188C-81.2121 93.1852 -72.7168 86.7825 -64.5297 79.3984C-59.1401 74.5374 -53.8723 69.2396 -48.5975 63.9349C-45.864 61.1858 -43.1285 58.4349 -40.3733 55.7418C-24.2047 39.938 -7.32148 26.0976 14.1978 25.8057C41.9798 25.4307 67.9969 39.8813 93.5621 56.5627C98.3283 59.6727 103.079 62.8605 107.822 66.0432C128.493 79.9135 149.019 93.6866 170.049 100.498C194.206 108.32 214.369 101.025 234.065 90.7985C237.508 89.0105 240.939 87.1319 244.375 85.2283Z" fill="black"/>
<path d="M248.205 90.6102C248.104 90.4638 248.003 90.3175 247.902 90.1713C247.768 90.2592 247.634 90.347 247.5 90.4348L247.499 90.4354C243.377 93.1333 239.284 95.8127 235.166 98.3379C216.172 109.983 196.698 118.306 171.772 109.865C151.58 103.033 131.935 90.7242 113.309 79.0542C108.5 76.0416 103.76 73.0715 99.0957 70.2493C94.563 67.5042 89.6792 64.3281 84.5385 60.985C75.9889 55.4249 66.7284 49.4026 57.1901 44.1314C41.9067 35.6854 25.828 29.1169 10.641 29.3967C-11.5514 29.8053 -28.3053 45.1049 -44.0795 62.3344C-46.7781 65.2819 -49.4472 68.2851 -52.1106 71.2819L-52.1115 71.283C-57.245 77.059 -62.3577 82.8116 -67.6188 88.0953C-75.6058 96.1168 -83.9081 103.029 -93.0869 107.257C-99.2714 110.105 -105.616 111.518 -112.073 111.85C-112.169 112.032 -112.265 112.215 -112.36 112.397C-105.735 112.093 -99.2176 110.667 -92.8628 107.74C-83.5989 103.473 -75.2437 96.5091 -67.2395 88.4705C-61.9684 83.1767 -56.8375 77.4037 -51.6971 71.62C-49.0358 68.6257 -46.372 65.6284 -43.6848 62.6934C-27.9032 45.4559 -11.2894 30.3331 10.6509 29.9291C25.6911 29.6521 41.6664 36.1615 56.931 44.5972C66.4597 49.863 75.6796 55.8596 84.213 61.4096C89.3586 64.7563 94.2546 67.9406 98.8182 70.7045C103.466 73.5165 108.194 76.4794 112.995 79.4874C131.626 91.1612 151.343 103.515 171.6 110.369C196.756 118.889 216.41 110.462 235.446 98.7916C239.572 96.2618 243.672 93.5777 247.793 90.8801C247.93 90.7902 248.068 90.7001 248.205 90.6102Z" fill="black"/>
<path d="M251.674 95.8149C251.578 95.6653 251.481 95.5158 251.384 95.3665C250.928 95.7005 250.473 96.0348 250.018 96.3691C249.187 96.98 248.358 97.5912 247.531 98.2013C243.756 100.985 240.009 103.747 236.234 106.364C217.833 119.119 198.836 128.356 173.012 119.437C152.353 112.299 132.18 99.2875 113.152 87.0146L113.151 87.0135C108.141 83.7826 103.212 80.6029 98.3737 77.5952C93.7453 74.7154 88.7428 71.3635 83.4592 67.8233L83.4584 67.8228C81.7758 66.6954 80.0646 65.5489 78.328 64.3924C71.1409 59.6064 63.5222 54.6537 55.7003 50.1962C40.0646 41.2857 23.5803 34.3313 8.07353 34.664C-14.647 35.1485 -31.1106 51.447 -46.497 69.7605C-49.0825 72.8378 -51.637 75.9713 -54.1862 79.0985L-54.1869 79.0993C-59.2358 85.2929 -64.2643 91.4614 -69.4729 97.1183C-77.3078 105.627 -85.5226 112.947 -94.7671 117.402C-102.072 120.921 -109.559 122.317 -117.164 122.211C-117.245 122.387 -117.325 122.564 -117.405 122.74C-109.65 122.879 -102.001 121.479 -94.5344 117.882C-85.2002 113.383 -76.9312 106.006 -69.0793 97.4784C-63.8603 91.8103 -58.8135 85.6194 -53.758 79.4179C-51.2111 76.2938 -48.6617 73.1665 -46.0874 70.1024C-30.6918 51.7781 -14.3691 35.6752 8.08501 35.1965C23.4395 34.867 39.817 41.7581 55.4351 50.6586C63.2402 55.1065 70.8464 60.0507 78.0312 64.8352C79.7643 65.9894 81.4733 67.1345 83.1547 68.2611L83.1557 68.2617C88.4411 71.8031 93.4541 75.162 98.0908 78.047C102.911 81.0435 107.828 84.2154 112.829 87.4412L112.831 87.4423C131.864 99.7194 152.11 112.779 172.837 119.94C198.907 128.945 218.093 119.588 236.54 106.801C240.321 104.18 244.075 101.412 247.85 98.6281L247.861 98.6199C248.685 98.0128 249.509 97.405 250.335 96.7977C250.781 96.4699 251.227 96.1422 251.674 95.8149Z" fill="black"/>
<path d="M254.891 100.962C254.798 100.809 254.706 100.657 254.613 100.504C252.103 102.445 249.623 104.417 247.158 106.377C243.746 109.091 240.361 111.784 236.957 114.344C228 121.079 218.881 126.921 208.679 129.94C198.485 132.957 187.194 133.159 173.887 128.587C152.986 121.402 132.453 107.877 113.225 95.2121L113.223 95.2112C108.042 91.7986 102.956 88.4484 97.983 85.3015C93.29 82.3335 88.2256 78.8811 82.8801 75.237L82.8734 75.2324C81.1926 74.0866 79.484 72.9218 77.7505 71.7472C70.504 66.8373 62.8257 61.759 54.9358 57.1894C39.1639 48.0548 22.5093 40.9303 6.72984 41.2706C-16.6598 41.7853 -32.8025 58.6994 -47.7985 77.6674C-50.2206 80.731 -52.6122 83.8476 -55.0001 86.9594L-55.0014 86.961C-60.018 93.4983 -65.0182 100.014 -70.2497 105.973C-77.9681 114.764 -86.1631 122.308 -95.5977 126.868C-103.981 130.921 -112.518 132.152 -121.145 131.505C-121.214 131.678 -121.283 131.851 -121.352 132.024C-112.591 132.705 -103.902 131.475 -95.3645 127.347C-85.8354 122.742 -77.5843 115.136 -69.8476 106.324C-64.6049 100.352 -59.586 93.8122 -54.5634 87.2672C-52.1777 84.1582 -49.7908 81.0479 -47.3788 77.9971C-32.3742 59.0181 -16.3722 42.3117 6.74141 41.8031C22.3668 41.4661 38.9137 48.5258 54.6674 57.6499C62.5403 62.2096 70.2058 67.2793 77.4501 72.1877C79.1781 73.3585 80.8825 74.5204 82.5601 75.6641L82.572 75.6722L82.5726 75.6726C87.9201 79.3181 92.9951 82.7778 97.6967 85.7511C102.65 88.8857 107.723 92.2273 112.896 95.6344L112.896 95.6349C132.131 108.305 152.741 121.881 173.713 129.09C187.123 133.698 198.527 133.5 208.831 130.451C219.126 127.404 228.307 121.515 237.278 114.769C240.708 112.19 244.103 109.49 247.518 106.773C249.958 104.832 252.41 102.882 254.891 100.962Z" fill="black"/>
<path d="M258.205 106.64C258.118 106.484 258.029 106.328 257.941 106.172C254.384 108.839 250.901 111.6 247.445 114.339C244.003 117.068 240.587 119.775 237.153 122.346C228.189 129.058 219.066 134.873 208.881 137.863C198.704 140.849 187.452 141.019 174.22 136.413C153.29 129.128 132.726 115.815 113.378 103.29C108.099 99.8726 102.911 96.5137 97.8303 93.352C93.0073 90.3493 87.7881 86.8349 82.2736 83.1218L82.2721 83.1208L82.2628 83.1145C80.7042 82.0651 79.1222 80.9998 77.5188 79.9257C70.2411 75.0505 62.5295 69.9972 54.6125 65.4381C38.7864 56.3246 22.1025 49.1632 6.38481 49.3673C-17.0832 49.6777 -33.1286 66.6889 -48.0055 85.792C-50.4063 88.8749 -52.7762 92.0117 -55.1424 95.1437L-55.1442 95.1459C-60.1215 101.734 -65.0828 108.301 -70.2817 114.299C-77.9494 123.147 -86.1071 130.725 -95.5369 135.266C-104.981 139.816 -114.554 140.825 -124.194 139.615C-124.255 139.786 -124.315 139.957 -124.375 140.129C-114.614 141.371 -104.898 140.367 -95.3045 135.745C-85.7781 131.158 -77.5635 123.516 -69.8774 114.648C-64.667 108.636 -59.6872 102.044 -54.704 95.4488L-54.6992 95.4425C-52.3364 92.3151 -49.9728 89.1867 -47.5834 86.1186C-32.6975 67.0038 -16.7945 50.2065 6.39177 49.8998C21.9581 49.6976 38.5361 56.7955 54.3452 65.8993C62.2457 70.4489 69.9449 75.4938 77.2207 80.3677C78.8244 81.442 80.4077 82.5081 81.9681 83.5588L81.9691 83.5595C87.4851 87.2737 92.7153 90.7954 97.5472 93.8037C102.608 96.9534 107.783 100.304 113.053 103.716L113.054 103.716C132.408 116.246 153.046 129.607 174.044 136.916C187.379 141.558 198.746 141.392 209.032 138.373C219.311 135.357 228.495 129.495 237.474 122.772C240.934 120.181 244.359 117.467 247.804 114.736C251.233 112.018 254.681 109.284 258.205 106.64Z" fill="black"/>
<path d="M261.607 112.933C261.525 112.774 261.442 112.615 261.359 112.456C257.936 114.788 254.578 117.211 251.251 119.638C250.448 120.224 249.646 120.81 248.846 121.396C245.043 124.178 241.27 126.938 237.47 129.549C219.076 142.186 200.113 151.284 174.402 142.282C153.432 134.942 132.929 122.523 113.349 110.664L113.348 110.663C107.949 107.393 102.62 104.165 97.3709 101.098C92.206 98.0805 86.5594 94.4743 80.5735 90.6512C79.3349 89.8601 78.0817 89.0598 76.8153 88.2534C69.4313 83.552 61.6003 78.6497 53.5857 74.2096C37.5651 65.3342 20.773 58.2834 5.31439 58.3968C-17.6267 58.5709 -33.5445 75.4109 -48.2886 94.3589C-50.7486 97.5203 -53.1755 100.74 -55.5974 103.953C-60.4467 110.386 -65.2765 116.794 -70.314 122.657C-77.8639 131.444 -85.8522 138.974 -95.0105 143.484C-105.456 148.629 -116.089 149.381 -126.813 147.554C-126.866 147.725 -126.918 147.896 -126.97 148.068C-116.138 149.924 -105.366 149.178 -94.7739 143.961C-85.5196 139.404 -77.4752 131.811 -69.9082 123.003C-64.86 117.128 -60.0118 110.696 -55.1559 104.254C-52.7366 101.045 -50.3152 97.8323 -47.8664 94.6853C-33.1118 75.7238 -17.338 59.1013 5.3183 58.9294C20.6304 58.817 37.3192 65.8073 53.3261 74.6751C61.3254 79.1067 69.1449 84.0016 76.5277 88.7023C77.7913 89.5068 79.0423 90.3058 80.2792 91.0958L80.2815 91.0973C86.2678 94.9206 91.9256 98.534 97.1007 101.558C102.333 104.615 107.65 107.836 113.042 111.101L113.042 111.102C132.629 122.966 153.197 135.424 174.225 142.785C200.181 151.872 219.334 142.656 237.773 129.987C241.581 127.371 245.361 124.605 249.165 121.823C249.964 121.238 250.765 120.653 251.567 120.068C254.875 117.654 258.21 115.248 261.607 112.933Z" fill="black"/>
<path d="M264.887 119.538C264.81 119.377 264.733 119.216 264.656 119.055C260.482 121.533 256.395 124.142 252.345 126.75C251.725 127.15 251.105 127.55 250.485 127.95C246.355 130.614 242.257 133.258 238.134 135.746C219.176 147.187 199.757 155.298 174.64 146.841C153.473 139.706 132.774 128.283 112.78 117.249C107.33 114.242 101.933 111.263 96.5919 108.408C91.0735 105.458 84.9958 101.87 78.5442 98.0609C77.5807 97.4921 76.6088 96.9183 75.6292 96.341C68.0931 91.8999 60.1038 87.2519 51.9557 83.04C35.6681 74.6207 18.7075 67.9222 3.42543 68.1188C-18.9946 68.399 -34.5004 84.9458 -48.8312 103.561C-51.2552 106.709 -53.645 109.917 -56.0296 113.117L-56.0301 113.117C-60.7077 119.395 -65.3653 125.645 -70.2217 131.375C-77.5502 140.021 -85.303 147.444 -94.1976 151.927C-105.572 157.659 -117.262 158.059 -129.095 155.533C-129.14 155.705 -129.185 155.877 -129.23 156.049C-117.302 158.599 -105.476 158.207 -93.9565 152.403C-84.9669 147.872 -77.1587 140.384 -69.8135 131.719C-64.9468 125.977 -60.2708 119.702 -55.5865 113.416C-53.2044 110.219 -50.82 107.019 -48.4073 103.885C-34.0662 85.2566 -18.7032 68.9279 3.43235 68.6513C18.5737 68.4566 35.4337 75.0994 51.7097 83.5128C59.8435 87.7173 67.8217 92.3586 75.3572 96.7995C76.3306 97.3731 77.2967 97.9434 78.2548 98.509L78.2705 98.5184C84.721 102.327 90.81 105.921 96.3394 108.877C101.665 111.724 107.053 114.698 112.497 117.702C132.496 128.739 153.251 140.193 174.469 147.346C199.812 155.879 219.408 147.67 238.411 136.202C242.541 133.709 246.646 131.061 250.776 128.397C251.395 127.997 252.015 127.597 252.635 127.198C256.671 124.598 260.737 122.003 264.887 119.538Z" fill="black"/>
<path d="M268.045 126.521C267.974 126.357 267.904 126.194 267.833 126.03C262.597 128.625 257.475 131.399 252.395 134.15C247.945 136.559 243.528 138.951 239.095 141.19C219.464 151.104 199.492 158.042 174.906 150.406C153.502 143.756 132.511 133.484 112.05 123.471C106.512 120.761 101.012 118.07 95.5541 115.475C89.6087 112.651 83.0313 109.155 76.0542 105.447L76.0532 105.446L75.9824 105.409C75.3412 105.068 74.6966 104.725 74.0489 104.381C66.3285 100.281 58.1587 95.981 49.8572 92.0914C33.2627 84.3159 16.1037 78.1626 0.915856 78.548C-20.9896 79.116 -35.8597 95.2478 -49.5629 113.365C-51.8715 116.418 -54.1463 119.525 -56.4167 122.627C-60.8973 128.749 -65.3605 134.846 -70.0307 140.445C-77.0635 148.876 -84.5383 156.14 -93.188 160.597C-105.388 166.882 -118.111 166.849 -131.052 163.579C-131.09 163.752 -131.129 163.926 -131.167 164.099C-118.144 167.387 -105.287 167.43 -92.9427 161.07C-84.199 156.565 -76.6696 149.237 -69.6198 140.785C-64.9396 135.175 -60.4585 129.053 -55.9715 122.923L-55.9708 122.922C-53.703 119.824 -51.4336 116.723 -49.1363 113.686C-35.4244 95.557 -20.6939 79.6411 0.929466 79.0804C15.9839 78.6983 33.0456 84.8027 49.6299 92.5733C57.9179 96.4567 66.0771 100.751 73.7977 104.851C74.4701 105.209 75.1391 105.564 75.8047 105.918C82.7789 109.625 89.3671 113.126 95.3242 115.956C100.769 118.545 106.259 121.231 111.791 123.938L111.793 123.939C132.259 133.955 153.299 144.251 174.747 150.914C199.534 158.613 219.664 151.6 239.337 141.665C243.799 139.411 248.235 137.009 252.697 134.594C257.756 131.854 262.848 129.098 268.045 126.521Z" fill="black"/>
<path d="M271.019 133.81C270.955 133.644 270.891 133.478 270.827 133.313C265.36 135.462 259.986 137.769 254.649 140.06L254.648 140.061C249.862 142.115 245.107 144.157 240.342 146.06C219.942 154.206 199.325 159.831 175.245 153.203C153.541 147.237 132.178 138.241 111.185 129.402L111.182 129.401C105.559 127.033 99.9627 124.676 94.3933 122.392C87.9891 119.766 80.8907 116.457 73.3771 112.954L72.2655 112.436C64.3428 108.744 55.9811 104.866 47.5149 101.376C30.5904 94.3983 13.2107 88.9521 -1.9581 89.6397C-23.4158 90.6092 -37.4606 106.25 -50.3556 123.747C-52.4593 126.601 -54.5318 129.504 -56.6013 132.403L-56.6023 132.404C-60.8869 138.406 -65.1585 144.389 -69.6671 149.885C-76.3498 158.032 -83.5274 165.073 -91.9808 169.462C-104.949 176.196 -118.669 175.658 -132.676 171.633C-132.708 171.809 -132.739 171.985 -132.771 172.161C-118.697 176.195 -104.846 176.744 -91.734 169.934C-83.1866 165.496 -75.9545 158.391 -69.2534 150.222C-64.7334 144.712 -60.4432 138.703 -56.1521 132.693L-56.1503 132.69C-54.084 129.796 -52.0175 126.901 -49.925 124.062C-37.0242 106.557 -23.1142 91.1287 -1.93384 90.1718C13.1094 89.4899 30.3958 94.8944 47.3107 101.868C55.7643 105.353 64.1157 109.226 72.0392 112.919L73.1556 113.439L73.1565 113.439C80.6653 116.94 87.7739 120.254 94.1901 122.885C99.7497 125.165 105.34 127.519 110.96 129.885C131.956 138.726 153.362 147.74 175.103 153.716C199.353 160.391 220.106 154.714 240.54 146.554C245.333 144.64 250.107 142.591 254.903 140.532C260.227 138.246 265.58 135.948 271.019 133.81Z" fill="black"/>
<path d="M273.745 141.29C273.687 141.122 273.629 140.954 273.571 140.786C268.05 142.391 262.59 144.116 257.157 145.834C252.032 147.454 246.93 149.067 241.824 150.563C220.589 156.786 199.241 161.01 175.627 155.503C153.587 150.367 131.803 142.751 110.28 135.227C104.573 133.232 98.8851 131.243 93.2154 129.309C86.2639 126.939 78.5604 123.88 70.4349 120.654L70.4168 120.646C62.2871 117.418 53.7374 114.024 45.1103 110.991C27.8631 104.928 10.2706 100.299 -4.93903 101.349C-26.5022 102.833 -39.2758 118.211 -50.97 135.117C-52.5311 137.374 -54.0728 139.658 -55.6136 141.94C-59.8532 148.221 -64.0866 154.492 -68.7037 160.17C-74.9952 167.907 -81.9779 174.514 -90.611 178.501C-104.806 185.059 -119.314 183.973 -133.932 179.399C-133.957 179.577 -133.983 179.755 -134.007 179.934C-119.339 184.51 -104.714 185.603 -90.3864 178.984C-81.6487 174.949 -74.6049 168.273 -68.2886 160.506C-63.6552 154.807 -59.4017 148.506 -55.1577 142.219C-53.6198 139.941 -52.0832 137.665 -50.5301 135.42C-38.8331 118.509 -26.1884 103.345 -4.90215 101.88C10.1908 100.838 27.6948 105.434 44.9326 111.493C53.5479 114.522 62.0878 117.912 70.2191 121.141L70.2452 121.152C78.3643 124.376 86.0783 127.439 93.0425 129.813C98.7033 131.744 104.386 133.731 110.088 135.724C131.614 143.25 153.434 150.878 175.506 156.021C199.256 161.56 220.713 157.304 241.975 151.074C247.104 149.571 252.221 147.953 257.355 146.331C262.786 144.614 268.237 142.891 273.745 141.29Z" fill="black"/>
<path d="M276.227 149.02C276.175 148.849 276.124 148.679 276.072 148.508C270.825 149.562 265.594 150.696 260.372 151.828C255.753 152.829 251.14 153.829 246.527 154.771C225.333 159.1 204.125 162.218 182.222 158.72C155.623 154.476 129.407 147.005 103.334 139.575C93.6387 136.812 83.9632 134.055 74.295 131.471C68.6243 129.958 62.5139 128.064 56.1483 126.091L55.0776 125.759C48.3285 123.668 41.3084 121.509 34.2456 119.64C20.125 115.904 5.80548 113.323 -6.89884 114.789C-28.9583 117.332 -41.0141 132.419 -52.2511 148.613C-53.3033 150.129 -54.3482 151.654 -55.3934 153.181L-55.3968 153.186C-65.5334 167.986 -75.6971 182.827 -92.7396 189.45C-106.368 194.753 -120.573 192.962 -134.976 188C-134.994 188.181 -135.012 188.363 -135.03 188.545C-120.596 193.5 -106.293 195.296 -92.5455 189.946C-75.3398 183.259 -65.0812 168.276 -54.9625 153.497C-53.9133 151.964 -52.8655 150.434 -51.8117 148.915C-40.5747 132.722 -28.639 117.831 -6.8374 115.318C5.76332 113.864 20.0025 116.423 34.1085 120.155C41.1591 122.02 48.1692 124.177 54.9191 126.268L55.9925 126.601C62.355 128.573 68.4752 130.47 74.1567 131.985C83.8058 134.564 93.4698 137.318 103.158 140.079C129.242 147.512 155.504 154.997 182.138 159.245C204.141 162.76 225.428 159.625 246.634 155.293C251.261 154.348 255.883 153.346 260.508 152.344C265.74 151.21 270.977 150.075 276.227 149.02Z" fill="black"/>
<path d="M278.326 156.536C278.281 156.362 278.235 156.188 278.19 156.015C273.095 156.55 268.006 157.128 262.92 157.706C258.091 158.255 253.264 158.803 248.439 159.314C226.605 161.626 204.79 163.169 182.816 160.509C155.884 157.245 129.174 151.615 102.538 146C92.7079 143.928 82.8876 141.858 73.0699 139.91C66.886 138.684 60.2502 137.08 53.37 135.414L53.1784 135.368C46.3596 133.717 39.3043 132.009 32.2247 130.555C17.9366 127.621 3.52285 125.717 -9.28903 127.416C-30.5368 130.231 -41.9303 144.536 -52.5326 159.838C-53.5053 161.241 -54.4713 162.653 -55.4376 164.066C-65.0208 178.074 -74.6288 192.118 -91.0648 198.586C-105.25 204.167 -120.307 201.875 -135.642 196.263C-135.654 196.449 -135.665 196.634 -135.676 196.819C-120.324 202.415 -105.173 204.709 -90.8686 199.081C-74.2711 192.55 -64.5697 178.365 -55.0035 164.377L-55.0021 164.375C-54.0334 162.959 -53.066 161.544 -52.0929 160.14C-41.4931 144.842 -30.2163 130.726 -9.21859 127.944C3.50105 126.257 17.8424 128.145 32.1169 131.076C39.1873 132.528 46.2349 134.235 53.0565 135.886L53.2439 135.932C60.1217 137.597 66.7688 139.204 72.9657 140.432C82.7689 142.377 92.5803 144.445 102.406 146.517L102.407 146.517C129.05 152.133 155.794 157.771 182.751 161.038C204.789 163.705 226.654 162.156 248.496 159.844C253.33 159.332 258.162 158.783 262.994 158.234L262.995 158.234C268.104 157.653 273.213 157.073 278.326 156.536Z" fill="black"/>
<path d="M280.108 163.974C280.069 163.797 280.029 163.62 279.99 163.444C275.227 163.524 270.463 163.618 265.7 163.713H265.7C260.596 163.814 255.494 163.915 250.392 163.999C228.039 164.364 205.704 164.382 183.425 162.54C156.112 160.288 128.908 156.513 101.729 152.742L101.728 152.742C91.8653 151.373 82.0064 150.005 72.1469 148.711C65.763 147.873 58.9863 146.703 52.0032 145.479C51.4685 145.386 50.9326 145.292 50.3956 145.197C43.9209 144.061 37.2834 142.896 30.6376 141.922C16.2463 139.812 1.79185 138.592 -11.1799 140.494C-31.6002 143.484 -42.4488 156.937 -52.5464 171.283C-53.4509 172.568 -54.3492 173.86 -55.2478 175.152C-64.3968 188.309 -73.5692 201.499 -89.434 207.736C-104.077 213.494 -119.862 210.747 -135.985 204.583C-135.989 204.772 -135.993 204.961 -135.996 205.15C-119.872 211.289 -103.999 214.036 -89.238 208.231C-73.2141 201.932 -63.9494 188.605 -54.8162 175.467L-54.8105 175.459C-53.9108 174.165 -53.0125 172.872 -52.1091 171.589C-42.0163 157.25 -31.2816 143.976 -11.1022 141.021C1.78978 139.131 16.1811 140.341 30.5598 142.449C37.1983 143.422 43.8289 144.586 50.3053 145.722L51.9107 146.004C58.8927 147.228 65.6801 148.399 72.0771 149.239C81.9283 150.532 91.7822 151.899 101.642 153.267C128.825 157.039 156.052 160.817 183.381 163.07C205.687 164.915 228.044 164.896 250.401 164.531C255.504 164.448 260.607 164.347 265.709 164.245L265.717 164.245C270.515 164.15 275.312 164.055 280.108 163.974Z" fill="black"/>
<path d="M281.595 171.364C281.562 171.184 281.529 171.004 281.496 170.824C275.16 170.428 268.824 170.025 262.488 169.622C236.356 167.96 210.224 166.297 184.064 165.112C156.191 163.848 128.352 161.911 100.511 159.974C90.8953 159.305 81.2794 158.636 71.6619 157.994C64.0643 157.485 56.0539 156.595 47.8588 155.685C41.8741 155.02 35.7909 154.344 29.6979 153.798C15.2809 152.505 0.846741 151.942 -12.3146 153.994C-31.9292 157.044 -42.4068 169.588 -52.1792 182.925C-53.0363 184.095 -53.888 185.27 -54.7398 186.446C-63.6129 198.696 -72.5048 210.971 -87.832 216.885C-102.893 222.705 -119.264 219.572 -136 212.972C-135.997 213.164 -135.993 213.357 -135.989 213.549C-119.265 220.117 -102.814 223.246 -87.6391 217.382C-72.1565 211.407 -63.1726 199.002 -54.3144 186.77C-53.4596 185.589 -52.6059 184.41 -51.7477 183.239C-41.9827 169.912 -31.6169 157.535 -12.2321 154.52C0.862786 152.478 15.244 153.036 29.65 154.328C35.7146 154.872 41.7903 155.547 47.7745 156.212L47.7761 156.212C55.9869 157.124 64.0254 158.017 71.626 158.526C81.2402 159.167 90.854 159.836 100.468 160.505C128.311 162.442 156.159 164.38 184.04 165.644C210.199 166.829 236.317 168.491 262.44 170.153L262.443 170.153L262.447 170.153C268.829 170.559 275.212 170.965 281.595 171.364Z" fill="black"/>
<path d="M282.811 178.778C282.784 178.595 282.757 178.412 282.73 178.23C277.62 177.562 272.512 176.871 267.406 176.181L267.401 176.181C262.954 175.58 258.509 174.979 254.061 174.393C231.083 171.364 208.063 168.724 184.734 168.483C159.63 168.233 134.526 168.129 109.423 168.025H109.421L109.4 168.025C96.8554 167.973 84.3106 167.922 71.7662 167.851C63.2866 167.804 54.4446 167.368 45.4666 166.925L45.4653 166.925C40.2041 166.666 34.8961 166.404 29.5872 166.217C15.2299 165.711 0.884309 165.751 -12.4814 167.87C-31.3419 170.867 -41.6715 182.443 -51.3488 194.718C-52.1822 195.776 -53.0107 196.838 -53.8394 197.9C-62.6433 209.187 -71.4588 220.488 -86.3187 225.989C-101.797 231.716 -118.567 228.293 -135.682 221.407C-135.67 221.604 -135.659 221.8 -135.647 221.996C-118.556 228.842 -101.716 232.254 -86.1327 226.488C-71.1231 220.932 -62.2157 209.51 -53.4256 198.238L-53.4148 198.224C-52.5867 197.162 -51.7597 196.102 -50.9286 195.048C-41.261 182.785 -31.0416 171.358 -12.3975 168.396C0.91579 166.285 15.2196 166.243 29.5683 166.749C34.86 166.936 40.1606 167.197 45.4192 167.456L45.421 167.456C54.4089 167.899 63.2743 168.336 71.7632 168.384C84.3149 168.454 96.8661 168.506 109.417 168.558H109.423C134.525 168.661 159.627 168.765 184.729 169.016C208.024 169.257 231.016 171.892 253.991 174.921C258.436 175.507 262.881 176.107 267.327 176.708C272.485 177.405 277.646 178.103 282.811 178.778Z" fill="black"/>
<path d="M283.769 186.322C283.749 186.137 283.729 185.953 283.708 185.769C278.629 184.827 273.559 183.848 268.49 182.87L268.489 182.87C264.176 182.037 259.863 181.205 255.547 180.396C232.452 176.065 209.275 172.396 185.42 172.908C171.127 173.218 156.521 173.36 141.752 173.505L141.751 173.505C90.5962 174.003 37.4778 174.521 -11.4537 182.091C-29.6112 184.906 -40.0608 195.468 -49.9312 206.634C-50.7517 207.562 -51.5681 208.494 -52.3845 209.426L-52.3923 209.435C-61.4043 219.725 -70.4189 230.017 -84.9535 234.986C-100.871 240.433 -117.817 236.839 -135.025 229.843C-135.005 230.043 -134.985 230.243 -134.965 230.443C-117.79 237.392 -100.789 240.967 -84.7802 235.49C-70.1039 230.473 -60.9977 220.073 -51.9987 209.796C-51.1764 208.857 -50.355 207.919 -49.5303 206.986C-39.6709 195.833 -29.3298 185.401 -11.3718 182.618C37.5176 175.054 90.5827 174.536 141.731 174.038C156.507 173.893 171.123 173.751 185.432 173.44C209.228 172.929 232.358 176.589 255.449 180.919C259.755 181.727 264.06 182.558 268.367 183.389L268.378 183.391C273.502 184.38 278.631 185.37 283.769 186.322Z" fill="black"/>
<path d="M284.463 194.036C284.45 193.85 284.437 193.665 284.423 193.48C279.347 192.312 274.281 191.09 269.216 189.868C265.935 189.077 262.655 188.286 259.372 187.509C237.149 182.253 214.83 177.677 191.653 178.386C125.494 180.403 55.5786 187.643 -9.98384 196.448C-27.7141 198.831 -38.8972 209.061 -49.7042 219.584C-50.2348 220.101 -50.7645 220.618 -51.294 221.135C-61.5609 231.164 -71.7543 241.12 -87.2222 244.7C-102.747 248.299 -118.371 244.77 -134.009 238.389C-133.98 238.593 -133.951 238.796 -133.922 239C-118.325 245.329 -102.676 248.829 -87.1014 245.219C-71.4833 241.604 -61.1904 231.549 -50.944 221.539C-50.4064 221.014 -49.8689 220.489 -49.3308 219.965C-38.5243 209.442 -27.4523 199.333 -9.91248 196.975C55.6402 188.172 125.536 180.935 191.67 178.918C214.77 178.212 237.029 182.772 259.249 188.027C262.527 188.803 265.805 189.593 269.084 190.384C274.203 191.619 279.327 192.855 284.463 194.036Z" fill="black"/>
<path d="M284.893 202.336C284.887 202.151 284.881 201.967 284.874 201.782C279.342 200.408 273.829 198.949 268.317 197.49C265.512 196.748 262.707 196.005 259.901 195.274C237.789 189.516 215.571 184.464 192.176 185.655C159.225 187.326 126.155 191.911 93.1354 197.001C85.9972 198.102 78.8615 199.226 71.7298 200.349L71.7283 200.35C45.8667 204.424 20.0575 208.49 -5.62996 211.391C-23.068 213.364 -35.1619 222.372 -46.946 231.599C-47.4559 231.998 -47.9652 232.398 -48.4742 232.797C-59.7425 241.639 -70.9204 250.41 -86.4709 253.291C-102.232 256.208 -117.544 252.742 -132.685 246.648C-132.648 246.854 -132.61 247.061 -132.572 247.268C-117.478 253.306 -102.158 256.736 -86.3733 253.815C-70.69 250.91 -59.4173 242.063 -48.169 233.236C-47.6514 232.83 -47.1339 232.423 -46.6159 232.018C-34.8314 222.791 -22.8431 213.875 -5.56978 211.92C20.1307 209.017 45.9552 204.949 71.8187 200.875C78.9491 199.751 86.0825 198.628 93.217 197.528C126.234 192.437 159.281 187.857 192.204 186.187C215.509 185 237.657 190.032 259.766 195.79C262.569 196.52 265.371 197.261 268.176 198.004L268.176 198.004C273.737 199.475 279.303 200.949 284.893 202.336Z" fill="black"/>
<path d="M284.997 210.671C284.998 210.489 284.999 210.307 285 210.125C279.937 208.942 274.882 207.703 269.827 206.463C266.23 205.581 262.633 204.699 259.033 203.838C236.673 198.487 214.216 193.93 191.014 195.106C146.436 197.355 101.172 203.929 56.3283 210.442C36.639 213.302 17.0309 216.15 -2.40251 218.615C-19.8106 220.822 -32.7887 229.805 -45.5102 238.931C-45.9447 239.243 -46.3789 239.554 -46.813 239.866C-59.1006 248.691 -71.2772 257.436 -87.1634 260.259C-102.039 262.902 -116.626 259.98 -131.086 254.601C-131.04 254.808 -130.994 255.014 -130.947 255.221C-116.538 260.544 -101.956 263.428 -87.0697 260.783C-71.0611 257.939 -58.795 249.129 -46.5302 240.319C-46.0862 240.001 -45.6422 239.682 -45.1981 239.363C-32.4712 230.234 -19.5931 221.331 -2.33507 219.143C17.1193 216.676 36.7392 213.826 56.4345 210.965L56.4355 210.965C101.267 204.454 146.489 197.885 191.041 195.638C214.161 194.466 236.554 199.006 258.908 204.356C262.501 205.216 266.093 206.096 269.687 206.978L269.69 206.978C274.786 208.228 279.886 209.478 284.997 210.671Z" fill="black"/>
<path d="M284.726 220.017C284.735 219.838 284.744 219.659 284.752 219.479C279.637 218.493 274.526 217.464 269.415 216.435C264.359 215.416 259.303 214.398 254.243 213.422C230.708 208.88 207.089 205.24 182.994 206.709C123.286 210.352 61.7679 217.11 2.51705 225.207C-14.7958 227.571 -28.5374 235.724 -42.0158 244.145C-42.7913 244.63 -43.5659 245.115 -44.3402 245.6C-57.0359 253.556 -69.6629 261.469 -85.0444 264.806C-100.069 268.059 -114.875 265.772 -129.572 260.961C-129.52 261.165 -129.468 261.369 -129.415 261.573C-114.766 266.331 -99.9657 268.582 -84.9309 265.326C-69.4545 261.969 -56.7531 254.009 -44.0735 246.062C-43.2931 245.573 -42.5128 245.084 -41.732 244.597C-28.2521 236.174 -14.5976 228.081 2.58962 225.735C61.8315 217.639 123.336 210.882 183.027 207.241C207.05 205.776 230.614 209.404 254.141 213.945C259.191 214.919 264.239 215.936 269.29 216.953L269.293 216.953C274.433 217.989 279.576 219.024 284.726 220.017Z" fill="black"/>
<path d="M283.994 229.836C284.011 229.659 284.028 229.482 284.045 229.305C278.753 228.55 273.462 227.763 268.169 226.975L268.166 226.975C262.485 226.129 256.802 225.284 251.116 224.477C227.238 221.091 203.31 218.394 179.225 219.305C122.576 221.442 63.6062 224.182 7.35184 231.151C-10.5124 233.363 -25.6059 241.134 -40.4893 249.156C-41.3069 249.597 -42.1239 250.038 -42.9407 250.479C-57.0034 258.078 -71.0018 265.642 -87.1523 268.762C-101.084 271.45 -114.701 269.868 -128.171 266.177C-128.114 266.377 -128.058 266.577 -128.001 266.776C-114.577 270.42 -100.976 271.971 -87.0507 269.285C-70.8169 266.149 -56.7511 258.548 -42.7044 250.958L-42.7001 250.955C-41.8785 250.511 -41.057 250.067 -40.2351 249.624C-25.3482 241.6 -10.3353 233.878 7.41775 231.68C63.647 224.713 122.596 221.975 179.246 219.838C203.28 218.928 227.169 221.619 251.04 225.005C256.719 225.81 262.398 226.655 268.077 227.5L268.078 227.5C273.383 228.289 278.687 229.079 283.994 229.836Z" fill="black"/>
<path d="M282.689 240.379C282.715 240.202 282.742 240.026 282.767 239.85C277.215 239.508 271.659 239.161 266.101 238.815L266.097 238.814C181.757 233.557 96.8289 228.263 12.612 236.779C-6.05363 238.665 -22.6384 245.881 -39.0561 253.369C-40.0266 253.812 -40.9965 254.255 -41.9662 254.699C-57.4122 261.763 -72.809 268.805 -89.8034 271.666C-102.482 273.801 -114.815 272.841 -126.981 270.228C-126.922 270.423 -126.863 270.617 -126.803 270.811C-114.682 273.387 -102.373 274.322 -89.7144 272.191C-72.6479 269.318 -57.1907 262.248 -41.7591 255.19L-41.7209 255.173C-40.7586 254.732 -39.7963 254.292 -38.8338 253.853C-22.4123 246.363 -5.90122 239.185 12.666 237.309C96.835 228.797 181.71 234.088 266.049 239.345L266.056 239.346C271.602 239.691 277.147 240.037 282.689 240.379Z" fill="black"/>
<path d="M280.989 250.147C281.024 249.97 281.059 249.793 281.094 249.616C272.233 249.496 263.373 249.399 254.513 249.303H254.512C226.036 248.993 197.565 248.683 169.1 247.583C153.331 246.974 137.305 245.867 121.187 244.753C86.7387 242.372 51.8695 239.962 18.1915 242.331C-1.41038 243.711 -19.6357 249.913 -37.7168 256.603C-39.7704 257.363 -41.822 258.129 -43.8735 258.895C-59.8953 264.877 -75.9134 270.858 -92.8252 273.848C-103.968 275.815 -114.944 275.503 -125.834 273.874C-125.772 274.063 -125.711 274.252 -125.649 274.44C-114.802 276.041 -103.852 276.336 -92.732 274.373C-75.7685 271.373 -59.7024 265.374 -43.6859 259.394C-41.634 258.627 -39.5829 257.861 -37.5309 257.102C-19.4511 250.413 -1.28911 244.237 18.2291 242.863C51.8699 240.496 86.6735 242.902 121.102 245.281L121.103 245.282C137.23 246.396 153.275 247.505 169.079 248.115C197.545 249.215 226.036 249.525 254.523 249.836L254.527 249.836C263.349 249.932 272.17 250.028 280.989 250.147Z" fill="black"/>
<path d="M278.707 260.301C278.752 260.12 278.797 259.94 278.842 259.759C271.08 260.209 263.312 260.736 255.543 261.263L255.539 261.263C249.67 261.661 243.801 262.059 237.933 262.424C212.974 263.976 188.041 264.926 163.255 262.724C146.462 261.228 129.435 258.648 112.325 256.055C106.115 255.114 99.8949 254.171 93.671 253.278C70.3049 249.925 46.8981 247.274 23.8784 248.049C3.26198 248.743 -16.6513 254.035 -36.4453 259.942C-39.5617 260.872 -42.6749 261.817 -45.7875 262.762C-62.4541 267.823 -79.1019 272.878 -96.1117 275.563C-105.847 277.099 -115.466 277.168 -125.021 276.325C-124.958 276.509 -124.896 276.693 -124.833 276.876C-115.32 277.7 -105.734 277.621 -96.0281 276.089C-78.9782 273.397 -62.2896 268.33 -45.6234 263.269C-42.5129 262.325 -39.4032 261.381 -36.292 260.452C-16.5016 254.546 3.35449 249.273 23.8965 248.582C46.8668 247.808 70.2351 250.453 93.5949 253.805C99.8092 254.697 106.024 255.639 112.23 256.579L112.231 256.579C129.346 259.173 146.397 261.757 163.207 263.254C188.035 265.461 213.002 264.508 237.966 262.955C243.842 262.59 249.717 262.192 255.59 261.793C263.3 261.27 271.007 260.748 278.707 260.301Z" fill="black"/>
<path d="M275.905 270.375C275.962 270.189 276.018 270.002 276.075 269.816C268.084 270.85 260.062 272.036 252.03 273.222C245.674 274.162 239.312 275.102 232.954 275.969C207.464 279.445 182.021 281.75 157.2 278.151C140.497 275.724 123.752 271.515 106.946 267.29L106.945 267.29C102.507 266.174 98.0655 265.057 93.6191 263.972C72.3426 258.779 50.9715 254.31 29.521 254.16C7.88095 254.009 -13.7212 258.335 -35.2336 263.403C-39.669 264.448 -44.1002 265.525 -48.5273 266.6C-65.5813 270.743 -82.5729 274.871 -99.5025 277.127C-107.842 278.242 -116.119 278.522 -124.359 278.248C-124.296 278.428 -124.233 278.608 -124.169 278.787C-115.973 279.05 -107.735 278.765 -99.4316 277.655C-82.4713 275.395 -65.4442 271.258 -48.3872 267.115L-48.3858 267.114C-43.9626 266.04 -39.5373 264.965 -35.1107 263.922C-13.6037 258.854 7.94554 254.542 29.5173 254.692C50.9012 254.843 72.221 259.298 93.492 264.489C97.9284 265.572 102.363 266.687 106.796 267.801L106.8 267.803C123.61 272.029 140.39 276.247 157.123 278.678C182.022 282.288 207.528 279.973 233.026 276.496C239.399 275.627 245.77 274.686 252.131 273.746C260.076 272.572 268.007 271.4 275.905 270.375Z" fill="black"/>
<path d="M272.587 280.329C272.657 280.134 272.727 279.94 272.797 279.745C264.733 281.327 256.587 283.127 248.407 284.934L248.406 284.934C240.887 286.596 233.339 288.263 225.799 289.774C198.881 295.166 172.051 298.556 146.881 292.558C132.781 289.199 118.56 283.696 104.22 278.147C100.048 276.533 95.8656 274.915 91.6735 273.344C73.0862 266.381 54.3132 260.361 35.43 259.848C13.6815 259.253 -8.86069 262.557 -31.3531 266.655C-37.5091 267.777 -43.6606 268.957 -49.7913 270.134L-49.796 270.135C-66.0728 273.26 -82.2034 276.356 -97.8835 278.241C-106.563 279.284 -115.197 279.74 -123.806 279.809C-123.743 279.986 -123.679 280.163 -123.615 280.34C-115.051 280.266 -106.459 279.808 -97.8195 278.769C-82.1199 276.882 -65.9621 273.781 -49.6792 270.655L-49.6776 270.655L-49.6761 270.655C-43.5481 269.478 -37.4025 268.299 -31.257 267.179C-8.77101 263.082 13.7255 259.787 35.4153 260.381C54.2029 260.891 72.9042 266.881 91.4855 273.843C95.6643 275.408 99.8375 277.023 104.004 278.635C118.35 284.187 132.618 289.707 146.757 293.076C172.047 299.103 198.975 295.69 225.905 290.296C233.469 288.781 241.032 287.11 248.559 285.446L248.56 285.446C256.623 283.664 264.646 281.892 272.587 280.329Z" fill="black"/>
<path d="M268.779 290.083C268.865 289.878 268.951 289.674 269.036 289.469C260.747 291.552 252.355 293.917 243.922 296.294L243.921 296.294C236.398 298.414 228.84 300.544 221.292 302.492C193.951 309.545 166.701 314.212 141.407 307.474C126.883 303.605 113.106 296.252 99.2714 288.868C96.7826 287.54 94.2918 286.211 91.7946 284.9C75.4324 276.316 58.7987 268.559 40.649 267.389C17.9665 265.92 -6.08402 268.199 -30.1281 271.341C-37.8703 272.353 -45.6104 273.453 -53.3044 274.548L-53.3052 274.548C-69.5154 276.854 -85.5208 279.13 -100.91 280.482C-108.288 281.129 -115.666 281.583 -123.043 281.9C-122.979 282.075 -122.914 282.25 -122.848 282.424C-115.519 282.108 -108.19 281.655 -100.863 281.013C-85.4594 279.66 -69.4292 277.379 -53.2106 275.073C-45.5201 273.979 -37.7871 272.879 -30.0586 271.869C-6.02163 268.728 17.9863 266.454 40.6143 267.92C58.6406 269.082 75.1858 276.789 91.5457 285.372C94.0356 286.678 96.5215 288.005 99.0076 289.332C112.84 296.715 126.68 304.102 141.269 307.988C166.707 314.765 194.075 310.063 221.425 303.007C229.003 301.053 236.578 298.918 244.111 296.794C252.401 294.458 260.641 292.135 268.779 290.083Z" fill="black"/>
<path d="M264.216 300.193C264.322 299.974 264.427 299.756 264.532 299.537C262.678 300.112 260.815 300.703 258.945 301.307C252.905 303.259 246.797 305.342 240.648 307.44L240.646 307.44C232.854 310.098 224.996 312.778 217.13 315.24C189.001 324.046 161 329.985 136.425 321.91C122.706 317.401 110.455 309.017 98.1641 300.606C96.0956 299.191 94.026 297.774 91.948 296.375C77.5406 286.677 62.7443 277.833 45.2328 276.103C21.6845 273.783 -3.68548 274.97 -29.0943 277.064C-38.5678 277.844 -48.0441 278.751 -57.4342 279.649L-57.435 279.649L-57.4363 279.649C-73.2417 281.161 -88.8028 282.65 -103.694 283.476C-109.81 283.816 -115.921 284.187 -122.03 284.577C-121.963 284.75 -121.896 284.924 -121.828 285.098C-115.774 284.711 -109.72 284.345 -103.665 284.008C-88.7642 283.181 -73.1811 281.691 -57.3656 280.178L-57.3628 280.178C-47.9758 279.28 -38.5069 278.374 -29.0503 277.594C-3.64904 275.501 21.6817 274.318 45.1802 276.633C62.5462 278.349 77.2447 287.12 91.649 296.817C93.7198 298.211 95.7849 299.624 97.8508 301.038C110.138 309.448 122.46 317.881 136.257 322.416C161.009 330.549 189.159 324.555 217.29 315.748C225.152 313.287 233.031 310.6 240.837 307.938L240.839 307.937C246.989 305.84 253.094 303.758 259.109 301.814C260.819 301.262 262.521 300.72 264.216 300.193Z" fill="black"/>
<path d="M258.815 310.601C258.946 310.365 259.077 310.129 259.207 309.892C258.266 310.232 257.323 310.577 256.377 310.925C250.22 313.193 243.962 315.622 237.645 318.075C229.708 321.156 221.677 324.274 213.638 327.152C184.777 337.483 156.068 344.616 132.148 335.579C119.019 330.618 108.168 321.6 97.2996 312.568L97.2981 312.567C95.5489 311.113 93.7993 309.659 92.0396 308.221C79.3632 297.864 66.1799 288.379 48.9688 286.247C13.8973 281.899 -25.2992 283.851 -62.9239 285.725C-77.6777 286.46 -92.1897 287.183 -106.117 287.509C-110.97 287.622 -115.797 287.849 -120.605 288.164C-120.534 288.337 -120.463 288.511 -120.392 288.684C-115.65 288.375 -110.889 288.153 -106.104 288.042C-92.1453 287.715 -77.6136 286.991 -62.8485 286.255L-62.8477 286.255C-25.2405 284.382 13.8808 282.434 48.9028 286.775C65.9502 288.887 79.0306 298.281 91.7009 308.633C93.4544 310.065 95.2003 311.517 96.9479 312.969C107.811 321.999 118.738 331.082 131.958 336.077C156.082 345.19 184.966 337.981 213.818 327.653C221.852 324.777 229.903 321.652 237.854 318.566L237.855 318.565L237.858 318.564C244.177 316.111 250.431 313.683 256.562 311.425C257.315 311.148 258.066 310.873 258.815 310.601Z" fill="black"/>
<path d="M254.465 318.07C254.606 317.839 254.747 317.607 254.888 317.375C240.956 321.845 227.387 327.19 213.406 332.699C210.142 333.984 206.856 335.279 203.537 336.573C201.679 337.299 199.794 338.047 197.886 338.805C187.964 342.744 177.409 346.935 166.71 349.467C153.958 352.485 141.035 353.138 128.786 348.208C115.974 343.049 106.246 333.858 96.5311 324.679C95.0247 323.256 93.5185 321.833 92.0012 320.426C80.7133 309.954 68.8236 300.353 51.6593 298.031C12.4795 292.716 -30.7954 292.809 -72.1678 292.897H-72.1696C-84.3579 292.924 -96.3811 292.949 -108.086 292.836C-111.607 292.802 -115.094 292.869 -118.552 293.019C-118.476 293.194 -118.399 293.368 -118.322 293.543C-114.941 293.399 -111.532 293.336 -108.091 293.369C-96.3706 293.482 -84.3366 293.456 -72.1413 293.43C-30.7753 293.342 12.4477 293.249 51.5873 298.559C68.5757 300.857 80.3604 310.354 91.6372 320.815C93.1482 322.217 94.6505 323.637 96.155 325.059C105.865 334.234 115.672 343.502 128.586 348.701C140.977 353.689 154.024 353.017 166.834 349.985C177.574 347.443 188.172 343.235 198.093 339.296L198.094 339.296C200 338.539 201.88 337.792 203.732 337.069C207.052 335.774 210.338 334.48 213.601 333.194C227.39 327.762 240.761 322.495 254.465 318.07Z" fill="black"/>
<path d="M247.706 328.444C247.879 328.194 248.053 327.943 248.225 327.693C236.296 331.942 224.597 336.847 212.551 341.898L212.547 341.9C209.023 343.378 205.47 344.868 201.871 346.358C200.293 347.011 198.684 347.685 197.047 348.37C187.106 352.534 176.145 357.124 164.982 359.986C151.984 363.319 138.75 364.296 126.579 359.539C113.788 354.541 104.767 345.714 95.7915 336.93L95.7909 336.93C94.4595 335.627 93.1292 334.325 91.7876 333.037C81.4115 323.073 70.386 313.95 53.1224 311.711C0.385786 304.892 -56.1386 302.107 -109.42 299.745C-111.476 299.654 -113.513 299.608 -115.532 299.602C-115.447 299.78 -115.361 299.958 -115.275 300.136C-113.348 300.145 -111.404 300.19 -109.444 300.277C-56.1605 302.639 0.342412 305.423 53.0535 312.239C70.1389 314.455 81.0589 323.474 91.4169 333.42C92.7523 334.703 94.0788 336.001 95.4081 337.302L95.4102 337.304C104.381 346.084 113.484 354.994 126.384 360.035C138.703 364.85 152.065 363.848 165.115 360.502C176.319 357.63 187.32 353.022 197.259 348.859C198.895 348.174 200.502 347.501 202.076 346.85C205.678 345.358 209.233 343.868 212.758 342.39L212.759 342.389C224.573 337.436 236.038 332.628 247.706 328.444Z" fill="black"/>
<path d="M239.284 339.744C239.503 339.47 239.721 339.196 239.939 338.921C230.941 342.382 222 346.162 212.854 350.029C209.196 351.575 205.505 353.136 201.765 354.695C200.378 355.273 198.964 355.868 197.526 356.473C187.471 360.704 176.252 365.424 164.807 368.408C151.728 371.818 138.39 372.949 126.196 368.506C113.34 363.824 104.38 355.507 95.4763 347.242C94.2061 346.063 92.9371 344.885 91.658 343.719C81.4202 334.384 70.5617 325.83 53.4075 323.72C-0.104868 317.143 -55.4913 311.438 -109.384 307.871C-110.058 307.827 -110.73 307.787 -111.399 307.753C-111.301 307.936 -111.203 308.119 -111.104 308.301C-110.544 308.332 -109.983 308.365 -109.42 308.403C-55.5395 311.969 -0.163569 317.672 53.3421 324.248C70.3255 326.337 81.0804 334.796 91.2973 344.112C92.5705 345.272 93.8356 346.447 95.1036 347.624L95.1067 347.627C104.006 355.889 113.048 364.284 126.012 369.006C138.353 373.502 151.815 372.346 164.943 368.923C176.427 365.929 187.684 361.193 197.737 356.963C199.174 356.358 200.586 355.764 201.971 355.186C205.715 353.626 209.407 352.065 213.066 350.518C221.925 346.773 230.585 343.112 239.284 339.744Z" fill="black"/>
<path d="M228.581 352.13C228.862 351.829 229.143 351.527 229.422 351.225C224.089 353.327 218.739 355.501 213.323 357.701C209.929 359.079 206.509 360.469 203.052 361.857C201.484 362.487 199.886 363.136 198.262 363.795C188.269 367.853 177.29 372.311 166.11 375.137C153.115 378.421 139.885 379.489 127.658 375.172C114.836 370.653 105.546 362.649 96.2973 354.679L96.2961 354.678C95.0224 353.581 93.7494 352.484 92.468 351.397C81.8903 342.424 70.7625 334.145 53.9993 331.892C1.31667 324.818 -52.9821 318.798 -106.043 314.463C-106.604 314.418 -107.164 314.375 -107.723 314.337C-107.614 314.523 -107.506 314.708 -107.397 314.894C-106.961 314.925 -106.525 314.958 -106.087 314.994C-53.036 319.328 1.25347 325.347 53.928 332.42C70.5324 334.652 81.5616 342.844 92.1217 351.803C93.3994 352.887 94.6705 353.982 95.944 355.079C105.188 363.045 114.557 371.119 127.48 375.674C139.848 380.041 153.198 378.949 166.241 375.653C177.46 372.818 188.478 368.344 198.469 364.286C200.091 363.627 201.687 362.98 203.252 362.351C206.711 360.962 210.131 359.572 213.525 358.194C218.59 356.136 223.595 354.103 228.581 352.13Z" fill="black"/>
<path d="M206.568 372.568C207.001 372.22 207.432 371.871 207.861 371.52C180.601 381.692 153.59 388.523 130.219 380.829C117.333 376.589 107.541 369.072 97.7708 361.571C96.5172 360.608 95.2636 359.646 94.0043 358.691C82.9379 350.299 71.4137 342.483 55.0744 340.094C3.70833 332.6 -48.4759 325.391 -100.118 319.792C-101.65 319.626 -103.173 319.491 -104.687 319.386C-104.571 319.573 -104.455 319.759 -104.339 319.945C-102.959 320.045 -101.571 320.17 -100.175 320.321C-48.5435 325.919 3.63302 333.127 54.997 340.621C71.1948 342.989 82.6279 350.733 93.6807 359.115C94.9374 360.067 96.1894 361.029 97.4431 361.991C107.207 369.489 117.073 377.065 130.052 381.335C153.184 388.95 179.798 382.439 206.568 372.568Z" fill="black"/>
<path d="M191.171 383.843C191.635 383.535 192.096 383.225 192.557 382.914C172.021 388.578 151.982 391.028 133.715 385.597C120.657 381.72 110.182 374.827 99.7039 367.932C98.5275 367.158 97.3506 366.384 96.1705 365.614C84.4876 357.992 72.4553 350.797 56.5724 348.267C38.2345 345.35 19.896 342.289 1.55074 339.227L1.54976 339.227C-29.6994 334.011 -60.9682 328.791 -92.2871 324.278C-95.6128 323.798 -98.9111 323.485 -102.186 323.319C-102.066 323.503 -101.945 323.688 -101.825 323.871C-98.6935 324.041 -95.5409 324.346 -92.3638 324.805C-61.0492 329.318 -29.7922 334.535 1.45199 339.751L1.45884 339.752C19.8033 342.814 38.1435 345.875 56.4883 348.793C72.2518 351.304 84.2034 358.444 95.8779 366.06C97.0533 366.826 98.2261 367.598 99.3997 368.37L99.4118 368.378C109.882 375.269 120.424 382.206 133.562 386.108C151.506 391.442 171.117 389.223 191.171 383.843Z" fill="black"/>
<path d="M178.817 391.458C179.246 391.214 179.673 390.969 180.1 390.722C165.585 393.026 151.395 393.226 137.888 389.733C124.345 386.228 112.679 380.019 100.957 373.781L100.957 373.78C100.204 373.38 99.4511 372.979 98.6976 372.579C86.2151 365.952 73.5355 359.489 58.3794 356.471C45.3113 353.865 32.2427 351.231 19.1711 348.597L19.1674 348.596C-14.937 341.723 -49.061 334.845 -83.2474 328.448C-88.7764 327.414 -94.3073 326.912 -99.8371 326.845C-99.7149 327.024 -99.5925 327.203 -99.4698 327.383C-94.0932 327.467 -88.7179 327.966 -83.346 328.972C-49.1632 335.368 -15.0444 342.244 19.059 349.117L19.0637 349.118L19.089 349.123C32.1522 351.756 45.2132 354.388 58.2746 356.993C73.3457 359.994 85.9636 366.422 98.4464 373.049C99.2036 373.451 99.9602 373.854 100.717 374.257C112.428 380.49 124.147 386.727 137.753 390.249C150.922 393.654 164.723 393.569 178.817 391.458Z" fill="black"/>
<path d="M170.283 396.065C170.665 395.87 171.046 395.674 171.426 395.477C161.648 395.988 152.001 395.441 142.558 393.388C128.463 390.325 115.583 384.82 102.631 379.285L101.755 378.911C88.5146 373.253 75.1701 367.621 60.3882 364.627C31.8856 358.858 3.60845 351.784 -24.6572 344.713L-24.6615 344.712C-40.9956 340.626 -57.3258 336.541 -73.6933 332.709C-81.3573 330.913 -89.2256 330.307 -97.2258 330.592C-97.102 330.766 -96.978 330.939 -96.8537 331.112C-89.0173 330.859 -81.3157 331.47 -73.8156 333.228C-57.4643 337.056 -41.1404 341.139 -24.808 345.225L-24.8069 345.225C3.46874 352.298 31.7697 359.378 60.2819 365.149C75.0024 368.131 88.2992 373.74 101.545 379.4L102.438 379.782C115.378 385.312 128.299 390.835 142.444 393.908C151.561 395.89 160.864 396.476 170.283 396.065Z" fill="black"/>
<path d="M164.355 398.973C164.708 398.807 165.06 398.639 165.412 398.471C160.699 398.351 155.998 397.994 151.309 397.357C136.234 395.307 121.752 390.395 107.233 385.278C106.268 384.938 105.304 384.597 104.338 384.256C90.785 379.466 77.1634 374.653 62.9964 372.001C40.6985 367.828 18.9107 361.128 -2.8783 354.365L-4.45285 353.876C-25.7123 347.275 -46.9851 340.671 -68.7199 336.364C-76.7718 334.77 -85.194 334.497 -93.8522 335.19C-93.7253 335.358 -93.5981 335.526 -93.4707 335.694C-84.9748 335.038 -76.7173 335.323 -68.824 336.887C-47.117 341.188 -25.868 347.785 -4.60008 354.388L-3.03718 354.873C18.7481 361.636 40.5646 368.345 62.8978 372.524C77.0224 375.169 90.6067 379.969 104.169 384.761C105.131 385.101 106.093 385.441 107.055 385.78C121.571 390.896 136.1 395.826 151.237 397.885C155.6 398.478 159.973 398.829 164.355 398.973Z" fill="black"/>
<path d="M159.085 401.368C159.425 401.219 159.765 401.069 160.105 400.918C158.866 400.819 157.628 400.706 156.389 400.577C141.238 398.991 126.013 395.286 110.804 391.257C108.002 390.515 105.2 389.761 102.4 389.008L102.372 389.001L102.37 389C89.9867 385.67 77.6253 382.346 65.3527 380.007C44.0176 375.941 23.2819 368.93 2.56959 361.719C1.10609 361.21 -0.357304 360.699 -1.82079 360.189C-21.0635 353.476 -40.3214 346.757 -60.0305 342.25C-69.6799 340.04 -79.2067 340.264 -88.629 341.83C-88.4989 341.989 -88.3687 342.147 -88.2381 342.305C-78.9649 340.793 -69.6118 340.602 -60.1502 342.769C-40.4717 347.269 -21.2414 353.978 -1.99313 360.693L-1.96926 360.701C-0.51521 361.208 0.938945 361.716 2.3934 362.222C23.1037 369.432 43.8738 376.455 65.2523 380.53C77.503 382.865 89.8402 386.182 102.222 389.512L102.224 389.513L102.243 389.518C105.049 390.272 107.857 391.027 110.667 391.772C125.878 395.802 141.137 399.516 156.333 401.106C157.25 401.202 158.168 401.289 159.085 401.368Z" fill="black"/>
<path d="M153.412 403.754C153.763 403.612 154.114 403.469 154.465 403.326C133.534 401.23 111.812 396.858 90.7103 392.612C82.9089 391.042 75.1921 389.488 67.6318 388.074C48.084 384.416 29.0672 376.89 10.0318 369.356L9.01688 368.955C8.49064 368.746 7.96437 368.538 7.43806 368.33C-12.4546 360.466 -32.3932 352.787 -52.9547 349.741C-62.3394 348.351 -72.1276 348.348 -82.1668 349.347C-82.0189 349.511 -81.8709 349.675 -81.7225 349.839C-71.8586 348.882 -62.2476 348.903 -53.0332 350.268C-32.5419 353.303 -12.6583 360.959 7.24109 368.825C8.11127 369.169 8.98151 369.514 9.85182 369.858C28.8732 377.386 47.9335 384.929 67.5332 388.597C75.0763 390.009 82.7814 391.559 90.5755 393.128L90.5786 393.129C111.351 397.309 132.756 401.617 153.412 403.754Z" fill="black"/>
<path d="M145.435 406.784C145.837 406.641 146.238 406.496 146.639 406.35C120.948 404.219 94.2128 400.5 69.6366 396.215C50.1383 392.821 31.2289 385.435 12.3018 378.041L10.7625 377.44C-8.66904 369.853 -28.1356 362.373 -48.2434 359.358C-56.3629 358.141 -64.8116 357.905 -73.485 358.422C-73.3143 358.59 -73.1433 358.758 -72.9721 358.926C-64.5009 358.448 -56.2522 358.696 -48.3229 359.884C-28.2839 362.889 -8.87193 370.346 10.5676 377.936L12.1279 378.545L12.1288 378.546C31.0397 385.933 49.9929 393.336 69.5446 396.739C93.7623 400.962 120.08 404.636 145.435 406.784Z" fill="black"/>
<path d="M134.188 410.442C134.727 410.283 135.264 410.123 135.801 409.96C114.339 409.302 92.8484 407.669 71.2908 404.461C51.6438 401.535 32.5067 394.85 13.3514 388.159L13.3505 388.159L12.3896 387.823C-7.07779 381.024 -26.5725 374.283 -46.6016 371.578C-51.0291 370.981 -55.5406 370.635 -60.1216 370.508C-59.899 370.693 -59.676 370.877 -59.4526 371.061C-55.1245 371.202 -50.8608 371.541 -46.6733 372.105C-26.7067 374.803 -7.26246 381.524 12.2129 388.325L13.1952 388.669C32.3351 395.354 51.5138 402.054 71.2118 404.988C92.259 408.119 113.24 409.752 134.188 410.442Z" fill="black"/>
<path d="M103.667 417C104.547 416.878 105.425 416.751 106.301 416.619C94.7623 415.974 83.2566 415.033 71.7952 413.715C51.8408 411.42 32.1217 405.786 12.3711 400.143L12.1855 400.09C11.3635 399.855 10.5414 399.62 9.71923 399.385C-5.19957 395.128 -20.1423 390.95 -35.2066 388.3C-34.7841 388.557 -34.3606 388.814 -33.9361 389.068C-19.3682 391.721 -4.89996 395.767 9.57215 399.897C10.4609 400.151 11.3497 400.405 12.2385 400.659C31.977 406.299 51.7349 411.944 71.734 414.244C82.344 415.464 92.9914 416.361 103.667 417Z" fill="black"/>
</svg>
