<svg width="40" height="40" viewBox="0 0 40 40" fill="none" xmlns="http://www.w3.org/2000/svg">
<g clip-path="url(#clip0_134_3228)">
<path d="M19.9613 11.8587H6.76933C3.08933 11.8587 0.101778 10.2538 0.00888889 6.596C0.00711111 6.65422 0 6.71067 0 6.76933V20.6818C3.67333 25.2298 9.29245 28.1413 15.5942 28.1413H15.8973C19.5773 28.1413 21.2316 29.7462 21.3244 33.404C21.3258 33.3458 21.3333 33.2893 21.3333 33.2307C21.3333 36.9693 19.636 40 15.8973 40H33.2307C36.9693 40 40 36.9693 40 33.2307C40 18.992 31.0284 11.8587 19.9613 11.8587Z" fill="#26A53A"/>
<path d="M40 33.2307C40 22.1636 31.0284 13.192 19.9613 13.192H6.76933C3.08933 13.192 0.101778 10.2538 0.00888889 6.596C0.00711111 6.65422 0 6.71067 0 6.76933C0 3.03067 3.03067 0 6.76933 0H33.2307C36.9693 0 40 3.03067 40 6.76933V33.2307Z" fill="#2AB540"/>
<path d="M0 33.2307V19.3484C3.67333 23.8964 9.29245 26.808 15.5942 26.808H15.8973C19.5773 26.808 22.5649 29.7462 22.6578 33.404C22.6591 33.3458 22.6667 33.2893 22.6667 33.2307C22.6667 36.9693 19.636 40 15.8973 40L6.76933 40C3.03067 40 0 36.9693 0 33.2307Z" fill="#249836"/>
<path d="M30.1101 9.78983C27.4336 7.10854 23.8743 5.63134 20.0822 5.62962C12.2685 5.62962 5.90967 11.993 5.90624 19.8142C5.90509 22.3145 6.55791 24.7548 7.79831 26.9065L5.78781 34.2575L13.3023 32.2845C15.3729 33.4147 17.7038 34.0102 20.0765 34.0113H20.0822C27.8948 34.0113 34.2547 27.6473 34.2576 19.8256C34.2593 16.0353 32.7866 12.4711 30.1101 9.78983ZM27.5566 25.0771C27.1573 26.1948 25.4678 27.0233 24.7108 27.1366C24.4522 27.175 24.1312 27.2122 23.7656 27.2122C23.3114 27.2122 22.7867 27.1555 22.222 26.9757C21.6367 26.7897 20.9799 26.5681 20.1491 26.2085C17.1317 24.9048 14.9506 22.2275 13.9191 20.7474L13.8642 20.6696C13.3961 20.0438 12.3074 18.4011 12.3074 16.6645C12.3074 14.8049 13.2359 13.8138 13.6324 13.3906L13.6971 13.3208C14.2166 12.7528 14.8259 12.6916 15.0639 12.6916C15.31 12.6916 15.556 12.6938 15.7705 12.7041C16.2088 12.6812 16.7123 12.8095 17.0681 13.6649L17.4686 14.6371C17.7301 15.2744 18.0883 16.1475 18.1443 16.2615C18.3417 16.6548 18.3515 17.0361 18.1741 17.3928L18.1266 17.489C18.0311 17.6848 17.9401 17.8698 17.7421 18.1011L17.5705 18.3078C17.4349 18.4732 17.2981 18.6381 17.1797 18.7555C17.1677 18.7681 17.1482 18.787 17.1305 18.8053C17.4074 19.2794 18.0534 20.2814 18.9722 21.1013C20.0353 22.0506 20.945 22.4451 21.4336 22.6569C21.5423 22.7045 21.631 22.7428 21.6956 22.7754C21.7317 22.7932 21.7591 22.8058 21.7803 22.8138C22.075 22.4771 22.6568 21.7849 22.8525 21.4912C23.3503 20.7406 24.0294 20.9868 24.3206 21.0938C24.7291 21.2421 26.7808 22.2624 26.8014 22.2727L26.9856 22.3632C27.2917 22.5109 27.5561 22.6386 27.7151 22.906C27.968 23.3268 27.8273 24.3173 27.5566 25.0771Z" fill="white"/>
</g>
<defs>
<clipPath id="clip0_134_3228">
<rect width="40" height="40" rx="5" fill="white"/>
</clipPath>
</defs>
</svg>
