<svg width="14" height="13" viewBox="0 0 14 13" fill="none" xmlns="http://www.w3.org/2000/svg">
<path d="M13.705 11.4128C13.8928 11.5871 13.9983 11.8236 13.9983 12.0702C13.9983 12.3168 13.8928 12.5533 13.705 12.7277C13.5172 12.902 13.2625 13 12.997 13C12.7314 13 12.4767 12.902 12.2889 12.7277L7 7.8153L1.70944 12.7261C1.52165 12.9005 1.26695 12.9985 1.00137 12.9985C0.735788 12.9985 0.481087 12.9005 0.293294 12.7261C0.105501 12.5518 2.79833e-09 12.3153 0 12.0687C-2.79833e-09 11.8221 0.105501 11.5856 0.293294 11.4112L5.58385 6.50039L0.29496 1.58802C0.107167 1.41365 0.00166609 1.17715 0.00166609 0.930559C0.0016661 0.683965 0.107167 0.44747 0.29496 0.273101C0.482752 0.0987327 0.737454 0.000773352 1.00303 0.00077335C1.26861 0.000773347 1.52331 0.0987327 1.71111 0.273101L7 5.18547L12.2906 0.272328C12.4784 0.0979591 12.7331 -4.10827e-09 12.9986 0C13.2642 4.10827e-09 13.5189 0.0979591 13.7067 0.272328C13.8945 0.446696 14 0.683191 14 0.929785C14 1.17638 13.8945 1.41287 13.7067 1.58724L8.41615 6.50039L13.705 11.4128Z" fill="#76777B"/>
</svg>
